/* XPM */
static char *e317d10cca4f408cd1e3d7412c00ae877pLqW3Zj7boA2EoD[] = {
/* columns rows colors chars-per-pixel */
"32 32 178 2 ",
"   c None",
".  c #DF3C0F",
"X  c #DF3D11",
"o  c #E13E15",
"O  c #E43F1B",
"+  c #E3411B",
"@  c #DD5334",
"#  c #DC593C",
"$  c #E64424",
"%  c #E84325",
"&  c #E74628",
"*  c #E8472A",
"=  c #E64A2B",
"-  c #EC4A2D",
";  c #F14725",
":  c #F64C27",
">  c #FB4E25",
",  c #F34C2A",
"<  c #F84E28",
"1  c #FE5125",
"2  c #F5512D",
"3  c #FC5229",
"4  c #E64F32",
"5  c #EA4D31",
"6  c #E05134",
"7  c #EC5235",
"8  c #E9553B",
"9  c #E1593E",
"0  c #ED5A3C",
"q  c #F35331",
"w  c #F15836",
"e  c #FD5A33",
"r  c #F45A39",
"t  c #FB613D",
"y  c #DB5E43",
"u  c #E55B41",
"i  c #EB5B43",
"p  c #EC5F48",
"a  c #DC684F",
"s  c #DF755F",
"d  c #E76045",
"f  c #EC6246",
"g  c #E5654A",
"h  c #EC624A",
"j  c #E2684E",
"k  c #E9684E",
"l  c #F46344",
"z  c #FB6542",
"x  c #FD6945",
"c  c #F26348",
"v  c #F36A4F",
"b  c #E46B53",
"n  c #EC6D54",
"m  c #F16D55",
"M  c #EF745E",
"N  c #FB7353",
"B  c #F1745C",
"V  c #F47B5F",
"C  c #EE7660",
"Z  c #E47A63",
"A  c #ED7A62",
"S  c #E67E6C",
"D  c #F17660",
"F  c #F17B61",
"G  c #DD8976",
"H  c #EC826F",
"J  c #FA8166",
"K  c #F4856E",
"L  c #FC8468",
"P  c #E58471",
"I  c #E48977",
"U  c #E38F7C",
"Y  c #EC8878",
"T  c #F28671",
"R  c #F18D75",
"E  c #FA8D73",
"W  c #F38E7C",
"Q  c #F98F79",
"!  c #EF927F",
"~  c #FC9077",
"^  c #F4917E",
"/  c #FA927A",
"(  c #DD9484",
")  c #DF9B8D",
"_  c #E49483",
"`  c #EC9482",
"'  c #EC9A8B",
"]  c #F39686",
"[  c #F69887",
"{  c #F99983",
"}  c #F59B8A",
"|  c #ED9D90",
" . c #F09F90",
".. c #F5A08C",
"X. c #FDA38E",
"o. c #E2A295",
"O. c #EFA191",
"+. c #E4AB9F",
"@. c #E9AA9C",
"#. c #F4A495",
"$. c #FCAA97",
"%. c #F4A79A",
"&. c #F6AB9C",
"*. c #FDAD9B",
"=. c #F6ACA0",
"-. c #EDB1A5",
";. c #E5B3AA",
":. c #EAB2A9",
">. c #EFBAAF",
",. c #F7B2A6",
"<. c #FBB3A3",
"1. c #F3B5A9",
"2. c #F8B6A8",
"3. c #F3B9AD",
"4. c #F8BEAF",
"5. c #EDBCB3",
"6. c #F4BCB2",
"7. c #FABFB2",
"8. c #EBC3BA",
"9. c #F6C4BA",
"0. c #F9C5BA",
"q. c #FCC8BC",
"w. c #E6C9C3",
"e. c #EBCBC4",
"r. c #E7CFCA",
"t. c #EBCFCB",
"y. c #F5C8C1",
"u. c #F9CCC4",
"i. c #EED1CB",
"p. c #FED2C7",
"a. c #F1D4CE",
"s. c #FCD4CC",
"d. c #EFD7D2",
"f. c #ECDAD6",
"g. c #EDDCD8",
"h. c #F3D7D2",
"j. c #F5DBD6",
"k. c #FBDAD2",
"l. c #F5DEDA",
"z. c #FBDED8",
"x. c #EFE0DD",
"c. c #F5E1DD",
"v. c #FBE2DD",
"b. c #F5E7E5",
"n. c #FEE6E1",
"m. c #F7E9E5",
"M. c #FCE9E5",
"N. c #F6ECEB",
"B. c #FBECEA",
"V. c #FDF1EF",
"C. c #FEF1EE",
"Z. c #FFF2EF",
"A. c #FEF1EF",
"S. c #F7F5F5",
"D. c #FFF3F1",
"F. c #FFF5F3",
"G. c #F9F5F4",
"H. c #F9F6F6",
"J. c #FFF7F5",
"K. c #FDF7F6",
"L. c #FEF7F6",
"P. c #FCF5F3",
"I. c #FAF8F7",
"U. c #FAFAFA",
"Y. c #FEF9F9",
"T. c #FDFBFB",
"R. c #FFFBFA",
"E. c #FDFAF9",
"W. c #FFFCFB",
"Q. c #FDFCFC",
"!. c #FDFDFD",
"~. c #FFFDFD",
"^. c #FFFEFD",
"/. c #FDFEFF",
"(. c #FEFEFE",
"). c white",
"_. c #FFFFFF",
"`. c #FEFEFE",
/* pixels */
"                        1 > > > < < < <                         ",
"                  1 1 1 > e / t : < < < , , ,                   ",
"                1 1 1 1 > X.Q.0.r : < < , , , - -               ",
"            1 1 1 1 1 > z v.@.s.&.2 { m , , , - - -             ",
"          1 1 1 1 1 > > ~ l.0 J M.K z.6.q , - - - - -           ",
"        1 1 1 1 > 3 N r $.a.w l s.s.#.1.n , - - - - - -         ",
"      1 1 1 1 > t <.Z.R $.l.V s.n.Q.Z.7.V , - - - - - - *       ",
"      1 1 1 > x p.Q.Q.9.{ K.2.Z.Q.Q.Q.Q.M.^ 5 - - - - * * &     ",
"    1 1 1 > x k.U.T.Q.T.q.D.W.Q.Q.Q.Q.Q.Q.T.#.5 - - * * & &     ",
"  1 1 1 1 e 4.8.8.I.Q.Q.Q.I.Q.Q.Q.Q.b.e.h.T.T.Y * - * * & & $   ",
"  1 1 1 > V U ..D.Q.Q.Q.e.i.Q.Q.Q.Q.V.#.8 ] T.8.5 * * & & $ $   ",
"  1 1 1 1 q E K.Q.Q.Q.8.` K.Q.Q.Q.Q.Q.L.,.W u.L.&.8 & & & $ +   ",
"1 1 1 1 > x v.Q.Q.Q.N.Z s.S.g.Q.Q.Q.Q.Q.Q.Q.K.Q.Q.s.n $ $ $ + + ",
"1 1 1 1 3 *.Q.f.G.Q.8.V c.U 9.Q.Q.Q.Q.Q.Q.Q.Q.Q.Q.Q.B.! = + + + ",
"1 1 1 > z n.8.3.Q.Q.-.F _ m Z.Q.Q.Q.Q.Q.Q.Q.Q.Q.Q.Q.G.o.9 + + + ",
"1 1 1 > L d.A n.Q.Q.>.0 7 T Q.U.T.Q.Q.Q.G.h.c.T.Q.Q.T.P + + + + ",
"1 1 3 > / _ E Q.Q.Q.v.c ; K Q.t.l.Q.Q.Q.Q.l.6.-.8.j.f.G + + + o ",
"1 1 > > F f *.Q.Q.Q.Q.2.q c B.:.%.Q.Q.e.5.a.P.P.j.+.# + + + o o ",
"1 > > > q 2 7.Q.x.B.Q.Q.,.r [ 5.h u.Q.| = 4 b I U a + + + o o o ",
"> > > < : : <.Q.5.9.Q.Q.Q.u.D H u p u.T.&.5 $ + + + + + + o o o ",
"  > > < < : Q Q.5.F D.Q.Q.Q.B.#.i * i u.Q.O.& $ + + + + o o o   ",
"  > < < < < l n.c.i [ T.Q.Q.Q.Q.u.h % f v.m.u + + + + o o o X   ",
"  < < < < < , ^ L.] - &.Q.Q.h.B.Q.y.8 4 ^ U.Z O + + + o o X X   ",
"    < < < < , , } k.B 7 q.Q.j.' K.Q.' ' k m.s O + + o o o X     ",
"      < < , , , - A ` 7 m B.U.S 6.Q.b.i.g e.# + + o o o X .     ",
"      < , , , , - - 5 5 - =.Q.P T Q.Q.e.j ( $ + + o o X X       ",
"        , , , , - - - - * M N.s C T.Q.) 6 @ + + o o o X         ",
"          , , - - - - - - i ;.@ T Q.w.@ + + + o o o X           ",
"            - - - - - - - 5 9 = 3.r.y + + + + o o o             ",
"              - - - - - - * % d ) # + + + + o o o               ",
"                  - - - * * & = $ + + + + o o                   ",
"                        * & & $ $ + + +                         "
};
