/* XPM */
static char *_bc9e43117a34630d31e417b106fc590LWPKdHHARAEwLSIE[] = {
/* columns rows colors chars-per-pixel */
"32 32 204 2 ",
"   c #000000",
".  c #0A0606",
"X  c #0D0708",
"o  c #0E0809",
"O  c #130B0C",
"+  c #1B0D0E",
"@  c #1A0E10",
"#  c #1C1012",
"$  c #210F0F",
"%  c #231314",
"&  c #2D1616",
"*  c #241719",
"=  c #2C1B1D",
"-  c #281719",
";  c #351616",
":  c #391616",
">  c #36191B",
",  c #2D1F21",
"<  c #321F21",
"1  c #2F2123",
"2  c #3B2225",
"3  c #392A2B",
"4  c #4C1A17",
"5  c #481917",
"6  c #5D1E19",
"7  c #581C14",
"8  c #6E1E13",
"9  c #751C16",
"0  c #5B201C",
"q  c #68221B",
"w  c #7C2216",
"e  c #482928",
"r  c #4B3131",
"t  c #473132",
"y  c #583D3E",
"u  c #6A3B37",
"i  c #66342F",
"p  c #5D413E",
"a  c #70403A",
"s  c #4F3F41",
"d  c #584749",
"f  c #5F4F51",
"g  c #624F51",
"h  c #6E5B5D",
"j  c #665456",
"k  c #785A59",
"l  c #684848",
"z  c #6F5F61",
"x  c #77686A",
"c  c #881916",
"v  c #891816",
"b  c #931715",
"n  c #981814",
"m  c #B8150F",
"M  c #A31712",
"N  c #B31611",
"B  c #852314",
"V  c #9A2615",
"C  c #B6250E",
"Z  c #AB2610",
"A  c #BA2A13",
"S  c #802F25",
"D  c #89382A",
"F  c #943426",
"G  c #B93829",
"H  c #B0362A",
"J  c #C3140E",
"K  c #D4120C",
"L  c #DE1B09",
"P  c #D71610",
"I  c #E31B08",
"U  c #E91F07",
"Y  c #C4290D",
"T  c #DB2A09",
"R  c #D22A0B",
"E  c #C43519",
"W  c #DB2E1E",
"Q  c #E42A07",
"!  c #E22309",
"~  c #EA2A08",
"^  c #F42706",
"/  c #F52A06",
"(  c #FB2C04",
")  c #F62F08",
"_  c #FB330C",
"`  c #FB3107",
"'  c #EE3E18",
"]  c #FB3A13",
"[  c #F73815",
"{  c #DC342F",
"}  c #CD362C",
"|  c #E53824",
" . c #B54A28",
".. c #DE481F",
"X. c #FB421E",
"o. c #F4501F",
"O. c #D94D37",
"+. c #C6503E",
"@. c #D14E36",
"#. c #E74425",
"$. c #F74523",
"%. c #FB4421",
"&. c #FB4E2C",
"*. c #FC4926",
"=. c #EE4E30",
"-. c #FC5B3C",
";. c #FC5636",
":. c #954C41",
">. c #8D5347",
",. c #A6514F",
"<. c #BE5341",
"1. c #B65444",
"2. c #98645E",
"3. c #B76A5E",
"4. c #8C6D6C",
"5. c #9E6E69",
"6. c #837577",
"7. c #9A7572",
"8. c #A86764",
"9. c #C45E4E",
"0. c #C15952",
"q. c #DD554C",
"w. c #F85E40",
"e. c #E25551",
"r. c #D06350",
"t. c #CE664F",
"y. c #EF684F",
"u. c #FB6143",
"i. c #E46151",
"p. c #FC6C50",
"a. c #EB725B",
"s. c #FC755B",
"d. c #F9745A",
"f. c #C06A66",
"g. c #EE7565",
"h. c #8F807F",
"j. c #D88171",
"k. c #C98376",
"l. c #FC846D",
"z. c #EF8A77",
"x. c #FC8A74",
"c. c #F38C7E",
"v. c #9C8E8E",
"b. c #968888",
"n. c #A4908D",
"m. c #AA9E9E",
"M. c #A49797",
"N. c #B98F8D",
"B. c #B2A29E",
"V. c #B6AAAA",
"C. c #BDB5B6",
"Z. c #ACA2A3",
"A. c #E48982",
"S. c #FD9480",
"D. c #F89684",
"F. c #CEA59F",
"G. c #DCA19D",
"H. c #FAA799",
"J. c #E2A398",
"K. c #C7B2AD",
"L. c #DDB2AB",
"P. c #C5B6B1",
"I. c #C7B8B3",
"U. c #CBB9B5",
"Y. c #C2BABA",
"T. c #CDBDB8",
"R. c #D5BDB9",
"E. c #DAABA4",
"W. c #E9ABA8",
"Q. c #F0AEAC",
"!. c #FDAEA0",
"~. c #F9B7AB",
"^. c #F2B9B8",
"/. c #FCC5BB",
"(. c #FBC3B9",
"). c #CDC7C7",
"_. c #D2CDCD",
"`. c #D6C9C4",
"'. c #DCD2CF",
"]. c #DCD4D3",
"[. c #DEDADA",
"{. c #D8D4D4",
"}. c #F8CCC9",
"|. c #E2D2CD",
" X c #FED4CC",
".X c #E3D6D2",
"XX c #E3DDDC",
"oX c #ECD9D5",
"OX c #FCDBD4",
"+X c #FCDFDA",
"@X c #E4CDC9",
"#X c #ECE1DE",
"$X c #FEE3DE",
"%X c #E5E2E2",
"&X c #E8E6E6",
"*X c #EDEBEB",
"=X c #FDEAE7",
"-X c #F1EEED",
";X c #FDECEA",
":X c #F8E6E4",
">X c #F4F3F2",
",X c #FCF4F3",
"<X c #FCF8F7",
"1X c #FEFDFD",
/* pixels */
"            O 4 : X                         . % 6 $             ",
"            5 G A 4 X                     . ; V O.q .           ",
"          X D (.A.W i #                 o e } i.OX1.+           ",
"          @ 9.=X@XO.#.a O . . X o . . . r +.| E.<Xz.&           ",
"          & c.1X.X8./ =.k h 4.7.7.4.k j r.` 0.U.1X(.7 .         ",
"        . 5 H.-XM.y ! ( y.d.u.-.-.w.d.g.] ^ u j >X+X8 .         ",
"        . 5 Q.{.g e ! ( ( ( ( ( %.( ( ( ( ~ 0 2 V.,Xw X         ",
"        . 5 W.>Xu E ( ( ( ( ( ( -.( ( ( ( ( T q _.=X9 .         ",
"        . : A.K...( ( ( ( ( ( ] s.( ( ( ( ( ( ! N.~.7 .         ",
"          % G 9.` ( ( -.x.%.( &.S.( ] d.s._ ( / G +.; .         ",
"        . - D ' ( ( ( #././.( l.~._ S.OXa./ ( / K c = .         ",
"        . =  ._ ( ( T F 9.w._ ~. X*.&.<.:.Y ( ^ K m > O         ",
"        = y o.( ] X.) V S T -.:X1Xl.Q w F ~ [ | K K 6 ;         ",
"      O l >.] &./. XS.' Q / H.1X1X X[ Q ~ -./.}.e.K c 9 @ .     ",
"    < k a.F ( l.;X1X1X(.] u.<X1X1X1Xl.` x.,X1X:X^.{ n J c > .   ",
"    * 4.O.F ( ] H.1X1X1Xx.~.1X1X1X1X(.p.;X1X1X}.{ W b m v ;     ",
"    . - 5.G Y ( H.1X1X1X1X1X%XY.V.{.,X;X1X1X1X=XP K n C > .     ",
"    X h D.~ V ~ S.1X1X1X1X1Xn.p e d >X1X1X1X1X}.K M m / B O     ",
"    o 6.p./ N Z u.=X1X>X<X1Xv.t 2 h <X1X*X1X,Xa.N b I / Z +     ",
"    . d s.( L M E H.1X&XXX1X%Xv.6.{.1X<X_.1XQ.W b J ^ ( B o     ",
"      % j._ / I H <.~.,XC.*XXXC.m.[.-XY.XX^.G ,.K U ( / : .     ",
"      O 2.$.( ^ q.U.k.J.T.V.[.%X&X[.C.C.W.3.N.G.I / ( A #       ",
"        t r.( ( u.oX|.|.R.U.b.m.m.h.n.K.K.P.XXD.( ( Q 6 .       ",
"        + k X.( ;.+X*X.X|.|.`.T.B.V.P.P.I.].<Xs.( ( V %         ",
"          % 3.$.*.!.1X<X#X.X|.|.I.P.P.`.-X1X X&.%.R & .         ",
"          . t t.x.s.,X1X1X-X|.|.I.P.'.>X1X1Xl.s.O.6 .           ",
"            . 3 F.=XOX1X1X1X-X.XU.].1X1X1X$X XL.e o             ",
"              . s Y.1X1X1X1X1X#X`.>X1X1X1X1X_.g o               ",
"                . = b.%X1X1X1X>XXX1X1X1X*XZ.3 .                 ",
"                  . * f ).<X1X1X>X1X1X[.x , .                   ",
"                      . * j Y.*X-X).x , .                       ",
"                          X 1 j z 3 O .                         "
};
