/* XPM */
static char *_18c92ce2dcb4580a71b3e5f6177836cMnhjIvjoza2UbYud[] = {
/* columns rows colors chars-per-pixel */
"32 32 143 2 ",
"   c None",
".  c #DE3C0F",
"X  c #DF3D11",
"o  c #E13E15",
"O  c #E83619",
"+  c #E63C1C",
"@  c #ED3D1B",
"#  c #EA3E21",
"$  c #E24017",
"%  c #E3411C",
"&  c #F6431C",
"*  c #F8471D",
"=  c #E64423",
"-  c #EC4223",
";  c #EF4927",
":  c #E74628",
">  c #E9472A",
",  c #E44B2F",
"<  c #EC4A2D",
"1  c #F24522",
"2  c #F64B25",
"3  c #FA4F26",
"4  c #F34C2A",
"5  c #F84E28",
"6  c #FD5025",
"7  c #F4522E",
"8  c #F9512A",
"9  c #E54B31",
"0  c #EA5036",
"q  c #EA543B",
"w  c #E1593E",
"e  c #F95530",
"r  c #F75834",
"t  c #F85A37",
"y  c #F25A3C",
"u  c #F95F3C",
"i  c #EC6349",
"p  c #F76343",
"a  c #FB6745",
"s  c #F5694A",
"d  c #EB6C56",
"f  c #EF6D59",
"g  c #F06C54",
"h  c #E3735F",
"j  c #EF745F",
"k  c #FA7052",
"l  c #F6755B",
"z  c #EA7662",
"x  c #E07965",
"c  c #EA7D6A",
"v  c #F07D68",
"b  c #E2806D",
"n  c #F1816B",
"m  c #E28675",
"M  c #EB8571",
"N  c #EE8A76",
"B  c #ED8F7B",
"V  c #F08573",
"C  c #F48A75",
"Z  c #F08C7D",
"A  c #E49486",
"S  c #EF9485",
"D  c #E59689",
"F  c #ED9B8C",
"G  c #F69681",
"H  c #F99986",
"J  c #F49E8F",
"K  c #F89C88",
"L  c #FCA28D",
"P  c #E3A396",
"I  c #E8A396",
"U  c #EAA599",
"Y  c #ECAB9E",
"T  c #F4A293",
"R  c #F9A393",
"E  c #FBAD9E",
"W  c #EBB3A7",
"Q  c #ECB9AE",
"!  c #F1B0A5",
"~  c #F9B1A3",
"^  c #F1B4A8",
"/  c #FAB6A9",
"(  c #F5BAAF",
")  c #F9B9AD",
"_  c #EEBAB1",
"`  c #F5BEB4",
"'  c #ECC2BA",
"]  c #F6C0B6",
"[  c #FAC2B5",
"{  c #F4C4BA",
"}  c #F9C5BB",
"|  c #F7C8BE",
" . c #EECBC3",
".. c #F5C9C1",
"X. c #FBCAC1",
"o. c #F5CFC8",
"O. c #F5D4CE",
"+. c #FBD3CC",
"@. c #EFDEDA",
"#. c #FBDAD4",
"$. c #F7DEDA",
"%. c #F2E0DD",
"&. c #FAE2DE",
"*. c #FDE3DE",
"=. c #EFE3E0",
"-. c #FFE7E1",
";. c #FCE7E4",
":. c #F4E8E6",
">. c #FAE8E4",
",. c #F8E9E6",
"<. c #FBEAE7",
"1. c #F5EBE9",
"2. c #F7EAE8",
"3. c #F7EBE9",
"4. c #F5EBEA",
"5. c #F6ECEB",
"6. c #F6EDEC",
"7. c #F9ECE9",
"8. c #FFEEEA",
"9. c #FEF1EF",
"0. c #FFF1EF",
"q. c #FFF2EF",
"w. c #F9F2F1",
"e. c #F8F3F2",
"r. c #F9F3F2",
"t. c #FEF3F2",
"y. c #FFF5F3",
"u. c #FEF6F5",
"i. c #FAF4F3",
"p. c #FFF8F6",
"a. c #FAF9F8",
"s. c #FAFAF9",
"d. c #F9FBFB",
"f. c #FFFAF9",
"g. c #FFFCFB",
"h. c #FAFCFD",
"j. c #FBFDFD",
"k. c #FBFEFF",
"l. c #FAFFFF",
"z. c #FFFEFE",
"x. c #FEFFFF",
"c. c white",
"v. c #FEFFFF",
/* pixels */
"                        6 3 3 3 5 5 5 5                         ",
"                  6 6 6 6 3 3 5 5 5 5 4 4 4 4                   ",
"              6 6 6 6 6 3 3 3 5 5 5 5 5 4 4 4 <                 ",
"            6 6 6 6 6 3 3 3 5 5 5 5 5 4 4 4 < < < <             ",
"          6 6 6 6 6 6 3 3 5 2 2 5 5 4 4 4 4 < < < < <           ",
"        6 6 6 6 6 6 3 3 3 2 t p 1 4 4 4 4 < < < < < < <         ",
"      6 6 6 6 6 6 3 3 3 5 * [ >.y 4 4 4 4 < < < < < < < >       ",
"    6 6 6 6 6 6 6 3 3 3 & k  .C ` C T 1 < < < < < < < > >       ",
"    6 6 6 6 6 6 3 8 2 8 s H ^ 2 +.] Y < ; < < < < < > > : :     ",
"  6 6 6 6 6 6 3 8 * u +.>.G | ~ p.c.#.n - < < < < < > > : :     ",
"  6 6 6 6 6 6 3 2 a &.l.c.} q.q.c.c.c.c.T > < < < > > : : = =   ",
"  6 6 6 6 6 3 3 e Y Q w.c.l.4.c.c.w.Y ^ c.z # < < > : : = = %   ",
"6 6 6 6 6 3 3 3 7 n 8.c.s.I >.c.c.c.+.g } O.q @ > > : : = = %   ",
"6 6 6 6 6 3 3 3 8 -.l.c.W ~ @.4.c.c.c.c.t.c.-.v - : : = = % % % ",
"6 6 6 6 3 3 3 & L =.O.c.N F M f.c.c.c.c.c.c.c.w.h = = = % % % % ",
"6 6 6 3 3 3 3 2 { B y.c.B @ R l.s.c.c.4.o.7.c.w.w = = = % % % o ",
"6 6 3 3 3 5 5 r M K c.c.+.@ H %...c.6.:.$...' A , = = % % % $ o ",
"6 6 3 3 5 5 5 7 ; / s.4.c./ y ! j u.Y , c U m + = = % % % % o o ",
"6 3 3 3 5 5 5 5 & E 5.T c.c.+.n = f q.T + + + = = = % % % o o o ",
"3 3 3 5 5 5 5 5 1 l l.i X.c.c.g.J O j c.z + : = = % % % $ o o   ",
"  3 5 5 5 5 4 4 4 1 ) ( < *.a.o.c.S = } Y + = = % % % % o o X   ",
"  3 5 5 5 5 4 4 4 4 ; J d g c.U +.w.U F A + = % % % % o o o X   ",
"  5 5 5 5 4 4 4 4 4 ; - 0 # X._ V c. .x w % = % % % % o o X     ",
"    5 5 4 4 4 4 4 < < < < # B D n c.b = = = % % % % o o o X     ",
"      5 5 4 4 4 4 < < < < < q 9 ` P + = = % % % % o o o X       ",
"      5 4 4 4 4 < < < < < < > 0 h + = = = % % % % o o X .       ",
"        4 4 4 < < < < < < < < > = : = = % % % % o o o X         ",
"          4 4 < < < < < < < > : : : = % % % % o o o X           ",
"            < < < < < < < > > : : = % % % % % o o X             ",
"                < < < < > > : : = = % % % % o o                 ",
"                    < < > : : = = % % % % o                     ",
"                          : : = = % %                           "
};
