<svg id="Layer_1" data-name="Layer 1" xmlns="http://www.w3.org/2000/svg" viewBox="0 0 124.45 38.66"><path d="M37.28,13.41V10H41v3.44Zm0,15.92v-14H41v14Z" transform="translate(0 -0.04)"/><path d="M44.83,10h7.74a23.13,23.13,0,0,1,3.43.19,4.88,4.88,0,0,1,2,.8,4.78,4.78,0,0,1,1.48,1.65,4.37,4.37,0,0,1,.6,2.26,4.51,4.51,0,0,1-.73,2.5,4.57,4.57,0,0,1-2,1.7,5.12,5.12,0,0,1,2.72,1.76,4.62,4.62,0,0,1,.95,2.91,5.76,5.76,0,0,1-.61,2.58,5.14,5.14,0,0,1-1.68,2,5.58,5.58,0,0,1-2.62.92c-.66.07-2.23.11-4.72.14H44.83Zm3.91,3.23v4.47H51.3c1.53,0,2.47,0,2.85-.06a2.65,2.65,0,0,0,1.57-.69,2,2,0,0,0,.58-1.51,2.18,2.18,0,0,0-.49-1.47,2.36,2.36,0,0,0-1.48-.67c-.39,0-1.51-.07-3.34-.07Zm0,7.7v5.17h3.62A17.18,17.18,0,0,0,55,26a2.44,2.44,0,0,0,1.42-.77A2.37,2.37,0,0,0,57,23.53a2.52,2.52,0,0,0-.42-1.48,2.41,2.41,0,0,0-1.24-.83,13.84,13.84,0,0,0-3.46-.28Z" transform="translate(0 -0.04)"/><path d="M67.88,29.33H64.16v-14h3.45v2a6.17,6.17,0,0,1,1.59-1.86A3,3,0,0,1,70.81,15a4.58,4.58,0,0,1,2.44.7L72.1,19a3.31,3.31,0,0,0-1.74-.6,2,2,0,0,0-1.32.43,2.84,2.84,0,0,0-.85,1.55,21.74,21.74,0,0,0-.31,4.7Z" transform="translate(0 -0.04)"/><path d="M74,22.12a7.58,7.58,0,0,1,.9-3.58,6.4,6.4,0,0,1,2.58-2.65,7.7,7.7,0,0,1,3.73-.9,7,7,0,0,1,5.22,2.07,7.11,7.11,0,0,1,2,5.24,7.22,7.22,0,0,1-2.06,5.28,7,7,0,0,1-5.17,2.09,8.14,8.14,0,0,1-3.68-.91,6,6,0,0,1-2.66-2.55A8.64,8.64,0,0,1,74,22.12Zm3.8.19a4.58,4.58,0,0,0,1,3.23,3.23,3.23,0,0,0,4.88,0,4.74,4.74,0,0,0,1-3.23,4.56,4.56,0,0,0-1-3.16,3.23,3.23,0,0,0-4.56-.32,1.94,1.94,0,0,0-.32.32,4.59,4.59,0,0,0-1,3.15Z" transform="translate(0 -0.04)"/><path d="M94,29.33l-4.43-14h3.6l2.64,9.13,2.41-9.2h3.59l2.33,9.2,2.68-9.2h3.65l-4.5,14h-3.57l-2.41-9-2.38,9Z" transform="translate(0 -0.04)"/><path d="M120.56,24.86l3.7.63A6.08,6.08,0,0,1,122,28.58a6.65,6.65,0,0,1-3.85,1.08,6.29,6.29,0,0,1-5.38-2.39,8,8,0,0,1-1.39-4.84A7.72,7.72,0,0,1,113.22,17a6,6,0,0,1,4.6-2,6.23,6.23,0,0,1,4.9,2.06q1.8,2.07,1.73,6.33h-9.27a3.68,3.68,0,0,0,.89,2.56,2.81,2.81,0,0,0,2.16.92,2.23,2.23,0,0,0,1.46-.48A3,3,0,0,0,120.56,24.86Zm.22-3.74a3.66,3.66,0,0,0-.84-2.46,2.66,2.66,0,0,0-3.93.06,3.35,3.35,0,0,0-.83,2.4Z" transform="translate(0 -0.04)"/><path d="M34.17,17.71v-.16a.59.59,0,0,0-.3-.42c-.3-.15-.64-.17-1-.32a4.73,4.73,0,0,1-2.23-2.94c-.28-.74-.53-1.5-.76-2.25a3.14,3.14,0,0,1,.12-.51c0-.17.07-.34.11-.51a4.5,4.5,0,0,0,.08-.51,1.86,1.86,0,0,1,.07-.52,1.3,1.3,0,0,0,0-.52V6.45l-.06-.52a1.14,1.14,0,0,0-.08-.51L30,4.91V4.42a1.91,1.91,0,0,0-.13-.51l-.15-.49a11.08,11.08,0,0,0-1-2.35,2,2,0,0,0-1.13-1,1.21,1.21,0,0,0-.38,0,1.76,1.76,0,0,0-.5.13,6.33,6.33,0,0,0-1.06.71A32.59,32.59,0,0,0,21.21,5a19.6,19.6,0,0,0-8,0C12.09,3.76,8.64.07,7.09,0A1.48,1.48,0,0,0,6,.52,4.9,4.9,0,0,0,5,2.17l-.15.36-.13.36-.12.37-.12.37L4.4,4l-.07.41-.09.38a1.72,1.72,0,0,1-.08.38c0,.13,0,.26-.07.38a2.54,2.54,0,0,0,0,.39V8.27A16.1,16.1,0,0,0,4.51,12c-.67,1.42-1.42,3.93-2.87,4.72a4.21,4.21,0,0,1-1.64.4A4.62,4.62,0,0,0,2,19.8a8.2,8.2,0,0,0-1,1.55c.2.89.34,1.79.6,2.66a20.18,20.18,0,0,0,4.52,7.81c.43.46.9.89,1.36,1.32A27.13,27.13,0,0,0,14,37.42c.5.24,1,.46,1.52.68a4.14,4.14,0,0,0,1.77.6,8,8,0,0,0,2-.78,27.46,27.46,0,0,0,7.75-5,23.32,23.32,0,0,0,2-2.1,19.27,19.27,0,0,0,4-7.7,5.37,5.37,0,0,0,.28-1.63c-.06-.68-.69-1.23-1-1.77A3.84,3.84,0,0,0,34.17,17.71Z" transform="translate(0 -0.04)" style="fill:#361e21"/><path d="M1.36,17.79l.35-.08A4.38,4.38,0,0,0,4.08,15.3c.14-.29.23-.62.39-.91h0c-.09.45-.16.89-.23,1.34-.43.85-.89,1.93-1.87,2.25l-.34.1a2.21,2.21,0,0,0,1.34.86,1.42,1.42,0,0,1,.41.08,2.15,2.15,0,0,1-1.23,0A2.12,2.12,0,0,1,1.36,17.79Z" transform="translate(0 -0.04)" style="fill:#fefefe"/><path d="M26.07,3.26a2.7,2.7,0,0,0,.25-.34,4.67,4.67,0,0,1,.8-.86h0c-.09.44-.3.9-.41,1.36a6.34,6.34,0,0,0-.17,1c0,.37-.08.63-.1,1s0,.51,0,.76a1.27,1.27,0,0,1,0-.39,3.78,3.78,0,0,0-1.6,1A8.43,8.43,0,0,1,26.07,3.26Z" transform="translate(0 -0.04)" style="fill:#e2d2cd"/><path d="M7,2.21h.24c.16.06.36.35.5.3l.07.13A7.44,7.44,0,0,1,9.41,6.77c-.22-.25-1-1-1.27-1H8.08v.08A3.86,3.86,0,0,0,8,5.17,9.06,9.06,0,0,0,7,2.21Z" transform="translate(0 -0.04)" style="fill:#e2d2cd"/><path d="M21.38,26.72a1.83,1.83,0,0,1-.61.11H20c-.24,0-.39.25-.6.35a5.08,5.08,0,0,1-2.27.5,5.57,5.57,0,0,1-2.75-.81c-.16.07-.42-.05-.55.05s-.38,0-.54,0a12.85,12.85,0,0,1-5.19-2.4V25.7c0,.4.07.67.08,1a1,1,0,0,0,0,.24v-.2a6,6,0,0,1,1.26.91l.46.31c.44.29.87.61,1.33.88a15.46,15.46,0,0,1,1.4.78,10.49,10.49,0,0,1,3.69,3.91,14.58,14.58,0,0,1,.74,2.41.81.81,0,0,0,0-.22,8.9,8.9,0,0,1,.82-2.51,10.28,10.28,0,0,1,3.57-3.58c.58-.38,1.21-.69,1.77-1.1a7.9,7.9,0,0,0,2.9-4A13.39,13.39,0,0,1,21.38,26.72Z" transform="translate(0 -0.04)" style="fill:#e2d2cd"/><path d="M4.4,19.1c.14.44.27.9.44,1.33a9.84,9.84,0,0,0,2.29,3.2c.32.31.69.57,1,.89V25.7c0,.4.07.67.08,1A11.54,11.54,0,0,1,6,24.42a8.75,8.75,0,0,1-1.58-4.29A4.45,4.45,0,0,1,4.4,19.1Z" transform="translate(0 -0.04)" style="fill:#d6110b"/><path d="M27.84,22.26a7.38,7.38,0,0,0,1.63-6.17A12.36,12.36,0,0,0,26.62,10a6.24,6.24,0,0,0-.9-.88,6.7,6.7,0,0,0-1.66-1.28h0V7.73l.06-.24c.06-.26.12-.53.2-.79A12.86,12.86,0,0,1,25,4.91l.06-.13V4.69a8.91,8.91,0,0,1,.57-1A2,2,0,0,1,26,3.25L26,3.17h0v0h0L26.09,3a4.67,4.67,0,0,1,.8-.86h0L27,2.05a3,3,0,0,1,.46.72,12.45,12.45,0,0,1,1.19,5.09A8.56,8.56,0,0,1,28,11.73a8,8,0,0,1,.47.8c.09-.26.18-.52.26-.78s.14-.54.2-.81.11-.54.16-.81a7.35,7.35,0,0,0,.1-.82,13.86,13.86,0,0,0-1-6.49,5.49,5.49,0,0,0-.77-1.48A.52.52,0,0,0,27,1.1a6.93,6.93,0,0,0-2.35,1.63,7.08,7.08,0,0,0-.9.74,35.68,35.68,0,0,0-2.66,2.7c-.62-.11-1.23-.27-1.86-.37a15.72,15.72,0,0,0-6.65.36c-.31-.31-.59-.65-.89-1A17.93,17.93,0,0,0,9.05,2.69c-.46-.47-1.66-1.53-2.32-1.52a.71.71,0,0,0-.48.27,3.48,3.48,0,0,0-.57.94,13,13,0,0,0-.84,5.41,11.69,11.69,0,0,0,.25,3.39c.1.46.23.92.33,1.39a6.33,6.33,0,0,0,.52-1c-.1-.4-.22-.79-.31-1.19a12.46,12.46,0,0,1-.24-2.72c0-1.48.52-4.48,1.59-5.52a.28.28,0,0,1,.23-.07,1.21,1.21,0,0,1,.58.44l0,.13a1.85,1.85,0,0,1,.51.57c.08.12.16.23.23.35l.22.36c.07.12.14.24.2.37a2.53,2.53,0,0,1,.18.37c.06.13.12.26.17.39s.1.26.14.39.09.27.12.4.08.27.11.41a8,8,0,0,1,.19,1.09A2.06,2.06,0,0,0,10,8,16.73,16.73,0,0,0,8.43,9.22l-.17.2-.17.17-.17.17-.16.17-.16.18-.15.17-.15.14-.15.18L7,10.79a1.33,1.33,0,0,0-.14.19l-.14.19-.13.2-.13.2-.12.2-.12.2-.12.21a2.12,2.12,0,0,1-.11.21l-.1.21a2,2,0,0,0-.1.21,1.47,1.47,0,0,0-.1.22l-.1.21c0,.08-.06.15-.08.22l-.09.22-.08.23a.29.29,0,0,1-.07.22,1.55,1.55,0,0,0-.07.23,1.87,1.87,0,0,0-.07.22l-.06.23L5,15v.69a7.22,7.22,0,0,0,.07,3h0a4.35,4.35,0,0,0,.27,1,12,12,0,0,0,3.92,5,10.54,10.54,0,0,0,2.53,1.53,16.57,16.57,0,0,1,1.66.62c.16,0,.39.12.54,0s.39,0,.55-.05a5.57,5.57,0,0,0,2.75.81,5.08,5.08,0,0,0,2.27-.5c.21-.1.4-.24.6-.35s.5,0,.73,0h0a1.83,1.83,0,0,0,.61-.11c.26-.18,1.24-.39,1.64-.56A12.35,12.35,0,0,0,27.84,22.26ZM7.34,11.18,7.48,11ZM8.18,10c.14-.16.27-.33.42-.48C8.45,9.66,8.32,9.83,8.18,10ZM9.35,8.74l.07-.06Zm.83-.82Zm0,0Z" transform="translate(0 -0.04)" style="fill:#fb2c04"/><path d="M31.17,19.05A2.41,2.41,0,0,0,33,17.82a4.69,4.69,0,0,1-2.75-2.56c-.08-.15-.16-.31-.23-.47A20.69,20.69,0,0,1,30.2,17a8.94,8.94,0,0,1-1.85,5.63,10.86,10.86,0,0,1-2,1.89A10.09,10.09,0,0,1,26.16,27c-.32,1.51-1.06,3.73-2.4,4.61a2.73,2.73,0,0,1-.48.25,5.33,5.33,0,0,0,3.71-2c.21-.22.41-.44.61-.67a19.89,19.89,0,0,1-1,1.95,12.43,12.43,0,0,1-.92,1.24c.23-.15.45-.29.66-.45a6.73,6.73,0,0,1,1.08-.83A11.55,11.55,0,0,0,29,29.42a18.09,18.09,0,0,0,3.46-7.86c-.32-.41-.67-.81-1-1.22s-.58-.78-.89-1.16v-.05A1.86,1.86,0,0,1,31.17,19.05Z" transform="translate(0 -0.04)" style="fill:#fb2c04"/><path d="M3.84,19l.59-.07a5.12,5.12,0,0,1-.1-.54,5.17,5.17,0,0,1-.07-.55v-1.1c0-.34.06-.68.07-1-.43.85-.89,1.93-1.87,2.25l-.34.1A2.21,2.21,0,0,0,3.46,19,1.58,1.58,0,0,1,3.84,19Z" transform="translate(0 -0.04)" style="fill:#fb2c04"/><path d="M7.69,30a5.71,5.71,0,0,0,3.36,1.92,5.67,5.67,0,0,1-.76-.52,6.89,6.89,0,0,1-1.9-3.74c-.05-.23-.08-.46-.11-.7a1,1,0,0,1,0-.24c0-.33-.06-.67-.08-1s0-.79,0-1.18c-.32-.32-.69-.58-1-.89a9.72,9.72,0,0,1-2.36-3.21c-.17-.43-.3-.89-.44-1.33A5.09,5.09,0,0,0,3,22.78c.17,3.07,2.68,6.93,4.88,8.92l.81.66c-.24-.36-.5-.72-.72-1.09A11.11,11.11,0,0,1,7,29.13H7C7.32,29.42,7.47,29.72,7.69,30Z" transform="translate(0 -0.04)" style="fill:#fb2c04"/><path d="M11.53,13.42a1.67,1.67,0,0,1,1,.23,3.55,3.55,0,0,1,1.32,2.26,3.06,3.06,0,0,0-.65-.54H13a1.43,1.43,0,0,1-.9.23H11.9l-.06-.18h-.1v-.05a1.26,1.26,0,0,1-.15-1c-.29-.14-.58-.26-.88-.37A3.13,3.13,0,0,1,11.53,13.42Z" transform="translate(0 -0.04)" style="fill:#361e21"/><path d="M22.57,13.42a4.33,4.33,0,0,1,1.51.23,2.3,2.3,0,0,0-.72.47c-.38.42-.35,1.06-.91,1.36a1.44,1.44,0,0,1-1,.06c-.13-.06-.25-.13-.37-.2a4.44,4.44,0,0,0-.7.53,4.94,4.94,0,0,1,.75-1.71A2.08,2.08,0,0,1,22.57,13.42Z" transform="translate(0 -0.04)" style="fill:#361e21"/><path d="M7,1.89A2.44,2.44,0,0,1,8.58,3a10.63,10.63,0,0,1,2,4.59,1.19,1.19,0,0,0-.38.25L10,8A2.06,2.06,0,0,0,10,7.34a8,8,0,0,0-.19-1.09,1.56,1.56,0,0,0-.11-.41l-.12-.4c0-.13-.09-.26-.14-.39s-.11-.26-.17-.39A2.53,2.53,0,0,0,9,4.29C9,4.16,8.91,4,8.84,3.92s-.14-.24-.22-.36l-.23-.35a1.87,1.87,0,0,0-.55-.57l-.11-.11a1.21,1.21,0,0,0-.58-.44.28.28,0,0,0-.23.07c-1.07,1-1.57,4-1.59,5.52a12.62,12.62,0,0,0,.28,2.74c.09.4.21.79.31,1.19a6.33,6.33,0,0,1-.52,1c-.1-.47-.23-.93-.33-1.39a12,12,0,0,1-.23-3.43v.44c.13-.58.2-1.18.33-1.77.2-1,1-4,1.8-4.55Z" transform="translate(0 -0.04)" style="fill:#d6110b"/><path d="M17.22,7.07Z" transform="translate(0 -0.04)" style="fill:#fefefe"/><path d="M12.1,22.26a6,6,0,0,0,1.19,2.84A4.94,4.94,0,0,0,16.61,27a4.88,4.88,0,0,0,3.61-1,6.08,6.08,0,0,0,2.1-3.36q.08-.44.12-.87h0a5.06,5.06,0,0,1,0,1.23A5.5,5.5,0,0,1,20,26.87c-.2.11-.39.25-.6.35a5.08,5.08,0,0,1-2.27.5,5.57,5.57,0,0,1-2.75-.81,6,6,0,0,1-1.56-1.55A4.42,4.42,0,0,1,12.1,22.26Z" transform="translate(0 -0.04)" style="fill:#361e21"/><path d="M16.76,19.9a3.75,3.75,0,0,1,2,.42,1.24,1.24,0,0,1,.7.72,1.87,1.87,0,0,1-.27,1.38,2.82,2.82,0,0,1-1.9,1.3,1.5,1.5,0,0,0,0,.3,1.17,1.17,0,0,0,.56.71,2.83,2.83,0,0,0,2.19.15,2.2,2.2,0,0,1-.32.21,2.83,2.83,0,0,1-2.21,0,5.37,5.37,0,0,0-1.69.21,2.05,2.05,0,0,1-1.61-.49,2.4,2.4,0,0,0,.38.12,2.54,2.54,0,0,0,1.85-.26,1.36,1.36,0,0,0,.6-1,3.35,3.35,0,0,1-1.32-.59,2.17,2.17,0,0,1-.88-1.4V21.2a.09.09,0,0,0,0-.07v-.5A2.25,2.25,0,0,1,16.76,19.9Z" transform="translate(0 -0.04)" style="fill:#361e21"/><path d="M21.45,6c-.62-.11-1.23-.27-1.86-.37A15.72,15.72,0,0,0,12.94,6c-.31-.31-.59-.65-.89-1A17.93,17.93,0,0,0,9.37,2.51a11.3,11.3,0,0,0,1.32,1.36,21.12,21.12,0,0,1,1.4,1.65c.29.37.58.76.89,1.12a15.31,15.31,0,0,1,8.54.07l.77-1.09c.39-.51.8-1,1.22-1.5.19-.22.38-.43.58-.63a5.13,5.13,0,0,0,.92-1,7.08,7.08,0,0,0-.9.74A34.66,34.66,0,0,0,21.45,6Z" transform="translate(0 -0.04)" style="fill:#fff"/><path d="M7,2.21h.24c.16.06.36.35.5.3a1.21,1.21,0,0,0-.58-.44A.28.28,0,0,0,7,2.14c-1.07,1-1.57,4-1.59,5.52a12.77,12.77,0,0,0,.24,2.76c.09.4.21.79.31,1.19A16.8,16.8,0,0,1,7.67,9.42a4.45,4.45,0,0,1-.6-3,3.44,3.44,0,0,0,.82,1.73,8.78,8.78,0,0,1,0-1.45A8.74,8.74,0,0,0,8,5.83a3.86,3.86,0,0,0-.11-.68A8.71,8.71,0,0,0,7,2.21Z" transform="translate(0 -0.04)" style="fill:#fff"/><path d="M29,7.68a12.44,12.44,0,0,0-1.15-5.09,3,3,0,0,0-.46-.72l-.22.19h0c-.09.44-.3.9-.41,1.36a6.34,6.34,0,0,0-.17,1c0,.37-.08.63-.1,1s0,.51,0,.76a6.54,6.54,0,0,0,.46,2,8.88,8.88,0,0,0,.59-1.76,3.53,3.53,0,0,1,0,.65,5.49,5.49,0,0,1-.82,2.45,13.08,13.08,0,0,1,1.65,2.06A8.53,8.53,0,0,0,29,7.68Z" transform="translate(0 -0.04)" style="fill:#fff"/><path d="M12.68,14.18v-.1h0A.47.47,0,0,0,12.3,14h0a.45.45,0,0,0-.24.3.3.3,0,0,0,.06.26.42.42,0,0,0,.25.16h.17a.55.55,0,0,0,.26-.37v-.09Z" transform="translate(0 -0.04)" style="fill:#fff"/><path d="M22.36,13.92h-.12c-.13.09-.25.15-.28.32a.39.39,0,0,0,0,.26.5.5,0,0,0,.36.18.43.43,0,0,0,.27-.24.32.32,0,0,0,0-.3A.41.41,0,0,0,22.36,13.92Z" transform="translate(0 -0.04)" style="fill:#fff"/><path d="M13.55,11.72a3.41,3.41,0,0,0-1.4-.35.66.66,0,0,0-.45.25.3.3,0,0,0,0,.26c.14.54,1.14,1.15,1.59,1.43a2.32,2.32,0,0,0,.72.27.55.55,0,0,0,.38-.23,1,1,0,0,0,.06-.75A1.72,1.72,0,0,0,13.55,11.72Z" transform="translate(0 -0.04)" style="fill:#fff"/><path d="M22.62,11.5a1.71,1.71,0,0,0-.78,0,2.49,2.49,0,0,0-1.7.79,1.1,1.1,0,0,0-.24.78.54.54,0,0,0,.65.52,1.12,1.12,0,0,0,.35-.12c.51-.27,1.8-.92,2-1.45a.37.37,0,0,0,0-.29A.41.41,0,0,0,22.62,11.5Z" transform="translate(0 -0.04)" style="fill:#fff"/><path d="M16.62,20.53a1.62,1.62,0,0,0-1.17.41.91.91,0,0,0-.18.66,1.27,1.27,0,0,0,.48.81c.12.09.26.16.38.24a3.29,3.29,0,0,1-.48-.57.93.93,0,0,1-.07-.73.88.88,0,0,1,.52-.46,4.62,4.62,0,0,1,1.81-.17A3.32,3.32,0,0,0,16.62,20.53Z" transform="translate(0 -0.04)" style="fill:#fff"/></svg>