<svg id="Layer_1" data-name="Layer 1" xmlns="http://www.w3.org/2000/svg" viewBox="0 0 123.69 28.91"><path d="M31.11,8.14V4.4h4V8.14Zm0,17.25V10.2h4V25.42Z" transform="translate(-2.02 -0.79)" style="fill:#f0f0f4"/><path d="M39.31,4.4H47.7a23.21,23.21,0,0,1,3.73.22,5.52,5.52,0,0,1,2.2.87,5.16,5.16,0,0,1,1.6,1.75,4.84,4.84,0,0,1,.65,2.43,5,5,0,0,1-3,4.6,5.55,5.55,0,0,1,3,1.91,5,5,0,0,1,1,3.16,6.26,6.26,0,0,1-.66,2.79,5.69,5.69,0,0,1-1.82,2.16,6,6,0,0,1-2.85,1c-.7.08-2.42.13-5.12.14H39.31Zm4.24,3.51v4.85h2.79a29.21,29.21,0,0,0,3.08-.07A2.74,2.74,0,0,0,51.13,12a2.22,2.22,0,0,0,.62-1.64,2.3,2.3,0,0,0-.54-1.59A2.42,2.42,0,0,0,49.61,8C49.2,8,48,7.93,46,7.93Zm0,8.36v5.61h3.92a18.46,18.46,0,0,0,2.88-.13,2.47,2.47,0,0,0,2.13-2.62A2.86,2.86,0,0,0,52,17.52a2.61,2.61,0,0,0-1.29-.95,14,14,0,0,0-3.76-.3Z" transform="translate(-2.02 -0.79)" style="fill:#f0f0f4"/><path d="M64.33,25.42h-4V10.2H64v2.16a6.43,6.43,0,0,1,1.73-2,3,3,0,0,1,1.73-.5,5.2,5.2,0,0,1,2.66.76l-1.24,3.52a3.64,3.64,0,0,0-1.9-.67,2.27,2.27,0,0,0-1.44.48,3.18,3.18,0,0,0-.92,1.67,24.31,24.31,0,0,0-.33,5.11Z" transform="translate(-2.02 -0.79)" style="fill:#f0f0f4"/><path d="M71,17.6a8.34,8.34,0,0,1,1-3.88,6.78,6.78,0,0,1,2.81-2.9,8.25,8.25,0,0,1,4-1,7.64,7.64,0,0,1,5.67,2.24,7.82,7.82,0,0,1,2.21,5.68,7.88,7.88,0,0,1-2.23,5.75,7.58,7.58,0,0,1-5.61,2.3,8.94,8.94,0,0,1-4-.94A6.56,6.56,0,0,1,72,22.09,9.31,9.31,0,0,1,71,17.6Zm4.13.21a5,5,0,0,0,1.08,3.45,3.45,3.45,0,0,0,4.86.43,4.36,4.36,0,0,0,.43-.43,5.16,5.16,0,0,0,1.07-3.45,5.06,5.06,0,0,0-1.07-3.45,3.45,3.45,0,0,0-4.86-.43,2.91,2.91,0,0,0-.43.43A5,5,0,0,0,75.09,17.81Z" transform="translate(-2.02 -0.79)" style="fill:#f0f0f4"/><path d="M92.67,25.42,87.85,10.2h3.89l2.85,10,2.63-10h3.88l2.54,10,2.9-10h4l-4.87,15.22h-3.87l-2.62-9.78-2.58,9.78Z" transform="translate(-2.02 -0.79)" style="fill:#f0f0f4"/><path d="M121.48,20.58l4,.68a6.64,6.64,0,0,1-2.44,3.36,7.26,7.26,0,0,1-4.18,1.15A6.83,6.83,0,0,1,113,23.18a8.85,8.85,0,0,1-1.5-5.26,8.34,8.34,0,0,1,2-6,6.47,6.47,0,0,1,5-2.15,6.81,6.81,0,0,1,5.37,2.24c1.29,1.51,1.93,3.8,1.87,6.9H115.62a4.07,4.07,0,0,0,1,2.79,3,3,0,0,0,2.3,1,2.4,2.4,0,0,0,1.59-.5A3.18,3.18,0,0,0,121.48,20.58Zm.23-4.07a3.85,3.85,0,0,0-.91-2.66,2.77,2.77,0,0,0-2.09-.92,2.81,2.81,0,0,0-2.17,1,3.7,3.7,0,0,0-.86,2.61Z" transform="translate(-2.02 -0.79)" style="fill:#f0f0f4"/><path d="M27.52,14l0-.13a.46.46,0,0,0-.23-.31c-.22-.11-.48-.13-.71-.24A3.53,3.53,0,0,1,25,11.15c-.2-.56-.39-1.12-.56-1.69l.09-.37c0-.13.05-.26.08-.39l.06-.38c0-.13,0-.26.05-.38s0-.26,0-.39,0-.26,0-.39,0-.26,0-.39V6.38c0-.13,0-.26,0-.38l0-.39c0-.13,0-.26-.05-.39a2.32,2.32,0,0,0-.06-.38c0-.13,0-.26-.07-.39s-.05-.25-.08-.37-.07-.26-.1-.38-.07-.25-.11-.37a8.5,8.5,0,0,0-.76-1.75,1.43,1.43,0,0,0-.84-.76.92.92,0,0,0-.29,0,1.27,1.27,0,0,0-.37.1,4.55,4.55,0,0,0-.79.53,24.64,24.64,0,0,0-3.33,3.05,15,15,0,0,0-5.94,0C11,3.6,8.47.85,7.31.82a1.12,1.12,0,0,0-.79.36,3.85,3.85,0,0,0-.74,1.23l-.1.27c0,.09-.07.18-.1.27l-.1.28c0,.09-.05.18-.08.27s-.06.19-.08.28-.05.19-.07.28,0,.19-.07.29l-.06.28a2.93,2.93,0,0,1,0,.29c0,.09,0,.19,0,.28s0,.19,0,.29l0,.29c0,.09,0,.19,0,.29a2.71,2.71,0,0,0,0,.29,2.71,2.71,0,0,0,0,.29v.29a11.35,11.35,0,0,0,.32,2.78c-.34,1.12-.91,3-2,3.55a3.22,3.22,0,0,1-1.22.3,3.36,3.36,0,0,0,1.48,2,6,6,0,0,0-.77,1.16c.15.66.25,1.33.44,2a15,15,0,0,0,3.42,5.82c.32.35.66.67,1,1a20.32,20.32,0,0,0,4.83,3.21c.37.18.76.34,1.14.51a3.2,3.2,0,0,0,1.31.45,5.88,5.88,0,0,0,1.52-.58,20.42,20.42,0,0,0,5.78-3.74,17.31,17.31,0,0,0,1.52-1.57,14.57,14.57,0,0,0,3-5.75,4,4,0,0,0,.22-1.22c-.05-.51-.53-.91-.79-1.32A2.91,2.91,0,0,0,27.52,14Z" transform="translate(-2.02 -0.79)" style="fill:#361e21"/><path d="M3,14.08,3.29,14a3.24,3.24,0,0,0,1.77-1.79c.11-.22.17-.47.29-.68v0c-.06.33-.12.67-.17,1-.32.63-.66,1.44-1.4,1.68l-.25.07a1.61,1.61,0,0,0,1,.65.77.77,0,0,1,.3.06,1.69,1.69,0,0,1-.92,0A1.62,1.62,0,0,1,3,14.08Z" transform="translate(-2.02 -0.79)" style="fill:#fefefe"/><path d="M21.47,3.23a2.56,2.56,0,0,0,.2-.26,3.59,3.59,0,0,1,.59-.64v0c-.06.33-.23.67-.3,1a5.89,5.89,0,0,0-.13.71c0,.23-.06.47-.08.71s0,.38,0,.57c0-.1,0-.2,0-.29a2.74,2.74,0,0,0-1.19.76A6.29,6.29,0,0,1,21.47,3.23Z" transform="translate(-2.02 -0.79)" style="fill:#e2d2cd"/><path d="M7.27,2.44a1.24,1.24,0,0,1,.18,0c.11,0,.26.26.37.22l.08.08A5.64,5.64,0,0,1,9.07,5.84c-.16-.18-.71-.75-1-.77h0a.13.13,0,0,0,0,.06A3,3,0,0,0,8,4.63,6.67,6.67,0,0,0,7.27,2.44Z" transform="translate(-2.02 -0.79)" style="fill:#e2d2cd"/><path d="M18,20.74a1.54,1.54,0,0,1-.46.08v0c-.17,0-.36,0-.55,0s-.29.19-.44.27a3.66,3.66,0,0,1-1.69.37,4.25,4.25,0,0,1-2.06-.6c-.12.05-.31,0-.41,0s-.29,0-.4,0a9.49,9.49,0,0,1-3.88-1.75c0,.3,0,.59,0,.88s.05.5.06.75a1.23,1.23,0,0,0,0,.19c0-.05,0-.12,0-.15a4.26,4.26,0,0,1,.94.67c.11.09.23.16.34.24.33.21.65.45,1,.65s.7.36,1,.58a7.89,7.89,0,0,1,2.76,2.92,10.12,10.12,0,0,1,.55,1.8c0-.05,0-.11,0-.16a6.51,6.51,0,0,1,.61-1.87,7.67,7.67,0,0,1,2.66-2.68c.44-.29.91-.51,1.33-.82a5.92,5.92,0,0,0,2.16-2.95A10,10,0,0,1,18,20.74Z" transform="translate(-2.02 -0.79)" style="fill:#e2d2cd"/><path d="M5.3,15.05c.11.33.2.67.33,1a7,7,0,0,0,1.71,2.39c.24.24.51.43.75.66,0,.3,0,.59,0,.88s.05.5.06.75A8.82,8.82,0,0,1,6.51,19a6.52,6.52,0,0,1-1.18-3.18A3.31,3.31,0,0,1,5.3,15.05Z" transform="translate(-2.02 -0.79)" style="fill:#d6110b"/><path d="M22.82,17.41A5.49,5.49,0,0,0,24,12.81a9.16,9.16,0,0,0-2.12-4.55,4.64,4.64,0,0,0-.67-.66A5.59,5.59,0,0,0,20,6.65h0l0-.09a1.16,1.16,0,0,0,0-.18c.05-.2.09-.4.15-.59a9,9,0,0,1,.51-1.34.36.36,0,0,1,0-.09l0-.07a7.74,7.74,0,0,1,.43-.73,1.91,1.91,0,0,1,.24-.32l.06-.06v0l0,0,0,0h0L21.67,3a3.59,3.59,0,0,1,.59-.64l0,0h0v0h0l.09-.07a2.15,2.15,0,0,1,.34.54,9.2,9.2,0,0,1,.88,3.8,6.24,6.24,0,0,1-.49,2.88c.13.19.25.4.36.6.07-.19.13-.39.19-.58l.15-.6L24,8.22c0-.2.06-.41.08-.61a10.46,10.46,0,0,0-.77-4.85,4,4,0,0,0-.57-1.1.43.43,0,0,0-.28-.18c-.37,0-1.46.94-1.75,1.21a6.13,6.13,0,0,0-.68.56,23.59,23.59,0,0,0-2,2c-.47-.09-.92-.21-1.39-.28a11.54,11.54,0,0,0-5,.27c-.24-.23-.45-.49-.67-.73A13.39,13.39,0,0,0,9,2.69c-.35-.35-1.24-1.14-1.73-1.13a.52.52,0,0,0-.36.19,2.56,2.56,0,0,0-.42.71,9.6,9.6,0,0,0-.89,4.15A9,9,0,0,0,5.8,9.14c.08.34.17.69.25,1a5.6,5.6,0,0,0,.39-.72c-.08-.3-.17-.6-.23-.9a9.1,9.1,0,0,1-.19-2c0-1.11.39-3.35,1.19-4.13a.29.29,0,0,1,.18,0,1,1,0,0,1,.43.33l.08.08a1.57,1.57,0,0,1,.38.43c.06.09.12.17.17.26l.17.27L8.77,4l.13.28c0,.1.09.19.12.29s.08.2.11.29l.09.3a2.81,2.81,0,0,1,.08.31,6.83,6.83,0,0,1,.15.81,2.72,2.72,0,0,0,.05.49,11.79,11.79,0,0,0-1.19.92l-.13.12-.13.12-.12.13-.12.13-.12.13a.69.69,0,0,0-.11.13l-.12.14-.11.13-.1.14L7.14,9,7,9.14l-.1.15-.09.14-.09.16-.09.15-.09.15s0,.11-.08.16a1.09,1.09,0,0,0-.08.15c0,.06,0,.11-.08.16s0,.11-.07.16,0,.11-.07.17a1.11,1.11,0,0,1-.07.16L6.07,11,6,11.18a1.09,1.09,0,0,0,0,.17l-.06.17a1.54,1.54,0,0,1-.05.17c0,.05,0,.11,0,.17a.85.85,0,0,0,0,.17.85.85,0,0,0,0,.17,1,1,0,0,0,0,.17l0,.18a5.36,5.36,0,0,0,0,2.22h0a3.13,3.13,0,0,0,.21.74,8.9,8.9,0,0,0,2.92,3.73,8.27,8.27,0,0,0,1.89,1.14,11.64,11.64,0,0,1,1.24.46c.11,0,.29.1.4,0s.29,0,.41,0a4.25,4.25,0,0,0,2.06.6,3.66,3.66,0,0,0,1.69-.37c.15-.08.3-.18.44-.27s.38,0,.55,0v0a1.54,1.54,0,0,0,.46-.08c.19-.13.93-.29,1.22-.42A9.18,9.18,0,0,0,22.82,17.41ZM7.49,9.14A1.63,1.63,0,0,0,7.6,9,1.63,1.63,0,0,1,7.49,9.14Zm.64-.89.3-.36ZM9,7.32l.05-.05Zm.61-.61h0Zm0,0v0Z" transform="translate(-2.02 -0.79)" style="fill:#fb2c04"/><path d="M25.28,15a1.79,1.79,0,0,0,1.39-.91,3.53,3.53,0,0,1-2.05-1.91c-.06-.12-.12-.24-.17-.36.05.56.11,1.11.11,1.66a6.67,6.67,0,0,1-1.38,4.2,8.27,8.27,0,0,1-1.48,1.42A7.26,7.26,0,0,1,21.56,21c-.24,1.13-.79,2.79-1.79,3.45a3,3,0,0,1-.36.18,3.93,3.93,0,0,0,2.77-1.49c.16-.17.3-.34.45-.51a11.16,11.16,0,0,1-.75,1.46,10.42,10.42,0,0,1-.69,1l.49-.34a4.83,4.83,0,0,1,.81-.62,8.64,8.64,0,0,0,1.16-1.33,13.56,13.56,0,0,0,2.58-5.87c-.24-.31-.5-.6-.74-.91l-.67-.87v0A1.35,1.35,0,0,1,25.28,15Z" transform="translate(-2.02 -0.79)" style="fill:#fb2c04"/><path d="M4.84,15l.45-.06c0-.13-.06-.26-.08-.4s0-.27,0-.41,0-.27,0-.41,0-.27,0-.41,0-.51.05-.77c-.32.63-.66,1.44-1.4,1.68l-.25.07a1.61,1.61,0,0,0,1,.65A.77.77,0,0,1,4.84,15Z" transform="translate(-2.02 -0.79)" style="fill:#fb2c04"/><path d="M7.76,23.17a4.23,4.23,0,0,0,2.5,1.44,5.66,5.66,0,0,1-.56-.4,5.12,5.12,0,0,1-1.42-2.79,4.5,4.5,0,0,1-.08-.51,1.23,1.23,0,0,1,0-.19c0-.25,0-.5-.06-.75s0-.58,0-.88c-.24-.23-.51-.42-.75-.66A7,7,0,0,1,5.63,16c-.13-.32-.22-.66-.33-1A3.83,3.83,0,0,0,4.22,17.8c.13,2.29,2,5.17,3.68,6.66l.6.49c-.18-.27-.37-.54-.53-.82a7.66,7.66,0,0,1-.67-1.59h0C7.48,22.74,7.6,23,7.76,23.17Z" transform="translate(-2.02 -0.79)" style="fill:#fb2c04"/><path d="M10.62,10.77a1.4,1.4,0,0,1,.78.17,2.64,2.64,0,0,1,1,1.69,2.27,2.27,0,0,0-.48-.4c-.06,0-.08,0-.13,0a1,1,0,0,1-.68.17H11l0,0h-.08l0,0,0,0,0,0,0,0,0,0,0,0,0,0,0,0,0,0,0,0,0,0a.94.94,0,0,1-.11-.77A6.5,6.5,0,0,0,9.76,11,2.2,2.2,0,0,1,10.62,10.77Z" transform="translate(-2.02 -0.79)" style="fill:#361e21"/><path d="M18.87,10.79A3.05,3.05,0,0,1,20,11a1.75,1.75,0,0,0-.53.35c-.29.32-.27.79-.68,1a1.16,1.16,0,0,1-.78,0,1.51,1.51,0,0,1-.28-.15,4,4,0,0,0-.52.4,3.68,3.68,0,0,1,.56-1.28A1.53,1.53,0,0,1,18.87,10.79Z" transform="translate(-2.02 -0.79)" style="fill:#361e21"/><path d="M7.24,2.2a1.83,1.83,0,0,1,1.18.86,7.9,7.9,0,0,1,1.5,3.43.79.79,0,0,0-.29.18l-.13.09a2.72,2.72,0,0,1-.05-.49,6.83,6.83,0,0,0-.15-.81,2.81,2.81,0,0,0-.08-.31l-.09-.3c0-.09-.07-.19-.11-.29s-.08-.19-.12-.29L8.77,4l-.15-.27-.17-.27c0-.09-.11-.17-.17-.26a1.57,1.57,0,0,0-.38-.43l-.08-.08a1,1,0,0,0-.43-.33.29.29,0,0,0-.18,0C6.41,3.18,6,5.42,6,6.53a9.1,9.1,0,0,0,.19,2c.06.3.15.6.23.9a5.6,5.6,0,0,1-.39.72c-.08-.34-.17-.69-.25-1a9,9,0,0,1-.19-2.53c0,.11,0,.22,0,.33.1-.44.15-.89.25-1.33.15-.7.73-3,1.34-3.39Z" transform="translate(-2.02 -0.79)" style="fill:#d6110b"/><polygon points="12.85 5.28 12.86 5.29 12.87 5.28 12.85 5.28" style="fill:#fefefe"/><path d="M11.05,17.41a4.58,4.58,0,0,0,.88,2.12,3.7,3.7,0,0,0,2.48,1.4,3.63,3.63,0,0,0,2.7-.75,4.58,4.58,0,0,0,1.57-2.5c.05-.22.06-.44.09-.65l-.05,0,.05,0a3.46,3.46,0,0,1,0,.91A4.11,4.11,0,0,1,17,20.8c-.14.09-.29.19-.44.27a3.66,3.66,0,0,1-1.69.37,4.25,4.25,0,0,1-2.06-.6,4.53,4.53,0,0,1-1.15-1.12A3.23,3.23,0,0,1,11.05,17.41Z" transform="translate(-2.02 -0.79)" style="fill:#361e21"/><path d="M14.53,15.65A2.77,2.77,0,0,1,16,16a1,1,0,0,1,.52.54,1.37,1.37,0,0,1-.2,1,2.07,2.07,0,0,1-1.41,1,.91.91,0,0,0,0,.23.88.88,0,0,0,.41.52,2.05,2.05,0,0,0,1.63.11,1.19,1.19,0,0,1-.23.16,2.06,2.06,0,0,1-1.65,0,3.61,3.61,0,0,0-1.26.16,1.53,1.53,0,0,1-1.2-.36l.28.08a1.9,1.9,0,0,0,1.38-.19,1.05,1.05,0,0,0,.45-.72,2.68,2.68,0,0,1-1-.44A1.67,1.67,0,0,1,13.12,17v-.27a.07.07,0,0,0,0-.05.09.09,0,0,0,0-.05s0,0,0-.05a.43.43,0,0,1,0,0s0,0,0-.05,0,0,0-.05a.17.17,0,0,0,0-.05l0-.05,0,0,0,0,0,0A1.71,1.71,0,0,1,14.53,15.65Z" transform="translate(-2.02 -0.79)" style="fill:#361e21"/><path d="M18,5.27c-.47-.09-.92-.21-1.39-.28a11.54,11.54,0,0,0-5,.27c-.24-.23-.45-.49-.67-.73A13.39,13.39,0,0,0,9,2.69a10.26,10.26,0,0,0,1,1q.54.6,1,1.23c.22.28.43.57.67.84a11.5,11.5,0,0,1,6.37.05L18.66,5c.29-.38.59-.75.91-1.12.14-.16.28-.32.43-.47a3.67,3.67,0,0,0,.69-.73,6.13,6.13,0,0,0-.68.56A23.59,23.59,0,0,0,18,5.27Z" transform="translate(-2.02 -0.79)" style="fill:#fff"/><path d="M7.27,2.44a1.24,1.24,0,0,1,.18,0c.11,0,.26.26.37.22a1,1,0,0,0-.43-.33.29.29,0,0,0-.18,0C6.41,3.18,6,5.42,6,6.53a9.1,9.1,0,0,0,.19,2c.06.3.15.6.23.9a10.65,10.65,0,0,1,1.3-1.61,3.33,3.33,0,0,1-.45-2.26,2.55,2.55,0,0,0,.62,1.29,5.57,5.57,0,0,1,0-1.08A4.9,4.9,0,0,0,8,5.14,3,3,0,0,0,8,4.63,6.67,6.67,0,0,0,7.27,2.44Z" transform="translate(-2.02 -0.79)" style="fill:#fff"/><path d="M23.65,6.53a9.2,9.2,0,0,0-.88-3.8,2.15,2.15,0,0,0-.34-.54l-.17.14v0c-.06.33-.23.67-.3,1a5.89,5.89,0,0,0-.13.71c0,.23-.06.47-.08.71s0,.38,0,.57a5.38,5.38,0,0,0,.34,1.49,6.42,6.42,0,0,0,.5-1.28,2.69,2.69,0,0,1,0,.49,4.14,4.14,0,0,1-.61,1.83,9.07,9.07,0,0,1,1.23,1.53A6.24,6.24,0,0,0,23.65,6.53Z" transform="translate(-2.02 -0.79)" style="fill:#fff"/><path d="M11.48,11.37v-.06l0,0v0a.31.31,0,0,0-.29-.09h0a.33.33,0,0,0-.18.22.28.28,0,0,0,0,.2.33.33,0,0,0,.19.11h.13a.47.47,0,0,0,.19-.27v-.08Z" transform="translate(-2.02 -0.79)" style="fill:#fff"/><path d="M18.71,11.19l-.09,0c-.1.06-.19.11-.21.24a.22.22,0,0,0,0,.19.4.4,0,0,0,.27.14c.09,0,.17-.08.2-.18a.27.27,0,0,0-.2-.37Z" transform="translate(-2.02 -0.79)" style="fill:#fff"/><path d="M12.13,9.54a2.71,2.71,0,0,0-1.05-.26.52.52,0,0,0-.33.18.24.24,0,0,0,0,.2c.11.42.85.86,1.21,1.06a1.84,1.84,0,0,0,.55.21.4.4,0,0,0,.28-.17.73.73,0,0,0,0-.56A1.21,1.21,0,0,0,12.13,9.54Z" transform="translate(-2.02 -0.79)" style="fill:#fff"/><path d="M18.9,9.38a1.42,1.42,0,0,0-.58,0,1.91,1.91,0,0,0-1.27.6.78.78,0,0,0-.18.57.49.49,0,0,0,.16.32.46.46,0,0,0,.32.08.79.79,0,0,0,.27-.1c.38-.19,1.34-.68,1.48-1.08a.26.26,0,0,0,0-.21A.26.26,0,0,0,18.9,9.38Z" transform="translate(-2.02 -0.79)" style="fill:#fff"/><path d="M14.43,16.12a1.21,1.21,0,0,0-.88.31.63.63,0,0,0-.13.48.87.87,0,0,0,.35.61,2.82,2.82,0,0,0,.29.18,1.87,1.87,0,0,1-.36-.43.64.64,0,0,1,0-.54.61.61,0,0,1,.38-.34,3.47,3.47,0,0,1,1.36-.13A2.44,2.44,0,0,0,14.43,16.12Z" transform="translate(-2.02 -0.79)" style="fill:#fff"/></svg>