<?xml version="1.0" encoding="UTF-8"?>
<svg version="1.1" xmlns="http://www.w3.org/2000/svg" width="1413" height="454">
<path d="M0 0 C1.30310623 0.00081573 1.30310623 0.00081573 2.63253784 0.00164795 C63.94336162 0.17697201 119.87482134 25.28617445 163.4375 67.9375 C168.53285126 73.14459142 173.13336129 78.64482915 177.625 84.375 C178.41519531 85.34824219 179.20539063 86.32148437 180.01953125 87.32421875 C187.07312681 96.17731428 192.96025956 105.58503566 198.625 115.375 C199.02074219 116.04982422 199.41648437 116.72464844 199.82421875 117.41992188 C229.04990406 167.74196364 234.90638409 230.68473582 220.28515625 286.47265625 C210.79548788 320.96578122 194.01061154 352.77176349 169.69140625 379.12109375 C167.85759442 381.1213006 166.11462633 383.16843238 164.375 385.25 C128.39683652 426.23882095 72.22484975 450.0785552 18.625 454.375 C12.77341435 454.70051553 6.92146261 454.71699473 1.0625 454.6875 C0.28296967 454.68534485 -0.49656067 454.6831897 -1.29971313 454.68096924 C-59.09662644 454.42634756 -114.75747985 432.79525257 -156.375 392.375 C-156.99906738 391.77671387 -157.62313477 391.17842773 -158.26611328 390.56201172 C-201.8790486 348.63663859 -225.37860659 291.99997673 -227.50390625 231.71875 C-228.04931709 196.52157076 -220.98290246 161.00346588 -205.375 129.375 C-204.96233887 128.53195313 -204.54967773 127.68890625 -204.12451172 126.8203125 C-194.60080054 107.53965641 -183.03582386 90.61666197 -168.515625 74.73828125 C-166.64647093 72.67470787 -164.85176638 70.56985387 -163.0625 68.4375 C-123.18472965 23.01862716 -59.2810016 -0.14099773 0 0 Z " fill="#ED4925" transform="translate(227.375,-0.375)"/>
<path d="M0 0 C2.72645533 2.05728934 5.02813087 4.46343415 7.375 6.9375 C8.3635498 7.95432861 8.3635498 7.95432861 9.37207031 8.99169922 C15.66460672 15.53724092 21.32553684 22.1921055 26 30 C26.99 31.175625 26.99 31.175625 28 32.375 C30.9052773 36.18817645 32.46186233 40.60476227 34.1796875 45.05859375 C38.64778781 55.07130558 44.12535648 57.93497323 53.70849609 61.99462891 C57.75407116 63.76957863 61.65451232 65.81820592 65.5625 67.875 C66.36357178 68.29620117 67.16464355 68.71740234 67.98999023 69.15136719 C75.68961451 73.26388897 82.93038024 77.88622353 90 83 C90.58056152 83.41830078 91.16112305 83.83660156 91.75927734 84.26757812 C99.02653965 89.57274035 105.69612679 95.39412814 112.125 101.6875 C112.75277344 102.29295654 113.38054687 102.89841309 114.02734375 103.5222168 C121.47942416 111.01184173 123.67499043 118.60092631 125.33398438 128.81640625 C125.55344727 129.97076172 125.55344727 129.97076172 125.77734375 131.1484375 C125.89327881 131.84114746 126.00921387 132.53385742 126.12866211 133.24755859 C127.43182046 135.86848061 129.30060584 136.06314999 132 137 C133.42756025 137.87610085 134.82630724 138.80058327 136.1953125 139.765625 C136.98373535 140.31871338 137.7721582 140.87180176 138.58447266 141.44165039 C139.42284668 142.03840576 140.2612207 142.63516113 141.125 143.25 C142.44636963 144.18283813 142.44636963 144.18283813 143.79443359 145.13452148 C150.5766432 149.9413596 157.28770776 154.84215567 163.96191406 159.79760742 C167.95652252 162.76349143 171.96594183 165.70336325 176.015625 168.59375 C177.23838135 169.46761353 177.23838135 169.46761353 178.48583984 170.35913086 C180.03024709 171.46022726 181.577278 172.55765699 183.12744141 173.65063477 C187.12453124 176.50378721 190.64251822 179.4121028 194 183 C192.91460937 183.06058594 191.82921875 183.12117187 190.7109375 183.18359375 C189.26561514 183.26806064 187.82030318 183.35270551 186.375 183.4375 C185.66214844 183.47681641 184.94929688 183.51613281 184.21484375 183.55664062 C180.08196318 183.80309681 176.07730976 184.23470053 172 185 C172.66 188.63 173.32 192.26 174 196 C174.66 196 175.32 196 176 196 C177.36363208 197.97946592 178.69418644 199.9819245 180 202 C180.598125 202.53625 181.19625 203.0725 181.8125 203.625 C182.204375 204.07875 182.59625 204.5325 183 205 C182.58863109 208.38159192 181.44440583 209.90212515 178.875 212.0625 C178.31554687 212.54847656 177.75609375 213.03445312 177.1796875 213.53515625 C171.2807654 217.49948562 166.33943841 218.5073924 159.375 218.375 C158.57650635 218.36267334 157.7780127 218.35034668 156.95532227 218.33764648 C144.16647289 217.97886428 133.20971166 213.70364928 121.31152344 209.35009766 C103.65191441 202.63403979 103.65191441 202.63403979 85 202 C84.34 202.66 83.68 203.32 83 204 C89.31255499 206.0645652 95.62569013 208.12734909 101.93920898 210.18896484 C104.08159182 210.8887616 106.22384734 211.58894823 108.3659668 212.28955078 C115.24032907 214.53770938 122.11787654 216.77571112 129 219 C129.71153229 219.23086304 130.42306458 219.46172607 131.15615845 219.69958496 C137.83093457 221.85670397 144.37931283 223.66768428 151.3125 224.75 C152.06466797 224.87503906 152.81683594 225.00007812 153.59179688 225.12890625 C155.39323076 225.42723288 157.19642801 225.71488443 159 226 C158.6338021 228.77089743 158.13728913 229.86554742 156.109375 231.8515625 C155.33078125 232.43679687 154.5521875 233.02203125 153.75 233.625 C152.98171875 234.21539062 152.2134375 234.80578125 151.421875 235.4140625 C141.82394595 241.69915797 126.96242211 240.45619912 116.08447266 238.46679688 C109.08340692 236.7432257 102.34359334 234.27264798 95.61328125 231.7109375 C88.66272652 229.2368604 82.26453967 228.59327471 74.9375 228.5 C74.01976807 228.48146973 73.10203613 228.46293945 72.15649414 228.44384766 C66.91649923 228.46998402 66.91649923 228.46998402 62.37890625 230.87890625 C60.77857644 232.91895249 60.77857644 232.91895249 61 235.4375 C63.26568274 241.24331201 67.80909148 244.6255153 72.625 248.25 C87.29232044 259.56604491 101.41830945 272.10119484 104.74609375 291.40234375 C107.00100035 314.47177282 100.97048131 335.47159146 86.34765625 353.55859375 C85.90292969 354.03425781 85.45820313 354.50992187 85 355 C84.67 355 84.34 355 84 355 C84.45224661 350.85440609 84.99263989 346.88670772 86.015625 342.84375 C90.35543319 323.56826403 86.06720989 303.69683592 76 287 C73.51928058 283.48401972 70.84032195 280.22917555 68 277 C67.4121875 276.29230469 66.824375 275.58460938 66.21875 274.85546875 C63.49453356 271.61736602 60.70840879 268.66708437 57.47265625 265.9375 C52.57836468 261.69791985 47.96851442 257.19004257 43.3815918 252.62182617 C41.94306904 251.19303138 40.49418918 249.77530596 39.04492188 248.35742188 C31.63407331 240.98748897 24.95756368 233.48393968 21.125 223.625 C20.73570312 222.64789063 20.34640625 221.67078125 19.9453125 220.6640625 C18.28546071 215.98629837 17.88746104 212.25389556 17.9375 207.25 C17.94652344 206.07953125 17.95554688 204.9090625 17.96484375 203.703125 C17.98224609 202.36507812 17.98224609 202.36507812 18 201 C17.34 201 16.68 201 16 201 C15.31760646 202.99468882 14.65629516 204.99657266 14 207 C13.60361328 207.96873047 13.60361328 207.96873047 13.19921875 208.95703125 C8.28363437 222.25939468 10.32638505 236.9855175 15 250 C15.66874171 251.99930712 16.33602572 253.99910455 17 256 C17.66 256 18.32 256 19 256 C18.67 257.32 18.34 258.64 18 260 C4.28329125 252.63647345 -8.46764807 239.73198261 -14 225 C-19.87327557 205.50925084 -17.22920715 187.25122471 -8.08203125 169.47290039 C-5.47250604 164.61485872 -2.53675435 160.24410522 1 156 C-16.72641175 161.49306472 -28.10271121 172.23494654 -37 188 C-38.48668867 190.97337734 -39.77347399 193.90702137 -41 197 C-43 196 -43 196 -44 193 C-45.49753372 168.57301551 -38.68071332 149.94970968 -22.59765625 131.19921875 C-19.48342529 127.71148197 -16.33290967 124.28034011 -13 121 C-28.82201403 125.66879102 -41.77604911 135.03406751 -50.5625 149.1875 C-51.41019843 150.77334814 -52.22296345 152.3783585 -53 154 C-53.45761719 154.928125 -53.91523438 155.85625 -54.38671875 156.8125 C-59.10490133 166.76259278 -60.38512792 174.62686224 -60.4375 185.625 C-60.48680664 187.41744141 -60.48680664 187.41744141 -60.53710938 189.24609375 C-60.58420468 197.14954202 -59.24375076 203.21768999 -56.07836914 210.46630859 C-55 213 -55 213 -55 215 C-54.34 215 -53.68 215 -53 215 C-52.649375 215.804375 -52.29875 216.60875 -51.9375 217.4375 C-41.47619249 238.11795511 -18.47600567 252.01994347 0.609375 263.87109375 C29.05821384 281.54745222 29.05821384 281.54745222 39 293 C39.5259375 293.58523438 40.051875 294.17046875 40.59375 294.7734375 C47.9890233 303.71568123 53.759224 317.23202804 53 329 C53.66 329 54.32 329 55 329 C55.19335938 328.27554687 55.38671875 327.55109375 55.5859375 326.8046875 C57.82187295 318.50294695 57.82187295 318.50294695 59.0625 315 C60.4928369 310.42292191 61.20987968 305.72391086 62 301 C65 302 65 302 66.09765625 304.15234375 C72.10811007 321.5023582 73.32693166 337.88470578 65.4375 354.9375 C54.96489166 374.60556932 35.81051305 394.36167383 15 403 C14.01 403 13.02 403 12 403 C13.87246856 397.98101211 16.37352251 393.29742955 18.90234375 388.5859375 C24.49172492 377.74721356 26.71716327 367.21736126 26.5625 355.0625 C26.54497681 353.21555542 26.54497681 353.21555542 26.52709961 351.33129883 C26.30599494 342.24311364 25.36992662 335.09359648 21 327 C20.69416992 326.39978027 20.38833984 325.79956055 20.07324219 325.18115234 C13.15273938 311.72690085 3.26803758 301.79828958 -9 293 C-7.82314738 295.39499832 -6.5967152 297.69134537 -5.25 300 C5.26466589 318.46958166 9.90791976 337.86314164 4.1875 358.9296875 C1.37159138 366.21029333 -2.7668421 374.18380005 -8 380 C-8.99 380 -9.98 380 -11 380 C-11.10957031 378.82824219 -11.21914062 377.65648437 -11.33203125 376.44921875 C-14.60214285 343.19480834 -31.83984613 315.81656624 -54.41015625 291.7890625 C-69.85342534 275.15784964 -83.76012772 256.5639592 -83 233 C-83.66 233 -84.32 233 -85 233 C-85.3160849 234.35333438 -85.62764351 235.70772601 -85.9375 237.0625 C-86.11152344 237.81660156 -86.28554687 238.57070313 -86.46484375 239.34765625 C-90.42174041 258.95884479 -88.70135878 277.02817731 -79.171875 294.671875 C-78 297 -78 297 -78 299 C-77.34 299 -76.68 299 -76 299 C-74.7734375 300.8359375 -74.7734375 300.8359375 -73.375 303.375 C-68.25814854 312.17152431 -61.62233132 319.56534899 -54.6875 326.96875 C-53 329 -53 329 -53 331 C-59.1833941 330.71893663 -63.71397534 328.32757377 -69.1484375 325.46875 C-72.07459929 323.89371779 -72.07459929 323.89371779 -75.625 322.625 C-91.89632106 314.79066023 -104.37360753 298.91096469 -112 283 C-112.50015625 282.00613281 -113.0003125 281.01226562 -113.515625 279.98828125 C-121.69955551 262.31394939 -123.73695371 240.87341241 -119 222 C-118.67828685 220.58205361 -118.35668236 219.16408256 -118.03515625 217.74609375 C-113.49964617 198.52880762 -105.04004323 181.31581609 -94 165 C-117.73369142 180.44416926 -136.1018223 205.60027398 -142.375 233.4375 C-142.684375 235.2009375 -142.684375 235.2009375 -143 237 C-143.66 236.67 -144.32 236.34 -145 236 C-145.93100355 195.52641106 -136.44909671 162.51175153 -108.1953125 132.2890625 C-107.47085938 131.53367188 -106.74640625 130.77828125 -106 130 C-104.97519531 128.89785156 -104.97519531 128.89785156 -103.9296875 127.7734375 C-96.40592738 119.91652195 -87.6997209 113.48719929 -79 107 C-100.10399752 110.12824742 -116.89793329 122.86686099 -133 136 C-133.66 135.67 -134.32 135.34 -135 135 C-128.1541464 119.41667535 -117.8370393 106.10688062 -106 94 C-105.27554688 93.22527344 -104.55109375 92.45054688 -103.8046875 91.65234375 C-97.4634077 85.01856949 -90.3158794 79.50218734 -83 74 C-82.1440625 73.34902344 -81.288125 72.69804688 -80.40625 72.02734375 C-75.55031218 68.47441591 -70.45563065 65.45357061 -65.1875 62.5625 C-64.55271729 62.20776611 -63.91793457 61.85303223 -63.26391602 61.48754883 C-59.70102378 59.58900461 -57.05229767 58.56003625 -53 59 C-51.88926056 62.17354126 -50.93579447 65.28151654 -50.1875 68.5625 C-48.97492754 73.63953103 -46.96412917 78.40728512 -45.0234375 83.2421875 C-44 86 -44 86 -44 88 C-43.34 88 -42.68 88 -42 88 C-41.14004476 89.15359849 -40.33766479 90.35029868 -39.5625 91.5625 C-35.74743949 96.89977917 -30.6226353 99.79849947 -25 103 C-25.61878018 100.13111008 -26.35921897 98.34349636 -27.8125 95.6875 C-35.57522943 80.13360622 -36.91385388 59.66437403 -32 43 C-31.82227051 42.39446289 -31.64454102 41.78892578 -31.46142578 41.16503906 C-26.81630789 25.78478396 -19.90353336 11.09822032 -8 0 C-4.90099949 -1.54950025 -3.31347293 -0.98938594 0 0 Z " fill="#FEFDFD" transform="translate(211,21)"/>
<path d="M0 0 C0.75163925 0.00247742 1.5032785 0.00495483 2.2776947 0.00750732 C3.06986389 0.00239639 3.86203308 -0.00271454 4.6782074 -0.00798035 C7.30918349 -0.02192901 9.93989879 -0.02091408 12.57090759 -0.01861572 C14.40257871 -0.02250296 16.23424892 -0.02683768 18.06591797 -0.03160095 C21.91534841 -0.03907679 25.76468721 -0.03876437 29.61412048 -0.0335083 C34.52311985 -0.02774585 39.43173795 -0.04455938 44.3406744 -0.06785297 C48.13019979 -0.08267076 51.91963541 -0.08345055 55.70918465 -0.08034325 C57.51709809 -0.08085355 59.32501695 -0.08603621 61.13290215 -0.09615517 C78.5534253 -0.1816057 93.1370204 2.24105594 106.27793884 14.70013428 C115.99715232 25.47932909 119.4697057 38.03536479 118.95372009 52.27825928 C118.29029062 62.18689951 114.64017853 70.49815758 108.60606384 78.28216553 C110.04511748 81.57143098 111.85671105 83.72468825 114.35606384 86.28216553 C125.37439858 98.42236708 127.51913906 112.20610679 126.80137634 127.95501709 C126.3882903 132.87693727 124.9024058 136.95253008 122.60606384 141.28216553 C122.15875916 142.13939209 121.71145447 142.99661865 121.25059509 143.87982178 C114.0670529 156.64842359 104.4863213 164.84158378 90.47116089 169.41827393 C82.24189792 171.2576045 73.77084145 170.80816749 65.37950134 170.74310303 C63.33878191 170.74071489 61.29806025 170.73981406 59.25733948 170.74032593 C55.00608829 170.73721512 50.75517847 170.72077079 46.50401306 170.69378662 C41.0474209 170.65959206 35.59119876 170.6521651 30.13451195 170.65367699 C25.93273877 170.65313453 21.7310469 170.64219089 17.52930069 170.6276741 C15.51579528 170.62130297 13.50228066 170.61736647 11.48876572 170.61588669 C8.68834773 170.61156929 5.88832994 170.59410867 3.08799744 170.57269287 C2.25377258 170.57359924 1.41954773 170.57450562 0.56004333 170.57543945 C-5.1649591 170.51114258 -5.1649591 170.51114258 -7.39393616 168.28216553 C-7.64561844 165.44917297 -7.64561844 165.44917297 -7.64790344 161.75311279 C-7.65102342 161.07494538 -7.6541434 160.39677797 -7.65735793 159.69806004 C-7.66536559 157.41481011 -7.65900368 155.13182391 -7.65272522 152.84857178 C-7.65543386 151.21607303 -7.65899407 149.58357551 -7.66334534 147.95108032 C-7.67248675 143.50902706 -7.6689179 139.06706639 -7.66258717 134.62501144 C-7.65753621 129.98411554 -7.66221609 125.34322775 -7.6653595 120.70233154 C-7.66900179 112.90763928 -7.66419315 105.11298486 -7.65467834 97.31829834 C-7.64379329 88.29669823 -7.64731868 79.2751885 -7.65833116 70.25359058 C-7.66739655 62.5185433 -7.66869298 54.78352328 -7.66345382 47.0484724 C-7.66032999 42.42397263 -7.65993605 37.79951538 -7.66652679 33.17501831 C-7.67228878 28.82811358 -7.66832452 24.48132579 -7.65673828 20.13443375 C-7.65408553 18.53561726 -7.65486722 16.936791 -7.65926361 15.33797836 C-7.66469641 13.16225714 -7.65791297 10.98691506 -7.64790344 8.81121826 C-7.64714939 7.5915184 -7.64639534 6.37181854 -7.64561844 5.11515808 C-7.18338126 -0.08788787 -4.62901754 0.04786105 0 0 Z M26.60606384 29.28216553 C26.60606384 42.48216553 26.60606384 55.68216553 26.60606384 69.28216553 C32.29907181 69.35128028 37.99060633 69.41094037 43.68370056 69.44696045 C45.61767019 69.46198628 47.5516061 69.48241279 49.48545837 69.50848389 C52.2757452 69.54514144 55.06557896 69.56195421 57.85606384 69.57513428 C59.13936584 69.59836006 59.13936584 69.59836006 60.44859314 69.62205505 C66.94573985 69.62384989 72.65464227 68.69369291 77.84825134 64.45013428 C82.4721397 58.8417338 84.90782403 54.79050776 84.48106384 47.34466553 C83.74323135 41.76061507 82.26464071 37.61371927 77.89122009 33.77825928 C73.7937961 30.73767614 70.50390756 29.15343285 65.31822205 29.16864014 C64.4575563 29.16871567 63.59689056 29.1687912 62.71014404 29.16886902 C61.78505539 29.1740303 60.85996674 29.17919159 59.90684509 29.18450928 C58.95666 29.18592422 58.00647491 29.18733917 57.02749634 29.188797 C53.99115355 29.19439677 50.95488436 29.20694921 47.91856384 29.21966553 C45.8606222 29.22468056 43.8026794 29.22924346 41.74473572 29.2333374 C36.69846055 29.24351545 31.65234464 29.26309097 26.60606384 29.28216553 Z M26.60606384 96.28216553 C26.60606384 111.13216553 26.60606384 125.98216553 26.60606384 141.28216553 C33.25999722 141.39741842 39.91042093 141.49682031 46.56455994 141.55682373 C48.82444542 141.58185462 51.08425086 141.6158899 53.34385681 141.65936279 C56.60594004 141.72051786 59.86694629 141.74849055 63.12950134 141.77044678 C64.1278299 141.7962532 65.12615845 141.82205963 66.15473938 141.84864807 C73.31105886 141.85146259 78.59052753 140.20289207 84.60606384 136.28216553 C86.89166509 134.08548243 86.89166509 134.08548243 88.16856384 131.65716553 C88.62360291 130.9017749 89.07864197 130.14638428 89.54747009 129.36810303 C92.41945072 123.70892348 92.6830967 117.08422126 90.95762634 110.99310303 C88.25944567 105.02020734 83.83505568 100.9360394 78.04356384 97.96966553 C71.88553236 96.23278485 65.95860259 96.14835294 59.61387634 96.18450928 C58.35498596 96.1860199 58.35498596 96.1860199 57.07066345 96.18756104 C53.95744954 96.19276426 50.84425521 96.20672539 47.73106384 96.21966553 C37.27418884 96.25060303 37.27418884 96.25060303 26.60606384 96.28216553 Z " fill="#000000" transform="translate(600.3939361572266,162.71783447265625)"/>
<path d="M0 0 C2.12280427 -0.01724278 4.24406228 -0.06113638 6.36645508 -0.10522461 C7.71475092 -0.11534937 9.06305999 -0.12386616 10.41137695 -0.13061523 C12.25397095 -0.15248901 12.25397095 -0.15248901 14.13378906 -0.17480469 C17.1965332 0.29516602 17.1965332 0.29516602 18.90283203 1.74047852 C20.84517933 5.57605544 22.26400698 9.54098737 23.6809082 13.59594727 C24.1801757 14.99531776 24.1801757 14.99531776 24.68952942 16.42295837 C25.40706861 18.43482791 26.12171398 20.4477314 26.83377075 22.46154785 C28.71399237 27.7775067 30.61546924 33.0858014 32.52075195 38.39282227 C32.90734482 39.46998505 33.29393768 40.54714783 33.69224548 41.6569519 C38.15485902 54.03619231 42.9098259 66.3006355 47.72485352 78.54638672 C48.17945198 79.71023643 48.17945198 79.71023643 48.64323425 80.89759827 C49.20555479 82.33665227 49.7720953 83.77406754 50.34370422 85.2094574 C51.46005268 88.07035874 52.1965332 90.19274674 52.1965332 93.29516602 C52.8565332 93.29516602 53.5165332 93.29516602 54.1965332 93.29516602 C54.36261078 92.64335861 54.52868835 91.99155121 54.69979858 91.31999207 C56.60507319 84.06845226 58.96194404 77.0675959 61.5480957 70.03344727 C61.9664267 68.88514938 62.38475769 67.7368515 62.81576538 66.55375671 C64.1468767 62.90353109 65.4842158 59.25562183 66.8215332 55.60766602 C67.69561437 53.2113214 68.56931513 50.81483799 69.44262695 48.41821289 C71.59028327 42.5303189 73.75226758 36.6478176 75.92028809 30.76739502 C77.20397451 27.27492074 78.47555787 23.77819395 79.74633789 20.28100586 C80.54961089 18.09155477 81.35330243 15.90225719 82.1574707 13.71313477 C82.52152008 12.70285721 82.88556946 11.69257965 83.26065063 10.65168762 C83.60349091 9.72474594 83.94633118 8.79780426 84.29956055 7.84277344 C84.59486664 7.03321701 84.89017273 6.22366058 85.19442749 5.38957214 C86.26938214 3.14291136 87.24223552 1.83249103 89.1965332 0.29516602 C92.27514648 -0.0612793 92.27514648 -0.0612793 96.0168457 -0.03295898 C96.67611053 -0.03108582 97.33537537 -0.02921265 98.01461792 -0.02728271 C99.40489782 -0.02057106 100.79515911 -0.00667394 102.18530273 0.01391602 C104.32073374 0.04515432 106.45542731 0.05489554 108.59106445 0.06079102 C119.03304785 0.13168066 119.03304785 0.13168066 120.1965332 1.29516602 C121.37724384 10.53844357 116.68010616 18.30846107 113.01879883 26.56079102 C112.51928711 27.72352539 112.01977539 28.88625977 111.50512695 30.08422852 C111.03905029 31.13304199 110.57297363 32.18185547 110.09277344 33.26245117 C108.40299044 38.98037119 110.45274952 43.32753233 112.85668945 48.55688477 C113.3997876 49.75007324 113.94288574 50.94326172 114.50244141 52.17260742 C114.78963043 52.79532532 115.07681946 53.41804321 115.37271118 54.05963135 C116.86579078 57.29913546 118.3340242 60.54989791 119.8059082 63.79907227 C120.0977449 64.44164978 120.3895816 65.08422729 120.69026184 65.74627686 C123.19841864 71.2756115 125.63793764 76.83079697 128.0090332 82.42016602 C128.3397583 83.18804443 128.6704834 83.95592285 129.01123047 84.74707031 C130.27793814 87.75424473 131.1965332 89.99755367 131.1965332 93.29516602 C131.8565332 93.29516602 132.5165332 93.29516602 133.1965332 93.29516602 C133.32335983 92.57585907 133.45018646 91.85655212 133.58085632 91.115448 C134.18937111 88.32797401 135.02634934 85.83255113 136.04736328 83.1706543 C136.42937897 82.16896713 136.81139465 81.16727997 137.20498657 80.13523865 C137.62114227 79.0562178 138.03729797 77.97719696 138.46606445 76.86547852 C138.89881683 75.73412979 139.33156921 74.60278107 139.7774353 73.43714905 C140.94360774 70.39103543 142.11329995 67.34630591 143.28496933 64.30230331 C144.49059457 61.16839163 145.69254245 58.03306986 146.89501953 54.89794922 C148.79148308 49.95499364 150.69093764 45.01319449 152.59204102 40.07202148 C154.49882709 35.11439499 156.39801192 30.15396417 158.28919983 25.19036865 C159.40288722 22.26841989 160.52065241 19.34804583 161.63973999 16.42816162 C162.13332114 15.13799809 162.62522242 13.84719055 163.11538696 12.5557251 C163.77677072 10.8146254 164.44539286 9.07628023 165.11450195 7.33813477 C165.47310303 6.39993896 165.8317041 5.46174316 166.20117188 4.49511719 C167.1965332 2.29516602 167.1965332 2.29516602 169.1965332 0.29516602 C172.16162109 0.05224609 172.16162109 0.05224609 175.91918945 0.06469727 C176.57986923 0.06515549 177.24054901 0.06561371 177.92124939 0.06608582 C179.3174723 0.0691068 180.71369188 0.0769886 182.10986328 0.08935547 C184.25410819 0.10762406 186.39792169 0.10986508 188.54223633 0.10961914 C199.04910109 0.1477339 199.04910109 0.1477339 200.1965332 1.29516602 C200.728673 7.90777868 199.32145064 12.49876653 196.70825195 18.52172852 C196.15345406 19.84795479 196.15345406 19.84795479 195.58744812 21.20097351 C194.36592515 24.11301494 193.12492008 27.01632974 191.8840332 29.92016602 C191.01811607 31.97576996 190.15372096 34.03201565 189.29077148 36.08886719 C187.49520262 40.3653749 185.69309894 44.63904032 183.88647461 48.91088867 C180.11791361 57.83642789 176.43332967 66.7963584 172.746521 75.75588989 C171.57352316 78.60283627 170.39672841 81.44818102 169.21850586 84.29296875 C165.6420667 92.92941699 162.07773369 101.57003336 158.56573486 110.23292542 C157.00819536 114.07179219 155.4420113 117.90710125 153.87481689 121.74203491 C153.13740326 123.55329883 152.40420965 125.36628719 151.67547607 127.18106079 C150.67355382 129.67538059 149.65742108 132.163451 148.63793945 134.65063477 C148.34710983 135.38579315 148.05628021 136.12095154 147.75663757 136.87838745 C146.17918367 140.68249908 144.94484258 143.38614436 141.1965332 145.29516602 C138.04903878 145.89090061 134.89460325 145.75919601 131.6965332 145.73266602 C130.84188477 145.75264648 129.98723633 145.77262695 129.10668945 145.79321289 C128.28040039 145.79256836 127.45411133 145.79192383 126.6027832 145.79125977 C125.47839844 145.79403931 125.47839844 145.79403931 124.33129883 145.796875 C121.14535235 145.04811928 120.20954878 143.9071116 118.1965332 141.29516602 C116.55354813 138.06484068 115.20820187 134.73179728 113.8605957 131.36938477 C113.45876068 130.38960159 113.05692566 129.40981842 112.64291382 128.40034485 C111.3596505 125.26488748 110.09048163 122.12394014 108.8215332 118.98266602 C107.97609009 116.91133038 107.12974478 114.84036275 106.2824707 112.76977539 C103.25575338 105.36021606 100.24261477 97.94536285 97.29321289 90.50463867 C97.01271088 89.79773392 96.73220886 89.09082916 96.44320679 88.36250305 C95.71528382 86.52327268 94.99161291 84.68236098 94.26831055 82.84130859 C93.43065456 80.40349263 93.43065456 80.40349263 92.1965332 79.29516602 C89.61867734 85.53493658 87.04097813 91.77477185 84.46337891 98.01464844 C83.58971557 100.12957158 82.71601866 102.24448085 81.84228516 104.359375 C80.99346865 106.41396871 80.1448045 108.46862536 79.29629517 110.52334595 C78.45803615 112.55204039 77.61882675 114.58034239 76.77865601 116.60824585 C74.86750551 121.22505311 72.96945436 125.84559653 71.11889648 130.48706055 C70.80263809 131.27432022 70.4863797 132.0615799 70.16053772 132.87269592 C69.58171335 134.3164556 69.00885323 135.76262772 68.44334412 137.21165466 C65.93326309 143.44733874 65.93326309 143.44733874 63.1965332 145.29516602 C61.06762695 145.68334961 61.06762695 145.68334961 58.6340332 145.69360352 C57.75489258 145.6974707 56.87575195 145.70133789 55.9699707 145.70532227 C55.05473633 145.6937207 54.13950195 145.68211914 53.1965332 145.67016602 C51.82368164 145.68756836 51.82368164 145.68756836 50.4230957 145.70532227 C49.54395508 145.70145508 48.66481445 145.69758789 47.7590332 145.69360352 C46.5544043 145.68852783 46.5544043 145.68852783 45.32543945 145.68334961 C42.62347711 145.19067528 41.8529072 144.46438347 40.1965332 142.29516602 C39.0559082 140.11425781 39.0559082 140.11425781 37.9465332 137.49438477 C37.5131665 136.47900635 37.0797998 135.46362793 36.63330078 134.41748047 C36.15916748 133.2839917 35.68503418 132.15050293 35.1965332 130.98266602 C34.6830835 129.7698999 34.16963379 128.55713379 33.640625 127.30761719 C26.6061021 110.65733489 19.75622475 93.92835001 12.87362671 77.21490479 C8.23677234 65.95852046 3.57086456 54.71421704 -1.09628296 43.47036743 C-1.4304422 42.66529755 -1.76460144 41.86022766 -2.10888672 41.03076172 C-2.43616257 40.24285751 -2.76343842 39.45495331 -3.10063171 38.64317322 C-3.73904768 37.10307479 -4.37541885 35.56212691 -5.00959778 34.02027893 C-6.57596719 30.21684194 -8.17525306 26.43388246 -9.84057617 22.67260742 C-10.16765564 21.91913528 -10.49473511 21.16566315 -10.83172607 20.38935852 C-11.44431429 18.98002435 -12.06911265 17.57589728 -12.70928955 16.17887878 C-14.87826638 11.13403075 -15.14554892 6.75208478 -14.8034668 1.29516602 C-10.4963386 -0.85839809 -4.78223265 0.02711204 0 0 Z " fill="#000000" transform="translate(1050.803466796875,187.704833984375)"/>
<path d="M0 0 C14.01982831 12.7306487 20.09466691 31.90874157 21.10546875 50.265625 C21.43060025 61.77804712 21.43060025 61.77804712 17.88671875 66.29296875 C15.05988992 67.23524503 13.3507717 67.41662038 10.42585754 67.41322327 C9.51300491 67.41459793 8.60015228 67.4159726 7.65963745 67.41738892 C6.66054352 67.41379364 5.66144958 67.41019836 4.63208008 67.40649414 C3.05134453 67.40671318 3.05134453 67.40671318 1.43867493 67.40693665 C-2.05132085 67.4062389 -5.54126353 67.39845291 -9.03125 67.390625 C-11.4483487 67.38876033 -13.86544778 67.38733666 -16.282547 67.38633728 C-22.6496993 67.38251596 -29.01682886 67.37268893 -35.38397217 67.3616333 C-41.87902519 67.35141093 -48.37408188 67.34683789 -54.86914062 67.34179688 C-67.61719721 67.33106634 -80.36523802 67.31418626 -93.11328125 67.29296875 C-92.35283563 69.19531207 -91.58431691 71.09442927 -90.8125 72.9921875 C-90.38541748 74.05010498 -89.95833496 75.10802246 -89.51831055 76.19799805 C-84.71904054 86.76973494 -76.14064705 93.61158216 -65.42578125 97.73046875 C-53.85169192 101.15817982 -42.11807591 100.09100343 -31.11328125 95.29296875 C-26.51529497 92.75455725 -22.10724184 90.0059799 -18.1171875 86.578125 C-15.52780644 84.9174888 -14.13802344 84.80067894 -11.11328125 85.29296875 C-8.02395113 87.53109616 -5.62279791 90.43123922 -3.11328125 93.29296875 C-2.50355469 93.97488281 -1.89382813 94.65679687 -1.265625 95.359375 C1.32277445 98.48625945 2.76481361 100.83785622 3.82421875 104.79296875 C1.72344762 112.63584763 -6.32777772 116.66817888 -12.98828125 120.54296875 C-31.98500737 131.12943462 -52.23046207 132.54312564 -73.11328125 127.29296875 C-77.3100114 125.9498183 -81.18454722 124.28178847 -85.11328125 122.29296875 C-86.09683594 121.80054688 -87.08039063 121.308125 -88.09375 120.80078125 C-105.3916794 111.44692033 -118.99380048 95.45192773 -124.96264648 76.61206055 C-126.96220342 69.34089046 -127.62588013 62.50385077 -127.55078125 54.98046875 C-127.54175781 53.88742432 -127.53273438 52.79437988 -127.5234375 51.66821289 C-127.09950499 31.78901641 -119.23182377 13.370469 -105.11328125 -0.70703125 C-94.14511793 -10.42604263 -81.52317056 -16.99023462 -67.11328125 -19.70703125 C-65.99953125 -19.93390625 -64.88578125 -20.16078125 -63.73828125 -20.39453125 C-38.79260093 -22.54502093 -19.03589803 -15.37650173 0 0 Z M-85.21875 24.78515625 C-88.90747691 29.78965585 -90.33113149 33.0554446 -92.11328125 39.29296875 C-65.71328125 39.29296875 -39.31328125 39.29296875 -12.11328125 39.29296875 C-15.98595698 27.67494156 -22.0003502 18.8192509 -32.87890625 12.75 C-51.61876692 4.34531374 -71.95993532 9.09104908 -85.21875 24.78515625 Z " fill="#000000" transform="translate(1392.11328125,205.70703125)"/>
<path d="M0 0 C14.26662263 12.25975789 24.55902955 29.9476657 26.41894531 48.85229492 C26.55261746 51.94086423 26.58507178 55.00641712 26.5546875 58.09765625 C26.54332764 59.73287231 26.54332764 59.73287231 26.53173828 61.40112305 C26.11807587 81.74757699 17.74069769 98.47668921 3.9296875 113.1015625 C-11.96789966 128.03477397 -31.92247941 134.34339085 -53.41015625 133.9921875 C-71.43965622 133.36194763 -87.32772987 126.40960492 -100.8828125 114.78515625 C-101.97142578 113.86476563 -101.97142578 113.86476563 -103.08203125 112.92578125 C-117.2199404 99.92668207 -124.74034415 80.85634831 -126.16796875 62.0234375 C-126.69273405 40.18863802 -119.15687359 20.98941821 -104.25 5.12890625 C-75.66373444 -23.17432697 -31.37234943 -24.10314651 0 0 Z M-83.09375 30.35546875 C-91.18456192 41.3434273 -93.13149846 53.45855533 -91.8828125 66.78515625 C-89.44794327 79.02867483 -82.84662243 88.42479343 -72.8828125 95.78515625 C-62.48428705 102.22701007 -51.96230795 104.24037302 -40.0078125 101.66015625 C-29.25071752 98.74734086 -19.95568652 92.50087297 -14.125 82.88671875 C-7.57977869 70.33380638 -5.60202388 57.92725785 -9.4453125 43.97265625 C-13.41436108 32.6483778 -21.31134281 23.0376993 -32.0078125 17.41015625 C-33.28917851 16.84455329 -34.5804838 16.30066136 -35.8828125 15.78515625 C-36.9140625 15.37265625 -37.9453125 14.96015625 -39.0078125 14.53515625 C-56.64106471 11.12226873 -71.59738423 16.75219929 -83.09375 30.35546875 Z " fill="#000000" transform="translate(995.8828125,202.21484375)"/>
<path d="M0 0 C2.49084209 2.32574305 3.75665651 4.20782023 4.16796875 7.578125 C2.30602474 13.10577129 -1.09639069 18.23538412 -4.20703125 23.140625 C-4.73039063 23.96691406 -5.25375 24.79320312 -5.79296875 25.64453125 C-8.76431577 28.46218791 -10.77303995 28.59507277 -14.83203125 28.578125 C-17.53636424 27.62773293 -19.88983257 26.25360378 -22.33203125 24.765625 C-30.613535 19.87356144 -38.56170986 16.95591974 -48.23046875 19.11328125 C-55.64195581 21.36627483 -59.66417684 24.85851562 -63.71875 31.3828125 C-66.64862639 37.16032314 -67.12294732 42.20589681 -67.10327148 48.54931641 C-67.1111116 49.87235527 -67.1111116 49.87235527 -67.11911011 51.22212219 C-67.12931876 53.12908788 -67.13512502 55.03608118 -67.1369915 56.94307327 C-67.14066289 59.96082771 -67.15740871 62.97825583 -67.17774963 65.99594116 C-67.2331026 74.57275335 -67.26390302 83.1496123 -67.28833008 91.7265625 C-67.30418897 96.97905516 -67.33438377 102.23131325 -67.37309456 107.48368454 C-67.38475239 109.48435353 -67.39067498 111.48506441 -67.39077568 113.48576736 C-67.39096737 116.27933592 -67.40920488 119.07225482 -67.43139648 121.86572266 C-67.42681931 122.69283249 -67.42224213 123.51994232 -67.41752625 124.37211609 C-67.45944582 127.68522866 -67.59880207 130.14250936 -69.17811584 133.09228516 C-71.71219284 135.36884208 -73.79447339 135.06324893 -77.14453125 135.0390625 C-78.38460937 135.03519531 -79.6246875 135.03132812 -80.90234375 135.02734375 C-82.19914063 135.00285156 -83.4959375 134.97835937 -84.83203125 134.953125 C-86.77722656 134.95119141 -86.77722656 134.95119141 -88.76171875 134.94921875 C-98.41079871 134.85894669 -98.41079871 134.85894669 -101.83203125 132.578125 C-103.0199136 129.46218259 -102.96003465 126.38827999 -102.96574402 123.08155823 C-102.970009 121.96420288 -102.97427399 120.84684753 -102.97866821 119.69563293 C-102.97821503 118.47422104 -102.97776184 117.25280914 -102.97729492 115.99438477 C-102.98065353 114.70460724 -102.98401215 113.41482971 -102.98747253 112.08596802 C-102.99630115 108.55085319 -102.99865015 105.01576257 -102.99928832 101.48063779 C-102.99999938 99.27145654 -103.00213474 97.06228145 -103.00478554 94.85310173 C-103.01403463 87.14449549 -103.0181209 79.43590653 -103.01733398 71.72729492 C-103.01673305 64.54388076 -103.02728909 57.36054166 -103.04307765 50.17714649 C-103.05615511 44.00718379 -103.06151781 37.83724562 -103.06087857 31.66726917 C-103.06062368 27.98334325 -103.06347019 24.29948408 -103.07405663 20.61557198 C-103.08554022 16.50741571 -103.08098953 12.39942764 -103.07495117 8.29125977 C-103.08057068 7.0718721 -103.08619019 5.85248444 -103.09197998 4.59614563 C-103.08778549 3.47597046 -103.083591 2.35579529 -103.07926941 1.20167542 C-103.07981418 0.23069192 -103.08035894 -0.74029158 -103.08092022 -1.74069881 C-102.80972907 -4.66212705 -102.1456821 -6.8041244 -100.83203125 -9.421875 C-96.82954145 -11.4231199 -91.79532955 -10.69448861 -87.39453125 -10.734375 C-85.8002832 -10.77788086 -85.8002832 -10.77788086 -84.17382812 -10.82226562 C-82.64532227 -10.83483398 -82.64532227 -10.83483398 -81.0859375 -10.84765625 C-80.15080322 -10.86223877 -79.21566895 -10.87682129 -78.25219727 -10.8918457 C-75.83203125 -10.421875 -75.83203125 -10.421875 -74.04931641 -8.54272461 C-72.72155013 -6.22938614 -72.14423842 -4.28572788 -71.64453125 -1.671875 C-71.48597656 -0.87265625 -71.32742188 -0.0734375 -71.1640625 0.75 C-71.05449219 1.35328125 -70.94492187 1.9565625 -70.83203125 2.578125 C-69.84203125 1.711875 -68.85203125 0.845625 -67.83203125 -0.046875 C-46.9006601 -17.86170397 -21.85021867 -16.95837867 0 0 Z " fill="#000000" transform="translate(851.83203125,198.421875)"/>
<path d="M0 0 C1.13824219 0.00708984 2.27648437 0.01417969 3.44921875 0.02148438 C4.68929687 0.0240625 5.929375 0.02664062 7.20703125 0.02929688 C8.50382813 0.05765625 9.800625 0.08601562 11.13671875 0.11523438 C12.43351563 0.11265625 13.7303125 0.11007813 15.06640625 0.10742188 C24.57837599 0.2062989 24.57837599 0.2062989 26.96875 1.95703125 C29.26692453 5.21982418 29.26384254 8.18234596 29.27043152 12.03623962 C29.2746965 13.16207962 29.27896149 14.28791962 29.28335571 15.44787598 C29.28290253 16.68380493 29.28244934 17.91973389 29.28198242 19.19311523 C29.28534103 20.4941066 29.28869965 21.79509796 29.29216003 23.13551331 C29.30099955 26.705743 29.30333811 30.27594873 29.30397582 33.84618831 C29.3049251 36.82587295 29.30860357 39.80555201 29.31214792 42.78523451 C29.32029211 49.8144268 29.32273216 56.84360627 29.32202148 63.87280273 C29.32142053 71.1260842 29.331976 78.37929134 29.34776515 85.63255399 C29.36083558 91.85853136 29.3662056 98.08448442 29.36556607 104.31047541 C29.36531096 108.0295956 29.36816949 111.74864973 29.37874413 115.46775627 C29.39021285 119.61454233 29.38568135 123.76116149 29.37963867 127.90795898 C29.38525818 129.14186371 29.39087769 130.37576843 29.39666748 131.64706421 C29.39247299 132.77572403 29.3882785 133.90438385 29.38395691 135.06724548 C29.38450168 136.04782393 29.38504644 137.02840239 29.38560772 138.03869534 C29.12543121 140.73208481 28.5997661 142.35284882 27.13671875 144.61523438 C22.54542861 146.91087945 16.23985352 145.93547192 11.19921875 145.99023438 C9.89791016 146.02761719 8.59660156 146.065 7.25585938 146.10351562 C5.38897461 146.12091797 5.38897461 146.12091797 3.484375 146.13867188 C2.33976807 146.15849121 1.19516113 146.17831055 0.01586914 146.19873047 C-2.86328125 145.61523438 -2.86328125 145.61523438 -4.51941872 143.43456268 C-6.00541131 140.31705559 -6.24028594 138.35709465 -6.24423218 134.92248535 C-6.25269165 133.78692703 -6.26115112 132.65136871 -6.26986694 131.48139954 C-6.26379425 130.24488144 -6.25772156 129.00836334 -6.25146484 127.734375 C-6.2567218 126.42494431 -6.26197876 125.11551361 -6.26739502 123.7664032 C-6.2810526 120.18168213 -6.27577655 116.59722055 -6.26625776 113.01249504 C-6.25865304 109.25787542 -6.26570903 105.50327774 -6.27041626 101.74865723 C-6.27587145 95.44388853 -6.26868844 89.13922533 -6.25439453 82.83447266 C-6.23806841 75.54930432 -6.24335709 68.26438787 -6.25987375 60.97922564 C-6.27349539 54.72005323 -6.27540498 48.46095657 -6.26755774 42.20177412 C-6.26288493 38.46531007 -6.26224552 34.72896435 -6.27216721 30.99250793 C-6.28245619 26.82688521 -6.26818844 22.66169555 -6.25146484 18.49609375 C-6.25753754 17.25957565 -6.26361023 16.02305756 -6.26986694 14.74906921 C-6.26140747 13.61351089 -6.252948 12.47795258 -6.24423218 11.3079834 C-6.2431011 10.32355003 -6.24197002 9.33911667 -6.24080467 8.32485199 C-5.63170456 3.9531275 -4.47577343 0.96171121 0 0 Z " fill="#000000" transform="translate(524.86328125,187.384765625)"/>
<path d="M0 0 C13.44902989 6.19824856 20.15303935 23.86792323 25 37 C26.07939294 41.03015944 26.08159484 44.83866333 26 49 C24.98679688 48.50628906 23.97359375 48.01257813 22.9296875 47.50390625 C21.57831522 46.8563737 20.22674198 46.20926044 18.875 45.5625 C18.20984375 45.23701172 17.5446875 44.91152344 16.859375 44.57617188 C12.90132029 42.69415567 9.41020487 41.48773294 5 41 C5.13958804 44.87525126 5.28777888 48.75012805 5.4375 52.625 C5.47681641 53.71941406 5.51613281 54.81382813 5.55664062 55.94140625 C5.59853516 57.00488281 5.64042969 58.06835938 5.68359375 59.1640625 C5.72025146 60.13811035 5.75690918 61.1121582 5.79467773 62.11572266 C6.00893288 65.1254852 6.45931357 68.03295916 7 71 C2.78221931 69.65963446 0.81890551 68.03147232 -1.8125 64.5 C-2.41707031 63.7059375 -3.02164063 62.911875 -3.64453125 62.09375 C-5 60 -5 60 -5 58 C-5.66 58 -6.32 58 -7 58 C-11.60781565 50.70810883 -11.63616826 44.23485024 -11.5625 35.75 C-11.59827148 33.88021484 -11.59827148 33.88021484 -11.63476562 31.97265625 C-11.61503157 19.38233023 -7.36693154 10.02510271 0 0 Z " fill="#F5512C" transform="translate(207,43)"/>
<path d="M0 0 C1.18916016 -0.03738281 2.37832031 -0.07476562 3.60351562 -0.11328125 C12.17361349 -0.1998965 12.17361349 -0.1998965 16.48046875 2.2421875 C18.9685211 6.80836137 18.84235636 10.75770124 18.6875 15.875 C18.69136719 17.28072266 18.69136719 17.28072266 18.6953125 18.71484375 C18.61728262 24.2159505 18.26960436 28.29289564 14.1875 32.375 C9.57014444 32.71281357 4.94062228 32.7000399 0.3125 32.75 C-0.99332031 32.78738281 -2.29914062 32.82476562 -3.64453125 32.86328125 C-4.89363281 32.87488281 -6.14273438 32.88648438 -7.4296875 32.8984375 C-9.15614502 32.9281665 -9.15614502 32.9281665 -10.91748047 32.95849609 C-13.8125 32.375 -13.8125 32.375 -15.6887207 30.16479492 C-16.85167128 27.27775686 -17.18638679 25.31022807 -17.17578125 22.21484375 C-17.17513672 21.25642578 -17.17449219 20.29800781 -17.17382812 19.31054688 C-17.15771484 18.32119141 -17.14160156 17.33183594 -17.125 16.3125 C-17.12822266 15.31927734 -17.13144531 14.32605469 -17.13476562 13.30273438 C-17.07287425 4.94739903 -17.07287425 4.94739903 -14.8125 1.375 C-10.48089947 -0.79080027 -4.75775856 0.05618394 0 0 Z " fill="#000000" transform="translate(535.8125,136.625)"/>
<path d="M0 0 C1.06863281 -0.00257813 2.13726562 -0.00515625 3.23828125 -0.0078125 C4.91470703 0.00378906 4.91470703 0.00378906 6.625 0.015625 C7.71167969 0.00789062 8.79835938 0.00015625 9.91796875 -0.0078125 C22.78693498 0.02293772 31.91324444 1.3807 41.625 10.265625 C56.625 26.22853513 56.625 26.22853513 56.625 33.265625 C53.61010592 32.80882287 51.28721074 32.10835641 48.50390625 30.8125 C43.61733971 28.67594926 38.5487733 28.19359666 33.296875 27.53710938 C26.76291759 26.5981308 21.88248541 24.93133562 17.46484375 19.71484375 C16.83707031 18.80347656 16.20929688 17.89210937 15.5625 16.953125 C9.29650979 8.88606703 0.94418815 5.92673463 -8.375 2.265625 C-5.02888058 0.03487872 -3.90888529 0.00916964 0 0 Z " fill="#EB4D32" transform="translate(265.375,136.734375)"/>
<path d="M0 0 C10.5943392 4.45337267 15.45537041 18.21465269 20 28 C20.30776367 28.65661621 20.61552734 29.31323242 20.93261719 29.98974609 C22.64671734 33.64865501 24.3356335 37.31821955 26 41 C25.01 41.495 25.01 41.495 24 42 C21.85546875 40.99609375 21.85546875 40.99609375 19.1875 39.4375 C12.94914588 35.91360665 6.53574458 32.9266982 0 30 C-0.93199219 29.58234375 -1.86398437 29.1646875 -2.82421875 28.734375 C-4.88052674 27.8175909 -6.93869621 26.90548229 -9 26 C-8.86050809 18.18845328 -5.75371323 5.75371323 0 0 Z " fill="#FCFAF9" transform="translate(264,44)"/>
<path d="M0 0 C6.00479122 6.00479122 6.04940003 17.72455317 6.25 25.6875 C6.03223329 44.43523432 -2.57544534 58.74980078 -15 72 C-15.50837402 72.55075195 -16.01674805 73.10150391 -16.54052734 73.66894531 C-26.20657601 84.06183259 -37.74392486 94.44005678 -51 100 C-51.99 100 -52.98 100 -54 100 C-54 99.34 -54 98.68 -54 98 C-54.66 98 -55.32 98 -56 98 C-55.505 97.01 -55.505 97.01 -55 96 C-53.33721524 95.64781295 -51.66969601 95.31781146 -50 95 C-40.69940858 91.09494399 -33.34035397 84.73749097 -26 78 C-25.47728516 77.52256348 -24.95457031 77.04512695 -24.41601562 76.55322266 C-10.19654511 63.3997664 1.87459631 47.70018685 3.21875 27.75390625 C3.4225431 20.13713932 2.46488622 13.25691913 0.65625 5.86328125 C0 3 0 3 0 0 Z " fill="#8B8381" transform="translate(278,327)"/>
<path d="M0 0 C0.99 0.33 1.98 0.66 3 1 C0.56921755 3.95921341 -1.78494968 5.471287 -5.25 6.9375 C-22.19781997 14.16930592 -32.5437705 27.80047225 -39.95703125 44.296875 C-43.06231195 52.34501825 -43.3039701 59.2487788 -43.25 67.875 C-43.25773438 69.10347656 -43.26546875 70.33195312 -43.2734375 71.59765625 C-43.25888545 78.38618628 -42.78395371 84.44467804 -41 91 C-46.4947822 85.5052178 -46.40701595 77.16135026 -46.45898438 69.84179688 C-46.45189453 68.63587891 -46.44480469 67.42996094 -46.4375 66.1875 C-46.45748047 64.99318359 -46.47746094 63.79886719 -46.49804688 62.56835938 C-46.48821749 44.51178374 -38.44904327 29.68928797 -26 17 C-25.40960938 16.30261719 -24.81921875 15.60523438 -24.2109375 14.88671875 C-18.15875777 8.02136069 -10.17044813 4.74868387 -2 1 C-1.34 0.67 -0.68 0.34 0 0 Z " fill="#8B8381" transform="translate(196,141)"/>
<path d="M0 0 C-1.27865981 3.88188005 -2.44969037 5.70405576 -5.8125 8 C-26.6581295 23.45742155 -42.49083955 48.29778542 -47 74 C-47.66 73.67 -48.32 73.34 -49 73 C-48.6073758 48.26467541 -30.0629283 25.45338194 -13.32421875 9.12890625 C-3.76794444 0 -3.76794444 0 0 0 Z " fill="#8C8584" transform="translate(117,186)"/>
<path d="M0 0 C7.49020492 9.37849188 6.86956908 21.57523786 6 33 C5.35326358 37.47560352 4.34717623 41.68672333 3 46 C2.56494141 47.41152344 2.56494141 47.41152344 2.12109375 48.8515625 C-1.44016779 59.43104239 -6.86829682 68.45461601 -14 77 C-14.7578125 75.41015625 -14.7578125 75.41015625 -15 73 C-13.71019755 70.66706239 -12.40344915 68.60243463 -10.875 66.4375 C-0.16970395 50.44053416 4.67538865 33.25734083 3 14 C2.38631302 10.94208546 1.64446667 8.05706235 0.65625 5.1015625 C0 3 0 3 0 0 Z " fill="#8E8482" transform="translate(312,301)"/>
<path d="M0 0 C-2.52011925 3.78017887 -5.50887614 4.8070083 -9.5 6.625 C-25.40253841 14.30257619 -34.56615901 26.77553142 -41 43 C-41.66 42.67 -42.32 42.34 -43 42 C-41.58356137 29.01597921 -31.11785448 16.77804383 -21.3125 8.8125 C-17.62847 6.21727239 -13.68586992 4.12586138 -9.6875 2.0625 C-9.07624268 1.74321533 -8.46498535 1.42393066 -7.83520508 1.0949707 C-3.3622291 -1.12074303 -3.3622291 -1.12074303 0 0 Z " fill="#8A8483" transform="translate(213,177)"/>
<path d="M0 0 C-2.65641544 2.65641544 -5.08793242 3.04926716 -8.6875 4.125 C-25.72431194 9.53210258 -39.2750849 19.80570916 -53 31 C-53.66 30.67 -54.32 30.34 -55 30 C-53.47064199 25.90920189 -50.57912704 23.7779085 -47.1875 21.25 C-46.61 20.81461914 -46.0325 20.37923828 -45.4375 19.93066406 C-12.88500142 -4.23656509 -12.88500142 -4.23656509 0 0 Z " fill="#8B817F" transform="translate(133,128)"/>
<path d="M0 0 C5.09740299 5.09740299 5.3706082 13.5464548 5.41821289 20.39624023 C5.39682251 21.83978882 5.39682251 21.83978882 5.375 23.3125 C5.36267334 24.32578369 5.35034668 25.33906738 5.33764648 26.38305664 C5.0145941 40.8324141 1.24842462 52.14914383 -7 64 C-9.28515625 65.45703125 -9.28515625 65.45703125 -11 66 C-11.66 65.34 -12.32 64.68 -13 64 C-12.26136719 63.33355469 -11.52273437 62.66710937 -10.76171875 61.98046875 C-7.61155331 58.82142022 -5.75850059 55.29174878 -3.8125 51.3125 C-3.47025391 50.65572266 -3.12800781 49.99894531 -2.77539062 49.32226562 C1.4877866 40.7545211 2.34818223 32.08818933 2.25 22.625 C2.24613281 21.71468018 2.24226562 20.80436035 2.23828125 19.86645508 C2.15132686 13.07616277 1.53768184 6.63125292 0 0 Z " fill="#8F8583" transform="translate(214,337)"/>
<path d="M0 0 C0.99 0.33 1.98 0.66 3 1 C2.45730469 1.89460938 1.91460937 2.78921875 1.35546875 3.7109375 C0.6322489 4.93195802 -0.0903751 6.1533316 -0.8125 7.375 C-1.16892578 7.95894531 -1.52535156 8.54289062 -1.89257812 9.14453125 C-7.80475142 19.23319394 -8.4110701 28.56814578 -8.1875 40.125 C-8.17241432 41.47654746 -8.15873283 42.82811135 -8.14648438 44.1796875 C-8.11140724 47.45355371 -8.06225097 50.7265568 -8 54 C-12.68176264 48.88923122 -11.51304745 42.55634299 -11.5 36 C-11.54253906 34.10314453 -11.54253906 34.10314453 -11.5859375 32.16796875 C-11.61211849 19.45709627 -7.43919557 10.1234414 0 0 Z " fill="#91817E" transform="translate(207,43)"/>
<path d="M0 0 C-0.3661979 2.77089743 -0.86271087 3.86554742 -2.890625 5.8515625 C-3.66921875 6.43679687 -4.4478125 7.02203125 -5.25 7.625 C-6.01828125 8.21539062 -6.7865625 8.80578125 -7.578125 9.4140625 C-13.80704965 13.49300348 -19.56946146 13.42031477 -26.8125 13.4375 C-27.92294678 13.44136719 -29.03339355 13.44523437 -30.17749023 13.44921875 C-39.51041114 13.31937882 -47.4248049 11.57832284 -56 8 C-52.46792042 6.82264014 -51.55774893 7.27705273 -48.10546875 8.41015625 C-41.77877047 10.23518539 -35.86576822 10.48116199 -29.3125 10.4375 C-28.23677734 10.45748047 -27.16105469 10.47746094 -26.05273438 10.49804688 C-17.489942 10.49280328 -11.41256909 8.7066444 -5.125 2.75 C-2.1980198 0 -2.1980198 0 0 0 Z " fill="#8F8381" transform="translate(372,249)"/>
<path d="M0 0 C0.66 0.33 1.32 0.66 2 1 C1.4315445 4.37429353 0.48268097 5.86994313 -2.125 8.0625 C-2.68445313 8.54847656 -3.24390625 9.03445312 -3.8203125 9.53515625 C-10.04180139 13.71626437 -15.27723497 14.52173116 -22.625 14.4375 C-23.49930664 14.43427734 -24.37361328 14.43105469 -25.27441406 14.42773438 C-32.72605489 14.26878065 -39.07169715 12.832007 -46 10 C-42.7343703 8.91145677 -42.10722088 9.08217849 -38.9375 9.9375 C-28.58286707 12.12702591 -16.27469049 13.14689893 -6.92578125 7.51171875 C-4.08072554 5.27837887 -2.06908495 2.96568843 0 0 Z " fill="#908786" transform="translate(394,227)"/>
<path d="M0 0 C0.66 0 1.32 0 2 0 C1.57899938 3.15750465 1.14458833 6.28567428 0.51245117 9.40869141 C-0.85740801 16.18191896 -1.33567475 22.66105889 -1.3125 29.5625 C-1.32861328 30.52607422 -1.34472656 31.48964844 -1.36132812 32.48242188 C-1.36533116 38.41892717 -0.57899815 43.33345445 1.45239258 48.92163086 C2 51 2 51 1 54 C0.34956281 52.27255984 -0.29514844 50.5429631 -0.9375 48.8125 C-1.29714844 47.84957031 -1.65679687 46.88664062 -2.02734375 45.89453125 C-4.11148546 39.6923264 -4.19292119 33.85820205 -4.1875 27.375 C-4.18669434 26.38894775 -4.18588867 25.40289551 -4.18505859 24.38696289 C-4.112096 15.73374272 -3.35780395 8.02769097 0 0 Z " fill="#8A8281" transform="translate(126,254)"/>
<path d="M0 0 C0.66 0 1.32 0 2 0 C1.41632234 4.78615682 -0.07917167 8.59810173 -2 13 C-3.15244915 17.36229076 -3.19195802 21.70322864 -3.1875 26.1875 C-3.18741943 26.94200439 -3.18733887 27.69650879 -3.18725586 28.47387695 C-3.12902323 34.18864298 -2.39941661 39.45574642 -1 45 C-0.65549886 46.99810662 -0.31622777 48.99722415 0 51 C-7.68884195 41.7173925 -6.95619855 27.42960196 -6 16 C-4.96822078 10.19536451 -2.85138128 5.15964231 0 0 Z " fill="#90807D" transform="translate(227,222)"/>
<path d="M0 0 C0.92474121 0.01111816 1.84948242 0.02223633 2.80224609 0.03369141 C12.31844893 0.34024264 22.1583152 2.27221013 30.1875 7.625 C25.85016152 7.2306965 22.13941274 6.68993263 18.078125 5.109375 C12.81762278 3.31105635 7.8960208 3.14439764 2.375 3.1875 C1.44751953 3.16751953 0.52003906 3.14753906 -0.43554688 3.12695312 C-5.74355776 3.06993496 -5.74355776 3.06993496 -10.32421875 5.46484375 C-11.50214895 7.17454296 -12.66083352 8.89750028 -13.8125 10.625 C-14.625 8.4375 -14.625 8.4375 -14.8125 5.625 C-10.67340008 -0.19560926 -6.60640864 -0.16744627 0 0 Z " fill="#978F8E" transform="translate(285.8125,248.375)"/>
<path d="M0 0 C1.63001953 -0.01836914 1.63001953 -0.01836914 3.29296875 -0.03710938 C10.29006843 -0.04964898 17.23997353 0.21351686 24 2.1875 C24.66 2.8475 25.32 3.5075 26 4.1875 C25.06232788 4.0781311 25.06232788 4.0781311 24.10571289 3.96655273 C14.92134315 3.00244762 5.81423272 3.15988716 -3.40820312 3.31445312 C-4.61541016 3.32541016 -5.82261719 3.33636719 -7.06640625 3.34765625 C-8.15896729 3.36449463 -9.25152832 3.38133301 -10.37719727 3.39868164 C-13 3.1875 -13 3.1875 -15 1.1875 C-10.12191188 -0.43852937 -5.10795544 0.00294576 0 0 Z " fill="#969392" transform="translate(272,136.8125)"/>
<path d="M0 0 C0.66 0.99 1.32 1.98 2 3 C0.91460937 3.06058594 -0.17078125 3.12117187 -1.2890625 3.18359375 C-2.73438486 3.26806064 -4.17969682 3.35270551 -5.625 3.4375 C-6.33785156 3.47681641 -7.05070312 3.51613281 -7.78515625 3.55664062 C-11.91803682 3.80309681 -15.92269024 4.23470053 -20 5 C-19.67 7.97 -19.34 10.94 -19 14 C-21.39763185 11.60236815 -21.34280586 10.66726502 -21.625 7.375 C-21.69976562 6.55773437 -21.77453125 5.74046875 -21.8515625 4.8984375 C-21.90054687 4.27195313 -21.94953125 3.64546875 -22 3 C-17.19922202 1.16574049 -12.8246659 0.50815197 -7.75 0.1875 C-6.67105469 0.09178711 -6.67105469 0.09178711 -5.5703125 -0.00585938 C-3.484375 -0.14453125 -3.484375 -0.14453125 0 0 Z " fill="#8A7F7C" transform="translate(405,203)"/>
<path d="M0 0 C3.0546875 1.0703125 3.0546875 1.0703125 5.0546875 3.0703125 C1.33494767 2.60534502 -2.01741609 2.04953689 -5.6328125 1.0078125 C-12.07595508 -0.6817787 -19.53833721 -0.83652539 -25.9453125 1.0703125 C-25.9453125 0.0803125 -25.9453125 -0.9096875 -25.9453125 -1.9296875 C-18.27248565 -5.76610092 -7.77896596 -2.14756729 0 0 Z " fill="#958D8C" transform="translate(319.9453125,224.9296875)"/>
<path d="M0 0 C0.66 0 1.32 0 2 0 C1.34775627 4.83281543 0.5459177 9.59548807 -0.4375 14.375 C-0.68371094 15.59960938 -0.92992188 16.82421875 -1.18359375 18.0859375 C-1.45300781 19.04757812 -1.72242187 20.00921875 -2 21 C-2.66 21.33 -3.32 21.66 -4 22 C-3.64775091 14.14120137 -2.86501253 7.34937998 0 0 Z " fill="#8E8381" transform="translate(126,254)"/>
<path d="M0 0 C-2.85867556 2.85867556 -6.34173436 3.50112834 -10.125 4.625 C-10.87910156 4.85445312 -11.63320312 5.08390625 -12.41015625 5.3203125 C-14.27173159 5.88585438 -16.13565151 6.44366822 -18 7 C-18.33 6.01 -18.66 5.02 -19 4 C-16.58732675 3.132758 -14.17095531 2.28103064 -11.75 1.4375 C-11.06808594 1.19064453 -10.38617188 0.94378906 -9.68359375 0.68945312 C-3.41657839 -1.47053761 -3.41657839 -1.47053761 0 0 Z " fill="#918F8F" transform="translate(133,128)"/>
<path d="M0 0 C2.18359375 0.91796875 2.18359375 0.91796875 4 2 C2.2335343 3.0076952 0.46166177 4.00591714 -1.3125 5 C-2.79169922 5.8353125 -2.79169922 5.8353125 -4.30078125 6.6875 C-7 8 -7 8 -10 8 C-10 7.34 -10 6.68 -10 6 C-10.66 6 -11.32 6 -12 6 C-11.67 5.34 -11.34 4.68 -11 4 C-9.33333333 3.66666667 -7.66666667 3.33333333 -6 3 C-4.989375 2.443125 -3.97875 1.88625 -2.9375 1.3125 C-1.968125 0.879375 -0.99875 0.44625 0 0 Z " fill="#99827D" transform="translate(234,419)"/>
<path d="M0 0 C0.66 0 1.32 0 2 0 C1.40762758 4.85745385 0.20835969 8.66821752 -2 13 C-2.99 13.33 -3.98 13.66 -5 14 C-4.46515599 8.65155992 -2.53309233 4.64203897 0 0 Z " fill="#8D8988" transform="translate(227,222)"/>
<path d="M0 0 C0.33 0 0.66 0 1 0 C1.08075665 2.29109597 1.13907731 4.58299267 1.1875 6.875 C1.22230469 8.15117187 1.25710938 9.42734375 1.29296875 10.7421875 C1.19628906 11.81726563 1.09960938 12.89234375 1 14 C0.01 14.66 -0.98 15.32 -2 16 C-1.85936865 13.70800823 -1.71234057 11.41640814 -1.5625 9.125 C-1.48128906 7.84882813 -1.40007812 6.57265625 -1.31640625 5.2578125 C-1 2 -1 2 0 0 Z " fill="#8C8988" transform="translate(283,346)"/>
<path d="M0 0 C2 2 2 2 2.25 5.375 C2.02515633 8.63523324 1.7239511 10.30632641 0 13 C-0.33 13 -0.66 13 -1 13 C-0.67 8.71 -0.34 4.42 0 0 Z " fill="#949090" transform="translate(123,263)"/>
<path d="M0 0 C0.33 0 0.66 0 1 0 C0.88590407 1.45922693 0.75834456 2.91740598 0.625 4.375 C0.55539062 5.18710937 0.48578125 5.99921875 0.4140625 6.8359375 C0 9 0 9 -2 11 C-2.95465783 8.83032311 -3.14401212 7.43671207 -2.3984375 5.17578125 C-1.64129615 3.4315257 -0.82390802 1.71372869 0 0 Z " fill="#8B7B78" transform="translate(282,361)"/>
<path d="M0 0 C0.99 0.2165625 0.99 0.2165625 2 0.4375 C5.65599551 1.12299916 9.30622195 1.56175515 13 2 C13.33 2.99 13.66 3.98 14 5 C8.72250715 4.46148032 4.74354436 3.22656164 0 1 C0 0.67 0 0.34 0 0 Z " fill="#A27871" transform="translate(146,349)"/>
<path d="M0 0 C0.66 0.33 1.32 0.66 2 1 C1.67 1.66 1.34 2.32 1 3 C0.93049459 4.54023996 0.91547643 6.08334988 0.9375 7.625 C0.94652344 8.44226563 0.95554687 9.25953125 0.96484375 10.1015625 C0.97644531 10.72804687 0.98804688 11.35453125 1 12 C-1.39763185 9.60236815 -1.34280586 8.66726502 -1.625 5.375 C-1.69976562 4.55773437 -1.77453125 3.74046875 -1.8515625 2.8984375 C-1.90054687 2.27195313 -1.94953125 1.64546875 -2 1 C-1.34 0.67 -0.68 0.34 0 0 Z " fill="#949292" transform="translate(385,205)"/>
<path d="M0 0 C0.66 0.33 1.32 0.66 2 1 C1.6875 4.375 1.6875 4.375 1 8 C0.01 8.66 -0.98 9.32 -2 10 C-1.54177532 6.53058454 -1.10868317 3.32604951 0 0 Z " fill="#8F8D8D" transform="translate(153,183)"/>
<path d="M0 0 C0.66 0.33 1.32 0.66 2 1 C0.87548273 3.9719385 -0.22293791 6.33440687 -2 9 C-2.6875 6.75 -2.6875 6.75 -3 4 C-1.5625 1.6875 -1.5625 1.6875 0 0 Z " fill="#8D8988" transform="translate(274,250)"/>
<path d="M0 0 C0.66 0.33 1.32 0.66 2 1 C0.515 4.465 0.515 4.465 -1 8 C-1.66 7.67 -2.32 7.34 -3 7 C-2.625 4.0625 -2.625 4.0625 -2 1 C-1.34 0.67 -0.68 0.34 0 0 Z " fill="#93817E" transform="translate(173,212)"/>
<path d="M0 0 C-2.40436026 3.60654039 -3.94679607 3.85452932 -8 5 C-7.75 3.125 -7.75 3.125 -7 1 C-4.09342573 -1.03460199 -3.47133392 -1.15711131 0 0 Z " fill="#938785" transform="translate(213,177)"/>
<path d="M0 0 C-2.95183101 2.95183101 -5.95511947 3.08663988 -10 4 C-9 1 -9 1 -6.6875 -0.25 C-3.90126985 -1.0275526 -2.66561622 -0.98726527 0 0 Z " fill="#898786" transform="translate(133,128)"/>
<path d="M0 0 C0.66 0 1.32 0 2 0 C1.875 1.75 1.875 1.75 1 4 C-2.0625 6.25 -2.0625 6.25 -5 8 C-3.63055898 5.05043472 -2.12169591 2.47531189 0 0 Z " fill="#8C7874" transform="translate(370,249)"/>
<path d="M0 0 C1.09054687 0.02320313 2.18109375 0.04640625 3.3046875 0.0703125 C4.40039062 0.08835938 5.49609375 0.10640625 6.625 0.125 C7.46804688 0.14820313 8.31109375 0.17140625 9.1796875 0.1953125 C9.1796875 0.5253125 9.1796875 0.8553125 9.1796875 1.1953125 C5.8796875 1.1953125 2.5796875 1.1953125 -0.8203125 1.1953125 C-0.8203125 1.8553125 -0.8203125 2.5153125 -0.8203125 3.1953125 C-2.1403125 2.8653125 -3.4603125 2.5353125 -4.8203125 2.1953125 C-2.8203125 0.1953125 -2.8203125 0.1953125 0 0 Z " fill="#D15F4C" transform="translate(300.8203125,223.8046875)"/>
<path d="M0 0 C0.6875 1.75 0.6875 1.75 1 4 C-0.4375 6.25 -0.4375 6.25 -2 8 C-2.6875 6.25 -2.6875 6.25 -3 4 C-1.5625 1.75 -1.5625 1.75 0 0 Z " fill="#88807E" transform="translate(76,235)"/>
<path d="M0 0 C0.66 0.33 1.32 0.66 2 1 C1.67 2.98 1.34 4.96 1 7 C0.01 7.33 -0.98 7.66 -2 8 C-1.125 2.25 -1.125 2.25 0 0 Z " fill="#909090" transform="translate(224,228)"/>
</svg>
