<?xml version="1.0" encoding="UTF-8"?>
<svg version="1.1" xmlns="http://www.w3.org/2000/svg" width="1412" height="454">
<path d="M0 0 C0.81563416 -0.00705963 1.63126831 -0.01411926 2.47161865 -0.02139282 C36.6124826 -0.24971233 36.6124826 -0.24971233 53.14453125 3.203125 C54.12309082 3.40180176 55.10165039 3.60047852 56.10986328 3.80517578 C110.26047078 15.07424219 161.85384267 45.55697882 194.14453125 91.203125 C194.62583496 91.88310547 195.10713867 92.56308594 195.60302734 93.26367188 C217.79384116 124.95873223 231.91077033 159.77884474 237.14453125 198.203125 C237.24765625 198.94377197 237.35078125 199.68441895 237.45703125 200.44750977 C238.48761245 209.05194264 238.38831636 217.73707049 238.39453125 226.390625 C238.39520599 227.23527313 238.39588074 228.07992126 238.39657593 228.95016479 C238.31619798 292.42996291 212.03490609 347.45689735 168.14453125 392.390625 C163.09173343 397.37203321 157.75069609 401.85889119 152.14453125 406.203125 C151.60231934 406.62706543 151.06010742 407.05100586 150.50146484 407.48779297 C110.95948745 438.20774531 61.50071855 454.76664172 11.51953125 454.515625 C10.73838959 454.51346985 9.95724792 454.5113147 9.1524353 454.50909424 C-41.24194314 454.28735513 -91.77932205 437.47610374 -130.85546875 405.203125 C-131.41153809 404.74856934 -131.96760742 404.29401367 -132.54052734 403.82568359 C-145.52722626 393.15895287 -157.63518718 381.58207264 -167.85546875 368.203125 C-168.2736084 367.66671387 -168.69174805 367.13030273 -169.12255859 366.57763672 C-177.06338054 356.35973121 -183.67165135 345.56031628 -189.85546875 334.203125 C-190.22800781 333.52137207 -190.60054687 332.83961914 -190.984375 332.13720703 C-203.67969652 308.61455642 -211.45356169 282.67870081 -214.85546875 256.203125 C-214.94973145 255.51259033 -215.04399414 254.82205566 -215.14111328 254.1105957 C-217.80835018 231.80648324 -217.21051264 207.20714205 -212.85546875 185.203125 C-212.66210938 184.21666992 -212.46875 183.23021484 -212.26953125 182.21386719 C-203.56380617 139.39728412 -183.18767419 100.06483292 -152.51074219 68.88916016 C-150.92421859 67.27315249 -149.3607138 65.63772739 -147.80078125 63.99609375 C-110.73996396 25.41147469 -53.49410338 0.31031039 0 0 Z " fill="#ED4925" transform="translate(215.85546875,-0.203125)"/>
<path d="M0 0 C2.13659434 1.54276435 3.88061897 2.99362634 5.75 4.8125 C6.53117187 5.55040771 6.53117187 5.55040771 7.328125 6.30322266 C12.35784671 11.15265104 16.73200598 16.47570129 21 22 C21.7425 22.86882813 22.485 23.73765625 23.25 24.6328125 C25 27 25 27 25 30 C25.66 30 26.32 30 27 30 C30.2921675 34.39184767 32.67523619 39.13618103 35.0625 44.0625 C36.06341371 46.11580298 37.06813945 48.16478045 38.10595703 50.19970703 C38.84325382 51.68436746 39.49455599 53.21140369 40.12109375 54.74609375 C42.68942877 57.82702786 45.46114178 58.58895551 49.18212891 59.93652344 C63.65104326 65.39715339 77.52436217 73.91480021 90 83 C90.55300781 83.39896484 91.10601562 83.79792969 91.67578125 84.20898438 C99.79520211 90.11315341 107.42080968 96.5448197 114.57226562 103.59326172 C115.84922682 104.85144408 117.14971785 106.08564122 118.453125 107.31640625 C123.5393995 112.73234669 124.67166146 117.51173591 125.8125 124.625 C127.12046577 132.61828031 127.12046577 132.61828031 132.5625 138.375 C134.69297017 139.61021941 136.84136908 140.81468034 139 142 C142.06156663 143.98253704 145.05956949 146.05506003 148.0625 148.125 C148.87638184 148.67704102 149.69026367 149.22908203 150.52880859 149.79785156 C157.03563828 154.23762614 163.23908943 158.99369649 169.40893555 163.88671875 C175.0598112 168.34283068 180.8758166 172.47709651 186.87573242 176.44970703 C190.26416092 178.71102321 193.24265026 180.99324174 196 184 C194.74703125 184.04898438 193.4940625 184.09796875 192.203125 184.1484375 C190.55206179 184.22348583 188.90102119 184.29903277 187.25 184.375 C186.0125 184.42140625 186.0125 184.42140625 184.75 184.46875 C183.55117188 184.52675781 183.55117188 184.52675781 182.328125 184.5859375 C181.5949707 184.6173584 180.86181641 184.6487793 180.10644531 184.68115234 C177.75077082 185.03772523 176.06549409 185.83662883 174 187 C174.9529358 194.38525241 177.33582364 198.23050976 182.3203125 203.73828125 C184 206 184 206 184 210 C182.49609375 211.59765625 182.49609375 211.59765625 180.4375 213.0625 C179.77621094 213.54847656 179.11492187 214.03445312 178.43359375 214.53515625 C172.39645549 218.16906772 167.30598496 219.58219652 160.375 219.5625 C159.56248779 219.5622583 158.74997559 219.5620166 157.9128418 219.56176758 C144.09614373 219.18699277 130.98915588 213.83764181 118.234375 208.9375 C101.46044941 202.58850757 101.46044941 202.58850757 84 204 C88.96446807 206.1996375 93.9469349 208.07651025 99.1015625 209.77734375 C99.85988373 210.02996475 100.61820496 210.28258575 101.39950562 210.54286194 C102.99747139 211.07451569 104.59591966 211.60472121 106.19482422 212.13354492 C108.59847625 212.92872536 111.00052196 213.72860746 113.40234375 214.52929688 C131.87177927 220.75099764 131.87177927 220.75099764 150.8125 225.25 C152.15538086 225.50910156 152.15538086 225.50910156 153.52539062 225.7734375 C155.6823727 226.18868539 157.84100958 226.59532383 160 227 C160 230 160 230 158.53125 231.71875 C157.8609375 232.3065625 157.190625 232.894375 156.5 233.5 C155.8503125 234.0878125 155.200625 234.675625 154.53125 235.28125 C147.85881628 239.81191487 141.3693418 240.6107783 133.5 240.625 C132.50967773 240.62733643 131.51935547 240.62967285 130.49902344 240.63208008 C119.67710772 240.3762368 109.94018555 237.29623388 99.74829102 233.90283203 C91.70266655 231.25979043 84.560899 229.52979857 76.0625 229.75 C75.23943359 229.75515625 74.41636719 229.7603125 73.56835938 229.765625 C69.86274733 229.8137108 66.58475053 229.99604854 63 231 C62.49283934 234.47767306 62.29162735 236.76488871 64.06640625 239.859375 C68.24601674 244.92937871 73.39520319 248.74846076 78.58227539 252.71289062 C89.49560178 261.13120331 98.87909478 270.32428842 103.25 283.625 C103.50523437 284.36234375 103.76046875 285.0996875 104.0234375 285.859375 C109.84493226 302.95618594 106.63127577 320.76388899 99.2890625 337.0546875 C90.99662162 353.00168919 90.99662162 353.00168919 85 356 C85.42154555 352.55737802 85.86447763 349.38623876 87.015625 346.10546875 C88.69244913 340.34530986 88.36870716 334.3217313 88.375 328.375 C88.39949219 327.18003906 88.42398438 325.98507812 88.44921875 324.75390625 C88.52055277 302.80680718 77.19222287 285.30399767 62.35400391 270.10546875 C58.10188798 265.84931217 53.69458338 261.80723702 49.125 257.89453125 C36.33389361 246.49069559 21.64322721 232.56881858 19.62109375 214.640625 C19.56050781 213.52171875 19.49992188 212.4028125 19.4375 211.25 C19.3199501 206.96720156 19.3199501 206.96720156 18 203 C10.88714017 216.29345163 10.12641437 230.3664543 14 245 C15.43230527 248.29125467 17.00373294 251.40857601 18.7578125 254.5390625 C20 257 20 257 20 260 C10.32929582 259.03827251 1.46322437 247.99455918 -4.5 240.9375 C-14.72615872 228.08599545 -16.68342113 211.97875849 -15 196 C-12.97935929 181.49912372 -6.52187354 168.7995172 2 157 C-13.31948744 161.14040201 -26.11824502 172.46263457 -34 186 C-36.10548222 189.95305459 -38.09806588 193.94532726 -40 198 C-42.5433025 195.4566975 -42.26768183 194.50366151 -42.30078125 190.9765625 C-42.31044922 189.96134521 -42.32011719 188.94612793 -42.33007812 187.90014648 C-42.20977095 165.48458111 -36.02263159 150.30674234 -22 133 C-21.43023437 132.2884375 -20.86046875 131.576875 -20.2734375 130.84375 C-17.46458071 127.44431307 -14.57413557 124.62804086 -11 122 C-24.98461258 123.78585426 -37.15105379 134.52163721 -45.42578125 145.1015625 C-58.07096336 162.11103364 -61.13082915 180.21872277 -59 201 C-57.75906673 206.89754951 -55.20194239 211.93801386 -52 217 C-51.41387939 217.93489258 -51.41387939 217.93489258 -50.81591797 218.88867188 C-37.06205536 240.29452416 -15.66851294 253.9311228 5.50390625 267.1796875 C31.61191115 283.52110149 47.66068889 299.12725644 56 329 C60.17593826 316.17617267 60.17593826 316.17617267 63 303 C63.99 303 64.98 303 66 303 C74.00002495 318.71578506 74.5844198 333.20314533 69.48046875 349.75390625 C67.71998128 355.04697372 65.3345677 359.52757033 62 364 C61.41476562 364.79148437 60.82953125 365.58296875 60.2265625 366.3984375 C58.21841021 368.99674067 56.13312857 371.50331213 54 374 C53.18660156 374.96035156 52.37320313 375.92070312 51.53515625 376.91015625 C42.23461232 387.61897896 30.2538985 398.50147864 17 404 C14.6640625 403.671875 14.6640625 403.671875 13 403 C13.51949219 402.15179688 14.03898438 401.30359375 14.57421875 400.4296875 C25.42770559 382.32577967 31.71449255 361.79463942 27.1953125 340.60546875 C22.05808717 320.93926851 8.5545362 305.27751181 -8 294 C-7.62488281 294.52207031 -7.24976563 295.04414063 -6.86328125 295.58203125 C-2.78222345 301.45176425 0.32681783 307.37515724 3 314 C3.39574219 314.88300781 3.79148438 315.76601563 4.19921875 316.67578125 C9.67885231 330.88437495 9.382716 350.59669734 3.484375 364.59765625 C0.24622963 371.06665387 -2.90175317 376.77740569 -8 382 C-10.05355601 378.801839 -10.30763673 375.79820908 -10.58056641 372.06201172 C-11.3277148 361.8667735 -13.79363942 353.27497946 -18 344 C-18.30744141 343.32163086 -18.61488281 342.64326172 -18.93164062 341.94433594 C-23.17710063 332.74872145 -28.07815817 324.23664148 -34 316 C-34.71027344 315.00355469 -35.42054688 314.00710938 -36.15234375 312.98046875 C-40.60883371 306.87922854 -45.38597224 301.25385189 -50.5234375 295.71875 C-53.77668124 292.1473657 -56.82456911 288.43487347 -59.84765625 284.66796875 C-61.22458847 282.96117255 -62.62628994 281.27388396 -64.05859375 279.61328125 C-75.36092179 266.28402499 -80.28486394 252.10799322 -83 235 C-89.66478386 255.07818534 -87.82819782 273.5787043 -79.59765625 292.87109375 C-78.01635066 295.9679783 -76.21450816 298.33471251 -74 301 C-73.07613254 302.52503193 -72.17997158 304.06719818 -71.3125 305.625 C-66.35765292 314.03322534 -59.78973782 321.27014991 -53.21484375 328.44140625 C-52 330 -52 330 -52 332 C-57.39974847 331.05004425 -62.0644303 329.7424127 -66.8828125 327.09765625 C-69.16488256 325.87134131 -69.16488256 325.87134131 -72.34765625 324.65625 C-93.25129058 315.79081976 -106.01983672 294.95182511 -114.2578125 274.9453125 C-118.21255153 264.60440229 -119.36612173 254.85702203 -119.3125 243.8125 C-119.30758545 242.6172168 -119.3026709 241.42193359 -119.29760742 240.19042969 C-119.18138644 231.41961938 -118.46334537 223.45715333 -116 215 C-115.67128906 213.824375 -115.34257813 212.64875 -115.00390625 211.4375 C-110.1101258 195.45227941 -102.47058206 180.72450781 -93 167 C-116.24782127 179.41246739 -130.96045583 203.83608705 -139.1953125 228.08984375 C-140.01321108 231.04777793 -140.55673504 233.96499198 -141 237 C-141.99 236.67 -142.98 236.34 -144 236 C-144.02944154 231.89584883 -144.04694527 227.79172544 -144.0625 223.6875 C-144.07087891 222.53958984 -144.07925781 221.39167969 -144.08789062 220.20898438 C-144.18057441 187.49160882 -129.50229754 157.48268809 -107 134 C-106.13473048 132.94652214 -105.27889642 131.88514113 -104.4375 130.8125 C-101.25688685 127.14256175 -97.71408713 124.11739772 -94 121 C-92.51113281 119.7315625 -92.51113281 119.7315625 -90.9921875 118.4375 C-81.95239502 110.78855149 -81.95239502 110.78855149 -77 108 C-95.20904462 110.04411211 -111.08101579 120.2071365 -124.94140625 131.58203125 C-127.54989451 133.64416948 -130.10550909 135.37757586 -133 137 C-132.49490723 131.71757149 -129.73871161 127.7754533 -127 123.375 C-126.50306641 122.57175293 -126.00613281 121.76850586 -125.49414062 120.94091797 C-121.45912799 114.52545453 -117.06056093 108.64939518 -112 103 C-111.56155762 102.50274414 -111.12311523 102.00548828 -110.67138672 101.49316406 C-105.14009782 95.22759898 -99.49612455 89.28149025 -93 84 C-92.47422363 83.56187988 -91.94844727 83.12375977 -91.40673828 82.67236328 C-67.6620562 62.8927366 -67.6620562 62.8927366 -56 60 C-53.25 60.41015625 -53.25 60.41015625 -51 61 C-50.65388672 62.41539063 -50.65388672 62.41539063 -50.30078125 63.859375 C-46.11305505 80.55998334 -40.94955234 93.57309753 -25.65234375 103.0390625 C-24.83443359 103.51472656 -24.83443359 103.51472656 -24 104 C-23.67 103.67 -23.34 103.34 -23 103 C-23.48210937 102.11699219 -23.96421875 101.23398438 -24.4609375 100.32421875 C-25.09973255 99.11238696 -25.73770889 97.90012337 -26.375 96.6875 C-26.69210938 96.11193359 -27.00921875 95.53636719 -27.3359375 94.94335938 C-32.28036907 85.41502771 -32.34208414 75.02012115 -32.3125 64.5 C-32.32861328 63.35402344 -32.34472656 62.20804688 -32.36132812 61.02734375 C-32.36559298 53.52972945 -31.31897343 47.1155908 -29 40 C-28.56107422 38.42992188 -28.56107422 38.42992188 -28.11328125 36.828125 C-24.83087323 26.26037236 -14.02672889 -2.62476214 0 0 Z " fill="#FEFDFD" transform="translate(209,20)"/>
<path d="M0 0 C0.78910263 -0.00686325 1.57820526 -0.0137265 2.39122009 -0.02079773 C5.0072519 -0.03913481 7.62268702 -0.03521415 10.23876953 -0.02954102 C12.06422113 -0.03410377 13.88967102 -0.03940962 15.71511841 -0.04542542 C19.55022124 -0.05437322 23.38511612 -0.05191945 27.22021484 -0.04199219 C32.10333297 -0.03057666 36.98571993 -0.05059047 41.86874199 -0.07990932 C45.6455025 -0.09839367 49.4220924 -0.0979534 53.19888687 -0.0922718 C54.99677674 -0.09211967 56.79467899 -0.09807379 58.59252548 -0.11056328 C75.27464488 -0.21000987 89.86496462 2.31041902 102.49658203 14.15405273 C113.45130966 25.79483402 116.03604734 38.1017145 115.59423828 53.60717773 C115.0641001 63.3890822 110.98505883 70.65710906 105.24658203 78.40405273 C106.68813503 81.52198184 108.29182493 83.42059023 110.75439453 85.81030273 C120.37973088 96.09076669 124.6466134 108.40924116 124.45751953 122.34545898 C123.42509477 137.31561803 117.0754837 149.1857359 106.24658203 159.40405273 C96.45031448 167.27152149 86.66639406 170.55601362 74.26538086 170.54931641 C73.37053482 170.55267502 72.47568878 170.55603363 71.5537262 170.55949402 C68.60367436 170.56897342 65.65367939 170.57094519 62.70361328 170.57202148 C60.65288774 170.57523462 58.60216243 170.57859873 56.55143738 170.58210754 C52.25848865 170.58809016 47.96556003 170.58994818 43.67260742 170.58935547 C38.16092395 170.58925354 32.64936841 170.60294102 27.13771534 170.62012768 C22.90593365 170.63121852 18.67418327 170.63327563 14.44238853 170.63274574 C12.40933476 170.63392891 10.37628025 170.63836943 8.34324074 170.64607811 C5.50860075 170.65582531 2.6742437 170.65302167 -0.16040039 170.64697266 C-1.00562256 170.65259216 -1.85084473 170.65821167 -2.72167969 170.66400146 C-8.52509808 170.63237262 -8.52509808 170.63237262 -10.75341797 168.40405273 C-11.00789356 165.58947086 -11.00789356 165.58947086 -11.01411438 161.91969299 C-11.01793993 161.2463147 -11.02176547 160.57293641 -11.02570695 159.87915272 C-11.03606485 157.61206515 -11.03203961 155.34522953 -11.02807617 153.078125 C-11.03242112 151.45710006 -11.03760354 149.83607718 -11.04356384 148.21505737 C-11.05698867 143.80393501 -11.05752865 139.39289813 -11.05500054 134.98175931 C-11.05393316 131.30364886 -11.05880822 127.62555587 -11.06360596 123.94744915 C-11.07471325 115.27240732 -11.07513174 106.59740879 -11.0690918 97.92236328 C-11.06305012 88.96323677 -11.07536513 80.00426723 -11.09666187 71.04516751 C-11.11425643 63.36190651 -11.12028261 55.67869557 -11.11702412 47.99541515 C-11.11520765 43.40271327 -11.11788351 38.81012335 -11.13173866 34.21743965 C-11.14427757 29.89921908 -11.14241048 25.58124383 -11.12932777 21.26302719 C-11.12695379 19.67591584 -11.12972593 18.08878744 -11.1379509 16.50169563 C-11.14835131 14.33930774 -11.14037291 12.1777533 -11.12763977 10.01539612 C-11.12780751 8.8039924 -11.12797525 7.59258867 -11.12814808 6.34447575 C-10.75341797 3.40405273 -10.75341797 3.40405273 -9.44404697 1.51507378 C-6.56712732 -0.37553514 -3.32999129 -0.02012406 0 0 Z M23.24658203 29.40405273 C23.24658203 42.60405273 23.24658203 55.80405273 23.24658203 69.40405273 C29.04619223 69.5194296 34.84175407 69.61878525 40.64160156 69.67871094 C42.6104895 69.7037132 44.57928596 69.73772673 46.54785156 69.78125 C61.7597968 70.53976237 61.7597968 70.53976237 75.24658203 64.40405273 C79.66879405 59.98184072 81.33811409 55.77115378 81.62158203 49.59155273 C81.48156339 43.71076996 79.8468996 39.20384672 75.82080078 34.86889648 C69.65596458 29.40497189 64.20283589 29.12014897 56.35205078 29.20874023 C54.93101799 29.21298508 54.93101799 29.21298508 53.48127747 29.21731567 C50.46541537 29.22848087 47.44985387 29.25357885 44.43408203 29.27905273 C42.38525821 29.28908726 40.33642971 29.29821229 38.28759766 29.30639648 C33.27371774 29.32670381 28.26048505 29.36585965 23.24658203 29.40405273 Z M23.24658203 96.40405273 C23.24658203 111.25405273 23.24658203 126.10405273 23.24658203 141.40405273 C29.9547346 141.47305088 36.66164793 141.53274829 43.36987305 141.56884766 C45.65018901 141.58390192 47.93047617 141.60434981 50.21069336 141.63037109 C53.49486413 141.66690167 56.77865088 141.68381313 60.06298828 141.69702148 C61.07680069 141.71250534 62.0906131 141.7279892 63.13514709 141.74394226 C70.62825027 141.74571003 75.18404524 140.50579367 81.43408203 136.21655273 C86.34951665 131.30111811 88.92994503 125.73801328 89.39892578 118.76342773 C88.96656932 112.06744567 86.22040605 106.88749626 81.30908203 102.40405273 C73.64244487 96.36710739 65.66542609 96.25276636 56.25439453 96.30639648 C54.99550415 96.3079071 54.99550415 96.3079071 53.71118164 96.30944824 C50.59796773 96.31465146 47.4847734 96.3286126 44.37158203 96.34155273 C33.91470703 96.37249023 33.91470703 96.37249023 23.24658203 96.40405273 Z " fill="#FFFFFF" transform="translate(602.75341796875,162.595947265625)"/>
<path d="M0 0 C1.04450317 0.00326294 1.04450317 0.00326294 2.11010742 0.0065918 C4.23278268 0.00974873 6.35405999 -0.01369198 8.4765625 -0.0390625 C9.82486803 -0.04133583 11.17317731 -0.04203883 12.52148438 -0.04101562 C14.36407837 -0.04548706 14.36407837 -0.04548706 16.24389648 -0.05004883 C19.68885172 0.36872811 20.19186978 0.73633154 22.30664062 3.32226562 C23.2051239 5.18470764 23.2051239 5.18470764 23.95385742 7.31079102 C24.24289948 8.11743195 24.53194153 8.92407288 24.82974243 9.75515747 C25.28817032 11.07421585 25.28817032 11.07421585 25.75585938 12.41992188 C26.08597015 13.34618378 26.41608093 14.27244568 26.75619507 15.22677612 C27.4698856 17.23082079 28.17993244 19.23616597 28.88674927 21.24264526 C30.76066476 26.55970681 32.66249317 31.86674592 34.56445312 37.17382812 C34.95329178 38.26020065 35.34213043 39.34657318 35.74275208 40.46586609 C39.80751205 51.78551372 44.06547288 63.02915433 48.36914062 74.25976562 C48.72197113 75.18129425 49.07480164 76.10282288 49.43832397 77.05227661 C51.38884785 82.14443115 53.34491993 87.23441458 55.30664062 92.32226562 C57.14199192 89.56923868 58.10547829 87.39054553 59.19506836 84.30126953 C59.56018524 83.2730307 59.92530212 82.24479187 60.30148315 81.18539429 C60.69377106 80.06782745 61.08605896 78.95026062 61.49023438 77.79882812 C62.10791183 76.05613144 62.10791183 76.05613144 62.73806763 74.27822876 C63.61986691 71.79023959 64.50031794 69.30181794 65.37869263 66.81262207 C67.64156027 60.40250951 69.92325287 53.99908661 72.20507812 47.59570312 C72.42855738 46.96831238 72.65203663 46.34092163 72.88228798 45.69451904 C76.47009119 35.62539056 80.09898712 25.57460423 83.86914062 15.57226562 C84.2905835 14.44127441 84.71202637 13.3102832 85.14624023 12.14501953 C85.53046143 11.13616699 85.91468262 10.12731445 86.31054688 9.08789062 C86.62838135 8.25032227 86.94621582 7.41275391 87.27368164 6.54980469 C88.43772419 4.03958861 89.29976196 2.25289924 91.30664062 0.32226562 C94.36938477 -0.16357422 94.36938477 -0.16357422 98.09179688 -0.13867188 C98.74869003 -0.13775543 99.40558319 -0.13683899 100.0823822 -0.13589478 C101.46848799 -0.12986165 102.85458091 -0.11412374 104.24047852 -0.08935547 C106.36523279 -0.0528016 108.48824512 -0.04833639 110.61328125 -0.04882812 C121.01142714 0.02705214 121.01142714 0.02705214 123.30664062 2.32226562 C123.26487677 11.1866435 118.68302851 18.85869567 114.90429688 26.6796875 C111.60933039 33.48324893 111.60933039 33.48324893 112.08789062 40.73242188 C112.79318809 42.27847479 113.53791975 43.80674844 114.30664062 45.32226562 C115.27596176 47.60106589 116.23890613 49.88258374 117.19726562 52.16601562 C118.02274343 54.06511163 118.85633471 55.96050142 119.69082642 57.85565186 C121.15301448 61.17687153 122.60267107 64.50355089 124.05273438 67.83007812 C124.33614182 68.47957428 124.61954926 69.12907043 124.9115448 69.79824829 C128.16070996 77.25847715 131.2637758 84.77596085 134.30664062 92.32226562 C137.8418208 85.62829169 140.54193941 78.74677789 143.19335938 71.66210938 C143.89900963 69.79361084 144.60466126 67.92511282 145.3103838 66.05664158 C146.29454927 63.44773462 147.2747948 60.83736195 148.25506592 58.22698975 C151.8066024 48.77372587 155.37412463 39.32645547 158.95550537 29.88446045 C159.84863959 27.52976051 160.7403079 25.17450397 161.63043213 22.81866455 C162.85378829 19.58865307 164.08812165 16.36307482 165.32617188 13.13867188 C165.68668137 12.18218246 166.04719086 11.22569305 166.41862488 10.24021912 C166.75654556 9.36696487 167.09446625 8.49371063 167.44262695 7.59399414 C167.73196609 6.83667496 168.02130524 6.07935577 168.31941223 5.29908752 C169.39860885 3.13810884 170.42371841 1.8309214 172.30664062 0.32226562 C175.27758789 -0.06591797 175.27758789 -0.06591797 178.87304688 -0.07617188 C180.80760742 -0.08197266 180.80760742 -0.08197266 182.78125 -0.08789062 C183.4518042 -0.08160645 184.1223584 -0.07532227 184.81323242 -0.06884766 C186.86574539 -0.05276099 188.91629747 -0.06871572 190.96875 -0.08789062 C192.90137695 -0.08208984 192.90137695 -0.08208984 194.87304688 -0.07617188 C196.05842041 -0.07278809 197.24379395 -0.0694043 198.46508789 -0.06591797 C199.87165649 0.12623291 199.87165649 0.12623291 201.30664062 0.32226562 C203.30664062 3.32226562 203.30664062 3.32226562 202.84960938 6.95898438 C200.91006302 14.60488837 197.62657863 21.86126732 194.61914062 29.13476562 C193.94122506 30.78893631 193.26382593 32.44331872 192.58691406 34.09790039 C190.5052147 39.17755876 188.40853558 44.25093494 186.30664062 49.32226562 C185.99281433 50.07946899 185.67898804 50.83667236 185.35565186 51.61682129 C182.65940984 58.11803365 179.95433536 64.61553985 177.23803711 71.10839844 C173.57297063 79.87046379 169.93176921 88.64192815 166.31445312 97.42382812 C165.8883374 98.45788284 165.46222168 99.49193756 165.02319336 100.55732727 C163.32922083 104.6687097 161.63543509 108.78016266 159.94567871 112.89328003 C147.67912275 142.75135318 147.67912275 142.75135318 144.30664062 145.32226562 C141.02582135 145.97425975 137.70765907 145.83171649 134.36914062 145.82226562 C133.46228516 145.850625 132.55542969 145.87898437 131.62109375 145.90820312 C130.74517578 145.91078125 129.86925781 145.91335938 128.96679688 145.91601562 C128.16894775 145.92310547 127.37109863 145.93019531 126.54907227 145.9375 C123.09516899 144.98988582 122.2325712 143.32765784 120.30664062 140.32226562 C118.7089574 137.04070079 117.33460491 133.68318449 115.97070312 130.29882812 C115.5688681 129.3204599 115.16703308 128.34209167 114.75302124 127.33407593 C113.47142382 124.2082657 112.20144802 121.0778812 110.93164062 117.94726562 C110.08603476 115.88055305 109.2396876 113.81414361 108.39257812 111.74804688 C103.97639927 100.96119889 99.61206075 90.15379625 95.30664062 79.32226562 C92.05312061 85.59531962 89.31700458 91.98700516 86.68164062 98.54101562 C86.038479 100.12698547 86.038479 100.12698547 85.38232422 101.74499512 C84.02069265 105.10285193 82.66315404 108.46233819 81.30664062 111.82226562 C79.51867217 116.25085748 77.72645327 120.67769381 75.93164062 125.10351562 C75.32521729 126.61165833 75.32521729 126.61165833 74.70654297 128.15026855 C68.36059489 143.79528849 68.36059489 143.79528849 65.30664062 145.32226562 C62.00017159 145.58662293 58.68501135 145.55375413 55.36914062 145.57226562 C54.44939453 145.59289062 53.52964844 145.61351562 52.58203125 145.63476562 C51.69837891 145.63992188 50.81472656 145.64507812 49.90429688 145.65039062 C49.09484619 145.65973633 48.28539551 145.66908203 47.45141602 145.67871094 C44.73650779 145.2275139 44.08056343 144.38741747 42.30664062 142.32226562 C41.33895874 140.49105835 41.33895874 140.49105835 40.49169922 138.40966797 C40.16572754 137.6196489 39.83975586 136.82962982 39.50390625 136.01567078 C39.15779297 135.15520645 38.81167969 134.29474213 38.45507812 133.40820312 C37.89844482 132.05085808 37.89844482 132.05085808 37.33056641 130.66609192 C36.10738164 127.67924282 34.89464818 124.68826057 33.68164062 121.69726562 C32.82650811 119.60488745 31.9705406 117.51285035 31.11376953 115.42114258 C29.35747193 111.13202904 27.60440154 106.84161829 25.85351562 102.55029297 C22.50582082 94.35370694 19.11373896 86.17569871 15.71615601 77.99969482 C14.33656948 74.67922919 12.95909774 71.35788798 11.58158875 68.03656006 C10.54304622 65.53258709 9.50423417 63.02872612 8.46533203 60.52490234 C4.97967823 52.12419421 1.49432521 43.72336147 -1.99017334 35.32217407 C-3.10598274 32.63223697 -4.22217027 29.942457 -5.33837891 27.25268555 C-6.0179221 25.61442823 -6.69744779 23.97616365 -7.37695312 22.33789062 C-7.68445999 21.59716812 -7.99196686 20.85644562 -8.30879211 20.09327698 C-9.106019 18.17058798 -9.89985187 16.24649261 -10.69335938 14.32226562 C-11.086604 13.40799805 -11.47984863 12.49373047 -11.88500977 11.55175781 C-13.031363 8.39002488 -12.94453523 5.65034572 -12.69335938 2.32226562 C-9.30670722 -1.06438653 -4.57181389 0.01892366 0 0 Z " fill="#FFFFFF" transform="translate(1047.693359375,187.677734375)"/>
<path d="M0 0 C16.29462763 12.77674701 25.95907009 28.59788587 29.125 49.1875 C29.4456254 52.81776469 29.53901283 56.41937854 29.5625 60.0625 C29.59537109 60.98546875 29.62824219 61.9084375 29.66210938 62.859375 C29.66919922 63.74882812 29.67628906 64.63828125 29.68359375 65.5546875 C29.70377563 66.74747314 29.70377563 66.74747314 29.72436523 67.96435547 C28.78226023 71.45877835 27.20757799 72.31931755 24.125 74.1875 C20.63029637 74.76392894 17.17793981 74.69284836 13.64331055 74.64160156 C12.58919479 74.64218567 11.53507904 74.64276978 10.44902039 74.64337158 C6.96958328 74.64058793 3.49100595 74.60948129 0.01171875 74.578125 C-2.40251701 74.57066365 -4.81675883 74.56497022 -7.23100281 74.56097412 C-13.58184563 74.54570966 -19.93232191 74.50642019 -26.28302002 74.4621582 C-32.76480145 74.42122341 -39.24664216 74.40296689 -45.72851562 74.3828125 C-58.4441667 74.33992728 -71.15956384 74.27243569 -83.875 74.1875 C-83.27245241 75.9346612 -82.6614063 77.67889275 -82.046875 79.421875 C-81.7075293 80.39350586 -81.36818359 81.36513672 -81.01855469 82.36621094 C-76.71802845 92.97613433 -67.68270871 99.78673585 -57.48828125 104.2421875 C-46.12629962 108.35220178 -33.81916852 106.76747296 -22.875 102.1875 C-18.74914236 100.05323893 -14.84915128 97.67365883 -11.13671875 94.87890625 C-8.65514187 93.02573902 -7.23823965 92.18903266 -4.09765625 92.17578125 C0.43303515 93.59814376 2.47563248 96.21989855 5.4375 99.8125 C6.2428418 100.71935547 6.2428418 100.71935547 7.06445312 101.64453125 C10.47752403 105.68168196 12.06470195 108.71377698 12.125 114.1875 C10.49840914 116.4531087 9.31110053 117.54325345 7.125 119.1875 C6.35671875 119.80625 5.5884375 120.425 4.796875 121.0625 C-6.95946055 130.13756604 -20.92240644 136.2821136 -35.875 137.1875 C-37.16083984 137.26677734 -37.16083984 137.26677734 -38.47265625 137.34765625 C-59.62818686 138.00253809 -79.07491065 130.35869129 -95.140625 116.7890625 C-109.80472817 102.83721577 -118.61230858 83.97809755 -119.34594727 63.75146484 C-119.56979845 43.99612759 -113.30547847 24.98479707 -99.875 10.1875 C-99.27171875 9.50429687 -98.6684375 8.82109375 -98.046875 8.1171875 C-72.83910867 -18.83257894 -29.48559648 -20.51533051 0 0 Z M-78.05078125 33.48828125 C-80.67847899 37.17061587 -80.67847899 37.17061587 -83.875 46.1875 C-57.475 46.1875 -31.075 46.1875 -3.875 46.1875 C-5.6697971 37.2135145 -10.6869954 28.95013132 -18.1640625 23.52734375 C-20.68161704 21.94120645 -23.22060632 20.53098146 -25.875 19.1875 C-26.55046875 18.84460938 -27.2259375 18.50171875 -27.921875 18.1484375 C-47.25866427 10.12891637 -64.95912011 19.51835354 -78.05078125 33.48828125 Z " fill="#FFFFFF" transform="translate(1382.875,198.8125)"/>
<path d="M0 0 C14.83805149 13.97074042 23.88855631 31.89660029 25.015625 52.37890625 C25.2736549 73.68787542 18.81398952 92.71856587 4.08203125 108.37890625 C3.33308594 109.14074219 2.58414063 109.90257812 1.8125 110.6875 C1.19761719 111.31527344 0.58273437 111.94304687 -0.05078125 112.58984375 C-15.1759315 126.87290855 -35.43187171 132.2055328 -55.76953125 131.90234375 C-76.23109172 131.18944368 -95.29144448 121.49626853 -109.1875 106.6875 C-121.07189533 91.8753444 -127.81567354 75.47512618 -127.625 56.375 C-127.61597656 55.28268066 -127.60695313 54.19036133 -127.59765625 53.06494141 C-127.16122764 32.61038093 -118.70503123 14.9708775 -104.1875 0.6875 C-74.73087178 -25.85583532 -29.89592404 -25.83992215 0 0 Z M-83 25.375 C-91.56581664 35.99990718 -95.32156603 48.188456 -94.1875 61.6875 C-92.42844899 73.74499514 -87.07730106 84.25329354 -77.5703125 92.00390625 C-66.54733397 99.79227305 -55.46147193 101.92707408 -42.1875 99.6875 C-30.0771461 96.34850242 -21.29745963 89.31055688 -14.9375 78.578125 C-9.0465239 67.40259681 -7.67495809 54.83256018 -11.1875 42.6875 C-16.8587961 28.83759795 -23.81865874 20.35190507 -37.40625 13.58203125 C-53.39273845 7.22919162 -71.57104646 13.29152489 -83 25.375 Z " fill="#FFFFFF" transform="translate(997.1875,204.3125)"/>
<path d="M0 0 C0.90878906 0.5878125 1.81757812 1.175625 2.75390625 1.78125 C5 4 5 4 6.10546875 7.234375 C5.96323373 12.31269211 4.10441156 15.1218218 1.3125 19.25 C0.86455078 19.95640625 0.41660156 20.6628125 -0.04492188 21.390625 C-4.62003551 28.42311408 -4.62003551 28.42311408 -8 30 C-13.30108119 29.8793495 -17.49208601 27.44096807 -22.0625 25 C-30.10302239 20.72963899 -37.42087048 18.42301781 -46.55859375 20.61328125 C-53.97568918 23.1759611 -58.09465383 27.29057279 -62.16246033 33.8842926 C-66.11197489 42.12979572 -65.5544183 50.88305223 -65.51642036 59.81843376 C-65.50370972 62.82381345 -65.51515045 65.82828581 -65.53245544 68.83363342 C-65.55904454 74.1211186 -65.56475464 79.40837804 -65.56335449 84.69592285 C-65.56111732 93.18280746 -65.57515267 101.66941552 -65.61894035 110.15619087 C-65.62879318 113.11834898 -65.62005904 116.08007184 -65.61024475 119.04222107 C-65.61638546 120.84968352 -65.62329602 122.65714359 -65.63110352 124.46459961 C-65.62338425 125.28902054 -65.61566498 126.11344147 -65.60771179 126.96284485 C-65.65782672 132.56473727 -65.65782672 132.56473727 -67.3442831 134.71000004 C-69.89678893 136.69870501 -72.12280036 136.3889551 -75.3125 136.3984375 C-77.17261719 136.40423828 -77.17261719 136.40423828 -79.0703125 136.41015625 C-81.01550781 136.39275391 -81.01550781 136.39275391 -83 136.375 C-84.29679688 136.38660156 -85.59359375 136.39820313 -86.9296875 136.41015625 C-88.16976562 136.40628906 -89.40984375 136.40242187 -90.6875 136.3984375 C-91.82574219 136.39505371 -92.96398437 136.39166992 -94.13671875 136.38818359 C-97 136 -97 136 -98.65514565 134.82683563 C-100.52751088 132.28343491 -100.37745974 130.52576194 -100.38095093 127.38244629 C-100.3894104 126.21309036 -100.39786987 125.04373444 -100.40658569 123.83894348 C-100.400513 122.55468979 -100.39444031 121.2704361 -100.38818359 119.94726562 C-100.39224831 118.58224568 -100.39758963 117.21722903 -100.40411377 115.85221863 C-100.41780525 112.14355358 -100.4124813 108.43513853 -100.40297651 104.72646904 C-100.39538934 100.84811598 -100.4024229 96.96978455 -100.40713501 93.09143066 C-100.41259532 86.57800446 -100.40539376 80.06468025 -100.39111328 73.55126953 C-100.37478618 66.01730567 -100.3800745 58.48358536 -100.3965925 50.9496274 C-100.41019955 44.48500878 -100.41213087 38.02046355 -100.40427649 31.55583525 C-100.39959565 27.6930921 -100.39898632 23.83046348 -100.40888596 19.96772766 C-100.41754207 16.33645012 -100.41155891 12.70548705 -100.39420319 9.07424355 C-100.38833383 7.10318562 -100.39726546 5.13210115 -100.40658569 3.16105652 C-100.39812622 1.99170059 -100.38966675 0.82234467 -100.38095093 -0.38244629 C-100.37981985 -1.40081825 -100.37868877 -2.41919022 -100.37752342 -3.46842194 C-100 -6 -100 -6 -98.62645912 -7.82683563 C-96.31865796 -9.49145177 -94.60632335 -9.3881449 -91.78125 -9.3984375 C-90.76675781 -9.40230469 -89.75226562 -9.40617188 -88.70703125 -9.41015625 C-87.64871094 -9.39855469 -86.59039063 -9.38695312 -85.5 -9.375 C-84.44167969 -9.38660156 -83.38335938 -9.39820313 -82.29296875 -9.41015625 C-80.77123047 -9.40435547 -80.77123047 -9.40435547 -79.21875 -9.3984375 C-77.8255957 -9.39336182 -77.8255957 -9.39336182 -76.40429688 -9.38818359 C-73.56683008 -8.93006294 -72.71265755 -8.2639902 -71 -6 C-70.05078125 -3.51953125 -70.05078125 -3.51953125 -69.3125 -0.8125 C-69.06113281 0.08855469 -68.80976562 0.98960937 -68.55078125 1.91796875 C-68.36902344 2.60503906 -68.18726563 3.29210937 -68 4 C-67.52691406 3.48050781 -67.05382812 2.96101562 -66.56640625 2.42578125 C-61.82051733 -2.57914254 -57.22326528 -6.04454969 -51 -9 C-50.154375 -9.4125 -49.30875 -9.825 -48.4375 -10.25 C-31.42312463 -15.48519242 -13.93294057 -10.03699984 0 0 Z " fill="#FFFFFF" transform="translate(849,197)"/>
<path d="M0 0 C1.24072266 -0.01998047 2.48144531 -0.03996094 3.75976562 -0.06054688 C5.54737305 -0.05958008 5.54737305 -0.05958008 7.37109375 -0.05859375 C8.46220459 -0.06044678 9.55331543 -0.0622998 10.67749023 -0.06420898 C14.30776371 0.56710285 15.28816547 1.58092096 17.5625 4.4375 C18.06307125 7.07650852 18.06307125 7.07650852 18.06370544 10.13734436 C18.07353958 11.2996608 18.08337372 12.46197723 18.09350586 13.65951538 C18.07900391 15.5664769 18.07900391 15.5664769 18.06420898 17.51196289 C18.06799287 18.86727967 18.0734935 20.22259259 18.08058167 21.57789612 C18.09454345 25.25559381 18.08336244 28.93282407 18.06687045 32.61049581 C18.05302239 36.45814334 18.05947964 40.30576367 18.06300354 44.15342712 C18.06570554 50.61383603 18.05222994 57.07405913 18.02905273 63.53442383 C18.0024317 71.00650244 18.00069944 78.47827059 18.0124411 85.95038038 C18.02321428 93.13612919 18.01703619 100.32176555 18.00288582 107.50750542 C17.99712312 110.56687511 17.99721087 113.6261626 18.00195122 116.68553352 C18.00671814 120.28647461 17.99663167 123.88707502 17.97499657 127.48795128 C17.96676396 129.44228868 17.97328485 131.39667066 17.98019409 133.35101318 C17.97028946 134.5105098 17.96038483 135.67000641 17.95018005 136.86463928 C17.94775016 137.87433808 17.94532026 138.88403688 17.94281673 139.92433262 C17.5625 142.4375 17.5625 142.4375 16.21722507 144.26154232 C13.64119349 146.09224168 11.37021408 145.82666167 8.25 145.8359375 C6.38988281 145.84173828 6.38988281 145.84173828 4.4921875 145.84765625 C2.54699219 145.83025391 2.54699219 145.83025391 0.5625 145.8125 C-0.73429688 145.82410156 -2.03109375 145.83570313 -3.3671875 145.84765625 C-4.60726562 145.84378906 -5.84734375 145.83992187 -7.125 145.8359375 C-8.26324219 145.83255371 -9.40148437 145.82916992 -10.57421875 145.82568359 C-13.4375 145.4375 -13.4375 145.4375 -15.09264565 144.26433563 C-16.96501088 141.72093491 -16.81495974 139.96326194 -16.81845093 136.81994629 C-16.8269104 135.65059036 -16.83536987 134.48123444 -16.84408569 133.27644348 C-16.838013 131.99218979 -16.83194031 130.7079361 -16.82568359 129.38476562 C-16.82974831 128.01974568 -16.83508963 126.65472903 -16.84161377 125.28971863 C-16.85530525 121.58105358 -16.8499813 117.87263853 -16.84047651 114.16396904 C-16.83288934 110.28561598 -16.8399229 106.40728455 -16.84463501 102.52893066 C-16.85009532 96.01550446 -16.84289376 89.50218025 -16.82861328 82.98876953 C-16.81228618 75.45480567 -16.8175745 67.92108536 -16.8340925 60.3871274 C-16.84769955 53.92250878 -16.84963087 47.45796355 -16.84177649 40.99333525 C-16.83709565 37.1305921 -16.83648632 33.26796348 -16.84638596 29.40522766 C-16.85504207 25.77395012 -16.84905891 22.14298705 -16.83170319 18.51174355 C-16.82583383 16.54068562 -16.83476546 14.56960115 -16.84408569 12.59855652 C-16.83562622 11.42920059 -16.82716675 10.25984467 -16.81845093 9.05505371 C-16.81731985 8.03668175 -16.81618877 7.01830978 -16.81502342 5.96907806 C-16.4375 3.4375 -16.4375 3.4375 -15.08591652 1.61165619 C-11.09908899 -1.2281347 -4.69360606 -0.02673727 0 0 Z " fill="#FFFFFF" transform="translate(535.4375,187.5625)"/>
<path d="M0 0 C11.75012108 5.16175297 18.02261592 20.42483246 22.45703125 31.70703125 C24.4071285 37.62623102 25.48813157 42.77632244 25 49 C24.05898437 48.4946875 23.11796875 47.989375 22.1484375 47.46875 C20.89095981 46.81185867 19.63312831 46.15564433 18.375 45.5 C17.75753906 45.16613281 17.14007813 44.83226562 16.50390625 44.48828125 C12.48487206 42.41530572 9.51058755 41.61139553 5 42 C4.97051509 45.14581302 4.95304084 48.29158963 4.9375 51.4375 C4.92912109 52.31599609 4.92074219 53.19449219 4.91210938 54.09960938 C4.89100893 59.81783077 5.26719943 65.32800815 6 71 C2.44620236 69.33088372 0.24212521 67.46504031 -2.4375 64.5625 C-3.17871094 63.78003906 -3.91992188 62.99757812 -4.68359375 62.19140625 C-10.80733896 53.75447566 -12.85307035 46.02801807 -12.625 35.6875 C-12.61098145 34.5931665 -12.59696289 33.49883301 -12.58251953 32.37133789 C-12.21057771 19.89093177 -9.04910472 9.04910472 0 0 Z " fill="#F5502C" transform="translate(207,43)"/>
<path d="M0 0 C1.78277344 -0.0299707 1.78277344 -0.0299707 3.6015625 -0.06054688 C4.74367188 -0.05990234 5.88578125 -0.05925781 7.0625 -0.05859375 C8.10535156 -0.06044678 9.14820313 -0.0622998 10.22265625 -0.06420898 C13.75606664 0.57407849 14.91613717 1.53790649 17 4.4375 C17.51757812 7.03125 17.51757812 7.03125 17.53125 9.9375 C17.53898438 11.5153125 17.53898438 11.5153125 17.546875 13.125 C17.53140625 14.218125 17.5159375 15.31125 17.5 16.4375 C17.51546875 17.530625 17.5309375 18.62375 17.546875 19.75 C17.54171875 20.801875 17.5365625 21.85375 17.53125 22.9375 C17.52673828 23.8965625 17.52222656 24.855625 17.51757812 25.84375 C16.83581583 29.26027952 15.82010112 30.41595463 13 32.4375 C10.11499023 32.93920898 10.11499023 32.93920898 6.80859375 32.93359375 C5.61685547 32.93423828 4.42511719 32.93488281 3.19726562 32.93554688 C1.33618164 32.90557617 1.33618164 32.90557617 -0.5625 32.875 C-2.42938477 32.88563477 -2.42938477 32.88563477 -4.33398438 32.89648438 C-13.36883575 32.83289311 -13.36883575 32.83289311 -15.8515625 31.27758789 C-18.47708188 27.07084053 -17.46580564 21.23401938 -17.4375 16.4375 C-17.4674707 14.63539063 -17.4674707 14.63539063 -17.49804688 12.796875 C-17.49740234 11.64703125 -17.49675781 10.4971875 -17.49609375 9.3125 C-17.49794678 8.25804687 -17.4997998 7.20359375 -17.50170898 6.1171875 C-17 3.4375 -17 3.4375 -15.34008789 1.59741211 C-10.60061627 -0.7518033 -5.18240461 -0.03091456 0 0 Z " fill="#FFFFFF" transform="translate(536,136.5625)"/>
<path d="M0 0 C1.74700195 -0.00386719 1.74700195 -0.00386719 3.52929688 -0.0078125 C4.74294922 -0.00007812 5.95660156 0.00765625 7.20703125 0.015625 C8.40134766 0.00789062 9.59566406 0.00015625 10.82617188 -0.0078125 C21.73512328 0.0162028 29.86086208 0.6680539 38.01953125 8.265625 C55.01953125 25.34606664 55.01953125 25.34606664 55.01953125 33.265625 C54.46265625 33.07226562 53.90578125 32.87890625 53.33203125 32.6796875 C44.94983927 29.81954767 36.96841233 28.02494076 28.16796875 27.0234375 C21.69671977 25.46584159 18.27827346 21.57240438 14.26953125 16.515625 C7.77950631 8.82811318 -0.75389568 5.71670844 -9.98046875 2.265625 C-6.5826017 0.2108872 -3.93883213 0.00843885 0 0 Z " fill="#EA4D32" transform="translate(265.98046875,136.734375)"/>
<path d="M0 0 C9.73350388 4.26238405 16.46564032 16.72292714 20.1875 26.1875 C20.48527344 26.99703125 20.78304688 27.8065625 21.08984375 28.640625 C22.00167542 31.00434315 23.07527868 33.1944781 24.25 35.4375 C26 39 26 39 26 42 C22.03309312 41.33402293 19.09763423 39.37746017 15.6875 37.3125 C9.32001981 33.53908365 2.80295085 30.73163012 -4.11328125 28.12890625 C-7 27 -7 27 -8 26 C-8.6169297 16.24479904 -4.33659208 8.39011679 0 0 Z " fill="#FBF9F9" transform="translate(263,44)"/>
<path d="M0 0 C2 1 2 1 2.68603516 2.68310547 C7.62527845 20.57236478 8.52941957 34.74563333 0.61328125 52.02734375 C-0.79982493 54.4780183 -2.30948378 56.73262517 -4 59 C-4.58523438 59.79148437 -5.17046875 60.58296875 -5.7734375 61.3984375 C-7.78158979 63.99674067 -9.86687143 66.50331213 -12 69 C-12.81339844 69.96035156 -13.62679687 70.92070312 -14.46484375 71.91015625 C-24.73208185 83.73454738 -36.94062928 93.06960398 -51 100 C-51.66 100 -52.32 100 -53 100 C-53 99.34 -53 98.68 -53 98 C-53.66 97.67 -54.32 97.34 -55 97 C-53.39125 96.505 -53.39125 96.505 -51.75 96 C-31.30166892 88.21528448 -11.45820319 67.49962534 -1.65234375 48.37109375 C-0.62497062 45.9374304 0.22597482 43.52535488 1 41 C1.29648437 40.04351562 1.59296875 39.08703125 1.8984375 38.1015625 C5.69133568 24.56543964 3.28507103 13.33093558 0 0 Z " fill="#8A8684" transform="translate(277,327)"/>
<path d="M0 0 C-2.51019918 3.19479896 -4.97002619 4.49901436 -8.6875 5.875 C-24.14755011 11.73211149 -34.9974244 24.60333116 -41.8671875 39.34375 C-42.42792969 40.65859375 -42.42792969 40.65859375 -43 42 C-43.39445313 42.9178125 -43.78890625 43.835625 -44.1953125 44.78125 C-49.2967084 58.62279972 -47.95897184 74.75994801 -45 89 C-50.24879485 83.75120515 -50.39408485 76.7227072 -50.46826172 69.71142578 C-50.45811035 68.58978027 -50.44795898 67.46813477 -50.4375 66.3125 C-50.42992676 65.15218262 -50.42235352 63.99186523 -50.41455078 62.79638672 C-50.25440801 54.48415876 -49.49597202 47.62361499 -46 40 C-45.36384766 38.49179688 -45.36384766 38.49179688 -44.71484375 36.953125 C-41.23913074 29.32398335 -36.56063531 23.22675308 -31 17 C-30.443125 16.30261719 -29.88625 15.60523438 -29.3125 14.88671875 C-24.8075499 9.68308426 -19.24221113 6.65246325 -13.25 3.4375 C-12.40904785 2.9830249 -11.5680957 2.5285498 -10.70166016 2.06030273 C-9.89776855 1.64723877 -9.09387695 1.2341748 -8.265625 0.80859375 C-7.54149414 0.43532959 -6.81736328 0.06206543 -6.07128906 -0.32250977 C-3.63395982 -1.11972672 -2.38462849 -0.84335241 0 0 Z " fill="#8A8382" transform="translate(199,142)"/>
<path d="M0 0 C0.66 0.33 1.32 0.66 2 1 C-0.7392764 3.79145309 -3.5213745 6.50067885 -6.41796875 9.12890625 C-24.93216841 25.92950816 -42.63622161 47.99843767 -45 74 C-45.66 74 -46.32 74 -47 74 C-47 73.34 -47 72.68 -47 72 C-47.66 71.67 -48.32 71.34 -49 71 C-48.34 71 -47.68 71 -47 71 C-47 69.72125 -47 68.4425 -47 67.125 C-45.11600626 48.39120305 -31.2967661 29.43602532 -19 16 C-18.3090625 15.23816406 -17.618125 14.47632813 -16.90625 13.69140625 C-11.83521121 8.36058064 -6.03890549 4.17394938 0 0 Z " fill="#898382" transform="translate(115,186)"/>
<path d="M0 0 C1.19399414 -0.02416992 1.19399414 -0.02416992 2.41210938 -0.04882812 C10.92083897 -0.05565148 18.4510163 2.4717024 26.453125 5.13671875 C36.82320642 8.55927681 46.4604499 10.96339769 57.4375 10.9375 C58.37368164 10.93580811 59.30986328 10.93411621 60.27441406 10.93237305 C68.04730327 10.69924272 74.56850027 9.25576267 80.25 3.5625 C82.17578125 1.640625 82.17578125 1.640625 83.9375 0.3125 C84.9275 0.6425 85.9175 0.9725 86.9375 1.3125 C82.51105778 7.26053174 77.34984235 11.74715546 69.9375 13.3125 C54.05826908 14.8684583 40.50230735 12.45797109 25.57592773 7.21533203 C17.60071431 4.48632868 10.44764045 2.84361377 2 3.0625 C1.17693359 3.06765625 0.35386719 3.0728125 -0.49414062 3.078125 C-4.19975267 3.1262108 -7.47774947 3.30854854 -11.0625 4.3125 C-11.3925 6.6225 -11.7225 8.9325 -12.0625 11.3125 C-12.7225 10.6525 -13.3825 9.9925 -14.0625 9.3125 C-13.9375 5.8125 -13.9375 5.8125 -13.0625 2.3125 C-8.9643886 -0.42756496 -4.75424372 -0.01861489 0 0 Z " fill="#918886" transform="translate(285.0625,248.6875)"/>
<path d="M0 0 C1.2684375 0.495 1.2684375 0.495 2.5625 1 C6.21091164 2.3898711 9.87528786 3.71663299 13.5625 5 C14.59761719 5.37640625 15.63273437 5.7528125 16.69921875 6.140625 C28.44554713 10.01513982 41.97793393 11.81042984 53.4375 6.25 C57.08832374 4.14252741 60.31218987 1.67946713 63.5625 -1 C63.5625 3 63.5625 3 62.19921875 4.5625 C54.6056632 10.162557 46.19132018 14.13698246 36.5625 13 C35.74007812 12.9175 34.91765625 12.835 34.0703125 12.75 C20.87995237 10.9961571 7.89549736 6.13370896 -4.41601562 1.20849609 C-14.54312335 -2.84178872 -26.69284577 -6.58155141 -37.4375 -3 C-38.0975 -3.66 -38.7575 -4.32 -39.4375 -5 C-28.18258524 -11.45350617 -11.17413396 -4.25681294 0 0 Z " fill="#938784" transform="translate(331.4375,229)"/>
<path d="M0 0 C8.34379985 9.92171042 8.00228149 24.76381344 7 37 C5.42522278 49.19046294 -0.42792837 61.21885346 -9 70 C-9.6953125 68.28515625 -9.6953125 68.28515625 -10 66 C-8.7421875 63.80859375 -8.7421875 63.80859375 -6.875 61.4375 C1.49327527 50.10685528 3.1878899 40.03844311 3.25 26.25 C3.2809375 24.55617188 3.2809375 24.55617188 3.3125 22.828125 C3.3420629 16.44253912 2.80019754 11.04582765 0.64746094 5.01464844 C0 3 0 3 0 0 Z " fill="#9E8580" transform="translate(212,334)"/>
<path d="M0 0 C4.70982307 4.70982307 5.18414848 14.05291312 5.5 20.5 C4.90623801 39.1787626 -2.12774926 58.29279246 -15 72 C-15.99 72.495 -15.99 72.495 -17 73 C-16.48022166 68.30437532 -14.30288051 65.10605013 -11.6875 61.3125 C-7.98981354 55.71457333 -4.98522125 50.45196906 -3 44 C-2.78859375 43.31776367 -2.5771875 42.63552734 -2.359375 41.93261719 C2.0813015 27.30922276 3.04953624 15.11154118 0 0 Z " fill="#8A8280" transform="translate(313,305)"/>
<path d="M0 0 C-3.02397022 3.48476568 -5.30420009 4.6441919 -9.75 5.75 C-23.83826213 9.85383528 -34.98170855 17.02222744 -46.35546875 26.14453125 C-49.11554179 28.35443779 -51.89813585 30.2834344 -55 32 C-55 28 -55 28 -53.47802734 26.38769531 C-52.7711377 25.87303711 -52.06424805 25.35837891 -51.3359375 24.828125 C-50.5507373 24.24998047 -49.76553711 23.67183594 -48.95654297 23.07617188 C-48.10463379 22.47353516 -47.25272461 21.87089844 -46.375 21.25 C-45.50633301 20.62673828 -44.63766602 20.00347656 -43.74267578 19.36132812 C-14.7906285 -1.15326538 -14.7906285 -1.15326538 0 0 Z " fill="#8B817E" transform="translate(133,127)"/>
<path d="M0 0 C-2.45694409 3.68541614 -4.35390132 4.22468049 -8.375 6 C-24.48984142 13.61227662 -33.59680732 27.21736946 -41 43 C-41.66 42.01 -42.32 41.02 -43 40 C-38.46790923 30.04668894 -34.00623829 21.66114182 -26 14 C-25.31421875 13.29488281 -24.6284375 12.58976563 -23.921875 11.86328125 C-19.57889187 7.64093654 -14.98594959 4.67132956 -9.625 1.9375 C-9.01760986 1.62594971 -8.41021973 1.31439941 -7.78442383 0.9934082 C-3.3828869 -1.12762897 -3.3828869 -1.12762897 0 0 Z " fill="#8B8280" transform="translate(212,177)"/>
<path d="M0 0 C0.99 0.33 1.98 0.66 3 1 C2.62488281 1.52207031 2.24976563 2.04414062 1.86328125 2.58203125 C-4.39024269 11.5763944 -9.1480628 20.42618486 -9.09765625 31.515625 C-9.09443359 32.76601562 -9.09121094 34.01640625 -9.08789062 35.3046875 C-9.07951172 36.60664062 -9.07113281 37.90859375 -9.0625 39.25 C-9.05798828 40.56742188 -9.05347656 41.88484375 -9.04882812 43.2421875 C-9.03704316 46.49483741 -9.02059011 49.74739584 -9 53 C-13.9463389 48.0536611 -12.36396307 39.28468326 -12.38720703 32.76196289 C-12.22492177 20.05539179 -9.23249433 9.23249433 0 0 Z " fill="#8B8280" transform="translate(207,43)"/>
<path d="M0 0 C2.13586678 3.20380017 2.23132175 4.01939967 2.125 7.6875 C2.10695312 8.49574219 2.08890625 9.30398437 2.0703125 10.13671875 C2.03550781 11.05904297 2.03550781 11.05904297 2 12 C1.67 12 1.34 12 1 12 C0.67 10.35 0.34 8.7 0 7 C-0.48108275 8.41601714 -0.95978141 9.83284437 -1.4375 11.25 C-1.70433594 12.03890625 -1.97117188 12.8278125 -2.24609375 13.640625 C-5.51995771 23.88629252 -3.93898763 33.59609327 -1.55859375 43.84765625 C-1 47 -1 47 -2 50 C-7.46179476 39.32467388 -9.12904007 24.46372087 -6.20703125 12.84765625 C-4.586764 8.22275548 -2.58937917 4.16229718 0 0 Z " fill="#90827F" transform="translate(227,222)"/>
<path d="M0 0 C0.84949219 0.33128906 1.69898438 0.66257813 2.57421875 1.00390625 C9.82306227 3.7520372 17.06054321 6.08552101 24.57421875 8.00390625 C24.57421875 8.33390625 24.57421875 8.66390625 24.57421875 9.00390625 C17.66818962 9.63172708 11.99692365 7.37061727 5.57421875 5.00390625 C4.45080078 4.59398437 4.45080078 4.59398437 3.3046875 4.17578125 C0.76669382 3.23467117 -1.76026709 2.27321389 -4.26953125 1.2578125 C-14.46763115 -2.77545242 -26.60775927 -6.60210108 -37.42578125 -2.99609375 C-38.08578125 -3.65609375 -38.74578125 -4.31609375 -39.42578125 -4.99609375 C-28.17515062 -11.44714342 -11.17010104 -4.25766183 0 0 Z " fill="#A18B87" transform="translate(331.42578125,228.99609375)"/>
<path d="M0 0 C0.33 0 0.66 0 1 0 C0.55490348 3.70913763 0.09952329 7.39982136 -0.51171875 11.0859375 C-2.64370487 24.30122734 -2.79006557 36.84683375 0 50 C-6.70308114 41.84611499 -5.49133694 30.01344692 -5 20 C-3.12738854 3.12738854 -3.12738854 3.12738854 0 0 Z " fill="#948F8E" transform="translate(126,254)"/>
<path d="M0 0 C2 2 2 2 2.3515625 4.62890625 C1.89922503 8.96632 0.37686573 12.10690287 -1.625 15.9375 C-2.16543945 16.99710937 -2.16543945 16.99710937 -2.71679688 18.078125 C-5.28583027 22.97974977 -8.06797994 27.06797994 -12 31 C-12.6953125 29.28515625 -12.6953125 29.28515625 -13 27 C-11.7421875 24.80859375 -11.7421875 24.80859375 -9.875 22.4375 C-4.96233514 15.78575177 -0.68148067 8.40492821 0 0 Z " fill="#8B8381" transform="translate(215,373)"/>
<path d="M0 0 C1.74700195 -0.00386719 1.74700195 -0.00386719 3.52929688 -0.0078125 C4.74294922 -0.00007812 5.95660156 0.00765625 7.20703125 0.015625 C8.40134766 0.00789062 9.59566406 0.00015625 10.82617188 -0.0078125 C17.51907207 0.00692146 23.58934622 0.3372485 30.01953125 2.265625 C30.51453125 3.255625 30.51453125 3.255625 31.01953125 4.265625 C30.44992676 4.19996338 29.88032227 4.13430176 29.29345703 4.06665039 C22.16677726 3.29441613 15.05635629 2.95711996 7.89453125 2.703125 C6.74726563 2.65994141 5.6 2.61675781 4.41796875 2.57226562 C1.61857982 2.46728854 -1.1808809 2.36513035 -3.98046875 2.265625 C-4.31046875 2.925625 -4.64046875 3.585625 -4.98046875 4.265625 C-7.45546875 3.275625 -7.45546875 3.275625 -9.98046875 2.265625 C-6.5826017 0.2108872 -3.93883213 0.00843885 0 0 Z " fill="#999493" transform="translate(265.98046875,136.734375)"/>
<path d="M0 0 C-3.0723701 3.55358469 -5.55847299 4.77411659 -10.0625 6 C-16.15633603 7.73715688 -22.07208924 9.76663883 -28 12 C-28.66 11.34 -29.32 10.68 -30 10 C-6.30813953 -0.61046512 -6.30813953 -0.61046512 0 0 Z " fill="#8D8785" transform="translate(133,127)"/>
<path d="M0 0 C0.33 0.66 0.66 1.32 1 2 C0.67 2.99 0.34 3.98 0 5 C-0.23156541 8.28706131 -0.18979675 11.58059789 -0.1875 14.875 C-0.18814453 15.81432373 -0.18878906 16.75364746 -0.18945312 17.72143555 C-0.13459381 24.98593145 0.5192971 31.87411731 2 39 C-3.40181736 33.59818264 -3.38560764 26.39800701 -3.41015625 19.20117188 C-3.39855469 18.04166016 -3.38695312 16.88214844 -3.375 15.6875 C-3.38660156 14.50865234 -3.39820313 13.32980469 -3.41015625 12.11523438 C-3.40628906 10.98794922 -3.40242187 9.86066406 -3.3984375 8.69921875 C-3.39505371 7.67658936 -3.39166992 6.65395996 -3.38818359 5.6003418 C-2.95089739 2.67107428 -2.30183179 1.78485302 0 0 Z " fill="#998F8D" transform="translate(152,192)"/>
<path d="M0 0 C1.32547852 0.02030273 1.32547852 0.02030273 2.67773438 0.04101562 C4.84792023 0.07620783 7.01779033 0.13001015 9.1875 0.1875 C9.5175 0.8475 9.8475 1.5075 10.1875 2.1875 C8.93453125 2.23648438 7.6815625 2.28546875 6.390625 2.3359375 C4.73956179 2.41098583 3.08852119 2.48653277 1.4375 2.5625 C0.2 2.60890625 0.2 2.60890625 -1.0625 2.65625 C-1.86171875 2.69492188 -2.6609375 2.73359375 -3.484375 2.7734375 C-4.58410645 2.82056885 -4.58410645 2.82056885 -5.70605469 2.86865234 C-8.23187384 3.14025842 -8.23187384 3.14025842 -11.8125 5.1875 C-11.4825 8.1575 -11.1525 11.1275 -10.8125 14.1875 C-13.96208831 10.76403445 -14.37429109 7.74487263 -14.8125 3.1875 C-10.08463037 -0.54193753 -5.7302468 -0.16665147 0 0 Z " fill="#887D7B" transform="translate(396.8125,203.8125)"/>
<path d="M0 0 C0.66 0.33 1.32 0.66 2 1 C-7.00499168 10.27787022 -7.00499168 10.27787022 -12.5 13.4375 C-16.19379795 15.74612372 -19.01100402 18.85595524 -22 22 C-22 19 -22 19 -19.98046875 16.58203125 C-13.69496718 10.34927515 -7.35917489 4.96779891 0 0 Z " fill="#8D8A89" transform="translate(115,186)"/>
<path d="M0 0 C4.91502166 4.91502166 5.20110401 14.58337835 5.3125 21.25 C5.18261138 26.39085493 4.32310268 31.03836494 3 36 C2.34 36 1.68 36 1 36 C1.0721875 35.35675781 1.144375 34.71351563 1.21875 34.05078125 C2.41493483 22.40459282 2.32103961 11.50158023 0 0 Z " fill="#8F7A75" transform="translate(313,305)"/>
<path d="M0 0 C2 1 2 1 2.68603516 2.68310547 C3.34705431 5.07722585 4.00239208 7.47053132 4.625 9.875 C4.96156616 11.16869507 4.96156616 11.16869507 5.30493164 12.48852539 C7.19053509 20.10167612 9.0584479 27.84474446 5 35 C4.67 34.67 4.34 34.34 4 34 C4.03352321 31.68689847 4.10339267 29.37431497 4.1875 27.0625 C4.38609594 17.67668327 2.34310087 9.03767479 0 0 Z " fill="#927873" transform="translate(277,327)"/>
<path d="M0 0 C0.66 0.66 1.32 1.32 2 2 C-4.5472973 1.10135135 -4.5472973 1.10135135 -7.35546875 0.47265625 C-10.32436497 -0.05797365 -13.11024651 -0.13255577 -16.125 -0.125 C-17.15882813 -0.12757813 -18.19265625 -0.13015625 -19.2578125 -0.1328125 C-22.09234305 -0.11919881 -22.09234305 -0.11919881 -25 1 C-25.66 0.34 -26.32 -0.32 -27 -1 C-18.99840961 -5.6490722 -8.24851644 -2.88631875 0 0 Z " fill="#938C8B" transform="translate(319,225)"/>
<path d="M0 0 C0 4.29411467 -2.11472068 5.83308055 -4.91015625 8.92578125 C-8.00704334 11.99951404 -11.40752269 14.53658698 -15 17 C-13.67879172 14.06769807 -12.25361803 12.01335101 -9.9609375 9.765625 C-9.38085938 9.19199219 -8.80078125 8.61835938 -8.203125 8.02734375 C-7.59984375 7.44082031 -6.9965625 6.85429687 -6.375 6.25 C-5.76398438 5.64800781 -5.15296875 5.04601562 -4.5234375 4.42578125 C-3.02011376 2.94594695 -1.51065144 1.47235324 0 0 Z " fill="#897A77" transform="translate(263,395)"/>
<path d="M0 0 C2.13586678 3.20380017 2.23132175 4.01939967 2.125 7.6875 C2.10695312 8.49574219 2.08890625 9.30398437 2.0703125 10.13671875 C2.03550781 11.05904297 2.03550781 11.05904297 2 12 C1.67 12 1.34 12 1 12 C0.67 10.35 0.34 8.7 0 7 C-1.32 8.32 -2.64 9.64 -4 11 C-4.33 10.34 -4.66 9.68 -5 9 C-4.00390625 6.8359375 -4.00390625 6.8359375 -2.5625 4.375 C-2.08941406 3.55773437 -1.61632812 2.74046875 -1.12890625 1.8984375 C-0.75636719 1.27195313 -0.38382813 0.64546875 0 0 Z " fill="#A78D88" transform="translate(227,222)"/>
<path d="M0 0 C0.66 0.33 1.32 0.66 2 1 C0.68 4.63 -0.64 8.26 -2 12 C-2.66 12 -3.32 12 -4 12 C-4.33 12.66 -4.66 13.32 -5 14 C-4.09068323 5.05838509 -4.09068323 5.05838509 -2 1 C-1.34 0.67 -0.68 0.34 0 0 Z " fill="#8F8A89" transform="translate(200,56)"/>
<path d="M0 0 C0.99 0.33 1.98 0.66 3 1 C2.34 1 1.68 1 1 1 C1 1.66 1 2.32 1 3 C0.01 3.66 -0.98 4.32 -2 5 C-1.67 7.97 -1.34 10.94 -1 14 C-4.14958831 10.57653445 -4.56179109 7.55737263 -5 3 C-2.6875 1.4375 -2.6875 1.4375 0 0 Z " fill="#958F8E" transform="translate(387,204)"/>
<path d="M0 0 C-3.222107 3.8665284 -6.14922412 4.88059018 -11 6 C-10.875 4.1875 -10.875 4.1875 -10 2 C-6.45371784 -0.28538184 -4.05371308 -1.71503246 0 0 Z " fill="#9B8E8B" transform="translate(199,142)"/>
<path d="M0 0 C0.66 0.66 1.32 1.32 2 2 C1.67889311 5.53217579 1.12183498 8.63449506 0 12 C-0.99 12.33 -1.98 12.66 -3 13 C-2.68817931 11.58318366 -2.37551263 10.16655349 -2.0625 8.75 C-1.88847656 7.96109375 -1.71445312 7.1721875 -1.53515625 6.359375 C-1.052444 4.23121297 -0.53836822 2.11467158 0 0 Z " fill="#908E8D" transform="translate(313,339)"/>
<path d="M0 0 C0.33 0 0.66 0 1 0 C0.48041715 4.37934119 -0.05675742 8.68803391 -1 13 C-1.66 13 -2.32 13 -3 13 C-2.88557539 11.39504433 -2.75805306 9.79101881 -2.625 8.1875 C-2.55539063 7.29417969 -2.48578125 6.40085937 -2.4140625 5.48046875 C-2 3 -2 3 0 0 Z " fill="#888685" transform="translate(126,254)"/>
<path d="M0 0 C0.99 0.33 1.98 0.66 3 1 C-2.14285714 7.57142857 -2.14285714 7.57142857 -6 9 C-4.68775452 5.06326356 -3.08089673 2.77280706 0 0 Z " fill="#887F7D" transform="translate(369,249)"/>
<path d="M0 0 C1.37432457 3.81756824 0.67975039 7.07255329 0 11 C-0.66 11 -1.32 11 -2 11 C-2 10.34 -2 9.68 -2 9 C-2.66 8.67 -3.32 8.34 -4 8 C-3.34 8 -2.68 8 -2 8 C-2.04125 7.05125 -2.0825 6.1025 -2.125 5.125 C-2 2 -2 2 0 0 Z " fill="#96807B" transform="translate(70,249)"/>
<path d="M0 0 C-2.52788007 2.79872437 -4.20411134 4.45773019 -8 5 C-8 4.34 -8 3.68 -8 3 C-8.66 2.67 -9.32 2.34 -10 2 C-8.71211992 1.46987262 -7.41953322 0.9511671 -6.125 0.4375 C-5.40570313 0.14746094 -4.68640625 -0.14257812 -3.9453125 -0.44140625 C-2 -1 -2 -1 0 0 Z " fill="#95817D" transform="translate(232,422)"/>
<path d="M0 0 C0.66 0.33 1.32 0.66 2 1 C0.49776416 5.20626034 -2.28550034 6.73900021 -6 9 C-4.47291037 5.56404834 -2.40072955 2.88087546 0 0 Z " fill="#8A7A77" transform="translate(394,228)"/>
<path d="M0 0 C0.66 0.33 1.32 0.66 2 1 C1.01 3.97 0.02 6.94 -1 10 C-1.66 9.34 -2.32 8.68 -3 8 C-2.75 4.4375 -2.75 4.4375 -2 1 C-1.34 0.67 -0.68 0.34 0 0 Z " fill="#8B817F" transform="translate(274,250)"/>
<path d="M0 0 C0.66 0.33 1.32 0.66 2 1 C0.02 3.31 -1.96 5.62 -4 8 C-4.33 6.68 -4.66 5.36 -5 4 C-3.35 2.68 -1.7 1.36 0 0 Z " fill="#8F7B76" transform="translate(301,370)"/>
<path d="M0 0 C1.958964 0.30852185 3.91715713 0.6219418 5.875 0.9375 C6.96554688 1.11152344 8.05609375 1.28554688 9.1796875 1.46484375 C12 2 12 2 14 3 C14 3.66 14 4.32 14 5 C9.16371695 4.00956295 4.52381127 3.04301154 0 1 C0 0.67 0 0.34 0 0 Z " fill="#997771" transform="translate(145,349)"/>
<path d="M0 0 C0.66 0.33 1.32 0.66 2 1 C1.67 2.98 1.34 4.96 1 7 C0.01 7.33 -0.98 7.66 -2 8 C-1.125 2.25 -1.125 2.25 0 0 Z " fill="#919090" transform="translate(71,242)"/>
<path d="M0 0 C1.09570312 0.00902344 2.19140625 0.01804688 3.3203125 0.02734375 C4.16335938 0.03894531 5.00640625 0.05054688 5.875 0.0625 C5.875 0.3925 5.875 0.7225 5.875 1.0625 C2.575 1.0625 -0.725 1.0625 -4.125 1.0625 C-4.125 1.7225 -4.125 2.3825 -4.125 3.0625 C-5.445 2.4025 -6.765 1.7425 -8.125 1.0625 C-5.36047967 -0.31976016 -3.0788637 -0.03275387 0 0 Z " fill="#CE5D4A" transform="translate(303.125,223.9375)"/>
<path d="M0 0 C0.66 0.33 1.32 0.66 2 1 C1.01 2.98 0.02 4.96 -1 7 C-1.66 5.68 -2.32 4.36 -3 3 C-2.01 2.01 -1.02 1.02 0 0 Z " fill="#8C7D7A" transform="translate(277,375)"/>
<path d="M0 0 C1.65 0 3.3 0 5 0 C3.1875 2 3.1875 2 1 4 C0.01 4 -0.98 4 -2 4 C-1.34 2.68 -0.68 1.36 0 0 Z " fill="#9C8D8A" transform="translate(128,127)"/>
</svg>
