<?xml version="1.0" encoding="UTF-8"?>
<!DOCTYPE svg PUBLIC "-//W3C//DTD SVG 1.1//EN" "http://www.w3.org/Graphics/SVG/1.1/DTD/svg11.dtd">
<svg xmlns="http://www.w3.org/2000/svg" version="1.1" width="256px" height="256px" style="shape-rendering:geometricPrecision; text-rendering:geometricPrecision; image-rendering:optimizeQuality; fill-rule:evenodd; clip-rule:evenodd" xmlns:xlink="http://www.w3.org/1999/xlink">
<g><path style="opacity:1" fill="#fd5024" d="M 71.5,53.5 C 58.9227,62.4061 49.256,73.7394 42.5,87.5C 42.5,87.8333 42.5,88.1667 42.5,88.5C 43.3567,89.8018 43.8567,91.1351 44,92.5C 30.9812,112.551 17.4812,132.218 3.5,151.5C -4.94843,95.9854 13.7182,52.1521 59.5,20C 73.8008,11.3464 89.1342,5.67972 105.5,3C 104.069,3.46524 102.903,4.29857 102,5.5C 92.3923,20.772 82.3923,35.772 72,50.5C 71.5172,51.448 71.3505,52.448 71.5,53.5 Z"/></g>
<g><path style="opacity:1" fill="#fdfbfa" d="M 144.5,44.5 C 157.597,50.5552 169.597,58.3885 180.5,68C 183.094,70.0865 185.094,72.5865 186.5,75.5C 186.69,78.855 187.69,81.855 189.5,84.5C 189.628,86.0898 190.295,87.4231 191.5,88.5C 198.869,93.5511 206.202,98.5511 213.5,103.5C 217.614,107.064 221.948,110.397 226.5,113.5C 223.359,114.321 220.025,114.821 216.5,115C 215.193,116.943 215.193,118.777 216.5,120.5C 217.833,122.833 219.167,125.167 220.5,127.5C 219.213,130.453 217.213,132.786 214.5,134.5C 208.013,134.848 201.68,134.182 195.5,132.5C 188.703,130.803 182.037,128.803 175.5,126.5C 172.696,125.362 169.696,125.195 166.5,126C 165.288,127.107 165.621,127.607 167.5,127.5C 177.971,131.399 188.638,134.732 199.5,137.5C 202.28,138.078 204.947,138.745 207.5,139.5C 205.557,142.471 202.891,144.471 199.5,145.5C 192.798,145.664 186.131,145.331 179.5,144.5C 175.593,144.274 171.926,143.274 168.5,141.5C 163.684,140.35 158.684,140.184 153.5,141C 152.199,142.616 152.199,144.116 153.5,145.5C 157.325,150.485 161.992,154.652 167.5,158C 171.288,162.406 174.455,167.239 177,172.5C 177.495,174.473 177.662,176.473 177.5,178.5C 177.223,190.664 173.556,201.664 166.5,211.5C 165.742,209.019 165.742,206.352 166.5,203.5C 169.345,190.581 166.512,178.914 158,168.5C 149.946,160.446 141.946,152.446 134,144.5C 130.474,139.402 128.641,133.735 128.5,127.5C 128.361,125.663 127.694,125.33 126.5,126.5C 123.583,131.704 122.916,137.038 124.5,142.5C 125.556,147.669 127.223,152.669 129.5,157.5C 129.167,157.833 128.833,158.167 128.5,158.5C 123.159,154.823 118.492,150.49 114.5,145.5C 105.519,129.604 106.853,114.604 118.5,100.5C 118.265,99.9033 117.765,99.5699 117,99.5C 106.659,104.008 99.1594,111.341 94.5,121.5C 92.9343,114.492 93.4343,107.492 96,100.5C 98.8807,94.1318 102.714,88.4651 107.5,83.5C 109.757,82.4382 110.923,80.7715 111,78.5C 102.519,81.9051 95.5195,87.2384 90,94.5C 88.5886,96.6504 87.7553,98.9837 87.5,101.5C 84.1252,106.022 82.7918,111.189 83.5,117C 83.5191,120.252 84.1858,123.085 85.5,125.5C 89.8984,138.565 98.2318,148.231 110.5,154.5C 118.26,160.224 126.26,165.724 134.5,171C 140.692,176.341 145.025,182.841 147.5,190.5C 147.215,192.288 147.548,193.955 148.5,195.5C 149.522,195.145 150.189,194.478 150.5,193.5C 152.589,177.861 155.255,177.861 158.5,193.5C 158.718,202.345 156.218,210.345 151,217.5C 144.402,226.942 135.902,233.942 125.5,238.5C 124.833,238.5 124.5,238.167 124.5,237.5C 135.493,222.1 136.326,206.1 127,189.5C 124.143,185.414 120.643,182.081 116.5,179.5C 115.746,177.554 114.412,176.721 112.5,177C 113.163,178.518 114.163,179.685 115.5,180.5C 116.529,182.517 117.529,184.517 118.5,186.5C 123.839,200.498 122.172,213.498 113.5,225.5C 112.107,216.323 109.273,207.323 105,198.5C 97.4767,186.638 88.81,175.638 79,165.5C 75.2156,159.642 72.7156,153.309 71.5,146.5C 71.719,145.325 71.3857,144.325 70.5,143.5C 69.7189,144.729 69.2189,146.062 69,147.5C 68.1808,153.681 68.3475,159.681 69.5,165.5C 73.2651,177.698 79.5984,188.364 88.5,197.5C 86.9052,198.434 85.2385,198.434 83.5,197.5C 72.6792,192.677 64.0126,185.343 57.5,175.5C 49.1277,158.589 48.2944,141.255 55,123.5C 57.5266,118.447 60.0266,113.447 62.5,108.5C 63.8118,107.855 64.8118,106.855 65.5,105.5C 64.9984,104.479 64.3317,104.312 63.5,105C 50.1839,115.139 41.5173,128.306 37.5,144.5C 35.5424,133.001 36.7091,121.668 41,110.5C 47.874,95.3984 58.0407,83.0651 71.5,73.5C 73.0664,73.0237 73.3998,72.357 72.5,71.5C 68.6508,72.2318 64.9841,73.3985 61.5,75C 55.1097,79.1874 48.7764,83.354 42.5,87.5C 49.256,73.7394 58.9227,62.4061 71.5,53.5C 76.0816,49.6214 81.2483,46.6214 87,44.5C 88.2613,44.7591 89.2613,45.4258 90,46.5C 90.4955,48.4727 90.6621,50.4727 90.5,52.5C 90.2594,54.8984 90.9261,56.8984 92.5,58.5C 95.1177,63.1178 98.7844,66.7845 103.5,69.5C 103.833,69.1667 104.167,68.8333 104.5,68.5C 102.127,65.2183 100.627,61.5517 100,57.5C 99.3333,50.5 99.3333,43.5 100,36.5C 102.035,29.3914 105.035,22.7247 109,16.5C 111.05,14.1122 113.384,12.1122 116,10.5C 127.472,19.1256 135.638,30.1256 140.5,43.5C 141.959,43.4326 143.292,43.7659 144.5,44.5 Z"/></g>
<g><path style="opacity:1" fill="#eb492c" d="M 238.5,66.5 C 230.761,76.7804 222.428,89.1138 213.5,103.5C 206.202,98.5511 198.869,93.5511 191.5,88.5C 190.295,87.4231 189.628,86.0898 189.5,84.5C 189.472,81.0836 188.472,78.0836 186.5,75.5C 185.094,72.5865 183.094,70.0865 180.5,68C 169.597,58.3885 157.597,50.5552 144.5,44.5C 146.38,44.7709 147.713,44.1042 148.5,42.5C 153.663,44.1655 158.496,46.4989 163,49.5C 161.032,43.2246 158.199,37.2246 154.5,31.5C 155.496,31.5858 156.329,31.2524 157,30.5C 161.616,22.7276 166.782,15.3943 172.5,8.5C 201.719,19.7252 223.719,39.0585 238.5,66.5 Z"/></g>
<g><path style="opacity:1" fill="#a48079" d="M 167.5,79.5 C 161.024,78.2739 154.691,78.2739 148.5,79.5C 147.078,79.2914 145.745,78.7914 144.5,78C 151.5,77.3333 158.5,77.3333 165.5,78C 166.416,78.2784 167.082,78.7784 167.5,79.5 Z"/></g>
<g><path style="opacity:1" fill="#9d8580" d="M 71.5,73.5 C 60.9899,76.507 51.8233,81.8403 44,89.5C 43.6174,88.944 43.1174,88.6107 42.5,88.5C 42.5,88.1667 42.5,87.8333 42.5,87.5C 48.7764,83.354 55.1097,79.1874 61.5,75C 64.9841,73.3985 68.6508,72.2318 72.5,71.5C 73.3998,72.357 73.0664,73.0237 71.5,73.5 Z"/></g>
<g><path style="opacity:1" fill="#c4a6a0" d="M 186.5,75.5 C 188.472,78.0836 189.472,81.0836 189.5,84.5C 187.69,81.855 186.69,78.855 186.5,75.5 Z"/></g>
<g><path style="opacity:1" fill="#ed5033" d="M 148.5,79.5 C 154.691,78.2739 161.024,78.2739 167.5,79.5C 172.843,83.5178 177.177,88.5178 180.5,94.5C 180.167,94.8333 179.833,95.1667 179.5,95.5C 174.037,93.3061 168.37,91.8061 162.5,91C 158.541,86.1983 153.874,82.365 148.5,79.5 Z"/></g>
<g><path style="opacity:0.998" fill="#e4431f" d="M 238.5,66.5 C 239.167,66.8333 239.833,67.1667 240.5,67.5C 248.127,80.3818 252.794,94.3818 254.5,109.5C 253.842,108.602 253.176,107.602 252.5,106.5C 220.542,154.916 188.208,203.082 155.5,251C 156.793,251.49 158.127,251.657 159.5,251.5C 155.46,252.708 151.46,254.042 147.5,255.5C 147.167,255.5 146.833,255.5 146.5,255.5C 145.833,254.167 145.167,254.167 144.5,255.5C 137.5,255.5 130.5,255.5 123.5,255.5C 120.026,254.475 116.36,253.808 112.5,253.5C 116.083,247.401 119.917,241.401 124,235.5C 124.464,236.094 124.631,236.761 124.5,237.5C 124.5,238.167 124.833,238.5 125.5,238.5C 126.251,239.573 127.251,239.74 128.5,239C 139.643,232.688 148.643,224.188 155.5,213.5C 159.022,209.745 162.522,205.078 166,199.5C 166.49,200.793 166.657,202.127 166.5,203.5C 165.742,206.352 165.742,209.019 166.5,211.5C 166.81,212.738 167.31,212.738 168,211.5C 175.787,201.66 178.953,190.66 177.5,178.5C 177.662,176.473 177.495,174.473 177,172.5C 174.455,167.239 171.288,162.406 167.5,158C 161.992,154.652 157.325,150.485 153.5,145.5C 153.33,144.178 153.663,143.011 154.5,142C 159.155,141.501 163.821,141.334 168.5,141.5C 171.926,143.274 175.593,144.274 179.5,144.5C 181.438,146.163 183.772,146.829 186.5,146.5C 191.316,147.65 196.316,147.816 201.5,147C 203.641,145.692 205.641,144.192 207.5,142.5C 208.776,141.386 208.776,140.386 207.5,139.5C 204.947,138.745 202.28,138.078 199.5,137.5C 198.602,136.842 197.602,136.176 196.5,135.5C 196.624,134.893 196.957,134.56 197.5,134.5C 203.31,135.711 208.977,135.711 214.5,134.5C 216.929,134.415 218.929,133.415 220.5,131.5C 221.705,130.005 221.705,128.672 220.5,127.5C 219.167,125.167 217.833,122.833 216.5,120.5C 216.238,119.022 216.571,117.689 217.5,116.5C 220.83,115.906 224.164,115.24 227.5,114.5C 227.376,113.893 227.043,113.56 226.5,113.5C 221.948,110.397 217.614,107.064 213.5,103.5C 222.428,89.1138 230.761,76.7804 238.5,66.5 Z"/></g>
<g><path style="opacity:1" fill="#a08782" d="M 107.5,83.5 C 107.44,82.9569 107.107,82.6236 106.5,82.5C 98.4762,87.1905 92.1428,93.5238 87.5,101.5C 87.7553,98.9837 88.5886,96.6504 90,94.5C 95.5195,87.2384 102.519,81.9051 111,78.5C 110.923,80.7715 109.757,82.4382 107.5,83.5 Z"/></g>
<g><path style="opacity:1" fill="#f14e2e" d="M 107.5,83.5 C 102.714,88.4651 98.8807,94.1318 96,100.5C 93.4343,107.492 92.9343,114.492 94.5,121.5C 94.7828,122.289 95.2828,122.956 96,123.5C 100.321,112.68 107.821,105.013 118.5,100.5C 106.853,114.604 105.519,129.604 114.5,145.5C 114.116,148.896 112.782,151.896 110.5,154.5C 98.2318,148.231 89.8984,138.565 85.5,125.5C 85.0617,117.371 85.7284,109.371 87.5,101.5C 92.1428,93.5238 98.4762,87.1905 106.5,82.5C 107.107,82.6236 107.44,82.9569 107.5,83.5 Z"/></g>
<g><path style="opacity:0.999" fill="#e23f16" d="M 254.5,109.5 C 254.5,110.167 254.833,110.5 255.5,110.5C 255.5,121.833 255.5,133.167 255.5,144.5C 247.046,192.797 220.38,226.964 175.5,247C 170.287,249.017 164.954,250.517 159.5,251.5C 158.127,251.657 156.793,251.49 155.5,251C 188.208,203.082 220.542,154.916 252.5,106.5C 253.176,107.602 253.842,108.602 254.5,109.5 Z"/></g>
<g><path style="opacity:1" fill="#b59892" d="M 87.5,101.5 C 85.7284,109.371 85.0617,117.371 85.5,125.5C 84.1858,123.085 83.5191,120.252 83.5,117C 82.7918,111.189 84.1252,106.022 87.5,101.5 Z"/></g>
<g><path style="opacity:0.999" fill="#f64e29" d="M 111.5,-0.5 C 122.167,-0.5 132.833,-0.5 143.5,-0.5C 184.153,6.24133 215.653,26.908 238,61.5C 239.122,63.4068 239.955,65.4068 240.5,67.5C 239.833,67.1667 239.167,66.8333 238.5,66.5C 223.719,39.0585 201.719,19.7252 172.5,8.5C 166.782,15.3943 161.616,22.7276 157,30.5C 156.329,31.2524 155.496,31.5858 154.5,31.5C 153.206,29.093 151.539,26.9263 149.5,25C 148.668,24.3123 148.002,24.479 147.5,25.5C 144.573,29.7718 143.406,34.4384 144,39.5C 145.409,40.7811 146.909,41.7811 148.5,42.5C 147.713,44.1042 146.38,44.7709 144.5,44.5C 143.292,43.7659 141.959,43.4326 140.5,43.5C 135.638,30.1256 127.472,19.1256 116,10.5C 113.384,12.1122 111.05,14.1122 109,16.5C 105.035,22.7247 102.035,29.3914 100,36.5C 99.3333,43.5 99.3333,50.5 100,57.5C 100.627,61.5517 102.127,65.2183 104.5,68.5C 104.167,68.8333 103.833,69.1667 103.5,69.5C 98.7844,66.7845 95.1177,63.1178 92.5,58.5C 92.7406,56.1016 92.0739,54.1016 90.5,52.5C 90.6621,50.4727 90.4955,48.4727 90,46.5C 89.2613,45.4258 88.2613,44.7591 87,44.5C 81.2483,46.6214 76.0816,49.6214 71.5,53.5C 71.3505,52.448 71.5172,51.448 72,50.5C 82.3923,35.772 92.3923,20.772 102,5.5C 102.903,4.29857 104.069,3.46524 105.5,3C 89.1342,5.67972 73.8008,11.3464 59.5,20C 13.7182,52.1521 -4.94843,95.9854 3.5,151.5C 17.4812,132.218 30.9812,112.551 44,92.5C 43.8567,91.1351 43.3567,89.8018 42.5,88.5C 43.1174,88.6107 43.6174,88.944 44,89.5C 51.8233,81.8403 60.9899,76.507 71.5,73.5C 58.0407,83.0651 47.874,95.3984 41,110.5C 36.7091,121.668 35.5424,133.001 37.5,144.5C 37.56,145.043 37.8933,145.376 38.5,145.5C 42.233,130.36 50.233,118.026 62.5,108.5C 60.0266,113.447 57.5266,118.447 55,123.5C 48.2944,141.255 49.1277,158.589 57.5,175.5C 57.5086,177.308 57.0086,178.975 56,180.5C 48.5,191.333 41,202.167 33.5,213C 42.2477,222.598 52.2477,230.432 63.5,236.5C 78.4146,245.917 94.7479,251.584 112.5,253.5C 116.36,253.808 120.026,254.475 123.5,255.5C 119.5,255.5 115.5,255.5 111.5,255.5C 61.533,247.047 26.6997,219.38 7,172.5C 3.7843,162.885 1.2843,153.218 -0.5,143.5C -0.5,132.833 -0.5,122.167 -0.5,111.5C 11.8333,49.1667 49.1667,11.8333 111.5,-0.5 Z"/></g>
<g><path style="opacity:1" fill="#cbaba4" d="M 90.5,52.5 C 92.0739,54.1016 92.7406,56.1016 92.5,58.5C 90.9261,56.8984 90.2594,54.8984 90.5,52.5 Z"/></g>
<g><path style="opacity:1" fill="#9a9290" d="M 118.5,25.5 C 116.376,26.0312 114.876,27.3645 114,29.5C 110.903,36.4932 109.736,43.8266 110.5,51.5C 108.404,42.7897 109.571,34.4564 114,26.5C 115.347,24.5339 116.847,24.2006 118.5,25.5 Z"/></g>
<g><path style="opacity:1" fill="#f4532f" d="M 118.5,25.5 C 125.887,32.6063 129.72,41.273 130,51.5C 127.707,49.6277 125.207,48.1277 122.5,47C 121.216,46.3162 120.049,46.4829 119,47.5C 118.741,52.9262 118.574,58.2595 118.5,63.5C 114.634,60.3003 111.967,56.3003 110.5,51.5C 109.736,43.8266 110.903,36.4932 114,29.5C 114.876,27.3645 116.376,26.0312 118.5,25.5 Z"/></g>
<g><path style="opacity:1" fill="#f7edeb" d="M 154.5,31.5 C 158.199,37.2246 161.032,43.2246 163,49.5C 158.496,46.4989 153.663,44.1655 148.5,42.5C 146.909,41.7811 145.409,40.7811 144,39.5C 143.406,34.4384 144.573,29.7718 147.5,25.5C 148.002,24.479 148.668,24.3123 149.5,25C 151.539,26.9263 153.206,29.093 154.5,31.5 Z"/></g>
<g><path style="opacity:1" fill="#9b8782" d="M 118.5,100.5 C 107.821,105.013 100.321,112.68 96,123.5C 95.2828,122.956 94.7828,122.289 94.5,121.5C 99.1594,111.341 106.659,104.008 117,99.5C 117.765,99.5699 118.265,99.9033 118.5,100.5 Z"/></g>
<g><path style="opacity:1" fill="#a59794" d="M 226.5,113.5 C 227.043,113.56 227.376,113.893 227.5,114.5C 224.164,115.24 220.83,115.906 217.5,116.5C 216.571,117.689 216.238,119.022 216.5,120.5C 215.193,118.777 215.193,116.943 216.5,115C 220.025,114.821 223.359,114.321 226.5,113.5 Z"/></g>
<g><path style="opacity:1" fill="#bc7465" d="M 175.5,126.5 C 172.615,126.194 169.948,126.527 167.5,127.5C 165.621,127.607 165.288,127.107 166.5,126C 169.696,125.195 172.696,125.362 175.5,126.5 Z"/></g>
<g><path style="opacity:1" fill="#e75537" d="M 167.5,127.5 C 169.948,126.527 172.615,126.194 175.5,126.5C 182.037,128.803 188.703,130.803 195.5,132.5C 196.167,133.167 196.833,133.833 197.5,134.5C 196.957,134.56 196.624,134.893 196.5,135.5C 197.602,136.176 198.602,136.842 199.5,137.5C 188.638,134.732 177.971,131.399 167.5,127.5 Z"/></g>
<g><path style="opacity:1" fill="#a18c87" d="M 62.5,108.5 C 50.233,118.026 42.233,130.36 38.5,145.5C 37.8933,145.376 37.56,145.043 37.5,144.5C 41.5173,128.306 50.1839,115.139 63.5,105C 64.3317,104.312 64.9984,104.479 65.5,105.5C 64.8118,106.855 63.8118,107.855 62.5,108.5 Z"/></g>
<g><path style="opacity:1" fill="#9c837d" d="M 220.5,127.5 C 221.705,128.672 221.705,130.005 220.5,131.5C 218.929,133.415 216.929,134.415 214.5,134.5C 217.213,132.786 219.213,130.453 220.5,127.5 Z"/></g>
<g><path style="opacity:1" fill="#a7918d" d="M 195.5,132.5 C 201.68,134.182 208.013,134.848 214.5,134.5C 208.977,135.711 203.31,135.711 197.5,134.5C 196.833,133.833 196.167,133.167 195.5,132.5 Z"/></g>
<g><path style="opacity:1" fill="#a7a09f" d="M 128.5,127.5 C 125.006,131.806 123.672,136.806 124.5,142.5C 122.916,137.038 123.583,131.704 126.5,126.5C 127.694,125.33 128.361,125.663 128.5,127.5 Z"/></g>
<g><path style="opacity:1" fill="#99807b" d="M 168.5,141.5 C 163.821,141.334 159.155,141.501 154.5,142C 153.663,143.011 153.33,144.178 153.5,145.5C 152.199,144.116 152.199,142.616 153.5,141C 158.684,140.184 163.684,140.35 168.5,141.5 Z"/></g>
<g><path style="opacity:1" fill="#9e807a" d="M 207.5,139.5 C 208.776,140.386 208.776,141.386 207.5,142.5C 205.641,144.192 203.641,145.692 201.5,147C 196.316,147.816 191.316,147.65 186.5,146.5C 191.032,146.818 195.366,146.485 199.5,145.5C 202.891,144.471 205.557,142.471 207.5,139.5 Z"/></g>
<g><path style="opacity:1" fill="#cac0be" d="M 179.5,144.5 C 186.131,145.331 192.798,145.664 199.5,145.5C 195.366,146.485 191.032,146.818 186.5,146.5C 183.772,146.829 181.438,146.163 179.5,144.5 Z"/></g>
<g><path style="opacity:1" fill="#a08781" d="M 71.5,146.5 C 70.71,147.609 70.21,148.942 70,150.5C 69.5007,155.489 69.3341,160.489 69.5,165.5C 68.3475,159.681 68.1808,153.681 69,147.5C 69.2189,146.062 69.7189,144.729 70.5,143.5C 71.3857,144.325 71.719,145.325 71.5,146.5 Z"/></g>
<g><path style="opacity:1" fill="#e84b2d" d="M 128.5,127.5 C 128.641,133.735 130.474,139.402 134,144.5C 141.946,152.446 149.946,160.446 158,168.5C 166.512,178.914 169.345,190.581 166.5,203.5C 166.657,202.127 166.49,200.793 166,199.5C 162.522,205.078 159.022,209.745 155.5,213.5C 159.115,207.068 160.115,200.401 158.5,193.5C 155.255,177.861 152.589,177.861 150.5,193.5C 149.1,192.9 148.1,191.9 147.5,190.5C 145.025,182.841 140.692,176.341 134.5,171C 126.26,165.724 118.26,160.224 110.5,154.5C 112.782,151.896 114.116,148.896 114.5,145.5C 118.492,150.49 123.159,154.823 128.5,158.5C 128.833,158.167 129.167,157.833 129.5,157.5C 127.223,152.669 125.556,147.669 124.5,142.5C 123.672,136.806 125.006,131.806 128.5,127.5 Z"/></g>
<g><path style="opacity:1" fill="#d48473" d="M 116.5,179.5 C 115.833,179.5 115.5,179.833 115.5,180.5C 114.163,179.685 113.163,178.518 112.5,177C 114.412,176.721 115.746,177.554 116.5,179.5 Z"/></g>
<g><path style="opacity:1" fill="#ef4b2c" d="M 57.5,175.5 C 64.0126,185.343 72.6792,192.677 83.5,197.5C 85.0261,199.13 87.0261,199.963 89.5,200C 88.5838,200.374 87.7504,200.874 87,201.5C 79.3037,213.344 71.4703,225.01 63.5,236.5C 52.2477,230.432 42.2477,222.598 33.5,213C 41,202.167 48.5,191.333 56,180.5C 57.0086,178.975 57.5086,177.308 57.5,175.5 Z"/></g>
<g><path style="opacity:1" fill="#ea4a2d" d="M 71.5,146.5 C 72.7156,153.309 75.2156,159.642 79,165.5C 88.81,175.638 97.4767,186.638 105,198.5C 109.273,207.323 112.107,216.323 113.5,225.5C 113.435,225.938 113.601,226.272 114,226.5C 122.051,216.923 124.717,205.923 122,193.5C 121.102,190.931 119.935,188.598 118.5,186.5C 117.529,184.517 116.529,182.517 115.5,180.5C 115.5,179.833 115.833,179.5 116.5,179.5C 120.643,182.081 124.143,185.414 127,189.5C 136.326,206.1 135.493,222.1 124.5,237.5C 124.631,236.761 124.464,236.094 124,235.5C 119.917,241.401 116.083,247.401 112.5,253.5C 94.7479,251.584 78.4146,245.917 63.5,236.5C 71.4703,225.01 79.3037,213.344 87,201.5C 87.7504,200.874 88.5838,200.374 89.5,200C 87.0261,199.963 85.0261,199.13 83.5,197.5C 85.2385,198.434 86.9052,198.434 88.5,197.5C 79.5984,188.364 73.2651,177.698 69.5,165.5C 69.3341,160.489 69.5007,155.489 70,150.5C 70.21,148.942 70.71,147.609 71.5,146.5 Z"/></g>
<g><path style="opacity:1" fill="#be8d83" d="M 147.5,190.5 C 148.1,191.9 149.1,192.9 150.5,193.5C 150.189,194.478 149.522,195.145 148.5,195.5C 147.548,193.955 147.215,192.288 147.5,190.5 Z"/></g>
<g><path style="opacity:1" fill="#998681" d="M 177.5,178.5 C 178.953,190.66 175.787,201.66 168,211.5C 167.31,212.738 166.81,212.738 166.5,211.5C 173.556,201.664 177.223,190.664 177.5,178.5 Z"/></g>
<g><path style="opacity:1" fill="#a0928f" d="M 118.5,186.5 C 119.935,188.598 121.102,190.931 122,193.5C 124.717,205.923 122.051,216.923 114,226.5C 113.601,226.272 113.435,225.938 113.5,225.5C 122.172,213.498 123.839,200.498 118.5,186.5 Z"/></g>
<g><path style="opacity:1" fill="#9b8681" d="M 158.5,193.5 C 160.115,200.401 159.115,207.068 155.5,213.5C 148.643,224.188 139.643,232.688 128.5,239C 127.251,239.74 126.251,239.573 125.5,238.5C 135.902,233.942 144.402,226.942 151,217.5C 156.218,210.345 158.718,202.345 158.5,193.5 Z"/></g>
</svg>
