<?xml version="1.0" encoding="UTF-8"?>
<svg xmlns="http://www.w3.org/2000/svg" xmlns:xlink="http://www.w3.org/1999/xlink" width="24px" height="24px" viewBox="0 0 24 23" version="1.1">
<g id="surface1">
<path style=" stroke:none;fill-rule:nonzero;fill:rgb(34.509805%,34.901962%,35.294119%);fill-opacity:1;" d="M 11.957031 -0.0117188 C 12.019531 -0.0117188 12.019531 -0.0117188 12.082031 -0.0117188 C 12.777344 -0.0117188 13.453125 0.0273438 14.136719 0.152344 C 14.207031 0.164062 14.207031 0.164062 14.28125 0.179688 C 16.46875 0.589844 18.4375 1.542969 20.082031 2.988281 C 20.175781 3.070312 20.273438 3.144531 20.371094 3.21875 C 20.527344 3.347656 20.65625 3.488281 20.789062 3.636719 C 20.894531 3.753906 21.003906 3.867188 21.113281 3.980469 C 22.71875 5.699219 23.707031 7.996094 23.945312 10.285156 C 23.953125 10.335938 23.957031 10.386719 23.964844 10.4375 C 24.25 13.300781 23.394531 16.289062 21.519531 18.542969 C 21.464844 18.609375 21.464844 18.609375 21.40625 18.679688 C 20.375 19.921875 19.140625 20.941406 17.671875 21.683594 C 17.625 21.707031 17.578125 21.730469 17.527344 21.753906 C 15.800781 22.609375 13.960938 23.023438 12.019531 23.015625 C 11.972656 23.015625 11.925781 23.015625 11.875 23.015625 C 11.160156 23.011719 10.460938 22.992188 9.757812 22.847656 C 9.707031 22.835938 9.652344 22.828125 9.597656 22.816406 C 7.710938 22.433594 5.914062 21.660156 4.429688 20.46875 C 4.398438 20.441406 4.367188 20.417969 4.335938 20.390625 C 3.707031 19.890625 3.140625 19.363281 2.636719 18.746094 C 2.59375 18.695312 2.554688 18.644531 2.511719 18.59375 C 2.140625 18.148438 1.828125 17.667969 1.53125 17.175781 C 1.511719 17.140625 1.488281 17.109375 1.46875 17.074219 C -0.109375 14.441406 -0.355469 11.242188 0.441406 8.339844 C 0.953125 6.582031 1.925781 4.847656 3.296875 3.574219 C 3.382812 3.492188 3.382812 3.492188 3.476562 3.367188 C 3.636719 3.1875 3.820312 3.042969 4.007812 2.886719 C 4.058594 2.847656 4.109375 2.804688 4.160156 2.761719 C 5.949219 1.257812 8.195312 0.328125 10.550781 0.0507812 C 10.585938 0.046875 10.625 0.0429688 10.664062 0.0351562 C 11.09375 -0.0117188 11.523438 -0.0117188 11.957031 -0.0117188 Z M 11.957031 -0.0117188 "/>
<path style=" stroke:none;fill-rule:nonzero;fill:rgb(99.215686%,99.215686%,99.215686%);fill-opacity:1;" d="M 10.324219 1.171875 C 10.503906 1.238281 10.632812 1.363281 10.769531 1.488281 C 10.800781 1.515625 10.832031 1.542969 10.863281 1.570312 C 11.609375 2.257812 12.164062 3.113281 12.605469 4.003906 C 12.605469 4.035156 12.605469 4.070312 12.605469 4.105469 C 12.636719 4.113281 12.664062 4.121094 12.691406 4.128906 C 13 4.222656 13.289062 4.339844 13.574219 4.480469 C 13.621094 4.503906 13.667969 4.523438 13.714844 4.546875 C 14.835938 5.101562 16.480469 5.988281 16.996094 7.164062 C 17.046875 7.324219 17.066406 7.484375 17.09375 7.652344 C 17.152344 7.921875 17.207031 8.054688 17.441406 8.214844 C 17.554688 8.28125 17.664062 8.347656 17.777344 8.410156 C 17.910156 8.496094 18.039062 8.582031 18.171875 8.667969 C 18.207031 8.691406 18.242188 8.714844 18.277344 8.738281 C 18.605469 8.953125 18.921875 9.179688 19.238281 9.40625 C 19.457031 9.558594 19.671875 9.710938 19.890625 9.859375 C 19.933594 9.890625 19.976562 9.921875 20.019531 9.949219 C 20.101562 10.007812 20.183594 10.0625 20.265625 10.117188 C 20.453125 10.246094 20.625 10.375 20.78125 10.539062 C 20.714844 10.539062 20.648438 10.542969 20.582031 10.546875 C 20.496094 10.550781 20.40625 10.554688 20.320312 10.558594 C 20.277344 10.5625 20.234375 10.5625 20.1875 10.566406 C 20.148438 10.566406 20.105469 10.570312 20.0625 10.570312 C 20.023438 10.574219 19.984375 10.574219 19.945312 10.578125 C 19.832031 10.589844 19.730469 10.609375 19.621094 10.640625 C 19.644531 10.941406 19.695312 11.097656 19.886719 11.347656 C 19.886719 11.382812 19.886719 11.414062 19.886719 11.449219 C 19.917969 11.460938 19.953125 11.472656 19.988281 11.484375 C 20.097656 11.550781 20.097656 11.550781 20.136719 11.683594 C 20.140625 11.722656 20.144531 11.761719 20.148438 11.804688 C 19.683594 12.214844 19.292969 12.34375 18.660156 12.332031 C 18 12.292969 17.332031 12.03125 16.722656 11.804688 C 16.589844 11.757812 16.460938 11.710938 16.332031 11.667969 C 16.273438 11.648438 16.210938 11.625 16.148438 11.605469 C 15.84375 11.507812 15.574219 11.492188 15.253906 11.496094 C 15.210938 11.496094 15.171875 11.496094 15.128906 11.496094 C 15.027344 11.5 14.925781 11.5 14.820312 11.5 C 14.820312 11.535156 14.820312 11.566406 14.820312 11.601562 C 14.867188 11.609375 14.867188 11.609375 14.910156 11.617188 C 15.191406 11.675781 15.457031 11.746094 15.726562 11.835938 C 15.785156 11.855469 15.785156 11.855469 15.847656 11.875 C 15.972656 11.914062 16.09375 11.957031 16.21875 11.996094 C 16.703125 12.15625 17.191406 12.3125 17.679688 12.453125 C 17.714844 12.464844 17.75 12.472656 17.789062 12.484375 C 18.074219 12.5625 18.355469 12.613281 18.648438 12.648438 C 18.777344 12.664062 18.777344 12.664062 18.882812 12.714844 C 18.867188 12.863281 18.839844 12.910156 18.71875 13.011719 C 18.652344 13.058594 18.652344 13.058594 18.582031 13.101562 C 18.511719 13.148438 18.511719 13.148438 18.441406 13.191406 C 17.890625 13.511719 17.136719 13.4375 16.53125 13.292969 C 16.328125 13.242188 16.128906 13.183594 15.929688 13.121094 C 15.859375 13.101562 15.792969 13.082031 15.722656 13.0625 C 15.609375 13.027344 15.496094 12.992188 15.382812 12.957031 C 15.058594 12.867188 14.753906 12.859375 14.417969 12.859375 C 14.367188 12.859375 14.316406 12.855469 14.261719 12.855469 C 14.214844 12.855469 14.164062 12.855469 14.117188 12.855469 C 14.070312 12.855469 14.027344 12.855469 13.980469 12.855469 C 13.859375 12.859375 13.859375 12.859375 13.765625 12.96875 C 13.730469 13.125 13.738281 13.226562 13.824219 13.367188 C 14.132812 13.726562 14.546875 13.988281 14.929688 14.261719 C 15.496094 14.695312 15.871094 15.339844 16.035156 16.007812 C 16.152344 17.179688 15.808594 18.167969 15.109375 19.117188 C 15.085938 19.144531 15.058594 19.171875 15.03125 19.199219 C 15 19.199219 14.964844 19.199219 14.925781 19.199219 C 14.933594 19.171875 14.941406 19.144531 14.945312 19.113281 C 14.976562 18.972656 15.003906 18.832031 15.03125 18.695312 C 15.042969 18.644531 15.054688 18.59375 15.066406 18.542969 C 15.257812 17.542969 15.035156 16.558594 14.457031 15.707031 C 13.953125 15.035156 13.296875 14.449219 12.644531 13.910156 C 12.113281 13.457031 11.53125 12.800781 11.476562 12.09375 C 11.472656 12.015625 11.46875 11.9375 11.464844 11.859375 C 11.464844 11.820312 11.460938 11.78125 11.460938 11.742188 C 11.453125 11.644531 11.449219 11.546875 11.445312 11.449219 C 11.410156 11.449219 11.375 11.449219 11.339844 11.449219 C 11.332031 11.480469 11.320312 11.507812 11.308594 11.539062 C 11.183594 11.90625 11.183594 11.90625 11.125 12.046875 C 10.945312 12.644531 11.058594 13.417969 11.347656 13.960938 C 11.375 14.007812 11.402344 14.058594 11.433594 14.109375 C 11.5 14.234375 11.5 14.234375 11.5 14.386719 C 10.988281 14.296875 10.574219 13.773438 10.234375 13.425781 C 10.199219 13.394531 10.167969 13.363281 10.136719 13.328125 C 9.59375 12.734375 9.585938 11.820312 9.636719 11.082031 C 9.671875 10.761719 9.777344 10.476562 9.917969 10.183594 C 9.941406 10.128906 9.96875 10.074219 9.992188 10.019531 C 10.152344 9.699219 10.335938 9.40625 10.550781 9.117188 C 9.496094 9.585938 8.820312 10.160156 8.335938 11.195312 C 8.300781 11.179688 8.265625 11.164062 8.230469 11.144531 C 8.191406 9.710938 8.492188 8.722656 9.519531 7.667969 C 9.613281 7.574219 9.710938 7.484375 9.8125 7.394531 C 8.851562 7.667969 8.210938 8.214844 7.703125 9.027344 C 7.292969 9.792969 7.164062 10.710938 7.375 11.558594 C 7.433594 11.71875 7.503906 11.859375 7.59375 12.007812 C 7.613281 12.035156 7.628906 12.0625 7.648438 12.09375 C 8.03125 12.734375 8.515625 13.222656 9.125 13.679688 C 9.171875 13.714844 9.222656 13.753906 9.269531 13.792969 C 9.691406 14.117188 10.136719 14.386719 10.597656 14.65625 C 10.929688 14.855469 11.261719 15.058594 11.582031 15.277344 C 11.617188 15.300781 11.652344 15.324219 11.6875 15.347656 C 12.609375 15.984375 13.128906 16.832031 13.398438 17.882812 C 13.550781 17.429688 13.695312 16.988281 13.765625 16.515625 C 13.867188 16.546875 13.867188 16.546875 13.976562 16.617188 C 14.042969 16.75 14.042969 16.75 14.09375 16.910156 C 14.109375 16.964844 14.128906 17.015625 14.144531 17.070312 C 14.382812 17.902344 14.269531 18.71875 13.832031 19.464844 C 13.234375 20.347656 12.316406 21.269531 11.289062 21.683594 C 11.234375 21.683594 11.183594 21.683594 11.128906 21.683594 C 11.203125 21.5 11.289062 21.328125 11.382812 21.152344 C 11.871094 20.253906 12.078125 19.316406 11.824219 18.316406 C 11.5 17.355469 10.835938 16.613281 9.96875 16.058594 C 10 16.101562 10.03125 16.144531 10.0625 16.1875 C 10.570312 16.910156 10.820312 17.574219 10.828125 18.453125 C 10.828125 18.535156 10.828125 18.535156 10.828125 18.621094 C 10.832031 19.15625 10.699219 19.574219 10.421875 20.035156 C 10.402344 20.070312 10.378906 20.105469 10.359375 20.144531 C 10.339844 20.179688 10.320312 20.210938 10.300781 20.246094 C 10.273438 20.292969 10.273438 20.292969 10.246094 20.339844 C 10.164062 20.433594 10.085938 20.46875 9.96875 20.519531 C 9.964844 20.484375 9.960938 20.453125 9.957031 20.417969 C 9.746094 18.75 8.957031 17.40625 7.773438 16.191406 C 7.601562 16.011719 7.445312 15.824219 7.289062 15.636719 C 7.214844 15.550781 7.140625 15.464844 7.066406 15.382812 C 6.476562 14.714844 6.183594 13.980469 6.066406 13.121094 C 6.039062 13.179688 6.015625 13.242188 5.988281 13.300781 C 5.976562 13.335938 5.960938 13.367188 5.949219 13.402344 C 5.691406 14.203125 5.789062 15.117188 6.171875 15.855469 C 6.1875 15.890625 6.203125 15.921875 6.21875 15.953125 C 6.53125 16.582031 6.945312 17.113281 7.441406 17.617188 C 7.542969 17.734375 7.625 17.851562 7.699219 17.984375 C 6.890625 18.023438 6.136719 17.386719 5.566406 16.890625 C 4.652344 16.082031 4.160156 14.882812 4.105469 13.699219 C 4.089844 13.21875 4.152344 12.777344 4.273438 12.3125 C 4.28125 12.277344 4.289062 12.242188 4.296875 12.203125 C 4.53125 11.253906 4.980469 10.433594 5.539062 9.625 C 4.429688 10.320312 3.660156 11.308594 3.195312 12.488281 C 3.179688 12.519531 3.167969 12.554688 3.15625 12.585938 C 3.074219 12.800781 3.03125 13 3.007812 13.222656 C 2.953125 13.222656 2.902344 13.222656 2.847656 13.222656 C 2.84375 13.023438 2.84375 12.828125 2.84375 12.632812 C 2.839844 12.53125 2.839844 12.433594 2.839844 12.332031 C 2.832031 10.652344 3.679688 9.046875 4.882812 7.847656 C 5.332031 7.414062 5.800781 7.027344 6.328125 6.6875 C 5.335938 6.796875 4.496094 7.339844 3.75 7.945312 C 3.699219 7.988281 3.699219 7.988281 3.648438 8.027344 C 3.617188 8.054688 3.589844 8.078125 3.558594 8.101562 C 3.480469 8.15625 3.480469 8.15625 3.375 8.15625 C 3.457031 7.867188 3.609375 7.636719 3.773438 7.386719 C 3.816406 7.324219 3.816406 7.324219 3.863281 7.257812 C 4.484375 6.332031 5.308594 5.570312 6.222656 4.914062 C 6.269531 4.878906 6.3125 4.84375 6.359375 4.808594 C 6.691406 4.558594 7.136719 4.316406 7.542969 4.203125 C 7.660156 4.226562 7.660156 4.226562 7.753906 4.253906 C 7.765625 4.308594 7.777344 4.359375 7.789062 4.410156 C 7.96875 5.152344 8.167969 5.824219 8.851562 6.28125 C 8.976562 6.351562 9.101562 6.421875 9.230469 6.484375 C 9.179688 6.386719 9.128906 6.285156 9.074219 6.1875 C 8.574219 5.289062 8.59375 4.199219 8.878906 3.242188 C 9.117188 2.496094 9.503906 1.734375 10.128906 1.214844 C 10.234375 1.164062 10.234375 1.164062 10.324219 1.171875 Z M 10.324219 1.171875 "/>
<path style=" stroke:none;fill-rule:nonzero;fill:rgb(41.568628%,41.960785%,42.745098%);fill-opacity:1;" d="M 10.285156 2.382812 C 10.550781 2.40625 10.679688 2.597656 10.847656 2.78125 C 11.296875 3.347656 11.722656 4.136719 11.65625 4.863281 C 11.597656 4.835938 11.539062 4.804688 11.480469 4.773438 C 11.402344 4.738281 11.324219 4.699219 11.25 4.660156 C 11.210938 4.640625 11.171875 4.621094 11.132812 4.601562 C 11.09375 4.582031 11.058594 4.566406 11.019531 4.546875 C 10.984375 4.53125 10.949219 4.511719 10.914062 4.496094 C 10.796875 4.445312 10.796875 4.445312 10.601562 4.457031 C 10.601562 4.644531 10.601562 4.832031 10.597656 5.019531 C 10.597656 5.070312 10.597656 5.125 10.597656 5.179688 C 10.597656 5.449219 10.605469 5.710938 10.65625 5.976562 C 10.292969 5.835938 10.011719 5.476562 9.835938 5.148438 C 9.691406 4.8125 9.691406 4.511719 9.6875 4.152344 C 9.6875 4.097656 9.6875 4.042969 9.683594 3.984375 C 9.679688 3.488281 9.804688 3.074219 10.085938 2.652344 C 10.113281 2.613281 10.136719 2.570312 10.164062 2.527344 C 10.234375 2.433594 10.234375 2.433594 10.285156 2.382812 Z M 10.285156 2.382812 "/>
<path style=" stroke:none;fill-rule:nonzero;fill:rgb(36.470589%,36.470589%,37.254903%);fill-opacity:1;" d="M 13.507812 7.132812 C 13.5625 7.132812 13.613281 7.132812 13.667969 7.132812 C 13.746094 7.132812 13.746094 7.132812 13.828125 7.132812 C 13.882812 7.132812 13.933594 7.132812 13.988281 7.132812 C 14.691406 7.136719 15.085938 7.203125 15.609375 7.675781 C 15.796875 7.859375 15.957031 8.0625 16.113281 8.269531 C 16.136719 8.300781 16.160156 8.332031 16.1875 8.363281 C 16.3125 8.53125 16.351562 8.601562 16.351562 8.816406 C 16.035156 8.714844 16.035156 8.714844 15.9375 8.675781 C 15.613281 8.5625 15.296875 8.527344 14.957031 8.496094 C 14.632812 8.433594 14.433594 8.257812 14.222656 8.023438 C 14.1875 7.984375 14.148438 7.945312 14.113281 7.902344 C 14.03125 7.800781 14.03125 7.800781 14.03125 7.699219 C 13.828125 7.601562 13.617188 7.507812 13.410156 7.414062 C 13.375 7.398438 13.335938 7.382812 13.300781 7.367188 C 13.210938 7.324219 13.117188 7.285156 13.027344 7.246094 C 13.195312 7.152344 13.316406 7.128906 13.507812 7.132812 Z M 13.507812 7.132812 "/>
<path style=" stroke:none;fill-rule:nonzero;fill:rgb(98.039216%,98.039216%,98.039216%);fill-opacity:1;" d="M 13.292969 2.382812 C 13.328125 2.382812 13.363281 2.382812 13.398438 2.382812 C 13.917969 2.898438 14.230469 3.566406 14.558594 4.203125 C 14.578125 4.242188 14.597656 4.277344 14.617188 4.3125 C 14.664062 4.40625 14.664062 4.40625 14.664062 4.558594 C 14.441406 4.480469 14.238281 4.375 14.03125 4.265625 C 13.714844 4.097656 13.398438 3.964844 13.054688 3.851562 C 12.921875 3.800781 12.921875 3.800781 12.816406 3.699219 C 12.816406 3.226562 13.078125 2.792969 13.292969 2.382812 Z M 13.292969 2.382812 "/>
<path style=" stroke:none;fill-rule:nonzero;fill:rgb(51.764709%,51.764709%,51.764709%);fill-opacity:1;" d="M 9.863281 7.394531 C 9.652344 7.582031 9.503906 7.664062 9.230469 7.75 C 8.84375 7.972656 8.503906 8.214844 8.230469 8.5625 C 8.207031 8.589844 8.1875 8.621094 8.164062 8.648438 C 7.949219 8.921875 7.785156 9.210938 7.648438 9.523438 C 7.628906 9.5625 7.613281 9.601562 7.59375 9.644531 C 7.433594 10.019531 7.402344 10.355469 7.40625 10.761719 C 7.40625 10.847656 7.40625 10.847656 7.402344 10.9375 C 7.40625 11.316406 7.476562 11.59375 7.648438 11.933594 C 7.699219 12.058594 7.699219 12.058594 7.648438 12.210938 C 7.605469 12.121094 7.566406 12.035156 7.523438 11.949219 C 7.5 11.902344 7.476562 11.851562 7.453125 11.804688 C 7.28125 11.417969 7.261719 11.097656 7.257812 10.683594 C 7.257812 10.625 7.257812 10.566406 7.253906 10.503906 C 7.25 9.503906 7.789062 8.699219 8.492188 8.003906 C 8.734375 7.777344 9.023438 7.640625 9.328125 7.5 C 9.359375 7.484375 9.394531 7.46875 9.433594 7.453125 C 9.6875 7.339844 9.6875 7.339844 9.863281 7.394531 Z M 9.863281 7.394531 "/>
<path style=" stroke:none;fill-rule:nonzero;fill:rgb(51.764709%,51.764709%,51.764709%);fill-opacity:1;" d="M 14.136719 17.023438 C 14.445312 17.46875 14.410156 18.132812 14.3125 18.644531 C 14.121094 19.410156 13.675781 19.953125 13.132812 20.519531 C 13.09375 20.558594 13.054688 20.601562 13.011719 20.644531 C 12.570312 21.089844 11.996094 21.5625 11.394531 21.785156 C 11.339844 21.765625 11.289062 21.75 11.234375 21.734375 C 11.371094 21.585938 11.53125 21.496094 11.710938 21.398438 C 12.734375 20.804688 13.699219 19.90625 14.082031 18.796875 C 14.101562 18.742188 14.121094 18.6875 14.140625 18.628906 C 14.199219 18.402344 14.203125 18.195312 14.199219 17.964844 C 14.199219 17.925781 14.199219 17.882812 14.199219 17.84375 C 14.195312 17.566406 14.171875 17.296875 14.136719 17.023438 Z M 14.136719 17.023438 "/>
<path style=" stroke:none;fill-rule:nonzero;fill:rgb(51.764709%,51.764709%,51.764709%);fill-opacity:1;" d="M 5.539062 9.625 C 5.445312 9.878906 5.3125 10 5.105469 10.171875 C 4.480469 10.683594 3.992188 11.191406 3.640625 11.90625 C 3.621094 11.941406 3.605469 11.972656 3.585938 12.011719 C 3.375 12.4375 3.207031 12.855469 3.113281 13.324219 C 3.058594 13.324219 3.007812 13.324219 2.953125 13.324219 C 2.9375 13.289062 2.917969 13.257812 2.902344 13.222656 C 2.9375 13.222656 2.972656 13.222656 3.007812 13.222656 C 3.003906 13.144531 3.003906 13.144531 3 13.070312 C 3.007812 12.855469 3.054688 12.6875 3.136719 12.496094 C 3.148438 12.460938 3.164062 12.425781 3.175781 12.390625 C 3.53125 11.542969 4.007812 10.886719 4.675781 10.238281 C 4.707031 10.207031 4.742188 10.175781 4.773438 10.144531 C 5.316406 9.625 5.316406 9.625 5.539062 9.625 Z M 5.539062 9.625 "/>
<path style=" stroke:none;fill-rule:nonzero;fill:rgb(51.764709%,51.764709%,51.764709%);fill-opacity:1;" d="M 6.382812 6.636719 C 6.234375 6.785156 6.109375 6.914062 5.90625 6.992188 C 5.90625 6.957031 5.90625 6.925781 5.90625 6.890625 C 5.082031 7.222656 4.394531 7.621094 3.703125 8.171875 C 3.585938 8.257812 3.585938 8.257812 3.480469 8.257812 C 3.527344 8.015625 3.6875 7.914062 3.882812 7.765625 C 3.917969 7.742188 3.953125 7.714844 3.992188 7.6875 C 4.636719 7.210938 5.539062 6.613281 6.382812 6.636719 Z M 6.382812 6.636719 "/>
<path style=" stroke:none;fill-rule:nonzero;fill:rgb(51.764709%,51.764709%,51.764709%);fill-opacity:1;" d="M 10.550781 9.117188 C 10.527344 9.234375 10.527344 9.234375 10.445312 9.371094 C 10.351562 9.40625 10.351562 9.40625 10.238281 9.4375 C 9.515625 9.632812 9.035156 10.25 8.675781 10.84375 C 8.597656 10.992188 8.542969 11.140625 8.492188 11.296875 C 8.40625 11.28125 8.316406 11.265625 8.230469 11.246094 C 8.28125 11.144531 8.28125 11.144531 8.386719 10.992188 C 8.433594 10.90625 8.480469 10.824219 8.523438 10.738281 C 8.878906 10.117188 9.714844 9.117188 10.550781 9.117188 Z M 10.550781 9.117188 "/>
<path style=" stroke:none;fill-rule:nonzero;fill:rgb(53.725493%,53.725493%,53.725493%);fill-opacity:1;" d="M 15.929688 15.652344 C 16.261719 16.132812 16.203125 16.84375 16.109375 17.390625 C 15.964844 18.0625 15.613281 18.789062 15.136719 19.300781 C 15.105469 19.300781 15.070312 19.300781 15.03125 19.300781 C 15.066406 19.105469 15.167969 18.964844 15.28125 18.796875 C 15.921875 17.816406 16.128906 16.796875 15.929688 15.652344 Z M 15.929688 15.652344 "/>
<path style=" stroke:none;fill-rule:nonzero;fill:rgb(52.941179%,52.941179%,52.941179%);fill-opacity:1;" d="M 10.761719 17.527344 C 10.960938 17.820312 10.929688 18.097656 10.933594 18.4375 C 10.933594 18.492188 10.933594 18.546875 10.933594 18.601562 C 10.9375 19.144531 10.84375 19.621094 10.550781 20.085938 C 10.53125 20.117188 10.511719 20.144531 10.496094 20.175781 C 10.398438 20.332031 10.296875 20.476562 10.179688 20.617188 C 10.109375 20.585938 10.039062 20.550781 9.96875 20.519531 C 10.007812 20.484375 10.046875 20.449219 10.085938 20.414062 C 10.25 20.257812 10.347656 20.085938 10.453125 19.894531 C 10.472656 19.863281 10.488281 19.832031 10.507812 19.796875 C 10.78125 19.304688 10.773438 18.832031 10.765625 18.289062 C 10.765625 18.214844 10.765625 18.140625 10.765625 18.066406 C 10.765625 17.886719 10.761719 17.707031 10.761719 17.527344 Z M 10.761719 17.527344 "/>
<path style=" stroke:none;fill-rule:nonzero;fill:rgb(52.156866%,52.156866%,52.156866%);fill-opacity:1;" d="M 10.285156 2.382812 C 10.394531 2.402344 10.394531 2.402344 10.496094 2.433594 C 10.476562 2.453125 10.457031 2.472656 10.4375 2.492188 C 9.769531 3.269531 9.824219 4.109375 9.863281 5.066406 C 9.621094 4.835938 9.691406 4.457031 9.6875 4.152344 C 9.6875 4.097656 9.6875 4.042969 9.683594 3.984375 C 9.679688 3.488281 9.804688 3.074219 10.085938 2.652344 C 10.113281 2.613281 10.136719 2.570312 10.164062 2.527344 C 10.234375 2.433594 10.234375 2.433594 10.285156 2.382812 Z M 10.285156 2.382812 "/>
<path style=" stroke:none;fill-rule:nonzero;fill:rgb(52.941179%,52.941179%,52.941179%);fill-opacity:1;" d="M 20.148438 11.652344 C 20.183594 11.683594 20.21875 11.71875 20.253906 11.753906 C 20.246094 11.886719 20.214844 11.941406 20.121094 12.035156 C 19.628906 12.382812 19.234375 12.464844 18.621094 12.410156 C 18.164062 12.339844 17.730469 12.21875 17.300781 12.058594 C 17.519531 11.988281 17.679688 12.066406 17.890625 12.128906 C 18.476562 12.296875 19.109375 12.390625 19.675781 12.109375 C 19.902344 11.984375 20.03125 11.878906 20.148438 11.652344 Z M 20.148438 11.652344 "/>
<path style=" stroke:none;fill-rule:nonzero;fill:rgb(56.078434%,56.078434%,56.078434%);fill-opacity:1;" d="M 6.066406 13.019531 C 6.082031 13.019531 6.101562 13.019531 6.117188 13.019531 C 6.136719 13.203125 6.152344 13.386719 6.171875 13.578125 C 6.121094 13.601562 6.121094 13.601562 6.066406 13.628906 C 5.882812 14.167969 5.949219 14.789062 5.960938 15.351562 C 5.65625 14.914062 5.75 14.152344 5.832031 13.652344 C 5.925781 13.21875 5.925781 13.21875 6.066406 13.019531 Z M 6.066406 13.019531 "/>
<path style=" stroke:none;fill-rule:nonzero;fill:rgb(48.627451%,48.627451%,48.627451%);fill-opacity:1;" d="M 18.882812 12.714844 C 18.917969 12.78125 18.953125 12.847656 18.988281 12.917969 C 18.917969 12.984375 18.847656 13.046875 18.777344 13.113281 C 18.738281 13.148438 18.699219 13.183594 18.660156 13.21875 C 18.328125 13.457031 17.996094 13.503906 17.589844 13.496094 C 17.519531 13.496094 17.519531 13.496094 17.449219 13.496094 C 17.023438 13.488281 16.648438 13.402344 16.246094 13.273438 C 16.410156 13.222656 16.507812 13.226562 16.671875 13.269531 C 17.183594 13.386719 17.875 13.4375 18.355469 13.210938 C 18.46875 13.144531 18.46875 13.144531 18.566406 13.070312 C 18.621094 13.035156 18.671875 13 18.730469 12.960938 C 18.84375 12.871094 18.84375 12.871094 18.882812 12.714844 Z M 18.882812 12.714844 "/>
<path style=" stroke:none;fill-rule:nonzero;fill:rgb(54.901963%,54.901963%,55.29412%);fill-opacity:1;" d="M 11.339844 11.449219 C 11.375 11.449219 11.410156 11.449219 11.445312 11.449219 C 11.515625 11.582031 11.503906 11.6875 11.503906 11.835938 C 11.5 11.886719 11.5 11.9375 11.5 11.988281 C 11.5 12.027344 11.5 12.066406 11.5 12.109375 C 11.480469 12.109375 11.464844 12.109375 11.445312 12.109375 C 11.429688 11.992188 11.410156 11.875 11.394531 11.753906 C 11.078125 12.386719 11.160156 13.046875 11.234375 13.730469 C 10.953125 13.457031 11.003906 12.878906 11 12.515625 C 11.011719 12.125 11.160156 11.792969 11.339844 11.449219 Z M 11.339844 11.449219 "/>
<path style=" stroke:none;fill-rule:nonzero;fill:rgb(51.764709%,51.764709%,51.764709%);fill-opacity:1;" d="M 14.109375 12.796875 C 14.152344 12.796875 14.199219 12.796875 14.25 12.796875 C 14.320312 12.796875 14.320312 12.796875 14.398438 12.796875 C 14.445312 12.796875 14.496094 12.800781 14.546875 12.800781 C 14.921875 12.808594 15.257812 12.851562 15.613281 12.96875 C 15.671875 12.988281 15.730469 13.003906 15.792969 13.023438 C 15.945312 13.070312 16.09375 13.121094 16.246094 13.171875 C 16.03125 13.257812 15.886719 13.175781 15.675781 13.097656 C 15.296875 12.96875 14.9375 12.945312 14.539062 12.945312 C 14.484375 12.945312 14.429688 12.949219 14.375 12.949219 C 14.09375 12.9375 14.09375 12.9375 13.871094 13.070312 C 13.851562 13.171875 13.832031 13.273438 13.820312 13.375 C 13.714844 13.273438 13.714844 13.273438 13.699219 13.125 C 13.714844 12.96875 13.714844 12.96875 13.78125 12.882812 C 13.898438 12.800781 13.960938 12.796875 14.109375 12.796875 Z M 14.109375 12.796875 "/>
<path style=" stroke:none;fill-rule:nonzero;fill:rgb(54.901963%,54.901963%,54.901963%);fill-opacity:1;" d="M 7.332031 9.878906 C 7.367188 9.878906 7.402344 9.878906 7.4375 9.878906 C 7.4375 9.921875 7.433594 9.96875 7.433594 10.011719 C 7.429688 10.179688 7.425781 10.347656 7.421875 10.515625 C 7.421875 10.589844 7.417969 10.660156 7.417969 10.734375 C 7.402344 11.175781 7.433594 11.53125 7.648438 11.9375 C 7.699219 12.058594 7.699219 12.058594 7.648438 12.210938 C 7.605469 12.121094 7.566406 12.035156 7.523438 11.949219 C 7.5 11.902344 7.476562 11.851562 7.453125 11.804688 C 7.332031 11.535156 7.265625 11.316406 7.265625 11.023438 C 7.265625 10.960938 7.265625 10.902344 7.265625 10.839844 C 7.269531 10.777344 7.269531 10.714844 7.269531 10.652344 C 7.269531 10.589844 7.269531 10.527344 7.269531 10.460938 C 7.273438 9.996094 7.273438 9.996094 7.332031 9.878906 Z M 7.332031 9.878906 "/>
<path style=" stroke:none;fill-rule:nonzero;fill:rgb(51.372552%,51.372552%,51.372552%);fill-opacity:1;" d="M 18.882812 12.714844 C 18.917969 12.78125 18.953125 12.847656 18.988281 12.917969 C 18.914062 12.984375 18.84375 13.050781 18.769531 13.113281 C 18.726562 13.152344 18.6875 13.1875 18.644531 13.226562 C 18.4375 13.378906 18.300781 13.425781 18.039062 13.425781 C 18.039062 13.390625 18.039062 13.359375 18.039062 13.324219 C 18.074219 13.308594 18.109375 13.292969 18.144531 13.277344 C 18.511719 13.105469 18.511719 13.105469 18.832031 12.867188 C 18.847656 12.816406 18.867188 12.765625 18.882812 12.714844 Z M 18.882812 12.714844 "/>
<path style=" stroke:none;fill-rule:nonzero;fill:rgb(53.333336%,53.333336%,53.333336%);fill-opacity:1;" d="M 16.140625 11.550781 C 16.140625 11.566406 16.140625 11.585938 16.140625 11.601562 C 16.109375 11.601562 16.082031 11.601562 16.050781 11.601562 C 15.917969 11.597656 15.785156 11.597656 15.648438 11.597656 C 15.601562 11.597656 15.554688 11.597656 15.507812 11.597656 C 15.464844 11.597656 15.417969 11.597656 15.375 11.597656 C 15.332031 11.597656 15.289062 11.597656 15.25 11.59375 C 15.128906 11.597656 15.128906 11.597656 14.980469 11.652344 C 14.929688 11.636719 14.875 11.617188 14.820312 11.601562 C 14.820312 11.566406 14.820312 11.535156 14.820312 11.5 C 15.234375 11.367188 15.730469 11.425781 16.140625 11.550781 Z M 16.140625 11.550781 "/>
<path style=" stroke:none;fill-rule:nonzero;fill:rgb(50.588238%,50.588238%,50.588238%);fill-opacity:1;" d="M 15.558594 18.492188 C 15.59375 18.507812 15.628906 18.523438 15.664062 18.542969 C 15.609375 18.628906 15.550781 18.71875 15.492188 18.808594 C 15.457031 18.855469 15.425781 18.90625 15.394531 18.957031 C 15.226562 19.203125 15.226562 19.203125 15.136719 19.300781 C 15.105469 19.300781 15.070312 19.300781 15.03125 19.300781 C 15.066406 19.109375 15.160156 18.972656 15.265625 18.8125 C 15.300781 18.761719 15.332031 18.710938 15.367188 18.660156 C 15.453125 18.542969 15.453125 18.542969 15.558594 18.492188 Z M 15.558594 18.492188 "/>
<path style=" stroke:none;fill-rule:nonzero;fill:rgb(50.588238%,50.980395%,51.372552%);fill-opacity:1;" d="M 6.066406 13.019531 C 6.082031 13.019531 6.101562 13.019531 6.117188 13.019531 C 6.136719 13.203125 6.152344 13.386719 6.171875 13.578125 C 6.101562 13.59375 6.03125 13.609375 5.960938 13.628906 C 5.941406 13.695312 5.925781 13.761719 5.90625 13.832031 C 5.890625 13.832031 5.871094 13.832031 5.855469 13.832031 C 5.832031 13.527344 5.925781 13.289062 6.066406 13.019531 Z M 6.066406 13.019531 "/>
<path style=" stroke:none;fill-rule:nonzero;fill:rgb(50.196081%,50.196081%,50.196081%);fill-opacity:1;" d="M 20.324219 10.53125 C 20.367188 10.53125 20.414062 10.53125 20.457031 10.53125 C 20.566406 10.535156 20.675781 10.535156 20.78125 10.539062 C 20.78125 10.554688 20.78125 10.570312 20.78125 10.589844 C 20.707031 10.59375 20.707031 10.59375 20.632812 10.59375 C 20.535156 10.601562 20.535156 10.601562 20.433594 10.605469 C 20.367188 10.609375 20.304688 10.613281 20.238281 10.617188 C 20.050781 10.636719 19.898438 10.675781 19.726562 10.738281 C 19.726562 10.875 19.726562 11.007812 19.726562 11.144531 C 19.570312 10.992188 19.589844 10.851562 19.570312 10.640625 C 19.820312 10.515625 20.050781 10.527344 20.324219 10.53125 Z M 20.324219 10.53125 "/>
<path style=" stroke:none;fill-rule:nonzero;fill:rgb(46.666667%,47.058824%,47.450981%);fill-opacity:1;" d="M 4.429688 10.589844 C 4.484375 10.605469 4.535156 10.621094 4.589844 10.640625 C 4.214844 11.027344 4.214844 11.027344 3.957031 11.09375 C 4.015625 10.921875 4.074219 10.871094 4.214844 10.753906 C 4.25 10.71875 4.285156 10.6875 4.324219 10.65625 C 4.359375 10.632812 4.394531 10.609375 4.429688 10.589844 Z M 4.429688 10.589844 "/>
<path style=" stroke:none;fill-rule:nonzero;fill:rgb(49.411765%,49.411765%,49.803922%);fill-opacity:1;" d="M 3.113281 12.765625 C 3.148438 12.765625 3.183594 12.765625 3.21875 12.765625 C 3.183594 12.949219 3.148438 13.132812 3.113281 13.324219 C 3.058594 13.324219 3.007812 13.324219 2.953125 13.324219 C 2.9375 13.289062 2.917969 13.257812 2.902344 13.222656 C 2.9375 13.222656 2.972656 13.222656 3.007812 13.222656 C 3.003906 13.167969 3.003906 13.109375 3 13.050781 C 3.007812 12.867188 3.007812 12.867188 3.113281 12.765625 Z M 3.113281 12.765625 "/>
<path style=" stroke:none;fill-rule:nonzero;fill:rgb(54.509807%,54.509807%,54.901963%);fill-opacity:1;" d="M 14.136719 18.59375 C 14.171875 18.625 14.207031 18.660156 14.242188 18.695312 C 14.222656 19.007812 14.222656 19.007812 14.105469 19.148438 C 14.082031 19.164062 14.054688 19.183594 14.03125 19.199219 C 13.957031 19.058594 14.003906 18.988281 14.054688 18.839844 C 14.070312 18.792969 14.085938 18.746094 14.101562 18.699219 C 14.113281 18.664062 14.125 18.628906 14.136719 18.59375 Z M 14.136719 18.59375 "/>
<path style=" stroke:none;fill-rule:nonzero;fill:rgb(54.509807%,54.509807%,54.901963%);fill-opacity:1;" d="M 5.222656 6.941406 C 5.257812 6.957031 5.292969 6.972656 5.328125 6.992188 C 5.082031 7.238281 5.082031 7.238281 4.90625 7.296875 C 4.90625 7.226562 4.90625 7.160156 4.90625 7.09375 C 5.007812 7.039062 5.113281 6.988281 5.222656 6.941406 Z M 5.222656 6.941406 "/>
<path style=" stroke:none;fill-rule:nonzero;fill:rgb(58.431375%,58.431375%,58.431375%);fill-opacity:1;" d="M 19.621094 10.589844 C 19.675781 10.605469 19.726562 10.621094 19.78125 10.640625 C 19.757812 10.816406 19.734375 10.976562 19.675781 11.144531 C 19.589844 10.96875 19.550781 10.832031 19.570312 10.640625 C 19.585938 10.621094 19.605469 10.605469 19.621094 10.589844 Z M 19.621094 10.589844 "/>
<path style=" stroke:none;fill-rule:nonzero;fill:rgb(48.627451%,48.627451%,48.627451%);fill-opacity:1;" d="M 7.542969 9.472656 C 7.621094 9.667969 7.566406 9.792969 7.488281 9.980469 C 7.457031 9.945312 7.421875 9.914062 7.382812 9.878906 C 7.410156 9.601562 7.410156 9.601562 7.542969 9.472656 Z M 7.542969 9.472656 "/>
<path style=" stroke:none;fill-rule:nonzero;fill:rgb(54.901963%,54.901963%,54.901963%);fill-opacity:1;" d="M 15.664062 18.136719 C 15.699219 18.152344 15.734375 18.171875 15.769531 18.1875 C 15.757812 18.308594 15.757812 18.308594 15.71875 18.441406 C 15.609375 18.507812 15.609375 18.507812 15.507812 18.542969 C 15.605469 18.25 15.605469 18.25 15.664062 18.136719 Z M 15.664062 18.136719 "/>
<path style=" stroke:none;fill-rule:nonzero;fill:rgb(56.862748%,56.862748%,56.862748%);fill-opacity:1;" d="M 5.90625 13.425781 C 5.941406 13.425781 5.976562 13.425781 6.011719 13.425781 C 6 13.542969 5.980469 13.664062 5.960938 13.78125 C 5.910156 13.804688 5.910156 13.804688 5.855469 13.832031 C 5.847656 13.539062 5.847656 13.539062 5.90625 13.425781 Z M 5.90625 13.425781 "/>
</g>
</svg>
