<?xml version="1.0" encoding="utf-8"?>
<!-- Generator: Adobe Illustrator 24.3.0, SVG Export Plug-In . SVG Version: 6.00 Build 0)  -->
<svg version="1.1" id="Layer_1" xmlns="http://www.w3.org/2000/svg" xmlns:xlink="http://www.w3.org/1999/xlink" x="0px" y="0px"
	 viewBox="0 0 337 261" style="enable-background:new 0 0 337 261;" xml:space="preserve">
<style type="text/css">
	.st0{clip-path:url(#SVGID_2_);}
	.st1{fill:#A6ABE8;}
	.st2{fill:#F5F4FE;}
	.st3{clip-path:url(#SVGID_4_);}
	.st4{fill:#FFFFFF;}
	.st5{clip-path:url(#SVGID_6_);}
	.st6{fill:#E85FA9;}
	.st7{fill-rule:evenodd;clip-rule:evenodd;fill:#E2A500;}
	.st8{fill-rule:evenodd;clip-rule:evenodd;fill:#E85FA9;}
	.st9{clip-path:url(#SVGID_8_);}
	.st10{fill:#5472E8;}
	.st11{fill:#C1CCF8;}
	.st12{fill:#8BA1F6;}
	.st13{clip-path:url(#SVGID_10_);}
	.st14{fill:#66FFF6;}
	.st15{clip-path:url(#SVGID_12_);}
	.st16{fill:#42C1CA;}
	.st17{opacity:0.8;}
	.st18{opacity:0.3;fill-rule:evenodd;clip-rule:evenodd;fill:#4F5277;enable-background:new    ;}
	.st19{fill-rule:evenodd;clip-rule:evenodd;fill:#3B3F70;}
	.st20{fill:#0E0E34;}
	.st21{fill-rule:evenodd;clip-rule:evenodd;fill:#6D71A5;}
	.st22{fill:#6D71A5;}
	.st23{fill:#ACACCE;}
	.st24{fill:#00042E;}
	.st25{fill-rule:evenodd;clip-rule:evenodd;fill:#808080;}
	.st26{fill-rule:evenodd;clip-rule:evenodd;fill:#FFFFFF;}
</style>
<g>
	<defs>
		
			<rect id="SVGID_1_" x="235.1" y="9.1" transform="matrix(0.2589 -0.9659 0.9659 0.2589 159.3224 280.3004)" width="54.4" height="54.4"/>
	</defs>
	<clipPath id="SVGID_2_">
		<use xlink:href="#SVGID_1_"  style="overflow:visible;"/>
	</clipPath>
	<g id="Clip-Path" class="st0">
		<g>
			<path class="st1" d="M255.3,62.6c14.5,3.9,29.4-4.7,33.3-19.2c3.9-14.6-4.7-29.5-19.2-33.4c-14.6-3.8-29.5,4.8-33.4,19.3
				C232.2,43.8,240.8,58.7,255.3,62.6z"/>
			<path class="st2" d="M266.1,22.1l-2.8,10.5l8.4,6.5L266.1,22.1z"/>
			<path class="st2" d="M266.1,22.1L252.8,34l10.5-1.4L266.1,22.1z"/>
			<path class="st2" d="M260.4,43.4l-1.9,7.2l12.8-9.8L260.4,43.4z"/>
			<path class="st2" d="M258.5,50.6l1.9-7.2l-8.1-7.7L258.5,50.6z"/>
			<path class="st2" d="M260.9,41.8l10.8-2.7l-8.4-6.5L260.9,41.8z"/>
			<path class="st2" d="M252.8,34l8.1,7.8l2.4-9.2L252.8,34z"/>
		</g>
	</g>
</g>
<g>
	<defs>
		<rect id="SVGID_3_" x="302.1" y="56" width="28.2" height="28.3"/>
	</defs>
	<clipPath id="SVGID_4_">
		<use xlink:href="#SVGID_3_"  style="overflow:visible;"/>
	</clipPath>
	<g id="Clip-Path_1_" class="st3">
		<g>
			<path class="st1" d="M316.2,84.2c7.8,0,14.1-6.3,14.1-14.1S324,56,316.2,56c-7.8,0-14.1,6.3-14.1,14.1S308.4,84.2,316.2,84.2z"/>
			<path class="st2" d="M318.9,67.4c0.1-0.1,0.1-0.1,0.1-0.2c0.7-1.1,1-2.4,1-3.7c-0.9-0.5-1.8-0.9-2.9-1
				C317.5,64.2,318,65.8,318.9,67.4L318.9,67.4z M313.7,67.1h-0.1l-0.2-0.1l0.2-0.8c0.1,0,0.3,0,0.5,0.1c0.5-1.3,0.9-2.5,1.2-3.8
				c-1.3,0.1-2.6,0.6-3.7,1.5c-1,0.7-1.7,1.6-2.2,2.6c-0.6,1-0.8,2.2-0.9,3.3v0.2c0.9,0.5,1.8,0.8,2.7,0.9
				C312.1,69.8,313,68.5,313.7,67.1z M318.5,68.4c0.1,0.1,0.2,0.2,0.3,0.5c0.1,0.3,0,0.7-0.1,1.1l1,0.2l0.2-1c0.9,1.5,2,3,3.2,4.1
				c-0.2,0.5-0.4,0.7-0.7,1.2c-2-0.7-4.2-1-6.4-1l0.2-0.7l-0.6-0.2c-0.1,0-0.2,0-0.3-0.1c0-0.1,0-0.2,0-0.3l0.4-1.7
				c0.2,0,0.4,0.1,0.6,0.2c0.1,0,0.1,0,0.2,0.1s0.1,0.2,0.1,0.3c0.1,0.2,0,0.5-0.1,0.7l0.8,0.2l0.7-3h-0.1
				C318.1,68.8,318.3,68.6,318.5,68.4L318.5,68.4z M311.3,71.2c0.1,0,0.3,0,0.4,0c0.6,0.1,1.2,0.1,1.8,0c0,0,0,0,0.1,0l-0.1,0.5
				c-0.1,0.1-0.1,0.2-0.2,0.3c-0.1,0-0.1,0-0.1,0c-0.1,0-0.1,0-0.2,0c-0.2-0.1-0.4-0.1-0.6-0.1c-0.1,0.3-0.1,0.5-0.2,0.8l1.4,0.4
				c-0.1,0.2-0.1,0.3-0.1,0.6c-1.2,0.1-2.4,0.4-3.5,0.7c-0.3-0.4-0.5-0.5-0.7-1.1C310,72.7,310.6,71.9,311.3,71.2L311.3,71.2z
				 M314.5,73.3l0.6,0.1v0.1l-0.6,0.1V73.3z M313.4,71c0.1,0,0.1,0,0.2,0l0.7-3.2c0-0.1,0.1-0.3,0-0.4c0-0.1,0-0.1,0-0.1
				c-0.1-0.1-0.1-0.1-0.2-0.1c-0.1-0.1,0,0-0.2-0.1l0,0c-0.7,1.4-1.6,2.7-2.5,3.9c0.1,0,0.1,0,0.3,0C312.3,71.1,312.9,71.1,313.4,71
				z"/>
			<path class="st4" d="M315.1,66.5c0.1-0.5,0.2-0.9,0.3-1.4l0.9,0.2l-0.3,1.4l0.6,0.2c0.1-0.3,0.1-0.5,0.1-0.7l0.1-0.4l0.1-0.3
				l0.9,0.2c0,0.1,0,0.1,0,0.2c-0.1,0.4-0.2,0.8-0.3,1.2l1.1,0.2c-0.8-1.5-1.3-3.1-1.7-4.8c-0.2-0.1-0.4,0-0.6,0h-0.1
				c-0.3,0-0.4-0.1-0.7,0c-0.3,1.3-0.6,2.6-1.2,3.9L315.1,66.5z"/>
			<path class="st4" d="M316.3,67.7l-0.4,1.9c0.3,0.1,0.5,0.2,0.8,0.1c0.1,0,0.1,0,0.2-0.1c0.1-0.1,0.1-0.2,0.2-0.3
				c0.1-0.1,0.1-0.3,0.1-0.5l0.5,0.1c0,0,0,0.1,0,0c0.2-0.2,0.4-0.4,0.6-0.6c-0.3-0.1-0.6-0.2-0.9-0.3L316.3,67.7z M323.2,66.9
				c-0.7-1.4-1.6-2.5-3-3.4c0,1.4-0.4,2.5-1,3.7c-0.1,0.1-0.1,0.1-0.1,0.2c0.4,0.1,0.7,0.2,1.1,0.3l-0.3,1.2c1,1.5,2,3.1,3.3,4.2
				c0.4-0.9,0.6-1.8,0.6-2.9v-0.3C323.8,68.8,323.6,67.8,323.2,66.9L323.2,66.9z M308.5,70.2L308.5,70.2c0,1.2,0.2,2,0.7,2.9
				c0.7-0.6,1.3-1.3,1.8-2C310.1,71,309.3,70.7,308.5,70.2z M316,73.7l-0.4,1.4l-0.9-0.2l0.3-1.2h-0.6l-0.3,1l-0.9-0.2
				c0.1-0.2,0.1-0.4,0.1-0.6c-1.1,0.1-2.2,0.4-3.3,0.7c0.7,0.9,1.6,1.7,2.7,2.3c1,0.5,2.2,0.8,3.3,0.8h0.3c1.2,0,2.4-0.3,3.4-0.9
				c1-0.5,1.9-1.3,2.6-2.2C320.3,74,318.1,73.6,316,73.7L316,73.7z"/>
		</g>
	</g>
</g>
<g>
	<defs>
		<polygon id="SVGID_5_" points="36,49.4 67.3,41 75.7,72.3 44.4,80.7 		"/>
	</defs>
	<clipPath id="SVGID_6_">
		<use xlink:href="#SVGID_5_"  style="overflow:visible;"/>
	</clipPath>
	<g id="Clip-Path_2_" class="st5">
		<g>
			<path class="st1" d="M60.1,76.5c8.6-2.3,13.7-11.2,11.4-19.8C69.2,48,60.3,42.9,51.7,45.2C43,47.5,37.9,56.4,40.2,65.1
				C42.5,73.7,51.4,78.9,60.1,76.5z"/>
			<path class="st2" d="M63.9,62.6l-1.7,3.1c0,0.1,0,0.1-0.1,0.2c-0.1,0-0.1,0-0.2,0.1l-11.3,3c-0.1,0-0.1,0-0.1,0
				c-0.1,0-0.1,0-0.2-0.1c0-0.1,0-0.1,0-0.2c0,0,0,0,0-0.1l1.7-3.1c0.1-0.1,0.1-0.1,0.2-0.2s0.1-0.1,0.2-0.1l11.2-3
				c0.1,0,0.1,0,0.2,0c0,0,0,0,0.1,0.1c0.1,0,0.1,0,0.1,0.1C64,62.5,64,62.5,63.9,62.6z M60.2,58.2c-0.1,0-0.1,0-0.2-0.1
				c-0.1,0-0.1,0-0.2,0.1l-11.3,3c0,0,0,0-0.1,0.1c-0.1,0-0.1,0-0.1,0.1s0,0.1,0.1,0.2c0,0,0,0,0.1,0.1l3,1.8
				c0.1,0.1,0.1,0.1,0.2,0.1c0.1,0,0.1,0,0.2,0l11.3-3c0.1-0.1,0.1-0.1,0.1-0.1c0.1-0.1,0.1-0.1,0.1-0.2c0,0,0,0,0-0.1
				c-0.1-0.1-0.1-0.1-0.1-0.1L60.2,58.2z M48,59.5l11.3-3c0.1,0,0.1,0,0.2-0.1c0.1-0.1,0.1-0.1,0.1-0.2l1.7-3.1
				c0.1-0.1,0.1-0.1,0.1-0.2c0,0,0,0-0.1-0.1c0-0.1,0-0.1-0.1-0.1s-0.1,0-0.2,0l-11.2,3c-0.1,0-0.1,0-0.2,0.1
				c-0.1,0.1-0.1,0.1-0.2,0.2l-1.7,3.1c0,0.1,0,0.1,0,0.2c0,0,0,0,0,0.1c0.1,0.1,0.1,0.1,0.2,0.1C48,59.5,48,59.5,48,59.5z"/>
		</g>
	</g>
</g>
<path class="st6" d="M294,180.9l-2,3.6c-0.1,0.1-0.2,0.2-0.4,0.3l-4,0.8c-0.4,0.1-0.6,0.6-0.3,0.9l2.8,2.8c0.1,0.1,0.2,0.2,0.2,0.4
	l-0.4,4.1c-0.1,0.4,0.3,0.7,0.7,0.5l3.6-1.6c0.2-0.1,0.4-0.1,0.5,0l3.5,2c0.4,0.2,0.9-0.1,0.8-0.6l-0.8-4.4c-0.1-0.2,0-0.3,0.1-0.4
	l2.8-2.8c0.3-0.3,0.1-0.8-0.3-0.9l-4-0.8c-0.1-0.1-0.2-0.2-0.3-0.3l-1.6-3.5C294.7,180.6,294.2,180.6,294,180.9L294,180.9z"/>
<path class="st6" d="M21.6,115.5l-1.1,2.1c-0.1,0.1-0.3,0.2-0.4,0.3l-2.4,0.5c-0.4,0.1-0.6,0.6-0.3,0.9l1.7,1.6
	c0.1,0.1,0.2,0.3,0.1,0.4l-0.2,2.5c0,0.4,0.4,0.7,0.7,0.5l2.2-0.9c0.1-0.1,0.3-0.1,0.5,0l2,1.1c0.4,0.2,0.9-0.1,0.8-0.5l-0.5-2.6
	c0-0.2,0.1-0.4,0.2-0.5l1.6-1.6c0.3-0.3,0.2-0.8-0.3-0.9l-2.3-0.5c-0.2-0.1-0.3-0.2-0.4-0.3l-0.9-2
	C22.4,115.2,21.8,115.1,21.6,115.5z"/>
<path class="st7" d="M2.1,116.7c-1.2,0-2.1-0.9-2.1-2.1s0.9-2.1,2.1-2.1c1.1,0,2.1,0.9,2.1,2.1S3.2,116.7,2.1,116.7z"/>
<path class="st8" d="M6.3,110.4c-0.6,0-1.1-0.5-1.1-1c0-0.6,0.5-1.1,1.1-1.1s1,0.5,1,1.1C7.3,109.9,6.9,110.4,6.3,110.4z"/>
<path class="st7" d="M18.3,165.9c-2.6,0-4.7-2.1-4.7-4.7c0-2.6,2.1-4.7,4.7-4.7s4.7,2.1,4.7,4.7C23,163.8,20.9,165.9,18.3,165.9z"/>
<path class="st8" d="M27.2,163.8c-1.2,0-2.1-0.9-2.1-2.1c0-1.2,0.9-2.1,2.1-2.1s2.1,0.9,2.1,2.1C29.3,162.9,28.4,163.8,27.2,163.8z"
	/>
<path class="st7" d="M307.5,195.2c-1.1,0-2-0.9-2-2.1c0-1.1,0.9-2.1,2-2.1c1.2,0,2.1,1,2.1,2.1C309.6,194.3,308.7,195.2,307.5,195.2
	z"/>
<path class="st7" d="M326.9,185.8c-2.6,0-4.7-2.1-4.7-4.7c0-2.6,2.1-4.7,4.7-4.7s4.7,2.1,4.7,4.7
	C331.6,183.7,329.5,185.8,326.9,185.8z"/>
<path class="st8" d="M313.8,201.5c-0.6,0-1-0.5-1-1.1c0-0.5,0.4-1,1-1s1.1,0.5,1.1,1C314.9,201,314.4,201.5,313.8,201.5z"/>
<g>
	<defs>
		<rect id="SVGID_7_" x="235" y="7" transform="matrix(0.2588 -0.9659 0.9659 0.2588 160.7878 282.5412)" width="59" height="59"/>
	</defs>
	<clipPath id="SVGID_8_">
		<use xlink:href="#SVGID_7_"  style="overflow:visible;"/>
	</clipPath>
	<g id="Clip-Path_3_" class="st9">
		<g>
			<path class="st10" d="M256.9,65c15.7,4.2,31.9-5.1,36.1-20.9c4.2-15.7-5.1-31.9-20.9-36.1c-15.7-4.2-31.9,5.1-36.1,20.9
				C231.8,44.6,241.1,60.8,256.9,65z"/>
			<path class="st11" d="M268.6,21.1l-3,11.4l9.1,7L268.6,21.1z"/>
			<path class="st4" d="M268.6,21.1L254.1,34l11.5-1.5L268.6,21.1z"/>
			<path class="st11" d="M262.4,44.2l-2,7.7l13.8-10.6L262.4,44.2z"/>
			<path class="st4" d="M260.4,51.9l2-7.7l-8.7-8.4L260.4,51.9z"/>
			<path class="st12" d="M262.9,42.4l11.8-2.9l-9.1-7L262.9,42.4z"/>
			<path class="st11" d="M254.1,34l8.8,8.4l2.7-9.9L254.1,34z"/>
		</g>
	</g>
</g>
<g>
	<defs>
		<polygon id="SVGID_9_" points="30.4,44 70,33.4 80.6,73 41,83.6 		"/>
	</defs>
	<clipPath id="SVGID_10_">
		<use xlink:href="#SVGID_9_"  style="overflow:visible;"/>
	</clipPath>
	<g id="Clip-Path_4_" class="st13">
		<g>
			<path d="M60.8,78.3c10.9-2.9,17.4-14.2,14.5-25.1c-2.9-10.9-14.2-17.4-25.1-14.5S32.8,52.9,35.7,63.8S49.9,81.2,60.8,78.3z"/>
			<path class="st14" d="M65.7,60.7l-2.2,3.9c0,0.1,0,0.1-0.1,0.2c-0.1,0.1-0.2,0.1-0.3,0.1l-14.2,3.8c-0.1,0.1-0.1,0.1-0.2,0
				c-0.1,0-0.1,0-0.2-0.1c0-0.1,0-0.1-0.1-0.2c0-0.1,0-0.1,0.1-0.2l2.1-3.9c0.1-0.1,0.1-0.1,0.2-0.2C50.9,64,51,64,51.1,64l14.2-3.8
				c0.1-0.1,0.1-0.1,0.2,0c0.1,0,0.1,0,0.2,0.1c0,0.1,0,0.1,0,0.2C65.8,60.6,65.8,60.6,65.7,60.7z M61,55.2
				c-0.1-0.1-0.2-0.1-0.3-0.1c-0.1-0.1-0.1-0.1-0.2,0l-14.3,3.8c-0.1,0-0.1,0-0.1,0.1C46,59.1,46,59.1,46,59.2c0,0.1,0,0.1,0,0.2
				c0.1,0.1,0.1,0.1,0.1,0.1l3.9,2.3c0.1,0.1,0.2,0.1,0.3,0.1c0.1,0.1,0.2,0.1,0.3,0l14.2-3.8c0.1,0,0.1,0,0.1-0.1
				c0.1-0.1,0.1-0.1,0.1-0.2c0-0.1,0-0.1,0-0.2c-0.1-0.1-0.1-0.1-0.1-0.1L61,55.2z M45.6,56.9l14.2-3.8c0.1-0.1,0.2-0.1,0.3-0.2
				c0.1-0.1,0.1-0.1,0.2-0.2l2.2-3.9c0-0.1,0-0.1,0-0.2c0-0.1,0-0.1-0.1-0.2c0-0.1,0-0.1-0.1-0.1s-0.2,0-0.3,0l-14.2,3.8
				c-0.1,0-0.1,0-0.2,0.1c-0.1,0.1-0.1,0.1-0.2,0.2l-2.2,4c0,0.1,0,0.1,0,0.2s0,0.1,0.1,0.2c0,0,0,0,0.1,0.1
				C45.5,56.9,45.5,56.9,45.6,56.9z"/>
		</g>
	</g>
</g>
<g>
	<defs>
		<rect id="SVGID_11_" x="301" y="55" transform="matrix(0.866 -0.5 0.5 0.866 7.3372 167.3821)" width="30" height="30"/>
	</defs>
	<clipPath id="SVGID_12_">
		<use xlink:href="#SVGID_11_"  style="overflow:visible;"/>
	</clipPath>
	<g id="Clip-Path_5_" class="st15">
		<g>
			<path class="st16" d="M323.5,83c7.2-4.2,9.6-13.3,5.5-20.5c-4.2-7.2-13.3-9.6-20.5-5.5c-7.2,4.2-9.6,13.3-5.5,20.5
				S316.3,87.1,323.5,83z"/>
			<path class="st4" d="M314.3,68c-0.3-1.2-0.6-2.3-0.6-3.1c-0.1-0.4,0-1.4,0.3-2.1c0.4-1.3,1.2-2.1,2.6-2V61v-0.2
				c0.7,0,1.1,0.2,1.2,0.6c0.1,0.2,0,0.6-0.2,0.6c-0.2,0.2-0.4,0.3-0.7,0.2c-0.2,0-0.4-0.1-0.6-0.2c-0.4-0.3-0.6-0.3-0.8-0.2
				c-0.2,0.2-0.3,0.4-0.3,0.5l-0.1,0.3c-0.1,0.2-0.1,0.4-0.1,0.6c0,0.7,0.3,1.8,1,4.1l3-1.2l0.5,1.2l-3,1.2l0.3,0.8v0.2
				c0.1,0.1,0.1,0.2,0.2,0.3l3-1.2l0.5,1.2l-3.1,1.2c0.4,1.6,0.9,3.4,0.9,4.1c0.1,0.4,0,1.4-0.3,2.1c-0.4,1.3-1.3,2.1-2.6,2
				c-0.7,0-1.1-0.2-1.2-0.6c-0.1-0.2,0-0.6,0.2-0.6c0.2-0.2,0.4-0.3,0.7-0.2c0.2,0,0.4,0.1,0.6,0.2c0.4,0.3,0.6,0.3,0.8,0.2
				c0.2-0.2,0.3-0.4,0.3-0.5c0.3-1,0-2.6-1.2-6l-2.9,1.2l-0.5-1.2l3-1.2l-0.3-0.8c-0.1-0.1-0.1-0.3-0.2-0.5l-3,1.2l-0.5-1.2
				L314.3,68z"/>
		</g>
	</g>
</g>
<g class="st17">
	<path class="st18" d="M165.1,245c-38.8,0-70-2.7-70-6s31.2-6,70-6c38.7,0,70,2.7,70,6S203.8,245,165.1,245z"/>
</g>
<path class="st19" d="M79.7,91.6h161.4c7,0,12.7,5.6,12.7,12.6v96.1c0,7-5.7,12.7-12.7,12.7H79.7c-7,0-12.7-5.7-12.7-12.7v-96.1
	C67,97.2,72.7,91.6,79.7,91.6z"/>
<path class="st20" d="M201.4,152.2c0-10.9,8.8-19.6,19.6-19.6h24.1c10.8,0,19.6,8.7,19.6,19.6c0,10.8-8.8,19.6-19.6,19.6H221
	C210.2,171.8,201.4,163,201.4,152.2z"/>
<path class="st21" d="M219,161.8c-5.3,0-9.6-4.3-9.6-9.7c0-5.3,4.3-9.6,9.6-9.6c5.4,0,9.7,4.3,9.7,9.6
	C228.7,157.5,224.4,161.8,219,161.8z"/>
<path class="st22" d="M190.1,32.4l-56.3,10.1c-4.9,0.8-8,5.7-6.6,10.5l11,38.7h74.3l-12.8-53C198.7,34.4,194.5,31.6,190.1,32.4z"/>
<path class="st23" d="M116.5,77.9l8.7,13.8h79.5L184,50.2c-1.9-3.8-6.4-5.6-10.4-4.1l-52.9,19.5C115.7,67.4,113.7,73.4,116.5,77.9z"
	/>
<g id="Layer_1_1_">
</g>
<g>
	<circle class="st24" cx="147.9" cy="150.2" r="36.7"/>
	<g>
		<path class="st25" d="M142.5,118.1c-0.9,0.9-1.4,1.6-2.2,3.2c-1.5,2.9-2,5.8-1.6,8.6c0.2,1.6,0.7,3.3,1.1,3.6
			c0.1,0.1,0.2,0.3,0.2,0.4s0.1,0.3,0.3,0.5c0.3,0.3,0.3,0.3-0.1,0.2c-0.9-0.3-2.2-1.2-3-2.4c-0.7-0.9-1.3-2.6-1.6-4.4
			c-0.1-0.4-0.2-0.6-0.3-0.6c-0.3,0-2.9,1.3-3,1.5c0,0.1-0.1,0.1-0.2,0.1c-0.1,0-0.4,0.1-0.6,0.3c-0.2,0.2-1,0.8-1.7,1.3
			c-1.3,1-3.7,3.3-4.5,4.4c-0.2,0.3-0.5,0.6-0.6,0.7c-0.2,0.2-0.6,0.8-1.4,2.1c-0.5,0.7-1.1,2-1.1,2.1c0,0.1,0.5-0.3,1.2-0.9
			c2.4-1.9,4.2-3,6.4-3.6c2-0.6,2.2-0.5,0.6,0.5c-1.4,1-4.2,3.6-5.1,4.9c-2.5,3.5-4,6.5-4.5,9.4c-0.4,2.1-0.4,6,0,6
			c0.1,0,0.1-0.1,0.1-0.3c0-1.2,1.9-5.3,3.1-7c1.5-1.9,4.2-4.4,4.9-4.4c0.1,0,0,0.1-0.1,0.3c-0.3,0.3-1.2,1.9-1.9,3.2
			c-1.4,2.7-2.4,6.4-2.4,9.2c0,2.4,0.9,5.6,2,7.5c0.3,0.5,0.6,1,0.6,1c0,0.2,2.1,2.4,2.9,3.1c0.7,0.6,1.8,1.3,2.8,1.8
			c1,0.5,2.5,1,2.6,0.9c0,0-0.4-0.6-1.1-1.3c-2-2.2-3.6-4.8-4.4-7.3c-0.6-1.8-0.3-6.2,0.5-7.2c0.2-0.2,0.2-0.2,0.2,0.6
			c0,2,0.9,4.3,2.6,6.4c0.5,0.7,1,1.3,1.1,1.3c0.1,0,0.6,0.6,1.1,1.3c0.6,0.7,1.1,1.3,1.1,1.3c0.6,0.6,3.1,4.1,3.1,4.4
			c0,0.1,0.1,0.2,0.1,0.2c0.2,0.1,1.4,2.7,1.9,4.1c0.3,0.9,0.5,1.8,0.5,2.8c0,0.8,0.1,1.5,0.2,1.5c0.4,0,1.7-2.2,2.2-3.4
			c0.5-1.5,0.6-4.1,0.2-5.7c-0.4-1.5-1.1-3.1-2-4.3c-0.4-0.6-0.7-1-0.6-1c0.6,0,3.8,3,4.4,4.2c0.2,0.3,0.5,0.9,0.7,1.3
			c0.8,1.4,1.2,2.9,1.1,4.9c0,2.4-0.6,4.3-2,6.6c-0.2,0.3-0.4,0.7-0.5,0.9c-0.3,0.4,0.1,0.4,1.3-0.3c2.7-1.5,5.8-4.6,7.3-7.3
			c0.5-0.9,1-3,1-4c0-1.4-0.7-4.1-1.2-4.7c-0.2-0.2-0.2-0.1-0.3,0.6c-0.2,1.7-1.2,4.6-1.3,3.9c-0.4-2.2-0.9-3.5-2-5
			c-1.2-1.8-2.5-2.8-6.7-5.5c-2.7-1.7-3.7-2.4-5.7-4.2c-0.9-0.8-1.9-1.9-2-2.1c0-0.1-0.1-0.2-0.2-0.3c-0.4-0.4-1.2-1.9-1.6-2.8
			c-0.3-0.8-0.4-1.2-0.4-3.1c0-1.9,0.1-2.3,0.4-3.5c0.2-0.7,0.7-1.8,1-2.3c0.6-1,2.1-2.7,3-3.4c0.6-0.5,2.6-1.4,3.2-1.6
			c0.5-0.1,0.5-0.1-0.3,0.7c-2,1.9-3.6,4.5-4.2,6.6c-0.5,1.6-0.5,5.1-0.1,5.1c0.1,0,0.2-0.1,0.2-0.2c0-0.4,0.8-2,1.5-2.9
			c0.4-0.5,1.1-1.3,1.5-1.6c0.4-0.3,0.8-0.7,0.9-0.7c0.1-0.1,2.3-1.2,2.7-1.4c0.4-0.1,0.5-0.1-0.6,1.4c-1.4,2-2.3,4.9-2.1,7.2
			c0.1,1.2,0.8,3.7,1.1,4c0.1,0,0.3,0.4,0.6,0.8c0.6,0.9,1.8,2.1,2.9,2.9c1.2,0.9,1.5,0.9,0.9,0c-0.9-1.3-1.5-4.5-1.1-6.2
			c0.2-1,0.9-2.7,1.2-2.7c0.1,0,0.1,0.4,0.1,0.9c0,2.5,0.8,4.2,3.4,6.7c1,1,2.3,2.3,2.9,2.8c3.1,2.9,4.5,5.3,4.9,8.6
			c0.2,1.8,0.1,3.5-0.4,5c-0.2,0.5-0.2,0.9-0.2,0.9c0.3,0,1.4-1.7,2.1-3c0.7-1.4,1.3-3.9,1.3-5.3c0-1.8-0.6-3.8-1.6-5.3
			c-0.8-1.2-1.6-1.9-3.4-3.3c-2.2-1.7-2.7-2.5-1.9-3.2c0.3-0.3,0.6-0.3,2.1-0.3c1.6,0,1.9,0.1,3.8,0.7c3.2,1,3.6,1.1,5.4,1.1
			c1.4,0,1.8-0.1,2.4-0.3c0.8-0.4,1.9-1.3,1.9-1.6c0-0.1-0.7-0.2-1.5-0.3c-0.9-0.1-2.1-0.4-3.2-0.8c-3-1.1-6.2-2.1-7.1-2.4
			c-0.5-0.1-0.9-0.3-0.9-0.3c0-0.1,0.3-0.2,0.7-0.3c0.8-0.2,2.6,0,3.9,0.5c0.4,0.2,1.6,0.6,2.6,0.9c3.9,1.4,5.9,1.6,7.5,0.9
			c0.8-0.4,1.8-1.2,1.8-1.5c0-0.1-0.3-0.4-0.6-0.7c-0.8-0.7-1.3-1.8-1.2-2.7c0-0.3,1.2-0.6,2.5-0.5l1.2,0.1l-0.4-0.3
			c-0.2-0.2-0.8-0.6-1.2-0.9s-1.1-0.8-1.5-1c-1.3-1-2.8-2-2.9-2.2c-0.1-0.1-0.6-0.5-1.2-0.9c-0.6-0.4-1.1-0.8-1.1-0.8
			c0,0-0.6-0.4-1.3-0.9c-0.7-0.4-1.3-0.9-1.4-1c-0.1-0.1-0.3-0.7-0.4-1.4c-0.3-1.7-0.7-2.5-2.3-4c-2.1-2.1-5.2-4.2-8.5-5.8
			c-1.1-0.5-2.1-1-2.3-1.1c-0.2-0.1-0.4-0.2-0.5-0.2c-0.2,0-0.5-0.6-1-1.6c-0.7-1.5-1.5-2.8-1.7-2.9c-0.1,0-0.1-0.1-0.1-0.2
			c0-0.1-0.5-0.8-1.8-2.3c-0.9-1-2.4-2.4-2.6-2.4C143.2,117.5,142.8,117.7,142.5,118.1 M143.1,121.6c-0.5,0.6-1.2,2.2-1.5,3.3
			c-0.1,0.5-0.2,1.6-0.1,2.6c0.1,1.5,0.1,1.8,0.6,2.7c0.8,1.6,2.7,3.3,2.4,2.2c-0.3-1.2-0.4-2.1-0.3-3.3c0.1-1.3,0.1-1.3,0.5-1.3
			c0.4,0,2.2,0.8,2.6,1.2c0.4,0.4,0.5,0.1,0.3-1.1c-0.2-1.2-1.2-3.5-2.1-4.8c-0.4-0.7-1.7-2-1.8-2
			C143.5,121.2,143.3,121.4,143.1,121.6 M152.2,122.4c-0.5,1-1,2.6-1,3c0,0.2,0.2,0.3,0.6,0.5c1.4,0.5,2.8,1.1,3.8,1.7
			c0.6,0.3,1.1,0.7,1.2,0.7c0.4,0.2-2.2-4.9-2.7-5.4c-0.1-0.1-0.2-0.3-0.2-0.3c0-0.1-0.9-1.2-1-1.2
			C152.7,121.4,152.4,121.8,152.2,122.4 M152.6,136.6l-1.4,0.1l0.7,0.3c2.3,1,2.6,1.2,3.2,2.1c0.9,1.4,1.6,1.7,3.4,1.9
			c1.1,0.1,1.7,0.2,2.3,0.6c1,0.5,1,0.5,1,0.2c0-0.7-3.1-4.4-3.7-4.4c-0.1,0-0.2-0.1-0.2-0.1C158.1,136.7,155.1,136.4,152.6,136.6"
			/>
		<path class="st26" d="M142.1,117.7c-0.9,0.9-1.4,1.6-2.2,3.2c-1.5,2.9-2,5.8-1.6,8.6c0.2,1.6,0.7,3.3,1.1,3.6
			c0.1,0.1,0.2,0.3,0.2,0.4s0.1,0.3,0.3,0.5c0.3,0.3,0.3,0.3-0.1,0.2c-0.9-0.3-2.2-1.2-3-2.4c-0.7-0.9-1.3-2.6-1.6-4.4
			c-0.1-0.4-0.2-0.6-0.3-0.6c-0.3,0-2.9,1.3-3,1.5c0,0.1-0.1,0.1-0.2,0.1c-0.1,0-0.4,0.1-0.6,0.3c-0.2,0.2-1,0.8-1.7,1.3
			c-1.3,1-3.7,3.3-4.5,4.4c-0.2,0.3-0.5,0.6-0.6,0.7c-0.2,0.2-0.6,0.8-1.4,2.1c-0.5,0.7-1.1,2-1.1,2.1c0,0.1,0.5-0.3,1.2-0.9
			c2.4-1.9,4.2-3,6.4-3.6c2-0.6,2.2-0.5,0.6,0.5c-1.4,1-4.2,3.6-5.1,4.9c-2.5,3.5-4,6.5-4.5,9.4c-0.4,2.1-0.4,6,0,6
			c0.1,0,0.1-0.1,0.1-0.3c0-1.2,1.9-5.3,3.1-7c1.5-1.9,4.2-4.4,4.9-4.4c0.1,0,0,0.1-0.1,0.3c-0.3,0.3-1.2,1.9-1.9,3.2
			c-1.4,2.7-2.4,6.4-2.4,9.2c0,2.4,0.9,5.6,2,7.5c0.3,0.5,0.6,1,0.6,1c0,0.2,2.1,2.4,2.9,3.1c0.7,0.6,1.8,1.3,2.8,1.8
			c1,0.5,2.5,1,2.6,0.9c0,0-0.4-0.6-1.1-1.3c-2-2.2-3.6-4.8-4.4-7.3c-0.6-1.8-0.3-6.2,0.5-7.2c0.2-0.2,0.2-0.2,0.2,0.6
			c0,2,0.9,4.3,2.6,6.4c0.5,0.7,1,1.3,1.1,1.3s0.6,0.6,1.1,1.3c0.6,0.7,1.1,1.3,1.1,1.3c0.6,0.6,3.1,4.1,3.1,4.4
			c0,0.1,0.1,0.2,0.1,0.2c0.2,0.1,1.4,2.7,1.9,4.1c0.3,0.9,0.5,1.8,0.5,2.8c0,0.8,0.1,1.5,0.2,1.5c0.4,0,1.7-2.2,2.2-3.4
			c0.5-1.5,0.6-4.1,0.2-5.7c-0.4-1.5-1.1-3.1-2-4.3c-0.4-0.6-0.7-1-0.6-1c0.6,0,3.8,3,4.4,4.2c0.2,0.3,0.5,0.9,0.7,1.3
			c0.8,1.4,1.2,2.9,1.1,4.9c0,2.4-0.6,4.3-2,6.6c-0.2,0.3-0.4,0.7-0.5,0.9c-0.3,0.4,0.1,0.4,1.3-0.3c2.7-1.5,5.8-4.6,7.3-7.3
			c0.5-0.9,1-3,1-4c0-1.4-0.7-4.1-1.2-4.7c-0.2-0.2-0.2-0.1-0.3,0.6c-0.2,1.7-1.2,4.6-1.3,3.9c-0.4-2.2-0.9-3.5-2-5
			c-1.2-1.8-2.5-2.8-6.7-5.5c-2.7-1.7-3.7-2.4-5.7-4.2c-0.9-0.8-1.9-1.9-2-2.1c0-0.1-0.1-0.2-0.2-0.3c-0.4-0.4-1.2-1.9-1.6-2.8
			c-0.3-0.8-0.4-1.2-0.4-3.1c0-1.9,0.1-2.3,0.4-3.5c0.2-0.7,0.7-1.8,1-2.3c0.6-1,2.1-2.7,3-3.4c0.6-0.5,2.6-1.4,3.2-1.6
			c0.5-0.1,0.5-0.1-0.3,0.7c-2,1.9-3.6,4.5-4.2,6.6c-0.5,1.6-0.5,5.1-0.1,5.1c0.1,0,0.2-0.1,0.2-0.2c0-0.4,0.8-2,1.5-2.9
			c0.4-0.5,1.1-1.3,1.5-1.6c0.4-0.3,0.8-0.7,0.9-0.7c0.1-0.1,2.3-1.2,2.7-1.4c0.4-0.1,0.5-0.1-0.6,1.4c-1.4,2-2.3,4.9-2.1,7.2
			c0.1,1.2,0.8,3.7,1.1,4c0.1,0,0.3,0.4,0.6,0.8c0.6,0.9,1.8,2.1,2.9,2.9c1.2,0.9,1.5,0.9,0.9,0c-0.9-1.3-1.5-4.5-1.1-6.2
			c0.2-1,0.9-2.7,1.2-2.7c0.1,0,0.1,0.4,0.1,0.9c0,2.5,0.8,4.2,3.4,6.7c1,1,2.3,2.3,2.9,2.8c3.1,2.9,4.5,5.3,4.9,8.6
			c0.2,1.8,0.1,3.5-0.4,5c-0.2,0.5-0.2,0.9-0.2,0.9c0.3,0,1.4-1.7,2.1-3c0.7-1.4,1.3-3.9,1.3-5.3c0-1.8-0.6-3.8-1.6-5.3
			c-0.8-1.2-1.6-1.9-3.4-3.3c-2.2-1.7-2.7-2.5-1.9-3.2c0.3-0.3,0.6-0.3,2.1-0.3c1.6,0,1.9,0.1,3.8,0.7c3.2,1,3.6,1.1,5.4,1.1
			c1.4,0,1.8-0.1,2.4-0.3c0.8-0.4,1.9-1.3,1.9-1.6c0-0.1-0.7-0.2-1.5-0.3c-0.9-0.1-2.1-0.4-3.2-0.8c-3-1.1-6.2-2.1-7.1-2.4
			c-0.5-0.1-0.9-0.3-0.9-0.3c0-0.1,0.3-0.2,0.7-0.3c0.8-0.2,2.6,0,3.9,0.5c0.4,0.2,1.6,0.6,2.6,0.9c3.9,1.4,5.9,1.6,7.5,0.9
			c0.8-0.4,1.8-1.2,1.8-1.5c0-0.1-0.3-0.4-0.6-0.7c-0.8-0.7-1.3-1.8-1.2-2.7c0-0.3,1.2-0.6,2.5-0.5l1.2,0.1l-0.4-0.3
			c-0.2-0.2-0.8-0.6-1.2-0.9s-1.1-0.8-1.5-1c-1.3-1-2.8-2-2.9-2.2c-0.1-0.1-0.6-0.5-1.2-0.9c-0.6-0.4-1.1-0.8-1.1-0.8
			c0,0-0.6-0.4-1.3-0.9s-1.3-0.9-1.4-1c-0.1-0.1-0.3-0.7-0.4-1.4c-0.3-1.7-0.7-2.5-2.3-4c-2.1-2.1-5.2-4.2-8.5-5.8
			c-1.1-0.5-2.1-1-2.3-1.1c-0.2-0.1-0.4-0.2-0.5-0.2c-0.2,0-0.5-0.6-1-1.6c-0.7-1.5-1.5-2.8-1.7-2.9c-0.1,0-0.1-0.1-0.1-0.2
			c0-0.1-0.5-0.8-1.8-2.3c-0.9-1-2.4-2.4-2.6-2.4C142.9,117.1,142.5,117.4,142.1,117.7 M142.8,121.3c-0.5,0.6-1.2,2.2-1.5,3.3
			c-0.1,0.5-0.2,1.6-0.1,2.6c0.1,1.5,0.1,1.8,0.6,2.7c0.8,1.6,2.7,3.3,2.4,2.2c-0.3-1.2-0.4-2.1-0.3-3.3c0.1-1.3,0.1-1.3,0.5-1.3
			c0.4,0,2.2,0.8,2.6,1.2c0.4,0.4,0.5,0.1,0.3-1.1c-0.2-1.2-1.2-3.5-2.1-4.8c-0.4-0.7-1.7-2-1.8-2
			C143.2,120.9,143,121.1,142.8,121.3 M151.8,122c-0.5,1-1,2.6-1,3c0,0.2,0.2,0.3,0.6,0.5c1.4,0.5,2.8,1.1,3.8,1.7
			c0.6,0.3,1.1,0.7,1.2,0.7c0.4,0.2-2.2-4.9-2.7-5.4c-0.1-0.1-0.2-0.3-0.2-0.3c0-0.1-0.9-1.2-1-1.2C152.3,121,152.1,121.5,151.8,122
			 M152.3,136.2l-1.4,0.1l0.7,0.3c2.3,1,2.6,1.2,3.2,2.1c0.9,1.4,1.6,1.7,3.4,1.9c1.1,0.1,1.7,0.2,2.3,0.6c1,0.5,1,0.5,1,0.2
			c0-0.7-3.1-4.4-3.7-4.4c-0.1,0-0.2-0.1-0.2-0.1C157.8,136.3,154.8,136,152.3,136.2"/>
	</g>
</g>
</svg>
