<?xml version="1.0" encoding="utf-8"?>
<!-- Generator: Adobe Illustrator 24.3.0, SVG Export Plug-In . SVG Version: 6.00 Build 0)  -->
<svg version="1.1" id="Layer_1" xmlns="http://www.w3.org/2000/svg" xmlns:xlink="http://www.w3.org/1999/xlink" x="0px" y="0px"
	 viewBox="0 0 337 261" style="enable-background:new 0 0 337 261;" xml:space="preserve">
<style type="text/css">
	.st0{opacity:0.8;}
	.st1{fill-rule:evenodd;clip-rule:evenodd;fill:#C1C5F8;}
	.st2{fill-rule:evenodd;clip-rule:evenodd;fill:#5D65D3;}
	.st3{fill:#393E82;}
	.st4{fill-rule:evenodd;clip-rule:evenodd;fill:#A6ABE8;}
	.st5{clip-path:url(#SVGID_2_);}
	.st6{fill:#A6ABE8;}
	.st7{fill:#F5F4FE;}
	.st8{clip-path:url(#SVGID_4_);}
	.st9{fill:#FFFFFF;}
	.st10{clip-path:url(#SVGID_6_);}
	.st11{fill:#F195A4;}
	.st12{fill-rule:evenodd;clip-rule:evenodd;fill:#E2A500;}
	.st13{fill-rule:evenodd;clip-rule:evenodd;fill:#F195A4;}
	.st14{fill:#5D65D3;}
	.st15{fill:#E5E2F0;}
	.st16{clip-path:url(#SVGID_8_);}
	.st17{fill:#5472E8;}
	.st18{fill:#C1CCF8;}
	.st19{fill:#8BA1F6;}
	.st20{clip-path:url(#SVGID_10_);}
	.st21{fill:#66FFF6;}
	.st22{clip-path:url(#SVGID_12_);}
	.st23{fill:#42C1CA;}
	.st24{fill:#0037A2;}
	.st25{fill-rule:evenodd;clip-rule:evenodd;fill:#808080;}
	.st26{fill-rule:evenodd;clip-rule:evenodd;fill:#FFFFFF;}
</style>
<g class="st0">
	<path class="st1" d="M166,244.6c-38.7,0-70-2.7-70-6s31.3-6,70-6s70,2.7,70,6S204.7,244.6,166,244.6z"/>
</g>
<path class="st2" d="M79.6,91.2h161.5c7,0,12.6,5.7,12.6,12.7V200c0,7-5.6,12.6-12.6,12.6H79.6c-7,0-12.7-5.6-12.7-12.6v-96.1
	C66.9,96.9,72.6,91.2,79.6,91.2z"/>
<path class="st3" d="M201.3,151.8c0-10.8,8.8-19.6,19.6-19.6H245c10.9,0,19.6,8.8,19.6,19.6s-8.7,19.6-19.6,19.6h-24.1
	C210.1,171.4,201.3,162.6,201.3,151.8L201.3,151.8z"/>
<path class="st4" d="M219,161.4c-5.3,0-9.6-4.3-9.6-9.6c0-5.4,4.3-9.7,9.6-9.7s9.6,4.3,9.6,9.7C228.6,157.1,224.3,161.4,219,161.4z"
	/>
<g>
	<defs>
		
			<rect id="SVGID_1_" x="235.1" y="8.8" transform="matrix(0.2589 -0.9659 0.9659 0.2589 159.6798 280.0262)" width="54.4" height="54.4"/>
	</defs>
	<clipPath id="SVGID_2_">
		<use xlink:href="#SVGID_1_"  style="overflow:visible;"/>
	</clipPath>
	<g id="Clip-Path" class="st5">
		<g>
			<path class="st6" d="M255.3,62.2c14.5,3.9,29.4-4.7,33.3-19.2s-4.7-29.4-19.2-33.3c-14.6-3.9-29.5,4.7-33.4,19.2
				C232.2,43.4,240.8,58.4,255.3,62.2z"/>
			<path class="st7" d="M266.1,21.7l-2.8,10.5l8.4,6.6L266.1,21.7z"/>
			<path class="st7" d="M266.1,21.7l-13.3,12l10.5-1.5L266.1,21.7z"/>
			<path class="st7" d="M260.4,43l-1.9,7.2l12.8-9.8L260.4,43z"/>
			<path class="st7" d="M258.5,50.2l1.9-7.2l-8.1-7.7L258.5,50.2z"/>
			<path class="st7" d="M260.9,41.4l10.8-2.6l-8.4-6.6L260.9,41.4z"/>
			<path class="st7" d="M252.8,33.7l8.1,7.7l2.4-9.2L252.8,33.7z"/>
		</g>
	</g>
</g>
<g>
	<defs>
		<rect id="SVGID_3_" x="302.1" y="55.6" width="28.2" height="28.3"/>
	</defs>
	<clipPath id="SVGID_4_">
		<use xlink:href="#SVGID_3_"  style="overflow:visible;"/>
	</clipPath>
	<g id="Clip-Path_1_" class="st8">
		<g>
			<path class="st6" d="M316.2,83.9c7.8,0,14.1-6.4,14.1-14.2s-6.3-14.1-14.1-14.1c-7.8,0-14.1,6.3-14.1,14.1S308.4,83.9,316.2,83.9
				z"/>
			<path class="st7" d="M318.9,67.1C319,67,319,67,319,66.9c0.7-1.2,1-2.5,1-3.8c-0.9-0.5-1.8-0.9-2.9-1
				C317.5,63.8,318,65.5,318.9,67.1L318.9,67.1z M313.7,66.8h-0.1h-0.2l0.2-0.9c0.1,0,0.3,0,0.5,0.1c0.5-1.2,0.9-2.5,1.2-3.8
				c-1.3,0.2-2.6,0.7-3.7,1.5c-1,0.7-1.7,1.6-2.2,2.6c-0.6,1.1-0.8,2.2-0.9,3.4v0.1c0.9,0.5,1.8,0.8,2.7,0.9
				C312.1,69.5,313,68.2,313.7,66.8z M318.5,68.1c0.1,0.1,0.2,0.2,0.3,0.5c0.1,0.4,0,0.8-0.1,1.1l1,0.3l0.2-1c0.9,1.4,2,2.9,3.2,4.1
				c-0.2,0.5-0.4,0.7-0.7,1.1c-2-0.6-4.2-1-6.4-0.9l0.2-0.8l-0.6-0.1c-0.1-0.1-0.2-0.1-0.3-0.2c0-0.1,0-0.2,0-0.3l0.4-1.7
				c0.2,0.1,0.4,0.1,0.6,0.2c0.1,0,0.1,0,0.2,0.1c0.1,0.1,0.1,0.2,0.1,0.3c0.1,0.2,0,0.5-0.1,0.7l0.8,0.2l0.7-3h-0.1
				C318.1,68.5,318.3,68.3,318.5,68.1L318.5,68.1z M311.3,70.9c0.1,0,0.3,0,0.4,0c0.6,0.1,1.2,0.1,1.8,0c0,0,0,0,0.1,0l-0.1,0.5
				c-0.1,0.1-0.1,0.2-0.2,0.3c-0.1,0-0.1,0-0.1,0.1c-0.1,0-0.1,0-0.2-0.1c-0.2,0-0.4,0-0.6-0.1c-0.1,0.3-0.1,0.6-0.2,0.9l1.4,0.3
				c-0.1,0.3-0.1,0.3-0.1,0.6c-1.2,0.1-2.4,0.4-3.5,0.8c-0.3-0.5-0.5-0.6-0.7-1.1C310,72.4,310.6,71.7,311.3,70.9L311.3,70.9z
				 M314.5,73l0.6,0.2v0.1h-0.6V73z M313.4,70.7c0.1,0,0.1,0,0.2,0l0.7-3.1c0-0.2,0.1-0.3,0-0.5c0-0.1,0-0.1,0-0.1
				c-0.1-0.1-0.1-0.1-0.2-0.1c-0.1,0,0,0-0.2,0l0,0c-0.7,1.3-1.6,2.6-2.5,3.8c0.1,0.1,0.1,0.1,0.3,0.1
				C312.3,70.9,312.9,70.8,313.4,70.7z"/>
			<path class="st9" d="M315.1,66.2c0.1-0.5,0.2-1,0.3-1.5l0.9,0.3l-0.3,1.4l0.6,0.1c0.1-0.2,0.1-0.4,0.1-0.7l0.1-0.4l0.1-0.3
				l0.9,0.2c0,0.1,0,0.1,0,0.2c-0.1,0.4-0.2,0.8-0.3,1.2l1.1,0.3c-0.8-1.6-1.3-3.2-1.7-4.9c-0.2,0-0.4,0-0.6,0h-0.1
				c-0.3,0-0.4,0-0.7,0c-0.3,1.3-0.6,2.7-1.2,3.9L315.1,66.2z"/>
			<path class="st9" d="M316.3,67.4l-0.4,1.9c0.3,0,0.5,0.1,0.8,0.1c0.1-0.1,0.1-0.1,0.2-0.2c0.1-0.1,0.2-0.1,0.2-0.2
				c0.1-0.2,0.1-0.4,0.1-0.5l0.5,0.1l0,0c0.2-0.2,0.4-0.5,0.6-0.7c-0.3-0.1-0.6-0.2-0.9-0.3L316.3,67.4z M323.1,66.7
				c-0.6-1.5-1.6-2.6-2.9-3.4c0,1.3-0.4,2.5-1,3.6c-0.1,0.1-0.1,0.2-0.1,0.3c0.4,0,0.7,0.1,1.1,0.2l-0.3,1.3c1,1.4,2,3,3.3,4.2
				c0.4-0.9,0.6-1.9,0.6-2.9v-0.4C323.8,68.6,323.6,67.6,323.1,66.7z M308.5,70L308.5,70c0,1.1,0.2,1.9,0.7,2.9
				c0.7-0.7,1.3-1.4,1.8-2.1C310.1,70.7,309.3,70.4,308.5,70z M316,73.4l-0.4,1.4l-0.9-0.2l0.3-1.2l-0.6,0.1l-0.3,0.9l-0.9-0.2
				c0.1-0.2,0.1-0.4,0.1-0.6c-1.1,0.1-2.2,0.4-3.3,0.7c0.7,1,1.6,1.7,2.7,2.3c1,0.5,2.2,0.8,3.3,0.8h0.3c1.2,0,2.4-0.3,3.4-0.8
				c1-0.6,1.9-1.3,2.6-2.3C320.3,73.7,318.1,73.4,316,73.4L316,73.4z"/>
		</g>
	</g>
</g>
<g>
	<defs>
		<polygon id="SVGID_5_" points="36,49 67.3,40.6 75.7,72 44.4,80.4 		"/>
	</defs>
	<clipPath id="SVGID_6_">
		<use xlink:href="#SVGID_5_"  style="overflow:visible;"/>
	</clipPath>
	<g id="Clip-Path_2_" class="st10">
		<g>
			<path class="st6" d="M60.1,76.2c8.6-2.3,13.7-11.2,11.4-19.9c-2.3-8.7-11.2-13.8-19.8-11.5C43,47.1,37.9,56,40.2,64.7
				S51.4,78.5,60.1,76.2z"/>
			<path class="st7" d="M63.9,62.2l-1.7,3.1c0,0.1,0,0.1-0.1,0.2s-0.1,0.1-0.2,0.1l-11.3,3c-0.1,0-0.1,0-0.1,0c-0.1,0-0.1,0-0.2-0.1
				c0,0,0,0,0-0.1s0-0.1,0-0.2l1.7-3.1c0.1-0.1,0.1-0.1,0.2-0.2c0.1,0,0.1,0,0.2-0.1l11.2-3c0.1,0,0.1,0,0.2,0c0.1,0,0.1,0,0.1,0.1
				C64,62,64,62,64,62.1C64,62.1,64,62.1,63.9,62.2z M60.2,57.9c-0.1-0.1-0.1-0.1-0.2-0.1c-0.1,0-0.1,0-0.2,0l-11.3,3
				c0,0,0,0-0.1,0.1C48.3,61,48.3,61,48.3,61c0,0.1,0,0.1,0.1,0.2c0,0.1,0,0.1,0.1,0.1l3,1.9c0.1,0,0.1,0,0.2,0c0.1,0,0.1,0,0.2,0
				l11.3-3c0.1,0,0.1,0,0.1-0.1c0.1,0,0.1,0,0.1-0.1s0-0.1,0-0.2c-0.1-0.1-0.1-0.1-0.1-0.1L60.2,57.9z M48,59.2l11.3-3
				c0.1,0,0.1,0,0.2-0.1c0.1-0.1,0.1-0.1,0.1-0.2l1.7-3.1c0.1,0,0.1,0,0.1-0.1c0-0.1,0-0.1-0.1-0.2c0,0,0,0-0.1-0.1
				c-0.1,0-0.1,0-0.2,0l-11.2,3c-0.1,0.1-0.1,0.1-0.2,0.2c-0.1,0-0.1,0-0.2,0.1l-1.7,3.1c0,0.1,0,0.1,0,0.2c0,0.1,0,0.1,0,0.1
				c0.1,0.1,0.1,0.1,0.2,0.1C48,59.3,48,59.3,48,59.2z"/>
		</g>
	</g>
</g>
<path class="st11" d="M294,180.6l-2,3.6c-0.1,0.1-0.2,0.2-0.4,0.2l-4,0.8c-0.4,0.1-0.6,0.6-0.3,0.9l2.8,2.8c0.1,0.1,0.2,0.3,0.2,0.4
	l-0.4,4.1c-0.1,0.4,0.3,0.7,0.7,0.5l3.6-1.6c0.2-0.1,0.4-0.1,0.5,0l3.5,2c0.4,0.2,0.9-0.1,0.8-0.6l-0.8-4.4c-0.1-0.1,0-0.3,0.1-0.4
	l2.8-2.8c0.3-0.3,0.1-0.8-0.3-0.9l-4-0.8c-0.1,0-0.2-0.1-0.3-0.3l-1.6-3.5C294.7,180.2,294.2,180.2,294,180.6L294,180.6z"/>
<path class="st11" d="M21.6,115.1l-1.1,2.2c-0.1,0.1-0.3,0.2-0.4,0.2l-2.4,0.5c-0.4,0.1-0.6,0.6-0.3,0.9l1.7,1.7
	c0.1,0.1,0.2,0.2,0.1,0.4l-0.2,2.4c0,0.4,0.4,0.7,0.7,0.6l2.2-1c0.1-0.1,0.3-0.1,0.5,0l2,1.2c0.4,0.2,0.9-0.2,0.8-0.6l-0.5-2.6
	c0-0.2,0.1-0.4,0.2-0.5l1.6-1.6c0.3-0.3,0.2-0.8-0.3-0.9l-2.3-0.5c-0.2,0-0.3-0.1-0.4-0.3l-0.9-2C22.4,114.8,21.8,114.8,21.6,115.1z
	"/>
<path class="st12" d="M2.1,116.3c-1.2,0-2.1-0.9-2.1-2.1c0-1.1,0.9-2.1,2.1-2.1c1.1,0,2.1,1,2.1,2.1C4.2,115.4,3.2,116.3,2.1,116.3z
	"/>
<path class="st13" d="M6.3,110c-0.6,0-1.1-0.4-1.1-1s0.5-1.1,1.1-1.1s1,0.5,1,1.1S6.9,110,6.3,110z"/>
<path class="st12" d="M18.3,165.5c-2.6,0-4.7-2.1-4.7-4.7c0-2.6,2.1-4.7,4.7-4.7s4.7,2.1,4.7,4.7C23,163.4,20.9,165.5,18.3,165.5z"
	/>
<path class="st13" d="M27.2,163.4c-1.2,0-2.1-0.9-2.1-2.1c0-1.1,0.9-2.1,2.1-2.1s2.1,1,2.1,2.1C29.3,162.5,28.4,163.4,27.2,163.4z"
	/>
<path class="st12" d="M307.5,194.8c-1.1,0-2-0.9-2-2.1c0-1.1,0.9-2.1,2-2.1c1.2,0,2.1,1,2.1,2.1
	C309.6,193.9,308.7,194.8,307.5,194.8z"/>
<path class="st12" d="M326.9,185.4c-2.6,0-4.7-2.1-4.7-4.7c0-2.6,2.1-4.7,4.7-4.7s4.7,2.1,4.7,4.7
	C331.6,183.3,329.5,185.4,326.9,185.4z"/>
<path class="st13" d="M313.8,201.1c-0.6,0-1-0.5-1-1c0-0.6,0.4-1.1,1-1.1s1.1,0.5,1.1,1.1C314.9,200.6,314.4,201.1,313.8,201.1z"/>
<path class="st14" d="M190.1,32l-56.4,10.1c-4.9,0.9-7.9,5.8-6.6,10.5l11.1,38.7h74.3l-12.8-53C198.6,34,194.4,31.2,190.1,32z"/>
<path class="st15" d="M116.5,77.5l8.6,13.8h79.5l-20.7-41.4c-1.9-3.9-6.4-5.6-10.4-4.2l-52.8,19.5C115.7,67.1,113.7,73,116.5,77.5
	L116.5,77.5z"/>
<g>
	<defs>
		<rect id="SVGID_7_" x="235" y="6.6" transform="matrix(0.2588 -0.9659 0.9659 0.2588 161.1452 282.267)" width="59" height="59"/>
	</defs>
	<clipPath id="SVGID_8_">
		<use xlink:href="#SVGID_7_"  style="overflow:visible;"/>
	</clipPath>
	<g id="Clip-Path_3_" class="st16">
		<g>
			<path class="st17" d="M256.9,64.6c15.7,4.2,31.9-5.1,36.1-20.8c4.2-15.8-5.1-31.9-20.9-36.2c-15.7-4.2-31.9,5.2-36.1,20.9
				C231.8,44.2,241.1,60.4,256.9,64.6z"/>
			<path class="st18" d="M268.6,20.7l-3,11.4l9.1,7.1L268.6,20.7z"/>
			<path class="st9" d="M268.6,20.7l-14.5,13l11.5-1.6L268.6,20.7z"/>
			<path class="st18" d="M262.4,43.8l-2,7.8L274.2,41L262.4,43.8z"/>
			<path class="st9" d="M260.4,51.6l2-7.8l-8.7-8.3L260.4,51.6z"/>
			<path class="st19" d="M262.9,42l11.8-2.8l-9.1-7.1L262.9,42z"/>
			<path class="st18" d="M254.1,33.7l8.8,8.3l2.7-9.9L254.1,33.7z"/>
		</g>
	</g>
</g>
<g>
	<defs>
		<polygon id="SVGID_9_" points="30.4,43.6 70,33 80.6,72.6 41,83.2 		"/>
	</defs>
	<clipPath id="SVGID_10_">
		<use xlink:href="#SVGID_9_"  style="overflow:visible;"/>
	</clipPath>
	<g id="Clip-Path_4_" class="st20">
		<g>
			<path d="M60.8,77.9C71.7,75,78.2,63.8,75.3,52.8c-2.9-10.9-14.2-17.4-25.1-14.5c-10.9,3-17.4,14.2-14.5,25.1
				C38.6,74.4,49.9,80.9,60.8,77.9z"/>
			<path class="st21" d="M65.7,60.3l-2.2,3.9c0,0.1,0,0.1-0.1,0.2c-0.1,0.1-0.2,0.1-0.3,0.2l-14.2,3.8c-0.1,0-0.1,0-0.2,0
				c-0.1-0.1-0.1-0.1-0.2-0.1c0-0.1,0-0.1-0.1-0.2c0-0.1,0-0.1,0.1-0.2l2.1-4c0.1-0.1,0.1-0.1,0.2-0.2c0.1-0.1,0.2-0.1,0.3-0.1
				l14.2-3.8c0.1,0,0.1,0,0.2,0s0.1,0,0.2,0.1c0,0.1,0,0.1,0,0.2C65.8,60.2,65.8,60.2,65.7,60.3z M61,54.8c-0.1-0.1-0.2-0.1-0.3-0.1
				c-0.1,0-0.1,0-0.2,0l-14.3,3.8c-0.1,0-0.1,0-0.1,0.1C46,58.7,46,58.7,46,58.8s0,0.1,0,0.2c0.1,0.1,0.1,0.1,0.1,0.1l3.9,2.4
				c0.1,0.1,0.2,0.1,0.3,0.1c0.1,0,0.2,0,0.3,0l14.2-3.8c0.1-0.1,0.1-0.1,0.1-0.2c0.1,0,0.1,0,0.1-0.1s0-0.1,0-0.2
				c-0.1-0.1-0.1-0.1-0.1-0.2L61,54.8z M45.6,56.5l14.2-3.8c0.1,0,0.2,0,0.3-0.1c0.1-0.1,0.1-0.2,0.2-0.3l2.2-3.9c0-0.1,0-0.1,0-0.2
				s0-0.1-0.1-0.2c0-0.1,0-0.1-0.1-0.1c-0.1,0-0.2,0-0.3,0l-14.2,3.8c-0.1,0.1-0.1,0.1-0.2,0.1c-0.1,0.1-0.1,0.2-0.2,0.3L45.2,56
				c0,0.1,0,0.1,0,0.2c0,0.1,0,0.1,0.1,0.2c0,0.1,0,0.1,0.1,0.1S45.5,56.5,45.6,56.5z"/>
		</g>
	</g>
</g>
<g>
	<defs>
		<rect id="SVGID_11_" x="301" y="54.6" transform="matrix(0.866 -0.5 0.5 0.866 7.5222 167.3325)" width="30" height="30"/>
	</defs>
	<clipPath id="SVGID_12_">
		<use xlink:href="#SVGID_11_"  style="overflow:visible;"/>
	</clipPath>
	<g id="Clip-Path_5_" class="st22">
		<g>
			<path class="st23" d="M323.5,82.6c7.2-4.1,9.6-13.3,5.5-20.5c-4.2-7.1-13.3-9.6-20.5-5.5c-7.2,4.2-9.6,13.4-5.5,20.5
				C307.1,84.3,316.3,86.8,323.5,82.6z"/>
			<path class="st9" d="M314.3,67.6c-0.3-1.2-0.6-2.3-0.6-3.1c-0.1-0.4,0-1.3,0.3-2.1c0.4-1.3,1.2-2.1,2.6-2v0.2v-0.2
				c0.7,0,1.1,0.2,1.2,0.6c0.1,0.3,0,0.6-0.2,0.7c-0.2,0.1-0.4,0.2-0.7,0.2c-0.2-0.1-0.4-0.2-0.6-0.3c-0.4-0.3-0.6-0.3-0.8-0.1
				c-0.2,0.1-0.3,0.3-0.3,0.4l-0.1,0.3c-0.1,0.2-0.1,0.4-0.1,0.6c0,0.7,0.3,1.9,1,4.1l3-1.1l0.5,1.1l-3,1.2l0.3,0.8v0.2
				c0.1,0.1,0.1,0.2,0.2,0.3l3-1.2l0.5,1.2l-3.1,1.3c0.4,1.5,0.9,3.3,0.9,4.1c0.1,0.3,0,1.3-0.3,2.1c-0.4,1.3-1.3,2-2.6,2
				c-0.7-0.1-1.1-0.3-1.2-0.6c-0.1-0.3,0-0.7,0.2-0.7c0.2-0.1,0.4-0.2,0.7-0.2c0.2,0,0.4,0.1,0.6,0.3c0.4,0.2,0.6,0.2,0.8,0.1
				c0.2-0.1,0.3-0.4,0.3-0.5c0.3-1,0-2.6-1.2-6l-2.9,1.2l-0.5-1.2l3-1.2l-0.3-0.7c-0.1-0.2-0.1-0.4-0.2-0.6l-3,1.2l-0.5-1.2
				L314.3,67.6z"/>
		</g>
	</g>
</g>
<g id="Layer_1_1_">
</g>
<g>
	<circle class="st24" cx="145.5" cy="150.6" r="36.7"/>
	<g>
		<path class="st25" d="M140.1,118.5c-0.9,0.9-1.4,1.6-2.2,3.2c-1.5,2.9-2,5.8-1.6,8.6c0.2,1.6,0.7,3.3,1.1,3.6
			c0.1,0.1,0.2,0.3,0.2,0.4s0.1,0.3,0.3,0.5c0.3,0.3,0.3,0.3-0.1,0.2c-0.9-0.3-2.2-1.2-3-2.4c-0.7-0.9-1.3-2.6-1.6-4.4
			c-0.1-0.4-0.2-0.6-0.3-0.6c-0.3,0-2.9,1.3-3,1.5c0,0.1-0.1,0.1-0.2,0.1c-0.1,0-0.4,0.1-0.6,0.3c-0.2,0.2-1,0.8-1.7,1.3
			c-1.3,1-3.7,3.3-4.5,4.4c-0.2,0.3-0.5,0.6-0.6,0.7c-0.2,0.2-0.6,0.8-1.4,2.1c-0.5,0.7-1.1,2-1.1,2.1s0.5-0.3,1.2-0.9
			c2.4-1.9,4.2-3,6.4-3.6c2-0.6,2.2-0.5,0.6,0.5c-1.4,1-4.2,3.6-5.1,4.9c-2.5,3.5-4,6.5-4.5,9.4c-0.4,2.1-0.4,6,0,6
			c0.1,0,0.1-0.1,0.1-0.3c0-1.2,1.9-5.3,3.1-7c1.5-1.9,4.2-4.4,4.9-4.4c0.1,0,0,0.1-0.1,0.3c-0.3,0.3-1.2,1.9-1.9,3.2
			c-1.4,2.7-2.4,6.4-2.4,9.2c0,2.4,0.9,5.6,2,7.5c0.3,0.5,0.6,1,0.6,1c0,0.2,2.1,2.4,2.9,3.1c0.7,0.6,1.8,1.3,2.8,1.8s2.5,1,2.6,0.9
			c0,0-0.4-0.6-1.1-1.3c-2-2.2-3.6-4.8-4.4-7.3c-0.6-1.8-0.3-6.2,0.5-7.2c0.2-0.2,0.2-0.2,0.2,0.6c0,2,0.9,4.3,2.6,6.4
			c0.5,0.7,1,1.3,1.1,1.3s0.6,0.6,1.1,1.3c0.6,0.7,1.1,1.3,1.1,1.3c0.6,0.6,3.1,4.1,3.1,4.4c0,0.1,0.1,0.2,0.1,0.2
			c0.2,0.1,1.4,2.7,1.9,4.1c0.3,0.9,0.5,1.8,0.5,2.8c0,0.8,0.1,1.5,0.2,1.5c0.4,0,1.7-2.2,2.2-3.4c0.5-1.5,0.6-4.1,0.2-5.7
			c-0.4-1.5-1.1-3.1-2-4.3c-0.4-0.6-0.7-1-0.6-1c0.6,0,3.8,3,4.4,4.2c0.2,0.3,0.5,0.9,0.7,1.3c0.8,1.4,1.2,2.9,1.1,4.9
			c0,2.4-0.6,4.3-2,6.6c-0.2,0.3-0.4,0.7-0.5,0.9c-0.3,0.4,0.1,0.4,1.3-0.3c2.7-1.5,5.8-4.6,7.3-7.3c0.5-0.9,1-3,1-4
			c0-1.4-0.7-4.1-1.2-4.7c-0.2-0.2-0.2-0.1-0.3,0.6c-0.2,1.7-1.2,4.6-1.3,3.9c-0.4-2.2-0.9-3.5-2-5c-1.2-1.8-2.5-2.8-6.7-5.5
			c-2.7-1.7-3.7-2.4-5.7-4.2c-0.9-0.8-1.9-1.9-2-2.1c0-0.1-0.1-0.2-0.2-0.3c-0.4-0.4-1.2-1.9-1.6-2.8c-0.3-0.8-0.4-1.2-0.4-3.1
			c0-1.9,0.1-2.3,0.4-3.5c0.2-0.7,0.7-1.8,1-2.3c0.6-1,2.1-2.7,3-3.4c0.6-0.5,2.6-1.4,3.2-1.6c0.5-0.1,0.5-0.1-0.3,0.7
			c-2,1.9-3.6,4.5-4.2,6.6c-0.5,1.6-0.5,5.1-0.1,5.1c0.1,0,0.2-0.1,0.2-0.2c0-0.4,0.8-2,1.5-2.9c0.4-0.5,1.1-1.3,1.5-1.6
			s0.8-0.7,0.9-0.7c0.1-0.1,2.3-1.2,2.7-1.4c0.4-0.1,0.5-0.1-0.6,1.4c-1.4,2-2.3,4.9-2.1,7.2c0.1,1.2,0.8,3.7,1.1,4
			c0.1,0,0.3,0.4,0.6,0.8c0.6,0.9,1.8,2.1,2.9,2.9c1.2,0.9,1.5,0.9,0.9,0c-0.9-1.3-1.5-4.5-1.1-6.2c0.2-1,0.9-2.7,1.2-2.7
			c0.1,0,0.1,0.4,0.1,0.9c0,2.5,0.8,4.2,3.4,6.7c1,1,2.3,2.3,2.9,2.8c3.1,2.9,4.5,5.3,4.9,8.6c0.2,1.8,0.1,3.5-0.4,5
			c-0.2,0.5-0.2,0.9-0.2,0.9c0.3,0,1.4-1.7,2.1-3c0.7-1.4,1.3-3.9,1.3-5.3c0-1.8-0.6-3.8-1.6-5.3c-0.8-1.2-1.6-1.9-3.4-3.3
			c-2.2-1.7-2.7-2.5-1.9-3.2c0.3-0.3,0.6-0.3,2.1-0.3c1.6,0,1.9,0.1,3.8,0.7c3.2,1,3.6,1.1,5.4,1.1c1.4,0,1.8-0.1,2.4-0.3
			c0.8-0.4,1.9-1.3,1.9-1.6c0-0.1-0.7-0.2-1.5-0.3c-0.9-0.1-2.1-0.4-3.2-0.8c-3-1.1-6.2-2.1-7.1-2.4c-0.5-0.1-0.9-0.3-0.9-0.3
			c0-0.1,0.3-0.2,0.7-0.3c0.8-0.2,2.6,0,3.9,0.5c0.4,0.2,1.6,0.6,2.6,0.9c3.9,1.4,5.9,1.6,7.5,0.9c0.8-0.4,1.8-1.2,1.8-1.5
			c0-0.1-0.3-0.4-0.6-0.7c-0.8-0.7-1.3-1.8-1.2-2.7c0-0.3,1.2-0.6,2.5-0.5l1.2,0.1l-0.4-0.3c-0.2-0.2-0.8-0.6-1.2-0.9
			s-1.1-0.8-1.5-1c-1.3-1-2.8-2-2.9-2.2c-0.1-0.1-0.6-0.5-1.2-0.9c-0.6-0.4-1.1-0.8-1.1-0.8s-0.6-0.4-1.3-0.9
			c-0.7-0.4-1.3-0.9-1.4-1c-0.1-0.1-0.3-0.7-0.4-1.4c-0.3-1.7-0.7-2.5-2.3-4c-2.1-2.1-5.2-4.2-8.5-5.8c-1.1-0.5-2.1-1-2.3-1.1
			s-0.4-0.2-0.5-0.2c-0.2,0-0.5-0.6-1-1.6c-0.7-1.5-1.5-2.8-1.7-2.9c-0.1,0-0.1-0.1-0.1-0.2s-0.5-0.8-1.8-2.3
			c-0.9-1-2.4-2.4-2.6-2.4C140.8,117.9,140.4,118.1,140.1,118.5 M140.7,122c-0.5,0.6-1.2,2.2-1.5,3.3c-0.1,0.5-0.2,1.6-0.1,2.6
			c0.1,1.5,0.1,1.8,0.6,2.7c0.8,1.6,2.7,3.3,2.4,2.2c-0.3-1.2-0.4-2.1-0.3-3.3c0.1-1.3,0.1-1.3,0.5-1.3s2.2,0.8,2.6,1.2
			c0.4,0.4,0.5,0.1,0.3-1.1c-0.2-1.2-1.2-3.5-2.1-4.8c-0.4-0.7-1.7-2-1.8-2C141.1,121.6,140.9,121.8,140.7,122 M149.8,122.8
			c-0.5,1-1,2.6-1,3c0,0.2,0.2,0.3,0.6,0.5c1.4,0.5,2.8,1.1,3.8,1.7c0.6,0.3,1.1,0.7,1.2,0.7c0.4,0.2-2.2-4.9-2.7-5.4
			c-0.1-0.1-0.2-0.3-0.2-0.3c0-0.1-0.9-1.2-1-1.2C150.3,121.8,150,122.2,149.8,122.8 M150.2,137l-1.4,0.1l0.7,0.3
			c2.3,1,2.6,1.2,3.2,2.1c0.9,1.4,1.6,1.7,3.4,1.9c1.1,0.1,1.7,0.2,2.3,0.6c1,0.5,1,0.5,1,0.2c0-0.7-3.1-4.4-3.7-4.4
			c-0.1,0-0.2-0.1-0.2-0.1C155.7,137.1,152.7,136.8,150.2,137"/>
		<path class="st26" d="M139.7,118.1c-0.9,0.9-1.4,1.6-2.2,3.2c-1.5,2.9-2,5.8-1.6,8.6c0.2,1.6,0.7,3.3,1.1,3.6
			c0.1,0.1,0.2,0.3,0.2,0.4s0.1,0.3,0.3,0.5c0.3,0.3,0.3,0.3-0.1,0.2c-0.9-0.3-2.2-1.2-3-2.4c-0.7-0.9-1.3-2.6-1.6-4.4
			c-0.1-0.4-0.2-0.6-0.3-0.6c-0.3,0-2.9,1.3-3,1.5c0,0.1-0.1,0.1-0.2,0.1c-0.1,0-0.4,0.1-0.6,0.3c-0.2,0.2-1,0.8-1.7,1.3
			c-1.3,1-3.7,3.3-4.5,4.4c-0.2,0.3-0.5,0.6-0.6,0.7c-0.2,0.2-0.6,0.8-1.4,2.1c-0.5,0.7-1.1,2-1.1,2.1s0.5-0.3,1.2-0.9
			c2.4-1.9,4.2-3,6.4-3.6c2-0.6,2.2-0.5,0.6,0.5c-1.4,1-4.2,3.6-5.1,4.9c-2.5,3.5-4,6.5-4.5,9.4c-0.4,2.1-0.4,6,0,6
			c0.1,0,0.1-0.1,0.1-0.3c0-1.2,1.9-5.3,3.1-7c1.5-1.9,4.2-4.4,4.9-4.4c0.1,0,0,0.1-0.1,0.3c-0.3,0.3-1.2,1.9-1.9,3.2
			c-1.4,2.7-2.4,6.4-2.4,9.2c0,2.4,0.9,5.6,2,7.5c0.3,0.5,0.6,1,0.6,1c0,0.2,2.1,2.4,2.9,3.1c0.7,0.6,1.8,1.3,2.8,1.8s2.5,1,2.6,0.9
			c0,0-0.4-0.6-1.1-1.3c-2-2.2-3.6-4.8-4.4-7.3c-0.6-1.8-0.3-6.2,0.5-7.2c0.2-0.2,0.2-0.2,0.2,0.6c0,2,0.9,4.3,2.6,6.4
			c0.5,0.7,1,1.3,1.1,1.3s0.6,0.6,1.1,1.3c0.6,0.7,1.1,1.3,1.1,1.3c0.6,0.6,3.1,4.1,3.1,4.4c0,0.1,0.1,0.2,0.1,0.2
			c0.2,0.1,1.4,2.7,1.9,4.1c0.3,0.9,0.5,1.8,0.5,2.8c0,0.8,0.1,1.5,0.2,1.5c0.4,0,1.7-2.2,2.2-3.4c0.5-1.5,0.6-4.1,0.2-5.7
			c-0.4-1.5-1.1-3.1-2-4.3c-0.4-0.6-0.7-1-0.6-1c0.6,0,3.8,3,4.4,4.2c0.2,0.3,0.5,0.9,0.7,1.3c0.8,1.4,1.2,2.9,1.1,4.9
			c0,2.4-0.6,4.3-2,6.6c-0.2,0.3-0.4,0.7-0.5,0.9c-0.3,0.4,0.1,0.4,1.3-0.3c2.7-1.5,5.8-4.6,7.3-7.3c0.5-0.9,1-3,1-4
			c0-1.4-0.7-4.1-1.2-4.7c-0.2-0.2-0.2-0.1-0.3,0.6c-0.2,1.7-1.2,4.6-1.3,3.9c-0.4-2.2-0.9-3.5-2-5c-1.2-1.8-2.5-2.8-6.7-5.5
			c-2.7-1.7-3.7-2.4-5.7-4.2c-0.9-0.8-1.9-1.9-2-2.1c0-0.1-0.1-0.2-0.2-0.3c-0.4-0.4-1.2-1.9-1.6-2.8c-0.3-0.8-0.4-1.2-0.4-3.1
			c0-1.9,0.1-2.3,0.4-3.5c0.2-0.7,0.7-1.8,1-2.3c0.6-1,2.1-2.7,3-3.4c0.6-0.5,2.6-1.4,3.2-1.6c0.5-0.1,0.5-0.1-0.3,0.7
			c-2,1.9-3.6,4.5-4.2,6.6c-0.5,1.6-0.5,5.1-0.1,5.1c0.1,0,0.2-0.1,0.2-0.2c0-0.4,0.8-2,1.5-2.9c0.4-0.5,1.1-1.3,1.5-1.6
			s0.8-0.7,0.9-0.7c0.1-0.1,2.3-1.2,2.7-1.4c0.4-0.1,0.5-0.1-0.6,1.4c-1.4,2-2.3,4.9-2.1,7.2c0.1,1.2,0.8,3.7,1.1,4
			c0.1,0,0.3,0.4,0.6,0.8c0.6,0.9,1.8,2.1,2.9,2.9c1.2,0.9,1.5,0.9,0.9,0c-0.9-1.3-1.5-4.5-1.1-6.2c0.2-1,0.9-2.7,1.2-2.7
			c0.1,0,0.1,0.4,0.1,0.9c0,2.5,0.8,4.2,3.4,6.7c1,1,2.3,2.3,2.9,2.8c3.1,2.9,4.5,5.3,4.9,8.6c0.2,1.8,0.1,3.5-0.4,5
			c-0.2,0.5-0.2,0.9-0.2,0.9c0.3,0,1.4-1.7,2.1-3c0.7-1.4,1.3-3.9,1.3-5.3c0-1.8-0.6-3.8-1.6-5.3c-0.8-1.2-1.6-1.9-3.4-3.3
			c-2.2-1.7-2.7-2.5-1.9-3.2c0.3-0.3,0.6-0.3,2.1-0.3c1.6,0,1.9,0.1,3.8,0.7c3.2,1,3.6,1.1,5.4,1.1c1.4,0,1.8-0.1,2.4-0.3
			c0.8-0.4,1.9-1.3,1.9-1.6c0-0.1-0.7-0.2-1.5-0.3c-0.9-0.1-2.1-0.4-3.2-0.8c-3-1.1-6.2-2.1-7.1-2.4c-0.5-0.1-0.9-0.3-0.9-0.3
			c0-0.1,0.3-0.2,0.7-0.3c0.8-0.2,2.6,0,3.9,0.5c0.4,0.2,1.6,0.6,2.6,0.9c3.9,1.4,5.9,1.6,7.5,0.9c0.8-0.4,1.8-1.2,1.8-1.5
			c0-0.1-0.3-0.4-0.6-0.7c-0.8-0.7-1.3-1.8-1.2-2.7c0-0.3,1.2-0.6,2.5-0.5l1.2,0.1l-0.4-0.3c-0.2-0.2-0.8-0.6-1.2-0.9
			s-1.1-0.8-1.5-1c-1.3-1-2.8-2-2.9-2.2c-0.1-0.1-0.6-0.5-1.2-0.9c-0.6-0.4-1.1-0.8-1.1-0.8s-0.6-0.4-1.3-0.9s-1.3-0.9-1.4-1
			c-0.1-0.1-0.3-0.7-0.4-1.4c-0.3-1.7-0.7-2.5-2.3-4c-2.1-2.1-5.2-4.2-8.5-5.8c-1.1-0.5-2.1-1-2.3-1.1s-0.4-0.2-0.5-0.2
			c-0.2,0-0.5-0.6-1-1.6c-0.7-1.5-1.5-2.8-1.7-2.9c-0.1,0-0.1-0.1-0.1-0.2s-0.5-0.8-1.8-2.3c-0.9-1-2.4-2.4-2.6-2.4
			C140.5,117.5,140.1,117.8,139.7,118.1 M140.4,121.7c-0.5,0.6-1.2,2.2-1.5,3.3c-0.1,0.5-0.2,1.6-0.1,2.6c0.1,1.5,0.1,1.8,0.6,2.7
			c0.8,1.6,2.7,3.3,2.4,2.2c-0.3-1.2-0.4-2.1-0.3-3.3c0.1-1.3,0.1-1.3,0.5-1.3s2.2,0.8,2.6,1.2c0.4,0.4,0.5,0.1,0.3-1.1
			c-0.2-1.2-1.2-3.5-2.1-4.8c-0.4-0.7-1.7-2-1.8-2C140.8,121.3,140.6,121.5,140.4,121.7 M149.4,122.4c-0.5,1-1,2.6-1,3
			c0,0.2,0.2,0.3,0.6,0.5c1.4,0.5,2.8,1.1,3.8,1.7c0.6,0.3,1.1,0.7,1.2,0.7c0.4,0.2-2.2-4.9-2.7-5.4c-0.1-0.1-0.2-0.3-0.2-0.3
			c0-0.1-0.9-1.2-1-1.2C149.9,121.4,149.7,121.9,149.4,122.4 M149.9,136.6l-1.4,0.1l0.7,0.3c2.3,1,2.6,1.2,3.2,2.1
			c0.9,1.4,1.6,1.7,3.4,1.9c1.1,0.1,1.7,0.2,2.3,0.6c1,0.5,1,0.5,1,0.2c0-0.7-3.1-4.4-3.7-4.4c-0.1,0-0.2-0.1-0.2-0.1
			C155.4,136.7,152.4,136.4,149.9,136.6"/>
	</g>
</g>
</svg>
