<?xml version="1.0" encoding="utf-8"?>
<!-- Generator: Adobe Illustrator 24.3.0, SVG Export Plug-In . SVG Version: 6.00 Build 0)  -->
<svg version="1.1" id="Layer_1" xmlns="http://www.w3.org/2000/svg" xmlns:xlink="http://www.w3.org/1999/xlink" x="0px" y="0px"
	 viewBox="0 0 213.3 177.8" style="enable-background:new 0 0 213.3 177.8;" xml:space="preserve">
<style type="text/css">
	.st0{fill:url(#SVGID_1_);}
	.st1{fill-rule:evenodd;clip-rule:evenodd;fill:#808080;}
	.st2{fill-rule:evenodd;clip-rule:evenodd;fill:#FFFFFF;}
	.st3{fill:#FFFFFF;}
	.st4{fill:url(#SVGID_2_);}
	.st5{fill:url(#SVGID_3_);}
	.st6{fill:#D9CDFE;}
	.st7{fill:url(#SVGID_4_);}
	.st8{fill:url(#SVGID_5_);}
	.st9{fill:url(#SVGID_6_);}
	.st10{fill:url(#SVGID_7_);}
	.st11{fill:url(#SVGID_8_);}
</style>
<g>
	
		<linearGradient id="SVGID_1_" gradientUnits="userSpaceOnUse" x1="88.5632" y1="138.3761" x2="176.3162" y2="79.1818" gradientTransform="matrix(1 0 0 -1 0 177.8898)">
		<stop  offset="0" style="stop-color:#D34255"/>
		<stop  offset="1" style="stop-color:#97358A"/>
	</linearGradient>
	<circle class="st0" cx="130.2" cy="67.6" r="45.2"/>
	<g>
		<path class="st1" d="M125.2,28.1c-1.1,1.1-1.7,1.9-2.7,3.9c-1.8,3.6-2.5,7.1-2,10.6c0.3,2,0.9,4,1.4,4.4c0.2,0.1,0.3,0.3,0.3,0.4
			c0,0.1,0.2,0.4,0.3,0.6c0.3,0.4,0.3,0.4-0.1,0.2c-1.2-0.4-2.7-1.5-3.7-2.9c-0.8-1.1-1.6-3.2-2-5.4c-0.1-0.5-0.2-0.7-0.4-0.7
			c-0.4,0-3.6,1.6-3.6,1.8c0,0.1-0.2,0.2-0.3,0.2c-0.1,0-0.4,0.2-0.7,0.4c-0.3,0.2-1.2,1-2.1,1.6c-1.6,1.2-4.5,4.1-5.5,5.4
			c-0.3,0.4-0.6,0.8-0.7,0.9c-0.2,0.2-0.7,1-1.7,2.6c-0.6,0.9-1.4,2.4-1.4,2.6c0,0.1,0.7-0.4,1.5-1.1c2.9-2.4,5.1-3.6,7.9-4.5
			c2.5-0.8,2.7-0.7,0.8,0.6c-1.7,1.2-5.2,4.5-6.3,6c-3.1,4.3-4.9,8-5.6,11.5c-0.5,2.6-0.5,7.4,0,7.4c0.1,0,0.2-0.2,0.2-0.4
			c0-1.5,2.3-6.5,3.9-8.6c1.9-2.4,5.2-5.4,6-5.4c0.1,0,0,0.2-0.2,0.3c-0.3,0.4-1.5,2.3-2.3,3.9c-1.8,3.3-3,7.9-3,11.3
			c0,2.9,1.1,6.9,2.5,9.3c0.4,0.6,0.7,1.2,0.7,1.2c0,0.2,2.6,3,3.6,3.8c0.9,0.7,2.3,1.6,3.5,2.2s3,1.2,3.2,1c0,0-0.5-0.7-1.3-1.6
			c-2.5-2.7-4.5-5.9-5.5-9c-0.7-2.2-0.3-7.7,0.6-8.9c0.2-0.3,0.3-0.2,0.3,0.7c0,2.5,1.2,5.3,3.2,7.9c0.7,0.8,1.3,1.6,1.3,1.6
			s0.7,0.8,1.4,1.6c0.7,0.8,1.3,1.5,1.4,1.6c0.8,0.7,3.8,5,3.8,5.4c0,0.1,0.1,0.2,0.2,0.3c0.3,0.1,1.7,3.3,2.3,5
			c0.3,1.1,0.6,2.2,0.6,3.4c0.1,1,0.2,1.8,0.2,1.8c0.4,0,2.1-2.7,2.7-4.2c0.6-1.8,0.8-5.1,0.3-7c-0.4-1.8-1.3-3.8-2.4-5.3
			c-0.5-0.7-0.8-1.2-0.7-1.2c0.7,0,4.6,3.7,5.5,5.1c0.2,0.4,0.6,1.1,0.9,1.5c1,1.8,1.4,3.6,1.4,6.1c0,3-0.7,5.3-2.4,8.2
			c-0.2,0.4-0.5,0.9-0.6,1c-0.3,0.5,0.1,0.4,1.6-0.4c3.3-1.8,7.2-5.7,8.9-9c0.6-1.1,1.2-3.7,1.2-4.9c0-1.7-0.9-5-1.5-5.7
			c-0.2-0.2-0.3-0.1-0.4,0.7c-0.3,2.1-1.5,5.6-1.6,4.8c-0.5-2.7-1.1-4.3-2.4-6.2c-1.5-2.2-3-3.4-8.3-6.7c-3.3-2.1-4.5-3-7.1-5.2
			c-1.1-0.9-2.4-2.3-2.4-2.5c0-0.1-0.1-0.3-0.3-0.4c-0.5-0.5-1.5-2.3-2-3.5c-0.4-1-0.5-1.5-0.5-3.9s0.1-2.9,0.5-4.3
			c0.3-0.9,0.9-2.2,1.3-2.9c0.7-1.2,2.6-3.3,3.7-4.2c0.7-0.6,3.2-1.7,4-1.9c0.6-0.1,0.6-0.1-0.4,0.8c-2.4,2.3-4.5,5.5-5.2,8.1
			c-0.6,2-0.6,6.3-0.1,6.3c0.1,0,0.2-0.1,0.2-0.2c0-0.4,1-2.4,1.9-3.5c0.5-0.7,1.3-1.5,1.9-2c0.5-0.4,1-0.8,1.1-0.9
			c0.2-0.2,2.8-1.5,3.4-1.7s0.6-0.2-0.7,1.7c-1.7,2.5-2.8,6.1-2.6,8.9c0.1,1.4,0.9,4.6,1.3,4.9c0.1,0.1,0.4,0.5,0.7,1
			c0.8,1.1,2.2,2.6,3.6,3.6c1.5,1.1,1.9,1.1,1.1,0c-1.1-1.6-1.9-5.5-1.4-7.7c0.3-1.3,1.1-3.3,1.4-3.3c0.1,0,0.2,0.5,0.2,1.1
			c0,3.1,1,5.2,4.2,8.3c1.3,1.3,2.9,2.8,3.6,3.5c3.8,3.5,5.6,6.6,6.1,10.6c0.3,2.3,0.1,4.3-0.5,6.1c-0.2,0.6-0.3,1.1-0.2,1.1
			c0.3,0,1.8-2.1,2.6-3.7c0.8-1.7,1.6-4.8,1.6-6.5c0-2.2-0.8-4.7-2-6.5c-1-1.5-1.9-2.4-4.2-4.1c-2.7-2.1-3.3-3.1-2.3-4
			c0.4-0.3,0.7-0.4,2.5-0.4c1.9,0,2.3,0.1,4.7,0.8c4,1.3,4.4,1.4,6.7,1.4c1.7,0,2.3-0.1,3-0.4c0.9-0.4,2.4-1.7,2.4-2
			c0-0.1-0.8-0.3-1.8-0.4c-1.1-0.1-2.6-0.5-3.9-1c-3.7-1.3-7.6-2.6-8.7-2.9c-0.6-0.1-1-0.3-1-0.4s0.4-0.3,0.8-0.4
			c1-0.3,3.2,0,4.8,0.6c0.5,0.2,2,0.7,3.2,1.2c4.8,1.7,7.3,2,9.3,1.1c1-0.5,2.2-1.5,2.2-1.8c0-0.1-0.3-0.5-0.7-0.9
			c-1-0.9-1.6-2.2-1.5-3.3c0-0.4,1.5-0.7,3-0.7l1.5,0.1l-0.5-0.4c-0.3-0.2-1-0.7-1.5-1.1s-1.4-0.9-1.8-1.3c-1.6-1.2-3.4-2.5-3.6-2.7
			c-0.1-0.1-0.8-0.6-1.5-1c-0.7-0.5-1.3-0.9-1.4-1c-0.1-0.1-0.8-0.5-1.6-1.1c-0.8-0.5-1.6-1.1-1.7-1.2c-0.1-0.1-0.3-0.9-0.5-1.7
			c-0.3-2.1-0.9-3.1-2.8-5c-2.6-2.6-6.4-5.2-10.4-7.2c-1.3-0.7-2.6-1.3-2.8-1.4c-0.2-0.1-0.5-0.2-0.6-0.2c-0.2,0-0.6-0.7-1.2-1.9
			c-0.9-1.9-1.8-3.5-2.1-3.6c-0.1,0-0.1-0.2-0.1-0.3c0-0.2-0.7-1-2.2-2.8c-1-1.2-2.9-2.9-3.2-2.9C126.1,27.4,125.6,27.7,125.2,28.1
			 M125.9,32.5c-0.6,0.8-1.5,2.7-1.8,4c-0.1,0.7-0.2,2-0.2,3.2c0.1,1.9,0.1,2.2,0.7,3.4c1,1.9,3.3,4.1,2.9,2.7
			c-0.4-1.4-0.5-2.6-0.4-4.1c0.1-1.6,0.1-1.6,0.6-1.6s2.7,1,3.2,1.5s0.6,0.1,0.3-1.3c-0.3-1.4-1.5-4.3-2.6-5.9
			c-0.5-0.8-2-2.4-2.3-2.4C126.4,32,126.2,32.2,125.9,32.5 M137.1,33.4c-0.6,1.3-1.2,3.2-1.2,3.7c0,0.2,0.3,0.4,0.7,0.6
			c1.7,0.6,3.4,1.3,4.6,2.1c0.7,0.4,1.4,0.8,1.4,0.9c0.5,0.3-2.7-6-3.4-6.7c-0.1-0.1-0.3-0.3-0.3-0.4c0-0.2-1.1-1.4-1.3-1.4
			C137.7,32.2,137.4,32.7,137.1,33.4 M137.6,50.9l-1.7,0.1l0.9,0.4c2.9,1.2,3.2,1.5,4,2.5c1.1,1.7,2,2.1,4.2,2.3
			c1.4,0.1,2.1,0.3,2.9,0.7c1.2,0.6,1.3,0.6,1.3,0.2c0-0.9-3.8-5.5-4.5-5.5c-0.1,0-0.3-0.1-0.3-0.2C144.4,51,140.7,50.6,137.6,50.9"
			/>
		<path class="st2" d="M124.8,27.7c-1.1,1.1-1.7,1.9-2.7,3.9c-1.8,3.6-2.5,7.1-2,10.6c0.3,2,0.9,4,1.4,4.4c0.2,0.1,0.3,0.3,0.3,0.4
			c0,0.1,0.2,0.4,0.3,0.6c0.3,0.4,0.3,0.4-0.1,0.2c-1.2-0.4-2.7-1.5-3.7-2.9c-0.8-1.1-1.6-3.2-2-5.4c-0.1-0.5-0.2-0.7-0.4-0.7
			c-0.4,0-3.6,1.6-3.6,1.8c0,0.1-0.2,0.2-0.3,0.2c-0.1,0-0.4,0.2-0.7,0.4c-0.3,0.2-1.2,1-2.1,1.6c-1.6,1.2-4.5,4.1-5.5,5.4
			c-0.3,0.4-0.6,0.8-0.7,0.9c-0.2,0.2-0.7,1-1.7,2.6c-0.6,0.9-1.4,2.4-1.4,2.6c0,0.1,0.7-0.4,1.5-1.1c2.9-2.4,5.1-3.6,7.9-4.5
			c2.5-0.8,2.7-0.7,0.8,0.6c-1.7,1.2-5.2,4.5-6.3,6c-3.1,4.3-4.9,8-5.6,11.5c-0.5,2.6-0.5,7.4,0,7.4c0.1,0,0.2-0.2,0.2-0.4
			c0-1.5,2.3-6.5,3.9-8.6c1.9-2.4,5.2-5.4,6-5.4c0.1,0,0,0.2-0.2,0.3c-0.3,0.4-1.5,2.3-2.3,3.9c-1.8,3.3-3,7.9-3,11.3
			c0,2.9,1.1,6.9,2.5,9.3c0.4,0.6,0.7,1.2,0.7,1.2c0,0.2,2.6,3,3.6,3.8c0.9,0.7,2.3,1.6,3.5,2.2s3,1.2,3.2,1c0,0-0.5-0.7-1.3-1.6
			c-2.5-2.7-4.5-5.9-5.5-9c-0.7-2.2-0.3-7.7,0.6-8.9c0.2-0.3,0.3-0.2,0.3,0.7c0,2.5,1.2,5.3,3.2,7.9c0.7,0.8,1.3,1.6,1.3,1.6
			s0.7,0.8,1.4,1.6c0.7,0.8,1.3,1.5,1.4,1.6c0.8,0.7,3.8,5,3.8,5.4c0,0.1,0.1,0.2,0.2,0.3c0.3,0.1,1.7,3.3,2.3,5
			c0.3,1.1,0.6,2.2,0.6,3.4c0.1,1,0.2,1.8,0.2,1.8c0.4,0,2.1-2.7,2.7-4.2c0.6-1.8,0.8-5.1,0.3-7c-0.4-1.8-1.3-3.8-2.4-5.3
			c-0.5-0.7-0.8-1.2-0.7-1.2c0.7,0,4.6,3.7,5.5,5.1c0.2,0.4,0.6,1.1,0.9,1.5c1,1.8,1.4,3.6,1.4,6.1c0,3-0.7,5.3-2.4,8.2
			c-0.2,0.4-0.5,0.9-0.6,1c-0.3,0.5,0.1,0.4,1.6-0.4c3.3-1.8,7.2-5.7,8.9-9c0.6-1.1,1.2-3.7,1.2-4.9c0-1.7-0.9-5-1.5-5.7
			c-0.2-0.2-0.3-0.1-0.4,0.7c-0.3,2.1-1.5,5.6-1.6,4.8c-0.5-2.7-1.1-4.3-2.4-6.2c-1.5-2.2-3-3.4-8.3-6.7c-3.3-2.1-4.5-3-7.1-5.2
			c-1.1-0.9-2.4-2.3-2.4-2.5c0-0.1-0.1-0.3-0.3-0.4c-0.5-0.5-1.5-2.3-2-3.5c-0.4-1-0.5-1.5-0.5-3.9s0.1-2.9,0.5-4.3
			c0.3-0.9,0.9-2.2,1.3-2.9c0.7-1.2,2.6-3.3,3.7-4.2c0.7-0.6,3.2-1.7,4-1.9c0.6-0.1,0.6-0.1-0.4,0.8c-2.4,2.3-4.5,5.5-5.2,8.1
			c-0.6,2-0.6,6.3-0.1,6.3c0.1,0,0.2-0.1,0.2-0.2c0-0.4,1-2.4,1.9-3.5c0.5-0.7,1.3-1.5,1.9-2c0.5-0.4,1-0.8,1.1-0.9
			c0.2-0.2,2.8-1.5,3.4-1.7s0.6-0.2-0.7,1.7c-1.7,2.5-2.8,6.1-2.6,8.9c0.1,1.4,0.9,4.6,1.3,4.9c0.1,0.1,0.4,0.5,0.7,1
			c0.8,1.1,2.2,2.6,3.6,3.6c1.5,1.1,1.9,1.1,1.1,0c-1.1-1.6-1.9-5.5-1.4-7.7c0.3-1.3,1.1-3.3,1.4-3.3c0.1,0,0.2,0.5,0.2,1.1
			c0,3.1,1,5.2,4.2,8.3c1.3,1.3,2.9,2.8,3.6,3.5c3.8,3.5,5.6,6.6,6.1,10.6c0.3,2.3,0.1,4.3-0.5,6.1c-0.2,0.6-0.3,1.1-0.2,1.1
			c0.3,0,1.8-2.1,2.6-3.7c0.8-1.7,1.6-4.8,1.6-6.5c0-2.2-0.8-4.7-2-6.5c-1-1.5-1.9-2.4-4.2-4.1c-2.7-2.1-3.3-3.1-2.3-4
			c0.4-0.3,0.7-0.4,2.5-0.4c1.9,0,2.3,0.1,4.7,0.8c4,1.3,4.4,1.4,6.7,1.4c1.7,0,2.3-0.1,3-0.4c0.9-0.4,2.4-1.7,2.4-2
			c0-0.1-0.8-0.3-1.8-0.4c-1.1-0.1-2.6-0.5-3.9-1c-3.7-1.3-7.6-2.6-8.7-2.9c-0.6-0.1-1-0.3-1-0.4s0.4-0.3,0.8-0.4
			c1-0.3,3.2,0,4.8,0.6c0.5,0.2,2,0.7,3.2,1.2c4.8,1.7,7.3,2,9.3,1.1c1-0.5,2.2-1.5,2.2-1.8c0-0.1-0.3-0.5-0.7-0.9
			c-1-0.9-1.6-2.2-1.5-3.3c0-0.4,1.5-0.7,3-0.7l1.5,0.1l-0.5-0.4c-0.3-0.2-1-0.7-1.5-1.1s-1.4-0.9-1.8-1.3c-1.6-1.2-3.4-2.5-3.6-2.7
			c-0.1-0.1-0.8-0.6-1.5-1s-1.3-0.9-1.4-1c-0.1-0.1-0.8-0.5-1.6-1.1s-1.6-1.1-1.7-1.2c-0.1-0.1-0.3-0.9-0.5-1.7
			c-0.3-2.1-0.9-3.1-2.8-5c-2.6-2.6-6.4-5.2-10.4-7.2c-1.3-0.7-2.6-1.3-2.8-1.4c-0.2-0.1-0.5-0.2-0.6-0.2c-0.2,0-0.6-0.7-1.2-1.9
			c-0.9-1.9-1.8-3.5-2.1-3.6c-0.1,0-0.1-0.2-0.1-0.3c0-0.2-0.7-1-2.2-2.8c-1-1.2-2.9-2.9-3.2-2.9C125.7,27,125.2,27.3,124.8,27.7
			 M125.5,32.1c-0.6,0.8-1.5,2.7-1.8,4c-0.1,0.7-0.2,2-0.2,3.2c0.1,1.9,0.1,2.2,0.7,3.4c1,1.9,3.3,4.1,2.9,2.7
			c-0.4-1.4-0.5-2.6-0.4-4.1c0.1-1.6,0.1-1.6,0.6-1.6s2.7,1,3.2,1.5s0.6,0.1,0.3-1.3c-0.3-1.4-1.5-4.3-2.6-5.9
			c-0.5-0.8-2-2.4-2.3-2.4C126,31.6,125.8,31.8,125.5,32.1 M136.7,33c-0.6,1.3-1.2,3.2-1.2,3.7c0,0.2,0.3,0.4,0.7,0.6
			c1.7,0.6,3.4,1.3,4.6,2.1c0.7,0.4,1.4,0.8,1.4,0.9c0.5,0.3-2.7-6-3.4-6.7c-0.1-0.1-0.3-0.3-0.3-0.4c0-0.2-1.1-1.4-1.3-1.4
			C137.3,31.8,137,32.3,136.7,33 M137.2,50.5l-1.7,0.1l0.9,0.4c2.9,1.2,3.2,1.5,4,2.5c1.1,1.7,2,2.1,4.2,2.3
			c1.4,0.1,2.1,0.3,2.9,0.7c1.2,0.6,1.3,0.6,1.3,0.2c0-0.9-3.8-5.5-4.5-5.5c-0.1,0-0.3-0.1-0.3-0.2C144,50.6,140.3,50.2,137.2,50.5"
			/>
	</g>
</g>
<path class="st3" d="M135.1,107.1v2.5L85.6,92.7l-1.4-1.9L135.1,107.1z"/>
<path class="st3" d="M136,103.8c0,0.1-0.1,0.2-0.1,0.3c0-0.2,0.1-0.4,0.1-0.6C136,103.7,136,103.7,136,103.8z M136.1,103.1v0.4
	C136.1,103.4,136.1,103.2,136.1,103.1L136.1,103.1z"/>
<path class="st3" d="M110.1,118.8c-1.4-1.1-2.9-2-4.6-2.5L84,108.9c-1.8-0.6-3.7-0.9-5.6-1c-2-0.1-3.9,0-5.9,0.4
	c-1.9,0.3-3.8,0.9-5.5,1.6c-1.6,0.7-3.2,1.7-4.5,2.9c-1.1,1-2,2.3-2.6,3.7c-0.5,1.2-0.6,2.5-0.3,3.8s1,2.5,2,3.4
	c1.2,1.1,2.7,2,4.3,2.6l21.8,8.2c2,0.7,4,1.1,6.1,1.3c2.1,0.1,4.3,0,6.4-0.4c2-0.4,4-1,5.9-1.9c1.7-0.8,3.2-1.9,4.5-3.3
	c1.1-1.1,1.9-2.5,2.2-4c0.3-1.3,0.2-2.7-0.3-3.9C112,120.9,111.2,119.7,110.1,118.8L110.1,118.8z"/>
<linearGradient id="SVGID_2_" gradientUnits="userSpaceOnUse" x1="37.4886" y1="-551.9355" x2="96.7687" y2="-635.6255" gradientTransform="matrix(1 0 0 -1 1.000000e-02 -484)">
	<stop  offset="0" style="stop-color:#D34255"/>
	<stop  offset="1" style="stop-color:#97358A"/>
</linearGradient>
<path class="st4" d="M136.9,107.7c1.4,0.4,2.8,1.1,4,2c1,0.7,1.8,1.7,2.4,2.7c0.5,1,0.6,2.1,0.5,3.1c-0.2,1.2-0.8,2.3-1.6,3.2
	l-31.5,36c-1.1,1.3-2.5,2.3-4,3.1c-1.6,0.8-3.4,1.4-5.2,1.8c-1.9,0.4-3.8,0.5-5.7,0.3c-1.9-0.1-3.7-0.5-5.4-1.2l-86.2-35
	c-1.2-0.4-2.2-1.1-3-2.1c-0.7-0.8-1.1-1.7-1.2-2.8c0-1,0.2-2.1,0.7-3c0.6-1.2,1.5-2.2,2.6-3l34.8-28.6c1.1-0.9,2.3-1.6,3.5-2.1
	c2.7-1.1,5.7-1.7,8.6-1.6c1.4,0,2.8,0.3,4.2,0.7L136.9,107.7z M87.8,134.5c2,0.7,4,1.1,6.1,1.3c2.1,0.1,4.3,0,6.4-0.4
	c2-0.4,4-1,5.9-1.9c1.7-0.8,3.2-1.9,4.5-3.3c1.1-1.1,1.9-2.5,2.2-4c0.3-1.3,0.2-2.7-0.3-3.9c-0.5-1.3-1.4-2.5-2.5-3.4
	c-1.4-1.1-2.9-2-4.6-2.5L84,108.9c-1.8-0.6-3.7-0.9-5.6-1c-2-0.1-3.9,0-5.9,0.4c-1.9,0.3-3.8,0.9-5.5,1.6c-1.6,0.7-3.2,1.7-4.5,2.9
	c-1.1,1-2,2.3-2.6,3.7c-0.5,1.2-0.6,2.5-0.3,3.8s1,2.4,2,3.4c1.2,1.1,2.7,2,4.3,2.6L87.8,134.5"/>
<linearGradient id="SVGID_3_" gradientUnits="userSpaceOnUse" x1="2158.7424" y1="-7318.9531" x2="4833.7432" y2="-15928.6533" gradientTransform="matrix(1 0 0 -1 1.000000e-02 -484)">
	<stop  offset="0" style="stop-color:#D34255"/>
	<stop  offset="1" style="stop-color:#97358A"/>
</linearGradient>
<path class="st5" d="M143.8,114.8c0,0.7-0.1,1.4-0.4,2c-0.3,0.7-0.7,1.4-1.2,2l-31.5,36c-1.1,1.3-2.5,2.3-4,3.1
	c-1.6,0.8-3.4,1.4-5.2,1.8c-1.9,0.4-3.8,0.5-5.7,0.3c-1.9-0.1-3.7-0.5-5.4-1.2l-86.2-35c-0.5-0.2-1-0.5-1.5-0.8
	c-0.4-0.3-0.8-0.6-1.2-0.9c-0.3-0.3-0.6-0.7-0.8-1.1s-0.4-0.8-0.5-1.2l4.4,16.7c0.1,0.4,0.3,0.8,0.5,1.2s0.5,0.8,0.8,1.1
	c0.3,0.4,0.7,0.7,1.2,1s1,0.6,1.5,0.8l83.8,35.9c1.7,0.7,3.4,1.1,5.2,1.3c1.8,0.2,3.7,0.1,5.5-0.3c1.7-0.3,3.4-0.9,5-1.8
	c1.5-0.8,2.8-1.8,3.9-3.1l30.4-36.3c0.3-0.3,0.5-0.6,0.7-1c0.4-0.6,0.7-1.3,0.8-2.1c0.1-0.3,0.1-0.7,0.1-1L143.8,114.8L143.8,114.8z
	"/>
<path class="st6" d="M194.2,127.9l0.8,6.1c-0.2-0.1-0.3-0.1-0.5-0.1s-0.3-0.1-0.5-0.1h-0.5c-0.2,0-0.4,0-0.6,0.1l-0.5,0.1l-0.5,0.2
	c-0.1,0.1-0.3,0.2-0.4,0.2c-0.1,0.1-0.3,0.2-0.4,0.3l-0.8-6.1c0.1-0.1,0.2-0.2,0.4-0.3c0.1-0.1,0.3-0.2,0.4-0.2
	c0.2-0.1,0.3-0.1,0.5-0.2s0.4-0.1,0.5-0.1c0.2,0,0.4,0,0.6-0.1h0.6c0.2,0,0.3,0,0.5,0.1C193.9,127.8,194.1,127.9,194.2,127.9
	L194.2,127.9z"/>
<path class="st6" d="M205.7,131.9l0.7,6.1l-11.4-4l-0.8-6.1L205.7,131.9z"/>
<path class="st6" d="M207.6,139.1c0-0.1-0.1-0.2-0.2-0.3c-0.1-0.1-0.2-0.2-0.3-0.3s-0.2-0.2-0.3-0.2c-0.1-0.1-0.3-0.1-0.4-0.2
	l-0.7-6.1c0.2,0.1,0.3,0.1,0.4,0.2c0.1,0.1,0.2,0.2,0.3,0.2c0.1,0.1,0.2,0.2,0.3,0.3s0.1,0.2,0.2,0.3
	C207.2,135,207.4,137.1,207.6,139.1L207.6,139.1z"/>
<path class="st6" d="M190.3,128.6l0.8,6.1l-8.1,7.8l-0.9-6.1L190.3,128.6z"/>
<path class="st6" d="M207.7,139.3v-0.2c-0.2-2-0.4-4.1-0.7-6.1v0.2L207.7,139.3z"/>
<path class="st3" d="M200.1,134.3l0.7,6.1l-6.8-2.5l-0.8-6.1L200.1,134.3z"/>
<path class="st3" d="M193.3,131.8l0.8,6.1l-4.8,4.7l-0.8-6.1L193.3,131.8z"/>
<path class="st3" d="M207,133.2l0.7,6.1c0,0.1,0,0.2,0,0.3s0,0.2-0.1,0.3c0,0.1-0.1,0.2-0.2,0.3c-0.1,0.1-0.2,0.2-0.2,0.3l-0.7-6.1
	c0.1-0.1,0.2-0.2,0.2-0.3c0.1-0.1,0.1-0.2,0.2-0.3c0-0.1,0.1-0.2,0.1-0.3S207,133.3,207,133.2L207,133.2z"/>
<path class="st6" d="M182.5,143.8l-0.9-6.1c0-0.1,0-0.2,0-0.3s0.1-0.2,0.1-0.3c0.1-0.1,0.1-0.2,0.2-0.3c0.1-0.1,0.2-0.2,0.3-0.3
	l0.9,6.1c-0.1,0.1-0.2,0.2-0.3,0.3s-0.1,0.2-0.2,0.3c0,0.1-0.1,0.2-0.1,0.3C182.5,143.5,182.5,143.6,182.5,143.8L182.5,143.8z"/>
<path class="st3" d="M182.5,143.8l-0.9-6.1v0.1c0,0.1,0.1,0.2,0.1,0.3c0.1,0.1,0.1,0.2,0.2,0.3c0.1,0.1,0.2,0.2,0.3,0.2
	c0.1,0.1,0.3,0.1,0.4,0.2l0.9,6.1c-0.1-0.1-0.3-0.1-0.4-0.2c-0.1-0.1-0.2-0.2-0.3-0.3s-0.2-0.2-0.2-0.3
	C182.5,144,182.5,143.9,182.5,143.8L182.5,143.8L182.5,143.8z"/>
<path class="st6" d="M195.3,139l0.8,6.1l-6.8-2.5l-0.9-6.1L195.3,139z"/>
<path class="st6" d="M200.1,134.3l0.7,6.1l-4.8,4.7l-0.8-6.1L200.1,134.3L200.1,134.3z"/>
<linearGradient id="SVGID_4_" gradientUnits="userSpaceOnUse" x1="960.4703" y1="-2247.2546" x2="1165.8702" y2="-2683.6548" gradientTransform="matrix(1 0 0 -1 1.000000e-02 -484)">
	<stop  offset="0" style="stop-color:#4C58CB"/>
	<stop  offset="1" style="stop-color:#68319E"/>
</linearGradient>
<path class="st7" d="M188.4,136.5l4.9-4.6l6.9,2.4l-4.8,4.7L188.4,136.5L188.4,136.5z"/>
<path class="st3" d="M206.5,134.4l0.7,6.1l-8,8l-0.8-6.1L206.5,134.4L206.5,134.4z"/>
<path class="st3" d="M194.4,143.1l0.8,6.1l-11.5-4.3l-0.9-6.1L194.4,143.1L194.4,143.1z"/>
<path class="st3" d="M198.4,142.4l0.8,6.1c-0.2,0.2-0.5,0.4-0.8,0.6c-0.2,0.1-0.3,0.2-0.5,0.2c-0.2,0.1-0.4,0.1-0.5,0.1
	c-0.2,0-0.4,0.1-0.6,0.1h-0.6c-0.2,0-0.4,0-0.5-0.1c-0.2,0-0.3-0.1-0.5-0.1l-0.8-6.1c0.2,0.1,0.3,0.1,0.5,0.1s0.4,0.1,0.5,0.1
	c0.2,0,0.4,0,0.6,0c0.2,0,0.4,0,0.6-0.1c0.2,0,0.4-0.1,0.6-0.1c0.2-0.1,0.3-0.1,0.5-0.2c0.2-0.1,0.3-0.2,0.4-0.3
	C198.2,142.6,198.3,142.5,198.4,142.4L198.4,142.4z"/>
<path class="st3" d="M212.7,133.5l0.6,6.1c0.1,0.6,0.1,1.2,0,1.8s-0.3,1.3-0.5,1.9c-0.3,0.7-0.6,1.3-1,1.9c-0.4,0.7-0.9,1.3-1.5,1.8
	c-1.5,1.5-3.3,2.8-5.3,3.7c-2.1,1-4.4,1.7-6.7,2.2c-2.4,0.4-4.8,0.6-7.2,0.4c-2.3-0.1-4.6-0.6-6.7-1.4c-1-0.4-2-0.9-2.9-1.5
	c-0.8-0.5-1.6-1.1-2.2-1.8c-0.6-0.6-1.1-1.3-1.5-2.1c-0.4-0.7-0.6-1.5-0.7-2.3l-1-6.1c0.1,0.8,0.4,1.5,0.7,2.2
	c0.4,0.8,0.9,1.5,1.5,2.1c0.7,0.7,1.4,1.3,2.2,1.8c0.9,0.6,2,1.1,3,1.5c2.2,0.8,4.5,1.3,6.8,1.4c2.4,0.1,4.8,0,7.2-0.5
	c2.3-0.4,4.6-1.2,6.7-2.2c2-0.9,3.8-2.2,5.3-3.7c0.6-0.6,1.1-1.2,1.5-1.8s0.7-1.2,1-1.9c0.2-0.6,0.4-1.2,0.5-1.9
	C212.7,134.7,212.7,134.1,212.7,133.5L212.7,133.5z"/>
<linearGradient id="SVGID_5_" gradientUnits="userSpaceOnUse" x1="2723.02" y1="-5827.1743" x2="3400.9197" y2="-7223.1743" gradientTransform="matrix(1 0 0 -1 1.000000e-02 -484)">
	<stop  offset="0" style="stop-color:#4C58CB"/>
	<stop  offset="1" style="stop-color:#68319E"/>
</linearGradient>
<path class="st8" d="M204.7,125.4c1.8,0.6,3.5,1.6,5,2.8c1.2,1,2.1,2.3,2.6,3.8c0.5,1.4,0.5,3,0,4.4c-0.6,1.7-1.5,3.2-2.8,4.5
	c-1.5,1.5-3.3,2.8-5.3,3.7c-2.1,1-4.4,1.7-6.7,2.2c-2.4,0.5-4.8,0.6-7.2,0.5c-2.3-0.1-4.6-0.6-6.8-1.4c-1.9-0.6-3.6-1.7-5-3
	c-1.2-1.1-2-2.5-2.4-4c-0.3-1.5-0.2-3,0.3-4.4c0.7-1.7,1.7-3.1,3.1-4.3c1.6-1.4,3.3-2.6,5.3-3.4c2.1-0.9,4.2-1.6,6.4-2
	c2.3-0.4,4.6-0.6,6.9-0.5C200.3,124.4,202.5,124.8,204.7,125.4L204.7,125.4z M198.4,142.4l8.1-8c0.1-0.1,0.2-0.2,0.3-0.3
	s0.1-0.2,0.2-0.4c0.1-0.2,0.1-0.5,0-0.7c0-0.1-0.1-0.2-0.2-0.3c-0.1-0.1-0.2-0.2-0.3-0.3s-0.2-0.2-0.4-0.2c-0.1-0.1-0.3-0.1-0.4-0.2
	l-11.5-4c-0.2-0.1-0.3-0.1-0.5-0.1s-0.3-0.1-0.5-0.1h-0.5c-0.2,0-0.4,0-0.6,0.1c-0.2,0-0.4,0.1-0.5,0.1c-0.2,0-0.3,0.1-0.5,0.2
	c-0.2,0.1-0.3,0.2-0.4,0.2c-0.1,0.1-0.2,0.2-0.4,0.3l-8.2,7.8c-0.1,0.1-0.2,0.2-0.3,0.3s-0.1,0.2-0.2,0.3c0,0.1-0.1,0.2-0.1,0.4
	c0,0.1,0,0.2,0,0.3s0.1,0.2,0.1,0.3c0.1,0.1,0.1,0.2,0.2,0.3c0.1,0.1,0.2,0.2,0.3,0.3s0.3,0.1,0.4,0.2l11.6,4.3
	c0.2,0.1,0.3,0.1,0.5,0.1s0.4,0.1,0.5,0.1c0.2,0,0.4,0,0.6,0c0.2,0,0.4,0,0.6-0.1c0.2,0,0.4-0.1,0.6-0.1c0.2-0.1,0.3-0.1,0.5-0.2
	c0.2-0.1,0.3-0.2,0.4-0.3C198.2,142.6,198.3,142.5,198.4,142.4"/>
<path class="st3" d="M206.9,133c0.1,0.2,0.1,0.5,0,0.7c0,0.1-0.1,0.2-0.2,0.4c-0.1,0.1-0.2,0.2-0.3,0.3l-8.1,8
	c-0.1,0.1-0.2,0.2-0.4,0.3c-0.1,0.1-0.3,0.2-0.4,0.3c-0.2,0.1-0.3,0.1-0.5,0.2c-0.2,0.1-0.4,0.1-0.6,0.1c-0.2,0-0.4,0.1-0.6,0.1
	c-0.2,0-0.4,0-0.6,0c-0.2,0-0.4,0-0.5-0.1c-0.2,0-0.3-0.1-0.5-0.1l-11.6-4.2l-0.4-0.2c-0.1-0.1-0.2-0.2-0.3-0.3s-0.2-0.2-0.2-0.3
	c-0.1-0.1-0.1-0.2-0.1-0.3s0-0.2,0-0.3s0-0.2,0.1-0.4c0-0.1,0.1-0.2,0.2-0.4c0.1-0.1,0.2-0.2,0.3-0.3l8.2-7.8
	c0.1-0.1,0.2-0.2,0.4-0.3c0.1-0.1,0.3-0.2,0.4-0.2c0.2-0.1,0.3-0.1,0.5-0.2s0.3-0.1,0.5-0.1s0.4,0,0.6-0.1h0.5c0.2,0,0.3,0,0.5,0.1
	c0.2,0,0.3,0.1,0.5,0.1l11.4,4c0.2,0,0.3,0.1,0.4,0.2c0.1,0.1,0.2,0.2,0.4,0.2c0.1,0.1,0.2,0.2,0.3,0.3
	C206.8,132.8,206.9,132.9,206.9,133L206.9,133z M195.3,139l4.8-4.7l-6.9-2.4l-4.9,4.6L195.3,139"/>
<path class="st6" d="M160.9,145.1c-0.4-0.1-0.8-0.2-1.3-0.2c-0.9-0.1-1.8,0.1-2.6,0.5c-0.4,0.2-0.7,0.4-1,0.7l-1-7.9
	c0.3-0.3,0.6-0.5,1-0.7s0.8-0.3,1.2-0.4c0.4-0.1,0.9-0.1,1.4-0.1c0.4,0,0.9,0.1,1.3,0.2C160.3,139.9,160.6,142.5,160.9,145.1
	L160.9,145.1z"/>
<path class="st6" d="M162.4,146.6c0-0.2-0.1-0.3-0.1-0.5c-0.1-0.2-0.2-0.3-0.3-0.4c-0.1-0.1-0.3-0.3-0.4-0.4
	c-0.2-0.1-0.4-0.2-0.6-0.3c-0.3-2.6-0.6-5.2-0.9-7.9c0.2,0.1,0.4,0.2,0.6,0.3c0.2,0.1,0.3,0.2,0.5,0.4c0.1,0.1,0.2,0.3,0.3,0.4
	c0.1,0.1,0.1,0.3,0.1,0.4C161.8,141.1,162.1,144.3,162.4,146.6z"/>
<path class="st6" d="M142.2,148.6c-0.1,0.1-0.2,0.2-0.3,0.4c-0.1,0.1-0.2,0.3-0.2,0.4c-0.1,0.1-0.1,0.3-0.1,0.4c0,0.1,0,0.3,0,0.4
	l-1.1-7.9c0-0.1,0-0.3,0-0.4c0-0.1,0.1-0.3,0.1-0.4c0.1-0.1,0.1-0.3,0.2-0.4c0.1-0.1,0.2-0.3,0.3-0.4
	C141.4,143.4,141.8,146,142.2,148.6c-0.4-2.6-0.8-5.2-1.1-7.9c0.3-0.3,0.6-0.5,1-0.7s0.8-0.3,1.3-0.4c0.4-0.1,0.9-0.1,1.3-0.1
	c0.4,0,0.9,0.1,1.3,0.2l1.1,7.9c-0.4-0.1-0.8-0.2-1.2-0.2s-0.9,0-1.3,0.1c-0.4,0.1-0.8,0.2-1.2,0.4
	C142.8,148.1,142.5,148.4,142.2,148.6L142.2,148.6z"/>
<path class="st3" d="M161.5,138.8l0.9,7.9c0,0.1,0,0.2,0,0.4c0,0.1-0.1,0.2-0.1,0.4c0,0.1-0.1,0.3-0.2,0.4c-0.1,0.1-0.2,0.2-0.3,0.4
	l-0.9-7.9c0.1-0.1,0.2-0.2,0.3-0.4c0.2-0.2,0.3-0.5,0.3-0.7C161.5,139,161.5,138.9,161.5,138.8L161.5,138.8z"/>
<path class="st6" d="M151.3,141.8l1,7.9l-5.3-1.9l-1-7.9L151.3,141.8L151.3,141.8z"/>
<path class="st6" d="M155.1,138.1l1,7.9l-3.7,3.6l-1-7.9L155.1,138.1z"/>
<path class="st3" d="M141.5,150.2c-0.4-2.6-0.8-5.2-1.1-7.9c0,0.2,0.1,0.3,0.1,0.4c0.1,0.1,0.2,0.3,0.3,0.4c0.1,0.1,0.3,0.3,0.4,0.4
	c0.2,0.1,0.4,0.2,0.6,0.3l1.1,7.9c-0.2-0.1-0.4-0.2-0.6-0.3c-0.2-0.1-0.3-0.2-0.4-0.4c-0.1-0.1-0.2-0.3-0.3-0.4
	C141.6,150.5,141.6,150.3,141.5,150.2L141.5,150.2z"/>
<path class="st3" d="M160,137.2c0.4,0.1,0.7,0.3,1,0.6c0.2,0.2,0.4,0.5,0.5,0.7c0.1,0.3,0.1,0.6,0,0.8c-0.1,0.3-0.3,0.6-0.6,0.8
	l-3.8,3.7l-5.8-2.1l3.8-3.6c0.3-0.3,0.6-0.5,1-0.7s0.8-0.3,1.2-0.4c0.4-0.1,0.9-0.1,1.3-0.1C159.2,137,159.6,137.1,160,137.2
	L160,137.2z"/>
<path class="st3" d="M160.9,140.2l0.9,7.9l-3.7,3.7l-1-7.9L160.9,140.2z"/>
<path class="st3" d="M157.1,143.9l1,7.9l-5.7-2.1l-1-7.9L157.1,143.9z"/>
<path class="st6" d="M162.6,145.8l0.9,7.9l-5.4-2l-1-7.9L162.6,145.8L162.6,145.8z"/>
<path class="st6" d="M147.2,145.7l1.1,7.9l-3.8,3.7l-1.1-7.9L147.2,145.7z"/>
<path class="st6" d="M143.8,158.9c-0.4-2.6-0.8-5.3-1.1-7.9c0-0.1,0-0.3,0-0.4c0-0.1,0.1-0.3,0.1-0.4c0.1-0.1,0.1-0.3,0.2-0.4
	c0.1-0.1,0.2-0.3,0.3-0.4l1.1,7.9c-0.2,0.2-0.4,0.5-0.5,0.8c-0.1,0.1-0.1,0.3-0.1,0.4S143.8,158.8,143.8,158.9L143.8,158.9z"/>
<path class="st3" d="M143.8,158.9c-0.4-2.6-0.8-5.3-1.1-7.9c0,0.2,0.1,0.3,0.1,0.4c0.1,0.2,0.2,0.3,0.3,0.4c0.1,0.1,0.3,0.3,0.4,0.4
	c0.2,0.1,0.4,0.2,0.6,0.3c0.4,0.2,0.9,0.2,1.3,0.3c0.9,0.1,1.8-0.1,2.7-0.5c0.4-0.2,0.7-0.4,1.1-0.7l1,7.9c-0.3,0.3-0.6,0.5-1,0.7
	s-0.8,0.3-1.3,0.4c-0.5,0.1-0.9,0.1-1.4,0.1c-0.4,0-0.9-0.1-1.3-0.3c-0.2-0.1-0.4-0.2-0.6-0.3c-0.2-0.1-0.3-0.2-0.4-0.4
	c-0.1-0.1-0.2-0.3-0.3-0.4C143.9,159.2,143.8,159.1,143.8,158.9z"/>
<path class="st3" d="M143.4,149.4l3.9-3.7l5.8,2.1l-3.9,3.8c-0.3,0.3-0.6,0.5-1,0.7c-0.8,0.4-1.8,0.5-2.7,0.5
	c-0.4,0-0.9-0.1-1.3-0.3c-0.4-0.1-0.7-0.3-1-0.6c-0.2-0.2-0.4-0.5-0.5-0.8s-0.1-0.6,0-0.8C142.8,150,143,149.7,143.4,149.4
	L143.4,149.4z"/>
<path class="st3" d="M148.1,152.3c0.4-0.2,0.7-0.4,1-0.7l0.3,2.5l4.5,1.7l-1-7.9l-5.8-2.1L148.1,152.3L148.1,152.3L148.1,152.3z"/>
<path class="st6" d="M164.1,147.4l0.9,7.9c0-0.2-0.1-0.3-0.1-0.5c-0.1-0.2-0.2-0.3-0.3-0.4c-0.1-0.2-0.3-0.3-0.5-0.4
	c-0.2-0.1-0.4-0.2-0.6-0.3l-0.9-7.9c0.2,0.1,0.4,0.2,0.6,0.3c0.2,0.1,0.3,0.2,0.5,0.4c0.1,0.1,0.2,0.3,0.3,0.4
	C164.1,147.1,164.1,147.2,164.1,147.4L164.1,147.4z"/>
<path class="st3" d="M162.6,145.8c0.4,0.1,0.7,0.3,1,0.6c0.2,0.2,0.4,0.5,0.5,0.8s0.1,0.6,0,0.8c-0.1,0.3-0.3,0.6-0.6,0.8
	c-0.3,0.3-0.6,0.5-1,0.7c-0.8,0.4-1.7,0.6-2.7,0.5c-0.4,0-0.9-0.1-1.3-0.3l-5.5-2l-5.8-2.1l-5.4-1.9c-0.3-0.1-0.7-0.3-0.9-0.6
	c-0.2-0.2-0.4-0.5-0.5-0.8s0-0.6,0.1-0.8c0.1-0.3,0.3-0.6,0.6-0.8c0.3-0.3,0.6-0.5,1-0.7s0.8-0.3,1.3-0.4c0.4-0.1,0.9-0.1,1.3-0.1
	c0.4,0,0.9,0.1,1.3,0.2l5.4,1.9l5.8,2.1L162.6,145.8L162.6,145.8z"/>
<path class="st3" d="M164.1,147.4l0.9,7.9c0,0.1,0,0.2,0,0.4c0,0.1,0,0.3-0.1,0.4c-0.1,0.1-0.1,0.3-0.2,0.4
	c-0.1,0.1-0.2,0.2-0.3,0.4c-0.3,0.3-0.6,0.5-1,0.7s-0.8,0.3-1.3,0.4c-0.4,0.1-0.9,0.1-1.4,0.1c-0.4,0-0.9-0.1-1.3-0.3l-1-8
	c0.4,0.1,0.9,0.2,1.3,0.3c0.9,0.1,1.8-0.1,2.7-0.5c0.4-0.2,0.7-0.4,1-0.7c0.1-0.1,0.2-0.2,0.3-0.4c0.1-0.1,0.1-0.2,0.2-0.4
	c0-0.1,0.1-0.2,0.1-0.4C164.1,147.6,164.1,147.5,164.1,147.4z"/>
<path class="st3" d="M153,147.8l1,7.9l-3.8,3.8l-1-7.9L153,147.8L153,147.8z"/>
<path class="st3" d="M175.9,142.4l0.8,7.9c0.1,0.8,0.1,1.6-0.1,2.4c-0.1,0.8-0.4,1.7-0.7,2.4c-0.3,0.8-0.8,1.7-1.3,2.4
	c-0.6,0.8-1.2,1.6-1.9,2.4c-2,2-4.3,3.6-6.8,4.8c-2.7,1.3-5.6,2.2-8.6,2.8s-6.1,0.8-9.2,0.6c-3-0.2-5.9-0.8-8.7-1.8
	c-1.3-0.5-2.6-1.1-3.8-1.9c-1.1-0.7-2-1.5-2.9-2.4c-0.8-0.8-1.4-1.7-1.9-2.7c-0.5-0.9-0.8-1.9-1-2.9l-1.2-7.9c0.2,1,0.5,2,1,2.9
	c0.5,1,1.2,1.9,1.9,2.7c0.9,0.9,1.8,1.7,2.9,2.3c1.2,0.8,2.5,1.4,3.8,1.9c2.8,1,5.8,1.7,8.8,1.8c3.1,0.2,6.3,0,9.4-0.6
	c3-0.6,5.9-1.5,8.7-2.8c2.5-1.2,4.9-2.8,6.9-4.8c0.7-0.7,1.4-1.5,2-2.4c0.5-0.8,1-1.6,1.3-2.4c0.3-0.8,0.5-1.6,0.7-2.4
	C176,144,176.1,143.2,175.9,142.4L175.9,142.4z"/>
<linearGradient id="SVGID_6_" gradientUnits="userSpaceOnUse" x1="3420.8503" y1="-7362.5107" x2="4297.0508" y2="-9167.5107" gradientTransform="matrix(1 0 0 -1 1.000000e-02 -484)">
	<stop  offset="0" style="stop-color:#4C58CB"/>
	<stop  offset="1" style="stop-color:#68319E"/>
</linearGradient>
<path class="st9" d="M165.6,131.8c2.4,0.8,4.6,2,6.5,3.6c1.6,1.3,2.8,3,3.4,4.9c0.6,1.8,0.6,3.8,0.1,5.7c-0.7,2.2-2,4.2-3.6,5.8
	c-2,2-4.3,3.6-6.9,4.8c-2.8,1.3-5.7,2.3-8.7,2.8c-3.1,0.6-6.2,0.8-9.4,0.6c-3-0.2-6-0.8-8.8-1.8c-2.4-0.9-4.6-2.2-6.4-3.9
	c-1.5-1.4-2.5-3.2-3-5.2c-0.4-1.9-0.3-3.9,0.4-5.7c0.9-2.1,2.2-4.1,3.9-5.6c2-1.8,4.3-3.3,6.8-4.4c2.7-1.2,5.5-2.1,8.3-2.6
	c2.9-0.5,5.9-0.8,8.9-0.6C160,130.4,162.9,130.9,165.6,131.8L165.6,131.8z M158.5,149.8c0.4,0.2,0.9,0.2,1.3,0.3
	c0.9,0.1,1.8-0.1,2.7-0.5c0.4-0.2,0.7-0.4,1-0.7c0.3-0.2,0.4-0.5,0.6-0.8c0.1-0.3,0.1-0.6,0-0.8c-0.1-0.3-0.3-0.6-0.5-0.8
	c-0.3-0.3-0.6-0.4-1-0.6l-5.4-1.9l3.8-3.7c0.3-0.2,0.4-0.5,0.6-0.8c0.1-0.3,0.1-0.6,0-0.8c-0.1-0.3-0.3-0.5-0.5-0.7
	c-0.3-0.3-0.6-0.4-1-0.6c-0.4-0.1-0.8-0.2-1.3-0.2s-0.9,0-1.4,0.1c-0.4,0.1-0.9,0.2-1.2,0.4c-0.4,0.2-0.7,0.4-1,0.7l-3.8,3.6
	l-5.4-1.9c-0.4-0.1-0.8-0.2-1.3-0.2c-0.4,0-0.9,0-1.3,0.1c-0.4,0.1-0.9,0.2-1.3,0.4c-0.4,0.2-0.7,0.4-1,0.7
	c-0.3,0.2-0.4,0.5-0.6,0.8c-0.1,0.3-0.1,0.6-0.1,0.8c0.1,0.3,0.2,0.5,0.5,0.7c0.3,0.3,0.6,0.4,0.9,0.6l5.4,1.9l-3.9,3.7
	c-0.3,0.2-0.5,0.5-0.6,0.8s-0.1,0.6,0,0.8c0.1,0.3,0.3,0.6,0.5,0.8c0.3,0.3,0.6,0.4,1,0.6c0.4,0.2,0.9,0.2,1.3,0.3
	c0.9,0.1,1.8-0.1,2.7-0.5c0.4-0.2,0.7-0.4,1-0.7l3.9-3.8L158.5,149.8"/>
<linearGradient id="SVGID_7_" gradientUnits="userSpaceOnUse" x1="1050.131" y1="-1599.0859" x2="1292.981" y2="-1858.486" gradientTransform="matrix(1 0 0 -1 1.000000e-02 -484)">
	<stop  offset="0" style="stop-color:#4C58CB"/>
	<stop  offset="1" style="stop-color:#68319E"/>
</linearGradient>
<path class="st10" d="M142.8,150.2L142.8,150.2V150l0,0l0.1-0.1l0.1-0.2l0.1-0.1l0.1-0.1l3.9-3.7l-5.4-1.9l0.9,6.5L142.8,150.2
	L142.8,150.2z"/>
<linearGradient id="SVGID_8_" gradientUnits="userSpaceOnUse" x1="1515.351" y1="-1785.7771" x2="1879.651" y2="-2093.7769" gradientTransform="matrix(1 0 0 -1 1.000000e-02 -484)">
	<stop  offset="0" style="stop-color:#4C58CB"/>
	<stop  offset="1" style="stop-color:#68319E"/>
</linearGradient>
<path class="st11" d="M158.5,149.8l1,7.9l-5.4-2l-1-7.9L158.5,149.8z"/>
</svg>
