<svg id="Layer_1" data-name="Layer 1" xmlns="http://www.w3.org/2000/svg" xmlns:xlink="http://www.w3.org/1999/xlink" viewBox="0 0 213.34 177.84"><defs><linearGradient id="New_Gradient_Swatch_5" x1="103.07" y1="50.03" x2="183.34" y2="50.03" gradientUnits="userSpaceOnUse"><stop offset="0" stop-color="#7a4e9e"/><stop offset="0.51" stop-color="#652d90"/><stop offset="1" stop-color="#49276f"/></linearGradient><linearGradient id="New_Gradient_Swatch_5-2" x1="162.93" y1="80.13" x2="194.33" y2="80.13" xlink:href="#New_Gradient_Swatch_5"/><linearGradient id="New_Gradient_Swatch_5-3" x1="94.31" y1="59.93" x2="101.85" y2="59.93" xlink:href="#New_Gradient_Swatch_5"/><linearGradient id="New_Gradient_Swatch_5-4" x1="97.23" y1="86.98" x2="123.37" y2="86.98" xlink:href="#New_Gradient_Swatch_5"/><linearGradient id="New_Gradient_Swatch_5-5" x1="103.12" y1="27.23" x2="121.87" y2="27.23" xlink:href="#New_Gradient_Swatch_5"/><linearGradient id="linear-gradient" x1="37.44" y1="112.03" x2="96.72" y2="28.34" gradientTransform="matrix(1, 0, 0, -1, 0, 183.89)" gradientUnits="userSpaceOnUse"><stop offset="0" stop-color="#d34255"/><stop offset="1" stop-color="#97358a"/></linearGradient><linearGradient id="linear-gradient-2" x1="2158.72" y1="-6654.96" x2="4833.72" y2="-15264.66" xlink:href="#linear-gradient"/><linearGradient id="linear-gradient-3" x1="960.48" y1="-1583.25" x2="1165.88" y2="-2019.65" gradientTransform="matrix(1, 0, 0, -1, 0, 183.89)" gradientUnits="userSpaceOnUse"><stop offset="0" stop-color="#4c58cb"/><stop offset="1" stop-color="#68319e"/></linearGradient><linearGradient id="linear-gradient-4" x1="2723.09" y1="-5163.14" x2="3400.99" y2="-6559.14" xlink:href="#linear-gradient-3"/><linearGradient id="linear-gradient-5" x1="3420.79" y1="-6698.54" x2="4296.99" y2="-8503.54" xlink:href="#linear-gradient-3"/><linearGradient id="linear-gradient-6" x1="1050.18" y1="-935.04" x2="1293.03" y2="-1194.44" xlink:href="#linear-gradient-3"/><linearGradient id="linear-gradient-7" x1="1515.34" y1="-1121.79" x2="1879.64" y2="-1429.79" xlink:href="#linear-gradient-3"/></defs><path d="M198,61.09a5.44,5.44,0,0,0,.15-.54,2,2,0,0,0-1-1.36c-.94-.48-2.07-.55-3-1-3.89-1.82-5.82-5.64-7.22-9.5q-1.32-3.6-2.43-7.27c.14-.54.27-1.09.39-1.63s.24-1.1.34-1.65.19-1.11.27-1.66.16-1.11.22-1.67.12-1.11.16-1.67.08-1.12.1-1.68,0-1.12,0-1.68,0-1.12,0-1.68,0-1.12-.08-1.68-.08-1.12-.14-1.68-.12-1.11-.19-1.67-.16-1.11-.26-1.66-.19-1.1-.31-1.65-.23-1.1-.37-1.64-.27-1.09-.43-1.63-.31-1.07-.48-1.61a37.25,37.25,0,0,0-3.25-7.57A6.44,6.44,0,0,0,176.82,4a4.05,4.05,0,0,0-1.25-.11,5,5,0,0,0-1.6.43,20.46,20.46,0,0,0-3.44,2.27,107.68,107.68,0,0,0-14.38,13.2,64.65,64.65,0,0,0-25.7-.05C126.75,16,115.6,4.14,110.59,4a4.78,4.78,0,0,0-3.42,1.55A16,16,0,0,0,104,10.9c-.16.39-.31.78-.46,1.17s-.29.78-.43,1.18-.28.79-.41,1.18-.25.8-.37,1.2-.23.8-.34,1.21-.21.8-.31,1.21-.2.81-.29,1.22-.17.82-.25,1.23-.15.82-.22,1.23-.13.83-.19,1.24-.11.83-.15,1.25-.09.83-.13,1.24-.07.84-.09,1.25,0,.84-.07,1.25,0,.84,0,1.26,0,.83,0,1.25a50.26,50.26,0,0,0,1.37,12C100.19,47.34,97.7,55.34,93,57.86a13.51,13.51,0,0,1-5.27,1.31c1.49,4.18,2.73,6.08,6.41,8.65a25.35,25.35,0,0,0-3.34,5c.64,2.87,1.07,5.77,1.91,8.6a64.91,64.91,0,0,0,14.77,25.19c1.39,1.49,2.89,2.87,4.39,4.26a88.68,88.68,0,0,0,20.88,13.9c1.62.78,3.27,1.47,4.92,2.19s3.8,2.09,5.7,2,4.84-1.74,6.57-2.52a88.51,88.51,0,0,0,25-16.18,71,71,0,0,0,6.54-6.78,62.75,62.75,0,0,0,13-24.88,16.92,16.92,0,0,0,.92-5.26c-.19-2.18-2.26-4-3.41-5.68A12.5,12.5,0,0,0,198,61.09Z" transform="translate(0.01 -3.89)" style="fill:#361e21"/><path d="M92.09,61.34c.38-.08.77-.16,1.14-.27,3.55-1.07,6.11-4.57,7.65-7.76.46-1,.75-2,1.25-2.94l0-.08c-.28,1.44-.53,2.88-.74,4.33-1.4,2.73-2.87,6.24-6,7.26-.35.12-.72.22-1.08.32A7,7,0,0,0,98.62,65a4.12,4.12,0,0,1,1.31.26,7,7,0,0,1-4-.14A6.78,6.78,0,0,1,92.09,61.34Z" transform="translate(0.01 -3.89)" style="fill:#fefefe"/><path d="M171.85,14.43a11.68,11.68,0,0,0,.84-1.12,15.34,15.34,0,0,1,2.58-2.76s0,0,0,.08c-.29,1.42-1,2.9-1.33,4.38-.22,1-.41,2-.55,3s-.25,2.05-.32,3.08c-.06.82,0,1.65-.1,2.46a7.43,7.43,0,0,1-.08-1.25,12.12,12.12,0,0,0-5.14,3.27C168,21.37,170,18.06,171.85,14.43Z" transform="translate(0.01 -3.89)" style="fill:#e2d2cd"/><path d="M110.41,11a2.91,2.91,0,0,1,.78.07c.5.19,1.15,1.12,1.62,1l.34.34c3.38,3.84,4.35,8.42,5,13.32-.69-.79-3.07-3.27-4.08-3.32a.43.43,0,0,0-.2,0,.79.79,0,0,0-.15.25,13.73,13.73,0,0,0-.37-2.19C112.8,17.35,112.12,13.81,110.41,11Z" transform="translate(0.01 -3.89)" style="fill:#e2d2cd"/><path d="M156.73,90.15a5.42,5.42,0,0,1-2,.35v-.06c-.75-.13-1.58.12-2.36,0-.64.38-1.27.81-1.94,1.15a16.22,16.22,0,0,1-7.32,1.6,18,18,0,0,1-8.88-2.61c-.53.22-1.36-.16-1.79.15s-1.23,0-1.73-.13A41.33,41.33,0,0,1,114,83q0,1.9.12,3.81c.09,1.08.24,2.16.28,3.24a4.14,4.14,0,0,0,.06.79,1.18,1.18,0,0,1,.11-.65c1.36.5,2.86,2,4,2.92.48.37,1,.69,1.5,1,1.42.93,2.81,2,4.28,2.81s3.06,1.57,4.51,2.52c4.57,3,9.6,7.62,11.93,12.63a44.48,44.48,0,0,1,2.39,7.77,3.48,3.48,0,0,0,.17-.69,29.12,29.12,0,0,1,2.63-8.1c2.51-4.82,7.08-8.63,11.54-11.57,1.87-1.24,3.9-2.21,5.71-3.54a25.46,25.46,0,0,0,9.36-12.75C167.72,86.27,162.49,89.28,156.73,90.15Z" transform="translate(0.01 -3.89)" style="fill:#e2d2cd"/><path d="M101.92,65.57c.45,1.42.86,2.9,1.42,4.27a30.85,30.85,0,0,0,7.38,10.35c1,1,2.23,1.84,3.26,2.85q0,1.9.12,3.81c.09,1.08.24,2.16.28,3.24-2-1.16-5.74-5.42-7.22-7.46a27.82,27.82,0,0,1-5.1-13.75A13.63,13.63,0,0,1,101.92,65.57Z" transform="translate(0.01 -3.89)" style="fill:#d6110b"/><path d="M177.67,75.76c4.71-6.53,6.58-11.8,5.26-19.91a39.54,39.54,0,0,0-9.21-19.64,18.61,18.61,0,0,0-2.9-2.85c-1.07-1.49-3.79-3.1-5.34-4.11l0-.07c0-.13.07-.26.11-.4s.13-.5.19-.75c.21-.86.39-1.73.64-2.57a39.39,39.39,0,0,1,2.17-5.78l.19-.4L169,19a29.1,29.1,0,0,1,1.84-3.15,8.13,8.13,0,0,1,1.06-1.41,2.62,2.62,0,0,0,.22-.25l.06-.07.12-.17.12-.17,0-.07.28-.39a15.34,15.34,0,0,1,2.58-2.76.6.6,0,0,1,.08-.08l0,0,.06-.06.07-.06.09-.08.36-.29a9.13,9.13,0,0,1,1.48,2.33,39.84,39.84,0,0,1,3.83,16.42c.06,3.68-.29,9.27-2.12,12.5a28,28,0,0,1,1.53,2.59c.29-.84.57-1.69.81-2.54s.47-1.72.67-2.59.36-1.75.5-2.63.26-1.76.34-2.64a44.82,44.82,0,0,0-3.3-21,17.36,17.36,0,0,0-2.49-4.77,1.84,1.84,0,0,0-1.2-.78c-1.61-.06-6.32,4.06-7.57,5.27a24.93,24.93,0,0,0-2.93,2.4,113.84,113.84,0,0,0-8.58,8.72c-2-.38-4-.88-6-1.2a50.74,50.74,0,0,0-21.48,1.16c-1-1-1.91-2.11-2.88-3.15A57.93,57.93,0,0,0,118,12.11c-1.51-1.52-5.39-4.94-7.49-4.9a2.25,2.25,0,0,0-1.57.85,11.78,11.78,0,0,0-1.83,3,41.39,41.39,0,0,0-3.81,18c-.45,3.08.18,7.88.82,10.93.31,1.5.72,3,1,4.48a19.1,19.1,0,0,0,1.68-3.15c-.32-1.28-.71-2.55-1-3.85a38.51,38.51,0,0,1-.79-8.76c.07-4.78,1.68-14.47,5.15-17.84a.88.88,0,0,1,.74-.22,3.93,3.93,0,0,1,1.88,1.43l.34.34a6.36,6.36,0,0,1,1.64,1.86c.26.36.51.74.76,1.12s.48.76.7,1.15.44.78.65,1.19.4.8.58,1.21.36.83.53,1.25.32.84.46,1.27.28.85.4,1.29.24.87.34,1.3a28.19,28.19,0,0,1,.62,3.52c.08.7.09,1.44.22,2.13a51.88,51.88,0,0,0-5.13,4l-.56.53-.54.53-.54.54-.52.56-.51.56-.5.58-.49.59c-.16.19-.32.39-.47.59l-.47.61-.45.62-.43.62-.43.63-.41.65-.4.65c-.13.21-.26.43-.38.65s-.25.45-.37.67-.24.45-.36.67-.23.46-.34.68-.23.46-.33.69-.22.46-.32.7l-.3.7c-.1.23-.19.47-.29.7l-.27.72c-.09.23-.17.47-.26.71l-.24.73c-.08.24-.15.48-.23.72l-.21.74c-.07.24-.13.49-.2.73l-.18.74c-.06.25-.11.5-.17.75l-.15.75c0,.24-.09.5-.13.75a23,23,0,0,0,.21,9.63h0a15,15,0,0,0,.89,3.21c2.34,6.37,7.38,12,12.65,16.09a34.75,34.75,0,0,0,8.16,5c1.17.47,4.6,1.44,5.36,2,.5.11,1.26.41,1.73.13s1.26.07,1.79-.15a18,18,0,0,0,8.88,2.61,16.22,16.22,0,0,0,7.32-1.6c.67-.34,1.3-.77,1.94-1.15.78.12,1.61-.13,2.36,0v.06a5.42,5.42,0,0,0,2-.35c.83-.57,4-1.25,5.29-1.8A39.8,39.8,0,0,0,177.67,75.76ZM111.39,40l.48-.73Zm2.74-3.84c.43-.54.87-1.06,1.33-1.57C115,35.1,114.56,35.62,114.13,36.16Zm3.76-4,.24-.22Zm2.67-2.66a.56.56,0,0,1,0,.08A.56.56,0,0,0,120.56,29.47Zm0-.07,0-.07Z" transform="translate(0.01 -3.89)" style="fill:url(#New_Gradient_Swatch_5)"/><path d="M188.33,65.39c2.56,0,4.65-1.93,6-4-4.21-1.34-6.88-4.4-8.87-8.25q-.39-.76-.75-1.53a66.08,66.08,0,0,1,.5,7.17,28.75,28.75,0,0,1-6,18.16c-1.29,1.6-4.67,5.14-6.37,6.12a32.75,32.75,0,0,1-.63,8.08c-1,4.88-3.41,12-7.75,14.89a11.24,11.24,0,0,1-1.54.8c5-.15,8.69-3,12-6.46.67-.71,1.3-1.45,2-2.18a59.35,59.35,0,0,1-3.23,6.3c-.91,1.43-2,2.76-3,4.09.72-.47,1.45-.93,2.12-1.46a22.12,22.12,0,0,1,3.48-2.68,35.4,35.4,0,0,0,5-5.76,58.26,58.26,0,0,0,11.17-25.37c-1-1.35-2.15-2.62-3.21-3.95s-1.89-2.52-2.88-3.75l0-.14A5.84,5.84,0,0,1,188.33,65.39Z" transform="translate(0.01 -3.89)" style="fill:url(#New_Gradient_Swatch_5-2)"/><path d="M99.93,65.24l1.92-.23c-.13-.58-.25-1.16-.34-1.75s-.17-1.17-.22-1.76-.09-1.18-.11-1.78,0-1.18,0-1.78c0-1.11.21-2.21.23-3.32-1.4,2.73-2.87,6.24-6,7.26-.35.12-.72.22-1.08.32A7,7,0,0,0,98.62,65,4.12,4.12,0,0,1,99.93,65.24Z" transform="translate(0.01 -3.89)" style="fill:url(#New_Gradient_Swatch_5-3)"/><path d="M112.54,100.67a18.13,18.13,0,0,0,10.83,6.21,19.73,19.73,0,0,1-2.45-1.69c-3.4-3-5.18-7.72-6.11-12.07a18.68,18.68,0,0,1-.37-2.24,4.14,4.14,0,0,1-.06-.79c0-1.08-.19-2.16-.28-3.24Q114,84.95,114,83c-1-1-2.21-1.85-3.26-2.85a30.85,30.85,0,0,1-7.38-10.35c-.56-1.37-1-2.85-1.42-4.27C99,68.9,97,72.92,97.25,77.46c.56,9.9,8.67,22.36,15.91,28.78.84.74,1.73,1.44,2.6,2.14-.78-1.17-1.62-2.33-2.32-3.55a34.38,34.38,0,0,1-2.88-6.89l.06.06C111.34,98.82,111.83,99.83,112.54,100.67Z" transform="translate(0.01 -3.89)" style="fill:url(#New_Gradient_Swatch_5-4)"/><path d="M124.92,47.05a6,6,0,0,1,3.36.74c2.52,1.47,3.55,4.65,4.26,7.3a9.87,9.87,0,0,0-2.1-1.73c-.25-.11-.32-.06-.57,0a4.42,4.42,0,0,1-2.91.74l-.18,0-.18,0-.17,0-.17-.06-.17-.06-.17-.08-.16-.08-.16-.09-.15-.1-.15-.1-.14-.12-.14-.12-.13-.12-.12-.14-.12-.13-.11-.15a4.11,4.11,0,0,1-.49-3.33,27.06,27.06,0,0,0-2.84-1.19A9.67,9.67,0,0,1,124.92,47.05Z" transform="translate(0.01 -3.89)" style="fill:#361e21"/><path d="M160.58,47.13a13.47,13.47,0,0,1,4.86.75,7.18,7.18,0,0,0-2.32,1.52c-1.24,1.35-1.14,3.41-2.93,4.38a4.72,4.72,0,0,1-3.35.18,9.26,9.26,0,0,1-1.21-.63A14.35,14.35,0,0,0,153.38,55a15.72,15.72,0,0,1,2.42-5.52A6.77,6.77,0,0,1,160.58,47.13Z" transform="translate(0.01 -3.89)" style="fill:#361e21"/><path d="M110.3,10c2.32.28,3.72,1.95,5.1,3.7a34.15,34.15,0,0,1,6.47,14.83,3.79,3.79,0,0,0-1.23.8l-.59.38c-.13-.69-.14-1.43-.22-2.13a28.19,28.19,0,0,0-.62-3.52c-.1-.43-.21-.87-.34-1.3s-.25-.87-.4-1.29-.3-.85-.46-1.27-.34-.84-.53-1.25-.38-.81-.58-1.21-.42-.8-.65-1.19-.46-.78-.7-1.15-.5-.76-.76-1.12a6.36,6.36,0,0,0-1.64-1.86l-.34-.34a3.93,3.93,0,0,0-1.88-1.43.88.88,0,0,0-.74.22c-3.47,3.37-5.08,13.06-5.15,17.84a38.51,38.51,0,0,0,.79,8.76c.28,1.3.67,2.57,1,3.85a19.1,19.1,0,0,1-1.68,3.15c-.33-1.5-.74-3-1-4.48-.64-3.05-1.27-7.85-.82-10.93,0,.47,0,1,0,1.42.43-1.9.65-3.83,1.06-5.73.65-3.05,3.17-13,5.81-14.67Z" transform="translate(0.01 -3.89)" style="fill:url(#New_Gradient_Swatch_5-5)"/><path d="M143.31,26.72v0l0,0Z" transform="translate(0.01 -3.89)" style="fill:#fefefe"/><path d="M126.75,75.75a19.82,19.82,0,0,0,3.85,9.18A16.1,16.1,0,0,0,141.32,91,15.69,15.69,0,0,0,153,87.75a19.52,19.52,0,0,0,6.79-10.83,24.31,24.31,0,0,0,.38-2.81l-.21-.07c.08,0,.15-.11.24-.11a15.44,15.44,0,0,1,.07,4c-.58,5.71-3.57,9.08-7.84,12.55-.64.38-1.27.81-1.94,1.15a16.22,16.22,0,0,1-7.32,1.6,18,18,0,0,1-8.88-2.61,20,20,0,0,1-5-4.82A14.2,14.2,0,0,1,126.75,75.75Z" transform="translate(0.01 -3.89)" style="fill:#361e21"/><path d="M141.81,68.16a11.74,11.74,0,0,1,6.44,1.33,4.08,4.08,0,0,1,2.27,2.32,6.07,6.07,0,0,1-.85,4.34c-1.36,2.46-3.54,3.46-6.14,4.21a6.45,6.45,0,0,0,.13,1,3.81,3.81,0,0,0,1.8,2.27c2.16,1.3,4.71,1.1,7,.49a11.8,11.8,0,0,1-1,.69c-2.28,1.35-4.75.71-7.15.12-1.81-.43-3.65.47-5.44.67a6.62,6.62,0,0,1-5.2-1.56c.4.14.8.28,1.21.38a8.23,8.23,0,0,0,6-.85,4.39,4.39,0,0,0,1.94-3.12,11,11,0,0,1-4.26-1.9A7.11,7.11,0,0,1,135.74,74a1.64,1.64,0,0,1,0-.23,1.69,1.69,0,0,1,0-.23.88.88,0,0,1,0-.23,5.33,5.33,0,0,1,0-.46,1.85,1.85,0,0,1,0-.23c0-.08,0-.15,0-.23l.06-.22c0-.08.05-.15.07-.22s.05-.15.08-.22l.09-.21.1-.21.11-.21.12-.19.14-.19a1.33,1.33,0,0,1,.14-.19A7.28,7.28,0,0,1,141.81,68.16Z" transform="translate(0.01 -3.89)" style="fill:#361e21"/><path d="M156.94,23.25c-2-.38-4-.88-6-1.2a50.74,50.74,0,0,0-21.48,1.16c-1-1-1.91-2.11-2.88-3.15A57.93,57.93,0,0,0,118,12.11c.68,1.22,3.16,3.2,4.24,4.38,1.55,1.73,3.06,3.51,4.51,5.32,1,1.21,1.87,2.47,2.9,3.64a49.54,49.54,0,0,1,27.55.19c.85-1.15,1.64-2.35,2.5-3.5,1.26-1.65,2.58-3.26,3.94-4.84.6-.7,1.22-1.37,1.87-2a18.31,18.31,0,0,0,3-3.14,24.93,24.93,0,0,0-2.93,2.4A113.84,113.84,0,0,0,156.94,23.25Z" transform="translate(0.01 -3.89)" style="fill:#fff"/><path d="M110.41,11a2.91,2.91,0,0,1,.78.07c.5.19,1.15,1.12,1.62,1a3.93,3.93,0,0,0-1.88-1.43.88.88,0,0,0-.74.22c-3.47,3.37-5.08,13.06-5.15,17.84a38.51,38.51,0,0,0,.79,8.76c.28,1.3.67,2.57,1,3.85a51.6,51.6,0,0,1,5.64-7c-1.66-3.07-2.62-6.26-1.93-9.77.71,2.72.83,3.32,2.66,5.57a24.19,24.19,0,0,1,.11-4.66c.14-1,.42-1.86.47-2.82a13.73,13.73,0,0,0-.37-2.19C112.8,17.35,112.12,13.81,110.41,11Z" transform="translate(0.01 -3.89)" style="fill:#fff"/><path d="M181.28,28.69a39.84,39.84,0,0,0-3.83-16.42A9.13,9.13,0,0,0,176,9.94a5.89,5.89,0,0,0-.7.61s0,0,0,.08c-.28,1.42-1,2.9-1.33,4.38-.22,1-.41,2-.55,3s-.25,2.05-.32,3.08c-.06.82,0,1.65-.1,2.46a22.21,22.21,0,0,0,1.48,6.47,27.34,27.34,0,0,0,2.13-5.54,11.26,11.26,0,0,1-.09,2.09,17.69,17.69,0,0,1-2.66,7.92,40.23,40.23,0,0,1,5.34,6.65C181,38,181.34,32.37,181.28,28.69Z" transform="translate(0.01 -3.89)" style="fill:#fff"/><path d="M128.65,49.66l0-.1a.42.42,0,0,0,0-.1.41.41,0,0,0-.05-.09l-.06-.09a.27.27,0,0,0-.07-.08,1.49,1.49,0,0,0-1.23-.4h-.11a1.48,1.48,0,0,0-.78,1,1.1,1.1,0,0,0,.2.84,1.33,1.33,0,0,0,.82.5,5.06,5.06,0,0,0,.55,0,1.69,1.69,0,0,0,.81-1.17.34.34,0,0,0,0-.1.37.37,0,0,0,0-.11A.41.41,0,0,0,128.65,49.66Z" transform="translate(0.01 -3.89)" style="fill:#fff"/><path d="M159.9,48.84a1.33,1.33,0,0,0-.4-.05c-.43.27-.79.48-.91,1a1,1,0,0,0,.15.84,1.69,1.69,0,0,0,1.15.6,1.39,1.39,0,0,0,.88-.78,1.17,1.17,0,0,0-.06-1A1.32,1.32,0,0,0,159.9,48.84Z" transform="translate(0.01 -3.89)" style="fill:#fff"/><path d="M131.46,41.74a11.53,11.53,0,0,0-4.54-1.14,2.27,2.27,0,0,0-1.46.8,1.09,1.09,0,0,0-.11.85c.46,1.82,3.66,3.72,5.25,4.6a6.78,6.78,0,0,0,2.34.88,1.71,1.71,0,0,0,1.22-.72,3.28,3.28,0,0,0,.19-2.42A5.34,5.34,0,0,0,131.46,41.74Z" transform="translate(0.01 -3.89)" style="fill:#fff"/><path d="M160.71,41a6.07,6.07,0,0,0-2.51-.1c-2,.27-4.19.9-5.47,2.57A3.4,3.4,0,0,0,152,46a2,2,0,0,0,.69,1.36,1.82,1.82,0,0,0,1.39.33,3.63,3.63,0,0,0,1.16-.4c1.64-.85,5.79-3,6.39-4.68a1.2,1.2,0,0,0,0-.93A1.32,1.32,0,0,0,160.71,41Z" transform="translate(0.01 -3.89)" style="fill:#fff"/><path d="M141.37,70.19c-1.32.1-2.88.21-3.78,1.32a2.8,2.8,0,0,0-.59,2.11,3.92,3.92,0,0,0,1.55,2.62,14.36,14.36,0,0,0,1.24.78,10.08,10.08,0,0,1-1.55-1.84,3,3,0,0,1-.24-2.37,2.79,2.79,0,0,1,1.68-1.47,15.15,15.15,0,0,1,5.85-.56A10.72,10.72,0,0,0,141.37,70.19Z" transform="translate(0.01 -3.89)" style="fill:#fff"/><path d="M135.07,111l0,2.47L85.56,96.61l-1.42-1.86L135.07,111Z" transform="translate(0.01 -3.89)" style="fill:#fff"/><path d="M136,107.7a2.14,2.14,0,0,1-.09.34,3.63,3.63,0,0,0,.09-.56A.81.81,0,0,1,136,107.7Zm.09-.66v.39a3.88,3.88,0,0,0,0-.48Z" transform="translate(0.01 -3.89)" style="fill:#fff"/><path d="M110.05,122.68a14.3,14.3,0,0,0-4.61-2.52L84,112.8a20.91,20.91,0,0,0-5.6-1,24.68,24.68,0,0,0-5.88.41A22.94,22.94,0,0,0,67,113.85a16.6,16.6,0,0,0-4.49,2.92,9.85,9.85,0,0,0-2.6,3.68,6.25,6.25,0,0,0-.27,3.75,7.07,7.07,0,0,0,2,3.36,12.33,12.33,0,0,0,4.26,2.58l21.83,8.21a21.89,21.89,0,0,0,6.09,1.27,25.22,25.22,0,0,0,6.37-.42,22.54,22.54,0,0,0,5.88-1.93,15.55,15.55,0,0,0,4.52-3.28,9,9,0,0,0,2.25-4,6.63,6.63,0,0,0-.28-3.94,8.68,8.68,0,0,0-2.51-3.36Z" transform="translate(0.01 -3.89)" style="fill:#fff"/><path d="M136.86,111.62a13.46,13.46,0,0,1,4,2,8,8,0,0,1,2.35,2.74,5.24,5.24,0,0,1,.48,3.14,6.33,6.33,0,0,1-1.58,3.2l-31.47,36a13.58,13.58,0,0,1-4,3.06,19.33,19.33,0,0,1-5.17,1.79,21.41,21.41,0,0,1-5.65.33,18.26,18.26,0,0,1-5.41-1.23l-86.23-35a7.61,7.61,0,0,1-3-2.07A4.73,4.73,0,0,1,0,122.8a5.57,5.57,0,0,1,.73-3,10,10,0,0,1,2.57-3L38.1,88.21a14.26,14.26,0,0,1,3.53-2.08,20.36,20.36,0,0,1,8.63-1.57,15.34,15.34,0,0,1,4.15.69l82.45,26.37ZM87.78,138.43a21.54,21.54,0,0,0,6.09,1.27,25.69,25.69,0,0,0,6.37-.41,22.54,22.54,0,0,0,5.88-1.93,15.45,15.45,0,0,0,4.52-3.29,9,9,0,0,0,2.25-4,6.64,6.64,0,0,0-.28-3.94,8.5,8.5,0,0,0-2.52-3.43,14.3,14.3,0,0,0-4.61-2.52L84,112.81a20.91,20.91,0,0,0-5.6-1,25.2,25.2,0,0,0-5.88.4A23.55,23.55,0,0,0,67,113.85a16.88,16.88,0,0,0-4.49,2.93,9.81,9.81,0,0,0-2.6,3.67,6.28,6.28,0,0,0-.27,3.76,7.11,7.11,0,0,0,2,3.36,12.16,12.16,0,0,0,4.26,2.57l21.83,8.22" transform="translate(0.01 -3.89)" style="fill:url(#linear-gradient)"/><path d="M143.79,118.65a5.3,5.3,0,0,1-.4,2,7.16,7.16,0,0,1-1.25,2l-31.48,36a13.83,13.83,0,0,1-4,3.07,19.67,19.67,0,0,1-5.17,1.78,21.41,21.41,0,0,1-5.65.33,18,18,0,0,1-5.42-1.23l-86.21-35a8.47,8.47,0,0,1-1.53-.78,7.3,7.3,0,0,1-1.19-.95,5.58,5.58,0,0,1-.84-1.08,4.65,4.65,0,0,1-.48-1.18l4.36,16.72A4.35,4.35,0,0,0,5,141.55a5.26,5.26,0,0,0,.84,1.1,7.19,7.19,0,0,0,1.16,1,9.24,9.24,0,0,0,1.5.84l83.82,35.92a16.57,16.57,0,0,0,5.23,1.28,19.68,19.68,0,0,0,5.47-.3,17.79,17.79,0,0,0,5-1.77,13.23,13.23,0,0,0,3.87-3.07l30.43-36.3a7.85,7.85,0,0,0,.71-1,6.42,6.42,0,0,0,.8-2.05,5.21,5.21,0,0,0,.08-1l-.15-17.48Z" transform="translate(0.01 -3.89)" style="fill:url(#linear-gradient-2)"/><path d="M194.24,131.83l.77,6.07a2.42,2.42,0,0,0-.48-.13,3,3,0,0,0-.51-.07h-.54a3.31,3.31,0,0,0-.55.07l-.53.13-.49.19c-.14.08-.29.16-.42.25a3.27,3.27,0,0,0-.37.28l-.83-6.06a1.93,1.93,0,0,1,.36-.28,2.67,2.67,0,0,1,.43-.25,4.29,4.29,0,0,1,.5-.19,4.58,4.58,0,0,1,.53-.14c.18,0,.37,0,.55-.06h.55a4.6,4.6,0,0,1,.52.06,2.25,2.25,0,0,1,.51.13Z" transform="translate(0.01 -3.89)" style="fill:#d9cdfe"/><path d="M205.73,135.83l.69,6.11L195,137.85l-.77-6.07Z" transform="translate(0.01 -3.89)" style="fill:#d9cdfe"/><path d="M207.61,143a1.26,1.26,0,0,0-.16-.33,1.37,1.37,0,0,0-.26-.28,2,2,0,0,0-.34-.25,2.39,2.39,0,0,0-.43-.2l-.69-6.11a3.43,3.43,0,0,1,.44.19,2.7,2.7,0,0,1,.34.25,1.5,1.5,0,0,1,.27.29,1.91,1.91,0,0,1,.16.32q.33,3.06.67,6.12Z" transform="translate(0.01 -3.89)" style="fill:#d9cdfe"/><path d="M190.31,132.52l.81,6.06-8.1,7.78-.91-6.09Z" transform="translate(0.01 -3.89)" style="fill:#d9cdfe"/><path d="M207.66,143.21V143c-.22-2-.45-4.08-.67-6.12v.22Z" transform="translate(0.01 -3.89)" style="fill:#d9cdfe"/><path d="M200.14,138.16l.74,6.12-6.8-2.48-.79-6.08Z" transform="translate(0.01 -3.89)" style="fill:#fff"/><path d="M193.29,135.71l.79,6.09-4.8,4.66-.84-6.11Z" transform="translate(0.01 -3.89)" style="fill:#fff"/><path d="M207,137.1l.67,6.11a.76.76,0,0,1,0,.3,1.46,1.46,0,0,1-.07.3,2.69,2.69,0,0,1-.16.29,2.09,2.09,0,0,1-.24.28l-.68-6.12a2.09,2.09,0,0,0,.24-.28,2.69,2.69,0,0,0,.16-.29,1.67,1.67,0,0,0,.08-.3,1.4,1.4,0,0,0,0-.29Z" transform="translate(0.01 -3.89)" style="fill:#fff"/><path d="M182.48,147.64l-.91-6.1a1.71,1.71,0,0,1,0-.32,1.39,1.39,0,0,1,.1-.33,2,2,0,0,1,.18-.32,1.87,1.87,0,0,1,.26-.3l.93,6.09a2.55,2.55,0,0,0-.26.3,1.41,1.41,0,0,0-.17.32,1.39,1.39,0,0,0-.1.33,1.23,1.23,0,0,0,0,.33Z" transform="translate(0.01 -3.89)" style="fill:#d9cdfe"/><path d="M182.48,147.64l-.91-6.1v.1a1,1,0,0,0,.15.34,1.13,1.13,0,0,0,.24.3,1.76,1.76,0,0,0,.34.25,2.71,2.71,0,0,0,.42.2l.89,6.1a2.67,2.67,0,0,1-.42-.2,1.64,1.64,0,0,1-.33-.26,2.17,2.17,0,0,1-.24-.29,1.43,1.43,0,0,1-.14-.34v-.1Z" transform="translate(0.01 -3.89)" style="fill:#fff"/><path d="M195.32,142.87l.79,6.13-6.83-2.54-.85-6.1Z" transform="translate(0.01 -3.89)" style="fill:#d9cdfe"/><path d="M200.14,138.16l.74,6.12L196.11,149l-.79-6.13,4.82-4.71Z" transform="translate(0.01 -3.89)" style="fill:#d9cdfe"/><path d="M188.44,140.36l4.85-4.64,6.86,2.44-4.82,4.71-6.89-2.51Z" transform="translate(0.01 -3.89)" style="fill:url(#linear-gradient-3)"/><path d="M206.5,138.26l.68,6.12-8,8-.78-6.14,8.09-8Z" transform="translate(0.01 -3.89)" style="fill:#fff"/><path d="M194.35,147l.81,6.15-11.52-4.33-.89-6.1,11.6,4.28Z" transform="translate(0.01 -3.89)" style="fill:#fff"/><path d="M198.41,146.24l.77,6.15a2.74,2.74,0,0,1-.81.56,3.89,3.89,0,0,1-.51.21,3.53,3.53,0,0,1-.54.13,3.72,3.72,0,0,1-.57.08h-.57a1.2,1.2,0,0,1-.53-.08,2.85,2.85,0,0,1-.5-.14l-.84-6.15a3,3,0,0,0,.51.15,3.31,3.31,0,0,0,.54.06,2.62,2.62,0,0,0,.56,0,3.68,3.68,0,0,0,.58-.07,3.75,3.75,0,0,0,.55-.15,3.59,3.59,0,0,0,.51-.2,2.51,2.51,0,0,0,.45-.26,2.27,2.27,0,0,0,.4-.29Z" transform="translate(0.01 -3.89)" style="fill:#fff"/><path d="M212.66,137.39l.63,6.13a7.56,7.56,0,0,1,0,1.84,8.63,8.63,0,0,1-.51,1.87,9.87,9.87,0,0,1-1,1.87,12.63,12.63,0,0,1-1.5,1.82,18.77,18.77,0,0,1-5.27,3.69,27.36,27.36,0,0,1-6.66,2.18,29.12,29.12,0,0,1-7.16.45,23.09,23.09,0,0,1-6.72-1.41,16.24,16.24,0,0,1-2.95-1.47,12.17,12.17,0,0,1-2.22-1.82,8.7,8.7,0,0,1-1.49-2.08,7.48,7.48,0,0,1-.73-2.26l-1-6.08a7.12,7.12,0,0,0,.74,2.24,8.4,8.4,0,0,0,1.49,2.06,11.47,11.47,0,0,0,2.24,1.81,15.83,15.83,0,0,0,3,1.46,23.19,23.19,0,0,0,6.79,1.39,28.66,28.66,0,0,0,7.22-.47,27.49,27.49,0,0,0,6.72-2.17,19.07,19.07,0,0,0,5.31-3.68,13.21,13.21,0,0,0,1.52-1.82,11,11,0,0,0,1-1.88,9.35,9.35,0,0,0,.52-1.86,7.31,7.31,0,0,0,0-1.81Z" transform="translate(0.01 -3.89)" style="fill:#fff"/><path d="M204.65,129.25a15.15,15.15,0,0,1,5,2.8,8.63,8.63,0,0,1,2.64,3.82,7.22,7.22,0,0,1,0,4.41,10.85,10.85,0,0,1-2.82,4.49,18.89,18.89,0,0,1-5.31,3.67,28,28,0,0,1-6.72,2.18,29.62,29.62,0,0,1-7.22.47,23.19,23.19,0,0,1-6.79-1.39,14.24,14.24,0,0,1-5-3,8.28,8.28,0,0,1-2.36-4,7.47,7.47,0,0,1,.33-4.41,11.54,11.54,0,0,1,3.05-4.32,19.8,19.8,0,0,1,5.27-3.44,27.76,27.76,0,0,1,6.43-2,30.32,30.32,0,0,1,6.86-.47,24.24,24.24,0,0,1,6.54,1.23Zm-6.24,17,8.09-8a2.16,2.16,0,0,0,.27-.33,1.58,1.58,0,0,0,.16-.35,1.05,1.05,0,0,0,0-.7,1.37,1.37,0,0,0-.16-.32,1.42,1.42,0,0,0-.26-.29,2.71,2.71,0,0,0-.35-.24,2.39,2.39,0,0,0-.43-.2l-11.49-4a2.09,2.09,0,0,0-.49-.13,4.34,4.34,0,0,0-.52-.07h-.54a1.54,1.54,0,0,0-.56.07,5.18,5.18,0,0,0-.53.14,2.92,2.92,0,0,0-.49.19,3.75,3.75,0,0,0-.44.24,2.54,2.54,0,0,0-.36.29l-8.2,7.75a1.49,1.49,0,0,0-.27.33,1.41,1.41,0,0,0-.19.34,1.11,1.11,0,0,0-.08.36,1,1,0,0,0,0,.34,1,1,0,0,0,.14.34,1.37,1.37,0,0,0,.24.29,2,2,0,0,0,.34.26,3.23,3.23,0,0,0,.42.2l11.6,4.28a3.23,3.23,0,0,0,.51.14,3.33,3.33,0,0,0,.54.07,5.42,5.42,0,0,0,.57,0,2.8,2.8,0,0,0,.57-.08,3.41,3.41,0,0,0,.55-.14,3.86,3.86,0,0,0,.51-.2,2.51,2.51,0,0,0,.45-.26,3.47,3.47,0,0,0,.37-.3" transform="translate(0.01 -3.89)" style="fill:url(#linear-gradient-4)"/><path d="M206.94,136.86a1.19,1.19,0,0,1,0,.7,1.62,1.62,0,0,1-.17.35,2.16,2.16,0,0,1-.27.33l-8.08,8a3.47,3.47,0,0,1-.37.3,2.51,2.51,0,0,1-.45.26,5.49,5.49,0,0,1-.51.21,5.54,5.54,0,0,1-.55.14c-.19,0-.38.06-.58.07a2.62,2.62,0,0,1-.56,0,5,5,0,0,1-.54-.06,3,3,0,0,1-.51-.15l-11.61-4.25-.42-.2a2.1,2.1,0,0,1-.33-.26,1.16,1.16,0,0,1-.25-.29,1.28,1.28,0,0,1-.14-.34,1,1,0,0,1,0-.34,1.11,1.11,0,0,1,.08-.36,1.48,1.48,0,0,1,.19-.35,1.69,1.69,0,0,1,.27-.32l8.2-7.75a2,2,0,0,1,.36-.29,3.75,3.75,0,0,1,.44-.24,2.92,2.92,0,0,1,.49-.19,3.46,3.46,0,0,1,.53-.14,5.35,5.35,0,0,0,.56-.07h.54a4.34,4.34,0,0,1,.52.07,2.09,2.09,0,0,1,.49.13l11.44,4a2.44,2.44,0,0,1,.44.19,2.71,2.71,0,0,1,.35.24,1.48,1.48,0,0,1,.26.3,1.49,1.49,0,0,1,.18.3Zm-11.62,6,4.82-4.71-6.85-2.45-4.86,4.65,6.89,2.52" transform="translate(0.01 -3.89)" style="fill:#fff"/><path d="M160.91,149a4,4,0,0,0-1.28-.24,5.38,5.38,0,0,0-2.56.47,3.61,3.61,0,0,0-1,.68l-1-7.87a3.56,3.56,0,0,1,1-.67,5.52,5.52,0,0,1,1.25-.4,6.13,6.13,0,0,1,1.35-.09,5.16,5.16,0,0,1,1.28.24c.31,2.63.62,5.25.94,7.88Z" transform="translate(0.01 -3.89)" style="fill:#d9cdfe"/><path d="M162.41,150.53a1.43,1.43,0,0,0-.13-.46,1.9,1.9,0,0,0-.31-.42,2,2,0,0,0-.45-.36,3.67,3.67,0,0,0-.6-.29q-.48-3.94-.94-7.87a3.28,3.28,0,0,1,.6.28,2.28,2.28,0,0,1,.46.36,2,2,0,0,1,.3.42,1.24,1.24,0,0,1,.14.45c.28,2.37.65,5.53.93,7.89Z" transform="translate(0.01 -3.89)" style="fill:#d9cdfe"/><path d="M142.17,152.52a2.91,2.91,0,0,0-.33.37,2.42,2.42,0,0,0-.21.39,1.6,1.6,0,0,0-.11.39,2.41,2.41,0,0,0,0,.38l-1.11-7.86a1.28,1.28,0,0,1,0-.39,1.64,1.64,0,0,1,.1-.38,1.79,1.79,0,0,1,.22-.38,2.3,2.3,0,0,1,.32-.38c.37,2.62.75,5.24,1.12,7.86-.37-2.62-.75-5.24-1.12-7.86a3.88,3.88,0,0,1,1-.67,5,5,0,0,1,1.26-.4,6,6,0,0,1,1.34-.09,4.27,4.27,0,0,1,1.27.25L147,151.6a4.4,4.4,0,0,0-1.25-.24,5.38,5.38,0,0,0-1.33.08,6.07,6.07,0,0,0-1.25.4,3.82,3.82,0,0,0-1,.68Z" transform="translate(0.01 -3.89)" style="fill:#d9cdfe"/><path d="M161.48,142.64l.93,7.88a1.15,1.15,0,0,1,0,.37,1.48,1.48,0,0,1-.1.36,1.85,1.85,0,0,1-.19.37,3.27,3.27,0,0,1-.3.35l-.94-7.89a2,2,0,0,0,.3-.35,1.83,1.83,0,0,0,.31-.73,1.45,1.45,0,0,0,0-.36Z" transform="translate(0.01 -3.89)" style="fill:#fff"/><path d="M151.31,145.67l1,7.88L147,151.61,146,143.75l5.36,1.92Z" transform="translate(0.01 -3.89)" style="fill:#d9cdfe"/><path d="M155.08,142l1,7.87-3.73,3.64-1-7.87Z" transform="translate(0.01 -3.89)" style="fill:#d9cdfe"/><path d="M141.52,154.05c-.37-2.62-.75-5.24-1.12-7.86a1.41,1.41,0,0,0,.14.44,1.8,1.8,0,0,0,.29.39,2.12,2.12,0,0,0,.44.35,3,3,0,0,0,.57.27l1.12,7.88a3.77,3.77,0,0,1-.57-.28,2.12,2.12,0,0,1-.44-.35,1.64,1.64,0,0,1-.29-.4,1.41,1.41,0,0,1-.14-.44Z" transform="translate(0.01 -3.89)" style="fill:#fff"/><path d="M160,141.12a3,3,0,0,1,1,.55,1.81,1.81,0,0,1,.49.73,1.5,1.5,0,0,1,0,.84,2.05,2.05,0,0,1-.55.84l-3.78,3.7-5.8-2.08,3.78-3.63a3.56,3.56,0,0,1,1-.67,5.52,5.52,0,0,1,1.25-.4,6,6,0,0,1,1.34-.09,4.7,4.7,0,0,1,1.29.21Z" transform="translate(0.01 -3.89)" style="fill:#fff"/><path d="M160.86,144.09l.94,7.88-3.73,3.68-1-7.9Z" transform="translate(0.01 -3.89)" style="fill:#fff"/><path d="M157.1,147.75l1,7.9-5.74-2.1-1-7.87Z" transform="translate(0.01 -3.89)" style="fill:#fff"/><path d="M162.57,149.7l.93,7.92-5.42-2-1-7.9,5.47,2Z" transform="translate(0.01 -3.89)" style="fill:#d9cdfe"/><path d="M147.22,149.59l1.07,7.89-3.83,3.74-1.11-7.91Z" transform="translate(0.01 -3.89)" style="fill:#d9cdfe"/><path d="M143.81,162.79c-.37-2.64-.75-5.27-1.12-7.91a2.54,2.54,0,0,1,0-.39,2,2,0,0,1,.11-.4,1.87,1.87,0,0,1,.22-.39,3.09,3.09,0,0,1,.33-.39l1.11,7.91a1.93,1.93,0,0,0-.54.78,1.4,1.4,0,0,0-.11.4,1.28,1.28,0,0,0,0,.39Z" transform="translate(0.01 -3.89)" style="fill:#d9cdfe"/><path d="M143.81,162.79c-.37-2.64-.75-5.27-1.12-7.91a1.2,1.2,0,0,0,.15.45,1.37,1.37,0,0,0,.29.42,2.56,2.56,0,0,0,.44.36,3.28,3.28,0,0,0,.6.28,4.48,4.48,0,0,0,1.3.26,5.51,5.51,0,0,0,2.66-.49,4.41,4.41,0,0,0,1.05-.71l1,7.93a4.2,4.2,0,0,1-1,.7,5.31,5.31,0,0,1-1.28.41,5.71,5.71,0,0,1-1.37.09,4.35,4.35,0,0,1-1.28-.26,3.27,3.27,0,0,1-.59-.3,2.17,2.17,0,0,1-.44-.36,1.73,1.73,0,0,1-.3-.41A1.45,1.45,0,0,1,143.81,162.79Z" transform="translate(0.01 -3.89)" style="fill:#fff"/><path d="M143.35,153.31l3.87-3.72L153,151.7l-3.85,3.75a4.35,4.35,0,0,1-1,.71,5.58,5.58,0,0,1-2.67.49,4.48,4.48,0,0,1-1.3-.26,2.79,2.79,0,0,1-1-.57,1.69,1.69,0,0,1-.47-.78,1.42,1.42,0,0,1,0-.84,2.29,2.29,0,0,1,.58-.89Z" transform="translate(0.01 -3.89)" style="fill:#fff"/><path d="M148.13,156.18a4.08,4.08,0,0,0,1-.71l.33,2.52,4.54,1.68-1-7.92-5.81-2.1.89,6.57,0,0Z" transform="translate(0.01 -3.89)" style="fill:#fff"/><path d="M164.11,151.28l.91,7.93a1.32,1.32,0,0,0-.13-.47,1.67,1.67,0,0,0-.31-.44,1.87,1.87,0,0,0-.46-.38,3.93,3.93,0,0,0-.62-.3l-.94-7.92a3,3,0,0,1,.63.3,2.4,2.4,0,0,1,.47.37,1.88,1.88,0,0,1,.31.43,1.56,1.56,0,0,1,.14.48Z" transform="translate(0.01 -3.89)" style="fill:#d9cdfe"/><path d="M162.57,149.7a3,3,0,0,1,1,.56,1.81,1.81,0,0,1,.5.77,1.34,1.34,0,0,1,0,.84,2.05,2.05,0,0,1-.55.84,3.74,3.74,0,0,1-1,.69,5.41,5.41,0,0,1-2.66.5,4.48,4.48,0,0,1-1.3-.26l-5.48-2-5.81-2.11-5.38-1.95a3,3,0,0,1-.94-.55,1.68,1.68,0,0,1-.47-.75,1.5,1.5,0,0,1,.05-.84,2.32,2.32,0,0,1,.57-.84,3.88,3.88,0,0,1,1-.67,5,5,0,0,1,1.26-.39,5.47,5.47,0,0,1,1.34-.1,4.27,4.27,0,0,1,1.27.25l5.36,1.92,5.79,2.07,5.45,2Z" transform="translate(0.01 -3.89)" style="fill:#fff"/><path d="M164.11,151.28l.91,7.93a1.15,1.15,0,0,1,0,.37,1.26,1.26,0,0,1-.1.38,1.65,1.65,0,0,1-.2.37,2.6,2.6,0,0,1-.3.36,3.56,3.56,0,0,1-1,.7,5,5,0,0,1-1.26.41,5.19,5.19,0,0,1-1.36.09,4.43,4.43,0,0,1-1.3-.27l-1-8a4.84,4.84,0,0,0,1.3.26,5.43,5.43,0,0,0,2.66-.5,3.56,3.56,0,0,0,1-.7,3.65,3.65,0,0,0,.31-.36,2.18,2.18,0,0,0,.2-.37,1.51,1.51,0,0,0,.1-.38A1.82,1.82,0,0,0,164.11,151.28Z" transform="translate(0.01 -3.89)" style="fill:#fff"/><path d="M153,151.71l1,7.91-3.82,3.76-1-7.93,3.85-3.74Z" transform="translate(0.01 -3.89)" style="fill:#fff"/><path d="M175.92,146.26l.84,7.93a9.4,9.4,0,0,1-.06,2.37A10.21,10.21,0,0,1,176,159a13.11,13.11,0,0,1-1.3,2.42,16.79,16.79,0,0,1-1.94,2.36,24,24,0,0,1-6.81,4.76,34,34,0,0,1-8.64,2.77,37.7,37.7,0,0,1-9.24.6,29.9,29.9,0,0,1-8.72-1.79,21.63,21.63,0,0,1-3.82-1.91,15.42,15.42,0,0,1-2.88-2.35,11.66,11.66,0,0,1-1.92-2.69,9.86,9.86,0,0,1-1-2.91l-1.23-7.88a9.58,9.58,0,0,0,1,2.91,11.72,11.72,0,0,0,1.93,2.67,15.52,15.52,0,0,0,2.9,2.33,21.06,21.06,0,0,0,3.84,1.89A30.37,30.37,0,0,0,147,164a38.56,38.56,0,0,0,9.35-.6,36,36,0,0,0,8.7-2.82,24.88,24.88,0,0,0,6.88-4.75,16.22,16.22,0,0,0,2-2.35,13.08,13.08,0,0,0,1.31-2.41,10,10,0,0,0,.67-2.41,8.88,8.88,0,0,0,.07-2.36Z" transform="translate(0.01 -3.89)" style="fill:#fff"/><path d="M165.56,135.73a19.47,19.47,0,0,1,6.51,3.61,11.25,11.25,0,0,1,3.42,4.95,9.4,9.4,0,0,1,.06,5.7,14,14,0,0,1-3.63,5.8,24.74,24.74,0,0,1-6.88,4.75,36,36,0,0,1-8.7,2.82,38.56,38.56,0,0,1-9.35.6,30.37,30.37,0,0,1-8.78-1.8,18.55,18.55,0,0,1-6.45-3.93,10.67,10.67,0,0,1-3-5.16,9.54,9.54,0,0,1,.42-5.69,15,15,0,0,1,3.94-5.59,25.78,25.78,0,0,1,6.81-4.44,35.72,35.72,0,0,1,8.32-2.6,38.22,38.22,0,0,1,8.87-.61,31,31,0,0,1,8.48,1.59Zm-7.05,17.93a4.48,4.48,0,0,0,1.31.26,5.43,5.43,0,0,0,2.66-.5,3.52,3.52,0,0,0,1-.7,2,2,0,0,0,.56-.84,1.5,1.5,0,0,0,0-.84,1.77,1.77,0,0,0-.51-.76,2.86,2.86,0,0,0-1-.56l-5.45-1.94,3.77-3.66a2.05,2.05,0,0,0,.55-.84,1.5,1.5,0,0,0,0-.84,1.75,1.75,0,0,0-.49-.73,2.86,2.86,0,0,0-1-.56,5.16,5.16,0,0,0-1.28-.24,6.09,6.09,0,0,0-1.35.09,5.52,5.52,0,0,0-1.25.4,3.78,3.78,0,0,0-1,.67l-3.78,3.63-5.35-1.92a4.6,4.6,0,0,0-1.27-.24,5.47,5.47,0,0,0-1.34.09,5,5,0,0,0-1.26.4,3.65,3.65,0,0,0-1,.67,2.2,2.2,0,0,0-.57.84,1.42,1.42,0,0,0-.05.84,1.62,1.62,0,0,0,.47.74,2.64,2.64,0,0,0,.94.56l5.38,1.95-3.88,3.72a2.13,2.13,0,0,0-.57.84,1.39,1.39,0,0,0,0,.83,1.87,1.87,0,0,0,.47.79,3,3,0,0,0,1,.57,4.35,4.35,0,0,0,1.3.26,5.54,5.54,0,0,0,2.66-.5,4.32,4.32,0,0,0,1-.7l3.85-3.76,5.49,2" transform="translate(0.01 -3.89)" style="fill:url(#linear-gradient-5)"/><path d="M142.79,154.1s0-.06,0-.08l0-.09,0-.09.06-.09.14-.17.07-.08.09-.1,3.87-3.72-5.38-1.94.93,6.53.09-.17Z" transform="translate(0.01 -3.89)" style="fill:url(#linear-gradient-6)"/><path d="M158.51,153.69l1,7.93-5.44-2-1-7.91Z" transform="translate(0.01 -3.89)" style="fill:url(#linear-gradient-7)"/></svg>