<svg id="Layer_1" data-name="Layer 1" xmlns="http://www.w3.org/2000/svg" xmlns:xlink="http://www.w3.org/1999/xlink" viewBox="0 0 219.05 177.36"><defs><linearGradient id="New_Gradient_Swatch_5" x1="122.46" y1="51.76" x2="204" y2="51.76" gradientUnits="userSpaceOnUse"><stop offset="0" stop-color="#d9cdfe"/><stop offset="1" stop-color="#a78afe"/></linearGradient><linearGradient id="New_Gradient_Swatch_5-2" x1="183.27" y1="82.34" x2="215.16" y2="82.34" xlink:href="#New_Gradient_Swatch_5"/><linearGradient id="New_Gradient_Swatch_5-3" x1="113.56" y1="61.82" x2="121.22" y2="61.82" xlink:href="#New_Gradient_Swatch_5"/><linearGradient id="New_Gradient_Swatch_5-4" x1="116.53" y1="89.29" x2="143.08" y2="89.29" xlink:href="#New_Gradient_Swatch_5"/><linearGradient id="New_Gradient_Swatch_5-5" x1="122.51" y1="28.6" x2="141.55" y2="28.6" xlink:href="#New_Gradient_Swatch_5"/><clipPath id="clip-path" transform="translate(0.01 -4.89)"><rect width="240" height="182.24" style="fill:none"/></clipPath><linearGradient id="linear-gradient" x1="-7094.98" y1="15937.92" x2="-8364.08" y2="18730.53" gradientTransform="matrix(1, 0, 0, -1, 0, 183.89)" xlink:href="#New_Gradient_Swatch_5"/><linearGradient id="linear-gradient-2" x1="-12991.42" y1="19966.62" x2="-15294.53" y2="23472.72" gradientTransform="matrix(1, 0, 0, -1, 0, 183.89)" xlink:href="#New_Gradient_Swatch_5"/><linearGradient id="linear-gradient-3" x1="21.2" y1="82.39" x2="126" y2="24.33" gradientTransform="matrix(1, 0, 0, -1, 0, 183.89)" gradientUnits="userSpaceOnUse"><stop offset="0" stop-color="#ebeaf7"/><stop offset="1" stop-color="#d9cdfe"/></linearGradient></defs><path d="M218.89,63c.06-.18.11-.36.16-.54a2.06,2.06,0,0,0-1-1.39c-1-.48-2.1-.56-3.1-1-4-1.85-5.91-5.73-7.33-9.65-.89-2.44-1.72-4.9-2.47-7.39.14-.55.27-1.1.4-1.66s.23-1.11.34-1.67.19-1.12.28-1.69.16-1.12.22-1.69.12-1.13.16-1.7.08-1.14.1-1.7,0-1.14.05-1.71,0-1.14,0-1.71,0-1.14-.08-1.71-.08-1.13-.14-1.7-.12-1.13-.2-1.69-.16-1.13-.26-1.69-.2-1.12-.31-1.68-.24-1.11-.38-1.67-.28-1.1-.43-1.65-.32-1.09-.5-1.63a36.85,36.85,0,0,0-3.3-7.69A6.49,6.49,0,0,0,197.37,5a4.09,4.09,0,0,0-1.26-.11,5.46,5.46,0,0,0-1.63.43A21.24,21.24,0,0,0,191,7.65a109,109,0,0,0-14.6,13.4A65.77,65.77,0,0,0,150.27,21c-3.75-3.78-15.08-15.86-20.17-16a4.86,4.86,0,0,0-3.47,1.58,16.36,16.36,0,0,0-3.22,5.4c-.16.4-.32.79-.47,1.19s-.3.79-.44,1.19-.28.81-.41,1.21-.26.81-.38,1.21-.24.82-.35,1.23-.21.82-.31,1.23-.2.83-.29,1.24-.18.83-.26,1.25-.15.84-.22,1.25-.13.84-.19,1.26-.11.85-.16,1.27-.09.84-.13,1.26-.07.85-.1,1.27l-.06,1.28c0,.42,0,.84,0,1.27s0,.85,0,1.27A51.34,51.34,0,0,0,121,44.12c-1.47,4.9-4,13-8.78,15.6A13.91,13.91,0,0,1,106.87,61c1.51,4.25,2.77,6.18,6.51,8.79A25.93,25.93,0,0,0,110,74.9c.65,2.92,1.08,5.87,1.93,8.74a66.06,66.06,0,0,0,15,25.59c1.41,1.52,2.94,2.92,4.46,4.33a89.94,89.94,0,0,0,21.21,14.12c1.64.79,3.32,1.49,5,2.22s3.86,2.12,5.78,2,4.92-1.77,6.68-2.55a90.2,90.2,0,0,0,25.38-16.44,70.93,70.93,0,0,0,6.65-6.89,63.65,63.65,0,0,0,13.2-25.27c.42-1.65,1.1-3.62.94-5.34-.2-2.22-2.29-4-3.47-5.78A12.7,12.7,0,0,0,218.89,63Z" transform="translate(0.01 -4.89)" style="fill:#361e21"/><path d="M111.31,63.25c.39-.09.78-.17,1.16-.28,3.6-1.08,6.2-4.64,7.76-7.88.47-1,.76-2,1.28-3l0-.07c-.29,1.46-.54,2.92-.75,4.39-1.42,2.77-2.92,6.33-6.14,7.38-.36.12-.73.22-1.1.32a7.1,7.1,0,0,0,4.38,2.82,4.38,4.38,0,0,1,1.34.27,7.12,7.12,0,0,1-4-.14A6.93,6.93,0,0,1,111.31,63.25Z" transform="translate(0.01 -4.89)" style="fill:#fefefe"/><path d="M192.33,15.59a9.81,9.81,0,0,0,.85-1.13,15.86,15.86,0,0,1,2.62-2.81s0,.06,0,.09c-.29,1.44-1,2.94-1.35,4.45-.22,1-.41,2.06-.56,3.09s-.26,2.08-.32,3.13c-.06.83,0,1.67-.11,2.5a7.73,7.73,0,0,1-.07-1.27A12.29,12.29,0,0,0,188.15,27C188.36,22.65,190.43,19.28,192.33,15.59Z" transform="translate(0.01 -4.89)" style="fill:#e2d2cd"/><path d="M129.91,12.16a2.37,2.37,0,0,1,.8.07c.51.19,1.17,1.13,1.64,1l.36.35c3.42,3.9,4.41,8.55,5.12,13.53-.7-.81-3.12-3.33-4.14-3.38a.49.49,0,0,0-.21,0,.75.75,0,0,0-.15.24,13.22,13.22,0,0,0-.38-2.22C132.34,18.56,131.65,15,129.91,12.16Z" transform="translate(0.01 -4.89)" style="fill:#e2d2cd"/><path d="M177,92.52a5.71,5.71,0,0,1-2,.35V92.8c-.76-.13-1.61.13-2.4,0-.65.39-1.29.83-2,1.17a16.45,16.45,0,0,1-7.43,1.63,18.38,18.38,0,0,1-9-2.65c-.53.22-1.38-.16-1.81.16s-1.25,0-1.76-.14a42,42,0,0,1-17-7.68c0,1.29,0,2.58.12,3.87.08,1.1.23,2.2.28,3.29a4.36,4.36,0,0,0,.06.81,1.24,1.24,0,0,1,.11-.67c1.39.51,2.9,2,4.1,3,.49.38,1,.7,1.53,1,1.44,1,2.86,2,4.35,2.86s3.11,1.59,4.58,2.56c4.64,3,9.75,7.74,12.11,12.83a44.18,44.18,0,0,1,2.43,7.89,3.43,3.43,0,0,0,.18-.7,29.82,29.82,0,0,1,2.67-8.23c2.55-4.89,7.19-8.76,11.72-11.75,1.9-1.26,4-2.25,5.8-3.6a25.9,25.9,0,0,0,9.51-12.94C188.13,88.57,182.82,91.63,177,92.52Z" transform="translate(0.01 -4.89)" style="fill:#e2d2cd"/><path d="M121.3,67.55c.45,1.43.87,2.94,1.44,4.33a31.34,31.34,0,0,0,7.5,10.52c1.06,1,2.26,1.86,3.31,2.89,0,1.29,0,2.58.12,3.87.08,1.1.23,2.2.28,3.29-2-1.18-5.83-5.51-7.34-7.58a28.3,28.3,0,0,1-5.18-14A13.46,13.46,0,0,1,121.3,67.55Z" transform="translate(0.01 -4.89)" style="fill:#d6110b"/><path d="M198.24,77.89c4.78-6.63,6.69-12,5.34-20.22a40.13,40.13,0,0,0-9.35-20,19.66,19.66,0,0,0-2.94-2.9c-1.09-1.51-3.86-3.15-5.44-4.17l0-.07.12-.4c.07-.26.13-.51.19-.77.21-.87.39-1.75.65-2.61A39.51,39.51,0,0,1,189,20.93c.06-.14.13-.27.19-.4l.15-.31A30.92,30.92,0,0,1,191.25,17a8,8,0,0,1,1.08-1.44,1.79,1.79,0,0,0,.22-.25l.06-.07.12-.17.12-.17.05-.07.28-.4a15.86,15.86,0,0,1,2.62-2.81.6.6,0,0,0,.08-.08l0,0,.06-.06.07-.06.09-.08.37-.29A8.68,8.68,0,0,1,198,13.4a40.26,40.26,0,0,1,3.89,16.68c.07,3.74-.29,9.42-2.15,12.69a26.81,26.81,0,0,1,1.55,2.64c.31-.85.58-1.72.83-2.58s.48-1.75.68-2.63.37-1.77.51-2.67.26-1.79.35-2.69a45.85,45.85,0,0,0-3.35-21.3,17.91,17.91,0,0,0-2.54-4.84,1.86,1.86,0,0,0-1.22-.79c-1.63-.06-6.42,4.12-7.69,5.35a23.93,23.93,0,0,0-3,2.44,115.71,115.71,0,0,0-8.72,8.86c-2-.39-4-.9-6.07-1.23a51.68,51.68,0,0,0-21.82,1.18c-1-1-1.94-2.14-2.93-3.2a60.25,60.25,0,0,0-8.76-8.07c-1.54-1.54-5.47-5-7.61-5a2.33,2.33,0,0,0-1.6.86,12.34,12.34,0,0,0-1.86,3.1,42.28,42.28,0,0,0-3.87,18.24c-.46,3.13.19,8,.83,11.1.32,1.52.74,3,1.07,4.55a19.28,19.28,0,0,0,1.71-3.19c-.32-1.31-.72-2.6-1-3.92a39.69,39.69,0,0,1-.8-8.9c.07-4.85,1.71-14.69,5.23-18.12a1,1,0,0,1,.76-.23,4,4,0,0,1,1.9,1.46l.36.35a6.34,6.34,0,0,1,1.65,1.88q.4.56.78,1.14c.24.38.48.77.71,1.17s.45.8.66,1.2.4.82.59,1.24.37.84.54,1.26.32.86.47,1.29.28.87.4,1.31.24.89.35,1.33a30.81,30.81,0,0,1,.63,3.58c.08.71.09,1.45.22,2.15a55.2,55.2,0,0,0-5.21,4l-.57.53-.55.55c-.19.18-.37.36-.54.55l-.54.56-.51.58c-.18.19-.34.39-.51.58l-.5.6-.48.6c-.16.21-.32.41-.47.62l-.46.63-.44.63c-.15.21-.29.43-.43.64l-.42.66c-.14.21-.27.43-.41.66l-.39.66-.37.68c-.13.23-.25.46-.37.69s-.23.46-.35.69l-.33.7c-.11.23-.22.46-.32.7s-.21.47-.31.71l-.29.72-.27.72c-.09.25-.18.49-.26.73s-.17.49-.25.74-.16.49-.23.74-.15.49-.22.74-.13.5-.2.75l-.18.75c-.06.25-.12.5-.17.76s-.11.5-.16.76-.09.5-.14.76a23.36,23.36,0,0,0,.23,9.78h0a14.71,14.71,0,0,0,.89,3.26c2.38,6.47,7.5,12.15,12.85,16.35a35.58,35.58,0,0,0,8.3,5c1.18.48,4.66,1.46,5.44,2,.51.11,1.28.42,1.76.14s1.28.06,1.81-.16a18.38,18.38,0,0,0,9,2.65A16.45,16.45,0,0,0,170.6,94c.68-.34,1.32-.78,2-1.17.79.13,1.64-.13,2.4,0v.07a5.71,5.71,0,0,0,2-.35c.86-.58,4.08-1.28,5.38-1.84A40.49,40.49,0,0,0,198.24,77.89ZM130.92,41.57l.48-.74Zm2.78-3.9c.43-.55.88-1.08,1.35-1.6C134.58,36.59,134.13,37.12,133.7,37.67Zm3.81-4.1.25-.22Zm2.72-2.69-.06.08Zm0-.07,0-.07Z" transform="translate(0.01 -4.89)" style="fill:url(#New_Gradient_Swatch_5)"/><path d="M209.07,67.36c2.59,0,4.72-2,6.09-4-4.28-1.37-7-4.47-9-8.38-.26-.52-.52-1-.76-1.56a71,71,0,0,1,.51,7.29,29.21,29.21,0,0,1-6.09,18.45c-1.31,1.62-4.74,5.21-6.47,6.21a32.73,32.73,0,0,1-.64,8.2c-1,5-3.46,12.25-7.87,15.13a10.49,10.49,0,0,1-1.56.81c5.07-.15,8.83-3,12.17-6.56.68-.72,1.32-1.47,2-2.21a59.36,59.36,0,0,1-3.28,6.4,51.43,51.43,0,0,1-3,4.15c.73-.47,1.47-.94,2.15-1.48a22.24,22.24,0,0,1,3.54-2.72,36.52,36.52,0,0,0,5.11-5.85,59.25,59.25,0,0,0,11.34-25.78c-1-1.36-2.18-2.66-3.25-4S208,68.88,207,67.63l0-.15A6,6,0,0,1,209.07,67.36Z" transform="translate(0.01 -4.89)" style="fill:url(#New_Gradient_Swatch_5-2)"/><path d="M119.28,67.21l1.94-.23c-.13-.59-.25-1.18-.34-1.78s-.17-1.19-.23-1.79-.09-1.2-.11-1.81,0-1.2,0-1.8c0-1.13.21-2.25.24-3.38-1.42,2.77-2.92,6.33-6.14,7.38-.36.12-.73.22-1.1.32a7.1,7.1,0,0,0,4.38,2.82A4.38,4.38,0,0,1,119.28,67.21Z" transform="translate(0.01 -4.89)" style="fill:url(#New_Gradient_Swatch_5-3)"/><path d="M132.08,103.2a18.48,18.48,0,0,0,11,6.31,20.28,20.28,0,0,1-2.48-1.72c-3.46-3.05-5.27-7.84-6.22-12.26a21.9,21.9,0,0,1-.37-2.27,4.36,4.36,0,0,1-.06-.81c0-1.09-.2-2.19-.28-3.29-.09-1.29-.14-2.58-.12-3.87-1.05-1-2.25-1.88-3.31-2.89a31.34,31.34,0,0,1-7.5-10.52c-.57-1.39-1-2.9-1.44-4.33-3,3.37-5,7.46-4.75,12.07.56,10.06,8.81,22.72,16.16,29.23.86.76,1.75,1.47,2.65,2.18-.8-1.18-1.65-2.36-2.37-3.6a35.55,35.55,0,0,1-2.92-7l.06.07C130.86,101.32,131.36,102.35,132.08,103.2Z" transform="translate(0.01 -4.89)" style="fill:url(#New_Gradient_Swatch_5-4)"/><path d="M144.66,48.73a6,6,0,0,1,3.41.76c2.55,1.49,3.61,4.72,4.32,7.41a9.83,9.83,0,0,0-2.12-1.76c-.26-.11-.34-.06-.59,0a4.42,4.42,0,0,1-3,.75l-.18,0-.18,0-.18,0-.17-.06-.18-.06-.16-.08-.17-.08-.16-.1-.15-.1-.15-.1-.15-.12-.14-.12a1.59,1.59,0,0,1-.13-.13l-.13-.13a1.34,1.34,0,0,1-.11-.14l-.12-.15a4.2,4.2,0,0,1-.5-3.39,30.23,30.23,0,0,0-2.88-1.21A9.92,9.92,0,0,1,144.66,48.73Z" transform="translate(0.01 -4.89)" style="fill:#361e21"/><path d="M180.88,48.81a13.85,13.85,0,0,1,4.93.76,7.51,7.51,0,0,0-2.35,1.55c-1.26,1.37-1.16,3.46-3,4.45a4.8,4.8,0,0,1-3.4.18,9.57,9.57,0,0,1-1.23-.64,13.69,13.69,0,0,0-2.28,1.73,15.9,15.9,0,0,1,2.46-5.6A6.81,6.81,0,0,1,180.88,48.81Z" transform="translate(0.01 -4.89)" style="fill:#361e21"/><path d="M129.81,11.09c2.35.29,3.78,2,5.18,3.77a34.66,34.66,0,0,1,6.56,15.06,3.73,3.73,0,0,0-1.24.82l-.6.37c-.13-.7-.14-1.44-.22-2.15a30.81,30.81,0,0,0-.63-3.58c-.11-.44-.22-.89-.35-1.33s-.26-.87-.4-1.31-.31-.86-.47-1.29-.35-.84-.54-1.26-.38-.83-.59-1.24-.43-.8-.66-1.2-.47-.79-.71-1.17-.51-.77-.78-1.14a6.34,6.34,0,0,0-1.65-1.88l-.36-.35a4,4,0,0,0-1.9-1.46,1,1,0,0,0-.76.23c-3.52,3.43-5.16,13.27-5.23,18.12a39.69,39.69,0,0,0,.8,8.9c.29,1.32.69,2.61,1,3.92a19.28,19.28,0,0,1-1.71,3.19c-.33-1.52-.75-3-1.07-4.55-.64-3.1-1.29-8-.83-11.1,0,.48,0,1,0,1.44.44-1.93.66-3.89,1.08-5.82.67-3.1,3.22-13.2,5.9-14.9Z" transform="translate(0.01 -4.89)" style="fill:url(#New_Gradient_Swatch_5-5)"/><path d="M163.33,28.09l0,0,0,0Z" transform="translate(0.01 -4.89)" style="fill:#fefefe"/><path d="M146.52,77.89a20.19,20.19,0,0,0,3.9,9.32,16.39,16.39,0,0,0,10.9,6.16,16,16,0,0,0,11.83-3.29,19.91,19.91,0,0,0,6.9-11,24.87,24.87,0,0,0,.38-2.86l-.21-.07c.08,0,.15-.1.24-.11a15.54,15.54,0,0,1,.07,4c-.58,5.8-3.62,9.23-8,12.74-.65.39-1.29.83-2,1.17a16.45,16.45,0,0,1-7.43,1.63,18.38,18.38,0,0,1-9-2.65,20.31,20.31,0,0,1-5.06-4.9A14.46,14.46,0,0,1,146.52,77.89Z" transform="translate(0.01 -4.89)" style="fill:#361e21"/><path d="M161.81,70.17a12,12,0,0,1,6.55,1.35,4.17,4.17,0,0,1,2.3,2.36,6.2,6.2,0,0,1-.86,4.41c-1.39,2.5-3.6,3.52-6.24,4.28a5.38,5.38,0,0,0,.14,1,3.85,3.85,0,0,0,1.82,2.31c2.2,1.31,4.79,1.11,7.17.49a10.36,10.36,0,0,1-1,.7c-2.31,1.38-4.82.73-7.25.13-1.85-.44-3.72.47-5.53.68a6.72,6.72,0,0,1-5.28-1.59,10.19,10.19,0,0,0,1.22.39,8.34,8.34,0,0,0,6.07-.86,4.44,4.44,0,0,0,2-3.17,11.29,11.29,0,0,1-4.33-1.93,7.24,7.24,0,0,1-2.88-4.6l0-.23c0-.08,0-.16,0-.24V75.4c0-.08,0-.16,0-.24a1.79,1.79,0,0,1,0-.23,2,2,0,0,1,0-.24,2.23,2.23,0,0,1,0-.23l.06-.22c0-.08.05-.15.07-.23s0-.15.08-.22l.09-.22.11-.21a1.28,1.28,0,0,1,.11-.2l.12-.2c0-.07.09-.14.14-.2l.14-.19A7.47,7.47,0,0,1,161.81,70.17Z" transform="translate(0.01 -4.89)" style="fill:#361e21"/><path d="M177.18,24.56c-2-.39-4-.9-6.07-1.23a51.68,51.68,0,0,0-21.82,1.18c-1-1-1.94-2.14-2.93-3.2a60.25,60.25,0,0,0-8.76-8.07c.69,1.24,3.21,3.25,4.3,4.45q2.37,2.64,4.59,5.4c1,1.23,1.9,2.51,2.94,3.7a50.27,50.27,0,0,1,28,.2c.86-1.17,1.66-2.39,2.53-3.56,1.29-1.68,2.62-3.32,4-4.92.61-.71,1.24-1.39,1.9-2.06a18.48,18.48,0,0,0,3-3.19,23.93,23.93,0,0,0-3,2.44A115.71,115.71,0,0,0,177.18,24.56Z" transform="translate(0.01 -4.89)" style="fill:#fff"/><path d="M129.91,12.16a2.37,2.37,0,0,1,.8.07c.51.19,1.17,1.13,1.64,1a4,4,0,0,0-1.9-1.46,1,1,0,0,0-.76.23c-3.52,3.43-5.16,13.27-5.23,18.12a39.69,39.69,0,0,0,.8,8.9c.29,1.32.69,2.61,1,3.92A51.33,51.33,0,0,1,132,35.85c-1.69-3.11-2.66-6.36-2-9.92.72,2.76.85,3.37,2.7,5.65a24.92,24.92,0,0,1,.11-4.73c.14-1,.43-1.89.48-2.87a13.22,13.22,0,0,0-.38-2.22C132.34,18.56,131.65,15,129.91,12.16Z" transform="translate(0.01 -4.89)" style="fill:#fff"/><path d="M201.9,30.08A40.26,40.26,0,0,0,198,13.4a8.68,8.68,0,0,0-1.5-2.36,6.91,6.91,0,0,0-.71.61s0,.06,0,.09c-.29,1.44-1,2.94-1.35,4.45-.22,1-.41,2.06-.56,3.09s-.26,2.08-.32,3.13c-.06.83,0,1.67-.11,2.5A22.58,22.58,0,0,0,195,31.48a27.4,27.4,0,0,0,2.16-5.63A10.82,10.82,0,0,1,197,28a18.13,18.13,0,0,1-2.7,8.05,41.37,41.37,0,0,1,5.42,6.74C201.61,39.5,202,33.82,201.9,30.08Z" transform="translate(0.01 -4.89)" style="fill:#fff"/><path d="M148.44,51.39a.43.43,0,0,0,0-.11.42.42,0,0,1,0-.1.31.31,0,0,1,0-.1l-.06-.09a.27.27,0,0,1-.07-.08,1.52,1.52,0,0,0-1.25-.4h-.12a1.53,1.53,0,0,0-.79,1,1.06,1.06,0,0,0,.2.85,1.35,1.35,0,0,0,.83.51,3.5,3.5,0,0,0,.56,0,1.69,1.69,0,0,0,.83-1.18V51.6a.4.4,0,0,0,0-.11A.36.36,0,0,0,148.44,51.39Z" transform="translate(0.01 -4.89)" style="fill:#fff"/><path d="M180.19,50.55a1.44,1.44,0,0,0-.41,0c-.44.27-.8.49-.92,1a1,1,0,0,0,.15.86,1.64,1.64,0,0,0,1.17.6,1.39,1.39,0,0,0,.89-.78,1.18,1.18,0,0,0-.06-1A1.35,1.35,0,0,0,180.19,50.55Z" transform="translate(0.01 -4.89)" style="fill:#fff"/><path d="M151.3,43.34a11.75,11.75,0,0,0-4.61-1.16,2.26,2.26,0,0,0-1.48.81,1.08,1.08,0,0,0-.12.86c.47,1.85,3.72,3.78,5.33,4.68a7.08,7.08,0,0,0,2.38.89,1.71,1.71,0,0,0,1.24-.73,3.38,3.38,0,0,0,.2-2.46A5.44,5.44,0,0,0,151.3,43.34Z" transform="translate(0.01 -4.89)" style="fill:#fff"/><path d="M181,42.61a6.15,6.15,0,0,0-2.56-.11c-2,.28-4.26.92-5.56,2.61a3.5,3.5,0,0,0-.79,2.54,2.06,2.06,0,0,0,.7,1.38,1.85,1.85,0,0,0,1.42.34A3.55,3.55,0,0,0,175.4,49c1.67-.86,5.88-3,6.49-4.75a1.25,1.25,0,0,0,0-1A1.33,1.33,0,0,0,181,42.61Z" transform="translate(0.01 -4.89)" style="fill:#fff"/><path d="M161.36,72.24c-1.33.1-2.92.21-3.84,1.33a2.91,2.91,0,0,0-.59,2.15,4,4,0,0,0,1.57,2.66,12.66,12.66,0,0,0,1.26.79,9.68,9.68,0,0,1-1.57-1.87,3.1,3.1,0,0,1-.25-2.4,2.89,2.89,0,0,1,1.71-1.5,15.64,15.64,0,0,1,5.94-.57A11,11,0,0,0,161.36,72.24Z" transform="translate(0.01 -4.89)" style="fill:#fff"/><g style="clip-path:url(#clip-path)"><path d="M135.07,111.35l0,2.48-49.54-17L84.14,95Z" transform="translate(0.01 -4.89)" style="fill:#fff"/><path d="M136.12,107.16a4.15,4.15,0,0,0-.1-1.06,5.13,5.13,0,0,0-1-2,8.37,8.37,0,0,0-2-1.68,13,13,0,0,0-2.78-1.23l-.67-.19-.68-.16-.72-.14-.74-.11L113.9,98.89,99.77,97.08,88.71,95.65c-2.79-.37-4.5-.59-4.55-.61l50.93,16.33v2.48l.84-3.06a1.3,1.3,0,0,1,.08-.34,1.86,1.86,0,0,0,.05-.34v-.33a1.82,1.82,0,0,0,0-.33V107ZM136,108a1.3,1.3,0,0,1-.08.34,5.39,5.39,0,0,0,.08-.56.81.81,0,0,1,0,.22Zm.09-.66v0Z" transform="translate(0.01 -4.89)" style="fill:url(#linear-gradient)"/><path d="M110.05,123a14.33,14.33,0,0,0-4.61-2.53L84,113.13a20.53,20.53,0,0,0-5.6-1,24.56,24.56,0,0,0-5.87.41,22.57,22.57,0,0,0-5.5,1.68,16.88,16.88,0,0,0-4.49,2.93,9.81,9.81,0,0,0-2.6,3.69,6.36,6.36,0,0,0-.27,3.76,7,7,0,0,0,2,3.37,12,12,0,0,0,4.26,2.59l21.83,8.24A21.54,21.54,0,0,0,93.82,140a25.69,25.69,0,0,0,6.37-.41,22.94,22.94,0,0,0,5.88-1.94,15.58,15.58,0,0,0,4.52-3.29,9.11,9.11,0,0,0,2.25-4,6.63,6.63,0,0,0-.28-3.94,8.67,8.67,0,0,0-2.51-3.38Z" transform="translate(0.01 -4.89)" style="fill:url(#linear-gradient-2)"/><path d="M136.86,111.93a13.7,13.7,0,0,1,4,2,8.19,8.19,0,0,1,2.35,2.75,5.3,5.3,0,0,1,.48,3.16,6.41,6.41,0,0,1-1.58,3.2l-31.46,36.1a13.65,13.65,0,0,1-4,3.08,19.67,19.67,0,0,1-5.17,1.78,21,21,0,0,1-5.65.34,18,18,0,0,1-5.41-1.24L4.2,128a7.49,7.49,0,0,1-3-2.08A4.76,4.76,0,0,1,0,123.14a5.69,5.69,0,0,1,.72-3,10,10,0,0,1,2.57-3L38.1,88.46a14.87,14.87,0,0,1,3.54-2.09,20.5,20.5,0,0,1,4.2-1.25,21.88,21.88,0,0,1,4.43-.33,16.23,16.23,0,0,1,4.15.69ZM87.78,138.82a21.89,21.89,0,0,0,6.09,1.27,25.65,25.65,0,0,0,6.37-.41,22.94,22.94,0,0,0,5.88-1.94,15.45,15.45,0,0,0,4.52-3.29,9.11,9.11,0,0,0,2.25-4,6.67,6.67,0,0,0-.28-3.95,8.6,8.6,0,0,0-2.52-3.44,14.33,14.33,0,0,0-4.61-2.53L84,113.13a20.53,20.53,0,0,0-5.6-1,24.56,24.56,0,0,0-5.87.41,22.57,22.57,0,0,0-5.5,1.68,16.88,16.88,0,0,0-4.49,2.93,9.81,9.81,0,0,0-2.6,3.69,6.36,6.36,0,0,0-.27,3.76,7,7,0,0,0,2,3.37,12,12,0,0,0,4.26,2.59l21.83,8.24" transform="translate(0.01 -4.89)" style="fill:#ebeaf7"/><path d="M143.79,119a5.48,5.48,0,0,1-.39,2,7.64,7.64,0,0,1-1.26,2l-31.48,36.1a13.65,13.65,0,0,1-4,3.08,19.67,19.67,0,0,1-5.17,1.78,21,21,0,0,1-5.65.34,18,18,0,0,1-5.42-1.24L4.2,128a8.47,8.47,0,0,1-1.53-.78,6,6,0,0,1-1.18-1,5.08,5.08,0,0,1-.84-1.07A4.27,4.27,0,0,1,.16,124l4.36,16.77A4.35,4.35,0,0,0,5,142a5.26,5.26,0,0,0,.84,1.1A6.77,6.77,0,0,0,7,144a10.06,10.06,0,0,0,1.5.84l83.82,36a16.57,16.57,0,0,0,5.23,1.28,19.3,19.3,0,0,0,5.47-.3,18.11,18.11,0,0,0,5-1.77,13.1,13.1,0,0,0,3.86-3.08l30.44-36.4a7.37,7.37,0,0,0,1.22-2,6.16,6.16,0,0,0,.29-1,6,6,0,0,0,.09-1Z" transform="translate(0.01 -4.89)" style="fill:url(#linear-gradient-3)"/><path d="M194.24,132.2l.77,6.09a2.43,2.43,0,0,0-.48-.14,4.79,4.79,0,0,1-.51-.07h-.54a3.31,3.31,0,0,0-.55.08,3.16,3.16,0,0,0-.53.13l-.49.19a3.5,3.5,0,0,0-.42.24,2.16,2.16,0,0,0-.37.29l-.83-6.08a2.08,2.08,0,0,1,.36-.29,3,3,0,0,1,.43-.24,3,3,0,0,1,.5-.19,3.18,3.18,0,0,1,.53-.14,5.17,5.17,0,0,0,.55-.07h.55a4.63,4.63,0,0,1,.52.07A3.18,3.18,0,0,1,194.24,132.2Z" transform="translate(0.01 -4.89)" style="fill:#d9cdfe"/><path d="M205.74,136.21l.68,6.13L195,138.24l-.77-6.08Z" transform="translate(0.01 -4.89)" style="fill:#d9cdfe"/><path d="M207.62,143.41a1.68,1.68,0,0,0-.16-.33,1.84,1.84,0,0,0-.26-.29c-.11-.09-.23-.17-.35-.25a3.36,3.36,0,0,0-.43-.2l-.68-6.13a4.14,4.14,0,0,1,.43.2,2.71,2.71,0,0,1,.35.24,1.48,1.48,0,0,1,.26.3,1.37,1.37,0,0,1,.16.32Q207.27,140.33,207.62,143.41Z" transform="translate(0.01 -4.89)" style="fill:#d9cdfe"/><path d="M190.31,132.89l.81,6.08-8.1,7.8-.9-6.11Z" transform="translate(0.01 -4.89)" style="fill:#d9cdfe"/><path d="M200.14,138.55l.74,6.14-6.8-2.49-.79-6.1Z" transform="translate(0.01 -4.89)" style="fill:#fff"/><path d="M193.29,136.1l.79,6.1-4.79,4.67-.85-6.12Z" transform="translate(0.01 -4.89)" style="fill:#fff"/><path d="M207,137.49l.67,6.13a1.5,1.5,0,0,1,0,.3,1.38,1.38,0,0,1-.08.29c-.05.1-.1.2-.16.3a3.11,3.11,0,0,1-.23.28l-.68-6.14a3.11,3.11,0,0,0,.23-.28,1.64,1.64,0,0,0,.16-.29,1.71,1.71,0,0,0,.09-.3Z" transform="translate(0.01 -4.89)" style="fill:#fff"/><path d="M182.49,148.05l-.91-6.11a.92.92,0,0,1,0-.33,2,2,0,0,1,.09-.33,1.5,1.5,0,0,1,.19-.32,1.48,1.48,0,0,1,.26-.3l.92,6.11a1.87,1.87,0,0,0-.26.3,1.32,1.32,0,0,0-.18.33,1.59,1.59,0,0,0-.09.33A.69.69,0,0,0,182.49,148.05Z" transform="translate(0.01 -4.89)" style="fill:#d9cdfe"/><path d="M182.49,148.05l-.91-6.11v.1a.85.85,0,0,0,.14.34,1.37,1.37,0,0,0,.24.29,1.7,1.7,0,0,0,.34.26l.42.2.9,6.12a4.09,4.09,0,0,1-.42-.2,2.18,2.18,0,0,1-.34-.26,1.33,1.33,0,0,1-.23-.3.85.85,0,0,1-.14-.34v-.1Z" transform="translate(0.01 -4.89)" style="fill:#fff"/><path d="M195.32,143.27l.79,6.15-6.82-2.55-.85-6.12Z" transform="translate(0.01 -4.89)" style="fill:#d9cdfe"/><path d="M200.14,138.55l.74,6.14-4.77,4.73-.79-6.15Z" transform="translate(0.01 -4.89)" style="fill:#d9cdfe"/><path d="M188.44,140.75l4.85-4.65,6.85,2.45-4.82,4.72Z" transform="translate(0.01 -4.89)" style="fill:#d9cdfe"/><path d="M206.5,138.65l.68,6.14-8,8-.78-6.16Z" transform="translate(0.01 -4.89)" style="fill:#fff"/><path d="M194.35,147.42l.8,6.17-11.51-4.34-.89-6.12Z" transform="translate(0.01 -4.89)" style="fill:#fff"/><path d="M198.41,146.66l.78,6.16-.37.31a5.05,5.05,0,0,1-.45.25,3.51,3.51,0,0,1-1.05.35,2.78,2.78,0,0,1-.57.07h-.56a1.24,1.24,0,0,1-.54-.07,3.12,3.12,0,0,1-.5-.14l-.83-6.17a4.13,4.13,0,0,0,.5.15,4.87,4.87,0,0,0,.55.06h.56a3.7,3.7,0,0,0,.57-.07,4.94,4.94,0,0,0,.55-.15,5.55,5.55,0,0,0,.52-.2A2.82,2.82,0,0,0,198,147a2.92,2.92,0,0,0,.4-.29Z" transform="translate(0.01 -4.89)" style="fill:#fff"/><path d="M212.66,137.78l.63,6.15a7.56,7.56,0,0,1,0,1.84,8.56,8.56,0,0,1-.51,1.88,10.91,10.91,0,0,1-1,1.88,13.07,13.07,0,0,1-1.5,1.82,18.8,18.8,0,0,1-5.27,3.7,27.22,27.22,0,0,1-6.66,2.18,29.13,29.13,0,0,1-7.16.46,22.65,22.65,0,0,1-6.71-1.42,16,16,0,0,1-3-1.47,11.82,11.82,0,0,1-2.22-1.83,8,8,0,0,1-1.48-2.08,7.23,7.23,0,0,1-.74-2.26l-1-6.11a7.09,7.09,0,0,0,.74,2.25,9,9,0,0,0,1.49,2.07,10.9,10.9,0,0,0,2.25,1.81,14.93,14.93,0,0,0,3,1.47,23.19,23.19,0,0,0,6.79,1.39,28.66,28.66,0,0,0,7.22-.47,28,28,0,0,0,6.72-2.18,19.1,19.1,0,0,0,5.31-3.69,12.54,12.54,0,0,0,1.52-1.82,10.16,10.16,0,0,0,1-1.89,9.26,9.26,0,0,0,.52-1.87,7.31,7.31,0,0,0,0-1.81Z" transform="translate(0.01 -4.89)" style="fill:#a78afe"/><path d="M204.65,129.61a15.35,15.35,0,0,1,5,2.81,8.71,8.71,0,0,1,2.64,3.84,7.25,7.25,0,0,1,0,4.42,10.85,10.85,0,0,1-2.82,4.49,19.1,19.1,0,0,1-5.31,3.69,28,28,0,0,1-6.72,2.18,28.66,28.66,0,0,1-7.22.47,23.19,23.19,0,0,1-6.79-1.39,14.39,14.39,0,0,1-5-3,8.38,8.38,0,0,1-2.36-4,7.5,7.5,0,0,1,.33-4.42,11.58,11.58,0,0,1,3.05-4.33,19.59,19.59,0,0,1,5.27-3.45,27.29,27.29,0,0,1,6.43-2,29.76,29.76,0,0,1,6.86-.48,23.86,23.86,0,0,1,6.54,1.23Zm-6.24,17,8.09-8a2.16,2.16,0,0,0,.27-.33,1.58,1.58,0,0,0,.16-.35,1.19,1.19,0,0,0,0-.7,1.87,1.87,0,0,0-.15-.32,1.93,1.93,0,0,0-.27-.3,2.71,2.71,0,0,0-.35-.24,3.36,3.36,0,0,0-.43-.2l-11.49-4a2.72,2.72,0,0,0-.49-.13,4.34,4.34,0,0,0-.52-.07h-.54a1.76,1.76,0,0,0-.56.07,3.46,3.46,0,0,0-.53.14,2.92,2.92,0,0,0-.49.19,3.75,3.75,0,0,0-.44.24,2.54,2.54,0,0,0-.36.29l-8.19,7.77a1.75,1.75,0,0,0-.28.33,1.08,1.08,0,0,0-.19.35,1.05,1.05,0,0,0-.08.36,1,1,0,0,0,0,.34,1.28,1.28,0,0,0,.14.34,1.42,1.42,0,0,0,.25.3,1.37,1.37,0,0,0,.33.25,4,4,0,0,0,.42.2l11.61,4.29a2.88,2.88,0,0,0,.5.15,3.31,3.31,0,0,0,.55.06h.56a2.78,2.78,0,0,0,.57-.07,4.92,4.92,0,0,0,.55-.14c.17-.06.35-.13.52-.21A2.82,2.82,0,0,0,198,147a3.47,3.47,0,0,0,.37-.3" transform="translate(0.01 -4.89)" style="fill:#d9cdfe"/><path d="M206.94,137.25a1.19,1.19,0,0,1,0,.7,1.58,1.58,0,0,1-.16.35,2.16,2.16,0,0,1-.27.33l-8.09,8a3.47,3.47,0,0,1-.37.3,2.82,2.82,0,0,1-.44.26c-.17.08-.35.15-.51.21l-.56.14c-.18,0-.38.06-.57.07a5.23,5.23,0,0,1-.56,0,4.87,4.87,0,0,1-.55-.06,2.88,2.88,0,0,1-.5-.15l-11.61-4.27a2,2,0,0,1-.42-.2,1.2,1.2,0,0,1-.34-.25,1,1,0,0,1-.24-.29,1.14,1.14,0,0,1-.15-.34,1,1,0,0,1,0-.35,1.19,1.19,0,0,1,.09-.36,1.11,1.11,0,0,1,.18-.34,1.48,1.48,0,0,1,.28-.33l8.19-7.77a1.76,1.76,0,0,1,.37-.29,1.82,1.82,0,0,1,.43-.24,3.07,3.07,0,0,1,.5-.2,3.16,3.16,0,0,1,.53-.13,5.17,5.17,0,0,0,.55-.07h.55a3.09,3.09,0,0,1,.52.07,2,2,0,0,1,.48.12l11.45,4a3.36,3.36,0,0,1,.43.2,2.71,2.71,0,0,1,.35.24,1.93,1.93,0,0,1,.27.3,1.11,1.11,0,0,1,.17.3Zm-11.62,6,4.82-4.71-6.85-2.46-4.85,4.66,6.88,2.52" transform="translate(0.01 -4.89)" style="fill:#fff"/><path d="M160.91,149.42a4.27,4.27,0,0,0-1.27-.25,5.56,5.56,0,0,0-2.57.48,3.61,3.61,0,0,0-1,.68l-1-7.89a3.66,3.66,0,0,1,1-.68,5.49,5.49,0,0,1,1.25-.39,6,6,0,0,1,1.34-.09,4.74,4.74,0,0,1,1.29.24Z" transform="translate(0.01 -4.89)" style="fill:#d9cdfe"/><path d="M162.41,151a1.45,1.45,0,0,0-.14-.46,1.79,1.79,0,0,0-.3-.42,3.16,3.16,0,0,0-.45-.37,3.08,3.08,0,0,0-.61-.28l-.93-7.9a3,3,0,0,1,.6.29,2.28,2.28,0,0,1,.46.36,2,2,0,0,1,.3.42,1.47,1.47,0,0,1,.14.45C161.76,145.42,162.13,148.58,162.41,151Z" transform="translate(0.01 -4.89)" style="fill:#d9cdfe"/><path d="M142.18,153a1.91,1.91,0,0,0-.33.37,1.64,1.64,0,0,0-.21.39,1.14,1.14,0,0,0-.11.4,1.21,1.21,0,0,0,0,.38l-1.12-7.88a2.54,2.54,0,0,1,0-.39,1.72,1.72,0,0,1,.1-.39,2.88,2.88,0,0,1,.22-.38,3.9,3.9,0,0,1,.33-.38q.56,3.94,1.12,7.88-.57-3.93-1.12-7.88a3.83,3.83,0,0,1,1-.67,5.13,5.13,0,0,1,1.26-.4,6,6,0,0,1,1.34-.09,4.21,4.21,0,0,1,1.27.25L147,152a4.21,4.21,0,0,0-1.26-.25,5.42,5.42,0,0,0-1.33.09,5.49,5.49,0,0,0-1.25.39,3.61,3.61,0,0,0-1,.68Z" transform="translate(0.01 -4.89)" style="fill:#d9cdfe"/><path d="M161.48,143l.93,7.91a1.09,1.09,0,0,1,0,.36,1.56,1.56,0,0,1-.1.37,2,2,0,0,1-.19.36,3.65,3.65,0,0,1-.31.36l-.94-7.91c.11-.11.21-.23.31-.35s.14-.24.2-.36a2.59,2.59,0,0,0,.11-.37,2.29,2.29,0,0,0,0-.37Z" transform="translate(0.01 -4.89)" style="fill:#fff"/><path d="M151.31,146.08l1,7.9L147,152,146,144.16Z" transform="translate(0.01 -4.89)" style="fill:#d9cdfe"/><path d="M155.09,142.44l1,7.89L152.33,154l-1-7.9Z" transform="translate(0.01 -4.89)" style="fill:#d9cdfe"/><path d="M141.53,154.49c-.37-2.63-.75-5.26-1.12-7.88a1.28,1.28,0,0,0,.14.43,1.41,1.41,0,0,0,.29.4,2.07,2.07,0,0,0,.44.34,2,2,0,0,0,.57.28L143,156a3,3,0,0,1-.57-.28,2.44,2.44,0,0,1-.43-.35,1.46,1.46,0,0,1-.29-.41,1.28,1.28,0,0,1-.14-.43Z" transform="translate(0.01 -4.89)" style="fill:#fff"/><path d="M160,141.52a2.82,2.82,0,0,1,1,.56,1.62,1.62,0,0,1,.5.73,1.5,1.5,0,0,1,0,.84,2.18,2.18,0,0,1-.56.84l-3.78,3.71-5.79-2.08,3.78-3.65a3.63,3.63,0,0,1,1-.67,6.07,6.07,0,0,1,1.25-.4,6,6,0,0,1,1.34-.09,5.11,5.11,0,0,1,1.29.21Z" transform="translate(0.01 -4.89)" style="fill:#fff"/><path d="M160.87,144.49l.93,7.91-3.72,3.69-1-7.93Z" transform="translate(0.01 -4.89)" style="fill:#fff"/><path d="M157.1,148.16l1,7.93L152.33,154l-1-7.9Z" transform="translate(0.01 -4.89)" style="fill:#fff"/><path d="M162.57,150.13l.93,7.94-5.42-2-1-7.93Z" transform="translate(0.01 -4.89)" style="fill:#d9cdfe"/><path d="M147.22,150l1.07,7.91-3.83,3.75-1.11-7.93Z" transform="translate(0.01 -4.89)" style="fill:#d9cdfe"/><path d="M143.81,163.25l-1.11-7.93a1.28,1.28,0,0,1,0-.39,1.38,1.38,0,0,1,.1-.4,1.56,1.56,0,0,1,.22-.4,2.43,2.43,0,0,1,.33-.38l1.12,7.93a1.86,1.86,0,0,0-.55.78,1.4,1.4,0,0,0-.11.4,1.28,1.28,0,0,0,0,.39Z" transform="translate(0.01 -4.89)" style="fill:#d9cdfe"/><path d="M143.81,163.25l-1.11-7.93a1.12,1.12,0,0,0,.14.46,1.66,1.66,0,0,0,.29.42,3,3,0,0,0,.45.35,2.94,2.94,0,0,0,.59.29,4.48,4.48,0,0,0,1.3.26,5.47,5.47,0,0,0,2.67-.5,4.26,4.26,0,0,0,1-.71l1.06,8a4.3,4.3,0,0,1-1,.71,5.17,5.17,0,0,1-1.28.41,6.22,6.22,0,0,1-1.36.09,4.07,4.07,0,0,1-1.29-.27,2.69,2.69,0,0,1-.59-.29,2.17,2.17,0,0,1-.44-.36,1.46,1.46,0,0,1-.29-.41,1.36,1.36,0,0,1-.15-.47Z" transform="translate(0.01 -4.89)" style="fill:#fff"/><path d="M143.35,153.75l3.87-3.73,5.81,2.11-3.85,3.76a4.26,4.26,0,0,1-1,.71,5.47,5.47,0,0,1-2.67.5,4.48,4.48,0,0,1-1.3-.26,2.82,2.82,0,0,1-1-.58,1.61,1.61,0,0,1-.47-.78,1.5,1.5,0,0,1,0-.84,2.14,2.14,0,0,1,.62-.89Z" transform="translate(0.01 -4.89)" style="fill:#fff"/><path d="M148.14,156.62a4.56,4.56,0,0,0,1-.71l.33,2.53,4.54,1.68-1-7.94-5.81-2.11.89,6.59Z" transform="translate(0.01 -4.89)" style="fill:#fff"/><path d="M164.11,151.71l.92,8a1.89,1.89,0,0,0-.13-.48,1.78,1.78,0,0,0-.32-.44,1.87,1.87,0,0,0-.46-.38,2.37,2.37,0,0,0-.62-.3l-.93-7.94a2.67,2.67,0,0,1,1.09.67,1.62,1.62,0,0,1,.31.43,1.56,1.56,0,0,1,.14.48Z" transform="translate(0.01 -4.89)" style="fill:#d9cdfe"/><path d="M162.57,150.13a3,3,0,0,1,1,.56,1.81,1.81,0,0,1,.5.77,1.34,1.34,0,0,1,0,.84,2.05,2.05,0,0,1-.55.84,4,4,0,0,1-1,.7,5.52,5.52,0,0,1-2.66.5,4.19,4.19,0,0,1-1.3-.27l-5.48-2L147.24,150l-5.38-2a3,3,0,0,1-.94-.55,1.68,1.68,0,0,1-.47-.75,1.54,1.54,0,0,1,.05-.85,2.32,2.32,0,0,1,.57-.84,3.88,3.88,0,0,1,1-.67,5,5,0,0,1,1.26-.4,6,6,0,0,1,1.34-.09,4.6,4.6,0,0,1,1.27.24l5.36,1.93,5.79,2.08Z" transform="translate(0.01 -4.89)" style="fill:#fff"/><path d="M164.11,151.71l.92,8a1.15,1.15,0,0,1,0,.37,1.56,1.56,0,0,1-.1.37,2.36,2.36,0,0,1-.5.74,3.78,3.78,0,0,1-1,.7,5,5,0,0,1-1.26.41,5.71,5.71,0,0,1-1.37.09,4.07,4.07,0,0,1-1.29-.27l-1-8a4.48,4.48,0,0,0,1.31.26,5.54,5.54,0,0,0,2.66-.49,4.15,4.15,0,0,0,1-.7,3.57,3.57,0,0,0,.31-.37,2.22,2.22,0,0,0,.21-.37,2.11,2.11,0,0,0,.1-.38,1.82,1.82,0,0,0,0-.33Z" transform="translate(0.01 -4.89)" style="fill:#fff"/><path d="M153,152.14l1,7.93-3.81,3.77-1.06-8Z" transform="translate(0.01 -4.89)" style="fill:#fff"/><path d="M175.92,146.67l.84,8a9.46,9.46,0,0,1-.06,2.38,10.65,10.65,0,0,1-.66,2.43,13.11,13.11,0,0,1-1.3,2.42,16.31,16.31,0,0,1-1.94,2.37A24.36,24.36,0,0,1,166,169a34.45,34.45,0,0,1-8.64,2.77,36.74,36.74,0,0,1-9.24.6,29.32,29.32,0,0,1-8.73-1.79,21.54,21.54,0,0,1-3.81-1.91,15.23,15.23,0,0,1-2.88-2.36,11.46,11.46,0,0,1-1.93-2.7,9.62,9.62,0,0,1-.95-2.92l-1.24-7.9a10,10,0,0,0,1,2.92,12.18,12.18,0,0,0,1.93,2.68,15.57,15.57,0,0,0,2.9,2.34,21.73,21.73,0,0,0,3.84,1.89,30.44,30.44,0,0,0,8.79,1.8,38,38,0,0,0,9.34-.6A36.43,36.43,0,0,0,165,161a25,25,0,0,0,6.88-4.77,15.78,15.78,0,0,0,2-2.36,13.41,13.41,0,0,0,1.31-2.41,10.24,10.24,0,0,0,.67-2.42,9.4,9.4,0,0,0,.08-2.37Z" transform="translate(0.01 -4.89)" style="fill:#a78afe"/><path d="M165.56,136.11a19.67,19.67,0,0,1,6.51,3.62,11.39,11.39,0,0,1,3.42,5,9.43,9.43,0,0,1,.06,5.71,14,14,0,0,1-3.64,5.82A24.76,24.76,0,0,1,165,161a36.43,36.43,0,0,1-8.7,2.82,38.07,38.07,0,0,1-9.35.6,30.37,30.37,0,0,1-8.78-1.8,18.58,18.58,0,0,1-6.45-3.94,10.77,10.77,0,0,1-3-5.18,9.62,9.62,0,0,1,.42-5.71,15.1,15.1,0,0,1,3.94-5.6,25.57,25.57,0,0,1,6.81-4.45,35.75,35.75,0,0,1,8.32-2.61,38.22,38.22,0,0,1,8.87-.61,31.08,31.08,0,0,1,8.48,1.59Zm-7.05,18a4.48,4.48,0,0,0,1.31.26,5.54,5.54,0,0,0,2.66-.49,4.15,4.15,0,0,0,1-.7,2.21,2.21,0,0,0,.56-.85,1.5,1.5,0,0,0,0-.84,1.86,1.86,0,0,0-.51-.76,2.73,2.73,0,0,0-1-.57l-5.45-1.94,3.77-3.67a2.19,2.19,0,0,0,.55-.85,1.5,1.5,0,0,0,0-.84,1.68,1.68,0,0,0-.5-.73,2.82,2.82,0,0,0-1-.56,5.65,5.65,0,0,0-1.29-.24,6,6,0,0,0-1.34.09,6.07,6.07,0,0,0-1.25.4,3.78,3.78,0,0,0-1,.67l-3.78,3.65-5.35-1.93a4.26,4.26,0,0,0-1.27-.24,5.12,5.12,0,0,0-1.35.09,5,5,0,0,0-1.25.39,3.76,3.76,0,0,0-1,.68,2.2,2.2,0,0,0-.57.84,1.42,1.42,0,0,0-.05.84,1.6,1.6,0,0,0,.47.75,2.64,2.64,0,0,0,.94.56l5.37,2-3.87,3.73a2.35,2.35,0,0,0-.58.84,1.5,1.5,0,0,0,0,.84,1.78,1.78,0,0,0,.47.79,2.84,2.84,0,0,0,1,.57,4.35,4.35,0,0,0,1.3.26,5.43,5.43,0,0,0,2.66-.5,4.32,4.32,0,0,0,1-.7l3.85-3.77,5.49,2" transform="translate(0.01 -4.89)" style="fill:#d9cdfe"/><path d="M142.8,154.54a.09.09,0,0,1,0,0s0,0,0,0a.11.11,0,0,1,0-.08h0l0-.09.06-.1.06-.08.07-.08.08-.09.08-.09,3.87-3.73-5.37-2,.92,6.56Z" transform="translate(0.01 -4.89)" style="fill:#d9cdfe"/><path d="M158.51,154.12l1,8-5.44-2-1-7.93Z" transform="translate(0.01 -4.89)" style="fill:#d9cdfe"/></g></svg>