<?xml version="1.0" encoding="utf-8"?>
<!-- Generator: Adobe Illustrator 24.3.0, SVG Export Plug-In . SVG Version: 6.00 Build 0)  -->
<svg version="1.1" id="Layer_1" xmlns="http://www.w3.org/2000/svg" xmlns:xlink="http://www.w3.org/1999/xlink" x="0px" y="0px"
	 viewBox="0 0 219.1 177.4" style="enable-background:new 0 0 219.1 177.4;" xml:space="preserve">
<style type="text/css">
	.st0{opacity:0.4;}
	.st1{fill:url(#SVGID_1_);}
	.st2{fill-rule:evenodd;clip-rule:evenodd;fill:#808080;}
	.st3{fill-rule:evenodd;clip-rule:evenodd;fill:#FFFFFF;}
	.st4{fill:#FEFEFE;}
	.st5{clip-path:url(#SVGID_3_);}
	.st6{fill:#FFFFFF;}
	.st7{fill:url(#SVGID_4_);}
	.st8{fill:url(#SVGID_5_);}
	.st9{fill:#EBEAF7;}
	.st10{fill:url(#SVGID_6_);}
	.st11{fill:#D9CDFE;}
	.st12{fill:#A78AFE;}
</style>
<g class="st0">
	<linearGradient id="SVGID_1_" gradientUnits="userSpaceOnUse" x1="88.5357" y1="40.2424" x2="175.9279" y2="99.1934">
		<stop  offset="8.623718e-03" style="stop-color:#9C2EFF"/>
		<stop  offset="0.3915" style="stop-color:#9C2EFF"/>
		<stop  offset="0.8467" style="stop-color:#8015E0"/>
	</linearGradient>
	<circle class="st1" cx="130" cy="68.2" r="45"/>
	<g>
		<path class="st2" d="M125,28.9c-1.1,1.1-1.7,1.9-2.7,3.9c-1.8,3.6-2.5,7.1-2,10.6c0.3,2,0.9,4,1.4,4.4c0.2,0.1,0.3,0.3,0.3,0.4
			c0,0.1,0.2,0.4,0.3,0.6c0.3,0.4,0.3,0.4-0.1,0.2c-1.2-0.4-2.6-1.5-3.7-2.9c-0.8-1.1-1.6-3.2-1.9-5.4c-0.1-0.5-0.2-0.7-0.4-0.7
			c-0.4,0-3.5,1.6-3.6,1.8c0,0.1-0.2,0.2-0.3,0.2s-0.4,0.2-0.7,0.4c-0.3,0.2-1.2,0.9-2.1,1.6c-1.6,1.2-4.5,4.1-5.5,5.3
			c-0.3,0.4-0.6,0.8-0.7,0.9c-0.2,0.2-0.7,1-1.7,2.6c-0.6,0.9-1.4,2.4-1.4,2.6c0,0.1,0.7-0.4,1.5-1.1c2.9-2.4,5.1-3.6,7.9-4.5
			c2.5-0.8,2.6-0.7,0.8,0.6c-1.7,1.2-5.1,4.4-6.3,6c-3.1,4.3-4.9,8-5.6,11.5c-0.5,2.6-0.5,7.3,0,7.3c0.1,0,0.2-0.2,0.2-0.4
			c0-1.4,2.3-6.5,3.9-8.5c1.8-2.4,5.2-5.4,6-5.4c0.1,0,0,0.2-0.2,0.3c-0.3,0.4-1.5,2.3-2.3,3.9c-1.8,3.3-3,7.9-3,11.2
			c0,2.9,1,6.8,2.5,9.2c0.4,0.6,0.7,1.2,0.7,1.2c0,0.2,2.6,2.9,3.6,3.8c0.9,0.7,2.3,1.6,3.5,2.2c1.2,0.6,3,1.2,3.2,1
			c0,0-0.5-0.7-1.3-1.6c-2.5-2.7-4.5-5.9-5.4-8.9c-0.7-2.2-0.3-7.6,0.6-8.9c0.2-0.3,0.3-0.2,0.3,0.7c0,2.5,1.2,5.3,3.2,7.9
			c0.7,0.8,1.3,1.6,1.3,1.6c0.1,0.1,0.7,0.8,1.4,1.6c0.7,0.8,1.3,1.5,1.4,1.6c0.8,0.7,3.8,5,3.8,5.3c0,0.1,0.1,0.2,0.2,0.3
			c0.3,0.1,1.7,3.3,2.3,5c0.3,1,0.6,2.2,0.6,3.4c0.1,1,0.2,1.8,0.2,1.8c0.4,0,2.1-2.7,2.6-4.2c0.6-1.8,0.8-5,0.3-6.9
			c-0.4-1.8-1.3-3.7-2.4-5.3c-0.5-0.7-0.8-1.2-0.7-1.2c0.7,0,4.6,3.7,5.4,5.1c0.2,0.4,0.6,1.1,0.9,1.5c1,1.7,1.4,3.6,1.4,6.1
			c0,3-0.7,5.3-2.4,8.1c-0.2,0.4-0.5,0.9-0.6,1c-0.3,0.5,0.1,0.4,1.6-0.4c3.3-1.8,7.1-5.7,8.9-8.9c0.6-1.1,1.2-3.6,1.2-4.8
			c0-1.7-0.9-5-1.5-5.7c-0.2-0.2-0.3-0.1-0.4,0.7c-0.3,2.1-1.5,5.6-1.6,4.7c-0.5-2.7-1.1-4.2-2.4-6.2c-1.5-2.2-3-3.4-8.3-6.7
			c-3.3-2.1-4.5-3-7-5.2c-1.1-0.9-2.4-2.3-2.4-2.5c0-0.1-0.1-0.3-0.3-0.4c-0.5-0.5-1.5-2.3-2-3.5c-0.4-1-0.5-1.5-0.5-3.8
			c0-2.4,0.1-2.9,0.5-4.3c0.3-0.9,0.9-2.2,1.3-2.9c0.7-1.2,2.5-3.3,3.7-4.2c0.7-0.6,3.2-1.7,4-1.9c0.6-0.1,0.6-0.1-0.4,0.8
			c-2.4,2.3-4.5,5.5-5.2,8.1c-0.6,2-0.6,6.3-0.1,6.3c0.1,0,0.2-0.1,0.2-0.2c0-0.4,1-2.4,1.8-3.5c0.5-0.7,1.3-1.5,1.8-2
			c0.5-0.4,1-0.8,1.1-0.9c0.2-0.2,2.8-1.5,3.3-1.7c0.5-0.2,0.6-0.2-0.7,1.7c-1.7,2.5-2.8,6-2.6,8.9c0.1,1.4,0.9,4.6,1.3,4.9
			c0.1,0.1,0.4,0.5,0.7,1c0.8,1.1,2.2,2.6,3.6,3.6c1.4,1.1,1.9,1.1,1.1,0c-1.1-1.6-1.8-5.5-1.4-7.7c0.3-1.2,1.1-3.3,1.4-3.3
			c0.1,0,0.2,0.5,0.2,1.1c0,3.1,1,5.1,4.2,8.2c1.3,1.3,2.9,2.8,3.6,3.5c3.8,3.5,5.5,6.5,6,10.5c0.3,2.3,0.1,4.3-0.5,6.1
			c-0.2,0.6-0.3,1.1-0.2,1.1c0.3,0,1.8-2.1,2.6-3.7c0.8-1.7,1.6-4.8,1.6-6.5c0-2.2-0.8-4.7-2-6.5c-1-1.5-1.9-2.4-4.2-4.1
			c-2.7-2.1-3.3-3.1-2.3-4c0.4-0.3,0.7-0.4,2.5-0.4c1.9,0,2.3,0.1,4.7,0.8c4,1.3,4.4,1.4,6.6,1.4c1.7,0,2.2-0.1,3-0.4
			c0.9-0.4,2.4-1.6,2.4-2c0-0.1-0.8-0.3-1.8-0.4c-1.1-0.1-2.6-0.5-3.9-1c-3.7-1.3-7.6-2.6-8.7-2.9c-0.6-0.1-1-0.3-1-0.4
			c0-0.1,0.4-0.3,0.8-0.4c1-0.3,3.2,0,4.8,0.6c0.5,0.2,2,0.7,3.2,1.2c4.8,1.7,7.3,2,9.2,1.1c1-0.5,2.2-1.5,2.2-1.8
			c0-0.1-0.3-0.5-0.7-0.8c-1-0.9-1.6-2.2-1.5-3.3c0-0.4,1.5-0.7,3-0.6l1.5,0.1l-0.5-0.4c-0.3-0.2-1-0.7-1.5-1.1
			c-0.5-0.4-1.3-0.9-1.8-1.3c-1.6-1.2-3.4-2.5-3.6-2.6c-0.1-0.1-0.8-0.6-1.5-1c-0.7-0.5-1.3-0.9-1.4-1s-0.8-0.5-1.6-1.1
			c-0.8-0.5-1.6-1.1-1.7-1.2c-0.1-0.1-0.3-0.9-0.5-1.7c-0.3-2.1-0.9-3-2.8-5c-2.6-2.6-6.4-5.2-10.4-7.2c-1.3-0.7-2.6-1.3-2.8-1.4
			c-0.2-0.1-0.5-0.2-0.6-0.2c-0.2,0-0.6-0.7-1.2-1.9c-0.9-1.9-1.8-3.4-2.1-3.6c-0.1,0-0.1-0.2-0.1-0.3c0-0.2-0.7-1-2.2-2.8
			c-1-1.2-2.9-2.9-3.2-2.9C125.9,28.1,125.4,28.5,125,28.9 M125.7,33.3c-0.6,0.8-1.5,2.7-1.8,4c-0.1,0.6-0.2,2-0.2,3.2
			c0.1,1.9,0.1,2.2,0.7,3.4c1,1.9,3.3,4.1,2.9,2.7c-0.4-1.4-0.5-2.6-0.4-4.1c0.1-1.6,0.1-1.6,0.6-1.6c0.5,0,2.7,1,3.2,1.5
			c0.5,0.5,0.6,0.1,0.3-1.3c-0.3-1.4-1.5-4.3-2.6-5.9c-0.5-0.8-2-2.4-2.2-2.4C126.2,32.7,126,33,125.7,33.3 M136.9,34.1
			c-0.6,1.3-1.2,3.1-1.2,3.7c0,0.2,0.3,0.4,0.7,0.6c1.7,0.6,3.4,1.3,4.6,2.1c0.7,0.4,1.4,0.8,1.4,0.9c0.5,0.3-2.7-6-3.4-6.6
			c-0.1-0.1-0.3-0.3-0.3-0.4c0-0.2-1.1-1.4-1.3-1.4C137.5,32.9,137.2,33.5,136.9,34.1 M137.4,51.5l-1.7,0.1l0.9,0.4
			c2.9,1.2,3.2,1.5,4,2.5c1.1,1.7,2,2.1,4.2,2.3c1.4,0.1,2.1,0.3,2.9,0.7c1.2,0.6,1.2,0.6,1.2,0.2c0-0.9-3.8-5.4-4.5-5.4
			c-0.1,0-0.3-0.1-0.3-0.2C144.2,51.7,140.5,51.3,137.4,51.5"/>
		<path class="st3" d="M124.6,28.5c-1.1,1.1-1.7,1.9-2.7,3.9c-1.8,3.6-2.5,7.1-2,10.6c0.3,2,0.9,4,1.4,4.4c0.2,0.1,0.3,0.3,0.3,0.4
			c0,0.1,0.2,0.4,0.3,0.6c0.3,0.4,0.3,0.4-0.1,0.2c-1.2-0.4-2.6-1.5-3.7-2.9c-0.8-1.1-1.6-3.2-1.9-5.4c-0.1-0.5-0.2-0.7-0.4-0.7
			c-0.4,0-3.5,1.6-3.6,1.8c0,0.1-0.2,0.2-0.3,0.2s-0.4,0.2-0.7,0.4c-0.3,0.2-1.2,0.9-2.1,1.6c-1.6,1.2-4.5,4.1-5.5,5.3
			c-0.3,0.4-0.6,0.8-0.7,0.9c-0.2,0.2-0.7,1-1.7,2.6c-0.6,0.9-1.4,2.4-1.4,2.6c0,0.1,0.7-0.4,1.5-1.1c2.9-2.4,5.1-3.6,7.9-4.5
			c2.5-0.8,2.6-0.7,0.8,0.6c-1.7,1.2-5.1,4.4-6.3,6c-3.1,4.3-4.9,8-5.6,11.5c-0.5,2.6-0.5,7.3,0,7.3c0.1,0,0.2-0.2,0.2-0.4
			c0-1.4,2.3-6.5,3.9-8.5c1.8-2.4,5.2-5.4,6-5.4c0.1,0,0,0.2-0.2,0.3c-0.3,0.4-1.5,2.3-2.3,3.9c-1.8,3.3-3,7.9-3,11.2
			c0,2.9,1,6.8,2.5,9.2c0.4,0.6,0.7,1.2,0.7,1.2c0,0.2,2.6,2.9,3.6,3.8c0.9,0.7,2.3,1.6,3.5,2.2c1.2,0.6,3,1.2,3.2,1
			c0,0-0.5-0.7-1.3-1.6c-2.5-2.7-4.5-5.9-5.4-8.9c-0.7-2.2-0.3-7.6,0.6-8.9C110,73.9,110,74,110,75c0,2.5,1.2,5.3,3.2,7.9
			c0.7,0.8,1.3,1.6,1.3,1.6c0.1,0.1,0.7,0.8,1.4,1.6c0.7,0.8,1.3,1.5,1.4,1.6c0.8,0.7,3.8,5,3.8,5.3c0,0.1,0.1,0.2,0.2,0.3
			c0.3,0.1,1.7,3.3,2.3,5c0.3,1,0.6,2.2,0.6,3.4c0.1,1,0.2,1.8,0.2,1.8c0.4,0,2.1-2.7,2.6-4.2c0.6-1.8,0.8-5,0.3-6.9
			c-0.4-1.8-1.3-3.7-2.4-5.3c-0.5-0.7-0.8-1.2-0.7-1.2c0.7,0,4.6,3.7,5.4,5.1c0.2,0.4,0.6,1.1,0.9,1.5c1,1.7,1.4,3.6,1.4,6.1
			c0,3-0.7,5.3-2.4,8.1c-0.2,0.4-0.5,0.9-0.6,1c-0.3,0.5,0.1,0.4,1.6-0.4c3.3-1.8,7.1-5.7,8.9-8.9c0.6-1.1,1.2-3.6,1.2-4.8
			c0-1.7-0.9-5-1.5-5.7c-0.2-0.2-0.3-0.1-0.4,0.7c-0.3,2.1-1.5,5.6-1.6,4.7c-0.5-2.7-1.1-4.2-2.4-6.2c-1.5-2.2-3-3.4-8.3-6.7
			c-3.3-2.1-4.5-3-7-5.2c-1.1-0.9-2.4-2.3-2.4-2.5c0-0.1-0.1-0.3-0.3-0.4c-0.5-0.5-1.5-2.3-2-3.5c-0.4-1-0.5-1.5-0.5-3.8
			c0-2.4,0.1-2.9,0.5-4.3c0.3-0.9,0.9-2.2,1.3-2.9c0.7-1.2,2.5-3.3,3.7-4.2c0.7-0.6,3.2-1.7,4-1.9c0.6-0.1,0.6-0.1-0.4,0.8
			c-2.4,2.3-4.5,5.5-5.2,8.1c-0.6,2-0.6,6.3-0.1,6.3c0.1,0,0.2-0.1,0.2-0.2c0-0.4,1-2.4,1.8-3.5c0.5-0.7,1.3-1.5,1.8-2
			c0.5-0.4,1-0.8,1.1-0.9c0.2-0.2,2.8-1.5,3.3-1.7c0.5-0.2,0.6-0.2-0.7,1.7c-1.7,2.5-2.8,6-2.6,8.9c0.1,1.4,0.9,4.6,1.3,4.9
			c0.1,0.1,0.4,0.5,0.7,1c0.8,1.1,2.2,2.6,3.6,3.6c1.4,1.1,1.9,1.1,1.1,0c-1.1-1.6-1.8-5.5-1.4-7.7c0.3-1.2,1.1-3.3,1.4-3.3
			c0.1,0,0.2,0.5,0.2,1.1c0,3.1,1,5.1,4.2,8.2c1.3,1.3,2.9,2.8,3.6,3.5c3.8,3.5,5.5,6.5,6,10.5c0.3,2.3,0.1,4.3-0.5,6.1
			c-0.2,0.6-0.3,1.1-0.2,1.1c0.3,0,1.8-2.1,2.6-3.7c0.8-1.7,1.6-4.8,1.6-6.5c0-2.2-0.8-4.7-2-6.5c-1-1.5-1.9-2.4-4.2-4.1
			c-2.7-2.1-3.3-3.1-2.3-4c0.4-0.3,0.7-0.4,2.5-0.4c1.9,0,2.3,0.1,4.7,0.8c4,1.3,4.4,1.4,6.6,1.4c1.7,0,2.2-0.1,3-0.4
			c0.9-0.4,2.4-1.6,2.4-2c0-0.1-0.8-0.3-1.8-0.4c-1.1-0.1-2.6-0.5-3.9-1c-3.7-1.3-7.6-2.6-8.7-2.9c-0.6-0.1-1-0.3-1-0.4
			c0-0.1,0.4-0.3,0.8-0.4c1-0.3,3.2,0,4.8,0.6c0.5,0.2,2,0.7,3.2,1.2c4.8,1.7,7.3,2,9.2,1.1c1-0.5,2.2-1.5,2.2-1.8
			c0-0.1-0.3-0.5-0.7-0.8c-1-0.9-1.6-2.2-1.5-3.3c0-0.4,1.5-0.7,3-0.6l1.5,0.1l-0.5-0.4c-0.3-0.2-1-0.7-1.5-1.1
			c-0.5-0.4-1.3-0.9-1.8-1.3c-1.6-1.2-3.4-2.5-3.6-2.6c-0.1-0.1-0.8-0.6-1.5-1c-0.7-0.5-1.3-0.9-1.4-1c-0.1-0.1-0.8-0.5-1.6-1.1
			c-0.8-0.5-1.6-1.1-1.7-1.2c-0.1-0.1-0.3-0.9-0.5-1.7c-0.3-2.1-0.9-3-2.8-5c-2.6-2.6-6.4-5.2-10.4-7.2c-1.3-0.7-2.6-1.3-2.8-1.4
			c-0.2-0.1-0.5-0.2-0.6-0.2c-0.2,0-0.6-0.7-1.2-1.9c-0.9-1.9-1.8-3.4-2.1-3.6c-0.1,0-0.1-0.2-0.1-0.3c0-0.2-0.7-1-2.2-2.8
			c-1-1.2-2.9-2.9-3.2-2.9C125.5,27.7,125,28.1,124.6,28.5 M125.3,32.9c-0.6,0.8-1.5,2.7-1.8,4c-0.1,0.6-0.2,2-0.2,3.2
			c0.1,1.9,0.1,2.2,0.7,3.4c1,1.9,3.3,4.1,2.9,2.7c-0.4-1.4-0.5-2.6-0.4-4.1c0.1-1.6,0.1-1.6,0.6-1.6c0.5,0,2.7,1,3.2,1.5
			c0.5,0.5,0.6,0.1,0.3-1.3c-0.3-1.4-1.5-4.3-2.6-5.9c-0.5-0.8-2-2.4-2.2-2.4C125.9,32.3,125.6,32.6,125.3,32.9 M136.5,33.7
			c-0.6,1.3-1.2,3.1-1.2,3.7c0,0.2,0.3,0.4,0.7,0.6c1.7,0.6,3.4,1.3,4.6,2.1c0.7,0.4,1.4,0.8,1.4,0.9c0.5,0.3-2.7-6-3.4-6.6
			c-0.1-0.1-0.3-0.3-0.3-0.4c0-0.2-1.1-1.4-1.3-1.4C137.1,32.5,136.8,33.1,136.5,33.7 M137,51.1l-1.7,0.1l0.9,0.4
			c2.9,1.2,3.2,1.5,4,2.5c1.1,1.7,2,2.1,4.2,2.3c1.4,0.1,2.1,0.3,2.9,0.7c1.2,0.6,1.2,0.6,1.2,0.2c0-0.9-3.8-5.4-4.5-5.4
			c-0.1,0-0.3-0.1-0.3-0.2C143.8,51.3,140.1,50.9,137,51.1"/>
	</g>
</g>
<path class="st4" d="M163.3,23.2L163.3,23.2L163.3,23.2z"/>
<g>
	<defs>
		<rect id="SVGID_2_" x="0" y="-4.9" width="240" height="182.2"/>
	</defs>
	<clipPath id="SVGID_3_">
		<use xlink:href="#SVGID_2_"  style="overflow:visible;"/>
	</clipPath>
	<g class="st5">
		<path class="st6" d="M135.1,106.5v2.5l-49.5-17l-1.4-1.8L135.1,106.5z"/>
		
			<linearGradient id="SVGID_4_" gradientUnits="userSpaceOnUse" x1="-7094.979" y1="-15096.0303" x2="-8364.0791" y2="-17888.6406" gradientTransform="matrix(1 0 0 1 1.000000e-02 -662.8898)">
			<stop  offset="0" style="stop-color:#D9CDFE"/>
			<stop  offset="1" style="stop-color:#A78AFE"/>
		</linearGradient>
		<path class="st7" d="M136.1,102.3c0-0.4,0-0.7-0.1-1.1c-0.2-0.7-0.5-1.4-1-2c-0.6-0.7-1.2-1.2-2-1.7c-0.9-0.5-1.8-0.9-2.8-1.2
			l-0.7-0.2l-0.7-0.2l-0.7-0.1l-0.7-0.1L113.9,94l-14.1-1.8l-11.1-1.4c-2.8-0.4-4.5-0.6-4.6-0.6l50.9,16.3v2.5l0.8-3.1
			c0-0.1,0-0.2,0.1-0.3c0-0.1,0-0.2,0.1-0.3v-0.3c0-0.1,0-0.2,0-0.3v-2.5L136.1,102.3z M136,103.1c0,0.1,0,0.2-0.1,0.3
			c0-0.2,0.1-0.4,0.1-0.6C136,103,136,103,136,103.1z M136.1,102.4L136.1,102.4z"/>
		
			<linearGradient id="SVGID_5_" gradientUnits="userSpaceOnUse" x1="-12991.4561" y1="-19124.7051" x2="-15294.5664" y2="-22630.8066" gradientTransform="matrix(1 0 0 1 1.000000e-02 -662.8898)">
			<stop  offset="0" style="stop-color:#D9CDFE"/>
			<stop  offset="1" style="stop-color:#A78AFE"/>
		</linearGradient>
		<path class="st8" d="M110.1,118.1c-1.4-1.1-2.9-2-4.6-2.5L84,108.2c-1.8-0.6-3.7-0.9-5.6-1c-2-0.1-3.9,0-5.9,0.4
			c-1.9,0.3-3.7,0.9-5.5,1.7c-1.6,0.7-3.2,1.7-4.5,2.9c-1.1,1-2,2.3-2.6,3.7c-0.5,1.2-0.6,2.5-0.3,3.8c0.3,1.3,1,2.5,2,3.4
			c1.2,1.2,2.7,2,4.3,2.6l21.8,8.2c2,0.7,4,1.1,6.1,1.2c2.1,0.1,4.3,0,6.4-0.4c2-0.4,4-1,5.9-1.9c1.7-0.8,3.2-1.9,4.5-3.3
			c1.1-1.1,1.9-2.5,2.2-4c0.3-1.3,0.2-2.7-0.3-3.9C112,120.2,111.2,119.1,110.1,118.1L110.1,118.1z"/>
		<path class="st9" d="M136.9,107c1.4,0.4,2.8,1.1,4,2c1,0.7,1.8,1.7,2.4,2.8c0.5,1,0.6,2.1,0.5,3.2c-0.2,1.2-0.8,2.3-1.6,3.2
			l-31.5,36.1c-1.1,1.3-2.5,2.3-4,3.1c-1.6,0.8-3.4,1.4-5.2,1.8c-1.9,0.4-3.8,0.5-5.7,0.3c-1.9-0.1-3.7-0.5-5.4-1.2L4.2,123.1
			c-1.2-0.4-2.2-1.1-3-2.1c-0.7-0.8-1.1-1.7-1.2-2.8c0-1,0.2-2.1,0.7-3c0.6-1.2,1.5-2.2,2.6-3l34.8-28.7c1.1-0.9,2.3-1.6,3.5-2.1
			c1.4-0.6,2.8-1,4.2-1.2c1.5-0.3,2.9-0.4,4.4-0.3c1.4,0,2.8,0.3,4.2,0.7L136.9,107z M87.8,133.9c2,0.7,4,1.1,6.1,1.3
			c2.1,0.1,4.3,0,6.4-0.4c2-0.4,4-1,5.9-1.9c1.7-0.8,3.2-1.9,4.5-3.3c1.1-1.1,1.9-2.5,2.2-4c0.3-1.3,0.2-2.7-0.3-3.9
			c-0.5-1.3-1.4-2.5-2.5-3.4c-1.4-1.1-2.9-2-4.6-2.5L84,108.2c-1.8-0.6-3.7-0.9-5.6-1c-2-0.1-3.9,0-5.9,0.4
			c-1.9,0.3-3.7,0.9-5.5,1.7c-1.6,0.7-3.2,1.7-4.5,2.9c-1.1,1-2,2.3-2.6,3.7c-0.5,1.2-0.6,2.5-0.3,3.8c0.3,1.3,1,2.5,2,3.4
			c1.2,1.2,2.7,2,4.3,2.6L87.8,133.9"/>
		
			<linearGradient id="SVGID_6_" gradientUnits="userSpaceOnUse" x1="21.2005" y1="759.4989" x2="126.0005" y2="817.5589" gradientTransform="matrix(1 0 0 1 1.000000e-02 -662.8898)">
			<stop  offset="0" style="stop-color:#EBEAF7"/>
			<stop  offset="1" style="stop-color:#D9CDFE"/>
		</linearGradient>
		<path class="st10" d="M143.8,114.1c0,0.7-0.1,1.4-0.4,2c-0.3,0.7-0.7,1.4-1.3,2l-31.5,36.1c-1.1,1.3-2.5,2.3-4,3.1
			c-1.6,0.8-3.4,1.4-5.2,1.8c-1.9,0.4-3.8,0.5-5.7,0.3c-1.9-0.1-3.7-0.5-5.4-1.2L4.2,123.1c-0.5-0.2-1-0.5-1.5-0.8
			c-0.4-0.3-0.8-0.6-1.2-1c-0.3-0.3-0.6-0.7-0.8-1.1c-0.2-0.4-0.4-0.7-0.5-1.2l4.4,16.8c0.1,0.4,0.3,0.8,0.5,1.2
			c0.2,0.4,0.5,0.8,0.8,1.1c0.4,0.3,0.7,0.6,1.2,0.9c0.5,0.3,1,0.6,1.5,0.8l83.8,36c1.7,0.7,3.4,1.1,5.2,1.3
			c1.8,0.2,3.7,0.1,5.5-0.3c1.7-0.3,3.4-0.9,5-1.8c1.5-0.8,2.8-1.8,3.9-3.1l30.4-36.4c0.5-0.6,0.9-1.3,1.2-2c0.1-0.3,0.2-0.7,0.3-1
			c0.1-0.3,0.1-0.7,0.1-1L143.8,114.1z"/>
		<path class="st11" d="M194.2,127.3l0.8,6.1c-0.2-0.1-0.3-0.1-0.5-0.1c-0.2,0-0.3,0-0.5-0.1h-0.5c-0.2,0-0.4,0-0.6,0.1
			c-0.2,0-0.4,0.1-0.5,0.1l-0.5,0.2c-0.1,0.1-0.3,0.2-0.4,0.2c-0.1,0.1-0.3,0.2-0.4,0.3l-0.8-6.1c0.1-0.1,0.2-0.2,0.4-0.3
			c0.1-0.1,0.3-0.2,0.4-0.2c0.2-0.1,0.3-0.1,0.5-0.2c0.2-0.1,0.3-0.1,0.5-0.1c0.2,0,0.4,0,0.6-0.1h0.6c0.2,0,0.3,0,0.5,0.1
			C193.9,127.2,194.1,127.3,194.2,127.3z"/>
		<path class="st11" d="M205.8,131.3l0.7,6.1l-11.4-4.1l-0.8-6.1L205.8,131.3z"/>
		<path class="st11" d="M207.6,138.5c0-0.1-0.1-0.2-0.2-0.3c-0.1-0.1-0.2-0.2-0.3-0.3c-0.1-0.1-0.2-0.2-0.4-0.2
			c-0.1-0.1-0.3-0.1-0.4-0.2l-0.7-6.1c0.1,0.1,0.3,0.1,0.4,0.2c0.1,0.1,0.2,0.2,0.4,0.2c0.1,0.1,0.2,0.2,0.3,0.3
			c0.1,0.1,0.1,0.2,0.2,0.3C207.2,134.4,207.4,136.5,207.6,138.5z"/>
		<path class="st11" d="M190.3,128l0.8,6.1l-8.1,7.8l-0.9-6.1L190.3,128z"/>
		<path class="st6" d="M200.1,133.7l0.7,6.1l-6.8-2.5l-0.8-6.1L200.1,133.7z"/>
		<path class="st6" d="M193.3,131.2l0.8,6.1l-4.8,4.7l-0.9-6.1L193.3,131.2z"/>
		<path class="st6" d="M207,132.6l0.7,6.1c0,0.1,0,0.2,0,0.3c0,0.1,0,0.2-0.1,0.3c-0.1,0.1-0.1,0.2-0.2,0.3
			c-0.1,0.1-0.1,0.2-0.2,0.3l-0.7-6.1c0.1-0.1,0.2-0.2,0.2-0.3c0.1-0.1,0.1-0.2,0.2-0.3c0-0.1,0.1-0.2,0.1-0.3V132.6z"/>
		<path class="st11" d="M182.5,143.2l-0.9-6.1c0-0.1,0-0.2,0-0.3c0-0.1,0.1-0.2,0.1-0.3c0-0.1,0.1-0.2,0.2-0.3
			c0.1-0.1,0.2-0.2,0.3-0.3l0.9,6.1c-0.1,0.1-0.2,0.2-0.3,0.3c-0.1,0.1-0.1,0.2-0.2,0.3c0,0.1-0.1,0.2-0.1,0.3
			C182.5,142.9,182.5,143.1,182.5,143.2z"/>
		<path class="st6" d="M182.5,143.2l-0.9-6.1v0.1c0,0.1,0.1,0.2,0.1,0.3c0.1,0.1,0.1,0.2,0.2,0.3c0.1,0.1,0.2,0.2,0.3,0.3l0.4,0.2
			l0.9,6.1c-0.1-0.1-0.3-0.1-0.4-0.2c-0.1-0.1-0.2-0.2-0.3-0.3c-0.1-0.1-0.2-0.2-0.2-0.3C182.6,143.5,182.5,143.4,182.5,143.2
			L182.5,143.2L182.5,143.2z"/>
		<path class="st11" d="M195.3,138.4l0.8,6.1l-6.8-2.6l-0.9-6.1L195.3,138.4z"/>
		<path class="st11" d="M200.1,133.7l0.7,6.1l-4.8,4.7l-0.8-6.1L200.1,133.7z"/>
		<path class="st11" d="M188.4,135.9l4.9-4.6l6.9,2.4l-4.8,4.7L188.4,135.9z"/>
		<path class="st6" d="M206.5,133.8l0.7,6.1l-8,8l-0.8-6.2L206.5,133.8z"/>
		<path class="st6" d="M194.4,142.5l0.8,6.2l-11.5-4.3l-0.9-6.1L194.4,142.5z"/>
		<path class="st6" d="M198.4,141.8l0.8,6.2l-0.4,0.3c-0.1,0.1-0.3,0.2-0.4,0.2c-0.3,0.2-0.7,0.3-1.1,0.4c-0.2,0-0.4,0.1-0.6,0.1
			h-0.6c-0.2,0-0.4,0-0.5-0.1c-0.2,0-0.3-0.1-0.5-0.1l-0.8-6.2c0.2,0.1,0.3,0.1,0.5,0.1c0.2,0,0.4,0.1,0.6,0.1h0.6
			c0.2,0,0.4,0,0.6-0.1c0.2,0,0.4-0.1,0.6-0.1c0.2-0.1,0.4-0.1,0.5-0.2c0.1-0.1,0.3-0.1,0.4-0.2C198.2,142,198.3,141.9,198.4,141.8
			L198.4,141.8z"/>
		<path class="st12" d="M212.7,132.9l0.6,6.1c0.1,0.6,0.1,1.2,0,1.8c-0.1,0.6-0.3,1.3-0.5,1.9c-0.3,0.7-0.6,1.3-1,1.9
			c-0.4,0.7-0.9,1.3-1.5,1.8c-1.5,1.5-3.3,2.8-5.3,3.7c-2.1,1-4.4,1.7-6.7,2.2c-2.4,0.4-4.8,0.6-7.2,0.5c-2.3-0.1-4.6-0.6-6.7-1.4
			c-1-0.4-2.1-0.9-3-1.5c-0.8-0.5-1.6-1.1-2.2-1.8c-0.6-0.6-1.1-1.3-1.5-2.1c-0.4-0.7-0.6-1.5-0.7-2.3l-1-6.1
			c0.1,0.8,0.4,1.5,0.7,2.2c0.4,0.8,0.9,1.5,1.5,2.1c0.7,0.7,1.4,1.3,2.2,1.8c0.9,0.6,1.9,1.1,3,1.5c2.2,0.8,4.5,1.3,6.8,1.4
			c2.4,0.1,4.8,0,7.2-0.5c2.3-0.4,4.6-1.2,6.7-2.2c2-0.9,3.8-2.2,5.3-3.7c0.6-0.6,1.1-1.2,1.5-1.8c0.4-0.6,0.7-1.2,1-1.9
			c0.2-0.6,0.4-1.2,0.5-1.9C212.7,134.1,212.7,133.5,212.7,132.9L212.7,132.9z"/>
		<path class="st11" d="M204.7,124.7c1.8,0.6,3.5,1.6,5,2.8c1.2,1,2.1,2.3,2.6,3.8c0.5,1.4,0.5,3,0,4.4c-0.6,1.7-1.5,3.2-2.8,4.5
			c-1.5,1.5-3.3,2.8-5.3,3.7c-2.1,1-4.4,1.7-6.7,2.2c-2.4,0.5-4.8,0.6-7.2,0.5c-2.3-0.1-4.6-0.6-6.8-1.4c-1.9-0.6-3.6-1.7-5-3
			c-1.1-1.1-2-2.5-2.4-4c-0.3-1.5-0.2-3,0.3-4.4c0.7-1.7,1.7-3.1,3.1-4.3c1.6-1.4,3.3-2.6,5.3-3.5c2.1-0.9,4.2-1.6,6.4-2
			c2.3-0.4,4.6-0.6,6.9-0.5c2.2,0.1,4.4,0.5,6.5,1.2L204.7,124.7z M198.4,141.7l8.1-8c0.1-0.1,0.2-0.2,0.3-0.3
			c0.1-0.1,0.1-0.2,0.2-0.4c0.1-0.2,0.1-0.5,0-0.7c0-0.1-0.1-0.2-0.1-0.3c-0.1-0.1-0.2-0.2-0.3-0.3c-0.1-0.1-0.2-0.2-0.4-0.2
			c-0.1-0.1-0.3-0.1-0.4-0.2l-11.5-4c-0.2-0.1-0.3-0.1-0.5-0.1c-0.2,0-0.3-0.1-0.5-0.1h-0.5c-0.2,0-0.4,0-0.6,0.1
			c-0.2,0-0.4,0.1-0.5,0.1c-0.2,0-0.3,0.1-0.5,0.2c-0.2,0.1-0.3,0.2-0.4,0.2c-0.1,0.1-0.2,0.2-0.4,0.3l-8.2,7.8
			c-0.1,0.1-0.2,0.2-0.3,0.3c-0.1,0.1-0.1,0.2-0.2,0.4c0,0.1-0.1,0.2-0.1,0.4c0,0.1,0,0.2,0,0.3c0,0.1,0.1,0.2,0.1,0.3
			c0.1,0.1,0.2,0.2,0.2,0.3c0.1,0.1,0.2,0.2,0.3,0.2c0.1,0.1,0.3,0.1,0.4,0.2l11.6,4.3c0.2,0.1,0.3,0.1,0.5,0.1
			c0.2,0,0.4,0.1,0.6,0.1h0.6c0.2,0,0.4,0,0.6-0.1c0.2,0,0.4-0.1,0.6-0.1c0.2-0.1,0.4-0.1,0.5-0.2c0.1-0.1,0.3-0.1,0.4-0.2
			C198.1,142,198.3,141.9,198.4,141.7"/>
		<path class="st6" d="M206.9,132.4c0.1,0.2,0.1,0.5,0,0.7c0,0.1-0.1,0.2-0.2,0.4c-0.1,0.1-0.2,0.2-0.3,0.3l-8.1,8
			c-0.1,0.1-0.2,0.2-0.4,0.3c-0.1,0.1-0.3,0.2-0.4,0.3c-0.2,0.1-0.4,0.1-0.5,0.2l-0.6,0.1c-0.2,0-0.4,0.1-0.6,0.1
			c-0.2,0-0.4,0-0.6,0c-0.2,0-0.4,0-0.6-0.1c-0.2,0-0.3-0.1-0.5-0.1l-11.6-4.3c-0.1-0.1-0.3-0.1-0.4-0.2c-0.1-0.1-0.2-0.1-0.3-0.2
			c-0.1-0.1-0.2-0.2-0.2-0.3c-0.1-0.1-0.1-0.2-0.1-0.3c0-0.1,0-0.2,0-0.4c0-0.1,0-0.2,0.1-0.4c0-0.1,0.1-0.2,0.2-0.3
			c0.1-0.1,0.2-0.2,0.3-0.3l8.2-7.8c0.1-0.1,0.2-0.2,0.4-0.3c0.1-0.1,0.3-0.2,0.4-0.2c0.2-0.1,0.3-0.1,0.5-0.2
			c0.2-0.1,0.3-0.1,0.5-0.1c0.2,0,0.4,0,0.6-0.1h0.6c0.2,0,0.3,0,0.5,0.1c0.2,0,0.3,0.1,0.5,0.1l11.4,4c0.1,0.1,0.3,0.1,0.4,0.2
			c0.1,0.1,0.2,0.2,0.4,0.2c0.1,0.1,0.2,0.2,0.3,0.3C206.9,132.1,206.9,132.2,206.9,132.4L206.9,132.4z M195.3,138.4l4.8-4.7
			l-6.9-2.5l-4.9,4.7L195.3,138.4"/>
		<path class="st11" d="M160.9,144.5c-0.4-0.1-0.8-0.2-1.3-0.2c-0.9,0-1.8,0.1-2.6,0.5c-0.4,0.2-0.7,0.4-1,0.7l-1-7.9
			c0.3-0.3,0.6-0.5,1-0.7c0.4-0.2,0.8-0.3,1.2-0.4c0.4-0.1,0.9-0.1,1.3-0.1c0.4,0,0.9,0.1,1.3,0.2L160.9,144.5z"/>
		<path class="st11" d="M162.4,146.1c0-0.2-0.1-0.3-0.1-0.5c-0.1-0.2-0.2-0.3-0.3-0.4c-0.1-0.1-0.3-0.3-0.4-0.4
			c-0.2-0.1-0.4-0.2-0.6-0.3l-0.9-7.9c0.2,0.1,0.4,0.2,0.6,0.3c0.2,0.1,0.3,0.2,0.5,0.4c0.1,0.1,0.2,0.3,0.3,0.4
			c0.1,0.1,0.1,0.3,0.1,0.4C161.8,140.5,162.1,143.7,162.4,146.1z"/>
		<path class="st11" d="M142.2,148.1c-0.1,0.1-0.2,0.2-0.3,0.4c-0.1,0.1-0.2,0.3-0.2,0.4c-0.1,0.1-0.1,0.3-0.1,0.4
			c0,0.1,0,0.3,0,0.4l-1.1-7.9c0-0.1,0-0.3,0-0.4c0-0.1,0.1-0.3,0.1-0.4c0.1-0.1,0.1-0.3,0.2-0.4c0.1-0.1,0.2-0.3,0.3-0.4
			C141.4,142.9,141.8,145.5,142.2,148.1c-0.4-2.6-0.8-5.2-1.1-7.9c0.3-0.3,0.6-0.5,1-0.7c0.4-0.2,0.8-0.3,1.3-0.4
			c0.4-0.1,0.9-0.1,1.3-0.1c0.4,0,0.9,0.1,1.3,0.2l1.1,7.8c-0.4-0.1-0.8-0.2-1.3-0.2c-0.4,0-0.9,0-1.3,0.1c-0.4,0.1-0.9,0.2-1.2,0.4
			C142.8,147.5,142.5,147.7,142.2,148.1L142.2,148.1z"/>
		<path class="st6" d="M161.5,138.1l0.9,7.9c0,0.1,0,0.2,0,0.4c0,0.1-0.1,0.3-0.1,0.4c-0.1,0.1-0.1,0.2-0.2,0.4
			c-0.1,0.1-0.2,0.2-0.3,0.4l-0.9-7.9c0.1-0.1,0.2-0.2,0.3-0.4s0.1-0.2,0.2-0.4c0-0.1,0.1-0.2,0.1-0.4
			C161.5,138.4,161.5,138.2,161.5,138.1L161.5,138.1z"/>
		<path class="st11" d="M151.3,141.2l1,7.9l-5.3-2l-1-7.8L151.3,141.2z"/>
		<path class="st11" d="M155.1,137.6l1,7.9l-3.8,3.7l-1-7.9L155.1,137.6z"/>
		<path class="st6" d="M141.5,149.6c-0.4-2.6-0.8-5.3-1.1-7.9c0,0.2,0.1,0.3,0.1,0.4c0.1,0.1,0.2,0.3,0.3,0.4
			c0.1,0.1,0.3,0.2,0.4,0.3c0.2,0.1,0.4,0.2,0.6,0.3l1.1,7.9c-0.2-0.1-0.4-0.2-0.6-0.3c-0.2-0.1-0.3-0.2-0.4-0.4
			c-0.1-0.1-0.2-0.3-0.3-0.4C141.6,149.9,141.6,149.8,141.5,149.6L141.5,149.6z"/>
		<path class="st6" d="M160,136.6c0.4,0.1,0.7,0.3,1,0.6c0.2,0.2,0.4,0.4,0.5,0.7c0.1,0.3,0.1,0.6,0,0.8c-0.1,0.3-0.3,0.6-0.6,0.8
			l-3.8,3.7l-5.8-2.1l3.8-3.6c0.3-0.3,0.6-0.5,1-0.7c0.4-0.2,0.8-0.3,1.2-0.4c0.4-0.1,0.9-0.1,1.3-0.1
			C159.2,136.4,159.6,136.5,160,136.6L160,136.6z"/>
		<path class="st6" d="M160.9,139.6l0.9,7.9l-3.7,3.7l-1-7.9L160.9,139.6z"/>
		<path class="st6" d="M157.1,143.3l1,7.9l-5.8-2.1l-1-7.9L157.1,143.3z"/>
		<path class="st11" d="M162.6,145.2l0.9,7.9l-5.4-2l-1-7.9L162.6,145.2z"/>
		<path class="st11" d="M147.2,145.1l1.1,7.9l-3.8,3.8l-1.1-7.9L147.2,145.1z"/>
		<path class="st11" d="M143.8,158.4l-1.1-7.9c0-0.1,0-0.3,0-0.4c0-0.1,0-0.3,0.1-0.4c0.1-0.1,0.1-0.3,0.2-0.4
			c0.1-0.1,0.2-0.3,0.3-0.4l1.1,7.9c-0.2,0.2-0.4,0.5-0.6,0.8c-0.1,0.1-0.1,0.3-0.1,0.4C143.8,158.1,143.8,158.2,143.8,158.4z"/>
		<path class="st6" d="M143.8,158.4l-1.1-7.9c0,0.2,0.1,0.3,0.1,0.5c0.1,0.2,0.2,0.3,0.3,0.4c0.1,0.1,0.3,0.2,0.4,0.4
			c0.2,0.1,0.4,0.2,0.6,0.3c0.4,0.2,0.9,0.2,1.3,0.3c0.9,0.1,1.8-0.1,2.7-0.5c0.4-0.2,0.7-0.4,1-0.7l1.1,8c-0.3,0.3-0.6,0.5-1,0.7
			c-0.4,0.2-0.8,0.3-1.3,0.4c-0.4,0.1-0.9,0.1-1.4,0.1c-0.4,0-0.9-0.1-1.3-0.3c-0.2-0.1-0.4-0.2-0.6-0.3c-0.2-0.1-0.3-0.2-0.4-0.4
			c-0.1-0.1-0.2-0.3-0.3-0.4C143.9,158.7,143.8,158.6,143.8,158.4L143.8,158.4z"/>
		<path class="st6" d="M143.4,148.9l3.9-3.7l5.8,2.1l-3.9,3.8c-0.3,0.3-0.6,0.5-1,0.7c-0.8,0.4-1.8,0.6-2.7,0.5
			c-0.4,0-0.9-0.1-1.3-0.3c-0.4-0.1-0.7-0.3-1-0.6c-0.2-0.2-0.4-0.5-0.5-0.8c-0.1-0.3-0.1-0.6,0-0.8
			C142.9,149.4,143.1,149.1,143.4,148.9L143.4,148.9z"/>
		<path class="st6" d="M148.1,151.7c0.4-0.2,0.7-0.4,1-0.7l0.3,2.5l4.5,1.7l-1-7.9l-5.8-2.1L148.1,151.7L148.1,151.7z"/>
		<path class="st11" d="M164.1,146.8l0.9,8c0-0.2-0.1-0.3-0.1-0.5c-0.1-0.2-0.2-0.3-0.3-0.4c-0.1-0.2-0.3-0.3-0.5-0.4
			c-0.2-0.1-0.4-0.2-0.6-0.3l-0.9-7.9c0.4,0.1,0.8,0.4,1.1,0.7c0.1,0.1,0.2,0.3,0.3,0.4C164.1,146.5,164.1,146.7,164.1,146.8
			L164.1,146.8z"/>
		<path class="st6" d="M162.6,145.2c0.4,0.1,0.7,0.3,1,0.6c0.2,0.2,0.4,0.5,0.5,0.8c0.1,0.3,0.1,0.6,0,0.8c-0.1,0.3-0.3,0.6-0.6,0.8
			c-0.3,0.3-0.6,0.5-1,0.7c-0.8,0.4-1.7,0.6-2.7,0.5c-0.4,0-0.9-0.1-1.3-0.3l-5.5-2l-5.8-2.1l-5.4-2c-0.3-0.1-0.7-0.3-0.9-0.6
			c-0.2-0.2-0.4-0.5-0.5-0.8c-0.1-0.3,0-0.6,0.1-0.9c0.1-0.3,0.3-0.6,0.6-0.8c0.3-0.3,0.6-0.5,1-0.7c0.4-0.2,0.8-0.3,1.3-0.4
			c0.4-0.1,0.9-0.1,1.3-0.1c0.4,0,0.9,0.1,1.3,0.2l5.4,1.9l5.8,2.1L162.6,145.2z"/>
		<path class="st6" d="M164.1,146.8l0.9,8c0,0.1,0,0.2,0,0.4c0,0.1-0.1,0.3-0.1,0.4c-0.1,0.3-0.3,0.5-0.5,0.7
			c-0.3,0.3-0.6,0.5-1,0.7c-0.4,0.2-0.8,0.3-1.3,0.4c-0.5,0.1-0.9,0.1-1.4,0.1c-0.4,0-0.9-0.1-1.3-0.3l-1-8c0.4,0.2,0.9,0.2,1.3,0.3
			c0.9,0.1,1.8-0.1,2.7-0.5c0.4-0.2,0.7-0.4,1-0.7c0.1-0.1,0.2-0.2,0.3-0.4c0.1-0.1,0.2-0.2,0.2-0.4c0-0.1,0.1-0.3,0.1-0.4
			C164.1,147.1,164.1,147,164.1,146.8L164.1,146.8z"/>
		<path class="st6" d="M153,147.2l1,7.9l-3.8,3.8l-1.1-8L153,147.2z"/>
		<path class="st12" d="M175.9,141.8l0.8,8c0.1,0.8,0.1,1.6-0.1,2.4c-0.1,0.8-0.3,1.6-0.7,2.4c-0.3,0.8-0.8,1.7-1.3,2.4
			c-0.6,0.8-1.2,1.6-1.9,2.4c-2,2-4.3,3.6-6.8,4.7c-2.7,1.3-5.7,2.2-8.6,2.8c-3,0.6-6.1,0.8-9.2,0.6c-3-0.1-5.9-0.8-8.7-1.8
			c-1.3-0.5-2.6-1.1-3.8-1.9c-1.1-0.7-2-1.5-2.9-2.4c-0.8-0.8-1.4-1.7-1.9-2.7c-0.5-0.9-0.8-1.9-0.9-2.9l-1.2-7.9c0.2,1,0.5,2,1,2.9
			c0.5,1,1.2,1.9,1.9,2.7c0.9,0.9,1.8,1.7,2.9,2.3c1.2,0.8,2.5,1.4,3.8,1.9c2.8,1,5.8,1.6,8.8,1.8c3.1,0.2,6.3,0,9.3-0.6
			c3-0.6,5.9-1.5,8.6-2.8c2.5-1.2,4.9-2.8,6.9-4.8c0.7-0.7,1.4-1.5,2-2.4c0.5-0.8,1-1.6,1.3-2.4c0.3-0.8,0.5-1.6,0.7-2.4
			C176,143.4,176,142.6,175.9,141.8L175.9,141.8z"/>
		<path class="st11" d="M165.6,131.2c2.4,0.8,4.6,2,6.5,3.6c1.6,1.3,2.8,3.1,3.4,5c0.6,1.9,0.6,3.8,0.1,5.7c-0.7,2.2-2,4.2-3.6,5.8
			c-2,2-4.4,3.6-6.9,4.7c-2.8,1.3-5.7,2.2-8.7,2.8c-3.1,0.6-6.2,0.8-9.4,0.6c-3-0.2-6-0.8-8.8-1.8c-2.4-0.9-4.6-2.2-6.4-3.9
			c-1.5-1.4-2.5-3.2-3-5.2c-0.4-1.9-0.3-3.9,0.4-5.7c0.9-2.1,2.2-4.1,3.9-5.6c2-1.8,4.3-3.3,6.8-4.4c2.7-1.2,5.5-2.1,8.3-2.6
			c2.9-0.5,5.9-0.8,8.9-0.6C160,129.8,162.8,130.3,165.6,131.2L165.6,131.2z M158.5,149.2c0.4,0.2,0.9,0.2,1.3,0.3
			c0.9,0.1,1.8-0.1,2.7-0.5c0.4-0.2,0.7-0.4,1-0.7c0.3-0.2,0.4-0.5,0.6-0.9c0.1-0.3,0.1-0.6,0-0.8c-0.1-0.3-0.3-0.6-0.5-0.8
			c-0.3-0.3-0.6-0.5-1-0.6l-5.4-1.9l3.8-3.7c0.2-0.2,0.4-0.5,0.6-0.9c0.1-0.3,0.1-0.6,0-0.8c-0.1-0.3-0.3-0.5-0.5-0.7
			c-0.3-0.3-0.6-0.4-1-0.6c-0.4-0.1-0.9-0.2-1.3-0.2c-0.4,0-0.9,0-1.3,0.1c-0.4,0.1-0.8,0.2-1.2,0.4c-0.4,0.2-0.7,0.4-1,0.7
			l-3.8,3.6l-5.4-1.9c-0.4-0.1-0.8-0.2-1.3-0.2c-0.5,0-0.9,0-1.4,0.1c-0.4,0.1-0.9,0.2-1.2,0.4c-0.4,0.2-0.7,0.4-1,0.7
			c-0.3,0.2-0.4,0.5-0.6,0.8c-0.1,0.3-0.1,0.6-0.1,0.8c0.1,0.3,0.2,0.5,0.5,0.8c0.3,0.3,0.6,0.4,0.9,0.6l5.4,2l-3.9,3.7
			c-0.3,0.2-0.5,0.5-0.6,0.8c-0.1,0.3-0.1,0.6,0,0.8c0.1,0.3,0.2,0.6,0.5,0.8c0.3,0.3,0.6,0.5,1,0.6c0.4,0.2,0.9,0.2,1.3,0.3
			c0.9,0.1,1.8-0.1,2.7-0.5c0.4-0.2,0.7-0.4,1-0.7l3.9-3.8L158.5,149.2"/>
		<path class="st11" d="M142.8,149.6L142.8,149.6L142.8,149.6C142.8,149.6,142.8,149.6,142.8,149.6L142.8,149.6v-0.2l0.1-0.1
			l0.1-0.1l0.1-0.1l0.1-0.1l0.1-0.1l3.9-3.7l-5.4-2l0.9,6.6L142.8,149.6z"/>
		<path class="st11" d="M158.5,149.2l1,8l-5.4-2l-1-7.9L158.5,149.2z"/>
	</g>
</g>
</svg>
