<?xml version="1.0" encoding="utf-8"?>
<!-- Generator: Adobe Illustrator 24.3.0, SVG Export Plug-In . SVG Version: 6.00 Build 0)  -->
<svg version="1.1" id="Layer_1" xmlns="http://www.w3.org/2000/svg" xmlns:xlink="http://www.w3.org/1999/xlink" x="0px" y="0px"
	 viewBox="0 0 350 264" style="enable-background:new 0 0 350 264;" xml:space="preserve">
<style type="text/css">
	.st0{clip-path:url(#SVGID_2_);}
	.st1{fill:#FFFFFF;}
	.st2{fill-rule:evenodd;clip-rule:evenodd;fill:#E84142;}
	.st3{fill-rule:evenodd;clip-rule:evenodd;fill:#0090FF;}
	.st4{fill-rule:evenodd;clip-rule:evenodd;fill:#FFFFFF;}
	.st5{fill:#AEB1C2;}
	.st6{fill:none;stroke:#AEB1C2;stroke-width:2.1567;}
	.st7{clip-path:url(#SVGID_4_);}
	.st8{fill:url(#SVGID_5_);}
	.st9{fill:#627EEA;}
	.st10{fill:#FFFFFF;fill-opacity:0.602;}
	.st11{fill:#FFFFFF;fill-opacity:0.2;}
	.st12{fill:none;}
	.st13{fill:#F3BA2F;}
	.st14{fill:#8B7BEE;}
	.st15{fill:#7F70DC;}
	.st16{fill:#EDE8FF;}
	.st17{opacity:0.5;}
	.st18{fill:url(#SVGID_6_);}
	.st19{fill-rule:evenodd;clip-rule:evenodd;fill:#808080;}
</style>
<g>
	<defs>
		
			<rect id="SVGID_1_" x="91.7" y="34.7" transform="matrix(0.9744 -0.2248 0.2248 0.9744 -8.1636 24.9054)" width="27.2" height="27.2"/>
	</defs>
	<clipPath id="SVGID_2_">
		<use xlink:href="#SVGID_1_"  style="overflow:visible;"/>
	</clipPath>
	<g class="st0">
		<path class="st1" d="M111.5,37.7l-16.4,3.8l3.4,14.9l16.4-3.8L111.5,37.7z"/>
		<path class="st2" d="M118.5,45.3c1.7,7.3-2.9,14.6-10.2,16.3c-7.3,1.7-14.6-2.9-16.3-10.2c-1.7-7.3,2.9-14.6,10.2-16.3
			C109.6,33.4,116.8,37.9,118.5,45.3z M102.8,54.4l-2.6,0.6c-0.5,0.1-0.8,0.2-1,0.1c-0.2-0.1-0.4-0.2-0.4-0.4c-0.1-0.2,0-0.5,0.2-1
			l3.8-12.6c0.2-0.5,0.2-0.8,0.4-0.9c0.2-0.1,0.4-0.2,0.6-0.1c0.2,0,0.4,0.3,0.8,0.7l1.8,2l0,0c0.4,0.4,0.6,0.7,0.7,0.9
			c0.1,0.3,0.2,0.6,0.2,0.9c0,0.3-0.1,0.6-0.3,1.2l-2,6.7l0,0c-0.2,0.6-0.3,0.9-0.4,1.1c-0.2,0.3-0.4,0.5-0.7,0.6
			C103.7,54.2,103.4,54.3,102.8,54.4z M109.2,52.9l3.7-0.8c0.5-0.1,0.8-0.2,1-0.3c0.1-0.2,0.2-0.4,0.2-0.6c0-0.2-0.2-0.4-0.6-0.8
			c0,0,0,0,0,0l-2.6-2.7l0,0c-0.4-0.4-0.5-0.6-0.7-0.6c-0.2-0.1-0.4,0-0.6,0.1c-0.1,0.1-0.2,0.4-0.4,0.9l-1.1,3.6l0,0
			c-0.2,0.5-0.2,0.8-0.2,1c0.1,0.2,0.2,0.4,0.4,0.4C108.4,53.1,108.7,53.1,109.2,52.9z"/>
	</g>
</g>
<path class="st3" d="M265.6,70.8c-9.8,1.8-19.2-4.9-20.9-14.7c-1.7-9.7,4.9-19.1,14.7-20.8c9.7-1.7,19.1,4.9,20.8,14.8
	C281.9,59.8,275.4,69.1,265.6,70.8z"/>
<path class="st4" d="M264.7,51.4c1.6,0,3.2-0.1,4.8-0.2c0.1-0.5,0.1-0.9,0.1-1.4c-1.7,0-3.2,0.1-5,0.1c0.2-2.1,0.4-4.1,0.6-6
	c0.1-0.7,0.4-1.3,0.8-1.9c0.5-0.7,1.3-0.7,2-0.1c0.2,0.2,0.5,0.5,0.8,0.7c0.4,0.3,0.9,0.3,1.2,0c0.2-0.2,0.1-0.7,0-1.1
	c0-0.1-0.2-0.3-0.4-0.4c-0.7-0.6-1.5-0.6-2.3-0.5c-1.8,0.2-2.9,1.4-3.7,2.9c-0.8,1.5-0.9,3.2-1.1,4.9c-0.1,0.5-0.1,1-0.1,1.5
	c-1.8,0.1-3.5,0.1-5.2,0.2l0.1,1.4c1.7,0,3.4-0.1,5.1-0.1c-0.1,1-0.1,1.9-0.2,2.9c-1.7,0.1-3.3,0.1-4.9,0.2c0,0.5,0,0.9,0.1,1.4
	c1.6,0,3.2-0.1,4.8-0.1c0,0.2,0.1,0.3,0.1,0.4c-0.1,2.2-0.2,4.3-0.4,6.5c-0.1,1-0.3,2.1-1,2.9c-0.6,0.7-1.3,0.7-2,0.1
	c-0.3-0.3-0.5-0.6-0.9-0.8c-0.3-0.1-0.8-0.1-0.9,0c-0.2,0.2-0.3,0.7-0.2,1c0.1,0.3,0.4,0.6,0.7,0.7c1,0.5,1.9,0.4,2.9,0
	c1.6-0.6,2.6-1.9,3.1-3.5c0.4-1.3,0.6-2.6,0.8-3.9c0.2-1.2,0.2-2.4,0.3-3.6c1.7-0.1,3.3-0.1,5-0.2c0.1-0.5,0.1-0.9,0.2-1.4
	c-1.8,0-3.4,0.1-5.1,0.1C264.6,53.2,264.6,52.3,264.7,51.4z"/>
<path class="st5" d="M322.9,116.2c0.1-0.2,0.1-0.4,0.1-0.6c-0.1-0.2-0.2-0.4-0.4-0.5l-5.2-3l2.9-5.2c0.1-0.2,0.1-0.4,0.1-0.6
	c-0.1-0.2-0.2-0.4-0.4-0.5c-0.2-0.1-0.4-0.1-0.6-0.1c-0.2,0.1-0.4,0.2-0.5,0.4l-2.9,5.2l-5.2-3c-0.2-0.1-0.4-0.1-0.6-0.1
	c-0.2,0.1-0.4,0.2-0.5,0.4c-0.1,0.2-0.1,0.4-0.1,0.6c0.1,0.2,0.2,0.4,0.4,0.5l5.2,3l-2.9,5.2c-0.1,0.2-0.1,0.4-0.1,0.6
	c0.1,0.2,0.2,0.4,0.4,0.5c0.2,0.1,0.4,0.1,0.6,0.1s0.4-0.2,0.5-0.4l2.9-5.2l5.2,3c0.2,0.1,0.4,0.1,0.6,0.1
	C322.6,116.6,322.8,116.4,322.9,116.2L322.9,116.2z"/>
<circle class="st6" cx="37.2" cy="116.1" r="3.1"/>
<g>
	<defs>
		<rect id="SVGID_3_" x="182.6" y="83.6" transform="matrix(0.9656 -0.26 0.26 0.9656 -21.1053 57.7225)" width="50" height="50"/>
	</defs>
	<clipPath id="SVGID_4_">
		<use xlink:href="#SVGID_3_"  style="overflow:visible;"/>
	</clipPath>
	<g class="st7">
		<path d="M213.6,130.9c12.3-3.3,19.6-16,16.3-28.3c-3.3-12.3-16-19.6-28.3-16.3s-19.6,16-16.3,28.3
			C188.7,127,201.3,134.3,213.6,130.9z"/>
		
			<linearGradient id="SVGID_5_" gradientUnits="userSpaceOnUse" x1="198.7131" y1="139.7428" x2="216.5695" y2="170.7573" gradientTransform="matrix(1 0 0 -1 0 263.8897)">
			<stop  offset="0" style="stop-color:#9945FF"/>
			<stop  offset="0.2" style="stop-color:#7962E7"/>
			<stop  offset="1" style="stop-color:#00D18C"/>
		</linearGradient>
		<path class="st8" d="M200.8,117.1c0.1-0.1,0.1-0.2,0.2-0.3s0.2-0.1,0.3-0.2l20.4-5.5c0.1,0,0.2,0,0.3,0c0.1,0,0.2,0.1,0.2,0.2
			c0.1,0.1,0.1,0.2,0.1,0.2c0,0.1,0,0.2-0.1,0.3l-3.1,6c-0.1,0.1-0.1,0.2-0.2,0.3c-0.1,0.1-0.2,0.1-0.3,0.2l-20.4,5.5
			c-0.1,0-0.2,0-0.3,0s-0.2-0.1-0.2-0.2c-0.1-0.1-0.1-0.2-0.1-0.2c0-0.1,0-0.2,0-0.3L200.8,117.1z M221.1,107.3
			c0.1,0,0.1,0.1,0.2,0.2c0,0.1,0.1,0.2,0,0.3c0,0.1-0.1,0.2-0.1,0.2c-0.1,0.1-0.1,0.1-0.2,0.1l-20.4,5.5c-0.1,0-0.3,0-0.4,0
			c-0.1,0-0.2-0.1-0.4-0.1l-5.6-3.6c-0.1,0-0.1-0.1-0.2-0.2s0-0.2,0-0.3c0-0.1,0.1-0.2,0.1-0.2c0.1-0.1,0.1-0.1,0.2-0.1l20.4-5.5
			c0.1,0,0.3,0,0.4,0c0.1,0,0.3,0.1,0.4,0.1L221.1,107.3z M196,99.5c0.1-0.1,0.1-0.2,0.2-0.3c0.1-0.1,0.2-0.1,0.3-0.2l20.4-5.5
			c0.1,0,0.2,0,0.3,0c0.1,0,0.2,0.1,0.2,0.2c0.1,0.1,0.1,0.2,0.1,0.2s0,0.2,0,0.3l-3.1,6c-0.1,0.1-0.1,0.2-0.2,0.3
			c-0.1,0.1-0.2,0.1-0.3,0.2l-20.4,5.5c-0.1,0-0.2,0-0.3,0c-0.1,0-0.2-0.1-0.2-0.2c-0.1-0.1-0.1-0.2-0.1-0.2c0-0.1,0-0.2,0-0.3
			L196,99.5z"/>
	</g>
</g>
<path class="st9" d="M161.6,80.2c7.8,4.5,17.8,1.8,22.3-6c4.5-7.8,1.8-17.8-6-22.3c-7.8-4.5-17.8-1.8-22.3,6S153.8,75.7,161.6,80.2z
	"/>
<path class="st10" d="M176.3,55.7l-4.5,7.8l4.9,6.8L176.3,55.7z"/>
<path class="st1" d="M176.3,55.7l-12.8,7l8.3,0.9L176.3,55.7z"/>
<path class="st10" d="M167.1,71.6l-3.1,5.3l11.9-5.3L167.1,71.6z"/>
<path class="st1" d="M164.1,76.9l3.1-5.3l-4.4-7.7L164.1,76.9z"/>
<path class="st11" d="M167.9,70.4l8.8,0l-4.9-6.8L167.9,70.4z"/>
<path class="st10" d="M163.5,62.7l4.4,7.7l3.9-6.8L163.5,62.7z"/>
<circle class="st6" cx="298.4" cy="55.4" r="3.1"/>
<circle class="st6" cx="329.1" cy="79.3" r="3.1"/>
<path class="st5" d="M67.7,77.1c0.2-0.1,0.3-0.3,0.3-0.5c0-0.2,0-0.4-0.1-0.6l-3.6-4.8l4.7-3.6c0.2-0.1,0.3-0.3,0.3-0.5
	c0-0.2,0-0.4-0.1-0.6c-0.1-0.2-0.3-0.3-0.5-0.3c-0.2,0-0.4,0-0.6,0.1l-4.7,3.6L59.7,65c-0.1-0.2-0.3-0.3-0.5-0.3s-0.4,0-0.6,0.1
	c-0.2,0.1-0.3,0.3-0.3,0.5c0,0.2,0,0.4,0.1,0.6l3.6,4.8l-4.7,3.6c-0.2,0.1-0.3,0.3-0.3,0.6c0,0.2,0,0.4,0.1,0.6
	c0.1,0.2,0.3,0.3,0.5,0.3c0.2,0,0.4,0,0.6-0.1l4.7-3.6l3.6,4.8c0.1,0.2,0.3,0.3,0.5,0.3C67.3,77.3,67.5,77.2,67.7,77.1L67.7,77.1z"
	/>
<path class="st12" d="M213.7,31.9c7.6,2.4,15.7-1.9,18.1-9.6c2.4-7.6-1.9-15.7-9.6-18.1c-7.6-2.4-15.7,1.9-18.1,9.6
	C201.8,21.4,206.1,29.5,213.7,31.9z"/>
<circle class="st12" cx="58.8" cy="102.9" r="18.1"/>
<path class="st13" d="M139.2,134.5c10.2,2.9,20.8-2.9,23.8-13.1c2.9-10.2-2.9-20.8-13.1-23.8c-10.2-2.9-20.8,2.9-23.8,13.1
	C123.1,120.9,129,131.6,139.2,134.5z"/>
<path class="st1" d="M140.5,112.9l5.8-3.2l3.2,5.8l3.4-1.9l-5-9.1l-9.1,5L140.5,112.9z M133,112.7l3.4-1.9l1.9,3.4l-3.4,1.9
	L133,112.7z M139.5,116.6l3.2,5.8l5.8-3.2l1.9,3.4l-9.1,5l-5-9.1l0,0L139.5,116.6z M150.8,117.9l3.4-1.9l1.9,3.4l-3.4,1.9
	L150.8,117.9z M147.1,116.8L147.1,116.8L147.1,116.8l-3.4,1.9l-1.9-3.4l0,0l0,0l0.6-0.3l0.3-0.2l2.5-1.4L147.1,116.8L147.1,116.8z"
	/>
<path class="st14" d="M91,127.2h168.4c11.7,0,21.1,9.5,21.1,21.1v94.6c0,11.7-9.5,21.1-21.1,21.1H91c-11.7,0-21.1-9.5-21.1-21.1
	v-94.6C69.9,136.6,79.4,127.2,91,127.2z"/>
<path class="st15" d="M221.5,194.5c0-11.7,9.5-21.1,21.1-21.1h29.1c11.7,0,21.1,9.5,21.1,21.1v1.9c0,11.7-9.5,21.1-21.1,21.1h-29.1
	c-11.7,0-21.1-9.5-21.1-21.1V194.5z"/>
<ellipse class="st16" cx="241.4" cy="195.4" rx="10.9" ry="10.8"/>
<circle class="st12" cx="272.2" cy="103.8" r="11.8"/>
<g class="st17">
	<linearGradient id="SVGID_6_" gradientUnits="userSpaceOnUse" x1="133.6103" y1="173.1397" x2="203.9901" y2="220.6147">
		<stop  offset="8.623718e-03" style="stop-color:#9C2EFF"/>
		<stop  offset="0.3915" style="stop-color:#9C2EFF"/>
		<stop  offset="0.8467" style="stop-color:#8015E0"/>
	</linearGradient>
	<circle class="st18" cx="167" cy="195.7" r="36.2"/>
	<g>
		<path class="st19" d="M163,164c-0.9,0.9-1.4,1.5-2.2,3.2c-1.5,2.9-2,5.7-1.6,8.5c0.2,1.6,0.7,3.2,1.1,3.6c0.1,0.1,0.2,0.3,0.2,0.4
			c0,0.1,0.1,0.3,0.3,0.5c0.3,0.3,0.3,0.3-0.1,0.2c-0.9-0.3-2.1-1.2-3-2.3c-0.7-0.9-1.3-2.6-1.6-4.3c-0.1-0.4-0.2-0.6-0.3-0.6
			c-0.3,0-2.8,1.3-2.9,1.5c0,0.1-0.1,0.1-0.2,0.1s-0.4,0.1-0.6,0.3c-0.2,0.2-1,0.8-1.7,1.3c-1.3,1-3.6,3.3-4.4,4.3
			c-0.2,0.3-0.5,0.6-0.6,0.7c-0.2,0.2-0.6,0.8-1.4,2.1c-0.5,0.7-1.1,1.9-1.1,2.1c0,0.1,0.5-0.3,1.2-0.9c2.3-1.9,4.1-2.9,6.3-3.6
			c2-0.6,2.1-0.5,0.6,0.5c-1.4,0.9-4.1,3.6-5.1,4.8c-2.5,3.4-4,6.4-4.5,9.3c-0.4,2.1-0.4,5.9,0,5.9c0.1,0,0.1-0.1,0.1-0.3
			c0-1.2,1.8-5.2,3.1-6.9c1.5-1.9,4.2-4.3,4.8-4.3c0.1,0,0,0.1-0.1,0.3c-0.3,0.3-1.2,1.9-1.9,3.2c-1.4,2.7-2.4,6.4-2.4,9
			c0,2.4,0.8,5.5,2,7.4c0.3,0.5,0.5,0.9,0.5,1c0,0.2,2.1,2.4,2.9,3c0.7,0.6,1.8,1.3,2.8,1.8c0.9,0.5,2.4,1,2.5,0.8
			c0,0-0.4-0.6-1-1.3c-2-2.2-3.6-4.8-4.4-7.2c-0.6-1.7-0.3-6.1,0.5-7.1c0.2-0.2,0.2-0.2,0.2,0.6c0,2,0.9,4.3,2.6,6.4
			c0.5,0.7,1,1.3,1.1,1.3c0.1,0,0.6,0.6,1.1,1.3c0.6,0.7,1.1,1.2,1.1,1.3c0.6,0.6,3,4,3,4.3c0,0.1,0.1,0.2,0.1,0.2
			c0.2,0.1,1.4,2.6,1.9,4c0.3,0.8,0.5,1.8,0.5,2.8c0,0.8,0.1,1.5,0.2,1.5c0.4,0,1.7-2.1,2.1-3.4c0.5-1.4,0.6-4.1,0.2-5.6
			c-0.4-1.4-1.1-3-1.9-4.3c-0.4-0.5-0.7-1-0.6-1c0.6,0,3.7,2.9,4.4,4.1c0.2,0.3,0.5,0.9,0.7,1.2c0.8,1.4,1.1,2.9,1.1,4.9
			c0,2.4-0.6,4.3-2,6.6c-0.2,0.3-0.4,0.7-0.5,0.8c-0.3,0.4,0.1,0.4,1.3-0.3c2.7-1.5,5.7-4.6,7.2-7.2c0.5-0.9,1-2.9,1-3.9
			c0-1.4-0.7-4-1.2-4.6c-0.2-0.2-0.2-0.1-0.3,0.6c-0.2,1.7-1.2,4.5-1.3,3.8c-0.4-2.2-0.9-3.4-1.9-5c-1.2-1.8-2.4-2.8-6.7-5.4
			c-2.7-1.7-3.6-2.4-5.7-4.2c-0.9-0.8-1.9-1.9-1.9-2c0-0.1-0.1-0.2-0.2-0.3c-0.4-0.4-1.2-1.9-1.6-2.8c-0.3-0.8-0.4-1.2-0.4-3.1
			c0-1.9,0.1-2.3,0.4-3.4c0.2-0.7,0.7-1.7,1-2.3c0.6-1,2.1-2.6,3-3.4c0.6-0.4,2.5-1.4,3.2-1.5c0.5-0.1,0.4-0.1-0.3,0.7
			c-1.9,1.8-3.6,4.4-4.2,6.5c-0.4,1.6-0.5,5-0.1,5c0.1,0,0.2-0.1,0.2-0.2c0-0.4,0.8-1.9,1.5-2.8c0.4-0.5,1.1-1.2,1.5-1.6
			c0.4-0.3,0.8-0.7,0.9-0.7c0.1-0.1,2.3-1.2,2.7-1.3c0.4-0.1,0.4-0.1-0.6,1.3c-1.4,2-2.2,4.9-2.1,7.1c0.1,1.1,0.8,3.7,1.1,3.9
			c0.1,0,0.3,0.4,0.6,0.8c0.6,0.9,1.8,2.1,2.9,2.9c1.2,0.9,1.5,0.9,0.9,0c-0.9-1.3-1.5-4.4-1.1-6.2c0.2-1,0.9-2.6,1.1-2.6
			c0.1,0,0.1,0.4,0.1,0.9c0,2.5,0.8,4.1,3.4,6.6c1,1,2.3,2.3,2.9,2.8c3.1,2.8,4.5,5.3,4.9,8.5c0.2,1.8,0.1,3.4-0.4,4.9
			c-0.2,0.5-0.2,0.9-0.2,0.9c0.2,0,1.4-1.7,2.1-3c0.7-1.4,1.3-3.8,1.3-5.2c0-1.8-0.6-3.8-1.6-5.2c-0.8-1.2-1.5-1.9-3.4-3.3
			c-2.2-1.7-2.7-2.5-1.9-3.2c0.3-0.3,0.6-0.3,2-0.3c1.6,0,1.9,0.1,3.8,0.7c3.2,1,3.6,1.1,5.4,1.1c1.4,0,1.8-0.1,2.4-0.3
			c0.7-0.3,1.9-1.3,1.9-1.6c0-0.1-0.7-0.2-1.5-0.3c-0.9-0.1-2.1-0.4-3.2-0.8c-2.9-1-6.1-2.1-7-2.3c-0.5-0.1-0.8-0.3-0.8-0.3
			c0-0.1,0.3-0.2,0.7-0.3c0.8-0.2,2.6,0,3.9,0.5c0.4,0.2,1.6,0.6,2.6,0.9c3.8,1.4,5.9,1.6,7.4,0.8c0.8-0.4,1.7-1.2,1.7-1.4
			c0-0.1-0.3-0.4-0.6-0.7c-0.8-0.7-1.3-1.8-1.2-2.6c0-0.3,1.2-0.6,2.4-0.5l1.2,0.1l-0.4-0.3c-0.2-0.2-0.8-0.6-1.2-0.9
			s-1.1-0.8-1.4-1c-1.3-1-2.7-2-2.9-2.1c-0.1-0.1-0.6-0.4-1.2-0.8s-1.1-0.8-1.1-0.8c0,0-0.6-0.4-1.3-0.9c-0.7-0.4-1.3-0.9-1.4-1
			c-0.1-0.1-0.3-0.7-0.4-1.4c-0.3-1.7-0.7-2.5-2.3-4c-2.1-2.1-5.1-4.2-8.4-5.8c-1.1-0.5-2.1-1-2.2-1.1c-0.2-0.1-0.4-0.1-0.5-0.1
			c-0.1,0-0.5-0.6-1-1.6c-0.7-1.5-1.5-2.8-1.7-2.9c-0.1,0-0.1-0.1-0.1-0.2c0-0.1-0.5-0.8-1.8-2.3c-0.8-1-2.3-2.3-2.6-2.3
			C163.7,163.4,163.3,163.7,163,164 M163.6,167.5c-0.5,0.6-1.2,2.2-1.5,3.2c-0.1,0.5-0.2,1.6-0.1,2.6c0.1,1.5,0.1,1.8,0.6,2.7
			c0.8,1.5,2.7,3.3,2.3,2.2c-0.3-1.2-0.4-2.1-0.3-3.3c0.1-1.3,0.1-1.3,0.5-1.3c0.4,0,2.2,0.8,2.6,1.2c0.4,0.4,0.5,0.1,0.3-1.1
			c-0.2-1.1-1.2-3.5-2.1-4.7c-0.4-0.7-1.6-1.9-1.8-1.9C164,167.1,163.8,167.3,163.6,167.5 M172.5,168.2c-0.5,1-1,2.5-1,3
			c0,0.2,0.2,0.3,0.6,0.5c1.4,0.5,2.7,1.1,3.7,1.7c0.6,0.3,1.1,0.7,1.2,0.7c0.4,0.2-2.2-4.8-2.7-5.4c-0.1-0.1-0.2-0.3-0.2-0.3
			c0-0.1-0.9-1.1-1-1.1C173,167.2,172.8,167.7,172.5,168.2 M173,182.2l-1.4,0.1l0.7,0.3c2.3,1,2.6,1.2,3.2,2
			c0.9,1.3,1.6,1.7,3.4,1.9c1.1,0.1,1.7,0.2,2.3,0.6c1,0.5,1,0.5,1,0.2c0-0.7-3-4.4-3.6-4.4c-0.1,0-0.2-0.1-0.2-0.1
			C178.4,182.3,175.5,182,173,182.2"/>
		<path class="st4" d="M162.6,163.7c-0.9,0.9-1.4,1.5-2.2,3.2c-1.5,2.9-2,5.7-1.6,8.5c0.2,1.6,0.7,3.2,1.1,3.6
			c0.1,0.1,0.2,0.3,0.2,0.4s0.1,0.3,0.3,0.5c0.3,0.3,0.3,0.3-0.1,0.2c-0.9-0.3-2.1-1.2-3-2.3c-0.7-0.9-1.3-2.6-1.6-4.3
			c-0.1-0.4-0.2-0.6-0.3-0.6c-0.3,0-2.8,1.3-2.9,1.5c0,0.1-0.1,0.1-0.2,0.1s-0.4,0.1-0.6,0.3c-0.2,0.2-1,0.8-1.7,1.3
			c-1.3,1-3.6,3.3-4.4,4.3c-0.2,0.3-0.5,0.6-0.6,0.7c-0.2,0.2-0.6,0.8-1.4,2.1c-0.5,0.7-1.1,1.9-1.1,2.1c0,0.1,0.5-0.3,1.2-0.9
			c2.3-1.9,4.1-2.9,6.3-3.6c2-0.6,2.1-0.5,0.6,0.5c-1.4,0.9-4.1,3.6-5.1,4.8c-2.5,3.4-4,6.4-4.5,9.3c-0.4,2.1-0.4,5.9,0,5.9
			c0.1,0,0.1-0.1,0.1-0.3c0-1.2,1.8-5.2,3.1-6.9c1.5-1.9,4.2-4.3,4.8-4.3c0.1,0,0,0.1-0.1,0.3c-0.3,0.3-1.2,1.9-1.9,3.2
			c-1.4,2.7-2.4,6.4-2.4,9c0,2.4,0.8,5.5,2,7.4c0.3,0.5,0.5,0.9,0.5,1c0,0.2,2.1,2.4,2.9,3c0.7,0.6,1.8,1.3,2.8,1.8
			c0.9,0.5,2.4,1,2.5,0.8c0,0-0.4-0.6-1-1.3c-2-2.2-3.6-4.8-4.4-7.2c-0.6-1.7-0.3-6.1,0.5-7.1c0.2-0.2,0.2-0.2,0.2,0.6
			c0,2,0.9,4.3,2.6,6.4c0.5,0.7,1,1.3,1.1,1.3c0.1,0,0.6,0.6,1.1,1.3c0.6,0.7,1.1,1.2,1.1,1.3c0.6,0.6,3,4,3,4.3
			c0,0.1,0.1,0.2,0.1,0.2c0.2,0.1,1.4,2.6,1.9,4c0.3,0.8,0.5,1.8,0.5,2.8c0,0.8,0.1,1.5,0.2,1.5c0.4,0,1.7-2.1,2.1-3.4
			c0.5-1.4,0.6-4.1,0.2-5.6c-0.4-1.4-1.1-3-1.9-4.3c-0.4-0.5-0.7-1-0.6-1c0.6,0,3.7,2.9,4.4,4.1c0.2,0.3,0.5,0.9,0.7,1.2
			c0.8,1.4,1.1,2.9,1.1,4.9c0,2.4-0.6,4.3-2,6.6c-0.2,0.3-0.4,0.7-0.5,0.8c-0.3,0.4,0.1,0.4,1.3-0.3c2.7-1.5,5.7-4.6,7.2-7.2
			c0.5-0.9,1-2.9,1-3.9c0-1.4-0.7-4-1.2-4.6c-0.2-0.2-0.2-0.1-0.3,0.6c-0.2,1.7-1.2,4.5-1.3,3.8c-0.4-2.2-0.9-3.4-1.9-5
			c-1.2-1.8-2.4-2.8-6.7-5.4c-2.7-1.7-3.6-2.4-5.7-4.2c-0.9-0.8-1.9-1.9-1.9-2c0-0.1-0.1-0.2-0.2-0.3c-0.4-0.4-1.2-1.9-1.6-2.8
			c-0.3-0.8-0.4-1.2-0.4-3.1c0-1.9,0.1-2.3,0.4-3.4c0.2-0.7,0.7-1.7,1-2.3c0.6-1,2.1-2.6,3-3.4c0.6-0.4,2.5-1.4,3.2-1.5
			c0.5-0.1,0.4-0.1-0.3,0.7c-1.9,1.8-3.6,4.4-4.2,6.5c-0.4,1.6-0.5,5-0.1,5c0.1,0,0.2-0.1,0.2-0.2c0-0.4,0.8-1.9,1.5-2.8
			c0.4-0.5,1.1-1.2,1.5-1.6c0.4-0.3,0.8-0.7,0.9-0.7c0.1-0.1,2.3-1.2,2.7-1.3c0.4-0.1,0.4-0.1-0.6,1.3c-1.4,2-2.2,4.9-2.1,7.1
			c0.1,1.1,0.8,3.7,1.1,3.9c0.1,0,0.3,0.4,0.6,0.8c0.6,0.9,1.8,2.1,2.9,2.9c1.2,0.9,1.5,0.9,0.9,0c-0.9-1.3-1.5-4.4-1.1-6.2
			c0.2-1,0.9-2.6,1.1-2.6c0.1,0,0.1,0.4,0.1,0.9c0,2.5,0.8,4.1,3.4,6.6c1,1,2.3,2.3,2.9,2.8c3.1,2.8,4.5,5.3,4.9,8.5
			c0.2,1.8,0.1,3.4-0.4,4.9c-0.2,0.5-0.2,0.9-0.2,0.9c0.2,0,1.4-1.7,2.1-3c0.7-1.4,1.3-3.8,1.3-5.2c0-1.8-0.6-3.8-1.6-5.2
			c-0.8-1.2-1.5-1.9-3.4-3.3c-2.2-1.7-2.7-2.5-1.9-3.2c0.3-0.3,0.6-0.3,2-0.3c1.6,0,1.9,0.1,3.8,0.7c3.2,1,3.6,1.1,5.4,1.1
			c1.4,0,1.8-0.1,2.4-0.3c0.7-0.3,1.9-1.3,1.9-1.6c0-0.1-0.7-0.2-1.5-0.3c-0.9-0.1-2.1-0.4-3.2-0.8c-2.9-1-6.1-2.1-7-2.3
			c-0.5-0.1-0.8-0.3-0.8-0.3c0-0.1,0.3-0.2,0.7-0.3c0.8-0.2,2.6,0,3.9,0.5c0.4,0.2,1.6,0.6,2.6,0.9c3.8,1.4,5.9,1.6,7.4,0.8
			c0.8-0.4,1.7-1.2,1.7-1.4c0-0.1-0.3-0.4-0.6-0.7c-0.8-0.7-1.3-1.8-1.2-2.6c0-0.3,1.2-0.6,2.4-0.5l1.2,0.1l-0.4-0.3
			c-0.2-0.2-0.8-0.6-1.2-0.9c-0.4-0.3-1.1-0.8-1.4-1c-1.3-1-2.7-2-2.9-2.1c-0.1-0.1-0.6-0.4-1.2-0.8s-1.1-0.8-1.1-0.8
			c0,0-0.6-0.4-1.3-0.9c-0.7-0.4-1.3-0.9-1.4-1c-0.1-0.1-0.3-0.7-0.4-1.4c-0.3-1.7-0.7-2.5-2.3-4c-2.1-2.1-5.1-4.2-8.4-5.8
			c-1.1-0.5-2.1-1-2.2-1.1c-0.2-0.1-0.4-0.1-0.5-0.1c-0.1,0-0.5-0.6-1-1.6c-0.7-1.5-1.5-2.8-1.7-2.9c-0.1,0-0.1-0.1-0.1-0.2
			c0-0.1-0.5-0.8-1.8-2.3c-0.8-1-2.3-2.3-2.6-2.3C163.4,163.1,163,163.3,162.6,163.7 M163.2,167.2c-0.5,0.6-1.2,2.2-1.5,3.2
			c-0.1,0.5-0.2,1.6-0.1,2.6c0.1,1.5,0.1,1.8,0.6,2.7c0.8,1.5,2.7,3.3,2.3,2.2c-0.3-1.2-0.4-2.1-0.3-3.3c0.1-1.3,0.1-1.3,0.5-1.3
			c0.4,0,2.2,0.8,2.6,1.2c0.4,0.4,0.5,0.1,0.3-1.1c-0.2-1.1-1.2-3.5-2.1-4.7c-0.4-0.7-1.6-1.9-1.8-1.9
			C163.7,166.8,163.4,166.9,163.2,167.2 M172.2,167.9c-0.5,1-1,2.5-1,3c0,0.2,0.2,0.3,0.6,0.5c1.4,0.5,2.7,1.1,3.7,1.7
			c0.6,0.3,1.1,0.7,1.2,0.7c0.4,0.2-2.2-4.8-2.7-5.4c-0.1-0.1-0.2-0.3-0.2-0.3c0-0.1-0.9-1.1-1-1.1
			C172.7,166.9,172.5,167.4,172.2,167.9 M172.7,181.9l-1.4,0.1l0.7,0.3c2.3,1,2.6,1.2,3.2,2c0.9,1.3,1.6,1.7,3.4,1.9
			c1.1,0.1,1.7,0.2,2.3,0.6c1,0.5,1,0.5,1,0.2c0-0.7-3-4.4-3.6-4.4c-0.1,0-0.2-0.1-0.2-0.1C178.1,182,175.1,181.7,172.7,181.9"/>
	</g>
</g>
</svg>
