<?xml version="1.0" encoding="utf-8"?>
<!-- Generator: Adobe Illustrator 24.3.0, SVG Export Plug-In . SVG Version: 6.00 Build 0)  -->
<svg version="1.1" id="Layer_1" xmlns="http://www.w3.org/2000/svg" xmlns:xlink="http://www.w3.org/1999/xlink" x="0px" y="0px"
	 viewBox="0 0 233.4 160.9" style="enable-background:new 0 0 233.4 160.9;" xml:space="preserve">
<style type="text/css">
	.st0{clip-path:url(#SVGID_2_);}
	.st1{fill:url(#SVGID_3_);}
	.st2{fill:#D9CDFE;}
	.st3{fill:#FFFFFF;}
	.st4{fill:url(#SVGID_4_);}
	.st5{fill:url(#SVGID_5_);}
	.st6{fill:url(#SVGID_6_);}
	.st7{fill:url(#SVGID_7_);}
	.st8{fill:url(#SVGID_8_);}
	.st9{fill:url(#SVGID_9_);}
	.st10{fill:url(#SVGID_10_);}
	.st11{fill:url(#SVGID_11_);}
	.st12{fill:url(#SVGID_12_);}
	.st13{fill:url(#SVGID_13_);}
	.st14{opacity:0.1;}
	.st15{opacity:0.1;fill:url(#SVGID_14_);enable-background:new    ;}
	.st16{opacity:0.1;fill:url(#SVGID_15_);enable-background:new    ;}
	.st17{opacity:0.1;fill:url(#SVGID_16_);enable-background:new    ;}
	.st18{opacity:0.1;fill:url(#SVGID_17_);enable-background:new    ;}
	.st19{fill:#EBEAF7;}
	.st20{opacity:0.1;fill:url(#SVGID_18_);enable-background:new    ;}
	.st21{opacity:0.1;fill:url(#SVGID_19_);enable-background:new    ;}
	.st22{opacity:0.1;fill:url(#SVGID_20_);enable-background:new    ;}
	.st23{opacity:0.1;fill:url(#SVGID_21_);enable-background:new    ;}
	.st24{opacity:0.1;fill:url(#SVGID_22_);enable-background:new    ;}
	.st25{opacity:0.1;fill:url(#SVGID_23_);enable-background:new    ;}
	.st26{opacity:0.1;fill:url(#SVGID_24_);enable-background:new    ;}
	.st27{opacity:0.1;fill:url(#SVGID_25_);enable-background:new    ;}
	.st28{fill:url(#SVGID_26_);}
	.st29{fill:url(#SVGID_27_);}
	.st30{fill:url(#SVGID_28_);}
	.st31{fill:url(#SVGID_29_);}
	.st32{fill:url(#SVGID_30_);}
	.st33{fill:#FEFEFE;}
	.st34{fill:url(#SVGID_31_);}
	.st35{fill-rule:evenodd;clip-rule:evenodd;fill:#808080;}
	.st36{fill-rule:evenodd;clip-rule:evenodd;fill:#FFFFFF;}
</style>
<g>
	<defs>
		<rect id="SVGID_1_" y="0" width="240" height="160.9"/>
	</defs>
	<clipPath id="SVGID_2_">
		<use xlink:href="#SVGID_1_"  style="overflow:visible;"/>
	</clipPath>
	<g class="st0">
		
			<linearGradient id="SVGID_3_" gradientUnits="userSpaceOnUse" x1="96.7515" y1="678.0765" x2="142.3915" y2="839.6865" gradientTransform="matrix(1 0 0 1 0 -679.9897)">
			<stop  offset="0" style="stop-color:#D34255"/>
			<stop  offset="1" style="stop-color:#97358A"/>
		</linearGradient>
		<path class="st1" d="M120,160.9c44.4,0,80.5-36,80.5-80.4S164.5,0,120,0S39.6,36,39.6,80.4c0,0,0,0,0,0
			C39.6,124.9,75.6,160.9,120,160.9z"/>
		<path class="st2" d="M166.8,108.3c-0.2-0.1-0.3-0.2-0.5-0.3c-0.2-0.1-0.3-0.2-0.5-0.2c-0.2-0.1-0.4-0.1-0.5-0.2l-0.6-0.1l2.3-6.3
			c0.2,0,0.4,0.1,0.6,0.1c0.2,0,0.4,0.1,0.5,0.2l0.5,0.2c0.2,0.1,0.3,0.2,0.5,0.3l-1.1,3.2C167.5,106.1,167.1,107.2,166.8,108.3
			L166.8,108.3z"/>
		<path class="st2" d="M167.9,109.6c0-0.1-0.1-0.2-0.2-0.4c-0.1-0.1-0.2-0.2-0.3-0.3c-0.1-0.1-0.2-0.2-0.3-0.3
			c-0.1-0.1-0.3-0.2-0.4-0.3l0.3-0.7l0.3-0.8l0.3-0.8l0.3-0.8l0.3-0.8l0.3-0.8l0.3-0.8l0.2-0.7c0.1,0.1,0.3,0.2,0.4,0.3
			c0.1,0.1,0.2,0.2,0.4,0.3c0.1,0.1,0.2,0.2,0.3,0.4c0.1,0.1,0.1,0.2,0.2,0.3L167.9,109.6L167.9,109.6z"/>
		<path class="st2" d="M166.9,101.1l-2.3,6.3l-11.5-1.4l2.2-6.4L166.9,101.1z"/>
		<path class="st2" d="M150.9,106.9l2.2-6.4c0-0.1,0-0.1,0.1-0.2c0-0.1,0.1-0.1,0.1-0.2l0.1-0.1l0.1-0.1c0.1-0.1,0.2-0.1,0.4-0.2
			c0.1,0,0.3-0.1,0.4-0.1c0.2,0,0.3,0,0.5,0c0.2,0,0.4,0,0.5,0l-2.2,6.4c-0.2,0-0.4,0-0.5,0c-0.3,0-0.6,0-0.9,0.1
			c-0.1,0.1-0.2,0.1-0.4,0.2l-0.2,0.1c0,0-0.1,0.1-0.1,0.1c0,0-0.1,0.1-0.1,0.1C150.9,106.8,150.9,106.9,150.9,106.9z"/>
		<path class="st3" d="M150.9,106.9l0.2-0.6l0.1-0.3l0.2-0.6l0.2-0.6l0.1-0.3l0.2-0.6l0.2-0.7l0.1-0.3l0.2-0.6l0.2-0.7l0.1-0.3
			l0.2-0.7v0.3c0,0.1,0,0.1,0,0.2v0.2l-2.2,6.4v-0.5C150.9,107.1,150.9,107,150.9,106.9z"/>
		<path class="st3" d="M165.2,104.4l-2.3,6.4l-6-0.7l2.2-6.4L165.2,104.4z"/>
		<path class="st3" d="M166.4,108.2l-2.3,6.4l-1.1-3.9l2.3-6.4L166.4,108.2z"/>
		<path class="st2" d="M172.6,110.8l-2.4,6.4l-2.3-7.5l2.3-6.3L172.6,110.8z"/>
		<path class="st2" d="M172.6,111.5c-0.8,2.1-1.6,4.3-2.4,6.4c0-0.1,0-0.1,0.1-0.2c0-0.1,0-0.1,0-0.2c0-0.1,0-0.1,0-0.2
			c0-0.1,0-0.1,0-0.2l2.4-6.4c0,0.1,0,0.1,0,0.2c0,0.1,0,0.1,0,0.2c0,0.1,0,0.1,0,0.2C172.6,111.4,172.6,111.4,172.6,111.5z"/>
		<path class="st2" d="M166.4,108.2l-2.3,6.4l-6-0.7l2.3-6.4L166.4,108.2z"/>
		<path class="st2" d="M160.3,107.5l-2.3,6.4l-1.1-3.9l2.2-6.4L160.3,107.5L160.3,107.5z"/>
		<path class="st3" d="M172.6,111.5l-2.4,6.4c0,0.1,0,0.1-0.1,0.2l-0.1,0.1l-0.1,0.1l-0.1,0.1c-0.1,0.1-0.2,0.1-0.4,0.2
			c-0.1,0-0.3,0.1-0.4,0.1c-0.2,0-0.3,0-0.5,0H168l2.4-6.4h0.5c0.2,0,0.3,0,0.5-0.1c0.1,0,0.3-0.1,0.4-0.1c0.1,0,0.2-0.1,0.4-0.2
			l0.1-0.1c0,0,0.1-0.1,0.1-0.1c0,0,0.1-0.1,0.1-0.1C172.6,111.5,172.6,111.5,172.6,111.5z"/>
		<path class="st3" d="M155.1,108.6l-2.2,6.5l-2.1-7.6l2.2-6.4L155.1,108.6z"/>
		<path class="st3" d="M170.3,112.3l-2.3,6.4l-11.7-1.4l2.3-6.5L170.3,112.3z"/>
		<path class="st3" d="M169,101.9c0.2,0.1,0.3,0.2,0.4,0.3c0.1,0.1,0.2,0.2,0.4,0.3c0.1,0.1,0.2,0.2,0.3,0.3
			c0.1,0.1,0.1,0.2,0.2,0.4l2.4,7.5c0,0.1,0.1,0.2,0.1,0.4c0,0.1,0,0.2,0,0.3c0,0.1-0.1,0.2-0.2,0.3c-0.1,0.1-0.2,0.2-0.3,0.2
			c-0.1,0.1-0.2,0.1-0.4,0.2c-0.1,0.1-0.3,0.1-0.4,0.1c-0.2,0-0.3,0-0.5,0h-0.5l-11.8-1.4c-0.2,0-0.4-0.1-0.6-0.1
			c-0.2,0-0.4-0.1-0.6-0.2c-0.2-0.1-0.4-0.1-0.6-0.2c-0.2-0.1-0.3-0.2-0.5-0.3c-0.1-0.1-0.3-0.2-0.4-0.3c-0.1-0.1-0.2-0.2-0.4-0.3
			c-0.1-0.1-0.2-0.2-0.3-0.4c-0.1-0.1-0.1-0.2-0.1-0.4l-2.2-7.5c0-0.1,0-0.2,0-0.3c0-0.1,0-0.2,0.1-0.3c0-0.1,0.1-0.2,0.2-0.3
			c0.1-0.1,0.2-0.2,0.3-0.2c0.1-0.1,0.2-0.1,0.4-0.2c0.1,0,0.3-0.1,0.4-0.1c0.2,0,0.3,0,0.5,0h0.5l11.6,1.4l0.6,0.1
			c0.2,0,0.4,0.1,0.6,0.2l0.5,0.2C168.7,101.7,168.9,101.8,169,101.9L169,101.9z M166.4,108.2l-1.2-3.9l-6-0.7l1.1,3.9L166.4,108.2"
			/>
		<path class="st3" d="M158.5,110.8l-2.3,6.5c-0.2,0-0.4-0.1-0.6-0.1c-0.2,0-0.4-0.1-0.6-0.2c-0.2-0.1-0.4-0.1-0.5-0.2
			c-0.2-0.1-0.3-0.2-0.5-0.3c-0.1-0.1-0.3-0.2-0.4-0.3c-0.1-0.1-0.2-0.2-0.4-0.3c-0.1-0.1-0.2-0.2-0.2-0.4c-0.1-0.1-0.1-0.2-0.2-0.4
			l2.2-6.5c0,0.1,0.1,0.3,0.2,0.4c0.1,0.1,0.2,0.3,0.3,0.4c0.1,0.1,0.2,0.2,0.4,0.3c0.1,0.1,0.3,0.2,0.4,0.3
			c0.2,0.1,0.3,0.2,0.5,0.3c0.2,0.1,0.4,0.2,0.6,0.2c0.2,0.1,0.4,0.1,0.6,0.2C158.1,110.8,158.3,110.8,158.5,110.8z"/>
		<path class="st3" d="M177.8,111.6l-2.4,6.4c-0.3,0.8-0.8,1.6-1.5,2.2c-0.8,0.7-1.6,1.2-2.6,1.5c-1.1,0.4-2.3,0.7-3.6,0.8
			c-1.5,0.1-2.9,0.1-4.4-0.1c-2.1-0.3-4.2-0.8-6.2-1.5c-1.9-0.7-3.8-1.6-5.5-2.8c-1.5-1-2.9-2.2-4.2-3.6c-1-1.2-1.8-2.5-2.2-4
			c-0.1-0.3-0.1-0.6-0.2-0.9c0-0.3,0-0.6,0-0.8c0-0.3,0-0.5,0.1-0.8c0-0.2,0.1-0.5,0.2-0.7l2.2-6.4c-0.1,0.2-0.1,0.5-0.2,0.7
			c0,0.3-0.1,0.5-0.1,0.8c0,0.3,0,0.5,0,0.8c0,0.3,0.1,0.6,0.2,0.9c0.4,1.5,1.2,2.9,2.2,4c1.2,1.4,2.6,2.6,4.2,3.6
			c3.6,2.3,7.6,3.8,11.8,4.3c1.5,0.2,2.9,0.2,4.4,0.1c1.2-0.1,2.4-0.4,3.6-0.8c1-0.3,1.8-0.8,2.6-1.5
			C177,113.2,177.5,112.5,177.8,111.6L177.8,111.6z"/>
		
			<linearGradient id="SVGID_4_" gradientUnits="userSpaceOnUse" x1="127.7181" y1="689.4404" x2="170.6681" y2="808.1605" gradientTransform="matrix(1 0 0 1 0 -679.9897)">
			<stop  offset="0" style="stop-color:#4C58CB"/>
			<stop  offset="1" style="stop-color:#68319E"/>
		</linearGradient>
		<path class="st4" d="M159.9,96.4c4,0.5,7.9,1.9,11.3,4.1c1.5,1,2.9,2.1,4.1,3.4c1.1,1.1,1.9,2.4,2.4,3.9c0.4,1.2,0.5,2.5,0.1,3.7
			c-0.4,1.1-1.2,2.1-2.2,2.8c-1.3,0.8-2.7,1.4-4.2,1.6c-1.9,0.3-3.9,0.3-5.8,0.1c-4.2-0.5-8.3-2-11.8-4.3c-1.6-1-3-2.2-4.2-3.6
			c-1-1.1-1.8-2.5-2.2-4c-0.4-1.2-0.3-2.5,0.2-3.6c0.5-1.1,1.4-2,2.4-2.6c1.3-0.7,2.7-1.2,4.2-1.4C156.2,96.1,158.1,96.1,159.9,96.4
			L159.9,96.4z M172.6,110.8l-2.4-7.5c0-0.1-0.1-0.2-0.2-0.4c-0.1-0.1-0.2-0.2-0.3-0.3c-0.1-0.1-0.2-0.2-0.4-0.3
			c-0.1-0.1-0.3-0.2-0.4-0.3c-0.2-0.1-0.3-0.2-0.5-0.3l-0.5-0.2c-0.2-0.1-0.4-0.1-0.6-0.2c-0.2,0-0.4-0.1-0.6-0.1l-11.5-1.5
			c-0.2,0-0.4,0-0.5,0c-0.2,0-0.3,0-0.5,0c-0.1,0-0.3,0.1-0.4,0.1c-0.1,0-0.3,0.1-0.4,0.2c-0.1,0.1-0.2,0.1-0.3,0.2
			c-0.1,0.1-0.1,0.2-0.2,0.3c0,0.1-0.1,0.2-0.1,0.3c0,0.1,0,0.2,0,0.3l2.1,7.5c0,0.1,0.1,0.3,0.1,0.4c0.1,0.1,0.2,0.2,0.3,0.4
			c0.1,0.1,0.2,0.2,0.4,0.3c0.1,0.1,0.3,0.2,0.4,0.3l0.5,0.3l0.6,0.2c0.2,0.1,0.4,0.1,0.6,0.2c0.2,0.1,0.4,0.1,0.6,0.1l11.8,1.4
			c0.2,0,0.4,0,0.5,0c0.2,0,0.3,0,0.5,0c0.2,0,0.3-0.1,0.4-0.1c0.1,0,0.2-0.1,0.4-0.2c0.1-0.1,0.2-0.1,0.3-0.2
			c0.1-0.1,0.1-0.2,0.1-0.3c0-0.1,0.1-0.2,0.1-0.3C172.6,111.1,172.6,110.9,172.6,110.8"/>
		
			<linearGradient id="SVGID_5_" gradientUnits="userSpaceOnUse" x1="240.8897" y1="1121.3475" x2="430.9897" y2="1937.6576" gradientTransform="matrix(1 0 0 1 0 -679.9897)">
			<stop  offset="0" style="stop-color:#4C58CB"/>
			<stop  offset="1" style="stop-color:#68319E"/>
		</linearGradient>
		<path class="st5" d="M166.4,108.2l-1.2-3.9l-6-0.8l1.1,3.9L166.4,108.2L166.4,108.2z"/>
		
			<linearGradient id="SVGID_6_" gradientUnits="userSpaceOnUse" x1="1433.5785" y1="5550.2231" x2="2176.5784" y2="8296.123" gradientTransform="matrix(1 0 0 1 0 -679.9897)">
			<stop  offset="0" style="stop-color:#4C58CB"/>
			<stop  offset="1" style="stop-color:#68319E"/>
		</linearGradient>
		<path class="st6" d="M134.2,60.6h-19.5c-1.1,0-1.9,0.9-1.9,2v16.8c0,1.1,0.8,2,1.9,2c0,0,0,0,0.1,0h19.5c0.5,0,1,0.2,1.4,0.6
			c0.4,0.4,0.6,0.9,0.6,1.4v7.2c0,0.4,0.1,0.8,0.3,1.1c0.2,0.3,0.5,0.6,0.9,0.7c0.4,0.2,0.7,0.2,1.1,0.1c0.4-0.1,0.7-0.3,1-0.5
			l19.5-19.5c0.2-0.2,0.3-0.4,0.4-0.6c0.1-0.2,0.2-0.5,0.1-0.8c0-0.3-0.1-0.5-0.1-0.8c-0.1-0.2-0.2-0.4-0.4-0.6l-19.5-19.5
			c-0.3-0.3-0.6-0.5-1-0.5c-0.4-0.1-0.8,0-1.1,0.1c-0.4,0.1-0.7,0.4-0.9,0.7c-0.2,0.3-0.3,0.7-0.3,1.1v7.2c0,0.5-0.2,1-0.6,1.3
			C135.1,60.5,134.7,60.6,134.2,60.6L134.2,60.6z"/>
		<path class="st2" d="M102.2,111.6c-0.4,0.1-0.8,0.3-1.1,0.6c-0.4,0.3-0.7,0.5-1,0.8c-0.3,0.3-0.6,0.6-0.9,1
			c-0.2,0.3-0.4,0.7-0.6,1.1l-6.3-6.4c0.2-0.4,0.4-0.8,0.6-1.1c0.5-0.7,1.2-1.4,1.9-1.9c0.3-0.2,0.7-0.4,1.1-0.6l0.7,0.8l0.8,0.8
			l0.8,0.8l0.8,0.8C100.1,109.5,101.2,110.6,102.2,111.6z"/>
		<path class="st2" d="M88.3,125.3c-0.1,0.2-0.1,0.4-0.2,0.5c0,0.2,0,0.3,0,0.5c0,0.1,0,0.3,0.1,0.4c0,0.1,0.1,0.2,0.2,0.3l-6.4-6.4
			c-0.1-0.1-0.1-0.2-0.2-0.3c-0.1-0.1-0.1-0.2-0.1-0.4c0-0.2,0-0.3,0-0.5c0-0.2,0.1-0.4,0.2-0.5L88.3,125.3l-6.4-6.3
			c0.2-0.4,0.3-0.8,0.6-1.1c0.3-0.4,0.6-0.7,0.9-1c0.3-0.3,0.6-0.6,1-0.9c0.3-0.2,0.7-0.4,1.1-0.6l6.4,6.4c-0.4,0.1-0.8,0.3-1.1,0.6
			c-0.4,0.3-0.7,0.5-1,0.8c-0.3,0.3-0.6,0.6-0.9,1C88.6,124.6,88.5,125,88.3,125.3L88.3,125.3z"/>
		<path class="st2" d="M103.8,111.8c-0.1-0.1-0.2-0.1-0.3-0.2c-0.1,0-0.2-0.1-0.4-0.1c-0.2,0-0.3,0-0.5,0c-0.2,0-0.4,0.1-0.5,0.1
			l-6.3-6.5c0.2-0.1,0.3-0.1,0.5-0.1c0.1,0,0.3,0,0.4,0c0.1,0,0.2,0,0.4,0.1c0.1,0,0.2,0.1,0.3,0.2L103.8,111.8z"/>
		<path class="st2" d="M90.4,113.7l6.4,6.4l-4.9,1.7l-6.4-6.4L90.4,113.7z"/>
		<path class="st2" d="M92.3,108.7l6.4,6.4l-1.8,5l-6.4-6.4L92.3,108.7z"/>
		<path class="st3" d="M88.4,127l-0.6-0.6l-0.3-0.3l-0.6-0.6l-0.6-0.6l-0.3-0.3l-0.7-0.7l-0.6-0.6l-0.3-0.3l-0.6-0.6l-0.7-0.6
			l-0.3-0.3l-0.7-0.6c0.1,0.1,0.2,0.1,0.3,0.2c0.1,0,0.2,0.1,0.3,0.1c0.1,0,0.3,0,0.4,0c0.2,0,0.3-0.1,0.5-0.1l6.5,6.4
			c-0.2,0.1-0.3,0.1-0.5,0.1c-0.1,0-0.3,0-0.4,0c-0.1,0-0.2,0-0.3-0.1C88.6,127.2,88.5,127.1,88.4,127z"/>
		<path class="st3" d="M97.5,105.3l0.6,0.7l0.3,0.3l0.6,0.7l1.6,1.6l1,1l0.6,0.7l0.6,0.6l0.3,0.3l0.6,0.7c0.1,0.1,0.1,0.2,0.2,0.3
			c0.1,0.1,0.1,0.2,0.1,0.4c0,0.1,0,0.3,0,0.4c0,0.2-0.1,0.3-0.1,0.5l-6.4-6.5c0.1-0.2,0.1-0.3,0.1-0.5c0-0.1,0-0.3,0-0.4
			c0-0.1,0-0.2-0.1-0.4C97.7,105.5,97.6,105.4,97.5,105.3z"/>
		<path class="st3" d="M88.4,119.1l6.5,6.4l-4.9,1.6l-6.5-6.4L88.4,119.1z"/>
		<path class="st3" d="M95.9,105.2c0.3-0.1,0.7-0.2,1-0.2c0.2,0,0.5,0.1,0.6,0.3c0.2,0.2,0.3,0.4,0.3,0.6c0,0.3,0,0.6-0.2,0.9
			l-1.8,5l-5.3,1.9l1.8-5c0.2-0.4,0.3-0.8,0.6-1.1c0.5-0.7,1.2-1.4,1.9-1.9C95.1,105.5,95.5,105.3,95.9,105.2z"/>
		<path class="st3" d="M95.8,111.8l6.4,6.5l-5.3,1.8l-6.4-6.4L95.8,111.8z"/>
		<path class="st3" d="M97.6,106.9l6.4,6.5l-1.8,5l-6.4-6.5L97.6,106.9z"/>
		<path class="st2" d="M88.4,119.1l6.5,6.4l-1.8,5.1l-6.5-6.4L88.4,119.1z"/>
		<path class="st2" d="M100.8,110.1l6.4,6.6l-5.1,1.7l-6.4-6.5L100.8,110.1z"/>
		<path class="st3" d="M93.8,117.2l6.5,6.5l-5.4,1.8l-6.5-6.4L93.8,117.2z"/>
		<path class="st2" d="M93.2,132.3l-6.5-6.4c-0.1-0.1-0.1-0.2-0.2-0.3c0-0.1-0.1-0.3-0.1-0.4c0-0.2,0-0.3,0-0.5
			c0-0.2,0.1-0.4,0.2-0.6l6.5,6.4c-0.1,0.2-0.1,0.4-0.2,0.6c0,0.2,0,0.3,0,0.5c0,0.1,0,0.3,0.1,0.4C93,132.1,93.1,132.2,93.2,132.3z
			"/>
		<path class="st2" d="M102.5,110.2l6.4,6.6c-0.1-0.1-0.2-0.1-0.3-0.2c-0.1-0.1-0.2-0.1-0.4-0.1c-0.2,0-0.3,0-0.5,0
			c-0.2,0-0.4,0.1-0.5,0.1l-6.4-6.5c0.2-0.1,0.3-0.1,0.5-0.1c0.2,0,0.3,0,0.5,0c0.1,0,0.3,0,0.4,0.1
			C102.3,110.1,102.4,110.1,102.5,110.2z"/>
		<path class="st3" d="M93.8,117.2l6.5,6.5l-1.8,5.1l-6.5-6.5L93.8,117.2z"/>
		<path class="st3" d="M98.9,115.5l6.5,6.6l-5.1,1.7l-6.5-6.5L98.9,115.5z"/>
		<path class="st3" d="M93.2,132.3l-6.5-6.4c0.1,0.1,0.2,0.1,0.3,0.2c0.1,0.1,0.2,0.1,0.3,0.1c0.1,0,0.3,0,0.4,0
			c0.2,0,0.3-0.1,0.5-0.1c0.4-0.1,0.8-0.3,1.1-0.6c0.8-0.5,1.5-1.2,2-2c0.2-0.4,0.4-0.7,0.6-1.1l6.5,6.5c-0.1,0.4-0.3,0.8-0.6,1.1
			c-0.3,0.4-0.6,0.8-0.9,1.1c-0.3,0.3-0.7,0.6-1.1,0.9c-0.4,0.2-0.7,0.4-1.1,0.6c-0.2,0.1-0.3,0.1-0.5,0.1c-0.1,0-0.3,0-0.4,0
			c-0.1,0-0.2,0-0.4-0.1C93.4,132.4,93.3,132.4,93.2,132.3z"/>
		<path class="st3" d="M86.6,124.1l1.9-5.1l5.4-1.8l-1.9,5.1c-0.2,0.4-0.3,0.8-0.6,1.1c-0.3,0.4-0.6,0.7-0.9,1.1
			c-0.3,0.3-0.7,0.6-1.1,0.9c-0.4,0.2-0.7,0.4-1.1,0.6c-0.3,0.1-0.7,0.2-1,0.1c-0.2,0-0.5-0.1-0.6-0.3c-0.2-0.2-0.2-0.4-0.2-0.7
			C86.3,124.8,86.4,124.4,86.6,124.1z"/>
		<path class="st3" d="M102.5,110.2l6.4,6.6c0.1,0.1,0.1,0.2,0.2,0.3c0.1,0.3,0.1,0.5,0.1,0.8c0,0.2-0.1,0.4-0.1,0.5
			c-0.2,0.4-0.4,0.8-0.6,1.1c-0.3,0.4-0.6,0.7-0.9,1c-0.3,0.3-0.7,0.6-1.1,0.9c-0.3,0.2-0.7,0.4-1.1,0.6l-6.5-6.5
			c0.4-0.1,0.8-0.3,1.1-0.6c0.8-0.5,1.5-1.2,2-2c0.2-0.4,0.4-0.7,0.6-1.1c0.1-0.2,0.1-0.3,0.1-0.5c0-0.1,0-0.3,0-0.4
			c0-0.1,0-0.3-0.1-0.4C102.6,110.3,102.6,110.3,102.5,110.2z"/>
		<path class="st3" d="M100.8,110.1c0.3-0.1,0.7-0.2,1-0.2c0.3,0,0.5,0.1,0.7,0.3c0.2,0.2,0.3,0.4,0.3,0.7c0,0.3,0,0.7-0.2,1
			c-0.2,0.4-0.3,0.8-0.6,1.1c-0.5,0.8-1.2,1.5-2,2c-0.4,0.2-0.7,0.4-1.1,0.6l-5,1.7l-5.4,1.8l-4.9,1.7c-0.3,0.1-0.7,0.2-1,0.2
			c-0.2,0-0.4-0.1-0.6-0.3c-0.2-0.2-0.2-0.4-0.2-0.7c0-0.3,0.1-0.7,0.2-1c0.2-0.4,0.4-0.8,0.6-1.1c0.3-0.4,0.6-0.7,0.9-1
			c0.3-0.3,0.6-0.6,1-0.9c0.3-0.2,0.7-0.4,1.1-0.6l4.9-1.7l5.3-1.9L100.8,110.1z"/>
		
			<linearGradient id="SVGID_7_" gradientUnits="userSpaceOnUse" x1="1019.9804" y1="3368.5559" x2="3277.7808" y2="9630.8555" gradientTransform="matrix(1 0 0 1 0 -679.9897)">
			<stop  offset="0" style="stop-color:#4C58CB"/>
			<stop  offset="1" style="stop-color:#68319E"/>
		</linearGradient>
		<path class="st7" d="M98.6,97.8c2-0.8,4.2-1.2,6.4-1.2c1.6,0,3.2,0.6,4.4,1.7c1.2,1.1,1.9,2.6,2,4.2c0.1,2.2-0.2,4.4-1,6.5
			c-1,2.7-2.3,5.3-4,7.7c-3.6,5.2-8.2,9.7-13.4,13.2c-2.4,1.6-5,2.9-7.7,3.8c-2.1,0.7-4.3,1-6.5,0.8c-1.6-0.1-3.1-0.9-4.1-2.1
			c-1-1.3-1.5-2.9-1.5-4.5c0-2.2,0.5-4.4,1.3-6.5c1-2.6,2.4-5,4-7.3c3.4-4.9,7.7-9.1,12.7-12.5C93.5,100.1,96,98.8,98.6,97.8z
			 M98.9,115.5c0.4-0.1,0.8-0.3,1.1-0.6c0.8-0.5,1.5-1.2,2-2c0.2-0.3,0.4-0.7,0.6-1.1c0.1-0.3,0.2-0.7,0.2-1c0-0.5-0.4-0.9-0.9-0.9
			c0,0,0,0-0.1,0c-0.3,0-0.7,0-1,0.2l-5,1.8l1.8-5c0.1-0.3,0.2-0.7,0.2-1c0-0.2-0.1-0.5-0.3-0.6c-0.2-0.2-0.4-0.3-0.7-0.3
			c-0.3,0-0.7,0-1,0.2c-0.4,0.1-0.8,0.3-1.1,0.6c-0.7,0.5-1.4,1.2-1.9,1.9c-0.2,0.3-0.4,0.7-0.6,1.1l-1.8,4.9l-4.9,1.7
			c-0.4,0.1-0.8,0.3-1.1,0.6c-0.4,0.3-0.7,0.5-1,0.9c-0.3,0.3-0.6,0.6-0.9,1c-0.2,0.3-0.4,0.7-0.6,1.1c-0.1,0.3-0.2,0.7-0.2,1
			c0,0.2,0.1,0.5,0.2,0.7c0.2,0.2,0.4,0.3,0.6,0.3c0.3,0,0.7,0,1-0.2l4.9-1.7l-1.9,5c-0.1,0.3-0.2,0.7-0.2,1c0,0.2,0.1,0.5,0.2,0.7
			c0.2,0.2,0.4,0.3,0.6,0.3c0.3,0,0.7,0,1-0.1c0.4-0.1,0.8-0.3,1.1-0.6c0.4-0.3,0.7-0.6,1.1-0.9c0.3-0.3,0.6-0.7,0.9-1.1
			c0.2-0.4,0.4-0.7,0.6-1.1l1.9-5.1l5-1.7"/>
		<path class="st3" d="M109.7,98.6l6.3,6.6c0.5,0.5,0.9,1.2,1.2,1.8c0.3,0.8,0.5,1.6,0.6,2.4c0.1,1,0,2-0.1,2.9
			c-0.2,1.2-0.5,2.3-0.8,3.4c-1,2.7-2.3,5.3-3.9,7.7c-3.6,5.2-8.1,9.7-13.4,13.1c-2.4,1.6-4.9,2.8-7.6,3.7c-1.1,0.3-2.2,0.6-3.3,0.7
			c-0.9,0.1-1.9,0.1-2.8,0.1c-0.8-0.1-1.6-0.3-2.3-0.6c-0.7-0.3-1.3-0.7-1.8-1.1l-6.6-6.3c0.5,0.5,1.1,0.9,1.8,1.2
			c0.7,0.3,1.5,0.5,2.3,0.6c0.9,0.1,1.9,0.1,2.8-0.1c1.1-0.2,2.2-0.4,3.3-0.8c2.7-0.9,5.3-2.2,7.7-3.9c5.3-3.5,9.8-8,13.4-13.2
			c1.7-2.4,3-4.9,4-7.7c0.4-1.1,0.7-2.2,0.9-3.4c0.2-1,0.2-1.9,0.1-2.9c-0.1-0.8-0.2-1.6-0.5-2.4C110.6,99.7,110.3,99.1,109.7,98.6
			L109.7,98.6z"/>
		<path class="st2" d="M121.1,36.3c-0.4-1.2-0.9-2.2-1.7-3.2c-0.7-1-1.5-1.8-2.5-2.5c-0.9-0.7-2-1.2-3.1-1.5
			c-1.1-0.3-2.2-0.4-3.3-0.3l3.1-2.8c1.1-0.1,2.2,0,3.3,0.3c1.1,0.3,2.1,0.9,3.1,1.6c1,0.7,1.8,1.5,2.5,2.5c0.7,1,1.3,2.1,1.7,3.2
			L121.1,36.3z"/>
		<path class="st3" d="M119.2,38l-3.1,2.7c0.2-0.2,0.5-0.4,0.6-0.7c0.2-0.3,0.3-0.6,0.4-0.9c0.1-0.3,0.1-0.7,0.1-1
			c0-0.4-0.1-0.8-0.2-1.1c-0.2-0.6-0.4-1.1-0.7-1.6c-0.3-0.5-0.7-1-1.2-1.3c-0.4-0.3-0.9-0.6-1.4-0.7c-0.5-0.1-1-0.2-1.6-0.2
			c-0.2,0-0.3,0-0.5,0.1c-0.2,0-0.3,0.1-0.4,0.2c-0.1,0.1-0.3,0.1-0.4,0.2c-0.1,0.1-0.2,0.2-0.4,0.3l3-2.8c0.1-0.1,0.2-0.2,0.4-0.3
			c0.1-0.1,0.3-0.1,0.4-0.2c0.1-0.1,0.3-0.1,0.4-0.1c0.2,0,0.3-0.1,0.5-0.1c0.5-0.1,1.1,0,1.6,0.2c0.5,0.2,1,0.4,1.4,0.7
			c0.5,0.3,0.9,0.7,1.2,1.2c0.4,0.5,0.6,1,0.8,1.6c0.1,0.4,0.2,0.8,0.2,1.2c0,0.4,0,0.7-0.1,1.1c-0.1,0.3-0.2,0.6-0.4,0.9
			C119.7,37.5,119.5,37.8,119.2,38z"/>
		<path class="st2" d="M110.6,28.7c-0.4,0-0.7,0.1-1.1,0.2c-0.3,0.1-0.7,0.2-1,0.4c-0.3,0.1-0.6,0.3-0.9,0.5
			c-0.3,0.2-0.5,0.4-0.8,0.6l3-2.8c0.2-0.2,0.5-0.4,0.8-0.6c0.3-0.2,0.6-0.3,0.9-0.5c0.3-0.1,0.7-0.3,1-0.3c0.4-0.1,0.7-0.2,1.1-0.2
			l-1.5,1.4l-0.6,0.5l-0.2,0.2l-0.2,0.2l-0.2,0.2C110.8,28.5,110.7,28.7,110.6,28.7z"/>
		<path class="st2" d="M119.1,44.4c0.5-0.4,1-1,1.3-1.5c0.4-0.6,0.6-1.3,0.8-1.9c0.2-0.7,0.3-1.5,0.2-2.2c0-0.8-0.2-1.6-0.4-2.4
			l3.2-2.7c0.3,0.8,0.4,1.6,0.5,2.4c0,0.8,0,1.5-0.2,2.3c-0.2,0.7-0.4,1.4-0.8,2c-0.4,0.6-0.8,1.1-1.3,1.5L119.1,44.4z"/>
		<path class="st2" d="M116.1,40.6c-0.1,0.1-0.2,0.2-0.3,0.2c-0.1,0.1-0.2,0.1-0.4,0.2c-0.1,0.1-0.3,0.1-0.4,0.1l-0.4,0.1l0.4-0.3
			l0.4-0.3l0.4-0.3L116,40l0.4-0.3l0.4-0.3l0.4-0.3l0.4-0.3c0.2,0,0.3,0,0.5-0.1l0.4-0.2c0.1-0.1,0.3-0.1,0.4-0.2
			c0.1-0.1,0.2-0.2,0.3-0.2L116.1,40.6z"/>
		<path class="st2" d="M114.5,41.3h-0.9l3.1-2.7h0.9L114.5,41.3z"/>
		<path class="st2" d="M109.4,37.7c-0.1-0.4-0.2-0.7-0.2-1.1c0-0.3,0-0.7,0.1-1c0.1-0.3,0.2-0.6,0.3-0.9c0.2-0.3,0.4-0.5,0.6-0.7
			l3.1-2.8c-0.5,0.4-0.8,1-0.9,1.6c-0.1,0.3-0.1,0.7-0.1,1c0,0.4,0.1,0.8,0.2,1.1L109.4,37.7z"/>
		<path class="st2" d="M113.6,41.3c-0.5-0.1-0.9-0.2-1.3-0.4c-0.4-0.2-0.8-0.5-1.2-0.8c-0.4-0.3-0.7-0.7-1-1.1
			c-0.3-0.4-0.5-0.9-0.7-1.4l0.4-0.3l0.4-0.3l0.4-0.3l0.4-0.3l0.4-0.4l0.4-0.3l0.4-0.3l0.4-0.3c0.1,0.5,0.4,0.9,0.7,1.4
			c0.3,0.4,0.6,0.8,1,1.1c0.4,0.3,0.8,0.6,1.2,0.8c0.4,0.2,0.9,0.3,1.3,0.4L113.6,41.3z"/>
		<path class="st3" d="M122.3,41.8c-1,0.9-2.1,1.8-3.2,2.6c-0.2,0.2-0.5,0.4-0.7,0.5c-0.2,0.2-0.5,0.3-0.8,0.4
			c-0.3,0.1-0.6,0.2-0.9,0.3c-0.3,0.1-0.6,0.1-0.9,0.2c-1.1,0.1-2.2,0-3.3-0.3c-1.1-0.3-2.2-0.9-3.1-1.5c-1-0.7-1.9-1.6-2.6-2.5
			c-0.7-1-1.3-2.1-1.7-3.3c-0.2-0.8-0.4-1.5-0.4-2.3c0-0.7,0-1.5,0.2-2.2c0.1-0.7,0.4-1.3,0.7-1.9c0.3-0.6,0.7-1.1,1.2-1.5l3-2.8
			c-0.5,0.4-0.9,1-1.2,1.5c-0.3,0.6-0.6,1.3-0.7,1.9c-0.2,0.7-0.2,1.4-0.2,2.2c0,0.8,0.2,1.6,0.4,2.3c0.4,1.2,0.9,2.3,1.7,3.3
			c0.7,1,1.6,1.9,2.6,2.6c1,0.7,2,1.2,3.2,1.6c1.1,0.3,2.2,0.4,3.3,0.3c0.3-0.1,0.7-0.1,1-0.2c0.3-0.1,0.6-0.2,0.9-0.3
			c0.3-0.1,0.5-0.2,0.8-0.4C121.9,42.2,122.1,42,122.3,41.8z"/>
		<path class="st3" d="M126.4,47.3l-3.2,2.5c-0.4,0.3-0.8,0.6-1.2,0.8c-0.4,0.2-0.8,0.5-1.3,0.7c-0.5,0.2-0.9,0.4-1.4,0.5
			c-0.5,0.1-1,0.2-1.5,0.3c-1.9,0.3-3.9,0.1-5.7-0.4c-1.9-0.6-3.8-1.4-5.4-2.6c-1.7-1.2-3.2-2.7-4.5-4.4c-1.3-1.7-2.3-3.7-2.9-5.7
			c-0.4-1.3-0.6-2.6-0.7-3.9c-0.1-1.2,0-2.4,0.3-3.6c0.3-1.1,0.7-2.2,1.2-3.2c0.5-1,1.2-1.8,2-2.6l0.3-0.3l0.3-0.3l0.6-0.6l0.3-0.3
			l0.3-0.3l0.2-0.1l0.3-0.3l0.3-0.3l0.2-0.1l0.3-0.3c-0.8,0.8-1.5,1.6-2,2.6c-0.5,1-0.9,2.1-1.2,3.2c-0.3,1.2-0.4,2.4-0.3,3.7
			c0.1,1.4,0.3,2.7,0.7,4c0.6,2.1,1.6,4,2.9,5.8c1.3,1.7,2.8,3.2,4.5,4.5c1.7,1.2,3.5,2.1,5.5,2.7c1.9,0.6,3.8,0.7,5.8,0.5
			c1-0.1,2-0.4,3-0.8c0.4-0.2,0.9-0.4,1.3-0.7C125.7,47.9,126.1,47.6,126.4,47.3L126.4,47.3z"/>
		
			<linearGradient id="SVGID_8_" gradientUnits="userSpaceOnUse" x1="864.8517" y1="2722.2129" x2="2687.5515" y2="7609.2935" gradientTransform="matrix(1 0 0 1 0 -679.9897)">
			<stop  offset="0" style="stop-color:#4C58CB"/>
			<stop  offset="1" style="stop-color:#68319E"/>
		</linearGradient>
		<path class="st8" d="M111.7,19.8c1.9-0.2,3.8,0,5.7,0.6c1.9,0.6,3.7,1.5,5.2,2.7c1.7,1.2,3.1,2.7,4.3,4.3c1.3,1.7,2.2,3.5,2.9,5.5
			c0.6,1.9,0.9,3.9,0.8,5.8c-0.1,1.8-0.6,3.5-1.4,5c-0.8,1.5-1.9,2.8-3.3,3.8c-1.5,1-3.2,1.7-5,1.9c-1.9,0.3-3.9,0.1-5.8-0.5
			c-2-0.6-3.8-1.5-5.5-2.7c-1.7-1.2-3.3-2.7-4.5-4.4c-1.3-1.7-2.3-3.7-2.9-5.8c-0.6-1.9-0.8-4-0.7-6c0.2-1.8,0.7-3.5,1.6-5
			c0.9-1.5,2-2.7,3.5-3.6C108.2,20.6,110,20,111.7,19.8L111.7,19.8z M119,43.2c1-0.1,2-0.5,2.9-1.1c0.8-0.6,1.5-1.3,1.9-2.2
			c0.5-0.9,0.8-1.9,0.8-3c0.1-1.2-0.1-2.3-0.4-3.4c-0.4-1.2-0.9-2.3-1.7-3.3c-0.7-1-1.6-1.8-2.5-2.5c-0.9-0.7-2-1.2-3.1-1.5
			c-1.1-0.3-2.2-0.5-3.3-0.3c-1,0.1-2,0.4-2.9,1c-0.8,0.5-1.5,1.3-2,2.1c-0.5,0.9-0.8,1.9-0.9,2.9c-0.1,1.2,0,2.3,0.4,3.5
			c0.8,2.4,2.3,4.4,4.3,5.9c1,0.7,2,1.2,3.2,1.6C116.8,43.2,117.9,43.3,119,43.2"/>
		
			<linearGradient id="SVGID_9_" gradientUnits="userSpaceOnUse" x1="322.4434" y1="1267.1759" x2="824.3434" y2="2612.666" gradientTransform="matrix(1 0 0 1 0 -679.9897)">
			<stop  offset="0" style="stop-color:#4C58CB"/>
			<stop  offset="1" style="stop-color:#68319E"/>
		</linearGradient>
		<path class="st9" d="M115,30.4c0.5-0.1,1.1,0,1.6,0.2c0.5,0.2,1,0.4,1.4,0.7c0.5,0.3,0.9,0.7,1.2,1.2c0.4,0.5,0.6,1,0.8,1.6
			c0.2,0.5,0.2,1.1,0.2,1.6c0,0.5-0.2,1-0.4,1.4c-0.2,0.4-0.5,0.7-0.9,1c-0.4,0.3-0.9,0.5-1.4,0.5c-0.5,0.1-1.1,0-1.6-0.1
			c-0.5-0.2-1-0.4-1.5-0.7c-0.5-0.3-0.9-0.7-1.2-1.2c-0.4-0.5-0.6-1-0.8-1.6c-0.2-0.5-0.2-1.1-0.2-1.6c0-0.5,0.2-1,0.4-1.4
			c0.2-0.4,0.6-0.8,1-1C114.1,30.6,114.6,30.5,115,30.4L115,30.4z"/>
		<path class="st3" d="M113.6,25.9c1.1-0.1,2.2,0,3.3,0.3c1.1,0.3,2.1,0.9,3.1,1.5c1,0.7,1.8,1.5,2.5,2.5c0.7,1,1.3,2.1,1.7,3.2
			c0.4,1.1,0.5,2.2,0.4,3.4c-0.1,1-0.3,2-0.8,2.9c-0.5,0.9-1.1,1.6-1.9,2.2c-0.9,0.6-1.9,1-2.9,1.1c-1.1,0.1-2.3,0-3.3-0.3
			c-1.1-0.3-2.2-0.9-3.2-1.6c-1-0.7-1.9-1.6-2.6-2.6c-0.7-1-1.3-2.1-1.7-3.3c-0.3-1.1-0.5-2.3-0.4-3.5c0.1-1,0.4-2,0.9-2.9
			c0.5-0.9,1.2-1.6,2-2.1C111.6,26.4,112.6,26,113.6,25.9z M117.6,38.6c0.5-0.1,1-0.2,1.4-0.5c0.4-0.3,0.7-0.6,0.9-1
			c0.2-0.4,0.4-0.9,0.4-1.4c0-0.6,0-1.1-0.2-1.6c-0.2-0.6-0.4-1.1-0.8-1.6c-0.3-0.5-0.8-0.9-1.2-1.2c-0.4-0.3-0.9-0.6-1.4-0.7
			c-0.5-0.2-1-0.2-1.6-0.1c-0.5,0-1,0.2-1.4,0.5c-0.4,0.3-0.7,0.6-0.9,1c-0.2,0.4-0.4,0.9-0.4,1.4c0,0.6,0,1.1,0.2,1.6
			c0.2,0.6,0.5,1.1,0.8,1.6c0.3,0.5,0.8,0.9,1.2,1.2c0.5,0.3,1,0.6,1.5,0.7C116.6,38.7,117.1,38.7,117.6,38.6"/>
		
			<linearGradient id="SVGID_10_" gradientUnits="userSpaceOnUse" x1="23.43" y1="737.6498" x2="23.43" y2="805.3498" gradientTransform="matrix(1 0 0 1 0 -679.9897)">
			<stop  offset="0" style="stop-color:#EBEAF7"/>
			<stop  offset="1" style="stop-color:#D9CDFE"/>
		</linearGradient>
		<path class="st10" d="M27.4,105.2l1.8-14.8l-11.4,0.3L27.4,105.2z"/>
		
			<linearGradient id="SVGID_11_" gradientUnits="userSpaceOnUse" x1="69.715" y1="1954.4998" x2="69.715" y2="3345.0996" gradientTransform="matrix(1 0 0 1 0 -679.9897)">
			<stop  offset="0" style="stop-color:#EBEAF7"/>
			<stop  offset="1" style="stop-color:#D9CDFE"/>
		</linearGradient>
		<path class="st11" d="M64,90.4l1.8,14.8l9.7-14.5L64,90.4z"/>
		
			<linearGradient id="SVGID_12_" gradientUnits="userSpaceOnUse" x1="62.415" y1="1670.0997" x2="62.415" y2="2745.8999" gradientTransform="matrix(1 0 0 1 0 -679.9897)">
			<stop  offset="0" style="stop-color:#EBEAF7"/>
			<stop  offset="1" style="stop-color:#D9CDFE"/>
		</linearGradient>
		<path class="st12" d="M72.7,74.1L52.2,75l1.9,10.6l3-6.4l7.3,3.3L72.7,74.1L72.7,74.1z"/>
		
			<linearGradient id="SVGID_13_" gradientUnits="userSpaceOnUse" x1="30.715" y1="1670.0997" x2="30.715" y2="2745.8999" gradientTransform="matrix(1 0 0 1 0 -679.9897)">
			<stop  offset="0" style="stop-color:#EBEAF7"/>
			<stop  offset="1" style="stop-color:#D9CDFE"/>
		</linearGradient>
		<path class="st13" d="M28.8,82.5l7.3-3.3l3,6.4L41,75l-20.6-0.9L28.8,82.5L28.8,82.5z"/>
		<g class="st14">
			
				<linearGradient id="SVGID_14_" gradientUnits="userSpaceOnUse" x1="1315.4795" y1="2803.8901" x2="887.1295" y2="2129.79" gradientTransform="matrix(1 0 0 1 0 -679.9897)">
				<stop  offset="0" style="stop-color:#4C58CB"/>
				<stop  offset="1" style="stop-color:#68319E"/>
			</linearGradient>
			<path class="st15" d="M27.4,105.2l1.8-14.8l-11.4,0.3L27.4,105.2z"/>
			
				<linearGradient id="SVGID_15_" gradientUnits="userSpaceOnUse" x1="1359.2438" y1="2805.4709" x2="930.8538" y2="2131.4709" gradientTransform="matrix(1 0 0 1 0 -679.9897)">
				<stop  offset="0" style="stop-color:#4C58CB"/>
				<stop  offset="1" style="stop-color:#68319E"/>
			</linearGradient>
			<path class="st16" d="M64,90.4l1.8,14.8l9.7-14.5L64,90.4z"/>
			
				<linearGradient id="SVGID_16_" gradientUnits="userSpaceOnUse" x1="624.0895" y1="2808.3899" x2="437.6896" y2="2127.3899" gradientTransform="matrix(1 0 0 1 0 -679.9897)">
				<stop  offset="0" style="stop-color:#4C58CB"/>
				<stop  offset="1" style="stop-color:#68319E"/>
			</linearGradient>
			<path class="st17" d="M72.7,74.1L52.2,75l1.9,10.6l3-6.4l7.3,3.3L72.7,74.1L72.7,74.1z"/>
			
				<linearGradient id="SVGID_17_" gradientUnits="userSpaceOnUse" x1="592.2631" y1="2808.9243" x2="406.063" y2="2127.7244" gradientTransform="matrix(1 0 0 1 0 -679.9897)">
				<stop  offset="0" style="stop-color:#4C58CB"/>
				<stop  offset="1" style="stop-color:#68319E"/>
			</linearGradient>
			<path class="st18" d="M28.8,82.5l7.3-3.3l3,6.4L41,75l-20.6-0.9L28.8,82.5L28.8,82.5z"/>
		</g>
		<path class="st19" d="M40.3,54.9l0.3,0.2l-0.3-0.8v-1.4l-0.4,0.3l-5.7-14.3L4.6,27.9l34.5,26.1L26.2,65.4l-5.8,8.7L41,75
			L40.3,54.9L40.3,54.9z"/>
		<path class="st19" d="M75.4,90.4l-9.7,14.8l20.7,5.7l6-20.2L75.4,90.4L75.4,90.4z"/>
		<path class="st19" d="M53.8,53.7l34.7-25.8L58.9,38.9l-5.9,14l-0.3-0.3v1.1l-0.5,1.1l0.4-0.3L52.2,75l20.5-0.9l-5.8-8.7L53.8,53.7
			z"/>
		<path class="st19" d="M53.4,99.2l12.4,6l-11.5,5.4l0.1-3.4l-0.9-0.8H39.7l-0.8,0.8l0.1,3.4l-11.5-5.4l12.3-6l-10.7-8.3l-1.7,14.3
			l-9.7-14.8L0.8,90.7l5.9,20.2l20.7-5.7l4,3.3l8.2,5.7h14l8.2-5.7l4-3.3L64,90.9L53.4,99.2z"/>
		<path class="st19" d="M20.5,74.1l8.6,16.8l-0.3-8.4C28.8,82.5,20.4,74.1,20.5,74.1z"/>
		<path class="st19" d="M64.4,82.5L64,90.9l8.7-16.8L64.4,82.5L64.4,82.5z"/>
		<path class="st19" d="M41.5,98L42,81.6L41,75l-1.9,10.6L41.5,98z"/>
		<path class="st19" d="M51.6,98L54,85.6L52.2,75l-1,6.6L51.6,98z"/>
		<g class="st14">
			
				<linearGradient id="SVGID_18_" gradientUnits="userSpaceOnUse" x1="3402.4019" y1="7907.3086" x2="1301.2119" y2="3443.0088" gradientTransform="matrix(1 0 0 1 0 -679.9897)">
				<stop  offset="0" style="stop-color:#4C58CB"/>
				<stop  offset="1" style="stop-color:#68319E"/>
			</linearGradient>
			<path class="st20" d="M40.3,54.9l0.3,0.2l-0.3-0.8v-1.4l-0.4,0.3l-5.7-14.3L4.6,27.9l34.5,26.1L26.2,65.4l-5.8,8.7L41,75
				L40.3,54.9L40.3,54.9z"/>
			
				<linearGradient id="SVGID_19_" gradientUnits="userSpaceOnUse" x1="1069.5315" y1="4319.0137" x2="453.8316" y2="2117.7539" gradientTransform="matrix(1 0 0 1 0 -679.9897)">
				<stop  offset="0" style="stop-color:#4C58CB"/>
				<stop  offset="1" style="stop-color:#68319E"/>
			</linearGradient>
			<path class="st21" d="M75.4,90.4l-9.7,14.8l20.7,5.7l6-20.2L75.4,90.4L75.4,90.4z"/>
			
				<linearGradient id="SVGID_20_" gradientUnits="userSpaceOnUse" x1="3452.3113" y1="7902.5894" x2="1348.4115" y2="3441.4893" gradientTransform="matrix(1 0 0 1 0 -679.9897)">
				<stop  offset="0" style="stop-color:#4C58CB"/>
				<stop  offset="1" style="stop-color:#68319E"/>
			</linearGradient>
			<path class="st22" d="M53.8,53.7l34.7-25.8L58.9,38.9l-5.9,14l-0.3-0.3v1.1l-0.5,1.1l0.4-0.3L52.2,75l20.5-0.9l-5.8-8.7
				L53.8,53.7z"/>
			
				<linearGradient id="SVGID_21_" gradientUnits="userSpaceOnUse" x1="611.4914" y1="5124.9912" x2="252.1913" y2="2423.491" gradientTransform="matrix(1 0 0 1 0 -679.9897)">
				<stop  offset="0" style="stop-color:#4C58CB"/>
				<stop  offset="1" style="stop-color:#68319E"/>
			</linearGradient>
			<path class="st23" d="M53.4,99.2l12.4,6l-11.5,5.4l0.1-3.4l-0.9-0.8H39.7l-0.8,0.8l0.1,3.4l-11.5-5.4l12.3-6l-10.7-8.3l-1.7,14.3
				l-9.7-14.8L0.8,90.7l5.9,20.2l20.7-5.7l4,3.3l8.2,5.7h14l8.2-5.7l4-3.3L64,90.9L53.4,99.2z"/>
			
				<linearGradient id="SVGID_22_" gradientUnits="userSpaceOnUse" x1="1498.5792" y1="2841.4702" x2="582.2592" y2="1547.8704" gradientTransform="matrix(1 0 0 1 0 -679.9897)">
				<stop  offset="0" style="stop-color:#4C58CB"/>
				<stop  offset="1" style="stop-color:#68319E"/>
			</linearGradient>
			<path class="st24" d="M20.5,74.1l8.6,16.8l-0.3-8.4C28.8,82.5,20.4,74.1,20.5,74.1z"/>
			
				<linearGradient id="SVGID_23_" gradientUnits="userSpaceOnUse" x1="1538.8608" y1="2849.0332" x2="624.0709" y2="1551.0332" gradientTransform="matrix(1 0 0 1 0 -679.9897)">
				<stop  offset="0" style="stop-color:#4C58CB"/>
				<stop  offset="1" style="stop-color:#68319E"/>
			</linearGradient>
			<path class="st25" d="M64.4,82.5L64,90.9l8.7-16.8L64.4,82.5L64.4,82.5z"/>
			
				<linearGradient id="SVGID_24_" gradientUnits="userSpaceOnUse" x1="1383.6337" y1="1240.5695" x2="548.3036" y2="945.5695" gradientTransform="matrix(1 0 0 1 0 -679.9897)">
				<stop  offset="0" style="stop-color:#4C58CB"/>
				<stop  offset="1" style="stop-color:#68319E"/>
			</linearGradient>
			<path class="st26" d="M41.5,98L42,81.6L41,75l-1.9,10.6L41.5,98z"/>
			
				<linearGradient id="SVGID_25_" gradientUnits="userSpaceOnUse" x1="1371.9425" y1="1222.2222" x2="551.0327" y2="938.8223" gradientTransform="matrix(1 0 0 1 0 -679.9897)">
				<stop  offset="0" style="stop-color:#4C58CB"/>
				<stop  offset="1" style="stop-color:#68319E"/>
			</linearGradient>
			<path class="st27" d="M51.6,98L54,85.6L52.2,75l-1,6.6L51.6,98z"/>
		</g>
		
			<linearGradient id="SVGID_26_" gradientUnits="userSpaceOnUse" x1="90.9292" y1="991.3699" x2="295.7692" y2="1808.37" gradientTransform="matrix(1 0 0 1 0 -679.9897)">
			<stop  offset="0" style="stop-color:#4C58CB"/>
			<stop  offset="1" style="stop-color:#68319E"/>
		</linearGradient>
		<path class="st28" d="M36,79.2l-7.3,3.3l10.3,3L36,79.2L36,79.2z"/>
		
			<linearGradient id="SVGID_27_" gradientUnits="userSpaceOnUse" x1="115.9726" y1="991.4541" x2="320.1725" y2="1808.8441" gradientTransform="matrix(1 0 0 1 0 -679.9897)">
			<stop  offset="0" style="stop-color:#4C58CB"/>
			<stop  offset="1" style="stop-color:#68319E"/>
		</linearGradient>
		<path class="st29" d="M54,85.6l10.3-3L57,79.2L54,85.6L54,85.6z"/>
		
			<linearGradient id="SVGID_28_" gradientUnits="userSpaceOnUse" x1="127.2614" y1="1117.8894" x2="417.4414" y2="2314.1394" gradientTransform="matrix(1 0 0 1 0 -679.9897)">
			<stop  offset="0" style="stop-color:#4C58CB"/>
			<stop  offset="1" style="stop-color:#68319E"/>
		</linearGradient>
		<path class="st30" d="M51.6,98H41.5l-1.8,1.2l-0.9,8.1l0.8-0.8h13.8l0.9,0.8l-1-8.1L51.6,98L51.6,98z"/>
		
			<linearGradient id="SVGID_29_" gradientUnits="userSpaceOnUse" x1="682.1804" y1="2110.0996" x2="2851.2808" y2="7039.8296" gradientTransform="matrix(1 0 0 1 0 -679.9897)">
			<stop  offset="0" style="stop-color:#4C58CB"/>
			<stop  offset="1" style="stop-color:#68319E"/>
		</linearGradient>
		<path class="st31" d="M90,56.6l3.1-14.9l-4.6-13.8L53.4,53.9l13.5,11.4L86,71l4.2-5l-1.8-1.3l2.9-2.7L89,60.3l3-2.2L90,56.6z"/>
		
			<linearGradient id="SVGID_30_" gradientUnits="userSpaceOnUse" x1="625.15" y1="2111.1499" x2="2795.5698" y2="7039.8496" gradientTransform="matrix(1 0 0 1 0 -679.9897)">
			<stop  offset="0" style="stop-color:#4C58CB"/>
			<stop  offset="1" style="stop-color:#68319E"/>
		</linearGradient>
		<path class="st32" d="M4.6,27.9L0,41.7l3.1,14.9l-2,1.5L4,60.3L1.8,62l2.9,2.7L2.9,66l4.2,5l19.1-5.6l13.5-11.5L4.6,27.9z"/>
		<path class="st3" d="M54.3,107.3l-1-8.1l12.4,6l-11.5,5.4L54.3,107.3L54.3,107.3z M38.9,110.7l-0.1-3.4l0.9-8.1l-12.3,6
			L38.9,110.7L38.9,110.7z M64.4,82.5l-10.3,3L51.6,98l1.8,1.2L64,90.9L64.4,82.5L64.4,82.5z M28.8,82.5l0.3,8.4l10.7,8.3l1.8-1.2
			l-2.4-12.4L28.8,82.5L28.8,82.5z M92.4,90.8L86,71l-19.1-5.6l5.8,8.7L64,90.9l11.4-0.1H92.4z M26.2,65.4L7.1,71L0.8,90.8h17
			l11.4,0.1l-8.6-16.8L26.2,65.4L26.2,65.4z M52.2,75l1.2-21.1l5.5-15H34.3l5.5,15L41,75l0.5,6.7V98h10.1l0.1-16.4L52.2,75z"/>
	</g>
</g>
<path class="st33" d="M197.7,40.9L197.7,40.9L197.7,40.9z"/>
<path class="st3" d="M209,50.2c-0.5-0.1-1.1-0.2-1.6-0.1c-1.4,0.1-2.6,0.7-3.6,1.7c-0.4,0.5-0.6,1-0.5,1.6c0,0.3,0.2,0.7,0.4,0.9
	c0.3,0.2,0.6,0.3,0.9,0.2c0.3,0,0.5-0.1,0.8-0.3c1.1-0.5,3.8-1.9,4.2-3c0.1-0.2,0.1-0.4,0-0.6C209.5,50.4,209.2,50.2,209,50.2z"/>
<g>
	<linearGradient id="SVGID_31_" gradientUnits="userSpaceOnUse" x1="165.9588" y1="46.244" x2="227.9697" y2="88.0738">
		<stop  offset="0" style="stop-color:#4C58CB"/>
		<stop  offset="1" style="stop-color:#68319E"/>
	</linearGradient>
	<circle class="st34" cx="195.4" cy="66.1" r="31.9"/>
	<g>
		<path class="st35" d="M191.8,38.2c-0.8,0.8-1.2,1.4-1.9,2.8c-1.3,2.6-1.7,5-1.4,7.5c0.2,1.4,0.6,2.9,1,3.1
			c0.1,0.1,0.2,0.2,0.2,0.3c0,0.1,0.1,0.3,0.2,0.4c0.2,0.3,0.2,0.3-0.1,0.2c-0.8-0.2-1.9-1.1-2.6-2.1c-0.6-0.8-1.1-2.3-1.4-3.8
			c-0.1-0.3-0.2-0.5-0.3-0.5c-0.3,0-2.5,1.1-2.6,1.3c0,0.1-0.1,0.1-0.2,0.1c-0.1,0-0.3,0.1-0.5,0.3c-0.2,0.2-0.9,0.7-1.5,1.1
			c-1.1,0.8-3.2,2.9-3.9,3.8c-0.2,0.3-0.4,0.5-0.5,0.6c-0.1,0.1-0.5,0.7-1.2,1.8c-0.4,0.6-1,1.7-1,1.8c0,0,0.5-0.3,1-0.8
			c2.1-1.7,3.6-2.6,5.6-3.2c1.8-0.5,1.9-0.5,0.5,0.4c-1.2,0.8-3.6,3.1-4.5,4.3c-2.2,3-3.5,5.7-4,8.2c-0.3,1.8-0.3,5.2,0,5.2
			c0.1,0,0.1-0.1,0.1-0.3c0-1,1.6-4.6,2.7-6c1.3-1.7,3.7-3.8,4.2-3.8c0.1,0,0,0.1-0.1,0.2c-0.2,0.3-1.1,1.7-1.7,2.8
			c-1.2,2.3-2.1,5.6-2.1,8c0,2.1,0.7,4.9,1.8,6.6c0.3,0.4,0.5,0.8,0.5,0.9c0,0.2,1.8,2.1,2.5,2.7c0.6,0.5,1.6,1.1,2.5,1.6
			c0.8,0.4,2.1,0.8,2.2,0.7c0,0-0.4-0.5-0.9-1.1c-1.8-1.9-3.2-4.2-3.9-6.3c-0.5-1.5-0.2-5.4,0.4-6.3c0.2-0.2,0.2-0.1,0.2,0.5
			c0,1.8,0.8,3.7,2.3,5.6c0.5,0.6,0.9,1.1,0.9,1.2c0,0,0.5,0.5,1,1.1c0.5,0.6,0.9,1.1,1,1.1c0.5,0.5,2.7,3.5,2.7,3.8
			c0,0.1,0.1,0.2,0.1,0.2c0.2,0.1,1.2,2.3,1.6,3.6c0.2,0.7,0.4,1.6,0.4,2.4c0,0.7,0.1,1.3,0.1,1.3c0.3,0,1.5-1.9,1.9-3
			c0.4-1.3,0.5-3.6,0.2-4.9c-0.3-1.3-0.9-2.7-1.7-3.8c-0.3-0.5-0.6-0.9-0.5-0.9c0.5,0,3.3,2.6,3.9,3.6c0.2,0.3,0.4,0.8,0.6,1.1
			c0.7,1.2,1,2.6,1,4.3c0,2.1-0.5,3.8-1.7,5.8c-0.2,0.3-0.4,0.6-0.5,0.7c-0.2,0.4,0.1,0.3,1.1-0.3c2.4-1.3,5.1-4,6.3-6.3
			c0.4-0.8,0.9-2.6,0.9-3.4c0-1.2-0.6-3.6-1.1-4.1c-0.1-0.2-0.2-0.1-0.3,0.5c-0.2,1.5-1,4-1.2,3.4c-0.3-1.9-0.8-3-1.7-4.4
			c-1.1-1.6-2.1-2.4-5.9-4.8c-2.3-1.5-3.2-2.1-5-3.7c-0.8-0.7-1.7-1.7-1.7-1.8c0-0.1-0.1-0.2-0.2-0.3c-0.3-0.4-1.1-1.6-1.4-2.5
			c-0.3-0.7-0.3-1.1-0.3-2.7c0-1.7,0.1-2,0.4-3c0.2-0.6,0.6-1.5,0.9-2c0.5-0.9,1.8-2.3,2.6-3c0.5-0.4,2.2-1.2,2.8-1.4
			c0.4-0.1,0.4-0.1-0.3,0.6c-1.7,1.6-3.2,3.9-3.7,5.7c-0.4,1.4-0.4,4.4,0,4.4c0.1,0,0.1-0.1,0.1-0.1c0-0.3,0.7-1.7,1.3-2.5
			c0.3-0.5,0.9-1.1,1.3-1.4c0.4-0.3,0.7-0.6,0.8-0.6c0.1-0.1,2-1.1,2.4-1.2c0.4-0.1,0.4-0.1-0.5,1.2c-1.2,1.8-2,4.3-1.8,6.3
			c0.1,1,0.7,3.2,0.9,3.4c0,0,0.3,0.4,0.5,0.7c0.5,0.8,1.6,1.8,2.5,2.5c1,0.8,1.3,0.8,0.8,0c-0.8-1.1-1.3-3.9-1-5.4
			c0.2-0.9,0.8-2.3,1-2.3c0.1,0,0.1,0.3,0.1,0.8c0,2.2,0.7,3.6,3,5.8c0.9,0.9,2,2,2.5,2.5c2.7,2.5,3.9,4.6,4.3,7.5
			c0.2,1.6,0.1,3-0.3,4.3c-0.1,0.4-0.2,0.8-0.2,0.8c0.2,0,1.2-1.5,1.8-2.6c0.6-1.2,1.1-3.4,1.1-4.6c0-1.6-0.5-3.3-1.4-4.6
			c-0.7-1.1-1.4-1.7-3-2.9c-1.9-1.5-2.3-2.2-1.7-2.8c0.3-0.2,0.5-0.3,1.8-0.3c1.4,0,1.7,0.1,3.3,0.6c2.8,0.9,3.1,1,4.7,1
			c1.2,0,1.6-0.1,2.1-0.3c0.7-0.3,1.7-1.2,1.7-1.4c0-0.1-0.6-0.2-1.3-0.3c-0.8-0.1-1.9-0.4-2.8-0.7c-2.6-0.9-5.4-1.9-6.2-2
			c-0.4-0.1-0.7-0.2-0.7-0.3c0-0.1,0.3-0.2,0.6-0.3c0.7-0.2,2.2,0,3.4,0.4c0.4,0.1,1.4,0.5,2.3,0.8c3.4,1.2,5.2,1.4,6.6,0.7
			c0.7-0.3,1.5-1,1.5-1.3c0-0.1-0.2-0.4-0.5-0.6c-0.7-0.6-1.1-1.5-1.1-2.3c0-0.3,1.1-0.5,2.1-0.5l1,0.1l-0.4-0.3
			c-0.2-0.2-0.7-0.5-1.1-0.8c-0.4-0.3-1-0.7-1.3-0.9c-1.2-0.8-2.4-1.8-2.5-1.9c-0.1-0.1-0.6-0.4-1.1-0.7c-0.5-0.3-0.9-0.7-1-0.7
			s-0.5-0.4-1.1-0.8c-0.6-0.4-1.1-0.8-1.2-0.8c-0.1-0.1-0.2-0.6-0.3-1.2c-0.2-1.5-0.6-2.2-2-3.5c-1.9-1.8-4.5-3.7-7.4-5.1
			c-0.9-0.5-1.8-0.9-2-1c-0.1-0.1-0.3-0.1-0.5-0.1c-0.1,0-0.5-0.5-0.9-1.4c-0.6-1.3-1.3-2.4-1.5-2.5c-0.1,0-0.1-0.1-0.1-0.2
			c0-0.1-0.5-0.7-1.5-2c-0.7-0.9-2-2.1-2.3-2.1C192.5,37.7,192.1,37.9,191.8,38.2 M192.4,41.3c-0.5,0.6-1.1,1.9-1.3,2.9
			c-0.1,0.5-0.1,1.4-0.1,2.3c0.1,1.3,0.1,1.6,0.5,2.4c0.7,1.4,2.3,2.9,2.1,1.9c-0.3-1-0.4-1.8-0.3-2.9c0.1-1.1,0.1-1.2,0.4-1.2
			c0.4,0,1.9,0.7,2.2,1.1c0.4,0.4,0.4,0.1,0.2-1c-0.2-1-1.1-3.1-1.8-4.2c-0.4-0.6-1.4-1.7-1.6-1.7C192.7,40.9,192.5,41.1,192.4,41.3
			 M200.2,41.9c-0.4,0.9-0.9,2.2-0.9,2.6c0,0.1,0.2,0.3,0.5,0.4c1.2,0.4,2.4,1,3.3,1.5c0.5,0.3,1,0.6,1,0.6c0.3,0.2-1.9-4.2-2.4-4.7
			c-0.1-0.1-0.2-0.2-0.2-0.3c0-0.1-0.8-1-0.9-1C200.7,41,200.5,41.4,200.2,41.9 M200.6,54.3l-1.2,0.1l0.6,0.3c2,0.9,2.3,1,2.8,1.8
			c0.8,1.2,1.4,1.5,3,1.7c1,0.1,1.5,0.2,2,0.5c0.9,0.4,0.9,0.4,0.9,0.2c0-0.6-2.7-3.9-3.2-3.9c-0.1,0-0.2-0.1-0.2-0.1
			C205.4,54.3,202.8,54.1,200.6,54.3"/>
		<path class="st36" d="M191.5,37.9c-0.8,0.8-1.2,1.4-1.9,2.8c-1.3,2.6-1.7,5-1.4,7.5c0.2,1.4,0.6,2.9,1,3.1
			c0.1,0.1,0.2,0.2,0.2,0.3s0.1,0.3,0.2,0.4c0.2,0.3,0.2,0.3-0.1,0.2c-0.8-0.2-1.9-1.1-2.6-2.1c-0.6-0.8-1.1-2.3-1.4-3.8
			c-0.1-0.3-0.2-0.5-0.3-0.5c-0.3,0-2.5,1.1-2.6,1.3c0,0.1-0.1,0.1-0.2,0.1s-0.3,0.1-0.5,0.3c-0.2,0.2-0.9,0.7-1.5,1.1
			c-1.1,0.8-3.2,2.9-3.9,3.8c-0.2,0.3-0.4,0.5-0.5,0.6c-0.1,0.1-0.5,0.7-1.2,1.8c-0.4,0.6-1,1.7-1,1.8c0,0,0.5-0.3,1-0.8
			c2.1-1.7,3.6-2.6,5.6-3.2c1.8-0.5,1.9-0.5,0.5,0.4c-1.2,0.8-3.6,3.1-4.5,4.3c-2.2,3-3.5,5.7-4,8.2c-0.3,1.8-0.3,5.2,0,5.2
			c0.1,0,0.1-0.1,0.1-0.3c0-1,1.6-4.6,2.7-6c1.3-1.7,3.7-3.8,4.2-3.8c0.1,0,0,0.1-0.1,0.2c-0.2,0.3-1.1,1.7-1.7,2.8
			c-1.2,2.3-2.1,5.6-2.1,8c0,2.1,0.7,4.9,1.8,6.6c0.3,0.4,0.5,0.8,0.5,0.9c0,0.2,1.8,2.1,2.5,2.7c0.6,0.5,1.6,1.1,2.5,1.6
			c0.8,0.4,2.1,0.8,2.2,0.7c0,0-0.4-0.5-0.9-1.1c-1.8-1.9-3.2-4.2-3.9-6.3c-0.5-1.5-0.2-5.4,0.4-6.3c0.2-0.2,0.2-0.1,0.2,0.5
			c0,1.8,0.8,3.7,2.3,5.6c0.5,0.6,0.9,1.1,0.9,1.2c0,0,0.5,0.5,1,1.1c0.5,0.6,0.9,1.1,1,1.1c0.5,0.5,2.7,3.5,2.7,3.8
			c0,0.1,0.1,0.2,0.1,0.2c0.2,0.1,1.2,2.3,1.6,3.6c0.2,0.7,0.4,1.6,0.4,2.4c0,0.7,0.1,1.3,0.1,1.3c0.3,0,1.5-1.9,1.9-3
			c0.4-1.3,0.5-3.6,0.2-4.9c-0.3-1.3-0.9-2.7-1.7-3.8c-0.3-0.5-0.6-0.9-0.5-0.9c0.5,0,3.3,2.6,3.9,3.6c0.2,0.3,0.4,0.8,0.6,1.1
			c0.7,1.2,1,2.6,1,4.3c0,2.1-0.5,3.8-1.7,5.8c-0.2,0.3-0.4,0.6-0.5,0.7c-0.2,0.4,0.1,0.3,1.1-0.3c2.4-1.3,5.1-4,6.3-6.3
			c0.4-0.8,0.9-2.6,0.9-3.4c0-1.2-0.6-3.6-1.1-4.1c-0.1-0.2-0.2-0.1-0.3,0.5c-0.2,1.5-1,4-1.2,3.4c-0.3-1.9-0.8-3-1.7-4.4
			c-1.1-1.6-2.1-2.4-5.9-4.8c-2.3-1.5-3.2-2.1-5-3.7c-0.8-0.7-1.7-1.7-1.7-1.8c0-0.1-0.1-0.2-0.2-0.3c-0.3-0.4-1.1-1.6-1.4-2.5
			c-0.3-0.7-0.3-1.1-0.3-2.7c0-1.7,0.1-2,0.4-3c0.2-0.6,0.6-1.5,0.9-2c0.5-0.9,1.8-2.3,2.6-3c0.5-0.4,2.2-1.2,2.8-1.4
			c0.4-0.1,0.4-0.1-0.3,0.6c-1.7,1.6-3.2,3.9-3.7,5.7c-0.4,1.4-0.4,4.4,0,4.4c0.1,0,0.1-0.1,0.1-0.1c0-0.3,0.7-1.7,1.3-2.5
			c0.3-0.5,0.9-1.1,1.3-1.4c0.4-0.3,0.7-0.6,0.8-0.6c0.1-0.1,2-1.1,2.4-1.2c0.4-0.1,0.4-0.1-0.5,1.2c-1.2,1.8-2,4.3-1.8,6.3
			c0.1,1,0.7,3.2,0.9,3.4c0,0,0.3,0.4,0.5,0.7c0.5,0.8,1.6,1.8,2.5,2.5c1,0.8,1.3,0.8,0.8,0c-0.8-1.1-1.3-3.9-1-5.4
			c0.2-0.9,0.8-2.3,1-2.3c0.1,0,0.1,0.3,0.1,0.8c0,2.2,0.7,3.6,3,5.8c0.9,0.9,2,2,2.5,2.5c2.7,2.5,3.9,4.6,4.3,7.5
			c0.2,1.6,0.1,3-0.3,4.3c-0.1,0.4-0.2,0.8-0.2,0.8c0.2,0,1.2-1.5,1.8-2.6c0.6-1.2,1.1-3.4,1.1-4.6c0-1.6-0.5-3.3-1.4-4.6
			c-0.7-1.1-1.4-1.7-3-2.9c-1.9-1.5-2.3-2.2-1.7-2.8c0.3-0.2,0.5-0.3,1.8-0.3c1.4,0,1.7,0.1,3.3,0.6c2.8,0.9,3.1,1,4.7,1
			c1.2,0,1.6-0.1,2.1-0.3c0.7-0.3,1.7-1.2,1.7-1.4c0-0.1-0.6-0.2-1.3-0.3c-0.8-0.1-1.9-0.4-2.8-0.7c-2.6-0.9-5.4-1.9-6.2-2
			c-0.4-0.1-0.7-0.2-0.7-0.3c0-0.1,0.3-0.2,0.6-0.3c0.7-0.2,2.2,0,3.4,0.4c0.4,0.1,1.4,0.5,2.3,0.8c3.4,1.2,5.2,1.4,6.6,0.7
			c0.7-0.3,1.5-1,1.5-1.3c0-0.1-0.2-0.4-0.5-0.6c-0.7-0.6-1.1-1.5-1.1-2.3c0-0.3,1.1-0.5,2.1-0.5l1,0.1l-0.4-0.3
			c-0.2-0.2-0.7-0.5-1.1-0.8c-0.4-0.3-1-0.7-1.3-0.9c-1.2-0.8-2.4-1.8-2.5-1.9c-0.1-0.1-0.6-0.4-1.1-0.7c-0.5-0.3-0.9-0.7-1-0.7
			c0,0-0.5-0.4-1.1-0.8c-0.6-0.4-1.1-0.8-1.2-0.8c-0.1-0.1-0.2-0.6-0.3-1.2c-0.2-1.5-0.6-2.2-2-3.5c-1.9-1.8-4.5-3.7-7.4-5.1
			c-0.9-0.5-1.8-0.9-2-1c-0.1-0.1-0.3-0.1-0.5-0.1c-0.1,0-0.5-0.5-0.9-1.4c-0.6-1.3-1.3-2.4-1.5-2.5c-0.1,0-0.1-0.1-0.1-0.2
			c0-0.1-0.5-0.7-1.5-2c-0.7-0.9-2-2.1-2.3-2.1C192.2,37.4,191.8,37.6,191.5,37.9 M192.1,41c-0.5,0.6-1.1,1.9-1.3,2.9
			c-0.1,0.5-0.1,1.4-0.1,2.3c0.1,1.3,0.1,1.6,0.5,2.4c0.7,1.4,2.3,2.9,2.1,1.9c-0.3-1-0.4-1.8-0.3-2.9c0.1-1.1,0.1-1.2,0.4-1.2
			c0.4,0,1.9,0.7,2.2,1.1c0.4,0.4,0.4,0.1,0.2-1c-0.2-1-1.1-3.1-1.8-4.2c-0.4-0.6-1.4-1.7-1.6-1.7C192.4,40.6,192.2,40.8,192.1,41
			 M200,41.6c-0.4,0.9-0.9,2.2-0.9,2.6c0,0.1,0.2,0.3,0.5,0.4c1.2,0.4,2.4,1,3.3,1.5c0.5,0.3,1,0.6,1,0.6c0.3,0.2-1.9-4.2-2.4-4.7
			c-0.1-0.1-0.2-0.2-0.2-0.3c0-0.1-0.8-1-0.9-1C200.4,40.8,200.2,41.2,200,41.6 M200.4,54l-1.2,0.1l0.6,0.3c2,0.9,2.3,1,2.8,1.8
			c0.8,1.2,1.4,1.5,3,1.7c1,0.1,1.5,0.2,2,0.5c0.9,0.4,0.9,0.4,0.9,0.2c0-0.6-2.7-3.9-3.2-3.9c-0.1,0-0.2-0.1-0.2-0.1
			C205.2,54.1,202.5,53.8,200.4,54"/>
	</g>
</g>
</svg>
