<?xml version="1.0" encoding="utf-8"?>
<!-- Generator: Adobe Illustrator 24.3.0, SVG Export Plug-In . SVG Version: 6.00 Build 0)  -->
<svg version="1.1" id="Layer_1" xmlns="http://www.w3.org/2000/svg" xmlns:xlink="http://www.w3.org/1999/xlink" x="0px" y="0px"
	 viewBox="0 0 236.8 160.9" style="enable-background:new 0 0 236.8 160.9;" xml:space="preserve">
<style type="text/css">
	.st0{clip-path:url(#SVGID_2_);}
	.st1{fill:url(#SVGID_3_);}
	.st2{fill:#D9CDFE;}
	.st3{fill:#FFFFFF;}
	.st4{fill:#A78AFE;}
	.st5{fill:url(#SVGID_4_);}
	.st6{fill:url(#SVGID_5_);}
	.st7{fill:url(#SVGID_6_);}
	.st8{fill:url(#SVGID_7_);}
	.st9{fill:url(#SVGID_8_);}
	.st10{fill:#EBEAF7;}
	.st11{fill:url(#SVGID_9_);}
	.st12{fill:url(#SVGID_10_);}
	.st13{fill:url(#SVGID_11_);}
	.st14{fill:url(#SVGID_12_);}
	.st15{fill:url(#SVGID_13_);}
	.st16{fill:#FEFEFE;}
	.st17{fill:url(#SVGID_14_);}
	.st18{fill-rule:evenodd;clip-rule:evenodd;fill:#808080;}
	.st19{fill-rule:evenodd;clip-rule:evenodd;fill:#FFFFFF;}
</style>
<g>
	<defs>
		<rect id="SVGID_1_" y="0" width="240" height="160.9"/>
	</defs>
	<clipPath id="SVGID_2_">
		<use xlink:href="#SVGID_1_"  style="overflow:visible;"/>
	</clipPath>
	<g class="st0">
		
			<linearGradient id="SVGID_3_" gradientUnits="userSpaceOnUse" x1="120" y1="631.4598" x2="120" y2="931.2498" gradientTransform="matrix(1 0 0 1 0 -679.9998)">
			<stop  offset="0" style="stop-color:#EBEAF7"/>
			<stop  offset="1" style="stop-color:#D9CDFE"/>
		</linearGradient>
		<path class="st1" d="M120,160.9c44.4,0,80.4-36,80.4-80.4S164.4,0,120,0S39.6,36,39.6,80.4l0,0C39.6,124.9,75.6,160.9,120,160.9
			C120,160.9,120,160.9,120,160.9z"/>
		<path class="st2" d="M166.8,108.3c-0.2-0.1-0.3-0.2-0.5-0.3c-0.2-0.1-0.3-0.2-0.5-0.2c-0.2-0.1-0.4-0.1-0.5-0.2
			c-0.2,0-0.4-0.1-0.6-0.1l2.3-6.3l0.6,0.1c0.2,0,0.4,0.1,0.6,0.2l0.5,0.2l0.5,0.3l-1.1,3.2C167.5,106.1,167.1,107.2,166.8,108.3z"
			/>
		<path class="st2" d="M167.9,109.6c0-0.1-0.1-0.2-0.2-0.4c-0.1-0.1-0.2-0.2-0.3-0.3c-0.1-0.1-0.2-0.2-0.4-0.3
			c-0.1-0.1-0.2-0.2-0.4-0.3l0.3-0.7l0.3-0.8l0.3-0.8l0.3-0.8l0.3-0.8l0.3-0.8l0.3-0.8l0.2-0.7c0.1,0.1,0.3,0.2,0.4,0.3
			c0.1,0.1,0.2,0.2,0.4,0.3c0.1,0.1,0.2,0.2,0.2,0.3c0.1,0.1,0.1,0.2,0.2,0.3L167.9,109.6z"/>
		<path class="st2" d="M166.9,101.1l-2.3,6.3l-11.5-1.4l2.2-6.4L166.9,101.1z"/>
		<path class="st2" d="M150.9,106.9l2.1-6.4l0.1-0.2c0-0.1,0.1-0.1,0.1-0.1l0.1-0.1l0.2-0.1c0.1-0.1,0.2-0.1,0.4-0.2
			c0.1,0,0.3-0.1,0.4-0.1c0.2,0,0.3,0,0.5,0h0.5l-2.2,6.4c-0.2,0-0.4,0-0.5,0c-0.3,0-0.6,0-0.9,0.1c-0.1,0-0.2,0.1-0.4,0.2l-0.2,0.1
			l-0.1,0.1l-0.1,0.1C150.9,106.8,150.9,106.9,150.9,106.9L150.9,106.9z"/>
		<path class="st3" d="M150.9,106.9l0.2-0.7l0.1-0.3l0.2-0.7l0.2-0.6l0.1-0.3l0.2-0.6l0.2-0.7l0.1-0.3l0.2-0.6l0.2-0.7l0.1-0.3
			l0.2-0.7v0.1c0,0,0,0.1,0,0.2c0,0,0,0.1,0,0.2c0,0.1,0,0.1,0,0.2l-2.2,6.4v-0.5C150.9,107,150.9,107,150.9,106.9z"/>
		<path class="st3" d="M165.2,104.4l-2.3,6.4l-6-0.7l2.2-6.4L165.2,104.4z"/>
		<path class="st3" d="M166.4,108.2l-2.3,6.4l-1.1-3.9l2.3-6.4L166.4,108.2z"/>
		<path class="st2" d="M172.6,110.7l-2.4,6.4l-2.3-7.5l2.3-6.3L172.6,110.7z"/>
		<path class="st2" d="M172.6,111.4c-0.8,2.1-1.6,4.3-2.4,6.4c0-0.1,0-0.1,0-0.2v-0.4c0-0.1,0-0.1,0-0.2l2.4-6.4
			c0,0.1,0,0.1,0.1,0.2v0.3C172.6,111.3,172.6,111.4,172.6,111.4z"/>
		<path class="st2" d="M166.4,108.2l-2.3,6.4l-6-0.7l2.3-6.4L166.4,108.2z"/>
		<path class="st2" d="M160.3,107.5l-2.3,6.4l-1.1-3.9l2.2-6.4L160.3,107.5z"/>
		<path class="st3" d="M172.6,111.4l-2.4,6.4l-0.1,0.1l-0.1,0.1l-0.1,0.1l-0.1,0.1c-0.1,0.1-0.2,0.1-0.4,0.2
			c-0.1,0.1-0.3,0.1-0.4,0.1c-0.2,0-0.3,0-0.5,0c-0.2,0-0.4,0-0.5,0l2.4-6.4h0.5c0.2,0,0.3,0,0.5,0c0.1,0,0.3-0.1,0.4-0.1
			c0.1,0,0.2-0.1,0.4-0.2l0.1-0.1l0.1-0.1c0,0,0.1-0.1,0.1-0.1C172.5,111.5,172.6,111.5,172.6,111.4L172.6,111.4z"/>
		<path class="st3" d="M155.1,108.6l-2.2,6.5l-2.1-7.6l2.2-6.4L155.1,108.6z"/>
		<path class="st3" d="M170.3,112.3l-2.3,6.4l-11.7-1.4l2.3-6.5L170.3,112.3z"/>
		<path class="st3" d="M169,101.9c0.2,0.1,0.3,0.2,0.4,0.3c0.1,0.1,0.2,0.2,0.4,0.3c0.1,0.1,0.2,0.2,0.3,0.3
			c0.1,0.1,0.1,0.2,0.2,0.4l2.4,7.5c0,0.1,0.1,0.2,0.1,0.4c0,0.1,0,0.2,0,0.3c0,0.1-0.1,0.2-0.2,0.3c-0.1,0.1-0.2,0.2-0.3,0.2
			c-0.1,0.1-0.2,0.1-0.4,0.2c-0.1,0.1-0.3,0.1-0.4,0.1c-0.2,0-0.3,0-0.5,0h-0.5l-11.8-1.4c-0.2,0-0.4-0.1-0.6-0.1
			c-0.2,0-0.4-0.1-0.6-0.2c-0.2-0.1-0.4-0.1-0.6-0.2c-0.2-0.1-0.3-0.2-0.5-0.3c-0.1-0.1-0.3-0.2-0.4-0.3c-0.1-0.1-0.2-0.2-0.4-0.3
			c-0.1-0.1-0.2-0.2-0.3-0.4c-0.1-0.1-0.1-0.2-0.2-0.4l-2.2-7.5c0-0.1,0-0.2,0-0.3c0-0.1,0-0.2,0.1-0.3c0-0.1,0.1-0.2,0.2-0.3
			c0.1-0.1,0.2-0.2,0.3-0.2c0.1-0.1,0.2-0.1,0.4-0.2c0.1,0,0.3-0.1,0.4-0.1c0.2,0,0.3,0,0.5,0h0.5l11.6,1.4l0.6,0.1
			c0.2,0,0.4,0.1,0.6,0.2l0.5,0.2C168.7,101.7,168.8,101.8,169,101.9L169,101.9z M166.4,108.2l-1.2-3.9l-6-0.7l1.1,3.9L166.4,108.2"
			/>
		<path class="st3" d="M158.5,110.8l-2.3,6.5c-0.2,0-0.4-0.1-0.6-0.1c-0.2,0-0.4-0.1-0.6-0.2c-0.2-0.1-0.4-0.1-0.5-0.2
			c-0.2-0.1-0.3-0.2-0.5-0.3c-0.1-0.1-0.3-0.2-0.4-0.3c-0.1-0.1-0.2-0.2-0.3-0.3c-0.1-0.1-0.2-0.2-0.3-0.4c-0.1-0.1-0.1-0.2-0.2-0.4
			l2.2-6.5c0,0.1,0.1,0.3,0.2,0.4c0.1,0.1,0.2,0.3,0.3,0.4c0.1,0.1,0.2,0.2,0.4,0.3c0.1,0.1,0.3,0.2,0.4,0.3
			c0.2,0.1,0.3,0.2,0.5,0.3c0.2,0.1,0.4,0.2,0.6,0.2c0.2,0.1,0.4,0.1,0.6,0.2C158.1,110.8,158.3,110.8,158.5,110.8z"/>
		<path class="st4" d="M177.8,111.6l-2.4,6.4c-0.3,0.8-0.8,1.6-1.5,2.2c-0.8,0.7-1.7,1.2-2.6,1.5c-1.1,0.4-2.3,0.7-3.6,0.8
			c-1.5,0.1-2.9,0.1-4.4-0.1c-2.1-0.3-4.2-0.8-6.2-1.5c-1.9-0.7-3.8-1.6-5.5-2.8c-1.6-1-3-2.2-4.2-3.6c-1-1.1-1.8-2.5-2.2-4
			c-0.1-0.3-0.1-0.6-0.2-0.9c0-0.3,0-0.6,0-0.8c0-0.3,0-0.5,0.1-0.8c0-0.2,0.1-0.5,0.2-0.7l2.2-6.4c-0.1,0.2-0.1,0.5-0.2,0.7
			c0,0.3-0.1,0.5-0.1,0.8c0,0.3,0,0.6,0,0.8c0,0.3,0.1,0.6,0.2,0.8c0.4,1.5,1.2,2.9,2.2,4c1.2,1.4,2.6,2.6,4.2,3.6
			c3.6,2.3,7.6,3.8,11.8,4.3c1.5,0.2,2.9,0.2,4.4,0.1c1.2-0.1,2.4-0.4,3.6-0.8c1-0.3,1.8-0.9,2.6-1.5
			C177,113.2,177.5,112.4,177.8,111.6L177.8,111.6z"/>
		<path class="st2" d="M159.9,96.4c4,0.5,7.9,1.9,11.3,4.1c1.5,1,2.9,2.1,4.2,3.4c1.1,1.1,1.9,2.4,2.4,3.9c0.4,1.2,0.5,2.5,0.1,3.7
			c-0.4,1.1-1.2,2.1-2.2,2.8c-1.3,0.8-2.7,1.4-4.2,1.6c-1.9,0.3-3.9,0.3-5.8,0.1c-4.2-0.5-8.3-2-11.8-4.3c-1.6-1-3-2.2-4.2-3.6
			c-1-1.1-1.8-2.5-2.2-4c-0.4-1.2-0.3-2.5,0.2-3.6c0.5-1.1,1.4-2,2.4-2.6c1.3-0.8,2.7-1.2,4.2-1.4C156.2,96.1,158.1,96.1,159.9,96.4
			z M172.6,110.7l-2.4-7.5c0-0.1-0.1-0.2-0.2-0.4c-0.1-0.1-0.2-0.2-0.3-0.3c-0.1-0.1-0.2-0.2-0.4-0.3c-0.1-0.1-0.3-0.2-0.4-0.3
			c-0.2-0.1-0.3-0.2-0.5-0.3l-0.5-0.2c-0.4-0.1-0.7-0.2-1.1-0.3l-11.5-1.4h-0.5c-0.2,0-0.3,0-0.5,0c-0.1,0-0.3,0.1-0.4,0.1
			c-0.1,0-0.3,0.1-0.4,0.2c-0.1,0.1-0.2,0.1-0.3,0.2c-0.1,0.1-0.1,0.2-0.2,0.3c0,0.1-0.1,0.2-0.1,0.3c0,0.1,0,0.2,0,0.3l2.1,7.5
			c0,0.1,0.1,0.3,0.2,0.4c0.1,0.1,0.2,0.2,0.3,0.4c0.2,0.3,0.5,0.5,0.8,0.7c0.2,0.1,0.3,0.2,0.5,0.3l0.6,0.2
			c0.2,0.1,0.4,0.1,0.6,0.2c0.2,0.1,0.4,0.1,0.6,0.1l11.8,1.4c0.2,0,0.4,0,0.5,0c0.2,0,0.3,0,0.5,0c0.1,0,0.3-0.1,0.4-0.1
			c0.1,0,0.3-0.1,0.4-0.2c0.1-0.1,0.2-0.1,0.3-0.2c0.1-0.1,0.1-0.2,0.2-0.3c0-0.1,0.1-0.2,0.1-0.3
			C172.6,111,172.6,110.9,172.6,110.7"/>
		<path class="st2" d="M166.4,108.2l-1.2-3.9l-6-0.8l1.1,3.9L166.4,108.2z"/>
		
			<linearGradient id="SVGID_4_" gradientUnits="userSpaceOnUse" x1="98.63" y1="751.0789" x2="185.8" y2="751.0789" gradientTransform="matrix(1 0 0 1 0 -679.9998)">
			<stop  offset="0" style="stop-color:#D9CDFE"/>
			<stop  offset="1" style="stop-color:#A78AFE"/>
		</linearGradient>
		<path class="st5" d="M134.1,60.6h-19.4c-1.1,0-2,0.8-2,1.9c0,0,0,0,0,0v16.8c0,1.1,0.8,2,1.9,2c0,0,0.1,0,0.1,0h19.4
			c0.5,0,1,0.2,1.4,0.6c0.4,0.4,0.6,0.9,0.6,1.4v7.2c0,0.4,0.1,0.8,0.3,1.1c0.2,0.3,0.5,0.6,0.9,0.7c0.4,0.2,0.8,0.2,1.1,0.1
			c0.4-0.1,0.7-0.3,1-0.5l19.5-19.5c0.2-0.2,0.3-0.4,0.4-0.6c0.1-0.2,0.2-0.5,0.1-0.8c0-0.3-0.1-0.5-0.1-0.8
			c-0.1-0.2-0.2-0.4-0.4-0.6l-19.5-19.5c-0.6-0.5-1.4-0.7-2.1-0.4c-0.7,0.3-1.2,1-1.2,1.8v7.2c0,0.5-0.2,1-0.6,1.3
			C135.1,60.4,134.7,60.6,134.1,60.6L134.1,60.6z"/>
		<path class="st2" d="M102.2,111.6c-0.4,0.1-0.8,0.3-1.1,0.6c-0.4,0.2-0.7,0.5-1,0.8c-0.3,0.3-0.6,0.6-0.9,1
			c-0.2,0.3-0.4,0.7-0.6,1.1l-6.4-6.4c0.2-0.4,0.3-0.8,0.6-1.1c0.5-0.7,1.2-1.4,1.9-1.9c0.3-0.2,0.7-0.4,1.1-0.6l0.7,0.8l0.8,0.8
			l0.8,0.8l0.8,0.9C100.1,109.5,101.2,110.5,102.2,111.6z"/>
		<path class="st2" d="M88.3,125.3c-0.1,0.2-0.1,0.4-0.2,0.6c0,0.2,0,0.3,0,0.5c0,0.1,0,0.3,0.1,0.4c0,0.1,0.1,0.2,0.2,0.3l-6.4-6.4
			c-0.1-0.1-0.1-0.2-0.2-0.3c-0.1-0.1-0.1-0.3-0.1-0.4c0-0.1,0-0.3,0-0.4c0-0.2,0.1-0.4,0.2-0.5L88.3,125.3l-6.4-6.3
			c0.2-0.4,0.4-0.8,0.6-1.1c0.3-0.4,0.6-0.7,0.9-1c0.3-0.3,0.6-0.6,1-0.9c0.3-0.2,0.7-0.4,1.1-0.6l6.4,6.4c-0.4,0.1-0.8,0.3-1.1,0.6
			c-0.4,0.2-0.7,0.5-1,0.8c-0.3,0.3-0.6,0.6-0.9,1C88.6,124.6,88.5,125,88.3,125.3L88.3,125.3z"/>
		<path class="st2" d="M103.8,111.8c-0.1-0.1-0.2-0.2-0.3-0.2c-0.1,0-0.2-0.1-0.4-0.1c-0.2,0-0.3,0-0.5,0c-0.2,0-0.3,0.1-0.5,0.1
			l-6.3-6.5c0.2-0.1,0.3-0.1,0.5-0.1c0.1,0,0.3,0,0.4,0c0.1,0,0.2,0,0.4,0.1c0.1,0,0.2,0.1,0.3,0.2
			C99.4,107.2,101.9,109.8,103.8,111.8z"/>
		<path class="st2" d="M90.4,113.7l6.4,6.4l-4.9,1.7l-6.4-6.4L90.4,113.7z"/>
		<path class="st2" d="M92.3,108.7l6.4,6.4l-1.8,5l-6.4-6.4L92.3,108.7z"/>
		<path class="st3" d="M88.4,127l-0.6-0.6l-0.3-0.3l-0.6-0.6l-0.6-0.6l-0.3-0.3l-0.7-0.6l-0.6-0.6l-0.3-0.3l-0.6-0.6l-0.7-0.6
			l-0.3-0.3l-0.7-0.6c0.1,0.1,0.2,0.1,0.3,0.2c0.1,0,0.2,0.1,0.3,0.1c0.1,0,0.3,0,0.4,0c0.2,0,0.3-0.1,0.5-0.1l6.5,6.4
			c-0.2,0.1-0.3,0.1-0.5,0.1c-0.1,0-0.3,0-0.4,0c-0.1,0-0.2,0-0.3-0.1C88.6,127.2,88.5,127.1,88.4,127z"/>
		<path class="st3" d="M97.5,105.3l0.6,0.7l0.3,0.3l0.6,0.7l1.6,1.6l0.6,0.7l0.3,0.3l0.6,0.6l0.6,0.7l0.3,0.3l0.6,0.7
			c0.1,0.1,0.1,0.2,0.2,0.3c0,0.1,0.1,0.2,0.1,0.4c0,0.1,0,0.3,0,0.4c0,0.2-0.1,0.3-0.1,0.5l-6.4-6.5c0.1-0.2,0.1-0.3,0.1-0.5
			c0-0.1,0-0.3,0-0.4c0-0.1,0-0.2-0.1-0.4C97.6,105.4,97.6,105.3,97.5,105.3L97.5,105.3z"/>
		<path class="st3" d="M88.4,119l6.5,6.4l-4.9,1.6l-6.5-6.4L88.4,119z"/>
		<path class="st3" d="M95.9,105.2c0.3-0.1,0.7-0.2,1-0.2c0.2,0,0.5,0.1,0.6,0.3c0.2,0.2,0.3,0.4,0.3,0.6c0,0.3,0,0.7-0.2,1l-1.8,5
			l-5.3,1.9l1.8-5c0.2-0.4,0.3-0.8,0.6-1.1c0.5-0.7,1.2-1.4,1.9-1.9C95.2,105.5,95.5,105.3,95.9,105.2L95.9,105.2z"/>
		<path class="st3" d="M95.8,111.8l6.4,6.5l-5.3,1.8l-6.4-6.4L95.8,111.8z"/>
		<path class="st3" d="M97.6,106.8l6.4,6.5l-1.8,5l-6.4-6.5L97.6,106.8z"/>
		<path class="st2" d="M88.4,119l6.5,6.4l-1.8,5.1l-6.5-6.5L88.4,119z"/>
		<path class="st2" d="M100.8,110.1l6.4,6.6l-5,1.7l-6.4-6.5L100.8,110.1z"/>
		<path class="st3" d="M93.8,117.2l6.5,6.5l-5.4,1.8l-6.5-6.4L93.8,117.2z"/>
		<path class="st2" d="M93.2,132.3l-6.5-6.5c-0.1-0.1-0.1-0.2-0.2-0.3c0-0.1-0.1-0.3-0.1-0.4c0-0.2,0-0.3,0-0.5
			c0-0.2,0.1-0.4,0.2-0.6l6.5,6.5c-0.1,0.2-0.1,0.4-0.2,0.6c0,0.2,0,0.3,0,0.5c0,0.1,0,0.3,0.1,0.4C93,132.1,93.1,132.2,93.2,132.3z
			"/>
		<path class="st2" d="M102.5,110.2l6.4,6.6c-0.1-0.1-0.2-0.1-0.3-0.2c-0.1-0.1-0.2-0.1-0.4-0.1c-0.2,0-0.3,0-0.5,0
			c-0.2,0-0.4,0.1-0.5,0.1l-6.4-6.5c0.2-0.1,0.3-0.1,0.5-0.1c0.2,0,0.3,0,0.5,0c0.1,0,0.3,0,0.4,0.1
			C102.3,110,102.4,110.1,102.5,110.2z"/>
		<path class="st3" d="M93.8,117.2l6.5,6.5l-1.8,5.1l-6.5-6.5L93.8,117.2z"/>
		<path class="st3" d="M98.9,115.5l6.5,6.5l-5.1,1.7l-6.5-6.5L98.9,115.5z"/>
		<path class="st3" d="M93.2,132.3l-6.5-6.5c0.1,0.1,0.2,0.1,0.3,0.2c0.1,0.1,0.2,0.1,0.3,0.1c0.1,0,0.3,0,0.4,0
			c0.2,0,0.3-0.1,0.5-0.1c0.4-0.1,0.8-0.3,1.1-0.6c0.8-0.5,1.5-1.2,2-2c0.2-0.4,0.4-0.7,0.6-1.1l6.5,6.5c-0.1,0.4-0.3,0.8-0.6,1.1
			c-0.3,0.4-0.6,0.8-0.9,1.1c-0.3,0.3-0.7,0.6-1.1,0.9c-0.4,0.2-0.7,0.4-1.1,0.6c-0.2,0.1-0.3,0.1-0.5,0.1c-0.1,0-0.3,0-0.4,0
			c-0.1,0-0.2,0-0.4-0.1C93.4,132.4,93.3,132.4,93.2,132.3L93.2,132.3z"/>
		<path class="st3" d="M86.6,124.1l1.9-5l5.4-1.8l-1.9,5.1c-0.2,0.4-0.4,0.8-0.6,1.1c-0.3,0.4-0.6,0.7-0.9,1.1
			c-0.3,0.3-0.7,0.6-1.1,0.9c-0.4,0.2-0.7,0.4-1.1,0.6c-0.3,0.1-0.7,0.2-1,0.1c-0.2,0-0.5-0.1-0.6-0.3c-0.2-0.2-0.2-0.4-0.2-0.7
			C86.3,124.8,86.4,124.5,86.6,124.1L86.6,124.1z"/>
		<path class="st3" d="M102.5,110.2l6.4,6.6c0.1,0.1,0.1,0.2,0.2,0.3c0,0.1,0.1,0.2,0.1,0.4c0,0.1,0,0.3,0,0.4
			c0,0.2-0.1,0.4-0.1,0.5c-0.1,0.4-0.3,0.8-0.6,1.1c-0.3,0.4-0.6,0.7-0.9,1c-0.3,0.3-0.7,0.6-1.1,0.9c-0.3,0.2-0.7,0.4-1.1,0.6
			l-6.5-6.5c0.4-0.1,0.8-0.3,1.1-0.6c0.8-0.5,1.5-1.2,2-2c0.2-0.3,0.4-0.7,0.6-1.1c0.1-0.2,0.1-0.3,0.1-0.5c0-0.1,0-0.3,0-0.4
			c0-0.1,0-0.3-0.1-0.4C102.6,110.3,102.6,110.3,102.5,110.2z"/>
		<path class="st3" d="M100.8,110.1c0.3-0.1,0.7-0.2,1-0.2c0.5,0,0.9,0.4,0.9,0.9c0,0.3,0,0.7-0.2,1c-0.1,0.4-0.3,0.8-0.6,1.1
			c-0.5,0.8-1.2,1.5-2,2c-0.4,0.2-0.7,0.4-1.1,0.6l-5,1.7l-5.4,1.8l-4.9,1.7c-0.3,0.1-0.7,0.2-1,0.2c-0.2,0-0.4-0.1-0.6-0.3
			c-0.2-0.2-0.2-0.4-0.2-0.7c0-0.3,0.1-0.7,0.2-1c0.2-0.4,0.4-0.8,0.6-1.1c0.5-0.7,1.2-1.4,1.9-1.9c0.3-0.2,0.7-0.4,1.1-0.6l4.9-1.7
			l5.3-1.9L100.8,110.1z"/>
		<path class="st2" d="M98.6,97.8c2-0.8,4.2-1.2,6.4-1.2c1.6,0,3.2,0.6,4.4,1.7c1.2,1.1,1.9,2.6,2,4.2c0.1,2.2-0.2,4.5-1,6.5
			c-1,2.7-2.3,5.3-4,7.7c-3.6,5.2-8.2,9.7-13.4,13.2c-2.4,1.6-5,2.9-7.7,3.8c-2.1,0.7-4.3,1-6.5,0.8c-1.6-0.1-3.1-0.9-4.1-2.1
			c-1-1.3-1.5-2.9-1.5-4.5c0-2.2,0.5-4.4,1.3-6.5c1-2.6,2.4-5.1,4-7.3c3.4-4.9,7.7-9.1,12.7-12.5C93.5,100.1,96,98.8,98.6,97.8z
			 M98.9,115.5c0.4-0.1,0.8-0.3,1.1-0.6c0.8-0.5,1.5-1.2,2-2c0.2-0.3,0.4-0.7,0.6-1.1c0.1-0.3,0.2-0.7,0.2-1c0-0.2-0.1-0.5-0.3-0.7
			c-0.2-0.2-0.4-0.3-0.7-0.3c-0.3,0-0.7,0-1,0.2l-5,1.8l1.8-5c0.1-0.3,0.2-0.7,0.2-1c0-0.2-0.1-0.5-0.3-0.6
			c-0.2-0.2-0.4-0.3-0.7-0.3c-0.3,0-0.7,0-1,0.2c-0.4,0.1-0.8,0.3-1.1,0.6c-0.7,0.5-1.4,1.2-1.9,1.9c-0.2,0.3-0.4,0.7-0.6,1.1
			l-1.8,4.9l-4.9,1.7c-0.4,0.1-0.8,0.3-1.1,0.6c-0.4,0.3-0.7,0.5-1,0.9c-0.3,0.3-0.6,0.6-0.9,1c-0.2,0.3-0.4,0.7-0.6,1.1
			c-0.1,0.3-0.2,0.7-0.2,1c0,0.2,0.1,0.5,0.2,0.7c0.2,0.2,0.4,0.3,0.6,0.3c0.3,0,0.7,0,1-0.2l4.9-1.7l-1.9,5c-0.1,0.3-0.2,0.7-0.2,1
			c0,0.2,0.1,0.5,0.2,0.7c0.2,0.2,0.4,0.3,0.6,0.3c0.3,0,0.7,0,1-0.1c0.4-0.1,0.8-0.3,1.1-0.6c0.4-0.3,0.7-0.6,1.1-0.9
			c0.3-0.3,0.6-0.7,0.9-1.1c0.2-0.4,0.4-0.7,0.6-1.1L94,117l5-1.7"/>
		<path class="st4" d="M109.7,98.6l6.3,6.6c0.5,0.5,0.9,1.2,1.2,1.8c0.3,0.8,0.5,1.6,0.6,2.4c0.1,1,0,2-0.1,2.9
			c-0.2,1.2-0.5,2.3-0.8,3.4c-1,2.7-2.3,5.3-3.9,7.7c-3.6,5.2-8.1,9.7-13.4,13.1c-2.4,1.6-4.9,2.8-7.6,3.7c-1.1,0.3-2.2,0.6-3.3,0.7
			c-0.9,0.1-1.9,0.1-2.8,0.1c-0.8-0.1-1.6-0.3-2.3-0.6c-0.7-0.3-1.3-0.7-1.8-1.1l-6.6-6.3c0.5,0.5,1.1,0.9,1.8,1.2
			c0.7,0.3,1.5,0.5,2.3,0.6c0.9,0.1,1.9,0.1,2.8-0.1c1.1-0.2,2.2-0.4,3.3-0.8c2.7-0.9,5.3-2.2,7.7-3.9c5.3-3.5,9.8-8,13.4-13.2
			c1.7-2.4,3-4.9,4-7.7c0.4-1.1,0.7-2.2,0.9-3.4c0.2-1,0.2-1.9,0.1-2.9c-0.1-0.8-0.2-1.6-0.5-2.4C110.6,99.7,110.2,99.1,109.7,98.6
			L109.7,98.6z"/>
		<path class="st2" d="M121.1,36.3c-0.4-1.2-0.9-2.2-1.7-3.2c-0.7-1-1.5-1.8-2.5-2.5c-0.9-0.7-2-1.2-3.1-1.5
			c-1.1-0.3-2.2-0.4-3.3-0.3l3-2.8c1.1-0.1,2.2,0,3.3,0.3c1.1,0.3,2.2,0.9,3.1,1.6c1,0.7,1.8,1.5,2.5,2.5c0.7,1,1.3,2.1,1.7,3.2
			L121.1,36.3z"/>
		<path class="st3" d="M119.2,38l-3.1,2.7c0.2-0.2,0.5-0.4,0.6-0.7c0.2-0.3,0.3-0.6,0.4-0.9c0.1-0.3,0.1-0.7,0.1-1
			c0-0.4-0.1-0.8-0.2-1.1c-0.2-0.6-0.4-1.1-0.7-1.6c-0.3-0.5-0.7-1-1.2-1.3c-0.4-0.3-0.9-0.6-1.4-0.7c-0.5-0.2-1-0.2-1.6-0.2
			c-0.2,0-0.3,0-0.5,0.1c-0.2,0-0.3,0.1-0.4,0.2c-0.1,0.1-0.3,0.1-0.4,0.2c-0.1,0.1-0.2,0.2-0.4,0.3l3-2.8c0.1-0.1,0.2-0.2,0.4-0.3
			c0.1-0.1,0.3-0.1,0.4-0.2c0.1-0.1,0.3-0.1,0.4-0.1c0.2,0,0.3-0.1,0.5-0.1c0.5-0.1,1.1,0,1.6,0.2c0.5,0.2,1,0.4,1.4,0.7
			c0.5,0.3,0.9,0.7,1.2,1.2c0.4,0.5,0.6,1,0.8,1.6c0.1,0.4,0.2,0.8,0.2,1.2c0,0.4,0,0.7-0.1,1.1c-0.1,0.3-0.2,0.6-0.4,0.9
			C119.6,37.4,119.4,37.7,119.2,38L119.2,38z"/>
		<path class="st2" d="M110.6,28.7c-0.4,0-0.7,0.1-1.1,0.2c-0.3,0.1-0.7,0.2-1,0.4c-0.3,0.1-0.6,0.3-0.9,0.5
			c-0.3,0.2-0.5,0.4-0.8,0.6l3-2.8c0.2-0.2,0.5-0.4,0.8-0.6c0.3-0.2,0.6-0.3,0.9-0.5c0.3-0.1,0.7-0.3,1-0.3c0.3-0.1,0.7-0.2,1.1-0.2
			l-1.5,1.4l-0.6,0.5l-0.2,0.2l-0.2,0.2l-0.2,0.2C110.8,28.5,110.7,28.7,110.6,28.7z"/>
		<path class="st2" d="M119.1,44.4c0.5-0.4,1-1,1.3-1.5c0.4-0.6,0.6-1.3,0.8-1.9c0.2-0.7,0.3-1.5,0.2-2.2c0-0.8-0.2-1.6-0.4-2.4
			l3.2-2.7c0.3,0.8,0.4,1.6,0.5,2.4c0,0.8,0,1.5-0.2,2.3c-0.2,0.7-0.4,1.4-0.8,2c-0.4,0.6-0.8,1.1-1.3,1.5L119.1,44.4z"/>
		<path class="st2" d="M116.1,40.6c-0.1,0.1-0.2,0.2-0.3,0.2c-0.1,0.1-0.2,0.1-0.4,0.2c-0.1,0.1-0.3,0.1-0.4,0.1l-0.4,0.1l0.4-0.3
			l0.4-0.3l0.4-0.3L116,40l0.4-0.3l0.4-0.3l0.4-0.3l0.4-0.3c0.2,0,0.3,0,0.5-0.1l0.4-0.2c0.1-0.1,0.3-0.1,0.4-0.2
			c0.1-0.1,0.2-0.2,0.3-0.2L116.1,40.6z"/>
		<path class="st2" d="M114.5,41.3h-0.9l3.1-2.7h0.9L114.5,41.3z"/>
		<path class="st2" d="M109.4,37.7c-0.1-0.4-0.2-0.7-0.2-1.1c0-0.3,0-0.7,0.1-1c0.1-0.3,0.2-0.6,0.3-0.9c0.2-0.3,0.4-0.5,0.6-0.7
			l3.1-2.8c-0.2,0.2-0.4,0.5-0.6,0.7c-0.2,0.3-0.3,0.6-0.4,0.9c-0.1,0.3-0.1,0.7-0.1,1c0,0.4,0.1,0.8,0.2,1.1L109.4,37.7z"/>
		<path class="st2" d="M113.6,41.3c-0.5-0.1-0.9-0.2-1.3-0.4c-0.4-0.2-0.8-0.5-1.2-0.8c-0.4-0.3-0.7-0.7-1-1.1
			c-0.3-0.4-0.5-0.9-0.7-1.4l0.3-0.3l0.4-0.3l0.4-0.3l0.4-0.3l0.4-0.4l0.4-0.3l0.4-0.3l0.4-0.3c0.1,0.5,0.4,0.9,0.7,1.4
			c0.3,0.4,0.6,0.8,1,1.1c0.4,0.3,0.8,0.6,1.2,0.8c0.4,0.2,0.9,0.3,1.3,0.4L113.6,41.3z"/>
		<path class="st3" d="M122.3,41.8c-1.1,0.9-2.1,1.8-3.2,2.6c-0.2,0.2-0.5,0.4-0.7,0.5c-0.2,0.2-0.5,0.3-0.8,0.4
			c-0.3,0.1-0.6,0.2-0.9,0.3c-0.3,0.1-0.6,0.1-0.9,0.2c-1.1,0.1-2.2,0.1-3.3-0.3c-1.1-0.3-2.2-0.8-3.1-1.5c-1-0.7-1.9-1.6-2.6-2.5
			c-0.7-1-1.3-2.1-1.7-3.3c-0.2-0.8-0.4-1.5-0.4-2.3c0-0.7,0-1.5,0.2-2.2c0.1-0.7,0.4-1.3,0.7-1.9c0.3-0.6,0.7-1.1,1.2-1.5l3-2.8
			c-0.5,0.4-0.9,1-1.2,1.5c-0.3,0.6-0.6,1.2-0.7,1.9c-0.2,0.7-0.2,1.4-0.2,2.2c0,0.8,0.2,1.6,0.4,2.3c0.4,1.2,0.9,2.3,1.7,3.3
			c0.7,1,1.6,1.9,2.6,2.6c1,0.7,2,1.2,3.2,1.6c1.1,0.3,2.2,0.4,3.3,0.3c0.3-0.1,0.7-0.1,1-0.2c0.3-0.1,0.6-0.2,0.9-0.3
			c0.3-0.1,0.5-0.2,0.8-0.4C121.9,42.1,122.1,42,122.3,41.8L122.3,41.8z"/>
		<path class="st4" d="M126.4,47.3l-3.2,2.5c-0.4,0.3-0.8,0.6-1.2,0.8c-0.4,0.2-0.8,0.5-1.3,0.7c-0.5,0.2-0.9,0.4-1.4,0.5
			c-0.5,0.1-1,0.2-1.5,0.3c-1.9,0.3-3.9,0.1-5.7-0.4c-1.9-0.6-3.8-1.4-5.4-2.6c-1.7-1.2-3.2-2.7-4.5-4.4c-1.3-1.7-2.3-3.7-2.9-5.7
			c-0.4-1.3-0.6-2.6-0.7-3.9c-0.1-1.2,0.1-2.4,0.3-3.6c0.3-1.1,0.7-2.2,1.2-3.2c0.5-1,1.2-1.8,2-2.6l0,0l0.3-0.3l0.3-0.3l0.3-0.3
			l0.3-0.3l0.3-0.3l0.3-0.3l0.2-0.1l0.3-0.3l0.3-0.3l0.2-0.1l0.3-0.3c-0.8,0.8-1.5,1.6-2,2.6c-0.5,1-0.9,2.1-1.2,3.2
			c-0.3,1.2-0.4,2.4-0.3,3.7c0.1,1.4,0.3,2.7,0.7,4c0.6,2.1,1.6,4,2.9,5.8c1.3,1.7,2.8,3.2,4.5,4.5c1.7,1.2,3.5,2.1,5.5,2.7
			c1.9,0.6,3.8,0.7,5.8,0.5c1-0.1,2-0.4,3-0.8c0.4-0.2,0.9-0.4,1.3-0.7C125.7,47.9,126.1,47.6,126.4,47.3L126.4,47.3z"/>
		<path class="st2" d="M111.7,19.8c1.9-0.2,3.8,0,5.7,0.6c1.9,0.6,3.7,1.5,5.3,2.7c1.7,1.2,3.1,2.7,4.3,4.3c1.3,1.7,2.2,3.6,2.9,5.5
			c0.6,1.9,0.9,3.9,0.8,5.8c-0.1,1.8-0.6,3.5-1.4,5c-0.8,1.5-1.9,2.8-3.3,3.8c-1.5,1-3.2,1.7-5,1.9c-1.9,0.3-3.9,0.1-5.8-0.5
			c-2-0.6-3.8-1.5-5.5-2.7c-1.7-1.2-3.2-2.7-4.5-4.4c-1.3-1.7-2.3-3.7-2.9-5.8c-0.6-1.9-0.8-4-0.7-6c0.2-1.8,0.7-3.5,1.6-5
			c0.9-1.5,2-2.7,3.5-3.6C108.2,20.6,110,20,111.7,19.8L111.7,19.8z M119,43.2c1-0.1,2-0.5,2.9-1.1c0.8-0.6,1.5-1.3,1.9-2.2
			c0.5-0.9,0.8-1.9,0.8-3c0.1-1.2-0.1-2.3-0.4-3.4c-0.4-1.2-0.9-2.3-1.7-3.3c-0.7-1-1.5-1.8-2.5-2.5c-0.9-0.7-2-1.2-3.1-1.5
			c-1.1-0.3-2.2-0.5-3.3-0.3c-1,0.1-2,0.4-2.9,1c-0.8,0.5-1.5,1.3-2,2.1c-0.5,0.9-0.8,1.9-0.9,2.9c-0.1,1.2,0,2.3,0.4,3.5
			c0.4,1.2,1,2.3,1.7,3.3c0.7,1,1.6,1.9,2.6,2.6c1,0.7,2,1.2,3.2,1.6C116.8,43.2,118,43.3,119,43.2"/>
		<path class="st2" d="M115,30.4c0.5-0.1,1.1,0,1.6,0.2c0.5,0.2,1,0.4,1.4,0.7c0.5,0.3,0.9,0.7,1.2,1.2c0.4,0.5,0.6,1,0.8,1.6
			c0.2,0.5,0.3,1.1,0.2,1.6c0,0.5-0.2,1-0.4,1.4c-0.2,0.4-0.5,0.7-0.9,1c-0.4,0.3-0.9,0.5-1.4,0.5c-0.5,0.1-1.1,0-1.6-0.1
			c-0.5-0.2-1-0.4-1.5-0.7c-0.5-0.3-0.9-0.7-1.2-1.2c-0.4-0.5-0.6-1-0.8-1.6c-0.2-0.5-0.2-1.1-0.2-1.6c0-0.5,0.2-1,0.4-1.4
			c0.2-0.4,0.6-0.7,0.9-1C114.1,30.6,114.5,30.5,115,30.4L115,30.4z"/>
		<path class="st3" d="M113.6,25.9c1.1-0.1,2.2,0,3.3,0.3c1.1,0.3,2.1,0.9,3.1,1.5c1,0.7,1.8,1.5,2.5,2.5c0.7,1,1.3,2.1,1.7,3.2
			c0.4,1.1,0.5,2.2,0.4,3.4c-0.1,1-0.3,2-0.8,2.9c-0.5,0.9-1.1,1.6-1.9,2.2c-0.9,0.6-1.9,1-2.9,1.1c-1.1,0.1-2.3,0-3.3-0.3
			c-1.1-0.3-2.2-0.9-3.2-1.6c-1-0.7-1.9-1.6-2.6-2.6c-0.8-1-1.3-2.1-1.7-3.3c-0.4-1.1-0.5-2.3-0.4-3.5c0.1-1,0.4-2,0.9-2.9
			c0.5-0.9,1.2-1.6,2-2.1C111.6,26.3,112.6,26,113.6,25.9z M117.6,38.6c1-0.1,1.8-0.7,2.3-1.5c0.2-0.4,0.4-0.9,0.4-1.4
			c0-0.6,0-1.1-0.2-1.6c-0.2-0.6-0.4-1.1-0.8-1.6c-0.3-0.5-0.8-0.9-1.2-1.2c-0.4-0.3-0.9-0.6-1.4-0.7c-0.5-0.2-1-0.2-1.6-0.1
			c-1,0.1-1.8,0.7-2.3,1.5c-0.2,0.4-0.4,0.9-0.4,1.4c0,0.6,0,1.1,0.2,1.6c0.2,0.6,0.4,1.1,0.8,1.6c0.3,0.5,0.8,0.9,1.2,1.2
			c0.4,0.3,1,0.6,1.5,0.7C116.6,38.6,117.1,38.7,117.6,38.6"/>
		
			<linearGradient id="SVGID_5_" gradientUnits="userSpaceOnUse" x1="23.43" y1="1954.4797" x2="23.43" y2="3345.0796" gradientTransform="matrix(1 0 0 1 0 -679.9998)">
			<stop  offset="0" style="stop-color:#EBEAF7"/>
			<stop  offset="1" style="stop-color:#D9CDFE"/>
		</linearGradient>
		<path class="st6" d="M27.4,105.2l1.8-14.8l-11.4,0.3L27.4,105.2z"/>
		
			<linearGradient id="SVGID_6_" gradientUnits="userSpaceOnUse" x1="69.72" y1="1954.4797" x2="69.72" y2="3345.0796" gradientTransform="matrix(1 0 0 1 0 -679.9998)">
			<stop  offset="0" style="stop-color:#EBEAF7"/>
			<stop  offset="1" style="stop-color:#D9CDFE"/>
		</linearGradient>
		<path class="st7" d="M64,90.4l1.8,14.8l9.7-14.5L64,90.4z"/>
		
			<linearGradient id="SVGID_7_" gradientUnits="userSpaceOnUse" x1="62.415" y1="1670.0997" x2="62.415" y2="2745.8799" gradientTransform="matrix(1 0 0 1 0 -679.9998)">
			<stop  offset="0" style="stop-color:#EBEAF7"/>
			<stop  offset="1" style="stop-color:#D9CDFE"/>
		</linearGradient>
		<path class="st8" d="M72.7,74.1L52.2,75l1.9,10.6l3-6.4l7.3,3.3L72.7,74.1z"/>
		
			<linearGradient id="SVGID_8_" gradientUnits="userSpaceOnUse" x1="30.715" y1="1670.0997" x2="30.715" y2="2745.8799" gradientTransform="matrix(1 0 0 1 0 -679.9998)">
			<stop  offset="0" style="stop-color:#EBEAF7"/>
			<stop  offset="1" style="stop-color:#D9CDFE"/>
		</linearGradient>
		<path class="st9" d="M28.8,82.5l7.3-3.3l3,6.4L41,75l-20.6-0.9L28.8,82.5z"/>
		<path class="st10" d="M40.3,54.9l0.3,0.2l-0.3-0.8v-1.4l-0.4,0.3l-5.7-14.3L4.6,27.9l34.5,26.1L26.2,65.4l-5.8,8.7L41,75
			L40.3,54.9z"/>
		<path class="st10" d="M75.4,90.4l-9.7,14.8l20.7,5.7l6-20.2L75.4,90.4z"/>
		<path class="st10" d="M53.8,53.6l34.7-25.8L58.9,38.9l-5.9,14l-0.3-0.3v1.1l-0.5,1.1l0.4-0.3L52.2,75l20.5-0.9l-5.8-8.7L53.8,53.6
			z"/>
		<path class="st10" d="M53.4,99.2l12.4,6l-11.5,5.4l0.1-3.4l-0.9-0.8H39.7l-0.8,0.8l0.1,3.4l-11.5-5.4l12.3-6l-10.7-8.3l-1.7,14.3
			l-9.7-14.8L0.8,90.7l5.9,20.2l20.7-5.7l4,3.3l8.2,5.7h14l8.2-5.7l4-3.3L64,90.9L53.4,99.2z"/>
		<path class="st10" d="M20.5,74.1l8.6,16.8l-0.3-8.4L20.5,74.1z"/>
		<path class="st10" d="M64.4,82.5L64,90.9l8.7-16.8L64.4,82.5z"/>
		<path class="st10" d="M41.5,98L42,81.6L41,75l-1.9,10.6L41.5,98z"/>
		<path class="st10" d="M51.6,98L54,85.5L52.2,75l-1,6.6L51.6,98z"/>
		
			<linearGradient id="SVGID_9_" gradientUnits="userSpaceOnUse" x1="33.93" y1="976.0598" x2="33.93" y2="1761.5198" gradientTransform="matrix(1 0 0 1 0 -679.9998)">
			<stop  offset="0" style="stop-color:#D9CDFE"/>
			<stop  offset="1" style="stop-color:#A78AFE"/>
		</linearGradient>
		<path class="st11" d="M36,79.2l-7.3,3.3l10.3,3L36,79.2z"/>
		
			<linearGradient id="SVGID_10_" gradientUnits="userSpaceOnUse" x1="59.165" y1="976.0598" x2="59.165" y2="1761.5198" gradientTransform="matrix(1 0 0 1 0 -679.9998)">
			<stop  offset="0" style="stop-color:#D9CDFE"/>
			<stop  offset="1" style="stop-color:#A78AFE"/>
		</linearGradient>
		<path class="st12" d="M54,85.6l10.3-3L57,79.2L54,85.6z"/>
		
			<linearGradient id="SVGID_11_" gradientUnits="userSpaceOnUse" x1="46.585" y1="1094.3197" x2="46.585" y2="2239.9597" gradientTransform="matrix(1 0 0 1 0 -679.9998)">
			<stop  offset="0" style="stop-color:#D9CDFE"/>
			<stop  offset="1" style="stop-color:#A78AFE"/>
		</linearGradient>
		<path class="st13" d="M51.6,98H41.5l-1.8,1.2l-0.9,8.1l0.8-0.8h13.8l0.9,0.8l-1-8.1L51.6,98z"/>
		
			<linearGradient id="SVGID_12_" gradientUnits="userSpaceOnUse" x1="73.23" y1="2177.3696" x2="73.23" y2="7499.9497" gradientTransform="matrix(1 0 0 1 0 -679.9998)">
			<stop  offset="0" style="stop-color:#D9CDFE"/>
			<stop  offset="1" style="stop-color:#A78AFE"/>
		</linearGradient>
		<path class="st14" d="M90,56.6l3.1-14.9l-4.6-13.8L53.4,53.9l13.5,11.4L86,71l4.2-5l-1.8-1.3l2.9-2.7L89,60.3l3-2.2L90,56.6z"/>
		
			<linearGradient id="SVGID_13_" gradientUnits="userSpaceOnUse" x1="19.87" y1="2177.3696" x2="19.87" y2="7499.9497" gradientTransform="matrix(1 0 0 1 0 -679.9998)">
			<stop  offset="0" style="stop-color:#D9CDFE"/>
			<stop  offset="1" style="stop-color:#A78AFE"/>
		</linearGradient>
		<path class="st15" d="M4.6,27.9L0,41.7l3.1,14.9l-2,1.5L4,60.3L1.8,62l2.9,2.7L2.9,66l4.2,5l19.1-5.6l13.5-11.5L4.6,27.9z"/>
		<path class="st3" d="M54.3,107.3l-1-8.1l12.4,6l-11.5,5.4L54.3,107.3z M38.9,110.7l-0.1-3.4l0.9-8.1l-12.3,6L38.9,110.7z
			 M64.4,82.5l-10.3,3L51.6,98l1.8,1.2L64,90.9L64.4,82.5z M28.8,82.5l0.3,8.4l10.7,8.3l1.8-1.2l-2.4-12.4L28.8,82.5z M92.4,90.7
			L86,71l-19.1-5.6l5.8,8.7L64,90.9l11.4-0.2H92.4z M26.2,65.4L7.1,71L0.8,90.7h16.9l11.4,0.2l-8.6-16.8L26.2,65.4z M52.2,75
			l1.2-21.1l5.5-15H34.3l5.5,15L41,75l0.4,6.7V98h10.1l0.1-16.4L52.2,75z"/>
	</g>
</g>
<path class="st16" d="M199.6,37.1L199.6,37.1L199.6,37.1z"/>
<path class="st3" d="M208.9,34.8c-1.4-0.3-2.7-0.6-4.1-0.8c-4.9-0.8-9.8-0.5-14.6,0.8c-0.7-0.7-1.3-1.4-2-2.1
	c-1.8-2-3.7-3.8-5.9-5.4c0.9,1.1,1.8,2.1,2.9,3c1.1,1.2,2.1,2.4,3.1,3.6c0.6,0.8,1.3,1.7,2,2.5c6.1-1.7,12.6-1.7,18.7,0.1
	c0.6-0.8,1.1-1.6,1.7-2.4c0.9-1.1,1.8-2.2,2.7-3.3c0.4-0.5,0.8-0.9,1.3-1.4c0.7-0.6,1.4-1.3,2-2.1c-0.7,0.5-1.4,1-2,1.6
	C212.6,30.7,210.7,32.7,208.9,34.8z"/>
<g>
	
		<linearGradient id="SVGID_14_" gradientUnits="userSpaceOnUse" x1="164.3913" y1="117.4058" x2="226.4022" y2="75.576" gradientTransform="matrix(1 0 0 -1 0 161.8898)">
		<stop  offset="0" style="stop-color:#D9CDFE"/>
		<stop  offset="1" style="stop-color:#A78AFE"/>
	</linearGradient>
	<circle class="st17" cx="193.8" cy="64.3" r="31.9"/>
	<g>
		<path class="st18" d="M190.2,36.4c-0.8,0.8-1.2,1.4-1.9,2.8c-1.3,2.6-1.7,5-1.4,7.5c0.2,1.4,0.6,2.9,1,3.1
			c0.1,0.1,0.2,0.2,0.2,0.3s0.1,0.3,0.2,0.4c0.2,0.3,0.2,0.3-0.1,0.2c-0.8-0.2-1.9-1.1-2.6-2.1c-0.6-0.8-1.1-2.3-1.4-3.8
			c-0.1-0.3-0.2-0.5-0.3-0.5c-0.3,0-2.5,1.1-2.6,1.3c0,0.1-0.1,0.1-0.2,0.1c-0.1,0-0.3,0.1-0.5,0.3s-0.9,0.7-1.5,1.1
			c-1.1,0.8-3.2,2.9-3.9,3.8c-0.2,0.3-0.4,0.5-0.5,0.6s-0.5,0.7-1.2,1.8c-0.4,0.6-1,1.7-1,1.8c0,0,0.5-0.3,1-0.8
			c2.1-1.7,3.6-2.6,5.6-3.2c1.8-0.5,1.9-0.5,0.5,0.4c-1.2,0.8-3.6,3.1-4.5,4.3c-2.2,3-3.5,5.7-4,8.2c-0.3,1.8-0.3,5.2,0,5.2
			c0.1,0,0.1-0.1,0.1-0.3c0-1,1.6-4.6,2.7-6c1.3-1.7,3.7-3.8,4.2-3.8c0.1,0,0,0.1-0.1,0.2c-0.2,0.3-1.1,1.7-1.7,2.8
			c-1.2,2.3-2.1,5.6-2.1,8c0,2.1,0.7,4.9,1.8,6.6c0.3,0.4,0.5,0.8,0.5,0.9c0,0.2,1.8,2.1,2.5,2.7c0.6,0.5,1.6,1.1,2.5,1.6
			c0.8,0.4,2.1,0.8,2.2,0.7c0,0-0.4-0.5-0.9-1.1c-1.8-1.9-3.2-4.2-3.9-6.3c-0.5-1.5-0.2-5.4,0.4-6.3c0.2-0.2,0.2-0.1,0.2,0.5
			c0,1.8,0.8,3.7,2.3,5.6c0.5,0.6,0.9,1.1,0.9,1.2c0,0,0.5,0.5,1,1.1s0.9,1.1,1,1.1c0.5,0.5,2.7,3.5,2.7,3.8c0,0.1,0.1,0.2,0.1,0.2
			c0.2,0.1,1.2,2.3,1.6,3.6c0.2,0.7,0.4,1.6,0.4,2.4c0,0.7,0.1,1.3,0.1,1.3c0.3,0,1.5-1.9,1.9-3c0.4-1.3,0.5-3.6,0.2-4.9
			s-0.9-2.7-1.7-3.8c-0.3-0.5-0.6-0.9-0.5-0.9c0.5,0,3.3,2.6,3.9,3.6c0.2,0.3,0.4,0.8,0.6,1.1c0.7,1.2,1,2.6,1,4.3
			c0,2.1-0.5,3.8-1.7,5.8c-0.2,0.3-0.4,0.6-0.5,0.7c-0.2,0.4,0.1,0.3,1.1-0.3c2.4-1.3,5.1-4,6.3-6.3c0.4-0.8,0.9-2.6,0.9-3.4
			c0-1.2-0.6-3.6-1.1-4.1c-0.1-0.2-0.2-0.1-0.3,0.5c-0.2,1.5-1,4-1.2,3.4c-0.3-1.9-0.8-3-1.7-4.4c-1.1-1.6-2.1-2.4-5.9-4.8
			c-2.3-1.5-3.2-2.1-5-3.7c-0.8-0.7-1.7-1.7-1.7-1.8c0-0.1-0.1-0.2-0.2-0.3c-0.3-0.4-1.1-1.6-1.4-2.5c-0.3-0.7-0.3-1.1-0.3-2.7
			c0-1.7,0.1-2,0.4-3c0.2-0.6,0.6-1.5,0.9-2c0.5-0.9,1.8-2.3,2.6-3c0.5-0.4,2.2-1.2,2.8-1.4c0.4-0.1,0.4-0.1-0.3,0.6
			c-1.7,1.6-3.2,3.9-3.7,5.7c-0.4,1.4-0.4,4.4,0,4.4c0.1,0,0.1-0.1,0.1-0.1c0-0.3,0.7-1.7,1.3-2.5c0.3-0.5,0.9-1.1,1.3-1.4
			c0.4-0.3,0.7-0.6,0.8-0.6c0.1-0.1,2-1.1,2.4-1.2c0.4-0.1,0.4-0.1-0.5,1.2c-1.2,1.8-2,4.3-1.8,6.3c0.1,1,0.7,3.2,0.9,3.4
			c0,0,0.3,0.4,0.5,0.7c0.5,0.8,1.6,1.8,2.5,2.5c1,0.8,1.3,0.8,0.8,0c-0.8-1.1-1.3-3.9-1-5.4c0.2-0.9,0.8-2.3,1-2.3
			c0.1,0,0.1,0.3,0.1,0.8c0,2.2,0.7,3.6,3,5.8c0.9,0.9,2,2,2.5,2.5c2.7,2.5,3.9,4.6,4.3,7.5c0.2,1.6,0.1,3-0.3,4.3
			c-0.1,0.4-0.2,0.8-0.2,0.8c0.2,0,1.2-1.5,1.8-2.6c0.6-1.2,1.1-3.4,1.1-4.6c0-1.6-0.5-3.3-1.4-4.6c-0.7-1.1-1.4-1.7-3-2.9
			c-1.9-1.5-2.3-2.2-1.7-2.8c0.3-0.2,0.5-0.3,1.8-0.3c1.4,0,1.7,0.1,3.3,0.6c2.8,0.9,3.1,1,4.7,1c1.2,0,1.6-0.1,2.1-0.3
			c0.7-0.3,1.7-1.2,1.7-1.4c0-0.1-0.6-0.2-1.3-0.3c-0.8-0.1-1.9-0.4-2.8-0.7c-2.6-0.9-5.4-1.9-6.2-2c-0.4-0.1-0.7-0.2-0.7-0.3
			c0-0.1,0.3-0.2,0.6-0.3c0.7-0.2,2.2,0,3.4,0.4c0.4,0.1,1.4,0.5,2.3,0.8c3.4,1.2,5.2,1.4,6.6,0.7c0.7-0.3,1.5-1,1.5-1.3
			c0-0.1-0.2-0.4-0.5-0.6c-0.7-0.6-1.1-1.5-1.1-2.3c0-0.3,1.1-0.5,2.1-0.5l1,0.1l-0.4-0.3c-0.2-0.2-0.7-0.5-1.1-0.8
			c-0.4-0.3-1-0.7-1.3-0.9c-1.2-0.8-2.4-1.8-2.5-1.9c-0.1-0.1-0.6-0.4-1.1-0.7s-0.9-0.7-1-0.7s-0.5-0.4-1.1-0.8
			c-0.6-0.4-1.1-0.8-1.2-0.8c-0.1-0.1-0.2-0.6-0.3-1.2c-0.2-1.5-0.6-2.2-2-3.5c-1.9-1.8-4.5-3.7-7.4-5.1c-0.9-0.5-1.8-0.9-2-1
			c-0.1-0.1-0.3-0.1-0.5-0.1c-0.1,0-0.5-0.5-0.9-1.4c-0.6-1.3-1.3-2.4-1.5-2.5c-0.1,0-0.1-0.1-0.1-0.2c0-0.1-0.5-0.7-1.5-2
			c-0.7-0.9-2-2.1-2.3-2.1C190.9,35.9,190.5,36.1,190.2,36.4 M190.8,39.5c-0.5,0.6-1.1,1.9-1.3,2.9c-0.1,0.5-0.1,1.4-0.1,2.3
			c0.1,1.3,0.1,1.6,0.5,2.4c0.7,1.4,2.3,2.9,2.1,1.9c-0.3-1-0.4-1.8-0.3-2.9c0.1-1.1,0.1-1.2,0.4-1.2c0.4,0,1.9,0.7,2.2,1.1
			c0.4,0.4,0.4,0.1,0.2-1c-0.2-1-1.1-3.1-1.8-4.2c-0.4-0.6-1.4-1.7-1.6-1.7C191.1,39.1,190.9,39.3,190.8,39.5 M198.6,40.1
			c-0.4,0.9-0.9,2.2-0.9,2.6c0,0.1,0.2,0.3,0.5,0.4c1.2,0.4,2.4,1,3.3,1.5c0.5,0.3,1,0.6,1,0.6c0.3,0.2-1.9-4.2-2.4-4.7
			c-0.1-0.1-0.2-0.2-0.2-0.3s-0.8-1-0.9-1C199.1,39.2,198.9,39.6,198.6,40.1 M199,52.5l-1.2,0.1l0.6,0.3c2,0.9,2.3,1,2.8,1.8
			c0.8,1.2,1.4,1.5,3,1.7c1,0.1,1.5,0.2,2,0.5c0.9,0.4,0.9,0.4,0.9,0.2c0-0.6-2.7-3.9-3.2-3.9c-0.1,0-0.2-0.1-0.2-0.1
			C203.8,52.5,201.2,52.3,199,52.5"/>
		<path class="st19" d="M189.9,36.1c-0.8,0.8-1.2,1.4-1.9,2.8c-1.3,2.6-1.7,5-1.4,7.5c0.2,1.4,0.6,2.9,1,3.1
			c0.1,0.1,0.2,0.2,0.2,0.3s0.1,0.3,0.2,0.4c0.2,0.3,0.2,0.3-0.1,0.2c-0.8-0.2-1.9-1.1-2.6-2.1c-0.6-0.8-1.1-2.3-1.4-3.8
			c-0.1-0.3-0.2-0.5-0.3-0.5c-0.3,0-2.5,1.1-2.6,1.3c0,0.1-0.1,0.1-0.2,0.1s-0.3,0.1-0.5,0.3s-0.9,0.7-1.5,1.1
			c-1.1,0.8-3.2,2.9-3.9,3.8c-0.2,0.3-0.4,0.5-0.5,0.6s-0.5,0.7-1.2,1.8c-0.4,0.6-1,1.7-1,1.8c0,0,0.5-0.3,1-0.8
			c2.1-1.7,3.6-2.6,5.6-3.2c1.8-0.5,1.9-0.5,0.5,0.4c-1.2,0.8-3.6,3.1-4.5,4.3c-2.2,3-3.5,5.7-4,8.2c-0.3,1.8-0.3,5.2,0,5.2
			c0.1,0,0.1-0.1,0.1-0.3c0-1,1.6-4.6,2.7-6c1.3-1.7,3.7-3.8,4.2-3.8c0.1,0,0,0.1-0.1,0.2c-0.2,0.3-1.1,1.7-1.7,2.8
			c-1.2,2.3-2.1,5.6-2.1,8c0,2.1,0.7,4.9,1.8,6.6c0.3,0.4,0.5,0.8,0.5,0.9c0,0.2,1.8,2.1,2.5,2.7c0.6,0.5,1.6,1.1,2.5,1.6
			c0.8,0.4,2.1,0.8,2.2,0.7c0,0-0.4-0.5-0.9-1.1c-1.8-1.9-3.2-4.2-3.9-6.3c-0.5-1.5-0.2-5.4,0.4-6.3c0.2-0.2,0.2-0.1,0.2,0.5
			c0,1.8,0.8,3.7,2.3,5.6c0.5,0.6,0.9,1.1,0.9,1.2c0,0,0.5,0.5,1,1.1s0.9,1.1,1,1.1c0.5,0.5,2.7,3.5,2.7,3.8c0,0.1,0.1,0.2,0.1,0.2
			c0.2,0.1,1.2,2.3,1.6,3.6c0.2,0.7,0.4,1.6,0.4,2.4c0,0.7,0.1,1.3,0.1,1.3c0.3,0,1.5-1.9,1.9-3c0.4-1.3,0.5-3.6,0.2-4.9
			s-0.9-2.7-1.7-3.8c-0.3-0.5-0.6-0.9-0.5-0.9c0.5,0,3.3,2.6,3.9,3.6c0.2,0.3,0.4,0.8,0.6,1.1c0.7,1.2,1,2.6,1,4.3
			c0,2.1-0.5,3.8-1.7,5.8c-0.2,0.3-0.4,0.6-0.5,0.7c-0.2,0.4,0.1,0.3,1.1-0.3c2.4-1.3,5.1-4,6.3-6.3c0.4-0.8,0.9-2.6,0.9-3.4
			c0-1.2-0.6-3.6-1.1-4.1c-0.1-0.2-0.2-0.1-0.3,0.5c-0.2,1.5-1,4-1.2,3.4c-0.3-1.9-0.8-3-1.7-4.4c-1.1-1.6-2.1-2.4-5.9-4.8
			c-2.3-1.5-3.2-2.1-5-3.7c-0.8-0.7-1.7-1.7-1.7-1.8c0-0.1-0.1-0.2-0.2-0.3c-0.3-0.4-1.1-1.6-1.4-2.5c-0.3-0.7-0.3-1.1-0.3-2.7
			c0-1.7,0.1-2,0.4-3c0.2-0.6,0.6-1.5,0.9-2c0.5-0.9,1.8-2.3,2.6-3c0.5-0.4,2.2-1.2,2.8-1.4c0.4-0.1,0.4-0.1-0.3,0.6
			c-1.7,1.6-3.2,3.9-3.7,5.7c-0.4,1.4-0.4,4.4,0,4.4c0.1,0,0.1-0.1,0.1-0.1c0-0.3,0.7-1.7,1.3-2.5c0.3-0.5,0.9-1.1,1.3-1.4
			c0.4-0.3,0.7-0.6,0.8-0.6c0.1-0.1,2-1.1,2.4-1.2c0.4-0.1,0.4-0.1-0.5,1.2c-1.2,1.8-2,4.3-1.8,6.3c0.1,1,0.7,3.2,0.9,3.4
			c0,0,0.3,0.4,0.5,0.7c0.5,0.8,1.6,1.8,2.5,2.5c1,0.8,1.3,0.8,0.8,0c-0.8-1.1-1.3-3.9-1-5.4c0.2-0.9,0.8-2.3,1-2.3
			c0.1,0,0.1,0.3,0.1,0.8c0,2.2,0.7,3.6,3,5.8c0.9,0.9,2,2,2.5,2.5c2.7,2.5,3.9,4.6,4.3,7.5c0.2,1.6,0.1,3-0.3,4.3
			c-0.1,0.4-0.2,0.8-0.2,0.8c0.2,0,1.2-1.5,1.8-2.6c0.6-1.2,1.1-3.4,1.1-4.6c0-1.6-0.5-3.3-1.4-4.6c-0.7-1.1-1.4-1.7-3-2.9
			c-1.9-1.5-2.3-2.2-1.7-2.8c0.3-0.2,0.5-0.3,1.8-0.3c1.4,0,1.7,0.1,3.3,0.6c2.8,0.9,3.1,1,4.7,1c1.2,0,1.6-0.1,2.1-0.3
			c0.7-0.3,1.7-1.2,1.7-1.4c0-0.1-0.6-0.2-1.3-0.3c-0.8-0.1-1.9-0.4-2.8-0.7c-2.6-0.9-5.4-1.9-6.2-2c-0.4-0.1-0.7-0.2-0.7-0.3
			c0-0.1,0.3-0.2,0.6-0.3c0.7-0.2,2.2,0,3.4,0.4c0.4,0.1,1.4,0.5,2.3,0.8c3.4,1.2,5.2,1.4,6.6,0.7c0.7-0.3,1.5-1,1.5-1.3
			c0-0.1-0.2-0.4-0.5-0.6c-0.7-0.6-1.1-1.5-1.1-2.3c0-0.3,1.1-0.5,2.1-0.5l1,0.1l-0.4-0.3c-0.2-0.2-0.7-0.5-1.1-0.8
			c-0.4-0.3-1-0.7-1.3-0.9c-1.2-0.8-2.4-1.8-2.5-1.9c-0.1-0.1-0.6-0.4-1.1-0.7s-0.9-0.7-1-0.7c0,0-0.5-0.4-1.1-0.8
			c-0.6-0.4-1.1-0.8-1.2-0.8c-0.1-0.1-0.2-0.6-0.3-1.2c-0.2-1.5-0.6-2.2-2-3.5c-1.9-1.8-4.5-3.7-7.4-5.1c-0.9-0.5-1.8-0.9-2-1
			c-0.1-0.1-0.3-0.1-0.5-0.1c-0.1,0-0.5-0.5-0.9-1.4c-0.6-1.3-1.3-2.4-1.5-2.5c-0.1,0-0.1-0.1-0.1-0.2c0-0.1-0.5-0.7-1.5-2
			c-0.7-0.9-2-2.1-2.3-2.1C190.6,35.6,190.2,35.8,189.9,36.1 M190.5,39.2c-0.5,0.6-1.1,1.9-1.3,2.9c-0.1,0.5-0.1,1.4-0.1,2.3
			c0.1,1.3,0.1,1.6,0.5,2.4c0.7,1.4,2.3,2.9,2.1,1.9c-0.3-1-0.4-1.8-0.3-2.9c0.1-1.1,0.1-1.2,0.4-1.2c0.4,0,1.9,0.7,2.2,1.1
			c0.4,0.4,0.4,0.1,0.2-1c-0.2-1-1.1-3.1-1.8-4.2c-0.4-0.6-1.4-1.7-1.6-1.7C190.8,38.8,190.6,39,190.5,39.2 M198.4,39.8
			c-0.4,0.9-0.9,2.2-0.9,2.6c0,0.1,0.2,0.3,0.5,0.4c1.2,0.4,2.4,1,3.3,1.5c0.5,0.3,1,0.6,1,0.6c0.3,0.2-1.9-4.2-2.4-4.7
			c-0.1-0.1-0.2-0.2-0.2-0.3s-0.8-1-0.9-1C198.8,39,198.6,39.4,198.4,39.8 M198.8,52.2l-1.2,0.1l0.6,0.3c2,0.9,2.3,1,2.8,1.8
			c0.8,1.2,1.4,1.5,3,1.7c1,0.1,1.5,0.2,2,0.5c0.9,0.4,0.9,0.4,0.9,0.2c0-0.6-2.7-3.9-3.2-3.9c-0.1,0-0.2-0.1-0.2-0.1
			C203.6,52.3,200.9,52,198.8,52.2"/>
	</g>
</g>
</svg>
