<svg id="Layer_1" data-name="Layer 1" xmlns="http://www.w3.org/2000/svg" xmlns:xlink="http://www.w3.org/1999/xlink" viewBox="0 0 236.82 160.88"><defs><clipPath id="clip-path" transform="translate(0 0)"><rect width="240" height="160.88" style="fill:none"/></clipPath><linearGradient id="linear-gradient" x1="120" y1="210.43" x2="120" y2="-89.36" gradientTransform="matrix(1, 0, 0, -1, 0, 161.89)" gradientUnits="userSpaceOnUse"><stop offset="0" stop-color="#ebeaf7"/><stop offset="1" stop-color="#d9cdfe"/></linearGradient><linearGradient id="linear-gradient-2" x1="98.63" y1="90.84" x2="185.8" y2="90.84" gradientTransform="matrix(1, 0, 0, -1, 0, 161.89)" gradientUnits="userSpaceOnUse"><stop offset="0" stop-color="#d9cdfe"/><stop offset="1" stop-color="#a78afe"/></linearGradient><linearGradient id="linear-gradient-3" x1="23.43" y1="-1112.59" x2="23.43" y2="-2503.19" xlink:href="#linear-gradient"/><linearGradient id="linear-gradient-4" x1="69.7" y1="-1112.59" x2="69.7" y2="-2503.19" xlink:href="#linear-gradient"/><linearGradient id="linear-gradient-5" x1="62.42" y1="-828.21" x2="62.42" y2="-1903.99" xlink:href="#linear-gradient"/><linearGradient id="linear-gradient-6" x1="30.73" y1="-828.21" x2="30.73" y2="-1903.99" xlink:href="#linear-gradient"/><linearGradient id="linear-gradient-7" x1="33.93" y1="-134.17" x2="33.93" y2="-919.63" xlink:href="#linear-gradient-2"/><linearGradient id="linear-gradient-8" x1="59.18" y1="-134.17" x2="59.18" y2="-919.63" xlink:href="#linear-gradient-2"/><linearGradient id="linear-gradient-9" x1="46.58" y1="-252.43" x2="46.58" y2="-1398.07" xlink:href="#linear-gradient-2"/><linearGradient id="linear-gradient-10" x1="73.25" y1="-1335.48" x2="73.25" y2="-6658.06" xlink:href="#linear-gradient-2"/><linearGradient id="linear-gradient-11" x1="19.87" y1="-1335.48" x2="19.87" y2="-6658.06" xlink:href="#linear-gradient-2"/><linearGradient id="New_Gradient_Swatch_3" x1="172.29" y1="52.93" x2="226.77" y2="52.93" gradientTransform="matrix(1, 0, 0, 1, 0, 0)" xlink:href="#linear-gradient-2"/><linearGradient id="New_Gradient_Swatch_3-2" x1="212.92" y1="73.36" x2="234.23" y2="73.36" gradientTransform="matrix(1, 0, 0, 1, 0, 0)" xlink:href="#linear-gradient-2"/><linearGradient id="New_Gradient_Swatch_3-3" x1="166.35" y1="59.65" x2="171.47" y2="59.65" gradientTransform="matrix(1, 0, 0, 1, 0, 0)" xlink:href="#linear-gradient-2"/><linearGradient id="New_Gradient_Swatch_3-4" x1="168.33" y1="78.01" x2="186.07" y2="78.01" gradientTransform="matrix(1, 0, 0, 1, 0, 0)" xlink:href="#linear-gradient-2"/><linearGradient id="New_Gradient_Swatch_3-5" x1="172.33" y1="37.46" x2="185.05" y2="37.46" gradientTransform="matrix(1, 0, 0, 1, 0, 0)" xlink:href="#linear-gradient-2"/></defs><g style="clip-path:url(#clip-path)"><path d="M120,160.88A80.44,80.44,0,1,0,39.56,80.44,80.43,80.43,0,0,0,120,160.88Z" transform="translate(0 0)" style="fill:url(#linear-gradient)"/><path d="M166.75,108.28c-.16-.1-.33-.19-.49-.27a3.49,3.49,0,0,0-.53-.22,3.74,3.74,0,0,0-.54-.17,5.3,5.3,0,0,0-.55-.1l2.27-6.35.55.1a5,5,0,0,1,.55.17l.53.22.49.28-1.15,3.18C167.47,106.15,167.09,107.2,166.75,108.28Z" transform="translate(0 0)" style="fill:#d9cdfe"/><path d="M167.9,109.61a1.65,1.65,0,0,0-.16-.36,2.88,2.88,0,0,0-.26-.35,3.61,3.61,0,0,0-.35-.33,3.47,3.47,0,0,0-.38-.29l.26-.73.28-.78.29-.81.3-.83.3-.83.3-.82.28-.79L169,102a4.25,4.25,0,0,1,.43.31,3.82,3.82,0,0,1,.36.34,2.8,2.8,0,0,1,.25.35,1.62,1.62,0,0,1,.17.35Z" transform="translate(0 0)" style="fill:#d9cdfe"/><path d="M166.87,101.14l-2.27,6.35-11.46-1.41,2.19-6.4Z" transform="translate(0 0)" style="fill:#d9cdfe"/><path d="M150.87,106.93,153,100.5l.07-.16a.76.76,0,0,1,.11-.14l.13-.14.16-.11a1.76,1.76,0,0,1,.37-.17,2.16,2.16,0,0,1,.44-.1,4,4,0,0,1,.5,0l.53,0-2.16,6.4a4.89,4.89,0,0,0-.54,0,3.28,3.28,0,0,0-.93.14,2.37,2.37,0,0,0-.36.17l-.17.12-.13.14-.1.14a.89.89,0,0,0-.08.17Z" transform="translate(0 0)" style="fill:#d9cdfe"/><path d="M150.87,106.93l.21-.65.11-.31.22-.65.21-.63.11-.33.22-.63.22-.65.11-.32.22-.64.22-.65.11-.32.22-.65v.14a.38.38,0,0,0,0,.15.38.38,0,0,0,0,.15.43.43,0,0,0,0,.16l-2.17,6.43v-.47A.57.57,0,0,1,150.87,106.93Z" transform="translate(0 0)" style="fill:#fff"/><path d="M165.18,104.36l-2.28,6.38-6-.72,2.24-6.41Z" transform="translate(0 0)" style="fill:#fff"/><path d="M166.36,108.23l-2.31,6.41-1.15-3.9,2.28-6.38Z" transform="translate(0 0)" style="fill:#fff"/><path d="M172.57,110.75l-2.36,6.39-2.31-7.53,2.31-6.34Z" transform="translate(0 0)" style="fill:#d9cdfe"/><path d="M172.57,111.45c-.78,2.14-1.57,4.27-2.36,6.41a.48.48,0,0,1,0-.17v-.36a1.21,1.21,0,0,0,0-.18l2.36-6.4a1.33,1.33,0,0,1,.05.19v.35a.75.75,0,0,1-.05.16Z" transform="translate(0 0)" style="fill:#d9cdfe"/><path d="M166.36,108.23l-2.31,6.41-6-.72,2.27-6.43Z" transform="translate(0 0)" style="fill:#d9cdfe"/><path d="M160.3,107.49,158,113.92l-1.09-3.9,2.24-6.41Z" transform="translate(0 0)" style="fill:#d9cdfe"/><path d="M172.57,111.45l-2.36,6.41-.07.14-.09.13-.12.12-.14.11a1.7,1.7,0,0,1-.35.19,2.26,2.26,0,0,1-.43.11,2.92,2.92,0,0,0-.5,0,4.86,4.86,0,0,1-.54,0l2.36-6.42h.54a2.81,2.81,0,0,0,.5,0,2.26,2.26,0,0,0,.43-.11,2,2,0,0,0,.36-.18l.14-.11.11-.12a1.13,1.13,0,0,0,.1-.13.47.47,0,0,0,.06-.15Z" transform="translate(0 0)" style="fill:#fff"/><path d="M155.11,108.63l-2.24,6.48-2.05-7.58L153,101.1Z" transform="translate(0 0)" style="fill:#fff"/><path d="M170.33,112.26,168,118.68l-11.73-1.37,2.27-6.47Z" transform="translate(0 0)" style="fill:#fff"/><path d="M169,101.91a4.37,4.37,0,0,1,.44.31c.12.11.24.22.35.34a2.88,2.88,0,0,1,.26.35,2,2,0,0,1,.17.36l2.36,7.48a1.13,1.13,0,0,1,.06.36.7.7,0,0,1,0,.32,1,1,0,0,1-.16.29,1.2,1.2,0,0,1-.26.24,2,2,0,0,1-.36.18,2.26,2.26,0,0,1-.43.11,2.81,2.81,0,0,1-.5,0h-.54l-11.82-1.44a5.72,5.72,0,0,1-.57-.11c-.19,0-.38-.1-.57-.17a5.31,5.31,0,0,1-.55-.23,5,5,0,0,1-.5-.29,4.12,4.12,0,0,1-.4-.33,2.89,2.89,0,0,1-.35-.35,2.26,2.26,0,0,1-.26-.37,1.34,1.34,0,0,1-.16-.37L153,101.1a1,1,0,0,1,0-.34.91.91,0,0,1,.06-.32,1.53,1.53,0,0,1,.17-.27,1.42,1.42,0,0,1,.28-.22,1.56,1.56,0,0,1,.37-.17,2.16,2.16,0,0,1,.44-.1,4,4,0,0,1,.5,0l.53,0,11.55,1.44.55.1a5,5,0,0,1,.55.17l.54.22a4.4,4.4,0,0,1,.45.3Zm-2.63,6.32-1.18-3.87-6-.72,1.12,3.88,6.06.72" transform="translate(0 0)" style="fill:#fff"/><path d="M158.51,110.84l-2.27,6.5a4.8,4.8,0,0,1-.57-.11c-.19,0-.38-.1-.57-.17a4.16,4.16,0,0,1-.54-.23c-.17-.08-.33-.18-.5-.28a4.46,4.46,0,0,1-.43-.33,2.81,2.81,0,0,1-.34-.35,1.55,1.55,0,0,1-.26-.37,1.73,1.73,0,0,1-.16-.37l2.25-6.5a1.73,1.73,0,0,0,.16.37,2.26,2.26,0,0,0,.26.37,3.85,3.85,0,0,0,.35.35,4.59,4.59,0,0,0,.44.33,4.91,4.91,0,0,0,.5.28,5.31,5.31,0,0,0,.55.23,3.74,3.74,0,0,0,.57.17A3.47,3.47,0,0,0,158.51,110.84Z" transform="translate(0 0)" style="fill:#fff"/><path d="M177.83,111.58l-2.42,6.36a5.5,5.5,0,0,1-1.51,2.17,8.46,8.46,0,0,1-2.61,1.53,13.93,13.93,0,0,1-3.56.8,20.69,20.69,0,0,1-4.38-.07,27.46,27.46,0,0,1-6.23-1.49,26.47,26.47,0,0,1-5.5-2.76,18.64,18.64,0,0,1-4.16-3.61,10.12,10.12,0,0,1-2.2-4,8.36,8.36,0,0,1-.17-.87,7.56,7.56,0,0,1,0-.83,5.16,5.16,0,0,1,.08-.78,4.61,4.61,0,0,1,.19-.73l2.16-6.45a6.38,6.38,0,0,0-.19.72,5.12,5.12,0,0,0-.06.78,5.77,5.77,0,0,0,0,.83,6.11,6.11,0,0,0,.18.85,10.2,10.2,0,0,0,2.23,4,19.82,19.82,0,0,0,4.2,3.61,28.15,28.15,0,0,0,11.84,4.28,21.57,21.57,0,0,0,4.4.1,14.45,14.45,0,0,0,3.61-.77,8.32,8.32,0,0,0,2.61-1.51,5.35,5.35,0,0,0,1.49-2.15Z" transform="translate(0 0)" style="fill:#a78afe"/><path d="M159.92,96.37a28.39,28.39,0,0,1,11.32,4.09,20.38,20.38,0,0,1,4.16,3.42,11.27,11.27,0,0,1,2.4,3.89,5.7,5.7,0,0,1,.08,3.67,5.61,5.61,0,0,1-2.22,2.77,10.6,10.6,0,0,1-4.17,1.59,19.64,19.64,0,0,1-5.78.08,28.11,28.11,0,0,1-11.83-4.28,19.57,19.57,0,0,1-4.2-3.6,10.23,10.23,0,0,1-2.24-4,5.4,5.4,0,0,1,.2-3.61,5.86,5.86,0,0,1,2.44-2.63,11.5,11.5,0,0,1,4.22-1.44A20.74,20.74,0,0,1,159.92,96.37Zm12.65,14.38-2.37-7.48a1.46,1.46,0,0,0-.16-.36,2.88,2.88,0,0,0-.26-.35c-.11-.12-.23-.23-.35-.34a4.37,4.37,0,0,0-.44-.31,4.53,4.53,0,0,0-.48-.27l-.54-.23a6,6,0,0,0-1.1-.27L155.32,99.7l-.53,0a4.07,4.07,0,0,0-.5,0,3.13,3.13,0,0,0-.44.1,1.76,1.76,0,0,0-.37.17,1.44,1.44,0,0,0-.27.22,1.67,1.67,0,0,0-.18.28.85.85,0,0,0-.06.31,1,1,0,0,0,0,.34l2.1,7.53a1.73,1.73,0,0,0,.16.37c.08.13.17.25.26.37a4.12,4.12,0,0,0,.8.68c.16.1.32.2.49.29l.55.23c.19.06.38.12.57.16a3.82,3.82,0,0,0,.57.11l11.82,1.44a2.44,2.44,0,0,0,.54,0,2.07,2.07,0,0,0,.5,0,1.6,1.6,0,0,0,.43-.11,1.22,1.22,0,0,0,.36-.18.85.85,0,0,0,.26-.24.78.78,0,0,0,.16-.28.76.76,0,0,0,.05-.33,1.34,1.34,0,0,0-.05-.35" transform="translate(0 0)" style="fill:#d9cdfe"/><path d="M166.36,108.23l-1.18-3.87-6-.75,1.12,3.88Z" transform="translate(0 0)" style="fill:#d9cdfe"/><path d="M134.15,60.64H114.7a1.95,1.95,0,0,0-2,1.94V79.42a1.95,1.95,0,0,0,2,2h19.45a2,2,0,0,1,1.39.57,1.94,1.94,0,0,1,.57,1.38v7.22a2,2,0,0,0,.33,1.08,2,2,0,0,0,.88.72,1.9,1.9,0,0,0,1.13.11,2,2,0,0,0,1-.53l19.49-19.49a2,2,0,0,0,.42-.63,1.93,1.93,0,0,0,.15-.75,2,2,0,0,0-.15-.75,2,2,0,0,0-.42-.63L139.45,50.18a2,2,0,0,0-2.13-.42,2,2,0,0,0-1.21,1.8v7.22a1.92,1.92,0,0,1-.61,1.32,2,2,0,0,1-1.35.54Z" transform="translate(0 0)" style="fill:url(#linear-gradient-2)"/><path d="M102.21,111.63a4.23,4.23,0,0,0-1.1.56,6.62,6.62,0,0,0-1,.85,7,7,0,0,0-.86,1,4.63,4.63,0,0,0-.58,1.1l-6.36-6.44a5.06,5.06,0,0,1,.59-1.1,7.34,7.34,0,0,1,1.92-1.89,5.34,5.34,0,0,1,1.11-.58l.72.76.79.8.82.83.83.86C100.11,109.47,101.16,110.55,102.21,111.63Z" transform="translate(0 0)" style="fill:#d9cdfe"/><path d="M88.32,125.33a2.64,2.64,0,0,0-.15.55,1.77,1.77,0,0,0,0,.46,1.53,1.53,0,0,0,.08.37.84.84,0,0,0,.2.29L82,120.63a.84.84,0,0,1-.18-.28,1.09,1.09,0,0,1-.08-.39,1.69,1.69,0,0,1,0-.45,3.08,3.08,0,0,1,.16-.54l6.42,6.36L81.89,119a5.38,5.38,0,0,1,.59-1.11,7.94,7.94,0,0,1,.88-1,8,8,0,0,1,1-.86,5.11,5.11,0,0,1,1.09-.56l6.41,6.39a5,5,0,0,0-1.1.56,6,6,0,0,0-1,.85,7.18,7.18,0,0,0-.87,1,4.63,4.63,0,0,0-.58,1.1Z" transform="translate(0 0)" style="fill:#d9cdfe"/><path d="M103.83,111.76a.86.86,0,0,0-.27-.2,2.49,2.49,0,0,0-.37-.09,3.53,3.53,0,0,0-.46,0,5,5,0,0,0-.52.14l-6.33-6.5a3.3,3.3,0,0,1,.52-.13,1.69,1.69,0,0,1,.45,0,.86.86,0,0,1,.36.08.77.77,0,0,1,.28.19C99.39,107.22,101.93,109.81,103.83,111.76Z" transform="translate(0 0)" style="fill:#d9cdfe"/><path d="M90.43,113.68l6.41,6.44-4.93,1.67L85.5,115.4Z" transform="translate(0 0)" style="fill:#d9cdfe"/><path d="M92.26,108.73l6.36,6.44-1.78,5-6.41-6.44Z" transform="translate(0 0)" style="fill:#d9cdfe"/><path d="M88.42,127l-.64-.63-.33-.31-.64-.64-.64-.63-.32-.32-.65-.64-.64-.64-.33-.32-.64-.64-.65-.64-.32-.32-.65-.64a1,1,0,0,0,.26.18,1.37,1.37,0,0,0,.35.08,3.08,3.08,0,0,0,.43,0,3,3,0,0,0,.49-.13l6.49,6.4a4.05,4.05,0,0,1-.5.12,2.94,2.94,0,0,1-.42,0,2,2,0,0,1-.35-.09A.73.73,0,0,1,88.42,127Z" transform="translate(0 0)" style="fill:#fff"/><path d="M97.49,105.27l.64.65.32.33.63.65,1.59,1.62.63.65.32.33.64.64.63.65.31.32.63.65a.71.71,0,0,1,.18.27,1.12,1.12,0,0,1,.09.36,1.62,1.62,0,0,1,0,.44,3.23,3.23,0,0,1-.14.51l-6.36-6.5a2.73,2.73,0,0,0,.14-.51,1.62,1.62,0,0,0,0-.44,1.55,1.55,0,0,0-.08-.36,1.06,1.06,0,0,0-.17-.26Z" transform="translate(0 0)" style="fill:#fff"/><path d="M88.44,119.05l6.46,6.44L90,127.14l-6.46-6.4Z" transform="translate(0 0)" style="fill:#fff"/><path d="M95.88,105.16a2.43,2.43,0,0,1,1-.16,1,1,0,0,1,.64.26,1,1,0,0,1,.27.63,2.43,2.43,0,0,1-.17,1l-1.82,5-5.33,1.86,1.83-5a5.06,5.06,0,0,1,.59-1.1,7.34,7.34,0,0,1,1.92-1.89,5.34,5.34,0,0,1,1.11-.58Z" transform="translate(0 0)" style="fill:#fff"/><path d="M95.76,111.82l6.42,6.5-5.34,1.8-6.41-6.44Z" transform="translate(0 0)" style="fill:#fff"/><path d="M97.58,106.85l6.36,6.49-1.76,5-6.42-6.5Z" transform="translate(0 0)" style="fill:#fff"/><path d="M88.44,119.05l6.46,6.44-1.83,5.07-6.51-6.45Z" transform="translate(0 0)" style="fill:#d9cdfe"/><path d="M100.81,110.06l6.42,6.55-5,1.71-6.42-6.5Z" transform="translate(0 0)" style="fill:#d9cdfe"/><path d="M93.8,117.21l6.46,6.5-5.36,1.78-6.46-6.44Z" transform="translate(0 0)" style="fill:#fff"/><path d="M93.19,132.28l-6.5-6.46a.81.81,0,0,1-.19-.29,1.3,1.3,0,0,1-.09-.39,1.85,1.85,0,0,1,0-.47,5.12,5.12,0,0,1,.15-.56l6.5,6.45a2.73,2.73,0,0,0-.15.56,1.85,1.85,0,0,0,0,.47A1.24,1.24,0,0,0,93,132,1,1,0,0,0,93.19,132.28Z" transform="translate(0 0)" style="fill:#d9cdfe"/><path d="M102.5,110.19l6.43,6.56a.91.91,0,0,0-.29-.19,1,1,0,0,0-.38-.1,1.77,1.77,0,0,0-.46,0,3.16,3.16,0,0,0-.53.13l-6.42-6.54a3.18,3.18,0,0,1,.53-.14,1.85,1.85,0,0,1,.47,0,1.25,1.25,0,0,1,.37.09.77.77,0,0,1,.28.19Z" transform="translate(0 0)" style="fill:#d9cdfe"/><path d="M93.8,117.21l6.46,6.5-1.81,5.09-6.52-6.5Z" transform="translate(0 0)" style="fill:#fff"/><path d="M98.86,115.47l6.48,6.54-5.08,1.7-6.46-6.5Z" transform="translate(0 0)" style="fill:#fff"/><path d="M93.19,132.28l-6.5-6.46A1.07,1.07,0,0,0,87,126a.85.85,0,0,0,.35.08,1.62,1.62,0,0,0,.44,0,2.36,2.36,0,0,0,.51-.12,5.1,5.1,0,0,0,1.12-.56,7.44,7.44,0,0,0,2-2,5.18,5.18,0,0,0,.6-1.14l6.5,6.49a5.13,5.13,0,0,1-.59,1.14A6.49,6.49,0,0,1,97,131a7,7,0,0,1-1.08.88,5.33,5.33,0,0,1-1.12.56,3.1,3.1,0,0,1-.51.11,1.55,1.55,0,0,1-.43,0,1.06,1.06,0,0,1-.36-.09,1,1,0,0,1-.3-.19Z" transform="translate(0 0)" style="fill:#fff"/><path d="M86.56,124.11l1.87-5,5.37-1.84-1.87,5.1a5.6,5.6,0,0,1-.59,1.14,7.69,7.69,0,0,1-.91,1.07,8.21,8.21,0,0,1-1.07.88,5.17,5.17,0,0,1-1.13.56,2.29,2.29,0,0,1-1,.14,1,1,0,0,1-.64-.31,1.1,1.1,0,0,1-.24-.68,2.54,2.54,0,0,1,.18-1Z" transform="translate(0 0)" style="fill:#fff"/><path d="M102.5,110.19l6.43,6.56a1.12,1.12,0,0,1,.19.29,1.24,1.24,0,0,1,.09.38,1.62,1.62,0,0,1,0,.44,3,3,0,0,1-.13.52,5.14,5.14,0,0,1-.59,1.14,8.24,8.24,0,0,1-.93,1,7,7,0,0,1-1.08.87,4.41,4.41,0,0,1-1.13.56l-6.46-6.48a5.1,5.1,0,0,0,1.14-.58,7.35,7.35,0,0,0,2-2,4.51,4.51,0,0,0,.59-1.13,2.51,2.51,0,0,0,.14-.52,1.69,1.69,0,0,0,0-.45,1.18,1.18,0,0,0-.09-.37A.89.89,0,0,0,102.5,110.19Z" transform="translate(0 0)" style="fill:#fff"/><path d="M100.81,110.06a2.55,2.55,0,0,1,1-.16,1,1,0,0,1,.95.93,2.21,2.21,0,0,1-.17,1,4.51,4.51,0,0,1-.59,1.13,7.35,7.35,0,0,1-2,2,5.1,5.1,0,0,1-1.14.58l-5,1.74-5.36,1.84-4.94,1.69a2.53,2.53,0,0,1-1,.15,1,1,0,0,1-.61-.29,1.07,1.07,0,0,1-.24-.66,2.5,2.5,0,0,1,.19-1,5.38,5.38,0,0,1,.59-1.11,7.47,7.47,0,0,1,1.93-1.9,5,5,0,0,1,1.1-.56l4.92-1.72,5.33-1.86Z" transform="translate(0 0)" style="fill:#fff"/><path d="M98.58,97.82A16.51,16.51,0,0,1,105,96.66a6.91,6.91,0,0,1,4.42,1.67,6.52,6.52,0,0,1,2,4.24,15.67,15.67,0,0,1-1,6.54,33.56,33.56,0,0,1-4,7.66A50.12,50.12,0,0,1,93,130a32.81,32.81,0,0,1-7.66,3.81,14.79,14.79,0,0,1-6.46.82,6.24,6.24,0,0,1-4.11-2.1A7.14,7.14,0,0,1,73.25,128a17.47,17.47,0,0,1,1.32-6.5,35.47,35.47,0,0,1,4-7.33,49.84,49.84,0,0,1,12.69-12.52A34.5,34.5,0,0,1,98.58,97.82Zm.31,17.68a5.1,5.1,0,0,0,1.14-.58,7.35,7.35,0,0,0,2-2,4.51,4.51,0,0,0,.59-1.13,2.21,2.21,0,0,0,.17-1,1.15,1.15,0,0,0-.28-.66,1,1,0,0,0-.67-.27,2.52,2.52,0,0,0-1,.16l-5,1.76,1.82-5a2.26,2.26,0,0,0,.16-1,.94.94,0,0,0-.26-.63,1,1,0,0,0-.65-.26,2.21,2.21,0,0,0-1,.16,5.82,5.82,0,0,0-1.11.57,7.54,7.54,0,0,0-1.92,1.9,5.06,5.06,0,0,0-.59,1.1l-1.84,4.95-4.92,1.72a5.18,5.18,0,0,0-1.1.56,7.79,7.79,0,0,0-1,.86,7.94,7.94,0,0,0-.88,1,4.54,4.54,0,0,0-.59,1.11,2.3,2.3,0,0,0-.19,1,1,1,0,0,0,.24.66,1,1,0,0,0,.61.29,2.59,2.59,0,0,0,1-.15l4.93-1.69-1.87,5a2.41,2.41,0,0,0-.18,1,1,1,0,0,0,.24.68,1,1,0,0,0,.64.31,2.29,2.29,0,0,0,1-.14,5.17,5.17,0,0,0,1.13-.56,8.21,8.21,0,0,0,1.07-.88,7,7,0,0,0,.9-1.07,5.18,5.18,0,0,0,.6-1.14l1.87-5.1,5-1.74" transform="translate(0 0)" style="fill:#d9cdfe"/><path d="M109.72,98.57l6.32,6.6a5.7,5.7,0,0,1,1.21,1.85,8,8,0,0,1,.58,2.4,12.58,12.58,0,0,1-.11,2.94,19.22,19.22,0,0,1-.85,3.4,32.66,32.66,0,0,1-3.9,7.65,48.44,48.44,0,0,1-13.36,13.14A32.05,32.05,0,0,1,92,140.29a18.69,18.69,0,0,1-3.3.72,11.66,11.66,0,0,1-2.83.05,7.78,7.78,0,0,1-2.32-.6,6.09,6.09,0,0,1-1.81-1.14L75.15,133a5.69,5.69,0,0,0,1.77,1.17,8.06,8.06,0,0,0,2.31.57,12.68,12.68,0,0,0,2.82-.08,19.94,19.94,0,0,0,3.29-.79A32.39,32.39,0,0,0,93,130a50.31,50.31,0,0,0,13.42-13.24,33.56,33.56,0,0,0,4-7.66,19.2,19.2,0,0,0,.88-3.41,12.14,12.14,0,0,0,.14-2.89,8.21,8.21,0,0,0-.54-2.39,5.84,5.84,0,0,0-1.15-1.87Z" transform="translate(0 0)" style="fill:#a78afe"/><path d="M121.05,36.28a11.11,11.11,0,0,0-1.65-3.21,11.8,11.8,0,0,0-2.5-2.49,10.58,10.58,0,0,0-3.06-1.53,8,8,0,0,0-3.26-.32l3-2.79a8.21,8.21,0,0,1,3.3.34A10.62,10.62,0,0,1,120,27.83a11.49,11.49,0,0,1,2.53,2.49,10.73,10.73,0,0,1,1.67,3.24Z" transform="translate(0 0)" style="fill:#d9cdfe"/><path d="M119.22,38l-3.14,2.66a2.66,2.66,0,0,0,.62-.72,3.37,3.37,0,0,0,.38-.92,3.7,3.7,0,0,0,.09-1,4.26,4.26,0,0,0-.21-1.13,5.32,5.32,0,0,0-.74-1.56A5.94,5.94,0,0,0,115,34a4.86,4.86,0,0,0-1.44-.72,3.94,3.94,0,0,0-1.56-.15,3.7,3.7,0,0,0-.48.09,3,3,0,0,0-.45.16,3.23,3.23,0,0,0-.41.22,2.42,2.42,0,0,0-.36.27l3-2.76a2.42,2.42,0,0,1,.36-.27c.13-.08.27-.15.41-.22a3,3,0,0,1,.45-.15,2.84,2.84,0,0,1,.49-.1,4,4,0,0,1,1.57.16,5.17,5.17,0,0,1,1.45.72,5.83,5.83,0,0,1,1.24,1.19,5.1,5.1,0,0,1,.79,1.56,4.11,4.11,0,0,1,.22,1.15,3.77,3.77,0,0,1-.09,1.06,3.44,3.44,0,0,1-.38.93,3,3,0,0,1-.62.77Z" transform="translate(0 0)" style="fill:#fff"/><path d="M110.58,28.73a6.37,6.37,0,0,0-1.06.19,6.6,6.6,0,0,0-1,.35,7.5,7.5,0,0,0-.88.48,6.36,6.36,0,0,0-.77.6l3-2.79a5.12,5.12,0,0,1,.78-.61,6.78,6.78,0,0,1,.88-.48,6.29,6.29,0,0,1,1-.34,6.37,6.37,0,0,1,1.06-.19l-1.53,1.4-.6.54-.19.18-.2.17-.18.17C110.82,28.5,110.71,28.67,110.58,28.73Z" transform="translate(0 0)" style="fill:#d9cdfe"/><path d="M119.14,44.42a6,6,0,0,0,1.34-1.55,6.55,6.55,0,0,0,.79-1.94,7.68,7.68,0,0,0,.21-2.24,9.4,9.4,0,0,0-.44-2.41l3.16-2.69a9.58,9.58,0,0,1,.46,2.43,8.58,8.58,0,0,1-.21,2.26,6.69,6.69,0,0,1-.8,2,5.86,5.86,0,0,1-1.34,1.55Z" transform="translate(0 0)" style="fill:#d9cdfe"/><path d="M116.08,40.61a2,2,0,0,1-.34.25,2.82,2.82,0,0,1-.38.21,3.09,3.09,0,0,1-.43.14l-.45.09.36-.31.38-.32.41-.35L116,40l.41-.35.41-.35.39-.33.36-.32a2.57,2.57,0,0,0,.47-.08l.42-.15a2.82,2.82,0,0,0,.38-.21,2.22,2.22,0,0,0,.35-.25Z" transform="translate(0 0)" style="fill:#d9cdfe"/><path d="M114.48,41.3h-.88l3.12-2.67h.88Z" transform="translate(0 0)" style="fill:#d9cdfe"/><path d="M109.42,37.68a4.7,4.7,0,0,1-.2-1.12,3.5,3.5,0,0,1,.09-1,3.36,3.36,0,0,1,.35-.91,3.15,3.15,0,0,1,.59-.72l3.08-2.76a3,3,0,0,0-.59.73,3.2,3.2,0,0,0-.36.9,4,4,0,0,0-.08,1,3.88,3.88,0,0,0,.2,1.12Z" transform="translate(0 0)" style="fill:#d9cdfe"/><path d="M113.6,41.3a4.39,4.39,0,0,1-1.33-.37,5.15,5.15,0,0,1-1.21-.79,5.45,5.45,0,0,1-1-1.1,5.32,5.32,0,0,1-.65-1.36l.35-.32.38-.33.39-.35.41-.35.4-.36.4-.35.38-.34.36-.32a5,5,0,0,0,.66,1.37,5.67,5.67,0,0,0,1,1.13,5.16,5.16,0,0,0,1.23.79,4.2,4.2,0,0,0,1.34.38Z" transform="translate(0 0)" style="fill:#d9cdfe"/><path d="M122.32,41.79c-1.06.89-2.11,1.76-3.18,2.63a5.79,5.79,0,0,1-.72.5,4.79,4.79,0,0,1-.78.4,8.82,8.82,0,0,1-.86.31,7.62,7.62,0,0,1-.93.18,8,8,0,0,1-3.31-.27,10.62,10.62,0,0,1-3.1-1.51,11.47,11.47,0,0,1-2.57-2.54,10.68,10.68,0,0,1-1.66-3.28,9.11,9.11,0,0,1-.41-2.32,7.54,7.54,0,0,1,.19-2.17,6.9,6.9,0,0,1,.72-1.86,6.05,6.05,0,0,1,1.2-1.51l3-2.8a6.38,6.38,0,0,0-1.21,1.53A7,7,0,0,0,108,31a7.9,7.9,0,0,0-.18,2.17,9.28,9.28,0,0,0,.42,2.33,11.09,11.09,0,0,0,1.69,3.32,11.32,11.32,0,0,0,2.6,2.57,10.54,10.54,0,0,0,3.15,1.56,8.37,8.37,0,0,0,3.34.28A7.62,7.62,0,0,0,120,43a8.14,8.14,0,0,0,.87-.31,5.74,5.74,0,0,0,.78-.4,5.11,5.11,0,0,0,.71-.51Z" transform="translate(0 0)" style="fill:#fff"/><path d="M126.43,47.26l-3.22,2.55a13.41,13.41,0,0,1-1.17.8,9.73,9.73,0,0,1-1.29.65,11.76,11.76,0,0,1-1.41.49,13.25,13.25,0,0,1-1.52.32,14,14,0,0,1-5.73-.44A17.75,17.75,0,0,1,106.66,49a20.06,20.06,0,0,1-4.47-4.4,19.27,19.27,0,0,1-2.89-5.72A17.37,17.37,0,0,1,98.58,35a14.11,14.11,0,0,1,.31-3.61,11.85,11.85,0,0,1,1.23-3.2,10.76,10.76,0,0,1,2-2.57h0l.29-.29.3-.29.3-.28.29-.28.3-.29.29-.28.16-.14.29-.29.3-.28.15-.15.3-.29a10.66,10.66,0,0,0-2,2.6,11.81,11.81,0,0,0-1.19,3.19,14,14,0,0,0-.29,3.66,16.26,16.26,0,0,0,.73,4,18.92,18.92,0,0,0,2.88,5.77,20,20,0,0,0,4.5,4.49,17.77,17.77,0,0,0,5.48,2.67,13.9,13.9,0,0,0,5.77.46,12,12,0,0,0,3-.8,9.91,9.91,0,0,0,1.3-.66,10.88,10.88,0,0,0,1.2-.8Z" transform="translate(0 0)" style="fill:#a78afe"/><path d="M111.71,19.8a14.45,14.45,0,0,1,5.66.62,18.13,18.13,0,0,1,5.26,2.67,20.06,20.06,0,0,1,4.33,4.3,19.65,19.65,0,0,1,2.89,5.54,16,16,0,0,1,.78,5.83,12.38,12.38,0,0,1-1.36,5.05,10.69,10.69,0,0,1-3.3,3.83,11.06,11.06,0,0,1-5,1.91,13.9,13.9,0,0,1-5.77-.45,17.77,17.77,0,0,1-5.48-2.67A20.13,20.13,0,0,1,105.23,42a19.23,19.23,0,0,1-2.89-5.78,15.79,15.79,0,0,1-.66-6,12.24,12.24,0,0,1,1.58-5.05,10.61,10.61,0,0,1,3.47-3.61,11.38,11.38,0,0,1,5-1.73ZM119,43.19a6.4,6.4,0,0,0,2.88-1.08,6.06,6.06,0,0,0,1.92-2.17,7.1,7.1,0,0,0,.83-2.95,9.35,9.35,0,0,0-.45-3.4,11,11,0,0,0-1.67-3.27A11.41,11.41,0,0,0,120,27.8a10.48,10.48,0,0,0-3.07-1.52,8.14,8.14,0,0,0-3.29-.34,6.49,6.49,0,0,0-2.89,1,6.21,6.21,0,0,0-2,2.12,7.09,7.09,0,0,0-.89,2.94,9,9,0,0,0,.4,3.46A11.09,11.09,0,0,0,110,38.78a11.32,11.32,0,0,0,2.6,2.57,10.54,10.54,0,0,0,3.15,1.56,8.32,8.32,0,0,0,3.33.28" transform="translate(0 0)" style="fill:#d9cdfe"/><path d="M115,30.41a4,4,0,0,1,1.58.16,5.25,5.25,0,0,1,1.44.72,5.44,5.44,0,0,1,1.25,1.19,5.1,5.1,0,0,1,.79,1.56,4.12,4.12,0,0,1,.21,1.63,3.45,3.45,0,0,1-.39,1.4,2.87,2.87,0,0,1-.93,1,3,3,0,0,1-1.38.5,3.68,3.68,0,0,1-1.58-.14,4.89,4.89,0,0,1-1.49-.72,5.74,5.74,0,0,1-1.2-1.21,5.29,5.29,0,0,1-.8-1.57,4.35,4.35,0,0,1-.2-1.64,3.45,3.45,0,0,1,.42-1.4,3,3,0,0,1,.94-1,3.06,3.06,0,0,1,1.34-.49Z" transform="translate(0 0)" style="fill:#d9cdfe"/><path d="M113.63,25.94a8.21,8.21,0,0,1,3.3.34A10.62,10.62,0,0,1,120,27.83a11.49,11.49,0,0,1,2.53,2.49,10.73,10.73,0,0,1,1.67,3.24,9.32,9.32,0,0,1,.45,3.4,7.05,7.05,0,0,1-.83,2.94,6,6,0,0,1-1.92,2.17A6.4,6.4,0,0,1,119,43.15a8.2,8.2,0,0,1-3.34-.28,10.31,10.31,0,0,1-3.15-1.56,11.32,11.32,0,0,1-2.6-2.57,10.85,10.85,0,0,1-1.69-3.32,9,9,0,0,1-.4-3.46,7,7,0,0,1,.89-2.93,6.15,6.15,0,0,1,2-2.13A6.4,6.4,0,0,1,113.63,25.94Zm4,12.69a3,3,0,0,0,2.31-1.53,3.45,3.45,0,0,0,.39-1.4,4.1,4.1,0,0,0-.21-1.63,5.1,5.1,0,0,0-.79-1.56,5.55,5.55,0,0,0-1.22-1.2,5.28,5.28,0,0,0-1.44-.73,4,4,0,0,0-1.58-.15,3,3,0,0,0-2.32,1.5,3.33,3.33,0,0,0-.41,1.4,4.11,4.11,0,0,0,.19,1.64,5,5,0,0,0,.81,1.56,5.32,5.32,0,0,0,1.24,1.22,4.57,4.57,0,0,0,1.49.72,3.84,3.84,0,0,0,1.58.15" transform="translate(0 0)" style="fill:#fff"/><path d="M27.39,105.24l1.76-14.82-11.44.32Z" transform="translate(0 0)" style="fill:url(#linear-gradient-3)"/><path d="M64,90.42l1.76,14.82,9.68-14.5Z" transform="translate(0 0)" style="fill:url(#linear-gradient-4)"/><path d="M72.68,74.09,52.15,75l1.9,10.55,3-6.36,7.31,3.33Z" transform="translate(0 0)" style="fill:url(#linear-gradient-5)"/><path d="M28.78,82.53l7.31-3.33,3,6.36L41,75l-20.57-.92Z" transform="translate(0 0)" style="fill:url(#linear-gradient-6)"/><path d="M40.35,54.87l.3.23-.32-.81,0-1.38-.38.33L34.26,38.92,4.61,27.86,39.12,53.94,26.22,65.36l-5.77,8.73L41,75Z" transform="translate(0 0)" style="fill:#ebeaf7"/><path d="M75.42,90.42l-9.68,14.82,20.71,5.7,6-20.2Z" transform="translate(0 0)" style="fill:#ebeaf7"/><path d="M53.76,53.65,88.49,27.86,58.87,38.92,53,52.94l-.32-.29,0,1.13-.46,1.07.44-.33L52.15,75l20.53-.92-5.81-8.73Z" transform="translate(0 0)" style="fill:#ebeaf7"/><path d="M53.36,99.22l12.38,6-11.51,5.45.12-3.4-.92-.8H39.67l-.85.8.07,3.4-11.5-5.45,12.35-6L29.07,90.89l-1.68,14.35L17.71,90.42.77,90.74l5.91,20.2,20.71-5.7,4,3.29,8.15,5.66h14l8.19-5.66,4-3.29L64,90.89Z" transform="translate(0 0)" style="fill:#ebeaf7"/><path d="M20.45,74.09l8.62,16.8-.29-8.36Z" transform="translate(0 0)" style="fill:#ebeaf7"/><path d="M64.39,82.53,64,90.89l8.66-16.8Z" transform="translate(0 0)" style="fill:#ebeaf7"/><path d="M41.49,98,42,81.61,41,75,39.08,85.56Z" transform="translate(0 0)" style="fill:#ebeaf7"/><path d="M51.6,98l2.45-12.45L52.15,75l-1,6.57Z" transform="translate(0 0)" style="fill:#ebeaf7"/><path d="M36.05,79.2l-7.27,3.33,10.3,3Z" transform="translate(0 0)" style="fill:url(#linear-gradient-7)"/><path d="M54,85.56l10.33-3-7.3-3.33Z" transform="translate(0 0)" style="fill:url(#linear-gradient-8)"/><path d="M51.6,98H41.49l-1.75,1.21-.92,8.07.85-.8H53.43l.92.8-1-8.07Z" transform="translate(0 0)" style="fill:url(#linear-gradient-9)"/><path d="M90,56.6l3.1-14.91L88.49,27.86,53.36,53.93,66.87,65.36,86,71,90.21,66l-1.83-1.31L91.31,62,89,60.29,92,58.06Z" transform="translate(0 0)" style="fill:url(#linear-gradient-10)"/><path d="M4.61,27.86,0,41.69,3.1,56.6l-2,1.46,2.93,2.23L1.83,62l2.92,2.67L2.92,66,7.12,71l19.1-5.59L39.74,53.93Z" transform="translate(0 0)" style="fill:url(#linear-gradient-11)"/><path d="M54.35,107.29l-1-8.07,12.38,6-11.51,5.45Zm-15.46,3.4-.07-3.4.92-8.07-12.31,6Zm25.5-28.15-10.34,3L51.6,98l1.76,1.21L64,90.9Zm-35.61,0,.29,8.36,10.67,8.33L41.49,98,39.08,85.57Zm63.62,8.2L86,71l-19.1-5.59,5.78,8.73L64,90.89l11.4-.15ZM26.22,65.36,7.12,71,.77,90.74H17.71l11.36.15-8.62-16.8ZM52.15,75l1.21-21.07,5.55-15H34.26l5.48,15L41,75l.44,6.65V98h10.1l.07-16.36Z" transform="translate(0 0)" style="fill:#fff"/></g><path d="M236.72,60.44c0-.12.07-.24.1-.36a1.35,1.35,0,0,0-.67-.93c-.64-.32-1.4-.38-2.07-.69-2.64-1.24-4-3.83-4.9-6.45q-.9-2.44-1.65-4.93c.1-.37.18-.74.27-1.11s.15-.75.22-1.12.14-.75.19-1.13.11-.75.15-1.13.08-.75.11-1.13.05-.76.07-1.14,0-.76,0-1.14,0-.76,0-1.14,0-.76-.05-1.14-.05-.76-.09-1.14-.08-.76-.13-1.13-.11-.76-.18-1.13-.13-.75-.21-1.12-.16-.75-.25-1.12-.19-.73-.29-1.1-.21-.73-.33-1.09a25.11,25.11,0,0,0-2.2-5.14,4.41,4.41,0,0,0-2.48-2.23,3,3,0,0,0-.84-.07,3.21,3.21,0,0,0-1.09.29,14.32,14.32,0,0,0-2.34,1.54,72.56,72.56,0,0,0-9.75,9,43.77,43.77,0,0,0-17.44,0c-2.51-2.53-10.08-10.6-13.48-10.67a3.21,3.21,0,0,0-2.32,1.05,10.93,10.93,0,0,0-2.15,3.61c-.11.26-.22.53-.32.79s-.2.53-.29.8-.19.54-.27.81-.18.54-.26.81-.15.54-.23.82l-.21.82c-.07.28-.13.55-.19.83s-.12.55-.17.83-.11.56-.15.84-.09.56-.13.84-.07.56-.11.85-.06.56-.08.84-.05.57-.07.85,0,.57,0,.85,0,.57,0,.85,0,.57,0,.85a34,34,0,0,0,.93,8.17c-1,3.28-2.67,8.71-5.87,10.42a9,9,0,0,1-3.57.88A10,10,0,0,0,166.23,65,17.16,17.16,0,0,0,164,68.4c.44,1.95.73,3.92,1.3,5.84a44,44,0,0,0,10,17.09c.94,1,2,2,3,2.89a60,60,0,0,0,14.17,9.44c1.1.53,2.22,1,3.34,1.48s2.58,1.42,3.87,1.32,3.28-1.18,4.45-1.7a60.26,60.26,0,0,0,17-11,49.66,49.66,0,0,0,4.45-4.61,42.63,42.63,0,0,0,8.81-16.88,11.23,11.23,0,0,0,.63-3.57c-.13-1.48-1.53-2.68-2.31-3.86A8.49,8.49,0,0,0,236.72,60.44Z" transform="translate(0 0)" style="fill:#361e21"/><path d="M164.85,60.61c.25-.06.52-.11.77-.19,2.41-.72,4.14-3.1,5.19-5.26.31-.65.5-1.37.85-2l0,0c-.2,1-.36,2-.51,2.94-1,1.85-2,4.23-4.09,4.93l-.74.21a4.79,4.79,0,0,0,2.93,1.89,3,3,0,0,1,.89.17,4.68,4.68,0,0,1-2.7-.09A4.6,4.6,0,0,1,164.85,60.61Z" transform="translate(0 0)" style="fill:#fefefe"/><path d="M219,28.77a7,7,0,0,0,.57-.75,10.07,10.07,0,0,1,1.75-1.88v.06c-.19,1-.66,2-.89,3-.16.69-.28,1.37-.38,2.07s-.17,1.39-.22,2.09,0,1.11-.07,1.67a6.06,6.06,0,0,1-.05-.85,8.22,8.22,0,0,0-3.49,2.22C216.32,33.48,217.7,31.24,219,28.77Z" transform="translate(0 0)" style="fill:#e2d2cd"/><path d="M177.27,26.48a1.62,1.62,0,0,1,.54,0c.34.13.78.76,1.09.66l.24.23c2.29,2.61,3,5.72,3.42,9-.46-.54-2.08-2.22-2.76-2.25a.31.31,0,0,0-.14,0,.48.48,0,0,0-.1.17,8.35,8.35,0,0,0-.26-1.48A18.68,18.68,0,0,0,177.27,26.48Z" transform="translate(0 0)" style="fill:#e2d2cd"/><path d="M208.71,80.16a3.79,3.79,0,0,1-1.33.24v0c-.5-.09-1.07.08-1.6,0-.44.26-.86.56-1.31.79a11.09,11.09,0,0,1-5,1.09,12.3,12.3,0,0,1-6-1.78c-.36.15-.92-.11-1.21.11s-.83,0-1.18-.1a28,28,0,0,1-11.37-5.12c0,.86,0,1.72.08,2.58s.16,1.47.19,2.2a2.46,2.46,0,0,0,0,.54,1,1,0,0,1,.07-.45,13,13,0,0,1,2.75,2c.32.25.67.47,1,.69,1,.64,1.91,1.34,2.91,1.91s2.08,1.07,3.06,1.71c3.1,2,6.51,5.18,8.1,8.57a30.39,30.39,0,0,1,1.62,5.28,2.66,2.66,0,0,0,.11-.47,20,20,0,0,1,1.79-5.5c1.7-3.27,4.8-5.85,7.83-7.85,1.27-.84,2.65-1.5,3.88-2.41a17.31,17.31,0,0,0,6.35-8.64C216.17,77.52,212.62,79.57,208.71,80.16Z" transform="translate(0 0)" style="fill:#e2d2cd"/><path d="M171.52,63.48c.3,1,.58,2,1,2.9a20.91,20.91,0,0,0,5,7c.71.68,1.51,1.25,2.21,1.94,0,.86,0,1.72.08,2.58s.16,1.47.19,2.2a25.1,25.1,0,0,1-4.9-5.06,19,19,0,0,1-3.46-9.34A8.42,8.42,0,0,1,171.52,63.48Z" transform="translate(0 0)" style="fill:#d6110b"/><path d="M222.92,70.39c3.2-4.42,4.47-8,3.57-13.51a26.75,26.75,0,0,0-6.25-13.32,12.84,12.84,0,0,0-2-1.94,15.65,15.65,0,0,0-3.63-2.79v0c0-.09.05-.18.08-.27s.09-.35.13-.52c.14-.58.26-1.17.43-1.74a27.79,27.79,0,0,1,1.48-3.93l.12-.26.1-.2a21.73,21.73,0,0,1,1.25-2.14,6.17,6.17,0,0,1,.72-1,1.29,1.29,0,0,0,.15-.17l0,0,.08-.12a.76.76,0,0,0,.08-.11l0,0c.07-.09.13-.19.19-.26a10.07,10.07,0,0,1,1.75-1.88l.06-.05,0,0,0,0,.05,0,.06-.05.25-.2a6.14,6.14,0,0,1,1,1.58,27,27,0,0,1,2.6,11.14c0,2.5-.2,6.29-1.44,8.48a19.36,19.36,0,0,1,1,1.76c.2-.57.39-1.14.55-1.72s.32-1.17.45-1.76.25-1.18.35-1.78.17-1.2.23-1.8a30.57,30.57,0,0,0-2.24-14.23,11.86,11.86,0,0,0-1.69-3.23,1.25,1.25,0,0,0-.82-.53c-1.09,0-4.29,2.75-5.14,3.57a16.26,16.26,0,0,0-2,1.64,77.41,77.41,0,0,0-5.83,5.91c-1.36-.26-2.69-.6-4.06-.82a34.46,34.46,0,0,0-14.57.79c-.69-.68-1.3-1.43-2-2.14a39.75,39.75,0,0,0-5.85-5.39c-1-1-3.66-3.36-5.08-3.33a1.57,1.57,0,0,0-1.07.58A7.64,7.64,0,0,0,175,26.52a28,28,0,0,0-2.59,12.18,24.75,24.75,0,0,0,.56,7.42c.21,1,.49,2,.71,3A13.7,13.7,0,0,0,174.84,47c-.21-.88-.48-1.74-.67-2.62a26.42,26.42,0,0,1-.54-5.95c.05-3.24,1.14-9.81,3.5-12.1a.61.61,0,0,1,.5-.15,2.63,2.63,0,0,1,1.27,1l.24.23a4.48,4.48,0,0,1,1.11,1.26c.18.25.35.5.51.76s.33.52.48.78.3.54.44.81.27.55.4.82.24.56.35.85.22.57.32.86.19.58.27.88.16.59.23.88a19.6,19.6,0,0,1,.42,2.39c.06.48.06,1,.15,1.44a35.05,35.05,0,0,0-3.48,2.69l-.38.36-.37.36-.36.37-.36.38c-.12.12-.23.25-.35.38l-.33.39c-.12.13-.23.27-.34.4l-.32.4-.31.42-.31.41c-.1.14-.2.28-.29.43s-.2.28-.29.43-.19.29-.28.43l-.27.44c-.09.15-.18.3-.26.45s-.17.3-.25.45-.17.31-.25.46-.15.31-.23.46-.15.31-.22.47-.15.31-.22.47-.14.32-.2.48-.13.31-.2.47l-.18.49-.18.49c-.05.16-.11.32-.16.49l-.15.49-.15.5c0,.16-.09.33-.13.5s-.09.33-.13.5-.07.34-.11.5-.07.34-.1.51-.07.34-.1.51a15.67,15.67,0,0,0,.15,6.54h0a9.57,9.57,0,0,0,.6,2.17c1.59,4.33,5,8.12,8.59,10.93a23.56,23.56,0,0,0,5.54,3.36,34.64,34.64,0,0,1,3.63,1.34c.35.08.86.29,1.18.1s.85,0,1.21-.11a12.3,12.3,0,0,0,6,1.78,11.09,11.09,0,0,0,5-1.09c.45-.23.87-.53,1.31-.79.53.09,1.1-.08,1.6,0v0a3.79,3.79,0,0,0,1.33-.24c.57-.38,2.72-.85,3.59-1.22A27,27,0,0,0,222.92,70.39Zm-45-24.26.33-.5Zm1.86-2.61c.29-.36.59-.72.9-1.07C180.39,42.8,180.09,43.16,179.8,43.52Zm2.55-2.73.17-.15ZM184.17,39l0,.06Zm0,0a.08.08,0,0,1,0,0A.08.08,0,0,0,184.2,38.94Z" transform="translate(0 0)" style="fill:url(#New_Gradient_Swatch_3)"/><path d="M230.16,63.36a5.34,5.34,0,0,0,4.07-2.69c-2.86-.91-4.67-3-6-5.6-.18-.34-.35-.69-.51-1A46.68,46.68,0,0,1,228,58.9,19.54,19.54,0,0,1,224,71.23a24.52,24.52,0,0,1-4.32,4.15,22,22,0,0,1-.43,5.48C218.53,84.17,216.91,89,214,91a6.89,6.89,0,0,1-1,.55c3.39-.1,5.9-2,8.13-4.39.45-.48.88-1,1.32-1.48a40.1,40.1,0,0,1-2.19,4.28c-.61,1-1.34,1.87-2,2.78.49-.32,1-.64,1.44-1a14.09,14.09,0,0,1,2.36-1.81A24.46,24.46,0,0,0,225.35,86a39.49,39.49,0,0,0,7.58-17.22c-.7-.92-1.46-1.78-2.17-2.68s-1.29-1.71-2-2.54l0-.1A3.72,3.72,0,0,1,230.16,63.36Z" transform="translate(0 0)" style="fill:url(#New_Gradient_Swatch_3-2)"/><path d="M170.17,63.25l1.3-.15c-.09-.39-.17-.79-.23-1.18s-.12-.8-.16-1.2-.06-.81-.07-1.21,0-.8,0-1.21c0-.75.14-1.49.15-2.25-1,1.85-2,4.23-4.09,4.93l-.74.21a4.79,4.79,0,0,0,2.93,1.89A3,3,0,0,1,170.17,63.25Z" transform="translate(0 0)" style="fill:url(#New_Gradient_Swatch_3-3)"/><path d="M178.72,87.3a12.34,12.34,0,0,0,7.35,4.22,13.62,13.62,0,0,1-1.66-1.15c-2.31-2-3.52-5.24-4.15-8.19-.11-.5-.19-1-.25-1.52a2.46,2.46,0,0,1,0-.54c0-.73-.13-1.47-.19-2.2s-.09-1.72-.08-2.58c-.7-.69-1.5-1.26-2.21-1.94a20.91,20.91,0,0,1-5-7c-.38-.93-.66-1.94-1-2.9a11.16,11.16,0,0,0-3.17,8.07c.37,6.72,5.88,15.18,10.79,19.53.58.51,1.17,1,1.77,1.45-.53-.79-1.1-1.58-1.58-2.4a24.23,24.23,0,0,1-2-4.68l0,0C177.91,86,178.24,86.73,178.72,87.3Z" transform="translate(0 0)" style="fill:url(#New_Gradient_Swatch_3-4)"/><path d="M187.13,50.91a4,4,0,0,1,2.27.51c1.71,1,2.41,3.15,2.89,4.95a6.55,6.55,0,0,0-1.42-1.17c-.17-.08-.22-.05-.39,0a3.06,3.06,0,0,1-2,.5l-.12,0-.12,0-.12,0-.12,0-.11,0-.12-.05-.11,0-.1-.06-.11-.07-.1-.07-.09-.08-.1-.08-.08-.08-.09-.09-.08-.1a.86.86,0,0,1-.07-.1,2.77,2.77,0,0,1-.34-2.26,17.12,17.12,0,0,0-1.93-.81A6.8,6.8,0,0,1,187.13,50.91Z" transform="translate(0 0)" style="fill:#361e21"/><path d="M211.32,51a9.53,9.53,0,0,1,3.3.51,5.15,5.15,0,0,0-1.57,1c-.84.92-.78,2.32-2,3a3.2,3.2,0,0,1-2.28.12,7.14,7.14,0,0,1-.82-.43,9.54,9.54,0,0,0-1.52,1.16,10.63,10.63,0,0,1,1.64-3.74A4.6,4.6,0,0,1,211.32,51Z" transform="translate(0 0)" style="fill:#361e21"/><path d="M177.2,25.77c1.58.19,2.53,1.32,3.46,2.51a23.09,23.09,0,0,1,4.39,10.06,2.61,2.61,0,0,0-.83.55l-.4.25c-.09-.47-.09-1-.15-1.44a19.6,19.6,0,0,0-.42-2.39c-.07-.29-.15-.59-.23-.88s-.17-.59-.27-.88-.2-.58-.32-.86-.23-.57-.35-.85-.26-.55-.4-.82-.29-.54-.44-.81-.31-.52-.48-.78-.33-.51-.51-.76a4.48,4.48,0,0,0-1.11-1.26l-.24-.23a2.63,2.63,0,0,0-1.27-1,.61.61,0,0,0-.5.15c-2.36,2.29-3.45,8.86-3.5,12.1a26.42,26.42,0,0,0,.54,5.95c.19.88.46,1.74.67,2.62a13.7,13.7,0,0,1-1.14,2.13c-.22-1-.5-2-.71-3a24.75,24.75,0,0,1-.56-7.42c0,.32,0,.65,0,1,.29-1.28.44-2.59.72-3.88.44-2.07,2.15-8.82,3.94-10Z" transform="translate(0 0)" style="fill:url(#New_Gradient_Swatch_3-5)"/><path d="M199.6,37.12v0h0Z" transform="translate(0 0)" style="fill:#fefefe"/><path d="M188.37,70.39A13.36,13.36,0,0,0,191,76.62a10.93,10.93,0,0,0,7.27,4.11,10.61,10.61,0,0,0,7.91-2.2,13.26,13.26,0,0,0,4.61-7.35,15.36,15.36,0,0,0,.25-1.91l-.14,0a.79.79,0,0,1,.16-.08,10.09,10.09,0,0,1,.05,2.69c-.39,3.87-2.42,6.17-5.32,8.51-.44.26-.86.56-1.31.79a11.09,11.09,0,0,1-5,1.09,12.3,12.3,0,0,1-6-1.78,13.3,13.3,0,0,1-3.38-3.27A9.64,9.64,0,0,1,188.37,70.39Z" transform="translate(0 0)" style="fill:#361e21"/><path d="M198.59,65.24a7.92,7.92,0,0,1,4.37.9,2.76,2.76,0,0,1,1.54,1.57,4.16,4.16,0,0,1-.58,3,6.24,6.24,0,0,1-4.17,2.86,4.62,4.62,0,0,0,.09.65,2.63,2.63,0,0,0,1.22,1.55,6.18,6.18,0,0,0,4.79.33c-.22.16-.45.32-.68.46-1.55.92-3.22.49-4.85.09-1.24-.3-2.48.31-3.7.45A4.44,4.44,0,0,1,193.1,76a8.45,8.45,0,0,0,.81.26,5.53,5.53,0,0,0,4.06-.58,3,3,0,0,0,1.32-2.11,7.52,7.52,0,0,1-2.9-1.29,4.86,4.86,0,0,1-1.92-3.07.88.88,0,0,1,0-.16c0-.05,0-.1,0-.16v-.15c0-.06,0-.11,0-.16s0-.1,0-.16a.77.77,0,0,1,0-.15l0-.16a.83.83,0,0,0,0-.15s0-.1.05-.15,0-.1,0-.15l.06-.14.07-.14c0-.05.05-.1.08-.14l.08-.13L195,67a.64.64,0,0,1,.1-.13A4.92,4.92,0,0,1,198.59,65.24Z" transform="translate(0 0)" style="fill:#361e21"/><path d="M208.85,34.76c-1.36-.26-2.69-.6-4.06-.82a34.46,34.46,0,0,0-14.57.79c-.69-.68-1.3-1.43-2-2.14a39.75,39.75,0,0,0-5.85-5.39,26.46,26.46,0,0,0,2.87,3q1.59,1.77,3.07,3.61c.65.82,1.27,1.68,2,2.47a33.68,33.68,0,0,1,18.7.13c.58-.78,1.11-1.59,1.7-2.37.85-1.12,1.75-2.22,2.67-3.29.41-.47.83-.93,1.27-1.37a12.28,12.28,0,0,0,2-2.14,16.26,16.26,0,0,0-2,1.64A77.41,77.41,0,0,0,208.85,34.76Z" transform="translate(0 0)" style="fill:#fff"/><path d="M177.27,26.48a1.62,1.62,0,0,1,.54,0c.34.13.78.76,1.09.66a2.63,2.63,0,0,0-1.27-1,.61.61,0,0,0-.5.15c-2.36,2.29-3.45,8.86-3.5,12.1a26.42,26.42,0,0,0,.54,5.95c.19.88.46,1.74.67,2.62a34.89,34.89,0,0,1,3.83-4.73,9.63,9.63,0,0,1-1.31-6.62,7.16,7.16,0,0,0,1.81,3.77,15.9,15.9,0,0,1,.07-3.16c.09-.64.28-1.26.32-1.91a8.35,8.35,0,0,0-.26-1.48A18.68,18.68,0,0,0,177.27,26.48Z" transform="translate(0 0)" style="fill:#fff"/><path d="M225.37,38.45a27,27,0,0,0-2.6-11.14,6.14,6.14,0,0,0-1-1.58,3.83,3.83,0,0,0-.48.41v.06c-.19,1-.66,2-.89,3-.16.69-.28,1.37-.38,2.07s-.17,1.39-.22,2.09,0,1.11-.07,1.67a15.48,15.48,0,0,0,1,4.39,19.49,19.49,0,0,0,1.45-3.76,7.51,7.51,0,0,1-.07,1.42,11.91,11.91,0,0,1-1.8,5.37,27.53,27.53,0,0,1,3.62,4.51C225.17,44.74,225.41,41,225.37,38.45Z" transform="translate(0 0)" style="fill:#fff"/><path d="M189.65,52.69a191073090006.65,191073090006.65,0,0,1,0-.14l0-.07,0-.06,0-.05a1,1,0,0,0-.84-.27h-.08a1,1,0,0,0-.52.67.77.77,0,0,0,.13.57,1,1,0,0,0,.56.34,2.29,2.29,0,0,0,.37,0,1.15,1.15,0,0,0,.55-.79.25.25,0,0,0,0-.14A.15.15,0,0,0,189.65,52.69Z" transform="translate(0 0)" style="fill:#fff"/><path d="M210.86,52.13a.84.84,0,0,0-.27,0c-.29.18-.54.33-.62.69a.72.72,0,0,0,.1.57,1.15,1.15,0,0,0,.79.4.93.93,0,0,0,.59-.52.82.82,0,0,0,0-.67A.88.88,0,0,0,210.86,52.13Z" transform="translate(0 0)" style="fill:#fff"/><path d="M191.56,47.31a7.83,7.83,0,0,0-3.08-.78,1.55,1.55,0,0,0-1,.54.74.74,0,0,0-.07.58c.31,1.24,2.48,2.53,3.56,3.13a4.57,4.57,0,0,0,1.59.59,1.14,1.14,0,0,0,.82-.49,2.17,2.17,0,0,0,.13-1.64A3.6,3.6,0,0,0,191.56,47.31Z" transform="translate(0 0)" style="fill:#fff"/><path d="M211.42,46.82a4.29,4.29,0,0,0-1.71-.07A5.53,5.53,0,0,0,206,48.49a2.34,2.34,0,0,0-.52,1.7,1.34,1.34,0,0,0,.46.92,1.3,1.3,0,0,0,.95.23,2.47,2.47,0,0,0,.79-.27c1.11-.58,3.92-2,4.33-3.18a.81.81,0,0,0,0-.63A.88.88,0,0,0,211.42,46.82Z" transform="translate(0 0)" style="fill:#fff"/><path d="M198.29,66.61a3.49,3.49,0,0,0-2.57.9,1.93,1.93,0,0,0-.4,1.43,2.67,2.67,0,0,0,1.05,1.78,8.1,8.1,0,0,0,.85.53A6.63,6.63,0,0,1,196.16,70a2,2,0,0,1-.16-1.6,1.9,1.9,0,0,1,1.14-1,10.61,10.61,0,0,1,4-.38A7.51,7.51,0,0,0,198.29,66.61Z" transform="translate(0 0)" style="fill:#fff"/></svg>