<svg id="Layer_1" data-name="Layer 1" xmlns="http://www.w3.org/2000/svg" xmlns:xlink="http://www.w3.org/1999/xlink" viewBox="0 0 233.42 160.89"><defs><clipPath id="clip-path" transform="translate(0 0.01)"><rect width="240" height="160.88" style="fill:none"/></clipPath><linearGradient id="linear-gradient" x1="96.74" y1="163.81" x2="142.38" y2="2.2" gradientTransform="matrix(1, 0, 0, -1, 0, 161.89)" gradientUnits="userSpaceOnUse"><stop offset="0" stop-color="#d34255"/><stop offset="1" stop-color="#97358a"/></linearGradient><linearGradient id="linear-gradient-2" x1="127.72" y1="152.45" x2="170.67" y2="33.73" gradientTransform="matrix(1, 0, 0, -1, 0, 161.89)" gradientUnits="userSpaceOnUse"><stop offset="0" stop-color="#4c58cb"/><stop offset="1" stop-color="#68319e"/></linearGradient><linearGradient id="linear-gradient-3" x1="240.88" y1="-279.46" x2="430.98" y2="-1095.77" xlink:href="#linear-gradient-2"/><linearGradient id="linear-gradient-4" x1="1433.59" y1="-4708.33" x2="2176.59" y2="-7454.23" xlink:href="#linear-gradient-2"/><linearGradient id="linear-gradient-5" x1="1019.97" y1="-2526.67" x2="3277.77" y2="-8788.97" xlink:href="#linear-gradient-2"/><linearGradient id="linear-gradient-6" x1="864.86" y1="-1880.32" x2="2687.56" y2="-6767.4" xlink:href="#linear-gradient-2"/><linearGradient id="linear-gradient-7" x1="322.46" y1="-425.28" x2="824.36" y2="-1770.77" xlink:href="#linear-gradient-2"/><linearGradient id="linear-gradient-8" x1="23.43" y1="104.24" x2="23.43" y2="36.54" gradientTransform="matrix(1, 0, 0, -1, 0, 161.89)" gradientUnits="userSpaceOnUse"><stop offset="0" stop-color="#ebeaf7"/><stop offset="1" stop-color="#d9cdfe"/></linearGradient><linearGradient id="linear-gradient-9" x1="69.7" y1="-1112.61" x2="69.7" y2="-2503.21" xlink:href="#linear-gradient-8"/><linearGradient id="linear-gradient-10" x1="62.42" y1="-828.21" x2="62.42" y2="-1904.01" xlink:href="#linear-gradient-8"/><linearGradient id="linear-gradient-11" x1="30.73" y1="-828.21" x2="30.73" y2="-1904.01" xlink:href="#linear-gradient-8"/><linearGradient id="linear-gradient-12" x1="1315.48" y1="-1962" x2="887.13" y2="-1287.9" xlink:href="#linear-gradient-2"/><linearGradient id="linear-gradient-13" x1="1359.23" y1="-1963.59" x2="930.84" y2="-1289.59" xlink:href="#linear-gradient-2"/><linearGradient id="linear-gradient-14" x1="624.09" y1="-1966.5" x2="437.69" y2="-1285.5" xlink:href="#linear-gradient-2"/><linearGradient id="linear-gradient-15" x1="592.28" y1="-1967.03" x2="406.08" y2="-1285.83" xlink:href="#linear-gradient-2"/><linearGradient id="linear-gradient-16" x1="3402.4" y1="-7065.42" x2="1301.21" y2="-2601.12" xlink:href="#linear-gradient-2"/><linearGradient id="linear-gradient-17" x1="1069.51" y1="-3477.13" x2="453.81" y2="-1275.87" xlink:href="#linear-gradient-2"/><linearGradient id="linear-gradient-18" x1="3452.31" y1="-7060.7" x2="1348.41" y2="-2599.6" xlink:href="#linear-gradient-2"/><linearGradient id="linear-gradient-19" x1="611.5" y1="-4283.1" x2="252.2" y2="-1581.6" xlink:href="#linear-gradient-2"/><linearGradient id="linear-gradient-20" x1="1498.58" y1="-1999.58" x2="582.26" y2="-705.98" xlink:href="#linear-gradient-2"/><linearGradient id="linear-gradient-21" x1="1538.88" y1="-2007.13" x2="624.09" y2="-709.13" xlink:href="#linear-gradient-2"/><linearGradient id="linear-gradient-22" x1="1383.63" y1="-398.69" x2="548.3" y2="-103.69" xlink:href="#linear-gradient-2"/><linearGradient id="linear-gradient-23" x1="1371.94" y1="-380.34" x2="551.03" y2="-96.94" xlink:href="#linear-gradient-2"/><linearGradient id="linear-gradient-24" x1="90.93" y1="-149.48" x2="295.77" y2="-966.48" xlink:href="#linear-gradient-2"/><linearGradient id="linear-gradient-25" x1="115.99" y1="-149.56" x2="320.19" y2="-966.95" xlink:href="#linear-gradient-2"/><linearGradient id="linear-gradient-26" x1="127.26" y1="-276" x2="417.44" y2="-1472.25" xlink:href="#linear-gradient-2"/><linearGradient id="linear-gradient-27" x1="682.18" y1="-1268.21" x2="2851.28" y2="-6197.94" xlink:href="#linear-gradient-2"/><linearGradient id="linear-gradient-28" x1="625.15" y1="-1269.26" x2="2795.57" y2="-6197.96" xlink:href="#linear-gradient-2"/><linearGradient id="New_Gradient_Swatch_4" x1="171.45" y1="56.04" x2="223.76" y2="56.04" gradientTransform="matrix(1, 0, 0, 1, 0, 0)" xlink:href="#linear-gradient-2"/><linearGradient id="New_Gradient_Swatch_4-2" x1="210.46" y1="75.66" x2="230.93" y2="75.66" gradientTransform="matrix(1, 0, 0, 1, 0, 0)" xlink:href="#linear-gradient-2"/><linearGradient id="New_Gradient_Swatch_4-3" x1="165.74" y1="62.49" x2="170.65" y2="62.49" gradientTransform="matrix(1, 0, 0, 1, 0, 0)" xlink:href="#linear-gradient-2"/><linearGradient id="New_Gradient_Swatch_4-4" x1="167.64" y1="80.12" x2="184.68" y2="80.12" gradientTransform="matrix(1, 0, 0, 1, 0, 0)" xlink:href="#linear-gradient-2"/><linearGradient id="New_Gradient_Swatch_4-5" x1="171.48" y1="41.18" x2="183.7" y2="41.18" gradientTransform="matrix(1, 0, 0, 1, 0, 0)" xlink:href="#linear-gradient-2"/></defs><g style="clip-path:url(#clip-path)"><path d="M120,160.88A80.45,80.45,0,1,0,39.56,80.44,80.44,80.44,0,0,0,120,160.88Z" transform="translate(0 0.01)" style="fill:url(#linear-gradient)"/><path d="M166.75,108.28a4.67,4.67,0,0,0-.49-.27,4.93,4.93,0,0,0-.53-.22,4.84,4.84,0,0,0-.54-.17l-.55-.1,2.27-6.34a3.66,3.66,0,0,1,.56.1,5.52,5.52,0,0,1,.54.16l.54.23a4.53,4.53,0,0,1,.48.27l-1.15,3.19c-.41,1-.79,2.07-1.13,3.15Z" transform="translate(0 0.01)" style="fill:#d9cdfe"/><path d="M167.9,109.61a1.49,1.49,0,0,0-.17-.36,1.77,1.77,0,0,0-.26-.35,3.64,3.64,0,0,0-.34-.34,4,4,0,0,0-.39-.29l.26-.72.29-.78.29-.81.3-.83.3-.83.3-.82.28-.79L169,102a4.35,4.35,0,0,1,.43.32,3.61,3.61,0,0,1,.35.33,1.83,1.83,0,0,1,.26.36,1.62,1.62,0,0,1,.17.35l-2.34,6.29Z" transform="translate(0 0.01)" style="fill:#d9cdfe"/><path d="M166.87,101.14l-2.27,6.34-11.46-1.4,2.19-6.41Z" transform="translate(0 0.01)" style="fill:#d9cdfe"/><path d="M150.87,106.93l2.17-6.42a.46.46,0,0,1,.07-.16,1.3,1.3,0,0,1,.1-.15l.14-.13.15-.12a1.76,1.76,0,0,1,.37-.17,3.48,3.48,0,0,1,.44-.1,4.19,4.19,0,0,1,.5,0,4.89,4.89,0,0,1,.54,0l-2.17,6.41a3.23,3.23,0,0,0-.53,0,3.34,3.34,0,0,0-.94.14,3,3,0,0,0-.36.18l-.16.11a.86.86,0,0,0-.13.14.71.71,0,0,0-.1.14A.56.56,0,0,0,150.87,106.93Z" transform="translate(0 0.01)" style="fill:#d9cdfe"/><path d="M150.87,106.93l.22-.64.1-.32.22-.64.22-.64.11-.32.21-.64.23-.65.1-.32.22-.64.22-.65.11-.31.22-.65v.28a.43.43,0,0,0,0,.16v.15l-2.17,6.43v-.46S150.87,107,150.87,106.93Z" transform="translate(0 0.01)" style="fill:#fff"/><path d="M165.18,104.36l-2.28,6.38-6-.72,2.23-6.41Z" transform="translate(0 0.01)" style="fill:#fff"/><path d="M166.36,108.23l-2.31,6.4-1.15-3.9,2.28-6.38,1.18,3.88Z" transform="translate(0 0.01)" style="fill:#fff"/><path d="M172.57,110.75l-2.36,6.39-2.31-7.53,2.3-6.35Z" transform="translate(0 0.01)" style="fill:#d9cdfe"/><path d="M172.57,111.45q-1.17,3.21-2.37,6.4c0-.06,0-.11.05-.16a.54.54,0,0,0,0-.18.54.54,0,0,0,0-.18.48.48,0,0,0,0-.18l2.36-6.4a.58.58,0,0,1,0,.19.54.54,0,0,1,0,.18.49.49,0,0,1,0,.17A.42.42,0,0,1,172.57,111.45Z" transform="translate(0 0.01)" style="fill:#d9cdfe"/><path d="M166.36,108.23l-2.31,6.4-6-.71,2.27-6.43Z" transform="translate(0 0.01)" style="fill:#d9cdfe"/><path d="M160.3,107.49,158,113.92l-1.09-3.9,2.23-6.41,1.13,3.88Z" transform="translate(0 0.01)" style="fill:#d9cdfe"/><path d="M172.57,111.45l-2.37,6.4a.94.94,0,0,1-.06.15l-.1.13-.11.12-.14.11a2.37,2.37,0,0,1-.35.19,3.15,3.15,0,0,1-.44.11,4.4,4.4,0,0,0-.49,0H168l2.36-6.41h.54a2.92,2.92,0,0,0,.5-.05,2.23,2.23,0,0,0,.43-.1,2,2,0,0,0,.36-.18l.14-.11a.69.69,0,0,0,.11-.13.64.64,0,0,0,.1-.13A.59.59,0,0,0,172.57,111.45Z" transform="translate(0 0.01)" style="fill:#fff"/><path d="M155.11,108.63l-2.24,6.47-2.05-7.57L153,101.1Z" transform="translate(0 0.01)" style="fill:#fff"/><path d="M170.33,112.26,168,118.68l-11.73-1.37,2.27-6.47Z" transform="translate(0 0.01)" style="fill:#fff"/><path d="M169,101.91a3.36,3.36,0,0,1,.43.31,3.89,3.89,0,0,1,.36.34c.09.11.18.23.26.35a1.46,1.46,0,0,1,.16.36l2.37,7.48a1.13,1.13,0,0,1,.06.36.86.86,0,0,1,0,.32,1,1,0,0,1-.16.29,1.48,1.48,0,0,1-.26.24,2,2,0,0,1-.36.18,2.26,2.26,0,0,1-.43.11,2.89,2.89,0,0,1-.5,0h-.54l-11.82-1.44a5.72,5.72,0,0,1-.57-.11c-.19,0-.38-.1-.57-.17a5.31,5.31,0,0,1-.55-.23,5,5,0,0,1-.5-.29,4.12,4.12,0,0,1-.4-.33,4,4,0,0,1-.36-.35c-.09-.12-.18-.24-.26-.37a1.69,1.69,0,0,1-.15-.37L153,101.1a1.27,1.27,0,0,1,0-.34,1.23,1.23,0,0,1,.07-.32,1.11,1.11,0,0,1,.17-.27,1.18,1.18,0,0,1,.28-.22,1.69,1.69,0,0,1,.36-.17,2.42,2.42,0,0,1,.45-.1,4,4,0,0,1,.49,0l.54,0,11.55,1.44.55.1a5,5,0,0,1,.55.17l.53.22a4.53,4.53,0,0,1,.46.3Zm-2.63,6.32-1.18-3.87-6-.72,1.13,3.88,6.06.72" transform="translate(0 0.01)" style="fill:#fff"/><path d="M158.51,110.84l-2.27,6.5a4.8,4.8,0,0,1-.57-.11,5.36,5.36,0,0,1-.57-.17,4.16,4.16,0,0,1-.54-.23,4.91,4.91,0,0,1-.5-.28,4.46,4.46,0,0,1-.43-.33,3.85,3.85,0,0,1-.35-.35,1.85,1.85,0,0,1-.25-.37,1.73,1.73,0,0,1-.16-.37l2.25-6.5a1.34,1.34,0,0,0,.16.37,2.26,2.26,0,0,0,.26.37,2.89,2.89,0,0,0,.35.35,4.59,4.59,0,0,0,.44.33,4.91,4.91,0,0,0,.5.28,5.31,5.31,0,0,0,.55.23,3.43,3.43,0,0,0,.57.17,3.47,3.47,0,0,0,.56.11Z" transform="translate(0 0.01)" style="fill:#fff"/><path d="M177.83,111.58,175.41,118a5.54,5.54,0,0,1-1.51,2.16,8,8,0,0,1-2.6,1.53,13.29,13.29,0,0,1-3.57.8,21.27,21.27,0,0,1-4.37-.06,27.23,27.23,0,0,1-6.23-1.5,26.26,26.26,0,0,1-5.51-2.75,19.64,19.64,0,0,1-4.16-3.61,10.22,10.22,0,0,1-2.2-4,8.17,8.17,0,0,1-.17-.86,5.81,5.81,0,0,1,0-.83,4.15,4.15,0,0,1,.07-.79,5.86,5.86,0,0,1,.19-.72l2.16-6.45a4.21,4.21,0,0,0-.18.72,4.11,4.11,0,0,0-.07.78,5.63,5.63,0,0,0,0,.82,6.25,6.25,0,0,0,.18.86,10.34,10.34,0,0,0,2.23,4,19.91,19.91,0,0,0,4.21,3.61,28.24,28.24,0,0,0,11.83,4.28,21.58,21.58,0,0,0,4.4.09,13.93,13.93,0,0,0,3.61-.77,8.21,8.21,0,0,0,2.61-1.51,5.29,5.29,0,0,0,1.49-2.15Z" transform="translate(0 0.01)" style="fill:#fff"/><path d="M159.92,96.37a28.43,28.43,0,0,1,11.33,4.09,20.33,20.33,0,0,1,4.15,3.42,11.12,11.12,0,0,1,2.4,3.89,5.7,5.7,0,0,1,.08,3.67,5.46,5.46,0,0,1-2.22,2.77,10.6,10.6,0,0,1-4.17,1.59,19.92,19.92,0,0,1-5.77.09,28.37,28.37,0,0,1-11.84-4.28,20.15,20.15,0,0,1-4.2-3.61,10.23,10.23,0,0,1-2.24-4,5.4,5.4,0,0,1,.2-3.61,5.86,5.86,0,0,1,2.44-2.63,11.56,11.56,0,0,1,4.22-1.44,20.74,20.74,0,0,1,5.62.05Zm12.65,14.38-2.36-7.48a1.49,1.49,0,0,0-.17-.36,2.11,2.11,0,0,0-.26-.35c-.11-.12-.23-.23-.35-.34a3.47,3.47,0,0,0-.44-.31,3.72,3.72,0,0,0-.48-.27l-.53-.23a5.7,5.7,0,0,0-.55-.16,3.66,3.66,0,0,0-.56-.1L155.32,99.7a4.58,4.58,0,0,0-.53,0,4.19,4.19,0,0,0-.5,0,3.13,3.13,0,0,0-.44.1,1.76,1.76,0,0,0-.37.17,1.44,1.44,0,0,0-.27.22,1.67,1.67,0,0,0-.18.28.85.85,0,0,0-.06.31,1,1,0,0,0,0,.34l2.1,7.53a1.69,1.69,0,0,0,.15.37c.08.13.17.25.26.37a3,3,0,0,0,.36.35,3.61,3.61,0,0,0,.44.33l.5.29.55.23a4.74,4.74,0,0,0,.57.16,3.38,3.38,0,0,0,.57.11l11.81,1.44a2.44,2.44,0,0,0,.54,0,2.07,2.07,0,0,0,.5,0,1.67,1.67,0,0,0,.44-.11,1.51,1.51,0,0,0,.36-.18,1.16,1.16,0,0,0,.26-.24.76.76,0,0,0,.15-.28,1,1,0,0,0,.06-.33,1,1,0,0,0-.06-.35" transform="translate(0 0.01)" style="fill:url(#linear-gradient-2)"/><path d="M166.36,108.23l-1.18-3.88-6-.75,1.13,3.89,6.06.74Z" transform="translate(0 0.01)" style="fill:url(#linear-gradient-3)"/><path d="M134.16,60.63H114.71a2,2,0,0,0-1.95,1.95V79.42a1.95,1.95,0,0,0,1.95,2h19.45a1.92,1.92,0,0,1,1.38.57,2,2,0,0,1,.58,1.38v7.22a1.88,1.88,0,0,0,.33,1.08,1.94,1.94,0,0,0,.88.72,1.86,1.86,0,0,0,1.12.11,1.91,1.91,0,0,0,1-.53l19.49-19.49a2,2,0,0,0,.43-.63,1.93,1.93,0,0,0,.15-.75,2,2,0,0,0-.15-.75,2.08,2.08,0,0,0-.43-.63L139.45,50.18a2,2,0,0,0-1-.53,2,2,0,0,0-1.12.11,1.94,1.94,0,0,0-.88.72,1.91,1.91,0,0,0-.33,1.08v7.22a2,2,0,0,1-.61,1.32,2,2,0,0,1-1.35.54Z" transform="translate(0 0.01)" style="fill:url(#linear-gradient-4)"/><path d="M102.21,111.63a5.26,5.26,0,0,0-1.11.56,7.71,7.71,0,0,0-1,.85,7.86,7.86,0,0,0-.87,1,5,5,0,0,0-.58,1.09l-6.35-6.44a5.23,5.23,0,0,1,.59-1.09,7.23,7.23,0,0,1,1.92-1.9,5.1,5.1,0,0,1,1.11-.58l.72.77.79.8.81.83.83.85C100.11,109.48,101.16,110.55,102.21,111.63Z" transform="translate(0 0.01)" style="fill:#d9cdfe"/><path d="M88.32,125.33a2.72,2.72,0,0,0-.15.54,1.77,1.77,0,0,0,0,.46,1.61,1.61,0,0,0,.08.38.84.84,0,0,0,.2.29L82,120.62a.75.75,0,0,1-.18-.28,1,1,0,0,1-.08-.38,1.77,1.77,0,0,1,0-.46,3.68,3.68,0,0,1,.16-.54l6.42,6.37L81.89,119a5.06,5.06,0,0,1,.59-1.1,7.94,7.94,0,0,1,.88-1,6.68,6.68,0,0,1,1-.86,4.88,4.88,0,0,1,1.09-.56l6.41,6.39a4.92,4.92,0,0,0-1.1.55,7.14,7.14,0,0,0-1,.85,7.27,7.27,0,0,0-.87,1,4.63,4.63,0,0,0-.58,1.1Z" transform="translate(0 0.01)" style="fill:#d9cdfe"/><path d="M103.83,111.76a.83.83,0,0,0-.27-.19,1.25,1.25,0,0,0-.37-.09,1.77,1.77,0,0,0-.46,0,3.34,3.34,0,0,0-.52.14l-6.33-6.5a3.07,3.07,0,0,1,.52-.14,3.38,3.38,0,0,1,.45,0,1.12,1.12,0,0,1,.36.09.58.58,0,0,1,.27.19Z" transform="translate(0 0.01)" style="fill:#d9cdfe"/><path d="M90.43,113.68l6.41,6.44-4.93,1.67L85.5,115.4Z" transform="translate(0 0.01)" style="fill:#d9cdfe"/><path d="M92.26,108.73l6.36,6.44-1.78,5-6.41-6.44Z" transform="translate(0 0.01)" style="fill:#d9cdfe"/><path d="M88.42,127l-.64-.63-.33-.32-.64-.63-.64-.64-.32-.31-.65-.65-.64-.63-.33-.32-.64-.64-.65-.64-.32-.32-.65-.64a1,1,0,0,0,.26.18,1.37,1.37,0,0,0,.35.08,3.08,3.08,0,0,0,.43,0,3,3,0,0,0,.49-.13l6.49,6.4a2.78,2.78,0,0,1-.5.11,1.48,1.48,0,0,1-.42,0,1.37,1.37,0,0,1-.35-.08A.73.73,0,0,1,88.42,127Z" transform="translate(0 0.01)" style="fill:#fff"/><path d="M97.49,105.27l.64.65.32.32.63.65,1.59,1.63,1,1,.64.65.63.64.31.32.63.65a.75.75,0,0,1,.18.28,1.06,1.06,0,0,1,.09.36,1.62,1.62,0,0,1,0,.44,2.85,2.85,0,0,1-.14.5l-6.36-6.49a3.23,3.23,0,0,0,.14-.51,1.62,1.62,0,0,0,0-.44,1.45,1.45,0,0,0-.08-.36A.78.78,0,0,0,97.49,105.27Z" transform="translate(0 0.01)" style="fill:#fff"/><path d="M88.44,119.05l6.46,6.45L90,127.14l-6.46-6.39Z" transform="translate(0 0.01)" style="fill:#fff"/><path d="M95.88,105.16a2.43,2.43,0,0,1,1-.16,1,1,0,0,1,.64.26,1,1,0,0,1,.27.64,2.39,2.39,0,0,1-.17.95l-1.82,5-5.33,1.87,1.83-5a5,5,0,0,1,.59-1.09,7.38,7.38,0,0,1,1.92-1.9A5.34,5.34,0,0,1,95.88,105.16Z" transform="translate(0 0.01)" style="fill:#fff"/><path d="M95.76,111.82l6.42,6.5-5.34,1.8-6.41-6.44Z" transform="translate(0 0.01)" style="fill:#fff"/><path d="M97.58,106.85l6.36,6.49-1.76,5-6.42-6.5Z" transform="translate(0 0.01)" style="fill:#fff"/><path d="M88.44,119.05l6.46,6.45-1.82,5.06-6.52-6.44Z" transform="translate(0 0.01)" style="fill:#d9cdfe"/><path d="M100.81,110.06l6.42,6.55-5.06,1.71-6.41-6.5Z" transform="translate(0 0.01)" style="fill:#d9cdfe"/><path d="M93.8,117.21l6.46,6.5L94.9,125.5l-6.46-6.45Z" transform="translate(0 0.01)" style="fill:#fff"/><path d="M93.19,132.28l-6.5-6.45a1,1,0,0,1-.19-.3,1.3,1.3,0,0,1-.09-.39,1.85,1.85,0,0,1,0-.47,4.94,4.94,0,0,1,.15-.55l6.5,6.44a2.73,2.73,0,0,0-.15.56,1.85,1.85,0,0,0,0,.47A1.24,1.24,0,0,0,93,132,1,1,0,0,0,93.19,132.28Z" transform="translate(0 0.01)" style="fill:#d9cdfe"/><path d="M102.5,110.19l6.42,6.56a.81.81,0,0,0-.29-.19.93.93,0,0,0-.37-.1,1.77,1.77,0,0,0-.46,0,3.53,3.53,0,0,0-.54.13l-6.41-6.54a3.18,3.18,0,0,1,.53-.14,1.77,1.77,0,0,1,.46,0,1.24,1.24,0,0,1,.38.09A.77.77,0,0,1,102.5,110.19Z" transform="translate(0 0.01)" style="fill:#d9cdfe"/><path d="M93.8,117.21l6.46,6.5-1.81,5.09-6.52-6.49Z" transform="translate(0 0.01)" style="fill:#fff"/><path d="M98.86,115.47l6.48,6.55-5.08,1.69-6.46-6.5Z" transform="translate(0 0.01)" style="fill:#fff"/><path d="M93.19,132.28l-6.5-6.45A1.34,1.34,0,0,0,87,126a.85.85,0,0,0,.35.08,1.62,1.62,0,0,0,.44,0,2.36,2.36,0,0,0,.51-.12,5.1,5.1,0,0,0,1.12-.56,7.44,7.44,0,0,0,2-2,5.18,5.18,0,0,0,.6-1.14l6.5,6.49a5.13,5.13,0,0,1-.59,1.14A7,7,0,0,1,97,131a7.61,7.61,0,0,1-1.08.87,5.33,5.33,0,0,1-1.12.56,3.1,3.1,0,0,1-.51.11,1.55,1.55,0,0,1-.43,0,1.06,1.06,0,0,1-.36-.09A1,1,0,0,1,93.19,132.28Z" transform="translate(0 0.01)" style="fill:#fff"/><path d="M86.56,124.12l1.87-5.05,5.37-1.84-1.87,5.09a5.36,5.36,0,0,1-.59,1.14,7.15,7.15,0,0,1-.91,1.07,7.47,7.47,0,0,1-1.07.88,4.76,4.76,0,0,1-1.13.56,2.14,2.14,0,0,1-1,.14,1,1,0,0,1-.64-.3,1.1,1.1,0,0,1-.24-.68A2.48,2.48,0,0,1,86.56,124.12Z" transform="translate(0 0.01)" style="fill:#fff"/><path d="M102.5,110.19l6.43,6.56a1.12,1.12,0,0,1,.19.29,1.79,1.79,0,0,1,.09.82,3,3,0,0,1-.13.52,5.6,5.6,0,0,1-.59,1.14,7.6,7.6,0,0,1-.94,1,7.4,7.4,0,0,1-1.07.87,4.41,4.41,0,0,1-1.13.56l-6.46-6.48a5.1,5.1,0,0,0,1.14-.58,7.35,7.35,0,0,0,2-2,5.28,5.28,0,0,0,.59-1.13,2.51,2.51,0,0,0,.14-.52,1.69,1.69,0,0,0,0-.45,1.18,1.18,0,0,0-.09-.37A.89.89,0,0,0,102.5,110.19Z" transform="translate(0 0.01)" style="fill:#fff"/><path d="M100.81,110.06a2.52,2.52,0,0,1,1-.16,1,1,0,0,1,.67.28,1.1,1.1,0,0,1,.28.65,2.36,2.36,0,0,1-.17,1,5.28,5.28,0,0,1-.59,1.13,7.35,7.35,0,0,1-2,2,5.1,5.1,0,0,1-1.14.58l-5,1.74-5.36,1.84-4.94,1.69a2.56,2.56,0,0,1-1,.15,1,1,0,0,1-.61-.29,1,1,0,0,1-.24-.66,2.33,2.33,0,0,1,.19-1,5.38,5.38,0,0,1,.59-1.11,7.94,7.94,0,0,1,.88-1,8,8,0,0,1,1-.86,5.11,5.11,0,0,1,1.09-.56l4.93-1.72,5.33-1.86Z" transform="translate(0 0.01)" style="fill:#fff"/><path d="M98.58,97.82A16.51,16.51,0,0,1,105,96.66a6.89,6.89,0,0,1,4.42,1.67,6.52,6.52,0,0,1,2,4.25,15.65,15.65,0,0,1-1,6.53,33.56,33.56,0,0,1-4,7.66A50.31,50.31,0,0,1,93,130a32.77,32.77,0,0,1-7.66,3.8,14.79,14.79,0,0,1-6.46.82,6.24,6.24,0,0,1-4.11-2.1A7.14,7.14,0,0,1,73.25,128a17.47,17.47,0,0,1,1.32-6.5,35.14,35.14,0,0,1,4-7.32,49.88,49.88,0,0,1,12.69-12.53,34.5,34.5,0,0,1,7.32-3.83Zm.31,17.68a5.1,5.1,0,0,0,1.14-.58,7.35,7.35,0,0,0,2-2,4.51,4.51,0,0,0,.59-1.13,2.21,2.21,0,0,0,.17-1,.94.94,0,0,0-1-.93,2.55,2.55,0,0,0-1,.16l-5,1.76,1.82-5a2.26,2.26,0,0,0,.16-1,.94.94,0,0,0-.26-.63,1,1,0,0,0-.65-.26,2.24,2.24,0,0,0-1,.16,5.82,5.82,0,0,0-1.11.57,7.54,7.54,0,0,0-1.92,1.9,5.06,5.06,0,0,0-.59,1.1l-1.84,4.95-4.92,1.72a5.18,5.18,0,0,0-1.1.56,7.79,7.79,0,0,0-1,.86,7.94,7.94,0,0,0-.88,1,4.54,4.54,0,0,0-.59,1.11,2.33,2.33,0,0,0-.19,1,1,1,0,0,0,.24.66,1,1,0,0,0,.61.29,2.59,2.59,0,0,0,1-.15l4.93-1.69-1.87,5a2.43,2.43,0,0,0-.18,1,1,1,0,0,0,.24.67,1,1,0,0,0,.64.31,2.29,2.29,0,0,0,1-.14,5.17,5.17,0,0,0,1.13-.56,8.21,8.21,0,0,0,1.07-.88,7,7,0,0,0,.9-1.07,5.18,5.18,0,0,0,.6-1.14l1.87-5.1,5-1.74" transform="translate(0 0.01)" style="fill:url(#linear-gradient-5)"/><path d="M109.72,98.57l6.32,6.6a5.7,5.7,0,0,1,1.21,1.85,8,8,0,0,1,.58,2.4,12.58,12.58,0,0,1-.11,2.94,19.22,19.22,0,0,1-.85,3.4,32.66,32.66,0,0,1-3.9,7.65,48.44,48.44,0,0,1-13.36,13.14A32.05,32.05,0,0,1,92,140.29a18.69,18.69,0,0,1-3.3.72,11.66,11.66,0,0,1-2.83.05,7.78,7.78,0,0,1-2.32-.6,6.09,6.09,0,0,1-1.81-1.14L75.15,133a5.69,5.69,0,0,0,1.77,1.17,8,8,0,0,0,2.31.57,12.57,12.57,0,0,0,2.81-.08,19.81,19.81,0,0,0,3.3-.79A32.13,32.13,0,0,0,93,130a50,50,0,0,0,13.42-13.24,33.2,33.2,0,0,0,4-7.66,20.09,20.09,0,0,0,.88-3.41,12.14,12.14,0,0,0,.14-2.89,8.21,8.21,0,0,0-.54-2.39,5.73,5.73,0,0,0-1.15-1.87Z" transform="translate(0 0.01)" style="fill:#fff"/><path d="M121.05,36.28a11.11,11.11,0,0,0-1.65-3.21,11.58,11.58,0,0,0-2.5-2.49,10.65,10.65,0,0,0-3.05-1.53,8.05,8.05,0,0,0-3.27-.32l3.06-2.79a8.14,8.14,0,0,1,3.29.34A10.62,10.62,0,0,1,120,27.83a11.28,11.28,0,0,1,2.53,2.49,10.73,10.73,0,0,1,1.67,3.24Z" transform="translate(0 0.01)" style="fill:#d9cdfe"/><path d="M119.22,38l-3.14,2.66a2.66,2.66,0,0,0,.62-.72,3.25,3.25,0,0,0,.38-.92,3.7,3.7,0,0,0,.09-1,4.26,4.26,0,0,0-.21-1.13,5.32,5.32,0,0,0-.74-1.56A5.94,5.94,0,0,0,115,34a5.12,5.12,0,0,0-1.44-.72,4.13,4.13,0,0,0-1.56-.15,3.7,3.7,0,0,0-.48.09,3,3,0,0,0-.45.16c-.14.07-.28.14-.41.22a2.42,2.42,0,0,0-.36.27l3-2.75a1.93,1.93,0,0,1,.36-.28c.13-.08.27-.15.41-.22a3.39,3.39,0,0,1,.45-.15,2.84,2.84,0,0,1,.49-.1,4,4,0,0,1,1.58.16,5.25,5.25,0,0,1,1.44.72,5.83,5.83,0,0,1,1.24,1.19,5.1,5.1,0,0,1,.79,1.56,4.11,4.11,0,0,1,.22,1.15,3.77,3.77,0,0,1-.09,1.06,3.44,3.44,0,0,1-.38.93A3,3,0,0,1,119.22,38Z" transform="translate(0 0.01)" style="fill:#fff"/><path d="M110.58,28.73a6.37,6.37,0,0,0-1.06.19,6.6,6.6,0,0,0-1,.35,7.5,7.5,0,0,0-.88.48,6.36,6.36,0,0,0-.77.6l3-2.79a5.12,5.12,0,0,1,.78-.61,6.78,6.78,0,0,1,.88-.48,6.56,6.56,0,0,1,1-.34,6.48,6.48,0,0,1,1.07-.19l-1.53,1.4-.6.55-.19.17-.2.17-.18.18C110.82,28.5,110.71,28.67,110.58,28.73Z" transform="translate(0 0.01)" style="fill:#d9cdfe"/><path d="M119.14,44.42a6.22,6.22,0,0,0,1.34-1.55,6.83,6.83,0,0,0,.79-1.94,7.68,7.68,0,0,0,.21-2.24,9.4,9.4,0,0,0-.44-2.41l3.16-2.69a9.58,9.58,0,0,1,.46,2.43,8.58,8.58,0,0,1-.21,2.26,6.69,6.69,0,0,1-.8,2,5.86,5.86,0,0,1-1.34,1.55Z" transform="translate(0 0.01)" style="fill:#d9cdfe"/><path d="M116.08,40.61a2.7,2.7,0,0,1-.34.25,2.82,2.82,0,0,1-.38.21,3.09,3.09,0,0,1-.43.14l-.45.09.36-.31.38-.32.41-.35L116,40l.41-.35.41-.35.39-.33.36-.32a2.57,2.57,0,0,0,.47-.08l.42-.16a1.72,1.72,0,0,0,.38-.2,2.22,2.22,0,0,0,.35-.25Z" transform="translate(0 0.01)" style="fill:#d9cdfe"/><path d="M114.48,41.3h-.87l3.12-2.67h.88Z" transform="translate(0 0.01)" style="fill:#d9cdfe"/><path d="M109.42,37.68a4.7,4.7,0,0,1-.2-1.12,3.88,3.88,0,0,1,.09-1,3.72,3.72,0,0,1,.35-.91,3.15,3.15,0,0,1,.59-.72l3.08-2.76a3.1,3.1,0,0,0-.94,1.63,3.63,3.63,0,0,0-.09,1,4.25,4.25,0,0,0,.2,1.12Z" transform="translate(0 0.01)" style="fill:#d9cdfe"/><path d="M113.6,41.3a4.53,4.53,0,0,1-1.34-.37,5.6,5.6,0,0,1-1.21-.79,5.77,5.77,0,0,1-1-1.1,6.08,6.08,0,0,1-.65-1.36l.36-.32.38-.33.39-.35.4-.35.41-.36.4-.35.38-.34.36-.32a5,5,0,0,0,.66,1.37,5.67,5.67,0,0,0,1,1.13,5,5,0,0,0,1.23.79,4.12,4.12,0,0,0,1.34.38Z" transform="translate(0 0.01)" style="fill:#d9cdfe"/><path d="M122.32,41.79c-1,.89-2.11,1.76-3.18,2.63a5.14,5.14,0,0,1-.72.5,4.79,4.79,0,0,1-.78.4,8.82,8.82,0,0,1-.86.31,7,7,0,0,1-.93.18,8,8,0,0,1-3.3-.27A10.67,10.67,0,0,1,109.44,44a11.47,11.47,0,0,1-2.57-2.54,10.91,10.91,0,0,1-1.66-3.28,9.57,9.57,0,0,1-.41-2.32,7.91,7.91,0,0,1,.19-2.17,6.9,6.9,0,0,1,.72-1.86,6.29,6.29,0,0,1,1.2-1.51l3-2.8a6.64,6.64,0,0,0-1.21,1.53A7,7,0,0,0,108,31a8.31,8.31,0,0,0-.18,2.17,9.28,9.28,0,0,0,.42,2.33,11.09,11.09,0,0,0,1.69,3.32,11.32,11.32,0,0,0,2.6,2.57,10.54,10.54,0,0,0,3.15,1.56,8.37,8.37,0,0,0,3.34.28A7.78,7.78,0,0,0,120,43a8.82,8.82,0,0,0,.86-.31,5.74,5.74,0,0,0,.78-.4A5.11,5.11,0,0,0,122.32,41.79Z" transform="translate(0 0.01)" style="fill:#fff"/><path d="M126.43,47.26l-3.23,2.55a13.26,13.26,0,0,1-1.16.8,12,12,0,0,1-1.29.65,11.76,11.76,0,0,1-1.41.49,13.25,13.25,0,0,1-1.52.32,14,14,0,0,1-5.73-.44A17.64,17.64,0,0,1,106.66,49a20.28,20.28,0,0,1-4.47-4.4,19,19,0,0,1-2.89-5.72A17.47,17.47,0,0,1,98.58,35a14.1,14.1,0,0,1,.3-3.61,11.87,11.87,0,0,1,1.24-3.2,10.75,10.75,0,0,1,2-2.58l.29-.28.3-.29.59-.56.3-.29.29-.28.15-.14.3-.29.3-.28.15-.15.3-.29a11,11,0,0,0-2,2.6,12.13,12.13,0,0,0-1.18,3.19,14,14,0,0,0-.29,3.66,16.74,16.74,0,0,0,.72,4,19.18,19.18,0,0,0,2.89,5.77,20,20,0,0,0,4.5,4.49,17.77,17.77,0,0,0,5.48,2.67,13.9,13.9,0,0,0,5.77.46,12,12,0,0,0,3-.8,10.57,10.57,0,0,0,1.3-.66,10.88,10.88,0,0,0,1.2-.8Z" transform="translate(0 0.01)" style="fill:#fff"/><path d="M111.71,19.8a14.28,14.28,0,0,1,5.66.62,18.08,18.08,0,0,1,5.25,2.67,19.89,19.89,0,0,1,4.34,4.3,19.37,19.37,0,0,1,2.88,5.54,16,16,0,0,1,.79,5.83,12.4,12.4,0,0,1-1.37,5.05A10.57,10.57,0,0,1,126,47.64a11.06,11.06,0,0,1-5,1.91,13.89,13.89,0,0,1-5.77-.45,17.77,17.77,0,0,1-5.48-2.67A19.93,19.93,0,0,1,105.23,42a19,19,0,0,1-2.89-5.78,15.59,15.59,0,0,1-.66-6,12.24,12.24,0,0,1,1.58-5.05,10.61,10.61,0,0,1,3.47-3.61,11.38,11.38,0,0,1,5-1.73ZM119,43.19a6.4,6.4,0,0,0,2.89-1.08,6.26,6.26,0,0,0,1.92-2.17,7.24,7.24,0,0,0,.82-2.95,8.94,8.94,0,0,0-.45-3.4,10.74,10.74,0,0,0-1.66-3.27A11.46,11.46,0,0,0,120,27.8a10.43,10.43,0,0,0-3.06-1.52,8.21,8.21,0,0,0-3.3-.34,6.5,6.5,0,0,0-2.88,1,6.24,6.24,0,0,0-2,2.12,7.22,7.22,0,0,0-.88,2.94,9.21,9.21,0,0,0,.39,3.46,11.57,11.57,0,0,0,4.29,5.89,10.59,10.59,0,0,0,3.16,1.56,8.32,8.32,0,0,0,3.33.28" transform="translate(0 0.01)" style="fill:url(#linear-gradient-6)"/><path d="M115,30.41a4,4,0,0,1,1.57.16,5.17,5.17,0,0,1,1.45.72,5.87,5.87,0,0,1,1.25,1.19,5.1,5.1,0,0,1,.79,1.56,4.52,4.52,0,0,1,.21,1.63,3.47,3.47,0,0,1-.4,1.4,3,3,0,0,1-.92,1,3,3,0,0,1-1.38.5,3.68,3.68,0,0,1-1.58-.14,5,5,0,0,1-1.5-.72,5.46,5.46,0,0,1-1.19-1.21,5.21,5.21,0,0,1-.81-1.57,4.35,4.35,0,0,1-.19-1.64,3.6,3.6,0,0,1,.41-1.4,3,3,0,0,1,1-1,3.06,3.06,0,0,1,1.34-.49Z" transform="translate(0 0.01)" style="fill:url(#linear-gradient-7)"/><path d="M113.63,25.94a8.14,8.14,0,0,1,3.29.34A10.38,10.38,0,0,1,120,27.83a11.32,11.32,0,0,1,2.54,2.49,10.7,10.7,0,0,1,1.66,3.24,8.91,8.91,0,0,1,.45,3.4,7.19,7.19,0,0,1-.82,2.94,6.17,6.17,0,0,1-1.92,2.17A6.4,6.4,0,0,1,119,43.15a8.15,8.15,0,0,1-3.33-.28,10.47,10.47,0,0,1-3.16-1.56,11.53,11.53,0,0,1-2.6-2.57,11.32,11.32,0,0,1-1.69-3.32,9.21,9.21,0,0,1-.39-3.46,7,7,0,0,1,.89-2.93,6.06,6.06,0,0,1,2-2.13A6.36,6.36,0,0,1,113.63,25.94Zm4,12.69a3.11,3.11,0,0,0,1.38-.5,2.93,2.93,0,0,0,.92-1,3.51,3.51,0,0,0,.4-1.4,4.49,4.49,0,0,0-.21-1.63,5.1,5.1,0,0,0-.79-1.56,5.78,5.78,0,0,0-1.22-1.2,5.2,5.2,0,0,0-1.45-.73,3.79,3.79,0,0,0-1.57-.15,3,3,0,0,0-1.38.49,3,3,0,0,0-.94,1,3.5,3.5,0,0,0-.42,1.4,4.31,4.31,0,0,0,.2,1.64,5.16,5.16,0,0,0,.81,1.56,5.48,5.48,0,0,0,1.23,1.22,4.72,4.72,0,0,0,1.5.72,3.84,3.84,0,0,0,1.58.15" transform="translate(0 0.01)" style="fill:#fff"/><path d="M27.39,105.24l1.76-14.83-11.44.33,9.68,14.5Z" transform="translate(0 0.01)" style="fill:url(#linear-gradient-8)"/><path d="M64,90.42l1.75,14.82,9.68-14.5L64,90.42Z" transform="translate(0 0.01)" style="fill:url(#linear-gradient-9)"/><path d="M72.68,74.09,52.15,75l1.9,10.55,3-6.36,7.31,3.33,8.29-8.44Z" transform="translate(0 0.01)" style="fill:url(#linear-gradient-10)"/><path d="M28.78,82.53l7.31-3.33,3,6.36L41,75l-20.57-.92,8.33,8.44Z" transform="translate(0 0.01)" style="fill:url(#linear-gradient-11)"/><g style="opacity:0.10000000149011612"><path d="M27.39,105.24l1.76-14.83-11.44.33,9.68,14.5Z" transform="translate(0 0.01)" style="opacity:0.10000000149011612;isolation:isolate;fill:url(#linear-gradient-12)"/><path d="M64,90.42l1.75,14.82,9.68-14.5L64,90.42Z" transform="translate(0 0.01)" style="opacity:0.10000000149011612;isolation:isolate;fill:url(#linear-gradient-13)"/><path d="M72.68,74.09,52.15,75l1.9,10.55,3-6.36,7.31,3.33,8.29-8.44Z" transform="translate(0 0.01)" style="opacity:0.10000000149011612;isolation:isolate;fill:url(#linear-gradient-14)"/><path d="M28.78,82.53l7.31-3.33,3,6.36L41,75l-20.57-.92,8.33,8.44Z" transform="translate(0 0.01)" style="opacity:0.10000000149011612;isolation:isolate;fill:url(#linear-gradient-15)"/></g><path d="M40.35,54.87l.3.23-.32-.81,0-1.38-.38.33L34.26,38.92,4.6,27.86,39.12,53.94,26.22,65.36l-5.77,8.73L41,75l-.67-20.13Z" transform="translate(0 0.01)" style="fill:#ebeaf7"/><path d="M75.42,90.42l-9.68,14.82,20.71,5.7,6-20.2-17-.32Z" transform="translate(0 0.01)" style="fill:#ebeaf7"/><path d="M53.76,53.65,88.49,27.86,58.87,38.92,53,52.94l-.32-.29,0,1.13-.46,1.07.44-.33L52.15,75l20.53-.92-5.81-8.73L53.76,53.65Z" transform="translate(0 0.01)" style="fill:#ebeaf7"/><path d="M53.36,99.22l12.38,6-11.51,5.45.12-3.4-.92-.8H39.67l-.85.8.07,3.4-11.5-5.45,12.35-6L29.07,90.89l-1.68,14.35L17.71,90.42.77,90.74l5.91,20.2,20.71-5.69,4,3.28,8.15,5.66h14l8.19-5.66,4-3.28L64,90.89,53.36,99.22Z" transform="translate(0 0.01)" style="fill:#ebeaf7"/><path d="M20.45,74.09l8.62,16.8-.29-8.36-8.33-8.44Z" transform="translate(0 0.01)" style="fill:#ebeaf7"/><path d="M64.39,82.53,64,90.89l8.66-16.8-8.29,8.44Z" transform="translate(0 0.01)" style="fill:#ebeaf7"/><path d="M41.49,98,42,81.61,41,75,39.08,85.56,41.49,98Z" transform="translate(0 0.01)" style="fill:#ebeaf7"/><path d="M51.6,98l2.45-12.45L52.15,75l-1,6.57L51.6,98Z" transform="translate(0 0.01)" style="fill:#ebeaf7"/><g style="opacity:0.10000000149011612"><path d="M40.35,54.87l.3.23-.32-.81,0-1.38-.38.33L34.26,38.92,4.6,27.86,39.12,53.94,26.22,65.36l-5.77,8.73L41,75l-.67-20.13Z" transform="translate(0 0.01)" style="opacity:0.10000000149011612;isolation:isolate;fill:url(#linear-gradient-16)"/><path d="M75.42,90.42l-9.68,14.82,20.71,5.7,6-20.2-17-.32Z" transform="translate(0 0.01)" style="opacity:0.10000000149011612;isolation:isolate;fill:url(#linear-gradient-17)"/><path d="M53.76,53.65,88.49,27.86,58.87,38.92,53,52.94l-.32-.29,0,1.13-.46,1.07.44-.33L52.15,75l20.53-.92-5.81-8.73L53.76,53.65Z" transform="translate(0 0.01)" style="opacity:0.10000000149011612;isolation:isolate;fill:url(#linear-gradient-18)"/><path d="M53.36,99.22l12.38,6-11.51,5.45.12-3.4-.92-.8H39.67l-.85.8.07,3.4-11.5-5.45,12.35-6L29.07,90.89l-1.68,14.35L17.71,90.42.77,90.74l5.91,20.2,20.71-5.69,4,3.28,8.15,5.66h14l8.19-5.66,4-3.28L64,90.89,53.36,99.22Z" transform="translate(0 0.01)" style="opacity:0.10000000149011612;isolation:isolate;fill:url(#linear-gradient-19)"/><path d="M20.45,74.09l8.62,16.8-.29-8.36-8.33-8.44Z" transform="translate(0 0.01)" style="opacity:0.10000000149011612;isolation:isolate;fill:url(#linear-gradient-20)"/><path d="M64.39,82.53,64,90.89l8.66-16.8-8.29,8.44Z" transform="translate(0 0.01)" style="opacity:0.10000000149011612;isolation:isolate;fill:url(#linear-gradient-21)"/><path d="M41.49,98,42,81.61,41,75,39.08,85.56,41.49,98Z" transform="translate(0 0.01)" style="opacity:0.10000000149011612;isolation:isolate;fill:url(#linear-gradient-22)"/><path d="M51.6,98l2.45-12.45L52.15,75l-1,6.57L51.6,98Z" transform="translate(0 0.01)" style="opacity:0.10000000149011612;isolation:isolate;fill:url(#linear-gradient-23)"/></g><path d="M36.05,79.2l-7.27,3.33,10.3,3-3-6.36Z" transform="translate(0 0.01)" style="fill:url(#linear-gradient-24)"/><path d="M54,85.56l10.33-3-7.3-3.33-3,6.36Z" transform="translate(0 0.01)" style="fill:url(#linear-gradient-25)"/><path d="M51.6,98H41.49l-1.75,1.21-.92,8.07.85-.8H53.43l.92.8-1-8.07L51.61,98Z" transform="translate(0 0.01)" style="fill:url(#linear-gradient-26)"/><path d="M90,56.6l3.1-14.91L88.49,27.86,53.36,53.93,66.87,65.36,86,71,90.21,66l-1.83-1.31L91.31,62,89,60.29,92,58.06,90,56.6Z" transform="translate(0 0.01)" style="fill:url(#linear-gradient-27)"/><path d="M4.61,27.86,0,41.69,3.1,56.6l-2,1.46,2.93,2.23L1.83,62l2.92,2.67L2.92,66,7.12,71l19.1-5.59L39.74,53.93,4.61,27.86Z" transform="translate(0 0.01)" style="fill:url(#linear-gradient-28)"/><path d="M54.35,107.29l-1-8.07,12.38,6-11.51,5.44.12-3.4Zm-15.46,3.4-.07-3.4.92-8.07-12.31,6,11.46,5.44Zm25.5-28.15-10.34,3L51.61,98l1.75,1.21L64,90.9l.37-8.36Zm-35.61,0,.29,8.36,10.67,8.33L41.49,98,39.08,85.57l-10.3-3ZM92.4,90.75,86,71l-19.1-5.58,5.78,8.72L64,90.89l11.4-.14ZM26.22,65.37,7.12,71,.76,90.75h17l11.36.14-8.62-16.8,5.77-8.72ZM52.15,75l1.21-21.07,5.55-15H34.26l5.48,15L41,75l.45,6.65V98h10.1l.07-16.36L52.15,75Z" transform="translate(0 0.01)" style="fill:#fff"/></g><path d="M233.32,63.24c0-.11.07-.23.1-.34a1.3,1.3,0,0,0-.65-.89c-.61-.31-1.35-.36-2-.66-2.54-1.19-3.79-3.68-4.7-6.2q-.86-2.34-1.59-4.74c.1-.35.18-.71.26-1.06s.15-.72.22-1.08l.18-1.08c0-.36.1-.72.14-1.08s.08-.73.1-1.09.05-.73.07-1.1,0-.73,0-1.09,0-.73,0-1.1,0-.73,0-1.09l-.09-1.1c0-.36-.08-.72-.13-1.08s-.1-.73-.17-1.09-.13-.72-.2-1.07-.15-.72-.24-1.07-.18-.71-.28-1.06-.2-.71-.32-1.05a23.94,23.94,0,0,0-2.11-4.94A4.24,4.24,0,0,0,219.51,26a2.75,2.75,0,0,0-.81-.07,3.41,3.41,0,0,0-1,.28,13.44,13.44,0,0,0-2.25,1.48A70.72,70.72,0,0,0,206,36.34a42,42,0,0,0-16.75,0c-2.41-2.42-9.67-10.17-12.94-10.24a3.08,3.08,0,0,0-2.23,1,10.54,10.54,0,0,0-2.07,3.47l-.3.76-.28.76c-.09.26-.18.52-.26.78s-.17.52-.24.78-.16.52-.23.78-.14.53-.2.79-.13.53-.18.8-.12.53-.17.8-.1.54-.14.8-.09.54-.12.81-.08.54-.11.81-.06.54-.08.82l-.06.81c0,.27,0,.54,0,.82s0,.54,0,.81,0,.55,0,.82a32.88,32.88,0,0,0,.89,7.85c-.94,3.14-2.56,8.36-5.63,10a8.71,8.71,0,0,1-3.43.85,9.51,9.51,0,0,0,4.17,5.64,17,17,0,0,0-2.18,3.26c.42,1.87.7,3.76,1.25,5.61a42.28,42.28,0,0,0,9.62,16.41c.91,1,1.89,1.88,2.86,2.78a58.28,58.28,0,0,0,13.61,9.06c1.06.51,2.14,1,3.21,1.42s2.48,1.36,3.72,1.27,3.15-1.13,4.28-1.63a57.88,57.88,0,0,0,16.28-10.55,46.87,46.87,0,0,0,4.27-4.42A41,41,0,0,0,231,74.63a11,11,0,0,0,.6-3.43c-.13-1.43-1.47-2.57-2.22-3.71A8.16,8.16,0,0,0,233.32,63.24Z" transform="translate(0 0.01)" style="fill:#361e21"/><path d="M164.29,63.41l.75-.18c2.31-.69,4-3,5-5.06.3-.62.49-1.31.82-1.91l0,0q-.27,1.41-.48,2.82c-.91,1.78-1.87,4.06-3.93,4.73l-.71.21a4.59,4.59,0,0,0,2.81,1.81,2.73,2.73,0,0,1,.85.17,4.57,4.57,0,0,1-2.59-.09A4.43,4.43,0,0,1,164.29,63.41Z" transform="translate(0 0.01)" style="fill:#fefefe"/><path d="M216.28,32.83a6.44,6.44,0,0,0,.54-.72,9.57,9.57,0,0,1,1.68-1.8v.05c-.19.92-.65,1.89-.87,2.86q-.21,1-.36,2t-.21,2c0,.53,0,1.07-.06,1.6A4.41,4.41,0,0,1,217,38a7.86,7.86,0,0,0-3.36,2.13C213.73,37.36,215.06,35.2,216.28,32.83Z" transform="translate(0 0.01)" style="fill:#e2d2cd"/><path d="M176.23,30.63a1.73,1.73,0,0,1,.51,0c.33.13.75.73,1,.63l.23.23c2.2,2.5,2.83,5.49,3.29,8.68-.45-.52-2-2.14-2.66-2.17a.27.27,0,0,0-.13,0,.37.37,0,0,0-.1.16,8.72,8.72,0,0,0-.24-1.43A18.18,18.18,0,0,0,176.23,30.63Z" transform="translate(0 0.01)" style="fill:#e2d2cd"/><path d="M206.42,82.19a3.49,3.49,0,0,1-1.28.22v0c-.49-.08-1,.08-1.54,0-.42.25-.83.53-1.26.75a10.67,10.67,0,0,1-4.77,1,11.66,11.66,0,0,1-5.79-1.71c-.35.15-.89-.1-1.17.11s-.8,0-1.13-.09a27,27,0,0,1-10.92-4.93c0,.83,0,1.66.08,2.48s.15,1.41.18,2.12a2.15,2.15,0,0,0,0,.51c0-.14,0-.31.07-.42a11.86,11.86,0,0,1,2.63,1.9c.31.24.65.45,1,.67.93.61,1.83,1.28,2.79,1.83s2,1,2.94,1.64c3,2,6.25,5,7.77,8.24a27.7,27.7,0,0,1,1.56,5.06,2.46,2.46,0,0,0,.11-.45,18.89,18.89,0,0,1,1.72-5.28c1.63-3.14,4.61-5.62,7.52-7.54,1.22-.81,2.54-1.44,3.72-2.31a16.64,16.64,0,0,0,6.1-8.3C213.58,79.65,210.18,81.62,206.42,82.19Z" transform="translate(0 0.01)" style="fill:#e2d2cd"/><path d="M170.7,66.17c.29.92.56,1.88.93,2.78a20,20,0,0,0,4.81,6.75c.68.65,1.45,1.19,2.12,1.85,0,.83,0,1.66.08,2.48s.15,1.41.18,2.12a24.26,24.26,0,0,1-4.71-4.87,18.13,18.13,0,0,1-3.32-9A8.18,8.18,0,0,1,170.7,66.17Z" transform="translate(0 0.01)" style="fill:#d6110b"/><path d="M220.07,72.81c3.07-4.26,4.29-7.69,3.42-13a25.72,25.72,0,0,0-6-12.8,12.31,12.31,0,0,0-1.89-1.86,14.63,14.63,0,0,0-3.49-2.67v0l.08-.26.12-.49c.14-.56.25-1.13.42-1.68a26,26,0,0,1,1.42-3.77l.12-.25.1-.2a18.08,18.08,0,0,1,1.19-2,5.27,5.27,0,0,1,.7-.93,1.14,1.14,0,0,0,.14-.16l0,0,.07-.11.08-.11,0,0a2.7,2.7,0,0,1,.18-.25,9.57,9.57,0,0,1,1.68-1.8l.05-.06,0,0,0,0,0,0,.06,0,.24-.19a5.44,5.44,0,0,1,1,1.52,25.86,25.86,0,0,1,2.5,10.7c0,2.4-.19,6-1.38,8.14A19.12,19.12,0,0,1,222,52c.2-.54.38-1.1.54-1.65s.3-1.12.43-1.69.24-1.14.33-1.71.16-1.15.22-1.73a29.2,29.2,0,0,0-2.15-13.66,11.8,11.8,0,0,0-1.62-3.11,1.27,1.27,0,0,0-.79-.51c-1.05,0-4.12,2.65-4.93,3.43a15.94,15.94,0,0,0-1.91,1.57,74.9,74.9,0,0,0-5.59,5.68c-1.31-.24-2.59-.57-3.9-.78a33.25,33.25,0,0,0-14,.75c-.66-.65-1.24-1.37-1.88-2a38.24,38.24,0,0,0-5.62-5.18c-1-1-3.51-3.22-4.88-3.19a1.47,1.47,0,0,0-1,.55,7.73,7.73,0,0,0-1.19,2,27,27,0,0,0-2.48,11.7,24.06,24.06,0,0,0,.53,7.12c.2,1,.47,1.94.69,2.92a13,13,0,0,0,1.09-2c-.2-.84-.46-1.66-.64-2.51a25.46,25.46,0,0,1-.52-5.71c.05-3.11,1.1-9.43,3.36-11.63a.6.6,0,0,1,.48-.14,2.59,2.59,0,0,1,1.22.93l.23.23a4.3,4.3,0,0,1,1.07,1.21c.17.23.33.48.49.72s.31.5.46.76.29.51.42.77.26.52.38.79.24.54.34.81.21.55.31.83.18.56.26.84.15.57.22.85a17.84,17.84,0,0,1,.4,2.3c.06.45.06.93.14,1.38a33.48,33.48,0,0,0-3.34,2.59l-.36.34-.36.34-.35.36-.34.36-.33.37-.33.38-.31.38-.31.39-.3.39-.3.4-.28.41-.28.41-.27.42-.26.42c-.08.15-.17.29-.25.43l-.24.44c-.08.14-.16.29-.23.44s-.15.29-.23.44l-.21.45-.21.45-.19.46c-.07.15-.13.3-.19.46l-.18.46c-.05.16-.11.31-.16.47s-.11.31-.16.47l-.15.48c0,.15-.09.31-.14.47s-.09.32-.13.48l-.12.49c0,.16-.07.32-.11.48l-.09.49a3.86,3.86,0,0,0-.09.49,14.94,14.94,0,0,0,.14,6.28h0a9.54,9.54,0,0,0,.58,2.09c1.52,4.15,4.81,7.79,8.24,10.49A22.75,22.75,0,0,0,186,81.18a32.72,32.72,0,0,1,3.49,1.3c.33.07.82.27,1.13.09s.82,0,1.17-.11a11.66,11.66,0,0,0,5.79,1.71,10.67,10.67,0,0,0,4.77-1c.43-.22.84-.5,1.26-.75.51.08,1.05-.08,1.54,0v0a3.49,3.49,0,0,0,1.28-.22c.54-.37,2.62-.82,3.45-1.18A26.14,26.14,0,0,0,220.07,72.81ZM176.87,49.5l.31-.47Zm1.79-2.5c.28-.35.56-.69.86-1C179.22,46.31,178.94,46.65,178.66,47Zm2.45-2.63.15-.14Zm1.74-1.73,0,0Zm0,0s0,0,0,0S182.89,42.58,182.88,42.59Z" transform="translate(0 0.01)" style="fill:url(#New_Gradient_Swatch_4)"/><path d="M227,66.05a5.14,5.14,0,0,0,3.92-2.58,9.91,9.91,0,0,1-5.78-5.38c-.18-.33-.34-.66-.5-1a40.74,40.74,0,0,1,.33,4.68,18.67,18.67,0,0,1-3.9,11.83,23.37,23.37,0,0,1-4.16,4,20.66,20.66,0,0,1-.41,5.26c-.66,3.19-2.21,7.86-5,9.71a5.92,5.92,0,0,1-1,.52c3.26-.1,5.67-1.94,7.81-4.21.44-.46.85-.94,1.27-1.42a39.81,39.81,0,0,1-2.11,4.11,31.37,31.37,0,0,1-2,2.66,16.24,16.24,0,0,0,1.39-1,13,13,0,0,1,2.27-1.74,23.47,23.47,0,0,0,3.27-3.76,37.89,37.89,0,0,0,7.28-16.54c-.67-.87-1.4-1.7-2.09-2.57s-1.24-1.64-1.88-2.44l0-.1A3.88,3.88,0,0,1,227,66.05Z" transform="translate(0 0.01)" style="fill:url(#New_Gradient_Swatch_4-2)"/><path d="M169.4,66l1.25-.15c-.08-.38-.16-.76-.22-1.14s-.11-.76-.14-1.15-.06-.77-.07-1.16,0-.77,0-1.16c0-.72.13-1.44.15-2.16-.91,1.78-1.87,4.06-3.93,4.73l-.71.21a4.59,4.59,0,0,0,2.81,1.81A2.73,2.73,0,0,1,169.4,66Z" transform="translate(0 0.01)" style="fill:url(#New_Gradient_Swatch_4-3)"/><path d="M177.62,89a11.8,11.8,0,0,0,7.06,4,13.43,13.43,0,0,1-1.6-1.11c-2.22-2-3.37-5-4-7.86a12,12,0,0,1-.24-1.46,2.15,2.15,0,0,1,0-.51c0-.71-.13-1.41-.18-2.12s-.09-1.65-.08-2.48c-.67-.66-1.44-1.2-2.12-1.85A20,20,0,0,1,171.63,69c-.37-.9-.64-1.86-.93-2.78a10.64,10.64,0,0,0-3,7.74c.36,6.46,5.65,14.58,10.37,18.76.54.49,1.12.94,1.69,1.4-.51-.76-1.06-1.52-1.52-2.32a22.4,22.4,0,0,1-1.87-4.49l0,0C176.84,87.83,177.16,88.5,177.62,89Z" transform="translate(0 0.01)" style="fill:url(#New_Gradient_Swatch_4-4)"/><path d="M185.69,54.09a3.9,3.9,0,0,1,2.19.49c1.64,1,2.31,3,2.77,4.75a6.29,6.29,0,0,0-1.36-1.12c-.17-.08-.21,0-.38,0a2.88,2.88,0,0,1-1.89.48l-.12,0-.11,0-.12,0-.11,0-.11,0-.11-.05-.1,0-.11-.06-.09-.06-.1-.07-.09-.07-.09-.08-.09-.08-.08-.09-.08-.09-.07-.09a2.74,2.74,0,0,1-.32-2.18,17.59,17.59,0,0,0-1.85-.77A6.42,6.42,0,0,1,185.69,54.09Z" transform="translate(0 0.01)" style="fill:#361e21"/><path d="M208.93,54.14a9.06,9.06,0,0,1,3.17.49,4.94,4.94,0,0,0-1.51,1c-.81.89-.75,2.23-1.91,2.86a3.06,3.06,0,0,1-2.19.12,5.91,5.91,0,0,1-.79-.41,8.65,8.65,0,0,0-1.46,1.11,10.11,10.11,0,0,1,1.58-3.6A4.41,4.41,0,0,1,208.93,54.14Z" transform="translate(0 0.01)" style="fill:#361e21"/><path d="M176.16,30c1.51.18,2.43,1.27,3.33,2.41A22.3,22.3,0,0,1,183.7,42a2.6,2.6,0,0,0-.8.53l-.39.24c-.08-.45-.08-.93-.14-1.38a17.84,17.84,0,0,0-.4-2.3c-.07-.28-.14-.57-.22-.85s-.17-.56-.26-.84-.2-.55-.31-.83-.22-.54-.34-.81-.25-.53-.38-.79-.27-.52-.42-.77-.3-.51-.46-.76-.32-.49-.49-.72A4.3,4.3,0,0,0,178,31.53l-.23-.23a2.59,2.59,0,0,0-1.22-.93.6.6,0,0,0-.48.14c-2.26,2.2-3.31,8.52-3.36,11.63a25.46,25.46,0,0,0,.52,5.71c.18.85.44,1.67.64,2.51a13,13,0,0,1-1.09,2c-.22-1-.49-1.94-.69-2.92a24.06,24.06,0,0,1-.53-7.12c0,.31,0,.62,0,.92.28-1.23.42-2.49.69-3.73.42-2,2.07-8.47,3.78-9.56Z" transform="translate(0 0.01)" style="fill:url(#New_Gradient_Swatch_4-5)"/><path d="M197.67,40.85v0h0Z" transform="translate(0 0.01)" style="fill:#fefefe"/><path d="M186.88,72.8a13,13,0,0,0,2.51,6,10.48,10.48,0,0,0,7,4A10.21,10.21,0,0,0,204,80.62a12.8,12.8,0,0,0,4.43-7.06,16.07,16.07,0,0,0,.24-1.83l-.13,0a.69.69,0,0,1,.15-.07,10.13,10.13,0,0,1,.05,2.58c-.38,3.72-2.33,5.92-5.11,8.18-.42.25-.83.53-1.26.75a10.67,10.67,0,0,1-4.77,1,11.66,11.66,0,0,1-5.79-1.71,12.6,12.6,0,0,1-3.25-3.14A9.31,9.31,0,0,1,186.88,72.8Z" transform="translate(0 0.01)" style="fill:#361e21"/><path d="M196.7,67.85a7.69,7.69,0,0,1,4.2.87,2.71,2.71,0,0,1,1.48,1.51,4.05,4.05,0,0,1-.56,2.83,6,6,0,0,1-4,2.74,4.34,4.34,0,0,0,.08.63,2.49,2.49,0,0,0,1.17,1.49,5.93,5.93,0,0,0,4.6.31,6.87,6.87,0,0,1-.65.45c-1.49.88-3.1.47-4.66.08-1.18-.28-2.38.31-3.55.44a4.29,4.29,0,0,1-3.38-1,6.46,6.46,0,0,0,.78.25,5.37,5.37,0,0,0,3.89-.55,2.84,2.84,0,0,0,1.27-2,7,7,0,0,1-2.78-1.24,4.63,4.63,0,0,1-1.85-2.94s0-.1,0-.15V71.2a.76.76,0,0,1,0-.15s0-.1,0-.15a.77.77,0,0,0,0-.15.57.57,0,0,1,0-.14l0-.15,0-.15a1.21,1.21,0,0,1,.05-.14L193,70l.06-.13.08-.13a955422092322.29,955422092322.29,0,0,0,.16-.26l.09-.12A4.78,4.78,0,0,1,196.7,67.85Z" transform="translate(0 0.01)" style="fill:#361e21"/><path d="M206.56,38.58c-1.31-.24-2.59-.57-3.9-.78a33.25,33.25,0,0,0-14,.75c-.66-.65-1.24-1.37-1.88-2a38.24,38.24,0,0,0-5.62-5.18,25.34,25.34,0,0,0,2.76,2.86c1,1.13,2,2.28,2.94,3.46.63.79,1.22,1.61,1.89,2.37a32.35,32.35,0,0,1,18,.13c.55-.75,1.07-1.53,1.63-2.28.82-1.08,1.68-2.13,2.57-3.15.39-.46.79-.9,1.22-1.33a12,12,0,0,0,1.93-2.05,15.94,15.94,0,0,0-1.91,1.57A74.9,74.9,0,0,0,206.56,38.58Z" transform="translate(0 0.01)" style="fill:#fff"/><path d="M176.23,30.63a1.73,1.73,0,0,1,.51,0c.33.13.75.73,1,.63a2.59,2.59,0,0,0-1.22-.93.6.6,0,0,0-.48.14c-2.26,2.2-3.31,8.52-3.36,11.63a25.46,25.46,0,0,0,.52,5.71c.18.85.44,1.67.64,2.51a33.41,33.41,0,0,1,3.68-4.53,9.26,9.26,0,0,1-1.26-6.37,6.89,6.89,0,0,0,1.74,3.63,14.61,14.61,0,0,1,.07-3c.09-.62.27-1.22.3-1.84a8.72,8.72,0,0,0-.24-1.43A18.18,18.18,0,0,0,176.23,30.63Z" transform="translate(0 0.01)" style="fill:#fff"/><path d="M222.42,42.13a25.86,25.86,0,0,0-2.5-10.7,5.44,5.44,0,0,0-1-1.52,3.47,3.47,0,0,0-.46.4v.05c-.19.92-.65,1.89-.87,2.86q-.21,1-.36,2t-.21,2c0,.53,0,1.07-.06,1.6A14.62,14.62,0,0,0,218,43a17.82,17.82,0,0,0,1.39-3.62,7,7,0,0,1-.06,1.37,11.68,11.68,0,0,1-1.73,5.16A26.85,26.85,0,0,1,221,50.27C222.23,48.17,222.46,44.53,222.42,42.13Z" transform="translate(0 0.01)" style="fill:#fff"/><path d="M188.12,55.8s0,0,0-.07a.14.14,0,0,1,0-.06.43.43,0,0,0,0-.07.1.1,0,0,0,0-.05l0-.06a.94.94,0,0,0-.8-.25h-.08a1,1,0,0,0-.5.64.72.72,0,0,0,.13.55.84.84,0,0,0,.53.32,1.43,1.43,0,0,0,.36,0,1.11,1.11,0,0,0,.53-.75v-.14S188.12,55.82,188.12,55.8Z" transform="translate(0 0.01)" style="fill:#fff"/><path d="M208.49,55.26a1.15,1.15,0,0,0-.26,0c-.29.17-.52.31-.6.66a.65.65,0,0,0,.1.54,1.07,1.07,0,0,0,.75.39.89.89,0,0,0,.57-.5.76.76,0,0,0,0-.64A.91.91,0,0,0,208.49,55.26Z" transform="translate(0 0.01)" style="fill:#fff"/><path d="M190,50.63a7.6,7.6,0,0,0-3-.74,1.5,1.5,0,0,0-1,.52A.71.71,0,0,0,186,51c.3,1.19,2.38,2.43,3.42,3a4.87,4.87,0,0,0,1.53.57,1.13,1.13,0,0,0,.79-.47,2.16,2.16,0,0,0,.13-1.58A3.51,3.51,0,0,0,190,50.63Z" transform="translate(0 0.01)" style="fill:#fff"/><path d="M209,50.17a4,4,0,0,0-1.64-.07,5.34,5.34,0,0,0-3.57,1.67,2.24,2.24,0,0,0-.5,1.63,1.29,1.29,0,0,0,.44.89,1.23,1.23,0,0,0,.91.22,2.55,2.55,0,0,0,.76-.27c1.06-.55,3.77-1.93,4.16-3.05a.74.74,0,0,0,0-.6A.77.77,0,0,0,209,50.17Z" transform="translate(0 0.01)" style="fill:#fff"/><path d="M196.41,69.18A3.29,3.29,0,0,0,194,70a1.86,1.86,0,0,0-.39,1.38,2.56,2.56,0,0,0,1,1.71,8.48,8.48,0,0,0,.81.51,6.77,6.77,0,0,1-1-1.2,2,2,0,0,1-.16-1.54,1.88,1.88,0,0,1,1.1-1,10,10,0,0,1,3.81-.36A6.94,6.94,0,0,0,196.41,69.18Z" transform="translate(0 0.01)" style="fill:#fff"/></svg>