<?xml version="1.0" encoding="UTF-8"?>
<svg id="Layer_1" xmlns="http://www.w3.org/2000/svg" version="1.1" xmlns:xlink="http://www.w3.org/1999/xlink" viewBox="0 0 99 78">
  <!-- Generator: Adobe Illustrator 29.6.0, SVG Export Plug-In . SVG Version: 2.1.1 Build 207)  -->
  <defs>
    <style>
      .st0 {
        fill: url(#linear-gradient2);
      }

      .st1 {
        fill: #fff;
      }

      .st1, .st2, .st3, .st4, .st5, .st6 {
        fill-rule: evenodd;
      }

      .st2 {
        fill: #f1f1f1;
      }

      .st3 {
        fill: url(#linear-gradient1);
      }

      .st4 {
        isolation: isolate;
        opacity: .26;
      }

      .st5 {
        fill: gray;
      }

      .st6 {
        fill: url(#linear-gradient);
      }

      .st7 {
        opacity: .52;
      }
    </style>
    <linearGradient id="linear-gradient" x1="-490.16" y1="11.49" x2="-489.16" y2="11.49" gradientTransform="translate(41634.8 -728.98) scale(84.93 66.37)" gradientUnits="userSpaceOnUse">
      <stop offset="0" stop-color="#392dd1"/>
      <stop offset="1" stop-color="#a91b78"/>
    </linearGradient>
    <linearGradient id="linear-gradient1" x1="-514.19" y1="1.25" x2="-513.19" y2="1.25" gradientTransform="translate(-10393.72 -23097.84) rotate(-113.99) scale(49.46 95.36)" gradientUnits="userSpaceOnUse">
      <stop offset="0" stop-color="#392dd1"/>
      <stop offset="1" stop-color="#a91b78"/>
    </linearGradient>
    <linearGradient id="linear-gradient2" x1="19.46" y1="16.47" x2="33.71" y2="26.08" gradientUnits="userSpaceOnUse">
      <stop offset=".1" stop-color="#ff5124"/>
      <stop offset=".56" stop-color="#ea492f"/>
      <stop offset="1" stop-color="#db3805"/>
    </linearGradient>
  </defs>
  <g>
    <path class="st6" d="M6.2,3.5c0-.47.1-.9.3-1.3.13-.47.37-.87.7-1.2s.73-.57,1.2-.7C8.8.1,9.27,0,9.8,0h78.9C89.17,0,89.6.1,90,.3c.47.13.87.37,1.2.7.33.33.6.73.8,1.2.13.4.2.83.2,1.3v63.7H6.2S6.2,3.5,6.2,3.5Z"/>
    <path class="st3" d="M1.4,73.7c-1.7,2.4-.8,4.3,2.2,4.3h92.1c3,0,3.9-1.9,2-4.2l-5.5-6.6H6.2s-4.8,6.5-4.8,6.5Z"/>
    <path class="st4" d="M6.4,72.1c-1.5,1.6-.9,2.9,1.2,2.9h84.1c2.1,0,2.6-1.2,1.1-2.7l-5.1-5.1H10.9s-4.5,4.9-4.5,4.9Z"/>
    <path class="st1" d="M9.8,6.9c0-.33.03-.63.1-.9.13-.33.33-.63.6-.9.2-.2.47-.37.8-.5s.67-.2,1-.2h73.9c.33,0,.63.07.9.2.33.13.63.33.9.6.2.2.37.47.5.8.13.27.2.57.2.9v49.9c0,.33-.07.63-.2.9-.13.33-.3.63-.5.9-.27.2-.57.37-.9.5-.27.13-.57.2-.9.2H12.3c-.33,0-.67-.07-1-.2-.27-.13-.53-.33-.8-.6-.27-.2-.47-.47-.6-.8-.07-.27-.1-.57-.1-.9,0,0,0-49.9,0-49.9Z"/>
    <g class="st7">
      <path class="st2" d="M37.4,14.2h39.4c.2,0,.4.1.4.4v2.4c0,.3-.2.4-.4.4h-39.4c-.2,0-.4-.1-.4-.4v-2.4c0-.3.2-.4.4-.4Z"/>
      <path class="st2" d="M37.4,26.4h38.3c.3,0,.4.1.4.4v2.4c0,.2-.1.4-.4.4h-38.3c-.2,0-.4-.2-.4-.4v-2.4c0-.3.2-.4.4-.4Z"/>
      <path class="st2" d="M18.2,41.4h63.7c.2,0,.4.2.4.4v6.2c0,.2-.2.4-.4.4H18.2c-.3,0-.5-.2-.5-.4v-6.2c0-.2.2-.4.5-.4Z"/>
      <path class="st2" d="M37.4,21h44.7c.2,0,.4.2.4.4v1.1c0,.2-.2.4-.4.4h-44.7c-.2,0-.4-.2-.4-.4v-1.1c0-.2.2-.4.4-.4Z"/>
      <path class="st2" d="M18.2,34.8h62c.2,0,.4.2.4.4v1.1c0,.2-.2.4-.4.4H18.2c-.3,0-.5-.2-.5-.4v-1.1c0-.2.2-.4.5-.4Z"/>
    </g>
  </g>
  <g>
    <circle class="st0" cx="26.22" cy="21.03" r="7.34"/>
    <g>
      <path class="st5" d="M25.76,16.43c-.13.12-.19.22-.31.45-.21.41-.28.81-.23,1.21.03.23.1.46.16.5.02.01.03.04.03.05s.02.04.04.07c.04.04.04.04-.02.03-.13-.04-.3-.17-.42-.33-.09-.12-.18-.36-.22-.61,0-.05-.03-.08-.05-.08-.04,0-.4.18-.41.21,0,.01-.02.02-.03.02s-.05.02-.08.05c-.03.03-.14.11-.24.18-.18.14-.51.46-.62.61-.03.04-.07.09-.08.1-.02.02-.08.11-.2.3-.06.1-.15.27-.15.29,0,0,.08-.05.17-.12.33-.27.58-.41.9-.51.29-.09.3-.07.09.07-.2.13-.59.51-.72.69-.36.49-.56.91-.64,1.31-.05.3-.05.84,0,.84.01,0,.02-.02.02-.04,0-.17.26-.74.44-.97.21-.27.59-.61.68-.61,0,0,0,.02-.02.04-.04.04-.17.27-.27.45-.2.38-.34.9-.34,1.28,0,.33.12.78.28,1.05.04.07.08.13.08.14,0,.03.29.34.41.43.1.08.26.18.4.25.13.07.34.14.36.12,0,0-.06-.09-.15-.18-.29-.31-.51-.67-.62-1.02-.08-.25-.04-.87.07-1.01.03-.03.03-.02.03.08,0,.29.13.6.37.9.08.1.14.18.15.19,0,0,.08.09.16.18.08.09.15.17.16.18.09.08.43.57.43.61,0,.01,0,.03.02.03.03.01.2.38.26.57.04.12.06.25.07.39,0,.12.02.21.02.21.05,0,.24-.3.3-.48.07-.2.09-.58.03-.79-.05-.2-.15-.43-.27-.6-.05-.08-.09-.14-.08-.14.08,0,.53.42.62.58.03.05.07.12.1.17.11.2.16.41.16.69,0,.34-.08.6-.28.93-.03.04-.06.1-.07.12-.04.06.01.05.18-.04.38-.21.81-.65,1.02-1.02.07-.12.14-.41.14-.55,0-.2-.1-.57-.17-.65-.02-.03-.03-.01-.04.08-.03.24-.17.64-.19.54-.05-.31-.12-.48-.27-.71-.17-.25-.34-.39-.94-.77-.38-.23-.52-.34-.8-.59-.12-.11-.27-.27-.27-.29,0,0-.01-.03-.03-.05-.05-.06-.17-.26-.22-.4-.05-.12-.05-.17-.05-.44,0-.27,0-.33.06-.49.03-.1.1-.25.15-.33.08-.14.29-.37.43-.47.08-.06.36-.2.45-.22.07-.01.06-.01-.05.09-.27.26-.51.63-.59.92-.06.23-.07.71,0,.71.01,0,.02,0,.02-.02,0-.05.12-.27.21-.4.06-.07.15-.18.21-.22.06-.05.12-.1.12-.1.02-.02.32-.17.38-.19.06-.02.06-.02-.08.19-.2.29-.31.69-.29,1.01.01.16.11.52.15.55,0,0,.04.06.08.11.09.13.25.29.41.41.17.12.21.12.13,0-.13-.18-.21-.63-.16-.87.03-.14.13-.37.16-.37.01,0,.02.06.02.12,0,.35.12.59.48.94.14.14.33.32.41.4.44.4.63.75.69,1.2.03.26.01.49-.06.7-.02.07-.03.13-.02.13.04,0,.2-.24.29-.42.1-.19.18-.55.18-.74,0-.25-.09-.53-.23-.74-.11-.17-.22-.27-.48-.47-.31-.23-.38-.35-.27-.45.04-.04.08-.04.29-.04.22,0,.27,0,.54.09.45.14.5.16.76.16.19,0,.26,0,.34-.05.11-.05.27-.19.27-.23,0-.01-.09-.03-.21-.05-.13-.02-.3-.06-.45-.11-.42-.15-.87-.3-.99-.33-.07-.02-.12-.04-.12-.05s.04-.03.1-.04c.11-.03.36,0,.55.07.06.02.23.08.36.13.54.2.83.23,1.05.12.11-.06.25-.17.25-.21,0-.01-.04-.06-.08-.1-.12-.1-.18-.25-.17-.37,0-.05.17-.08.35-.07h.17s-.06-.04-.06-.04c-.03-.03-.11-.08-.17-.12s-.15-.11-.2-.14c-.19-.14-.39-.28-.41-.3-.01,0-.09-.06-.17-.12-.08-.06-.15-.11-.16-.11s-.09-.06-.18-.12-.18-.12-.19-.14c-.01-.01-.04-.1-.05-.19-.04-.24-.1-.35-.32-.57-.3-.3-.73-.59-1.18-.82-.15-.08-.29-.15-.32-.16-.02-.01-.05-.02-.07-.02-.02,0-.07-.08-.14-.22-.1-.21-.21-.39-.24-.41,0,0-.02-.02-.02-.03,0-.02-.07-.12-.25-.32-.12-.14-.33-.33-.37-.33-.02,0-.08.04-.13.08M25.84,16.93c-.07.09-.17.31-.21.46-.02.07-.02.22-.02.36,0,.21.02.25.08.38.11.22.38.47.33.31-.05-.16-.06-.3-.05-.46.01-.18.02-.19.07-.19.06,0,.31.12.36.17.06.06.07.02.04-.15-.03-.16-.17-.49-.29-.67-.06-.09-.23-.28-.26-.28,0,0-.04.03-.07.06M27.11,17.03c-.07.15-.14.36-.14.42,0,.02.03.05.08.07.19.07.39.15.53.24.08.05.15.09.16.1.05.03-.31-.68-.38-.76-.02-.02-.03-.04-.03-.05,0-.02-.13-.16-.14-.16,0,0-.04.06-.08.14M27.18,19.01h-.19s.1.06.1.06c.33.14.37.17.45.29.13.19.23.24.48.27.16.01.24.03.33.08.14.07.14.07.14.03,0-.1-.43-.62-.51-.62-.02,0-.03,0-.03-.02,0-.06-.42-.1-.77-.07"/>
      <path class="st1" d="M25.71,16.38c-.13.12-.19.22-.31.45-.21.41-.28.81-.23,1.21.03.23.1.46.16.5.02.01.03.04.03.05s.02.04.04.07c.04.04.04.04-.02.03-.13-.04-.3-.17-.42-.33-.09-.12-.18-.36-.22-.61,0-.05-.03-.08-.05-.08-.04,0-.4.18-.41.21,0,.01-.02.02-.03.02s-.05.02-.08.05c-.03.03-.14.11-.24.18-.18.14-.51.46-.62.61-.03.04-.07.09-.08.1-.02.02-.08.11-.2.3-.06.1-.15.27-.15.29,0,0,.08-.05.17-.12.33-.27.58-.41.9-.51.29-.09.3-.07.09.07-.2.13-.59.51-.72.69-.36.49-.56.91-.64,1.31-.05.3-.05.84,0,.84.01,0,.02-.02.02-.04,0-.17.26-.74.44-.97.21-.27.59-.61.68-.61,0,0,0,.02-.02.04-.04.04-.17.27-.27.45-.2.38-.34.9-.34,1.28,0,.33.12.78.28,1.05.04.07.08.13.08.14,0,.03.29.34.41.43.1.08.26.18.4.25.13.07.34.14.36.12,0,0-.06-.09-.15-.18-.29-.31-.51-.67-.62-1.02-.08-.25-.04-.87.07-1.01.03-.03.03-.02.03.08,0,.29.13.6.37.9.08.1.14.18.15.19,0,0,.08.09.16.18.08.09.15.17.16.18.09.08.43.57.43.61,0,.01,0,.03.02.03.03.01.2.38.26.57.04.12.06.25.07.39,0,.12.02.21.02.21.05,0,.24-.3.3-.48.07-.2.09-.58.03-.79-.05-.2-.15-.43-.27-.6-.05-.08-.09-.14-.08-.14.08,0,.53.42.62.58.03.05.07.12.1.17.11.2.16.41.16.69,0,.34-.08.6-.28.93-.03.04-.06.1-.07.12-.04.06.01.05.18-.04.38-.21.81-.65,1.02-1.02.07-.12.14-.41.14-.55,0-.2-.1-.57-.17-.65-.02-.03-.03-.01-.04.08-.03.24-.17.64-.19.54-.05-.31-.12-.48-.27-.71-.17-.25-.34-.39-.94-.77-.38-.23-.52-.34-.8-.59-.12-.11-.27-.27-.27-.29,0,0-.01-.03-.03-.05-.05-.06-.17-.26-.22-.4-.05-.12-.05-.17-.05-.44,0-.27,0-.33.06-.49.03-.1.1-.25.15-.33.08-.14.29-.37.43-.47.08-.06.36-.2.45-.22.07-.01.06-.01-.05.09-.27.26-.51.63-.59.92-.06.23-.07.71,0,.71.01,0,.02,0,.02-.02,0-.05.12-.27.21-.4.06-.07.15-.18.21-.22.06-.05.12-.1.12-.1.02-.02.32-.17.38-.19.06-.02.06-.02-.08.19-.2.29-.31.69-.29,1.01.01.16.11.52.15.55,0,0,.04.06.08.11.09.13.25.29.41.41.17.12.21.12.13,0-.13-.18-.21-.63-.16-.87.03-.14.13-.37.16-.37.01,0,.02.06.02.12,0,.35.12.59.48.94.14.14.33.32.41.4.44.4.63.75.69,1.2.03.26.01.49-.06.7-.02.07-.03.13-.02.13.04,0,.2-.24.29-.42.1-.19.18-.55.18-.74,0-.25-.09-.53-.23-.74-.11-.17-.22-.27-.48-.47-.31-.23-.38-.35-.27-.45.04-.04.08-.04.29-.04.22,0,.27,0,.54.09.45.14.5.16.76.16.19,0,.26,0,.34-.05.11-.05.27-.19.27-.23,0-.01-.09-.03-.21-.05-.13-.02-.3-.06-.45-.11-.42-.15-.87-.3-.99-.33-.07-.02-.12-.04-.12-.05s.04-.03.1-.04c.11-.03.36,0,.55.07.06.02.23.08.36.13.54.2.83.23,1.05.12.11-.06.25-.17.25-.21,0-.01-.04-.06-.08-.1-.12-.1-.18-.25-.17-.37,0-.05.17-.08.35-.07h.17s-.06-.04-.06-.04c-.03-.03-.11-.08-.17-.12s-.15-.11-.2-.14c-.19-.14-.39-.28-.41-.3-.01,0-.09-.06-.17-.12-.08-.06-.15-.11-.16-.11s-.09-.06-.18-.12-.18-.12-.19-.14c-.01-.01-.04-.1-.05-.19-.04-.24-.1-.35-.32-.57-.3-.3-.73-.59-1.18-.82-.15-.08-.29-.15-.32-.16-.02-.01-.05-.02-.07-.02-.02,0-.07-.08-.14-.22-.1-.21-.21-.39-.24-.41,0,0-.02-.02-.02-.03,0-.02-.07-.12-.25-.32-.12-.14-.33-.33-.37-.33-.02,0-.08.04-.13.08M25.8,16.88c-.07.09-.17.31-.21.46-.02.07-.02.22-.02.36,0,.21.02.25.08.38.11.22.38.47.33.31-.05-.16-.06-.3-.05-.46.01-.18.02-.19.07-.19.06,0,.31.12.36.17.06.06.07.02.04-.15-.03-.16-.17-.49-.29-.67-.06-.09-.23-.28-.26-.28,0,0-.04.03-.07.06M27.07,16.98c-.07.15-.14.36-.14.42,0,.02.03.05.08.07.19.07.39.15.53.24.08.05.15.09.16.1.05.03-.31-.68-.38-.76-.02-.02-.03-.04-.03-.05,0-.02-.13-.16-.14-.16,0,0-.04.06-.08.14M27.13,18.97h-.19s.1.06.1.06c.33.14.37.17.45.29.13.19.23.24.48.27.16.01.24.03.33.08.14.07.14.07.14.03,0-.1-.43-.62-.51-.62-.02,0-.03,0-.03-.02,0-.06-.42-.1-.77-.07"/>
    </g>
  </g>
</svg>