<?xml version="1.0" encoding="UTF-8"?>
<svg xmlns="http://www.w3.org/2000/svg" xmlns:xlink="http://www.w3.org/1999/xlink" width="84px" height="90px" viewBox="0 0 84 90" version="1.1">
<defs>
<linearGradient id="linear0" gradientUnits="userSpaceOnUse" x1="-251.378906" y1="461.155914" x2="-250.391693" y2="461.155914" gradientTransform="matrix(70.544998,0,0,-88.808998,17733.974609,40999.207031)">
<stop offset="0" style="stop-color:rgb(22.352941%,17.647059%,81.960784%);stop-opacity:1;"/>
<stop offset="1" style="stop-color:rgb(66.27451%,10.588235%,47.058824%);stop-opacity:1;"/>
</linearGradient>
<filter id="alpha" filterUnits="objectBoundingBox" x="0%" y="0%" width="100%" height="100%">
  <feColorMatrix type="matrix" in="SourceGraphic" values="0 0 0 0 1 0 0 0 0 1 0 0 0 0 1 0 0 0 1 0"/>
</filter>
<mask id="mask0">
  <g filter="url(#alpha)">
<rect x="0" y="0" width="84" height="90" style="fill:rgb(0%,0%,0%);fill-opacity:0.517647;stroke:none;"/>
  </g>
</mask>
<clipPath id="clip1">
  <rect x="0" y="0" width="84" height="90"/>
</clipPath>
<g id="surface5" clip-path="url(#clip1)">
<path style=" stroke:none;fill-rule:nonzero;fill:rgb(94.509804%,94.509804%,94.509804%);fill-opacity:1;" d="M 25.554688 11.648438 L 57.855469 11.648438 C 58.054688 11.648438 58.15625 11.847656 58.15625 11.945312 L 58.15625 13.945312 C 58.15625 14.148438 57.953125 14.246094 57.855469 14.246094 L 25.554688 14.246094 C 25.355469 14.246094 25.253906 14.046875 25.253906 13.945312 L 25.253906 11.945312 C 25.253906 11.847656 25.355469 11.648438 25.554688 11.648438 Z M 25.554688 11.648438 "/>
<path style=" stroke:none;fill-rule:nonzero;fill:rgb(94.509804%,94.509804%,94.509804%);fill-opacity:1;" d="M 25.554688 21.648438 L 56.953125 21.648438 C 57.15625 21.648438 57.253906 21.847656 57.253906 21.945312 L 57.253906 23.945312 C 57.253906 24.148438 57.054688 24.246094 56.953125 24.246094 L 25.554688 24.246094 C 25.355469 24.246094 25.253906 24.046875 25.253906 23.945312 L 25.253906 21.945312 C 25.253906 21.847656 25.355469 21.648438 25.554688 21.648438 Z M 25.554688 21.648438 "/>
<path style=" stroke:none;fill-rule:nonzero;fill:rgb(94.509804%,94.509804%,94.509804%);fill-opacity:1;" d="M 9.753906 59.847656 L 54.753906 59.847656 C 54.953125 59.847656 55.054688 60.046875 55.054688 60.148438 L 55.054688 62.148438 C 55.054688 62.347656 54.855469 62.445312 54.753906 62.445312 L 9.753906 62.445312 C 9.554688 62.445312 9.453125 62.246094 9.453125 62.148438 L 9.453125 60.148438 C 9.453125 59.945312 9.65625 59.847656 9.753906 59.847656 Z M 9.753906 59.847656 "/>
<path style=" stroke:none;fill-rule:nonzero;fill:rgb(94.509804%,94.509804%,94.509804%);fill-opacity:1;" d="M 7.953125 34.046875 L 62.054688 34.046875 C 62.253906 34.046875 62.355469 34.246094 62.355469 34.347656 L 62.355469 39.445312 C 62.355469 39.648438 62.15625 39.746094 62.054688 39.746094 L 7.953125 39.746094 C 7.753906 39.746094 7.65625 39.546875 7.65625 39.445312 L 7.65625 34.347656 C 7.554688 34.148438 7.753906 34.046875 7.953125 34.046875 Z M 7.953125 34.046875 "/>
<path style=" stroke:none;fill-rule:nonzero;fill:rgb(94.509804%,94.509804%,94.509804%);fill-opacity:1;" d="M 7.753906 42.648438 L 61.953125 42.648438 C 62.15625 42.648438 62.253906 42.847656 62.253906 42.945312 L 62.253906 54.246094 C 62.253906 54.445312 62.054688 54.546875 61.953125 54.546875 L 7.753906 54.546875 C 7.65625 54.648438 7.453125 54.445312 7.453125 54.246094 L 7.453125 42.945312 C 7.453125 42.847656 7.65625 42.648438 7.753906 42.648438 Z M 7.753906 42.648438 "/>
<path style=" stroke:none;fill-rule:nonzero;fill:rgb(94.509804%,94.509804%,94.509804%);fill-opacity:1;" d="M 25.554688 17.246094 L 62.15625 17.246094 C 62.355469 17.246094 62.453125 17.445312 62.453125 17.546875 L 62.453125 18.445312 C 62.453125 18.648438 62.253906 18.746094 62.15625 18.746094 L 25.554688 18.746094 C 25.355469 18.746094 25.253906 18.546875 25.253906 18.445312 L 25.253906 17.648438 C 25.253906 17.445312 25.355469 17.246094 25.554688 17.246094 Z M 25.554688 17.246094 "/>
<path style=" stroke:none;fill-rule:nonzero;fill:rgb(94.509804%,94.509804%,94.509804%);fill-opacity:1;" d="M 7.753906 29.648438 L 60.453125 29.648438 C 60.65625 29.648438 60.753906 29.847656 60.753906 29.945312 L 60.753906 30.847656 C 60.753906 31.046875 60.554688 31.148438 60.453125 31.148438 L 7.753906 31.148438 C 7.554688 31.148438 7.453125 30.945312 7.453125 30.847656 L 7.453125 29.945312 C 7.453125 29.847656 7.65625 29.648438 7.753906 29.648438 Z M 7.753906 29.648438 "/>
<path style=" stroke:none;fill-rule:nonzero;fill:rgb(94.509804%,94.509804%,94.509804%);fill-opacity:1;" d="M 9.753906 65.445312 L 60.65625 65.445312 C 60.855469 65.445312 60.953125 65.648438 60.953125 65.746094 L 60.953125 66.648438 C 60.953125 66.847656 60.753906 66.945312 60.65625 66.945312 L 9.753906 66.945312 C 9.65625 66.945312 9.453125 66.847656 9.453125 66.648438 L 9.453125 65.746094 C 9.453125 65.546875 9.65625 65.445312 9.753906 65.445312 Z M 9.753906 65.445312 "/>
</g>
<linearGradient id="linear1" gradientUnits="userSpaceOnUse" x1="-248.431793" y1="460.359985" x2="-246.854996" y2="459.359985" gradientTransform="matrix(37.787998,0,0,-68.851997,9426.94043,31722.445312)">
<stop offset="0" style="stop-color:rgb(22.352941%,17.647059%,81.960784%);stop-opacity:1;"/>
<stop offset="1" style="stop-color:rgb(66.27451%,10.588235%,47.058824%);stop-opacity:1;"/>
</linearGradient>
<linearGradient id="linear2" gradientUnits="userSpaceOnUse" x1="7.3483" y1="14.2913" x2="22.8715" y2="24.7626" >
<stop offset="0.097724" style="stop-color:rgb(100%,31.764706%,14.117647%);stop-opacity:1;"/>
<stop offset="0.5631" style="stop-color:rgb(91.764706%,28.627451%,18.431373%);stop-opacity:1;"/>
<stop offset="1" style="stop-color:rgb(85.882353%,21.960784%,1.960784%);stop-opacity:1;"/>
</linearGradient>
<linearGradient id="linear3" gradientUnits="userSpaceOnUse" x1="53.709801" y1="30.694" x2="62.938999" y2="36.919601" >
<stop offset="0.097724" style="stop-color:rgb(100%,31.764706%,14.117647%);stop-opacity:1;"/>
<stop offset="0.5631" style="stop-color:rgb(91.764706%,28.627451%,18.431373%);stop-opacity:1;"/>
<stop offset="1" style="stop-color:rgb(85.882353%,21.960784%,1.960784%);stop-opacity:1;"/>
</linearGradient>
</defs>
<g id="surface1">
<path style=" stroke:none;fill-rule:evenodd;fill:url(#linear0);" d="M 0 3.800781 C 0 1.699219 1.699219 0 3.800781 0 L 66.800781 0 C 68.898438 0 70.601562 1.699219 70.601562 3.800781 L 70.601562 85 C 70.601562 87.101562 68.898438 88.800781 66.800781 88.800781 L 3.800781 88.800781 C 1.699219 88.800781 0 87.101562 0 85 Z M 0 3.800781 "/>
<path style=" stroke:none;fill-rule:evenodd;fill:rgb(100%,100%,100%);fill-opacity:1;" d="M 2.898438 5.699219 C 2.898438 4.601562 3.800781 3.601562 5 3.601562 L 65.601562 3.601562 C 66.699219 3.601562 67.699219 4.5 67.699219 5.699219 L 67.699219 73.601562 C 67.699219 74.699219 66.800781 75.699219 65.601562 75.699219 L 5 75.699219 C 3.898438 75.699219 2.898438 74.800781 2.898438 73.699219 Z M 2.898438 5.699219 "/>
<use xlink:href="#surface5" mask="url(#mask0)"/>
<path style=" stroke:none;fill-rule:nonzero;fill:rgb(100%,100%,100%);fill-opacity:1;" d="M 38.5 81.5 C 38.5 79.898438 37.203125 78.601562 35.601562 78.601562 C 34 78.601562 32.699219 79.898438 32.699219 81.5 C 32.699219 83.101562 34 84.398438 35.601562 84.398438 C 37.203125 84.398438 38.5 83.101562 38.5 81.5 Z M 38.5 81.5 "/>
<path style=" stroke:none;fill-rule:evenodd;fill:url(#linear1);" d="M 46 26.101562 C 46 23.300781 48.300781 21 51.101562 21 L 78.699219 21 C 81.5 21 83.800781 23.300781 83.800781 26.101562 L 83.800781 84.800781 C 83.800781 87.601562 81.5 89.898438 78.699219 89.898438 L 51.101562 89.898438 C 48.300781 89.898438 46 87.601562 46 84.800781 Z M 46 26.101562 "/>
<path style=" stroke:none;fill-rule:evenodd;fill:rgb(100%,100%,100%);fill-opacity:1;" d="M 47.699219 26 C 47.699219 24.5 48.898438 23.199219 50.5 23.199219 L 79.398438 23.199219 C 80.898438 23.199219 82.199219 24.398438 82.199219 26 L 82.199219 80.800781 C 82.199219 82.300781 81 83.601562 79.398438 83.601562 L 50.5 83.601562 C 49 83.601562 47.699219 82.398438 47.699219 80.800781 Z M 51.601562 85.898438 C 51.601562 85.601562 51.898438 85.300781 52.199219 85.300781 L 77.601562 85.300781 C 77.898438 85.300781 78.199219 85.601562 78.199219 85.898438 C 78.199219 86.199219 77.898438 86.5 77.601562 86.5 L 52.199219 86.5 C 51.898438 86.5 51.601562 86.199219 51.601562 85.898438 Z M 51.601562 85.898438 "/>
<path style=" stroke:none;fill-rule:nonzero;fill:rgb(92.156863%,92.156863%,92.156863%);fill-opacity:1;" d="M 65.007812 30.0625 L 75.207031 30.0625 C 75.507812 30.0625 75.707031 30.265625 75.707031 30.5625 L 75.707031 31.5625 C 75.707031 31.863281 75.507812 32.0625 75.207031 32.0625 L 65.007812 32.0625 C 64.707031 32.0625 64.507812 31.863281 64.507812 31.5625 L 64.507812 30.464844 C 64.507812 30.265625 64.707031 30.0625 65.007812 30.0625 Z M 65.007812 30.0625 "/>
<path style=" stroke:none;fill-rule:nonzero;fill:rgb(92.156863%,92.156863%,92.156863%);fill-opacity:1;" d="M 53.308594 40.164062 L 73.707031 40.164062 C 74.007812 40.164062 74.207031 40.363281 74.207031 40.664062 L 74.207031 41.765625 C 74.207031 42.0625 74.007812 42.265625 73.707031 42.265625 L 53.308594 42.265625 C 53.007812 42.265625 52.808594 42.0625 52.808594 41.765625 L 52.808594 40.664062 C 52.90625 40.363281 53.109375 40.164062 53.308594 40.164062 Z M 53.308594 40.164062 "/>
<path style=" stroke:none;fill-rule:nonzero;fill:rgb(92.156863%,92.156863%,92.156863%);fill-opacity:1;" d="M 53.308594 70.664062 L 73.707031 70.664062 C 74.007812 70.664062 74.207031 70.863281 74.207031 71.164062 L 74.207031 72.265625 C 74.207031 72.5625 74.007812 72.765625 73.707031 72.765625 L 53.308594 72.765625 C 53.007812 72.765625 52.808594 72.5625 52.808594 72.265625 L 52.808594 71.164062 C 52.90625 70.863281 53.109375 70.664062 53.308594 70.664062 Z M 53.308594 70.664062 "/>
<path style=" stroke:none;fill-rule:nonzero;fill:rgb(92.156863%,92.156863%,92.156863%);fill-opacity:1;" d="M 53.308594 49.265625 L 77.109375 49.265625 C 77.40625 49.265625 77.609375 49.464844 77.609375 49.765625 L 77.609375 53.0625 C 77.609375 53.363281 77.40625 53.5625 77.109375 53.5625 L 53.308594 53.5625 C 53.007812 53.5625 52.808594 53.363281 52.808594 53.0625 L 52.808594 49.765625 C 52.90625 49.464844 53.109375 49.265625 53.308594 49.265625 Z M 53.308594 49.265625 "/>
<path style=" stroke:none;fill-rule:nonzero;fill:rgb(92.156863%,92.156863%,92.156863%);fill-opacity:1;" d="M 53.308594 55.964844 L 77.109375 55.964844 C 77.40625 55.964844 77.609375 56.164062 77.609375 56.464844 L 77.609375 64.265625 C 77.609375 64.5625 77.40625 64.765625 77.109375 64.765625 L 53.308594 64.765625 C 53.007812 64.765625 52.808594 64.5625 52.808594 64.265625 L 52.808594 56.464844 C 52.90625 56.164062 53.109375 55.964844 53.308594 55.964844 Z M 53.308594 55.964844 "/>
<path style=" stroke:none;fill-rule:nonzero;fill:rgb(92.156863%,92.156863%,92.156863%);fill-opacity:1;" d="M 64.898438 34.101562 L 76.601562 34.101562 C 76.898438 34.101562 77.101562 34.300781 77.101562 34.601562 L 77.101562 34.699219 C 77.101562 35 76.898438 35.199219 76.601562 35.199219 L 64.898438 35.199219 C 64.601562 35.199219 64.398438 35 64.398438 34.699219 L 64.398438 34.601562 C 64.398438 34.300781 64.601562 34.101562 64.898438 34.101562 Z M 64.898438 34.101562 "/>
<path style=" stroke:none;fill-rule:nonzero;fill:rgb(92.156863%,92.156863%,92.156863%);fill-opacity:1;" d="M 64.898438 37.199219 L 76.601562 37.199219 C 76.898438 37.199219 77.101562 37.398438 77.101562 37.699219 L 77.101562 37.800781 C 77.101562 38.101562 76.898438 38.300781 76.601562 38.300781 L 64.898438 38.300781 C 64.601562 38.300781 64.398438 38.101562 64.398438 37.800781 L 64.398438 37.699219 C 64.398438 37.398438 64.601562 37.199219 64.898438 37.199219 Z M 64.898438 37.199219 "/>
<path style=" stroke:none;fill-rule:nonzero;fill:rgb(92.156863%,92.156863%,92.156863%);fill-opacity:1;" d="M 53.199219 44.101562 L 76.398438 44.101562 C 76.699219 44.101562 76.898438 44.300781 76.898438 44.601562 L 76.898438 44.699219 C 76.898438 45 76.699219 45.199219 76.398438 45.199219 L 53.199219 45.199219 C 52.898438 45.199219 52.699219 45 52.699219 44.699219 L 52.699219 44.601562 C 52.800781 44.300781 53 44.101562 53.199219 44.101562 Z M 53.199219 44.101562 "/>
<path style=" stroke:none;fill-rule:nonzero;fill:rgb(92.156863%,92.156863%,92.156863%);fill-opacity:1;" d="M 53.199219 74.601562 L 76.398438 74.601562 C 76.699219 74.601562 76.898438 74.800781 76.898438 75.101562 L 76.898438 75.199219 C 76.898438 75.5 76.699219 75.699219 76.398438 75.699219 L 53.199219 75.699219 C 52.898438 75.699219 52.699219 75.5 52.699219 75.199219 L 52.699219 75.101562 C 52.800781 74.800781 53 74.601562 53.199219 74.601562 Z M 53.199219 74.601562 "/>
<path style=" stroke:none;fill-rule:nonzero;fill:url(#linear2);" d="M 22.699219 19.300781 C 22.699219 14.882812 19.117188 11.300781 14.699219 11.300781 C 10.28125 11.300781 6.699219 14.882812 6.699219 19.300781 C 6.699219 23.71875 10.28125 27.300781 14.699219 27.300781 C 19.117188 27.300781 22.699219 23.71875 22.699219 19.300781 Z M 22.699219 19.300781 "/>
<path style=" stroke:none;fill-rule:evenodd;fill:rgb(50.196081%,50.196081%,50.196081%);fill-opacity:1;" d="M 13.898438 12.199219 C 13.699219 12.398438 13.601562 12.5 13.398438 12.898438 C 13.101562 13.5 13 14.199219 13 14.800781 C 13 15.199219 13.199219 15.5 13.199219 15.601562 C 13.199219 15.601562 13.199219 15.699219 13.199219 15.699219 C 13.199219 15.699219 13.199219 15.800781 13.300781 15.800781 C 13.398438 15.898438 13.398438 15.898438 13.300781 15.800781 C 13.101562 15.699219 12.800781 15.5 12.601562 15.300781 C 12.5 15.101562 12.300781 14.699219 12.300781 14.300781 C 12.300781 14.199219 12.300781 14.199219 12.199219 14.199219 C 12.101562 14.199219 11.601562 14.5 11.601562 14.5 C 11.601562 14.5 11.5 14.5 11.5 14.601562 C 11.398438 14.601562 11.300781 14.800781 11.101562 14.898438 C 10.800781 15.101562 10.300781 15.601562 10.101562 15.800781 C 10.101562 15.898438 10 15.898438 10 16 C 10 16 9.898438 16.199219 9.699219 16.5 C 9.601562 16.699219 9.5 16.898438 9.5 17 C 9.5 17 9.601562 16.898438 9.800781 16.800781 C 10.300781 16.398438 10.699219 16.199219 11.199219 16 C 11.601562 15.898438 11.699219 15.898438 11.300781 16.101562 C 11 16.300781 10.398438 16.898438 10.199219 17.199219 C 9.601562 18 9.300781 18.601562 9.199219 19.199219 C 9.101562 19.699219 9.101562 20.5 9.199219 20.5 C 9.199219 20.5 9.199219 20.5 9.199219 20.398438 C 9.199219 20.101562 9.601562 19.199219 9.898438 18.898438 C 10.199219 18.5 10.800781 17.898438 11 17.898438 C 11 17.898438 11 17.898438 11 18 C 10.898438 18.101562 10.699219 18.398438 10.601562 18.699219 C 10.300781 19.300781 10.101562 20.101562 10.101562 20.699219 C 10.101562 21.199219 10.300781 21.898438 10.5 22.300781 C 10.601562 22.398438 10.601562 22.5 10.601562 22.5 C 10.601562 22.5 11.101562 23 11.199219 23.199219 C 11.398438 23.300781 11.601562 23.5 11.800781 23.601562 C 12 23.699219 12.300781 23.800781 12.398438 23.800781 C 12.398438 23.800781 12.300781 23.699219 12.199219 23.5 C 11.800781 23 11.398438 22.5 11.199219 21.898438 C 11.101562 21.5 11.101562 20.5 11.300781 20.300781 C 11.300781 20.199219 11.300781 20.300781 11.300781 20.398438 C 11.300781 20.800781 11.5 21.300781 11.898438 21.800781 C 12 22 12.101562 22.101562 12.101562 22.101562 C 12.101562 22.101562 12.199219 22.199219 12.300781 22.398438 C 12.398438 22.5 12.5 22.699219 12.5 22.699219 C 12.601562 22.800781 13.199219 23.601562 13.199219 23.601562 C 13.199219 23.601562 13.5 24.199219 13.601562 24.5 C 13.699219 24.699219 13.699219 24.898438 13.699219 25.101562 C 13.699219 25.300781 13.699219 25.398438 13.699219 25.398438 C 13.800781 25.398438 14.101562 24.898438 14.199219 24.699219 C 14.300781 24.398438 14.300781 23.800781 14.300781 23.5 C 14.199219 23.199219 14.101562 22.800781 13.898438 22.601562 C 13.800781 22.5 13.800781 22.398438 13.800781 22.398438 C 13.898438 22.398438 14.601562 23 14.800781 23.300781 C 14.800781 23.398438 14.898438 23.5 15 23.601562 C 15.199219 23.898438 15.300781 24.199219 15.199219 24.699219 C 15.199219 25.199219 15.101562 25.601562 14.800781 26.101562 C 14.800781 26.199219 14.699219 26.300781 14.699219 26.300781 C 14.601562 26.398438 14.699219 26.398438 15 26.199219 C 15.601562 25.898438 16.300781 25.199219 16.601562 24.601562 C 16.699219 24.398438 16.800781 24 16.800781 23.699219 C 16.800781 23.398438 16.601562 22.800781 16.5 22.699219 C 16.5 22.699219 16.5 22.699219 16.398438 22.800781 C 16.398438 23.199219 16.101562 23.800781 16.101562 23.601562 C 16 23.101562 15.898438 22.800781 15.699219 22.5 C 15.398438 22.101562 15.199219 21.898438 14.199219 21.300781 C 13.601562 20.898438 13.398438 20.800781 12.898438 20.398438 C 12.699219 20.199219 12.5 20 12.5 20 C 12.5 20 12.5 20 12.5 19.898438 C 12.398438 19.800781 12.199219 19.5 12.199219 19.300781 C 12 19.101562 12 19.101562 12 18.601562 C 12 18.199219 12 18.101562 12.101562 17.800781 C 12.199219 17.601562 12.300781 17.398438 12.300781 17.300781 C 12.398438 17.101562 12.800781 16.699219 13 16.601562 C 13.101562 16.5 13.601562 16.300781 13.699219 16.300781 C 13.800781 16.300781 13.800781 16.300781 13.601562 16.398438 C 13.199219 16.800781 12.800781 17.398438 12.699219 17.800781 C 12.601562 18.199219 12.601562 18.898438 12.699219 18.898438 C 12.699219 18.800781 12.898438 18.5 13 18.300781 C 13.101562 18.199219 13.199219 18 13.300781 17.898438 C 13.398438 17.800781 13.5 17.800781 13.5 17.699219 C 13.5 17.699219 14 17.398438 14.101562 17.398438 C 14.199219 17.398438 14.199219 17.398438 14 17.699219 C 13.699219 18.101562 13.5 18.800781 13.5 19.300781 C 13.5 19.601562 13.699219 20.101562 13.699219 20.199219 C 13.699219 20.199219 13.800781 20.300781 13.800781 20.398438 C 13.898438 20.601562 14.199219 20.898438 14.398438 21 C 14.699219 21.199219 14.699219 21.199219 14.601562 21 C 14.398438 20.699219 14.300781 20 14.398438 19.601562 C 14.398438 19.398438 14.601562 19 14.699219 19 C 14.699219 19 14.699219 19.101562 14.699219 19.199219 C 14.699219 19.699219 14.898438 20.101562 15.398438 20.699219 C 15.601562 20.898438 15.898438 21.199219 16 21.300781 C 16.699219 21.898438 17 22.5 17.101562 23.199219 C 17.101562 23.601562 17.101562 24 17 24.300781 C 17 24.398438 16.898438 24.5 17 24.5 C 17.101562 24.5 17.300781 24.101562 17.5 23.800781 C 17.601562 23.5 17.800781 23 17.800781 22.699219 C 17.800781 22.300781 17.699219 21.898438 17.398438 21.5 C 17.199219 21.199219 17.101562 21.101562 16.699219 20.800781 C 16.199219 20.398438 16.101562 20.300781 16.300781 20.101562 C 16.398438 20 16.398438 20 16.699219 20 C 17 20 17.101562 20 17.5 20.101562 C 18.199219 20.300781 18.300781 20.300781 18.699219 20.300781 C 19 20.300781 19.101562 20.300781 19.199219 20.199219 C 19.398438 20.101562 19.601562 19.898438 19.601562 19.800781 C 19.601562 19.800781 19.5 19.699219 19.300781 19.699219 C 19.101562 19.699219 18.800781 19.601562 18.601562 19.5 C 17.898438 19.300781 17.199219 19 17.101562 19 C 17 19 16.898438 18.898438 16.898438 18.898438 C 16.898438 18.898438 17 18.898438 17 18.800781 C 17.199219 18.800781 17.601562 18.800781 17.898438 18.898438 C 18 18.898438 18.300781 19 18.5 19.101562 C 19.300781 19.398438 19.800781 19.5 20.101562 19.300781 C 20.300781 19.199219 20.5 19 20.5 19 C 20.5 19 20.398438 18.898438 20.398438 18.800781 C 20.199219 18.601562 20.101562 18.398438 20.101562 18.199219 C 20.101562 18.101562 20.398438 18.101562 20.601562 18.101562 L 20.898438 18.101562 L 21 18.398438 C 21 18.398438 20.800781 18.300781 20.699219 18.199219 C 20.601562 18.101562 20.5 18 20.398438 18 C 20.101562 17.800781 19.800781 17.601562 19.800781 17.5 C 19.800781 17.5 19.699219 17.398438 19.5 17.300781 C 19.300781 17.199219 19.300781 17.101562 19.300781 17.101562 C 19.300781 17.101562 19.199219 17 19 16.898438 C 18.800781 16.800781 18.699219 16.699219 18.699219 16.699219 C 18.699219 16.699219 18.601562 16.5 18.601562 16.398438 C 18.5 16 18.398438 15.898438 18.101562 15.5 C 17.601562 15 17 14.601562 16.300781 14.199219 C 16.101562 14.101562 15.800781 14 15.800781 14 C 15.800781 14 15.699219 14 15.699219 14 C 15.699219 14 15.601562 13.898438 15.5 13.699219 C 15.300781 13.398438 15.199219 13.101562 15.101562 13.101562 C 15.101562 13.101562 15 12.898438 14.699219 12.601562 C 14.5 12.398438 14.199219 12.101562 14.101562 12.101562 C 14 12 13.898438 12.101562 13.898438 12.199219 M 14 12.898438 C 13.898438 13 13.699219 13.398438 13.699219 13.601562 C 13.699219 13.699219 13.699219 13.898438 13.699219 14.199219 C 13.699219 14.5 13.699219 14.601562 13.800781 14.800781 C 14 15.101562 14.398438 15.5 14.300781 15.300781 C 14.199219 15 14.199219 14.800781 14.199219 14.601562 C 14.199219 14.300781 14.199219 14.300781 14.300781 14.300781 C 14.398438 14.300781 14.800781 14.5 14.898438 14.601562 C 15 14.699219 15 14.601562 15 14.398438 C 15 14.101562 14.699219 13.601562 14.5 13.398438 C 14.398438 13.300781 14.101562 13 14.101562 13 C 14.101562 12.800781 14 12.898438 14 12.898438 M 16 13.101562 C 15.898438 13.300781 15.800781 13.699219 15.800781 13.800781 C 15.800781 13.800781 15.898438 13.898438 15.898438 13.898438 C 16.199219 14 16.5 14.101562 16.699219 14.300781 C 16.800781 14.398438 16.898438 14.398438 17 14.5 C 17.101562 14.5 16.5 13.398438 16.398438 13.300781 C 16.398438 13.300781 16.398438 13.199219 16.398438 13.199219 C 16.398438 13.199219 16.199219 12.898438 16.199219 12.898438 C 16.101562 12.898438 16 13 16 13.101562 M 16.101562 16.199219 L 15.800781 16.199219 L 16 16.300781 C 16.5 16.5 16.601562 16.601562 16.699219 16.699219 C 16.898438 17 17.101562 17.101562 17.398438 17.101562 C 17.601562 17.101562 17.800781 17.199219 17.898438 17.199219 C 18.101562 17.300781 18.101562 17.300781 18.101562 17.199219 C 18.101562 17 17.398438 16.199219 17.300781 16.199219 C 17.300781 16.199219 16.601562 16.101562 16.101562 16.199219 "/>
<path style=" stroke:none;fill-rule:evenodd;fill:rgb(100%,100%,100%);fill-opacity:1;" d="M 13.800781 12.101562 C 13.601562 12.300781 13.5 12.398438 13.300781 12.800781 C 13 13.398438 12.898438 14 13 14.699219 C 13 15.101562 13.199219 15.398438 13.199219 15.5 C 13.199219 15.5 13.199219 15.601562 13.199219 15.601562 C 13.199219 15.601562 13.199219 15.699219 13.300781 15.699219 C 13.398438 15.800781 13.398438 15.800781 13.300781 15.699219 C 13.101562 15.601562 12.800781 15.398438 12.601562 15.199219 C 12.5 15 12.300781 14.601562 12.300781 14.199219 C 12.300781 14.101562 12.300781 14.101562 12.199219 14.101562 C 12.101562 14.101562 11.601562 14.398438 11.601562 14.398438 C 11.601562 14.398438 11.5 14.398438 11.5 14.5 C 11.398438 14.5 11.300781 14.699219 11.101562 14.800781 C 10.800781 15 10.300781 15.5 10.101562 15.699219 C 10.101562 15.800781 10 15.800781 10 15.898438 C 10 15.898438 9.898438 16.101562 9.699219 16.398438 C 9.601562 16.601562 9.5 16.800781 9.5 16.898438 C 9.5 16.898438 9.601562 16.800781 9.800781 16.699219 C 10.300781 16.300781 10.699219 16.101562 11.199219 15.898438 C 11.601562 15.800781 11.699219 15.800781 11.300781 16 C 11 16.199219 10.398438 16.800781 10.199219 17.101562 C 9.601562 17.898438 9.300781 18.5 9.199219 19.101562 C 9.101562 19.601562 9.101562 20.398438 9.199219 20.398438 C 9.199219 20.398438 9.199219 20.398438 9.199219 20.300781 C 9.199219 20 9.601562 19.101562 9.898438 18.800781 C 10.199219 18.398438 10.800781 17.800781 11 17.800781 C 11 17.800781 11 17.800781 11 17.898438 C 10.898438 18 10.699219 18.300781 10.601562 18.601562 C 10.300781 19.199219 10.101562 20 10.101562 20.601562 C 10.101562 21.101562 10.300781 21.800781 10.5 22.199219 C 10.601562 22.300781 10.601562 22.398438 10.601562 22.398438 C 10.601562 22.398438 11.101562 22.898438 11.199219 23.101562 C 11.398438 23.199219 11.601562 23.398438 11.800781 23.5 C 12 23.601562 12.300781 23.699219 12.398438 23.699219 C 12.398438 23.699219 12.300781 23.601562 12.199219 23.398438 C 11.800781 22.898438 11.398438 22.398438 11.199219 21.800781 C 11.101562 21.398438 11.101562 20.398438 11.300781 20.199219 C 11.300781 20.101562 11.300781 20.199219 11.300781 20.300781 C 11.300781 20.699219 11.5 21.199219 11.898438 21.699219 C 11.898438 21.898438 12 22 12 22 C 12 22 12.101562 22.101562 12.199219 22.300781 C 12.300781 22.398438 12.398438 22.601562 12.398438 22.601562 C 12.5 22.699219 13.101562 23.5 13.101562 23.5 C 13.101562 23.5 13.398438 24.101562 13.5 24.398438 C 13.601562 24.601562 13.601562 24.800781 13.601562 25 C 13.601562 25.199219 13.601562 25.300781 13.601562 25.300781 C 13.699219 25.300781 14 24.800781 14.101562 24.601562 C 14.199219 24.300781 14.199219 23.699219 14.199219 23.398438 C 14.101562 23.101562 14 22.699219 13.800781 22.5 C 13.699219 22.398438 13.699219 22.300781 13.699219 22.300781 C 13.800781 22.300781 14.5 22.898438 14.699219 23.199219 C 14.699219 23.300781 14.800781 23.398438 14.898438 23.5 C 15.101562 23.800781 15.199219 24.101562 15.101562 24.601562 C 15.101562 25.101562 15 25.5 14.699219 26 C 14.699219 26.101562 14.601562 26.199219 14.601562 26.199219 C 14.5 26.300781 14.601562 26.300781 14.898438 26.101562 C 15.5 25.800781 16.199219 25.101562 16.5 24.5 C 16.601562 24.300781 16.699219 23.898438 16.699219 23.601562 C 16.699219 23.300781 16.5 22.699219 16.398438 22.601562 C 16.398438 22.601562 16.398438 22.601562 16.300781 22.699219 C 16.300781 23.101562 16 23.699219 16 23.5 C 15.898438 23 15.800781 22.699219 15.601562 22.398438 C 15.300781 22 15.101562 21.800781 14.101562 21.199219 C 13.5 20.800781 13.300781 20.699219 12.800781 20.300781 C 12.601562 20.101562 12.398438 19.898438 12.398438 19.898438 C 12.398438 19.898438 12.398438 19.898438 12.398438 19.800781 C 12.300781 19.699219 12.101562 19.398438 12.101562 19.199219 C 12 19.101562 12 19 12 18.601562 C 12 18.199219 12 18.101562 12.101562 17.800781 C 12.199219 17.601562 12.300781 17.398438 12.300781 17.300781 C 12.398438 17.101562 12.800781 16.699219 13 16.601562 C 13.101562 16.5 13.601562 16.300781 13.699219 16.300781 C 13.800781 16.300781 13.800781 16.300781 13.601562 16.398438 C 13.199219 16.800781 12.800781 17.398438 12.699219 17.800781 C 12.601562 18.199219 12.601562 18.898438 12.699219 18.898438 C 12.699219 18.800781 12.898438 18.5 13 18.300781 C 13.101562 18.199219 13.199219 18 13.300781 17.898438 C 13.398438 17.800781 13.5 17.800781 13.5 17.699219 C 13.5 17.699219 14 17.398438 14.101562 17.398438 C 14.199219 17.398438 14.199219 17.398438 14 17.699219 C 13.699219 18.101562 13.5 18.800781 13.5 19.300781 C 13.5 19.601562 13.699219 20.101562 13.699219 20.199219 C 13.699219 20.199219 13.800781 20.300781 13.800781 20.398438 C 13.898438 20.601562 14.199219 20.898438 14.398438 21 C 14.699219 21.199219 14.699219 21.199219 14.601562 21 C 14.398438 20.699219 14.300781 20 14.398438 19.601562 C 14.398438 19.398438 14.601562 19 14.699219 19 C 14.699219 19 14.699219 19.101562 14.699219 19.199219 C 14.699219 19.699219 14.898438 20.101562 15.398438 20.699219 C 15.601562 20.898438 15.898438 21.199219 16 21.300781 C 16.699219 21.898438 17 22.5 17.101562 23.199219 C 17.101562 23.601562 17.101562 24 17 24.300781 C 17 24.398438 16.898438 24.5 17 24.5 C 17.101562 24.5 17.300781 24.101562 17.5 23.800781 C 17.601562 23.5 17.800781 23 17.800781 22.699219 C 17.800781 22.300781 17.699219 21.898438 17.398438 21.5 C 17.199219 21.199219 17.101562 21.101562 16.699219 20.800781 C 16.199219 20.398438 16.101562 20.300781 16.300781 20.101562 C 16.398438 20 16.398438 20 16.699219 20 C 17 20 17.101562 20 17.5 20.101562 C 18.199219 20.300781 18.300781 20.300781 18.699219 20.300781 C 19 20.300781 19.101562 20.300781 19.199219 20.199219 C 19.398438 20.101562 19.601562 19.898438 19.601562 19.800781 C 19.601562 19.800781 19.5 19.699219 19.300781 19.699219 C 19.101562 19.699219 18.800781 19.601562 18.601562 19.5 C 17.898438 19.300781 17.199219 19 17.101562 19 C 17 19 16.898438 18.898438 16.898438 18.898438 C 16.898438 18.898438 17 18.898438 17 18.800781 C 17.199219 18.800781 17.601562 18.800781 17.898438 18.898438 C 18 18.898438 18.300781 19 18.5 19.101562 C 19.300781 19.398438 19.800781 19.5 20.101562 19.300781 C 20.300781 19.199219 20.5 19 20.5 19 C 20.5 19 20.398438 18.898438 20.398438 18.800781 C 20.199219 18.601562 20.101562 18.398438 20.101562 18.199219 C 20.101562 18.101562 20.398438 18.101562 20.601562 18.101562 L 20.898438 18.101562 L 20.800781 18 C 20.800781 18 20.601562 17.898438 20.5 17.800781 C 20.398438 17.699219 20.300781 17.601562 20.199219 17.601562 C 19.898438 17.398438 19.601562 17.199219 19.601562 17.101562 C 19.601562 17.101562 19.5 17 19.300781 16.898438 C 19.101562 16.800781 19.101562 16.699219 19.101562 16.699219 C 19.101562 16.699219 19 16.601562 18.800781 16.5 C 18.699219 16.398438 18.5 16.300781 18.5 16.300781 C 18.5 16.300781 18.398438 16.101562 18.398438 16 C 18.300781 15.601562 18.199219 15.5 17.898438 15.101562 C 17.398438 14.601562 16.800781 14.199219 16.101562 13.800781 C 15.898438 13.699219 15.601562 13.601562 15.601562 13.601562 C 15.601562 13.601562 15.5 13.601562 15.5 13.601562 C 15.5 13.601562 15.398438 13.5 15.300781 13.300781 C 15.199219 13.300781 15 13 15 13 C 15 13 14.898438 12.800781 14.601562 12.5 C 14.398438 12.199219 14 12 14 12 C 14 12 13.898438 12 13.800781 12.101562 M 13.898438 12.898438 C 13.800781 13 13.601562 13.398438 13.601562 13.601562 C 13.601562 13.699219 13.601562 13.898438 13.601562 14.199219 C 13.601562 14.5 13.601562 14.601562 13.699219 14.800781 C 13.898438 15.101562 14.300781 15.5 14.199219 15.300781 C 14.101562 15 14.101562 14.800781 14.101562 14.601562 C 14.101562 14.300781 14.101562 14.300781 14.199219 14.300781 C 14.300781 14.300781 14.699219 14.5 14.800781 14.601562 C 14.898438 14.699219 14.898438 14.601562 14.898438 14.398438 C 14.898438 14.101562 14.601562 13.601562 14.398438 13.398438 C 14.300781 13.300781 14 13 14 13 C 14 12.800781 14 12.800781 13.898438 12.898438 M 15.898438 13 C 15.800781 13.199219 15.699219 13.601562 15.699219 13.699219 C 15.699219 13.699219 15.800781 13.800781 15.800781 13.800781 C 16.101562 13.898438 16.398438 14 16.601562 14.199219 C 16.699219 14.300781 16.800781 14.300781 16.898438 14.398438 C 17 14.398438 16.398438 13.300781 16.300781 13.199219 C 16.300781 13.199219 16.300781 13.101562 16.300781 13.101562 C 16.300781 13.101562 16.101562 12.800781 16.101562 12.800781 C 16 12.800781 16 12.898438 15.898438 13 M 16 16.101562 L 15.699219 16.101562 L 15.898438 16.199219 C 16.398438 16.398438 16.5 16.5 16.601562 16.601562 C 16.800781 16.898438 17 17 17.300781 17 C 17.5 17 17.699219 17.101562 17.800781 17.101562 C 18 17.199219 18 17.199219 18 17.101562 C 18 16.898438 17.300781 16.101562 17.199219 16.101562 C 17.199219 16.101562 16.5 16.101562 16 16.101562 "/>
<path style=" stroke:none;fill-rule:nonzero;fill:url(#linear3);" d="M 62.898438 33.601562 C 62.898438 30.949219 60.75 28.800781 58.101562 28.800781 C 55.449219 28.800781 53.300781 30.949219 53.300781 33.601562 C 53.300781 36.25 55.449219 38.398438 58.101562 38.398438 C 60.75 38.398438 62.898438 36.25 62.898438 33.601562 Z M 62.898438 33.601562 "/>
<path style=" stroke:none;fill-rule:evenodd;fill:rgb(50.196081%,50.196081%,50.196081%);fill-opacity:1;" d="M 57.601562 29.398438 C 57.5 29.5 57.398438 29.601562 57.300781 29.800781 C 57.101562 30.199219 57 30.5 57.101562 30.898438 C 57.101562 31.101562 57.199219 31.300781 57.199219 31.398438 C 57.199219 31.398438 57.199219 31.398438 57.199219 31.5 C 57.101562 31.5 56.898438 31.300781 56.800781 31.199219 C 56.699219 31.101562 56.601562 30.898438 56.601562 30.601562 C 56.601562 30.601562 56.601562 30.5 56.601562 30.5 C 56.601562 30.5 56.199219 30.699219 56.199219 30.699219 C 56.199219 30.699219 56.199219 30.699219 56.101562 30.699219 C 56.101562 30.699219 56 30.800781 55.898438 30.898438 C 55.699219 31 55.398438 31.300781 55.300781 31.5 C 55.300781 31.5 55.199219 31.601562 55.199219 31.601562 C 55.199219 31.601562 55.101562 31.699219 55 31.898438 C 55 32 55 32.199219 55 32.199219 C 55 32.199219 55.101562 32.199219 55.199219 32.101562 C 55.5 31.898438 55.699219 31.699219 56 31.601562 C 56.300781 31.5 56.300781 31.5 56.101562 31.699219 C 55.898438 31.800781 55.601562 32.199219 55.398438 32.300781 C 55.101562 32.699219 54.898438 33.101562 54.800781 33.5 C 54.699219 33.800781 54.699219 34.300781 54.800781 34.300781 C 54.800781 34.101562 55 33.601562 55.199219 33.398438 C 55.398438 33.101562 55.699219 32.800781 55.800781 32.800781 C 55.800781 32.800781 55.601562 33 55.601562 33.199219 C 55.398438 33.5 55.300781 34 55.300781 34.398438 C 55.300781 34.699219 55.398438 35.101562 55.601562 35.398438 C 55.601562 35.5 55.699219 35.5 55.699219 35.5 C 55.699219 35.5 56 35.800781 56.101562 35.898438 C 56.199219 36 56.300781 36.101562 56.5 36.101562 C 56.601562 36.199219 56.800781 36.199219 56.800781 36.199219 C 56.800781 36.199219 56.699219 36.101562 56.699219 36 C 56.398438 35.699219 56.199219 35.398438 56.101562 35.101562 C 56 34.898438 56.101562 34.300781 56.199219 34.199219 C 56.199219 34.199219 56.199219 34.199219 56.199219 34.300781 C 56.199219 34.601562 56.300781 34.898438 56.5 35.101562 C 56.601562 35.199219 56.601562 35.300781 56.601562 35.300781 C 56.601562 35.300781 56.699219 35.398438 56.699219 35.5 C 56.800781 35.601562 56.800781 35.699219 56.800781 35.699219 C 56.898438 35.800781 57.199219 36.199219 57.199219 36.300781 C 57.199219 36.300781 57.398438 36.601562 57.398438 36.800781 C 57.398438 36.898438 57.5 37 57.5 37.199219 C 57.5 37.300781 57.5 37.398438 57.5 37.398438 C 57.5 37.398438 57.699219 37.101562 57.800781 37 C 57.898438 36.800781 57.898438 36.5 57.800781 36.300781 C 57.800781 36.101562 57.699219 35.898438 57.5 35.699219 C 57.398438 35.601562 57.398438 35.601562 57.398438 35.601562 C 57.5 35.601562 57.898438 36 58 36.101562 C 58 36.101562 58.101562 36.199219 58.101562 36.300781 C 58.199219 36.5 58.199219 36.699219 58.199219 36.898438 C 58.199219 37.199219 58.101562 37.5 57.898438 37.800781 C 57.898438 37.800781 57.800781 37.898438 57.800781 37.898438 C 57.800781 38 57.800781 37.898438 58 37.898438 C 58.398438 37.699219 58.800781 37.300781 58.898438 37 C 59 36.898438 59 36.601562 59 36.5 C 59 36.300781 58.898438 36 58.800781 35.898438 C 58.800781 35.898438 58.800781 35.898438 58.800781 36 C 58.800781 36.199219 58.601562 36.601562 58.601562 36.5 C 58.601562 36.199219 58.5 36.101562 58.300781 35.800781 C 58.101562 35.601562 58 35.398438 57.398438 35.101562 C 57.101562 34.898438 56.898438 34.800781 56.699219 34.601562 C 56.601562 34.5 56.398438 34.398438 56.398438 34.300781 C 56.300781 34.199219 56.199219 34.101562 56.199219 33.898438 C 56.199219 33.800781 56.199219 33.699219 56.199219 33.5 C 56.199219 33.300781 56.199219 33.199219 56.300781 33 C 56.300781 32.898438 56.398438 32.800781 56.398438 32.699219 C 56.5 32.601562 56.699219 32.398438 56.800781 32.300781 C 56.898438 32.199219 57.101562 32.101562 57.199219 32.101562 C 57.300781 32.101562 57.300781 32.101562 57.199219 32.199219 C 56.898438 32.398438 56.699219 32.800781 56.699219 33.101562 C 56.601562 33.300781 56.601562 33.800781 56.699219 33.800781 C 56.699219 33.800781 56.800781 33.5 56.898438 33.398438 C 57 33.300781 57 33.199219 57.101562 33.199219 C 57.199219 33.199219 57.199219 33.101562 57.199219 33.101562 C 57.199219 33.101562 57.5 32.898438 57.601562 32.898438 C 57.699219 32.898438 57.699219 32.898438 57.5 33.101562 C 57.300781 33.398438 57.199219 33.699219 57.199219 34 C 57.199219 34.101562 57.300781 34.5 57.300781 34.5 C 57.300781 34.5 57.300781 34.601562 57.398438 34.601562 C 57.5 34.699219 57.601562 34.898438 57.800781 35 C 58 35.101562 58 35.101562 57.898438 35 C 57.800781 34.800781 57.699219 34.398438 57.800781 34.199219 C 57.800781 34.101562 57.898438 33.898438 58 33.898438 C 58 33.898438 58 34 58 34 C 58 34.300781 58.101562 34.5 58.398438 34.898438 C 58.5 35 58.699219 35.199219 58.800781 35.300781 C 59.199219 35.699219 59.398438 36 59.398438 36.398438 C 59.398438 36.601562 59.398438 36.898438 59.300781 37 C 59.300781 37.101562 59.300781 37.101562 59.300781 37.101562 C 59.300781 37.101562 59.5 36.898438 59.601562 36.699219 C 59.699219 36.5 59.800781 36.199219 59.800781 36 C 59.800781 35.800781 59.699219 35.5 59.601562 35.300781 C 59.5 35.101562 59.398438 35 59.199219 34.898438 C 58.898438 34.699219 58.898438 34.601562 59 34.5 C 59 34.5 59.101562 34.5 59.300781 34.5 C 59.5 34.5 59.5 34.5 59.800781 34.601562 C 60.199219 34.699219 60.300781 34.699219 60.5 34.699219 C 60.699219 34.699219 60.699219 34.699219 60.800781 34.699219 C 60.898438 34.699219 61.101562 34.5 61.101562 34.5 C 61.101562 34.5 61 34.5 60.898438 34.5 C 60.800781 34.5 60.601562 34.398438 60.5 34.398438 C 60.101562 34.300781 59.699219 34.101562 59.601562 34.101562 C 59.5 34.101562 59.5 34.101562 59.5 34.101562 C 59.5 34.101562 59.5 34.101562 59.601562 34.101562 C 59.699219 34.101562 59.898438 34.101562 60.101562 34.199219 C 60.199219 34.199219 60.300781 34.300781 60.398438 34.300781 C 60.898438 34.5 61.199219 34.5 61.398438 34.398438 C 61.5 34.300781 61.601562 34.199219 61.601562 34.199219 C 61.601562 34.199219 61.601562 34.101562 61.5 34.101562 C 61.398438 34 61.300781 33.898438 61.300781 33.800781 C 61.300781 33.800781 61.5 33.699219 61.601562 33.699219 L 61.800781 33.699219 L 61.699219 33.699219 C 61.699219 33.699219 61.601562 33.601562 61.5 33.601562 C 61.398438 33.601562 61.398438 33.5 61.300781 33.5 C 61.101562 33.398438 60.898438 33.199219 60.898438 33.199219 C 60.898438 33.199219 60.800781 33.101562 60.699219 33.101562 C 60.601562 33 60.601562 33 60.601562 33 C 60.601562 33 60.5 32.898438 60.398438 32.898438 C 60.300781 32.800781 60.199219 32.800781 60.199219 32.800781 C 60.199219 32.800781 60.199219 32.699219 60.199219 32.601562 C 60.199219 32.398438 60.101562 32.300781 59.898438 32.101562 C 59.601562 31.800781 59.199219 31.601562 58.800781 31.300781 C 58.699219 31.199219 58.5 31.199219 58.5 31.199219 C 58.5 31.199219 58.398438 31.199219 58.398438 31.199219 C 58.398438 31.199219 58.300781 31.101562 58.300781 31 C 58.199219 30.800781 58.101562 30.601562 58.101562 30.601562 C 58.101562 30.601562 58 30.5 57.898438 30.300781 C 57.800781 30.199219 57.601562 30 57.601562 30 C 57.699219 29.300781 57.601562 29.398438 57.601562 29.398438 M 57.699219 29.898438 C 57.601562 30 57.5 30.199219 57.5 30.300781 C 57.5 30.398438 57.5 30.5 57.5 30.601562 C 57.5 30.800781 57.5 30.800781 57.601562 31 C 57.699219 31.199219 57.898438 31.398438 57.898438 31.300781 C 57.898438 31.101562 57.800781 31 57.898438 30.898438 C 57.898438 30.699219 57.898438 30.699219 58 30.699219 C 58.101562 30.699219 58.300781 30.800781 58.300781 30.898438 C 58.398438 31 58.398438 30.898438 58.300781 30.800781 C 58.300781 30.601562 58.101562 30.300781 58 30.199219 C 57.898438 30 57.699219 29.800781 57.699219 29.898438 C 57.699219 29.800781 57.699219 29.898438 57.699219 29.898438 M 58.800781 30 C 58.699219 30.101562 58.699219 30.300781 58.699219 30.398438 C 58.699219 30.398438 58.699219 30.398438 58.800781 30.5 C 59 30.601562 59.199219 30.601562 59.300781 30.699219 C 59.398438 30.699219 59.398438 30.800781 59.5 30.800781 C 59.5 30.800781 59.199219 30.199219 59.101562 30.101562 C 59.101562 30.101562 59 29.898438 59 29.898438 C 58.898438 29.800781 58.898438 29.898438 58.800781 30 M 58.898438 31.800781 L 58.699219 31.800781 L 58.898438 31.800781 C 59.101562 32 59.199219 32 59.199219 32.101562 C 59.300781 32.300781 59.398438 32.300781 59.601562 32.300781 C 59.699219 32.300781 59.800781 32.300781 59.898438 32.398438 C 60 32.5 60 32.5 60 32.398438 C 60 32.300781 59.601562 31.800781 59.5 31.800781 C 59.601562 31.800781 59.199219 31.800781 58.898438 31.800781 "/>
<path style=" stroke:none;fill-rule:evenodd;fill:rgb(100%,100%,100%);fill-opacity:1;" d="M 57.5 29.398438 C 57.398438 29.5 57.300781 29.601562 57.199219 29.800781 C 57 30.199219 56.898438 30.5 57 30.898438 C 57 31.101562 57.101562 31.300781 57.101562 31.398438 C 57.101562 31.398438 57.101562 31.398438 57.101562 31.5 C 57 31.5 56.800781 31.300781 56.699219 31.199219 C 56.601562 31.101562 56.5 30.898438 56.5 30.601562 C 56.5 30.601562 56.5 30.5 56.5 30.5 C 56.5 30.5 56.101562 30.699219 56.101562 30.699219 C 56.101562 30.699219 56.101562 30.699219 56 30.699219 C 56 30.699219 55.898438 30.800781 55.800781 30.898438 C 55.601562 31 55.300781 31.300781 55.199219 31.5 C 55.199219 31.5 55.101562 31.601562 55.101562 31.601562 C 55.101562 31.601562 55 31.699219 54.898438 31.898438 C 54.800781 32 54.800781 32.199219 54.800781 32.199219 C 54.800781 32.199219 54.898438 32.199219 55 32.101562 C 55.300781 31.898438 55.5 31.699219 55.800781 31.601562 C 56.101562 31.5 56.101562 31.5 55.898438 31.699219 C 55.699219 31.800781 55.398438 32.199219 55.199219 32.300781 C 54.898438 32.699219 54.699219 33.101562 54.601562 33.5 C 54.5 33.800781 54.5 34.300781 54.601562 34.300781 C 54.601562 34.101562 54.800781 33.601562 55 33.398438 C 55.199219 33.101562 55.5 32.800781 55.601562 32.800781 C 55.601562 32.800781 55.398438 33 55.398438 33.199219 C 55.199219 33.5 55.101562 34 55.101562 34.398438 C 55.101562 34.699219 55.199219 35.101562 55.398438 35.398438 C 55.398438 35.5 55.5 35.5 55.5 35.5 C 55.5 35.5 55.800781 35.800781 55.898438 35.898438 C 56 36 56.101562 36.101562 56.300781 36.101562 C 56.398438 36.199219 56.601562 36.199219 56.601562 36.199219 C 56.601562 36.199219 56.5 36.101562 56.5 36 C 56.199219 35.699219 56 35.398438 55.898438 35.101562 C 55.800781 34.898438 55.898438 34.300781 56 34.199219 C 56 34.199219 56 34.199219 56 34.300781 C 56 34.601562 56.101562 34.898438 56.300781 35.101562 C 56.398438 35.199219 56.398438 35.300781 56.398438 35.300781 C 56.398438 35.300781 56.5 35.398438 56.5 35.5 C 56.601562 35.601562 56.601562 35.699219 56.601562 35.699219 C 56.699219 35.800781 57 36.199219 57 36.300781 C 57 36.300781 57.199219 36.601562 57.199219 36.800781 C 57.199219 36.898438 57.300781 37 57.300781 37.199219 C 57.300781 37.300781 57.300781 37.398438 57.300781 37.398438 C 57.300781 37.398438 57.5 37.101562 57.601562 37 C 57.699219 36.800781 57.699219 36.5 57.601562 36.300781 C 57.601562 36.101562 57.5 35.898438 57.300781 35.699219 C 57.199219 35.601562 57.199219 35.601562 57.199219 35.601562 C 57.300781 35.601562 57.699219 36 57.800781 36.101562 C 57.800781 36.101562 57.898438 36.199219 57.898438 36.300781 C 58 36.5 58 36.699219 58 36.898438 C 58 37.199219 57.898438 37.5 57.699219 37.800781 C 57.699219 37.800781 57.601562 37.898438 57.601562 37.898438 C 57.601562 38 57.601562 37.898438 57.800781 37.898438 C 58.199219 37.699219 58.601562 37.300781 58.699219 37 C 58.800781 36.898438 58.800781 36.601562 58.800781 36.5 C 58.800781 36.300781 58.699219 36 58.601562 35.898438 C 58.601562 35.898438 58.601562 35.898438 58.601562 36 C 58.601562 36.199219 58.398438 36.601562 58.398438 36.5 C 58.398438 36.199219 58.300781 36.101562 58.101562 35.800781 C 57.898438 35.601562 57.800781 35.398438 57.199219 35.101562 C 56.898438 34.898438 56.699219 34.800781 56.5 34.601562 C 56.398438 34.5 56.199219 34.398438 56.199219 34.300781 C 56.101562 34.199219 56 34.101562 56 33.898438 C 56 33.800781 56 33.699219 56 33.5 C 56 33.300781 56 33.199219 56.101562 33 C 56.101562 32.898438 56.199219 32.800781 56.199219 32.699219 C 56.300781 32.601562 56.5 32.398438 56.601562 32.300781 C 56.699219 32.199219 56.898438 32.101562 57 32.101562 C 57.101562 32.101562 57.101562 32.101562 57 32.199219 C 56.699219 32.398438 56.5 32.800781 56.5 33.101562 C 56.398438 33.300781 56.398438 33.800781 56.5 33.800781 C 56.5 33.800781 56.601562 33.5 56.699219 33.398438 C 56.800781 33.300781 56.800781 33.199219 56.898438 33.199219 C 57 33.199219 57 33.101562 57 33.101562 C 57 33.101562 57.300781 32.898438 57.398438 32.898438 C 57.5 32.898438 57.5 32.898438 57.300781 33.101562 C 57.101562 33.398438 57 33.699219 57 34 C 57 34.101562 57.101562 34.5 57.101562 34.5 C 57.101562 34.5 57.101562 34.601562 57.199219 34.601562 C 57.300781 34.699219 57.398438 34.898438 57.601562 35 C 57.800781 35.101562 57.800781 35.101562 57.699219 35 C 57.601562 34.800781 57.5 34.398438 57.601562 34.199219 C 57.601562 34.101562 57.699219 33.898438 57.800781 33.898438 C 57.800781 33.898438 57.800781 34 57.800781 34 C 57.800781 34.300781 57.898438 34.5 58.199219 34.898438 C 58.300781 35 58.5 35.199219 58.601562 35.300781 C 59 35.699219 59.199219 36 59.199219 36.398438 C 59.199219 36.601562 59.199219 36.898438 59.101562 37 C 59.101562 37.101562 59.101562 37.101562 59.101562 37.101562 C 59.101562 37.101562 59.300781 36.898438 59.398438 36.699219 C 59.5 36.5 59.601562 36.199219 59.601562 36 C 59.601562 35.800781 59.5 35.5 59.398438 35.300781 C 59.300781 35.101562 59.199219 35 59 34.898438 C 58.699219 34.699219 58.699219 34.601562 58.800781 34.5 C 58.800781 34.5 58.898438 34.5 59.101562 34.5 C 59.300781 34.5 59.300781 34.5 59.601562 34.601562 C 60 34.699219 60.101562 34.699219 60.300781 34.699219 C 60.5 34.699219 60.5 34.699219 60.601562 34.699219 C 60.699219 34.699219 60.898438 34.5 60.898438 34.5 C 60.898438 34.5 60.800781 34.5 60.699219 34.5 C 60.601562 34.5 60.398438 34.398438 60.300781 34.398438 C 59.898438 34.300781 59.5 34.101562 59.398438 34.101562 C 59.300781 34.101562 59.300781 34.101562 59.300781 34.101562 C 59.300781 34.101562 59.300781 34.101562 59.398438 34.101562 C 59.5 34.101562 59.699219 34.101562 59.898438 34.199219 C 60 34.199219 60.101562 34.300781 60.199219 34.300781 C 60.699219 34.5 61 34.5 61.199219 34.398438 C 61.300781 34.300781 61.398438 34.199219 61.398438 34.199219 C 61.398438 34.199219 61.398438 34.101562 61.300781 34.101562 C 61.199219 34 61.101562 33.898438 61.101562 33.800781 C 61.101562 33.800781 61.300781 33.699219 61.398438 33.699219 L 61.601562 33.699219 L 61.5 33.699219 C 61.5 33.699219 61.398438 33.601562 61.300781 33.601562 C 61.199219 33.601562 61.199219 33.5 61.101562 33.5 C 60.898438 33.398438 60.699219 33.199219 60.699219 33.199219 C 60.699219 33.199219 60.601562 33.101562 60.5 33.101562 C 60.398438 33 60.398438 33 60.398438 33 C 60.398438 33 60.300781 32.898438 60.199219 32.898438 C 60.101562 32.800781 60 32.800781 60 32.800781 C 60 32.800781 60 32.699219 60 32.601562 C 60 32.398438 59.898438 32.300781 59.699219 32.101562 C 59.398438 31.800781 59 31.601562 58.601562 31.300781 C 58.5 31.199219 58.300781 31.199219 58.300781 31.199219 C 58.300781 31.199219 58.199219 31.199219 58.199219 31.199219 C 58.199219 31.199219 58.101562 31.101562 58.101562 31 C 58 30.800781 57.898438 30.601562 57.898438 30.601562 C 57.898438 30.601562 57.800781 30.5 57.699219 30.300781 C 57.601562 30.199219 57.398438 30 57.398438 30 C 57.601562 29.300781 57.601562 29.300781 57.5 29.398438 M 57.601562 29.800781 C 57.5 29.898438 57.398438 30.101562 57.398438 30.199219 C 57.398438 30.300781 57.398438 30.398438 57.398438 30.5 C 57.398438 30.699219 57.398438 30.699219 57.5 30.898438 C 57.601562 31.101562 57.800781 31.300781 57.800781 31.199219 C 57.800781 31 57.699219 30.898438 57.800781 30.800781 C 57.800781 30.601562 57.800781 30.601562 57.898438 30.601562 C 58 30.601562 58.199219 30.699219 58.199219 30.800781 C 58.300781 30.898438 58.300781 30.800781 58.199219 30.699219 C 58.199219 30.5 58 30.199219 57.898438 30.101562 C 57.898438 30 57.699219 29.800781 57.601562 29.800781 C 57.699219 29.800781 57.601562 29.800781 57.601562 29.800781 M 58.800781 29.898438 C 58.699219 30 58.699219 30.199219 58.699219 30.300781 C 58.699219 30.300781 58.699219 30.300781 58.800781 30.398438 C 59 30.5 59.199219 30.5 59.300781 30.601562 C 59.398438 30.601562 59.398438 30.699219 59.5 30.699219 C 59.5 30.699219 59.199219 30.101562 59.101562 30 C 59.101562 30 59 29.800781 59 29.800781 C 58.898438 29.800781 58.800781 29.898438 58.800781 29.898438 M 58.898438 31.800781 L 58.699219 31.800781 L 58.898438 31.800781 C 59.101562 32 59.199219 32 59.199219 32.101562 C 59.300781 32.300781 59.398438 32.300781 59.601562 32.300781 C 59.699219 32.300781 59.800781 32.300781 59.898438 32.398438 C 60 32.5 60 32.5 60 32.398438 C 60 32.300781 59.601562 31.800781 59.5 31.800781 C 59.601562 31.800781 59.199219 31.699219 58.898438 31.800781 "/>
</g>
</svg>
