<?xml version="1.0" encoding="UTF-8"?>
<svg xmlns="http://www.w3.org/2000/svg" xmlns:xlink="http://www.w3.org/1999/xlink" width="99px" height="78px" viewBox="0 0 99 78" version="1.1">
<g id="surface1">
<path style=" stroke:none;fill-rule:nonzero;fill:rgb(99.215686%,99.215686%,99.215686%);fill-opacity:1;" d="M 9.359375 -0.0351562 C 9.644531 -0.0351562 9.929688 -0.0351562 10.222656 -0.0351562 C 10.695312 -0.0351562 10.695312 -0.0351562 11.175781 -0.0351562 C 11.511719 -0.0390625 11.84375 -0.0390625 12.179688 -0.0390625 C 13.105469 -0.0429688 14.03125 -0.0429688 14.957031 -0.0429688 C 15.953125 -0.0429688 16.949219 -0.046875 17.945312 -0.0507812 C 20.351562 -0.0546875 22.757812 -0.0585938 25.167969 -0.0585938 C 26.300781 -0.0585938 27.433594 -0.0625 28.566406 -0.0625 C 32.332031 -0.0664062 36.097656 -0.0703125 39.863281 -0.0742188 C 40.839844 -0.0742188 41.816406 -0.0742188 42.792969 -0.0742188 C 43.039062 -0.0742188 43.28125 -0.0742188 43.53125 -0.0742188 C 47.46875 -0.078125 51.40625 -0.0820312 55.34375 -0.0898438 C 59.382812 -0.0976562 63.421875 -0.101562 67.464844 -0.105469 C 69.730469 -0.105469 72 -0.105469 74.269531 -0.113281 C 76.203125 -0.117188 78.136719 -0.121094 80.066406 -0.117188 C 81.054688 -0.117188 82.039062 -0.117188 83.023438 -0.121094 C 83.929688 -0.128906 84.832031 -0.125 85.734375 -0.121094 C 86.214844 -0.121094 86.695312 -0.125 87.175781 -0.128906 C 89.847656 -0.109375 89.847656 -0.109375 91 1 C 92 2.132812 91.851562 3.417969 91.835938 4.851562 C 91.835938 5.117188 91.835938 5.382812 91.835938 5.65625 C 91.835938 6.542969 91.832031 7.433594 91.828125 8.324219 C 91.824219 8.960938 91.824219 9.597656 91.824219 10.234375 C 91.824219 11.605469 91.820312 12.980469 91.816406 14.351562 C 91.804688 16.519531 91.804688 18.691406 91.808594 20.863281 C 91.808594 21.605469 91.808594 22.347656 91.808594 23.089844 C 91.808594 23.371094 91.808594 23.371094 91.808594 23.652344 C 91.808594 25.765625 91.804688 27.878906 91.804688 29.992188 C 91.804688 30.28125 91.804688 30.28125 91.804688 30.578125 C 91.800781 33.703125 91.792969 36.832031 91.78125 39.960938 C 91.773438 43.175781 91.769531 46.386719 91.773438 49.601562 C 91.777344 51.582031 91.773438 53.5625 91.761719 55.546875 C 91.753906 57.0625 91.753906 58.582031 91.761719 60.101562 C 91.761719 60.722656 91.757812 61.347656 91.753906 61.96875 C 91.742188 62.820312 91.746094 63.667969 91.753906 64.519531 C 91.75 64.765625 91.746094 65.011719 91.738281 65.265625 C 91.773438 66.988281 92.296875 67.820312 93.511719 69.03125 C 93.671875 69.1875 93.832031 69.339844 94 69.5 C 94.769531 70.402344 95.511719 71.324219 96.25 72.25 C 96.445312 72.484375 96.636719 72.722656 96.835938 72.964844 C 98.375 74.925781 98.375 74.925781 98.421875 76.125 C 98.25 77 98.25 77 97.921875 77.484375 C 97.019531 78.054688 96.214844 78.03125 95.171875 78.03125 C 94.933594 78.035156 94.933594 78.035156 94.683594 78.035156 C 94.140625 78.035156 93.597656 78.035156 93.050781 78.035156 C 92.660156 78.035156 92.265625 78.035156 91.875 78.039062 C 90.792969 78.039062 89.710938 78.039062 88.628906 78.039062 C 87.460938 78.039062 86.296875 78.042969 85.132812 78.042969 C 82.582031 78.046875 80.03125 78.050781 77.480469 78.050781 C 75.890625 78.050781 74.296875 78.050781 72.707031 78.054688 C 68.304688 78.054688 63.898438 78.058594 59.496094 78.058594 C 59.214844 78.058594 58.933594 78.058594 58.640625 78.058594 C 58.359375 78.058594 58.078125 78.058594 57.785156 78.058594 C 57.210938 78.058594 56.640625 78.058594 56.066406 78.058594 C 55.78125 78.058594 55.5 78.058594 55.207031 78.058594 C 50.601562 78.0625 45.996094 78.066406 41.390625 78.070312 C 36.664062 78.078125 31.9375 78.082031 27.210938 78.082031 C 24.558594 78.082031 21.902344 78.082031 19.25 78.085938 C 16.988281 78.089844 14.730469 78.09375 12.46875 78.089844 C 11.316406 78.089844 10.164062 78.089844 9.007812 78.09375 C 7.953125 78.097656 6.898438 78.09375 5.84375 78.09375 C 5.460938 78.09375 5.078125 78.09375 4.695312 78.09375 C 4.175781 78.097656 3.65625 78.097656 3.140625 78.09375 C 2.707031 78.09375 2.707031 78.09375 2.265625 78.09375 C 1.410156 77.988281 0.9375 77.761719 0.25 77.25 C -0.160156 76.425781 -0.160156 75.636719 0 74.75 C 0.273438 74.238281 0.273438 74.238281 0.640625 73.710938 C 0.777344 73.515625 0.914062 73.320312 1.054688 73.121094 C 1.203125 72.914062 1.347656 72.710938 1.5 72.5 C 1.648438 72.292969 1.796875 72.089844 1.949219 71.878906 C 2.402344 71.25 2.867188 70.625 3.328125 70 C 3.566406 69.679688 3.566406 69.679688 3.808594 69.351562 C 4.964844 67.785156 4.964844 67.785156 5.25 67.5 C 5.273438 67.15625 5.28125 66.8125 5.28125 66.46875 C 5.285156 66.242188 5.285156 66.019531 5.285156 65.789062 C 5.285156 65.539062 5.285156 65.289062 5.285156 65.03125 C 5.285156 64.769531 5.285156 64.507812 5.285156 64.238281 C 5.289062 63.351562 5.289062 62.464844 5.289062 61.578125 C 5.289062 60.945312 5.292969 60.3125 5.292969 59.679688 C 5.296875 58.3125 5.296875 56.949219 5.300781 55.582031 C 5.300781 53.421875 5.308594 51.261719 5.3125 49.101562 C 5.316406 48.363281 5.316406 47.625 5.320312 46.886719 C 5.320312 46.703125 5.320312 46.519531 5.320312 46.328125 C 5.324219 44.226562 5.328125 42.121094 5.335938 40.019531 C 5.335938 39.828125 5.335938 39.636719 5.335938 39.4375 C 5.34375 36.324219 5.347656 33.210938 5.351562 30.09375 C 5.355469 26.898438 5.363281 23.703125 5.371094 20.507812 C 5.378906 18.535156 5.382812 16.5625 5.382812 14.59375 C 5.382812 13.078125 5.386719 11.566406 5.394531 10.054688 C 5.394531 9.4375 5.394531 8.816406 5.394531 8.195312 C 5.394531 7.351562 5.398438 6.503906 5.402344 5.65625 C 5.402344 5.410156 5.398438 5.167969 5.398438 4.914062 C 5.414062 3.226562 5.628906 1.984375 6.75 0.65625 C 7.589844 -0.0273438 8.316406 -0.03125 9.359375 -0.0351562 Z M 9.359375 -0.0351562 "/>
<path style=" stroke:none;fill-rule:nonzero;fill:rgb(44.313726%,14.509805%,64.705884%);fill-opacity:1;" d="M 9.359375 -0.0351562 C 9.644531 -0.0351562 9.929688 -0.0351562 10.222656 -0.0351562 C 10.695312 -0.0351562 10.695312 -0.0351562 11.175781 -0.0351562 C 11.511719 -0.0390625 11.84375 -0.0390625 12.179688 -0.0390625 C 13.105469 -0.0429688 14.03125 -0.0429688 14.957031 -0.0429688 C 15.953125 -0.0429688 16.949219 -0.046875 17.945312 -0.0507812 C 20.351562 -0.0546875 22.757812 -0.0585938 25.167969 -0.0585938 C 26.300781 -0.0585938 27.433594 -0.0625 28.566406 -0.0625 C 32.332031 -0.0664062 36.097656 -0.0703125 39.863281 -0.0742188 C 40.839844 -0.0742188 41.816406 -0.0742188 42.792969 -0.0742188 C 43.039062 -0.0742188 43.28125 -0.0742188 43.53125 -0.0742188 C 47.46875 -0.078125 51.40625 -0.0820312 55.34375 -0.0898438 C 59.382812 -0.0976562 63.421875 -0.101562 67.464844 -0.105469 C 69.730469 -0.105469 72 -0.105469 74.269531 -0.113281 C 76.203125 -0.117188 78.136719 -0.121094 80.066406 -0.117188 C 81.054688 -0.117188 82.039062 -0.117188 83.023438 -0.121094 C 83.929688 -0.128906 84.832031 -0.125 85.734375 -0.121094 C 86.214844 -0.121094 86.695312 -0.125 87.175781 -0.128906 C 89.847656 -0.109375 89.847656 -0.109375 91 1 C 92 2.132812 91.851562 3.417969 91.835938 4.851562 C 91.835938 5.117188 91.835938 5.382812 91.835938 5.65625 C 91.835938 6.542969 91.832031 7.433594 91.828125 8.324219 C 91.824219 8.960938 91.824219 9.597656 91.824219 10.234375 C 91.824219 11.605469 91.820312 12.980469 91.816406 14.351562 C 91.804688 16.519531 91.804688 18.691406 91.808594 20.863281 C 91.808594 21.605469 91.808594 22.347656 91.808594 23.089844 C 91.808594 23.371094 91.808594 23.371094 91.808594 23.652344 C 91.808594 25.765625 91.804688 27.878906 91.804688 29.992188 C 91.804688 30.28125 91.804688 30.28125 91.804688 30.578125 C 91.800781 33.703125 91.792969 36.832031 91.78125 39.960938 C 91.773438 43.175781 91.769531 46.386719 91.773438 49.601562 C 91.777344 51.582031 91.773438 53.5625 91.761719 55.546875 C 91.753906 57.0625 91.753906 58.582031 91.761719 60.101562 C 91.761719 60.722656 91.757812 61.347656 91.753906 61.96875 C 91.742188 62.820312 91.746094 63.667969 91.753906 64.519531 C 91.75 64.765625 91.746094 65.011719 91.738281 65.265625 C 91.773438 66.988281 92.296875 67.820312 93.511719 69.03125 C 93.671875 69.1875 93.832031 69.339844 94 69.5 C 94.769531 70.402344 95.511719 71.324219 96.25 72.25 C 96.445312 72.484375 96.636719 72.722656 96.835938 72.964844 C 98.375 74.925781 98.375 74.925781 98.421875 76.125 C 98.25 77 98.25 77 97.921875 77.484375 C 97.019531 78.054688 96.214844 78.03125 95.171875 78.03125 C 94.933594 78.035156 94.933594 78.035156 94.683594 78.035156 C 94.140625 78.035156 93.597656 78.035156 93.050781 78.035156 C 92.660156 78.035156 92.265625 78.035156 91.875 78.039062 C 90.792969 78.039062 89.710938 78.039062 88.628906 78.039062 C 87.460938 78.039062 86.296875 78.042969 85.132812 78.042969 C 82.582031 78.046875 80.03125 78.050781 77.480469 78.050781 C 75.890625 78.050781 74.296875 78.050781 72.707031 78.054688 C 68.304688 78.054688 63.898438 78.058594 59.496094 78.058594 C 59.214844 78.058594 58.933594 78.058594 58.640625 78.058594 C 58.359375 78.058594 58.078125 78.058594 57.785156 78.058594 C 57.210938 78.058594 56.640625 78.058594 56.066406 78.058594 C 55.78125 78.058594 55.5 78.058594 55.207031 78.058594 C 50.601562 78.0625 45.996094 78.066406 41.390625 78.070312 C 36.664062 78.078125 31.9375 78.082031 27.210938 78.082031 C 24.558594 78.082031 21.902344 78.082031 19.25 78.085938 C 16.988281 78.089844 14.730469 78.09375 12.46875 78.089844 C 11.316406 78.089844 10.164062 78.089844 9.007812 78.09375 C 7.953125 78.097656 6.898438 78.09375 5.84375 78.09375 C 5.460938 78.09375 5.078125 78.09375 4.695312 78.09375 C 4.175781 78.097656 3.65625 78.097656 3.140625 78.09375 C 2.707031 78.09375 2.707031 78.09375 2.265625 78.09375 C 1.410156 77.988281 0.9375 77.761719 0.25 77.25 C -0.160156 76.425781 -0.160156 75.636719 0 74.75 C 0.273438 74.238281 0.273438 74.238281 0.640625 73.710938 C 0.777344 73.515625 0.914062 73.320312 1.054688 73.121094 C 1.203125 72.914062 1.347656 72.710938 1.5 72.5 C 1.648438 72.292969 1.796875 72.089844 1.949219 71.878906 C 2.402344 71.25 2.867188 70.625 3.328125 70 C 3.566406 69.679688 3.566406 69.679688 3.808594 69.351562 C 4.964844 67.785156 4.964844 67.785156 5.25 67.5 C 5.273438 67.15625 5.28125 66.8125 5.28125 66.46875 C 5.285156 66.242188 5.285156 66.019531 5.285156 65.789062 C 5.285156 65.539062 5.285156 65.289062 5.285156 65.03125 C 5.285156 64.769531 5.285156 64.507812 5.285156 64.238281 C 5.289062 63.351562 5.289062 62.464844 5.289062 61.578125 C 5.289062 60.945312 5.292969 60.3125 5.292969 59.679688 C 5.296875 58.3125 5.296875 56.949219 5.300781 55.582031 C 5.300781 53.421875 5.308594 51.261719 5.3125 49.101562 C 5.316406 48.363281 5.316406 47.625 5.320312 46.886719 C 5.320312 46.703125 5.320312 46.519531 5.320312 46.328125 C 5.324219 44.226562 5.328125 42.121094 5.335938 40.019531 C 5.335938 39.828125 5.335938 39.636719 5.335938 39.4375 C 5.34375 36.324219 5.347656 33.210938 5.351562 30.09375 C 5.355469 26.898438 5.363281 23.703125 5.371094 20.507812 C 5.378906 18.535156 5.382812 16.5625 5.382812 14.59375 C 5.382812 13.078125 5.386719 11.566406 5.394531 10.054688 C 5.394531 9.4375 5.394531 8.816406 5.394531 8.195312 C 5.394531 7.351562 5.398438 6.503906 5.402344 5.65625 C 5.402344 5.410156 5.398438 5.167969 5.398438 4.914062 C 5.414062 3.226562 5.628906 1.984375 6.75 0.65625 C 7.589844 -0.0273438 8.316406 -0.03125 9.359375 -0.0351562 Z M 9.5 5.5 C 9.105469 6.289062 9.214844 7.132812 9.214844 7.996094 C 9.214844 8.203125 9.214844 8.414062 9.210938 8.628906 C 9.210938 9.332031 9.210938 10.035156 9.210938 10.738281 C 9.207031 11.238281 9.207031 11.742188 9.207031 12.246094 C 9.203125 13.613281 9.199219 14.980469 9.199219 16.351562 C 9.199219 17.203125 9.199219 18.058594 9.195312 18.914062 C 9.195312 21.585938 9.191406 24.257812 9.191406 26.929688 C 9.1875 30.015625 9.183594 33.101562 9.175781 36.1875 C 9.171875 38.574219 9.167969 40.957031 9.167969 43.339844 C 9.167969 44.765625 9.167969 46.191406 9.164062 47.617188 C 9.160156 48.957031 9.160156 50.296875 9.160156 51.636719 C 9.160156 52.128906 9.160156 52.621094 9.15625 53.113281 C 9.152344 53.785156 9.15625 54.457031 9.15625 55.128906 C 9.15625 55.320312 9.152344 55.515625 9.152344 55.71875 C 9.164062 56.914062 9.351562 57.742188 10 58.75 C 10.824219 59.300781 11.066406 59.3125 12.019531 59.316406 C 12.417969 59.316406 12.417969 59.316406 12.824219 59.320312 C 13.257812 59.320312 13.257812 59.320312 13.707031 59.320312 C 14.015625 59.320312 14.324219 59.320312 14.640625 59.324219 C 15.5 59.324219 16.359375 59.328125 17.21875 59.328125 C 18.144531 59.328125 19.070312 59.328125 19.996094 59.332031 C 22.023438 59.339844 24.046875 59.339844 26.074219 59.34375 C 27.335938 59.34375 28.601562 59.34375 29.867188 59.347656 C 33.363281 59.351562 36.863281 59.355469 40.363281 59.355469 C 40.585938 59.355469 40.8125 59.355469 41.042969 59.355469 C 41.496094 59.355469 41.949219 59.355469 42.40625 59.355469 C 42.742188 59.355469 42.742188 59.355469 43.089844 59.355469 C 43.3125 59.355469 43.539062 59.355469 43.773438 59.355469 C 47.429688 59.355469 51.089844 59.363281 54.746094 59.375 C 58.5 59.382812 62.253906 59.386719 66.011719 59.386719 C 68.117188 59.386719 70.226562 59.390625 72.335938 59.398438 C 74.132812 59.402344 75.925781 59.40625 77.722656 59.402344 C 78.636719 59.398438 79.554688 59.398438 80.46875 59.40625 C 81.464844 59.410156 82.457031 59.410156 83.449219 59.402344 C 83.882812 59.410156 83.882812 59.410156 84.328125 59.414062 C 85.992188 59.410156 85.992188 59.410156 87.425781 58.664062 C 88.363281 57.578125 88.285156 56.597656 88.285156 55.230469 C 88.285156 55.023438 88.285156 54.816406 88.289062 54.601562 C 88.289062 53.902344 88.289062 53.203125 88.289062 52.503906 C 88.292969 52.003906 88.292969 51.503906 88.292969 51 C 88.296875 49.640625 88.300781 48.277344 88.300781 46.917969 C 88.300781 46.066406 88.300781 45.214844 88.304688 44.367188 C 88.304688 41.707031 88.308594 39.050781 88.308594 36.390625 C 88.3125 33.320312 88.316406 30.246094 88.324219 27.175781 C 88.328125 24.804688 88.332031 22.429688 88.332031 20.058594 C 88.332031 18.640625 88.332031 17.222656 88.335938 15.804688 C 88.339844 14.472656 88.339844 13.136719 88.339844 11.804688 C 88.339844 11.3125 88.339844 10.824219 88.34375 10.335938 C 88.347656 9.667969 88.34375 9 88.34375 8.332031 C 88.34375 8.136719 88.347656 7.941406 88.347656 7.742188 C 88.335938 6.621094 88.21875 5.878906 87.5 5 C 86.71875 4.511719 86.113281 4.4375 85.199219 4.4375 C 84.933594 4.433594 84.667969 4.433594 84.394531 4.429688 C 83.957031 4.433594 83.957031 4.433594 83.511719 4.433594 C 83.203125 4.433594 82.894531 4.429688 82.574219 4.429688 C 81.714844 4.425781 80.855469 4.425781 80 4.425781 C 79.070312 4.425781 78.144531 4.425781 77.21875 4.421875 C 75.40625 4.417969 73.589844 4.417969 71.773438 4.417969 C 70.300781 4.417969 68.824219 4.414062 67.351562 4.414062 C 63.171875 4.410156 58.992188 4.40625 54.8125 4.40625 C 54.585938 4.40625 54.363281 4.40625 54.128906 4.40625 C 53.902344 4.40625 53.679688 4.40625 53.445312 4.40625 C 49.789062 4.40625 46.128906 4.402344 42.46875 4.394531 C 38.714844 4.386719 34.960938 4.386719 31.207031 4.386719 C 29.097656 4.386719 26.988281 4.382812 24.878906 4.378906 C 23.085938 4.375 21.289062 4.375 19.496094 4.375 C 18.578125 4.378906 17.664062 4.378906 16.746094 4.375 C 15.753906 4.371094 14.761719 4.371094 13.769531 4.375 C 13.480469 4.375 13.1875 4.371094 12.890625 4.367188 C 10.980469 4.367188 10.980469 4.367188 9.5 5.5 Z M 9.5 5.5 "/>
<path style=" stroke:none;fill-rule:nonzero;fill:rgb(26.274511%,10.980392%,52.549022%);fill-opacity:1;" d="M 13.316406 67.03125 C 13.785156 67.023438 13.785156 67.023438 14.261719 67.015625 C 15.125 67.003906 15.988281 67 16.851562 66.996094 C 17.785156 66.992188 18.71875 66.976562 19.652344 66.964844 C 21.902344 66.9375 24.15625 66.925781 26.40625 66.914062 C 27.472656 66.90625 28.535156 66.902344 29.597656 66.894531 C 33.132812 66.871094 36.671875 66.851562 40.207031 66.84375 C 41.125 66.839844 42.042969 66.835938 42.960938 66.835938 C 43.300781 66.832031 43.300781 66.832031 43.648438 66.832031 C 47.335938 66.824219 51.019531 66.789062 54.707031 66.746094 C 58.496094 66.699219 62.285156 66.675781 66.078125 66.671875 C 68.203125 66.667969 70.328125 66.65625 72.453125 66.621094 C 74.265625 66.59375 76.078125 66.582031 77.890625 66.597656 C 78.8125 66.601562 79.734375 66.601562 80.65625 66.574219 C 84.21875 66.476562 87.058594 66.65625 89.722656 69.175781 C 92.816406 72.269531 92.816406 72.269531 93 74.5 C 92.046875 74.941406 91.300781 75.0625 90.253906 75.0625 C 89.804688 75.066406 89.804688 75.066406 89.339844 75.066406 C 89.007812 75.066406 88.671875 75.066406 88.339844 75.066406 C 87.984375 75.066406 87.628906 75.066406 87.273438 75.066406 C 86.296875 75.070312 85.320312 75.070312 84.34375 75.070312 C 83.292969 75.070312 82.238281 75.070312 81.1875 75.074219 C 79.125 75.074219 77.0625 75.074219 75 75.074219 C 73.324219 75.074219 71.648438 75.074219 69.972656 75.078125 C 69.734375 75.078125 69.496094 75.078125 69.25 75.078125 C 68.765625 75.078125 68.28125 75.078125 67.796875 75.078125 C 63.257812 75.082031 58.71875 75.082031 54.175781 75.078125 C 50.019531 75.078125 45.863281 75.082031 41.703125 75.085938 C 37.4375 75.089844 33.171875 75.09375 28.90625 75.089844 C 26.511719 75.089844 24.113281 75.089844 21.71875 75.09375 C 19.679688 75.097656 17.640625 75.097656 15.601562 75.09375 C 14.558594 75.09375 13.519531 75.09375 12.476562 75.097656 C 11.523438 75.097656 10.574219 75.097656 9.621094 75.09375 C 9.277344 75.09375 8.929688 75.09375 8.585938 75.097656 C 8.117188 75.097656 7.648438 75.097656 7.183594 75.09375 C 6.921875 75.09375 6.660156 75.09375 6.394531 75.09375 C 5.75 75 5.75 75 5.289062 74.671875 C 5 74.25 5 74.25 4.96875 73.4375 C 5.292969 72.351562 5.691406 71.949219 6.507812 71.203125 C 7.15625 70.605469 7.710938 69.945312 8.28125 69.273438 C 8.515625 69.015625 8.515625 69.015625 8.75 68.75 C 8.945312 68.496094 9.136719 68.242188 9.335938 67.980469 C 10.464844 66.871094 11.816406 67.03125 13.316406 67.03125 Z M 13.316406 67.03125 "/>
<path style=" stroke:none;fill-rule:nonzero;fill:rgb(39.215687%,14.901961%,68.235296%);fill-opacity:1;" d="M 6.753906 67.203125 C 6.941406 67.203125 7.132812 67.203125 7.328125 67.207031 C 7.621094 67.210938 7.621094 67.210938 7.921875 67.21875 C 8.121094 67.222656 8.320312 67.222656 8.527344 67.226562 C 9.015625 67.230469 9.507812 67.242188 10 67.25 C 9.640625 68.046875 9.199219 68.65625 8.625 69.3125 C 8.398438 69.578125 8.398438 69.578125 8.164062 69.847656 C 7.75 70.25 7.75 70.25 7.25 70.25 C 7.191406 70.390625 7.136719 70.527344 7.078125 70.671875 C 6.75 71.25 6.75 71.25 6.109375 71.828125 C 5.367188 72.648438 5.269531 73.15625 5.25 74.25 C 5.707031 74.8125 5.707031 74.8125 6.363281 74.8125 C 6.621094 74.8125 6.882812 74.8125 7.152344 74.8125 C 7.601562 74.8125 7.601562 74.8125 8.058594 74.816406 C 8.394531 74.8125 8.730469 74.8125 9.066406 74.8125 C 9.421875 74.8125 9.773438 74.8125 10.128906 74.8125 C 11.105469 74.816406 12.082031 74.8125 13.058594 74.8125 C 14.113281 74.808594 15.164062 74.8125 16.21875 74.8125 C 18.28125 74.8125 20.34375 74.8125 22.40625 74.808594 C 24.808594 74.808594 27.210938 74.808594 29.609375 74.808594 C 33.894531 74.808594 38.179688 74.804688 42.460938 74.800781 C 46.621094 74.796875 50.78125 74.796875 54.941406 74.796875 C 55.195312 74.796875 55.453125 74.796875 55.714844 74.796875 C 55.972656 74.796875 56.226562 74.796875 56.492188 74.796875 C 61.222656 74.796875 65.953125 74.796875 70.683594 74.792969 C 72.355469 74.792969 74.03125 74.792969 75.707031 74.792969 C 77.746094 74.792969 79.789062 74.789062 81.828125 74.789062 C 82.871094 74.785156 83.910156 74.785156 84.953125 74.785156 C 85.90625 74.785156 86.859375 74.785156 87.8125 74.785156 C 88.15625 74.785156 88.503906 74.785156 88.847656 74.785156 C 89.316406 74.785156 89.785156 74.785156 90.253906 74.78125 C 90.644531 74.78125 90.644531 74.78125 91.042969 74.78125 C 91.722656 74.75 92.339844 74.652344 93 74.5 C 92.699219 73.128906 92.335938 72.4375 91.300781 71.4375 C 91.066406 71.210938 90.832031 70.980469 90.589844 70.742188 C 90.339844 70.503906 90.09375 70.269531 89.84375 70.03125 C 89.355469 69.558594 88.867188 69.085938 88.378906 68.609375 C 88.054688 68.300781 88.054688 68.300781 87.722656 67.984375 C 87.25 67.5 87.25 67.5 87.25 67.25 C 91.425781 66.910156 91.425781 66.910156 92.679688 67.65625 C 93.1875 68.242188 93.589844 68.84375 94 69.5 C 94.371094 69.953125 94.746094 70.398438 95.125 70.84375 C 95.5 71.3125 95.875 71.78125 96.25 72.25 C 96.539062 72.605469 96.539062 72.605469 96.835938 72.964844 C 98.375 74.925781 98.375 74.925781 98.421875 76.125 C 98.25 77 98.25 77 97.921875 77.484375 C 97.019531 78.054688 96.214844 78.03125 95.171875 78.03125 C 95.011719 78.035156 94.851562 78.035156 94.683594 78.035156 C 94.140625 78.035156 93.597656 78.035156 93.050781 78.035156 C 92.660156 78.035156 92.265625 78.035156 91.875 78.039062 C 90.792969 78.039062 89.710938 78.039062 88.628906 78.039062 C 87.460938 78.039062 86.296875 78.042969 85.132812 78.042969 C 82.582031 78.046875 80.03125 78.050781 77.480469 78.050781 C 75.890625 78.050781 74.296875 78.050781 72.707031 78.054688 C 68.304688 78.054688 63.898438 78.058594 59.496094 78.058594 C 59.214844 78.058594 58.933594 78.058594 58.640625 78.058594 C 58.359375 78.058594 58.078125 78.058594 57.785156 78.058594 C 57.210938 78.058594 56.640625 78.058594 56.066406 78.058594 C 55.78125 78.058594 55.5 78.058594 55.207031 78.058594 C 50.601562 78.0625 45.996094 78.066406 41.390625 78.070312 C 36.664062 78.078125 31.9375 78.082031 27.210938 78.082031 C 24.558594 78.082031 21.902344 78.082031 19.25 78.085938 C 16.988281 78.089844 14.730469 78.09375 12.46875 78.089844 C 11.316406 78.089844 10.164062 78.089844 9.007812 78.09375 C 7.953125 78.097656 6.898438 78.09375 5.84375 78.09375 C 5.460938 78.09375 5.078125 78.09375 4.695312 78.09375 C 4.175781 78.097656 3.65625 78.097656 3.140625 78.09375 C 2.707031 78.09375 2.707031 78.09375 2.265625 78.09375 C 1.410156 77.988281 0.9375 77.761719 0.25 77.25 C -0.160156 76.425781 -0.160156 75.636719 0 74.75 C 0.277344 74.238281 0.277344 74.238281 0.644531 73.710938 C 0.78125 73.515625 0.917969 73.320312 1.058594 73.117188 C 1.277344 72.8125 1.277344 72.8125 1.5 72.5 C 1.644531 72.296875 1.789062 72.089844 1.9375 71.882812 C 2.386719 71.257812 2.839844 70.636719 3.296875 70.015625 C 3.449219 69.804688 3.605469 69.589844 3.761719 69.371094 C 3.910156 69.171875 4.0625 68.96875 4.214844 68.757812 C 4.347656 68.578125 4.480469 68.394531 4.617188 68.207031 C 5.265625 67.433594 5.773438 67.1875 6.753906 67.203125 Z M 6.753906 67.203125 "/>
<path style=" stroke:none;fill-rule:nonzero;fill:rgb(92.941177%,30.980393%,17.647059%);fill-opacity:1;" d="M 28.890625 13.984375 C 30.523438 14.972656 32.082031 16.53125 32.648438 18.394531 C 33.015625 20.574219 33.070312 22.75 31.917969 24.695312 C 30.636719 26.390625 29.136719 27.660156 27 28 C 24.46875 28.25 22.613281 27.890625 20.578125 26.359375 C 19.234375 25.097656 18.363281 23.648438 18.132812 21.808594 C 18.078125 19.339844 18.339844 17.734375 19.90625 15.828125 C 22.296875 13.335938 25.628906 12.535156 28.890625 13.984375 Z M 28.890625 13.984375 "/>
<path style=" stroke:none;fill-rule:nonzero;fill:rgb(98.823529%,96.078432%,95.686275%);fill-opacity:1;" d="M 24.75 14 C 25.328125 14.496094 25.90625 14.988281 26.5 15.5 C 26.5 15.335938 26.5 15.171875 26.5 15 C 27.25 15.25 27.25 15.25 27.609375 15.953125 C 27.804688 16.347656 27.804688 16.347656 28 16.75 C 28.269531 17.019531 28.269531 17.019531 28.546875 17.296875 C 28.695312 17.445312 28.847656 17.597656 29 17.75 C 29 17.996094 29 18.246094 29 18.5 C 29.144531 18.5625 29.289062 18.625 29.4375 18.6875 C 30.074219 19.042969 30.503906 19.46875 31 20 C 30.835938 20.414062 30.671875 20.824219 30.5 21.25 C 30.253906 21.25 30.003906 21.25 29.75 21.25 C 29.75 21.414062 29.75 21.578125 29.75 21.75 C 28.84375 21.667969 27.933594 21.585938 27 21.5 C 27.253906 21.800781 27.503906 22.097656 27.765625 22.40625 C 28.339844 23.164062 28.5 23.378906 28.5 24.359375 C 28.25 25 28.25 25 27.75 25.25 C 27.703125 24.960938 27.65625 24.671875 27.609375 24.375 C 27.289062 23.039062 26.449219 22.203125 25.5 21.25 C 25.5 21.578125 25.5 21.910156 25.5 22.25 C 25.335938 22.25 25.171875 22.25 25 22.25 C 24.394531 21.339844 24.460938 20.820312 24.5 19.75 C 24.417969 19.75 24.335938 19.75 24.25 19.75 C 24.085938 19.75 23.921875 19.75 23.75 19.75 C 23.832031 19.335938 23.914062 18.925781 24 18.5 C 23.332031 18.972656 23.25 19.257812 23.09375 20.078125 C 23.316406 21.378906 23.96875 21.753906 25 22.5 C 26.460938 23.667969 26.460938 23.667969 26.75 24.25 C 26.914062 24.25 27.078125 24.25 27.25 24.25 C 27.128906 25.839844 27.128906 25.839844 26.515625 26.609375 C 26 27 26 27 25.5 27 C 25.5 26.175781 25.5 25.351562 25.5 24.5 C 25.417969 24.5 25.335938 24.5 25.25 24.5 C 25.167969 25.078125 25.085938 25.65625 25 26.25 C 24.378906 25.9375 24.328125 25.714844 24.046875 25.09375 C 23.546875 24.050781 22.941406 23.171875 22.25 22.25 C 22.390625 23.238281 22.703125 23.917969 23.25 24.75 C 22.382812 24.507812 22.015625 24.269531 21.421875 23.578125 C 20.808594 22.371094 20.839844 21.28125 21.25 20 C 21.003906 20.496094 20.753906 20.988281 20.5 21.5 C 20.417969 21.5 20.335938 21.5 20.25 21.5 C 20.128906 20.6875 20.148438 20.164062 20.585938 19.453125 C 20.960938 18.957031 21.34375 18.472656 21.75 18 C 21.421875 18.082031 21.089844 18.164062 20.75 18.25 C 21.148438 17.179688 21.859375 16.667969 22.75 16 C 22.914062 16 23.078125 16 23.25 16 C 23.414062 16.328125 23.578125 16.660156 23.75 17 C 23.757812 16.847656 23.769531 16.691406 23.777344 16.535156 C 23.792969 16.332031 23.8125 16.128906 23.828125 15.921875 C 23.84375 15.722656 23.855469 15.523438 23.871094 15.316406 C 24 14.75 24 14.75 24.75 14 Z M 24.75 14 "/>
<path style=" stroke:none;fill-rule:nonzero;fill:rgb(89.803922%,36.078432%,26.274511%);fill-opacity:1;" d="M 24 18 C 24.164062 18.082031 24.328125 18.164062 24.5 18.25 C 24.335938 18.414062 24.171875 18.578125 24 18.75 C 23.839844 19.265625 23.839844 19.265625 23.75 19.75 C 24.164062 19.503906 24.574219 19.253906 25 19 C 24.917969 19.246094 24.835938 19.496094 24.75 19.75 C 24.71875 20.671875 24.707031 21.371094 25 22.25 C 25.082031 21.835938 25.164062 21.425781 25.25 21 C 27.835938 23.511719 27.835938 23.511719 28 25 C 28.082031 25.164062 28.164062 25.328125 28.25 25.5 C 27.835938 25.582031 27.425781 25.664062 27 25.75 C 27.082031 25.253906 27.164062 24.761719 27.25 24.25 C 27.003906 24.332031 26.753906 24.414062 26.5 24.5 C 26.417969 24.324219 26.335938 24.148438 26.25 23.96875 C 25.675781 23.140625 25.050781 22.679688 24.234375 22.109375 C 23.765625 21.761719 23.371094 21.445312 23 21 C 22.859375 19.917969 22.878906 19.425781 23.5 18.515625 C 23.664062 18.34375 23.828125 18.175781 24 18 Z M 24 18 "/>
<path style=" stroke:none;fill-rule:nonzero;fill:rgb(91.764706%,42.745098%,32.941177%);fill-opacity:1;" d="M 24 18 C 24.164062 18.082031 24.328125 18.164062 24.5 18.25 C 24.335938 18.414062 24.171875 18.578125 24 18.75 C 23.839844 19.265625 23.839844 19.265625 23.75 19.75 C 24.164062 19.503906 24.574219 19.253906 25 19 C 24.835938 19.988281 24.671875 20.980469 24.5 22 C 23.5 21.5 23.5 21.5 23 21 C 22.878906 19.925781 22.882812 19.417969 23.5 18.515625 C 23.664062 18.34375 23.828125 18.175781 24 18 Z M 24 18 "/>
<path style=" stroke:none;fill-rule:nonzero;fill:rgb(98.039216%,91.37255%,89.803922%);fill-opacity:1;" d="M 24.75 14 C 25.378906 14.492188 25.5 14.742188 25.671875 15.546875 C 25.699219 15.777344 25.722656 16.011719 25.75 16.25 C 25.585938 16.25 25.421875 16.25 25.25 16.25 C 25.003906 16.621094 25.003906 16.621094 24.75 17 C 24.75 16.835938 24.75 16.671875 24.75 16.5 C 24.585938 16.5 24.421875 16.5 24.25 16.5 C 24.078125 15.671875 24.078125 15.671875 24 14.75 C 24.359375 14.265625 24.359375 14.265625 24.75 14 Z M 24.75 14 "/>
<path style=" stroke:none;fill-rule:nonzero;fill:rgb(93.725491%,36.470589%,23.921569%);fill-opacity:1;" d="M 24.75 14.75 C 25.3125 15.261719 25.5 15.5 25.75 16.25 C 25.585938 16.25 25.421875 16.25 25.25 16.25 C 25.085938 16.496094 24.921875 16.746094 24.75 17 C 24.46875 15.3125 24.46875 15.3125 24.75 14.75 Z M 24.75 14.75 "/>
<path style=" stroke:none;fill-rule:nonzero;fill:rgb(95.686275%,83.137256%,79.607844%);fill-opacity:1;" d="M 22.25 16.25 C 22.414062 16.332031 22.578125 16.414062 22.75 16.5 C 22.378906 16.871094 22.378906 16.871094 22 17.25 C 22.082031 17.414062 22.164062 17.578125 22.25 17.75 C 21.753906 17.914062 21.261719 18.078125 20.75 18.25 C 21.109375 17.410156 21.582031 16.871094 22.25 16.25 Z M 22.25 16.25 "/>
<path style=" stroke:none;fill-rule:nonzero;fill:rgb(94.509804%,70.19608%,65.490198%);fill-opacity:1;" d="M 26.5 15 C 26.746094 15.082031 26.996094 15.164062 27.25 15.25 C 27.332031 15.664062 27.414062 16.074219 27.5 16.5 C 27.003906 16.253906 26.511719 16.003906 26 15.75 C 26.164062 15.667969 26.328125 15.585938 26.5 15.5 C 26.5 15.335938 26.5 15.171875 26.5 15 Z M 26.5 15 "/>
<path style=" stroke:none;fill-rule:nonzero;fill:rgb(94.509804%,86.274511%,84.313726%);fill-opacity:1;" d="M 28 23 C 28.164062 23.164062 28.328125 23.328125 28.5 23.5 C 28.4375 24.265625 28.4375 24.265625 28.25 25 C 28.003906 25.125 28.003906 25.125 27.75 25.25 C 27.832031 24.507812 27.914062 23.765625 28 23 Z M 28 23 "/>
<path style=" stroke:none;fill-rule:nonzero;fill:rgb(89.019608%,46.27451%,38.82353%);fill-opacity:1;" d="M 26.5 17.75 C 27.078125 17.6875 27.078125 17.6875 27.75 17.75 C 28.203125 18.25 28.203125 18.25 28.5 18.75 C 27.578125 18.625 27.097656 18.476562 26.5 17.75 Z M 26.5 17.75 "/>
<path style=" stroke:none;fill-rule:nonzero;fill:rgb(98.039216%,42.745098%,29.411766%);fill-opacity:1;" d="M 23.25 13.5 C 23.992188 13.5 24.734375 13.5 25.5 13.5 C 25 14.25 25 14.25 24.25 14.5 C 24.25 14.253906 24.25 14.003906 24.25 13.75 C 23.921875 13.667969 23.589844 13.585938 23.25 13.5 Z M 23.25 13.5 "/>
</g>
</svg>
