<?xml version="1.0" encoding="UTF-8"?>
<svg id="Layer_1" xmlns="http://www.w3.org/2000/svg" version="1.1" xmlns:xlink="http://www.w3.org/1999/xlink" viewBox="0 0 84 90">
  <!-- Generator: Adobe Illustrator 29.6.0, SVG Export Plug-In . SVG Version: 2.1.1 Build 207)  -->
  <defs>
    <style>
      .st0 {
        fill: url(#linear-gradient2);
      }

      .st1 {
        fill: #fff;
      }

      .st1, .st2, .st3, .st4, .st5, .st6 {
        fill-rule: evenodd;
      }

      .st2 {
        fill: #f1f1f1;
      }

      .st3 {
        fill: #ebebeb;
      }

      .st4 {
        fill: url(#linear-gradient1);
      }

      .st7 {
        fill: url(#linear-gradient3);
      }

      .st5 {
        fill: gray;
      }

      .st6 {
        fill: url(#linear-gradient);
      }

      .st8 {
        opacity: .52;
      }
    </style>
    <linearGradient id="linear-gradient" x1="-251.34" y1="461.59" x2="-250.34" y2="461.59" gradientTransform="translate(17503.14 40511) scale(69.64 -87.67)" gradientUnits="userSpaceOnUse">
      <stop offset="0" stop-color="#392dd1"/>
      <stop offset="1" stop-color="#a91b78"/>
    </linearGradient>
    <linearGradient id="linear-gradient1" x1="-250.04" y1="465.28" x2="-249.04" y2="465.28" gradientTransform="translate(-15702.93 43759.52) rotate(49.13) scale(91.05 -87.09)" gradientUnits="userSpaceOnUse">
      <stop offset="0" stop-color="#392dd1"/>
      <stop offset="1" stop-color="#a91b78"/>
    </linearGradient>
    <linearGradient id="linear-gradient2" x1="6.72" y1="11.49" x2="21.73" y2="21.62" gradientUnits="userSpaceOnUse">
      <stop offset=".1" stop-color="#ff5124"/>
      <stop offset=".56" stop-color="#ea492f"/>
      <stop offset="1" stop-color="#db3805"/>
    </linearGradient>
    <linearGradient id="linear-gradient3" x1="53.77" y1="31.95" x2="62.77" y2="38.02" xlink:href="#linear-gradient2"/>
  </defs>
  <g>
    <path class="st6" d="M0,3.8c0-.53.1-1.03.3-1.5.2-.47.47-.87.8-1.2.33-.33.73-.6,1.2-.8C2.77.1,3.27,0,3.8,0h63C67.27,0,67.73.1,68.2.3c.47.2.87.47,1.2.8.4.33.7.73.9,1.2.13.47.2.97.2,1.5v81.3c0,.47-.07.93-.2,1.4-.2.47-.5.87-.9,1.2-.33.33-.73.6-1.2.8-.47.2-.93.3-1.4.3H3.8c-.53,0-1.03-.1-1.5-.3-.47-.2-.87-.47-1.2-.8-.33-.33-.6-.73-.8-1.2C.1,86.03,0,85.53,0,85V3.8Z"/>
    <path class="st1" d="M2.9,5.7c0-1.1.9-2.1,2.1-2.1h60.6c1.1,0,2,.9,2,2.1v67.9c0,1.2-.9,2.1-2,2.1H5c-.27,0-.53-.03-.8-.1-.27-.13-.5-.3-.7-.5-.2-.2-.33-.43-.4-.7-.13-.2-.2-.47-.2-.8,0,0,0-67.9,0-67.9Z"/>
    <g class="st8">
      <path class="st2" d="M25.6,11.6h32.3c.1,0,.3.2.3.4v2c0,.2-.2.3-.3.3H25.6c-.2,0-.4-.1-.4-.3v-2c0-.2.2-.4.4-.4Z"/>
      <path class="st2" d="M25.6,21.7h31.4c.2,0,.3.1.3.3v2c0,.2-.1.4-.3.4h-31.4c-.2,0-.4-.2-.4-.4v-2c0-.2.2-.3.4-.3Z"/>
      <path class="st2" d="M9.8,59.8h45c.2,0,.3.2.3.3v2.1c0,.1-.1.3-.3.3H9.8c-.2,0-.3-.2-.3-.3v-2.1c0-.1.1-.3.3-.3Z"/>
      <path class="st2" d="M7.9,34h54.1c.2,0,.4.2.4.4v5.1c0,.2-.2.3-.4.3H7.9c-.2,0-.3-.1-.3-.3v-5.1c0-.2.1-.4.3-.4Z"/>
      <path class="st2" d="M7.8,42.6h54.2c.2,0,.4.2.4.4v11.3c0,.2-.2.3-.4.3H7.8c-.2,0-.3-.1-.3-.3v-11.3c0-.2.1-.4.3-.4Z"/>
      <path class="st2" d="M25.6,17.3h36.6c.2,0,.3.1.3.3v.9c0,.2-.1.3-.3.3H25.6c-.2,0-.4-.1-.4-.3v-.9c0-.2.2-.3.4-.3Z"/>
      <path class="st2" d="M7.8,29.6h52.7c.2,0,.3.2.3.4v.8c0,.2-.1.4-.3.4H7.8c-.2,0-.3-.2-.3-.4v-.8c0-.2.1-.4.3-.4Z"/>
      <path class="st2" d="M9.8,65.4h50.9c.2,0,.3.2.3.4v.8c0,.2-.1.4-.3.4H9.8c-.2,0-.3-.2-.3-.4v-.8c0-.2.1-.4.3-.4Z"/>
    </g>
    <path class="st1" d="M35.6,84.4c-1.6,0-2.9-1.3-2.9-2.9s1.3-2.9,2.9-2.9,2.9,1.3,2.9,2.9-1.3,2.9-2.9,2.9Z"/>
    <path class="st4" d="M46,26.1c0-.67.13-1.33.4-2,.27-.6.63-1.13,1.1-1.6s1-.83,1.6-1.1c.67-.27,1.33-.4,2-.4h27.6c.67,0,1.33.13,2,.4.6.27,1.13.63,1.6,1.1.47.47.83,1,1.1,1.6.27.67.4,1.33.4,2v58.7c0,.67-.13,1.3-.4,1.9-.27.6-.63,1.17-1.1,1.7-.47.47-1,.83-1.6,1.1-.67.2-1.33.33-2,.4h-27.6c-.67,0-1.33-.13-2-.4-.6-.27-1.13-.63-1.6-1.1-.47-.47-.83-1.03-1.1-1.7-.27-.6-.4-1.23-.4-1.9V26.1Z"/>
    <path class="st1" d="M47.7,26c0-.33.07-.67.2-1s.33-.63.6-.9c.27-.27.57-.47.9-.6.33-.13.7-.2,1.1-.2h28.8c.4,0,.77.07,1.1.2.33.13.63.33.9.6s.47.57.6.9.2.67.2,1v54.9c0,.33-.07.67-.2,1-.13.33-.33.63-.6.9s-.57.47-.9.6c-.33.13-.7.2-1.1.2h-28.8c-.4,0-.77-.07-1.1-.2-.33-.13-.63-.33-.9-.6-.27-.27-.47-.57-.6-.9-.13-.33-.2-.67-.2-1,0,0,0-54.9,0-54.9ZM51.6,85.9c0-.3.3-.6.6-.6h25.4c.3,0,.5.3.5.6v.2c0,.07-.03.13-.1.2s-.13.1-.2.1c-.07.07-.13.1-.2.1h-25.4c-.07,0-.13-.03-.2-.1-.07,0-.13-.03-.2-.1s-.1-.13-.1-.2c-.07-.07-.1-.13-.1-.2Z"/>
    <g>
      <g>
        <path class="st3" d="M65,30h10.2c.2,0,.4.2.4.5v1c0,.3-.2.5-.4.5h-10.2c-.3,0-.5-.2-.5-.5v-1c0-.3.2-.5.5-.5Z"/>
        <path class="st3" d="M53.3,40.2h20.5c.2,0,.4.2.4.4v1.1c0,.3-.2.5-.4.5h-20.5c-.2,0-.4-.2-.4-.5v-1.1c0-.2.2-.4.4-.4Z"/>
        <path class="st3" d="M53.3,70.7h20.5c.2,0,.4.2.4.4v1.1c0,.2-.2.4-.4.4h-20.5c-.2,0-.4-.2-.4-.4v-1.1c0-.2.2-.4.4-.4Z"/>
        <path class="st3" d="M53.3,49.2h23.9c.2,0,.4.2.4.5v3.3c0,.2-.2.5-.4.5h-23.9c-.2,0-.4-.3-.4-.5v-3.3c0-.3.2-.5.4-.5Z"/>
        <path class="st3" d="M53.3,56h23.9c.2,0,.4.2.4.5v7.8c0,.2-.2.4-.4.4h-23.9c-.2,0-.4-.2-.4-.4v-7.8c0-.3.2-.5.4-.5Z"/>
      </g>
      <path class="st3" d="M64.9,34.1h11.6c.3,0,.5.2.5.5v.1c0,.2-.2.4-.5.4h-11.6c-.3,0-.5-.2-.5-.4v-.1c0-.3.2-.5.5-.5Z"/>
      <path class="st3" d="M64.9,37.2h11.6c.3,0,.5.2.5.5v.1c0,.2-.2.4-.5.4h-11.6c-.3,0-.5-.2-.5-.4v-.1c0-.3.2-.5.5-.5Z"/>
      <path class="st3" d="M53.2,44.1h23.2c.3,0,.5.2.5.5v.1c0,.2-.2.4-.5.4h-23.2c-.2,0-.4-.2-.4-.4v-.1c0-.3.2-.5.4-.5Z"/>
      <path class="st3" d="M53.2,74.6h23.2c.3,0,.5.2.5.5v.1c0,.2-.2.4-.5.4h-23.2c-.2,0-.4-.2-.4-.4v-.1c0-.3.2-.5.4-.5Z"/>
    </g>
  </g>
  <g>
    <circle class="st0" cx="13.84" cy="16.3" r="7.73"/>
    <g>
      <path class="st5" d="M13.36,11.45c-.14.13-.21.23-.33.47-.22.43-.29.85-.24,1.27.03.24.11.48.16.53.02.02.03.04.03.05s.02.05.04.07c.04.05.04.05-.02.03-.14-.04-.32-.18-.45-.35-.1-.13-.19-.38-.23-.65,0-.06-.03-.09-.05-.09-.05,0-.43.19-.44.22,0,.01-.02.02-.03.02s-.05.02-.09.05c-.03.03-.15.11-.25.19-.19.14-.54.49-.66.64-.03.04-.07.09-.08.1-.02.02-.08.12-.21.31-.07.11-.16.29-.16.31,0,0,.08-.05.18-.13.35-.28.61-.43.95-.54.3-.09.32-.08.09.08-.21.14-.62.53-.76.72-.38.51-.59.96-.67,1.38-.06.31-.06.88,0,.88.01,0,.02-.02.02-.05,0-.17.27-.78.46-1.02.22-.29.62-.65.72-.65,0,0,0,.02-.02.04-.04.05-.18.28-.28.47-.21.4-.36.95-.36,1.35,0,.35.13.82.3,1.11.05.07.08.14.08.15,0,.03.31.35.43.45.11.09.27.19.42.26.14.07.36.14.38.13,0,0-.07-.09-.16-.19-.3-.33-.54-.71-.65-1.07-.08-.26-.04-.92.08-1.07.03-.04.03-.03.03.09,0,.3.14.64.39.95.08.1.15.19.16.2,0,0,.08.09.17.19.09.1.16.18.17.19.09.09.45.6.45.64,0,.01,0,.03.02.03.03.01.21.4.28.6.04.13.07.27.08.41,0,.12.02.22.02.22.05,0,.25-.32.32-.5.07-.21.09-.61.04-.83-.05-.22-.16-.45-.29-.64-.06-.08-.1-.15-.09-.15.09,0,.55.44.65.61.03.05.07.13.1.18.12.21.17.43.17.73,0,.36-.08.64-.29.98-.03.05-.06.1-.08.13-.04.06.01.05.19-.05.4-.22.86-.68,1.07-1.07.07-.13.15-.44.15-.58,0-.21-.1-.6-.18-.69-.03-.03-.03-.01-.05.08-.03.26-.18.68-.2.57-.06-.32-.13-.51-.29-.74-.18-.27-.36-.41-.99-.81-.4-.25-.54-.35-.85-.62-.13-.11-.29-.28-.29-.3,0,0-.01-.03-.03-.05-.06-.06-.18-.28-.24-.42-.05-.12-.06-.18-.05-.46,0-.28,0-.34.06-.51.03-.1.1-.26.15-.34.09-.15.31-.39.45-.5.09-.07.38-.21.48-.23.07-.02.07-.01-.05.1-.29.27-.54.66-.62.97-.07.24-.07.75,0,.75.01,0,.02-.01.02-.02,0-.05.12-.29.22-.42.06-.08.16-.19.22-.24.06-.05.12-.1.13-.11.02-.02.34-.18.4-.2.07-.02.07-.02-.09.2-.21.3-.33.73-.31,1.07.01.17.11.55.16.58,0,0,.05.06.09.12.09.13.27.31.43.43.17.13.22.13.13,0-.14-.19-.22-.66-.17-.92.03-.15.14-.39.17-.39.01,0,.02.06.02.13,0,.37.12.62.5.99.15.15.35.34.43.42.46.42.67.79.73,1.26.03.27.01.51-.06.73-.03.08-.04.14-.03.14.04,0,.21-.25.31-.44.1-.2.19-.57.19-.78,0-.27-.09-.56-.24-.78-.12-.18-.23-.29-.5-.49-.33-.25-.4-.37-.28-.48.04-.04.09-.05.3-.05.23,0,.28,0,.56.1.48.15.53.16.8.16.2,0,.27,0,.36-.05.11-.05.29-.2.29-.24,0-.01-.1-.03-.22-.05-.14-.02-.32-.06-.47-.12-.44-.16-.91-.31-1.04-.35-.07-.02-.13-.04-.13-.05s.05-.03.1-.05c.12-.03.38,0,.58.07.07.02.24.09.38.14.57.21.88.24,1.11.13.12-.06.26-.18.26-.22,0-.02-.04-.06-.08-.1-.12-.11-.19-.26-.18-.39,0-.05.18-.09.36-.08h.18s-.06-.04-.06-.04c-.03-.03-.11-.09-.18-.13s-.16-.11-.21-.15c-.2-.14-.41-.3-.43-.32-.01-.01-.09-.07-.18-.13-.09-.06-.16-.11-.17-.12s-.09-.07-.19-.13-.19-.13-.2-.14c-.01-.01-.04-.1-.05-.2-.04-.25-.1-.37-.34-.6-.32-.31-.77-.62-1.25-.86-.16-.08-.31-.15-.33-.17-.02-.01-.06-.02-.08-.02-.02,0-.08-.09-.14-.23-.1-.22-.22-.41-.26-.43,0,0-.02-.02-.02-.03,0-.02-.08-.12-.26-.34-.13-.15-.35-.35-.38-.35-.02,0-.08.04-.13.09M13.45,11.97c-.08.09-.18.33-.22.48-.02.08-.03.24-.02.38,0,.22.02.26.09.4.12.23.4.49.35.33-.05-.17-.06-.31-.05-.49.02-.19.02-.2.08-.2.06,0,.32.12.38.18.06.06.07.02.04-.16-.03-.17-.18-.52-.31-.71-.07-.1-.24-.29-.27-.29,0,0-.04.03-.07.07M14.78,12.08c-.07.15-.15.38-.15.45,0,.02.04.05.09.07.2.07.41.16.55.25.09.05.16.1.17.1.06.03-.32-.72-.4-.8-.02-.02-.03-.04-.03-.05,0-.02-.13-.17-.15-.17,0,0-.05.07-.08.15M14.85,14.17h-.2s.11.06.11.06c.35.15.39.17.48.3.14.2.24.26.51.28.17.01.25.03.35.08.15.07.15.07.15.03,0-.11-.45-.65-.54-.65-.02,0-.03,0-.03-.02,0-.06-.44-.11-.81-.08"/>
      <path class="st1" d="M13.31,11.4c-.14.13-.21.23-.33.47-.22.43-.29.85-.24,1.27.03.24.11.48.16.53.02.02.03.04.03.05s.02.05.04.07c.04.05.04.05-.02.03-.14-.04-.32-.18-.45-.35-.1-.13-.19-.38-.23-.65,0-.06-.03-.09-.05-.09-.05,0-.43.19-.44.22,0,.01-.02.02-.03.02s-.05.02-.09.05c-.03.03-.15.11-.25.19-.19.14-.54.49-.66.64-.03.04-.07.09-.08.1-.02.02-.08.12-.21.31-.07.11-.16.29-.16.31,0,0,.08-.05.18-.13.35-.28.61-.43.95-.54.3-.09.32-.08.09.08-.21.14-.62.53-.76.72-.38.51-.59.96-.67,1.38-.06.31-.06.88,0,.88.01,0,.02-.02.02-.05,0-.17.27-.78.46-1.02.22-.29.62-.65.72-.65,0,0,0,.02-.02.04-.04.05-.18.28-.28.47-.21.4-.36.95-.36,1.35,0,.35.13.82.3,1.11.05.07.08.14.08.15,0,.03.31.35.43.45.11.09.27.19.42.26.14.07.36.14.38.13,0,0-.07-.09-.16-.19-.3-.33-.54-.71-.65-1.07-.08-.26-.04-.92.08-1.07.03-.04.03-.03.03.09,0,.3.14.64.39.95.08.1.15.19.16.2,0,0,.08.09.17.19.09.1.16.18.17.19.09.09.45.6.45.64,0,.01,0,.03.02.03.03.01.21.4.28.6.04.13.07.27.08.41,0,.12.02.22.02.22.05,0,.25-.32.32-.5.07-.21.09-.61.04-.83-.05-.22-.16-.45-.29-.64-.06-.08-.1-.15-.09-.15.09,0,.55.44.65.61.03.05.07.13.1.18.12.21.17.43.17.73,0,.36-.08.64-.29.98-.03.05-.06.1-.08.13-.04.06.01.05.19-.05.4-.22.86-.68,1.07-1.07.07-.13.15-.44.15-.58,0-.21-.1-.6-.18-.69-.03-.03-.03-.01-.05.08-.03.26-.18.68-.2.57-.06-.32-.13-.51-.29-.74-.18-.27-.36-.41-.99-.81-.4-.25-.54-.35-.85-.62-.13-.11-.29-.28-.29-.3,0,0-.01-.03-.03-.05-.06-.06-.18-.28-.24-.42-.05-.12-.06-.18-.05-.46,0-.28,0-.34.06-.51.03-.1.1-.26.15-.34.09-.15.31-.39.45-.5.09-.07.38-.21.48-.23.07-.02.07-.01-.05.1-.29.27-.54.66-.62.97-.07.24-.07.75,0,.75.01,0,.02-.01.02-.02,0-.05.12-.29.22-.42.06-.08.16-.19.22-.24.06-.05.12-.1.13-.11.02-.02.34-.18.4-.2.07-.02.07-.02-.09.2-.21.3-.33.73-.31,1.07.01.17.11.55.16.58,0,0,.05.06.09.12.09.13.27.31.43.43.17.13.22.13.13,0-.14-.19-.22-.66-.17-.92.03-.15.14-.39.17-.39.01,0,.02.06.02.13,0,.37.12.62.5.99.15.15.35.34.43.42.46.42.67.79.73,1.26.03.27.01.51-.06.73-.03.08-.04.14-.03.14.04,0,.21-.25.31-.44.1-.2.19-.57.19-.78,0-.27-.09-.56-.24-.78-.12-.18-.23-.29-.5-.49-.33-.25-.4-.37-.28-.48.04-.04.09-.05.3-.05.23,0,.28,0,.56.1.48.15.53.16.8.16.2,0,.27,0,.36-.05.11-.05.29-.2.29-.24,0-.01-.1-.03-.22-.05-.14-.02-.32-.06-.47-.12-.44-.16-.91-.31-1.04-.35-.07-.02-.13-.04-.13-.05s.05-.03.1-.05c.12-.03.38,0,.58.07.07.02.24.09.38.14.57.21.88.24,1.11.13.12-.06.26-.18.26-.22,0-.02-.04-.06-.08-.1-.12-.11-.19-.26-.18-.39,0-.05.18-.09.36-.08h.18s-.06-.04-.06-.04c-.03-.03-.11-.09-.18-.13s-.16-.11-.21-.15c-.2-.14-.41-.3-.43-.32-.01-.01-.09-.07-.18-.13-.09-.06-.16-.11-.17-.12s-.09-.07-.19-.13-.19-.13-.2-.14c-.01-.01-.04-.1-.05-.2-.04-.25-.1-.37-.34-.6-.32-.31-.77-.62-1.25-.86-.16-.08-.31-.15-.33-.17-.02-.01-.06-.02-.08-.02-.02,0-.08-.09-.14-.23-.1-.22-.22-.41-.26-.43,0,0-.02-.02-.02-.03,0-.02-.08-.12-.26-.34-.13-.15-.35-.35-.38-.35-.02,0-.08.04-.13.09M13.4,11.93c-.08.09-.18.33-.22.48-.02.08-.03.24-.02.38,0,.22.02.26.09.4.12.23.4.49.35.33-.05-.17-.06-.31-.05-.49.02-.19.02-.2.08-.2.06,0,.32.12.38.18.06.06.07.02.04-.16-.03-.17-.18-.52-.31-.71-.07-.1-.24-.29-.27-.29,0,0-.04.03-.07.07M14.73,12.03c-.07.15-.15.38-.15.45,0,.02.04.05.09.07.2.07.41.16.55.25.09.05.16.1.17.1.06.03-.32-.72-.4-.8-.02-.02-.03-.04-.03-.05,0-.02-.13-.17-.15-.17,0,0-.05.07-.08.15M14.8,14.12h-.2s.11.06.11.06c.35.15.39.17.48.3.14.2.24.26.51.28.17.01.25.03.35.08.15.07.15.07.15.03,0-.11-.45-.65-.54-.65-.02,0-.03,0-.03-.02,0-.06-.44-.11-.81-.08"/>
    </g>
  </g>
  <g>
    <circle class="st7" cx="58.04" cy="34.83" r="4.63"/>
    <g>
      <path class="st5" d="M57.75,31.92c-.08.08-.12.14-.2.28-.13.26-.18.51-.14.76.02.14.06.29.1.32.01,0,.02.02.02.03s.01.03.03.04c.02.03.02.03-.01.02-.08-.03-.19-.11-.27-.21-.06-.08-.11-.23-.14-.39,0-.03-.02-.05-.03-.05-.03,0-.25.11-.26.13,0,0-.01.01-.02.01s-.03.01-.05.03c-.02.02-.09.07-.15.12-.11.09-.32.29-.39.38-.02.03-.04.05-.05.06-.01.01-.05.07-.12.19-.04.06-.1.17-.1.19,0,0,.05-.03.11-.08.21-.17.37-.26.57-.32.18-.06.19-.05.06.04-.12.08-.37.32-.45.43-.22.31-.35.57-.4.83-.03.19-.03.53,0,.53,0,0,.01-.01.01-.03,0-.1.16-.47.28-.61.13-.17.37-.39.43-.39,0,0,0,.01-.01.03-.02.03-.11.17-.17.28-.13.24-.21.57-.21.81,0,.21.08.49.18.67.03.04.05.08.05.09,0,.02.19.21.26.27.07.05.16.11.25.16.08.04.22.09.23.08,0,0-.04-.05-.09-.11-.18-.2-.32-.43-.39-.64-.05-.16-.02-.55.05-.64.02-.02.02-.02.02.05,0,.18.08.38.23.57.05.06.09.11.1.12,0,0,.05.06.1.11.05.06.1.11.1.11.06.05.27.36.27.38,0,0,0,.02.01.02.02,0,.13.24.17.36.03.08.04.16.05.25,0,.07.01.13.01.13.03,0,.15-.19.19-.3.04-.13.05-.36.02-.5-.03-.13-.1-.27-.17-.38-.03-.05-.06-.09-.05-.09.05,0,.33.26.39.37.02.03.04.08.06.11.07.13.1.26.1.44,0,.21-.05.38-.18.59-.02.03-.04.06-.05.08-.02.04,0,.03.11-.03.24-.13.51-.41.64-.64.04-.08.09-.26.09-.35,0-.12-.06-.36-.11-.41-.02-.02-.02,0-.03.05-.02.15-.11.4-.12.34-.03-.19-.08-.31-.17-.45-.11-.16-.22-.25-.6-.48-.24-.15-.33-.21-.51-.37-.08-.07-.17-.17-.17-.18,0,0,0-.02-.02-.03-.03-.04-.11-.17-.14-.25-.03-.07-.03-.11-.03-.28,0-.17,0-.21.04-.31.02-.06.06-.16.09-.21.05-.09.18-.24.27-.3.05-.04.23-.12.29-.14.04,0,.04,0-.03.06-.17.16-.32.4-.37.58-.04.14-.04.45,0,.45,0,0,.01,0,.01-.01,0-.03.07-.17.13-.25.03-.05.09-.11.13-.14.04-.03.07-.06.08-.06.01-.01.2-.11.24-.12.04-.01.04-.01-.05.12-.12.18-.2.43-.19.64,0,.1.07.33.09.35,0,0,.03.04.05.07.05.08.16.19.26.26.1.08.13.08.08,0-.08-.11-.13-.4-.1-.55.02-.09.08-.24.1-.24,0,0,.01.04.01.08,0,.22.07.37.3.59.09.09.21.2.26.25.27.25.4.47.44.76.02.16,0,.31-.04.44-.01.05-.02.08-.02.08.02,0,.13-.15.18-.27.06-.12.12-.34.12-.47,0-.16-.05-.34-.14-.47-.07-.11-.14-.17-.3-.29-.2-.15-.24-.22-.17-.29.03-.02.05-.03.18-.03.14,0,.17,0,.34.06.29.09.32.1.48.1.12,0,.16,0,.21-.03.07-.03.17-.12.17-.14,0,0-.06-.02-.13-.03-.08,0-.19-.04-.28-.07-.26-.09-.55-.19-.63-.21-.04-.01-.08-.02-.08-.03s.03-.02.06-.03c.07-.02.23,0,.35.04.04.01.14.05.23.08.34.12.52.15.67.08.07-.04.16-.11.16-.13,0,0-.02-.04-.05-.06-.07-.06-.12-.16-.11-.23,0-.03.11-.05.22-.05h.11s-.04-.02-.04-.02c-.02-.02-.07-.05-.11-.08s-.1-.07-.13-.09c-.12-.09-.24-.18-.26-.19,0,0-.06-.04-.11-.08-.05-.04-.1-.07-.1-.07s-.06-.04-.11-.08-.11-.08-.12-.09c0,0-.02-.06-.03-.12-.03-.15-.06-.22-.2-.36-.19-.19-.46-.37-.75-.52-.1-.05-.19-.09-.2-.1-.01,0-.03-.01-.05-.01-.01,0-.05-.05-.09-.14-.06-.13-.13-.25-.15-.26,0,0-.01-.01-.01-.02,0-.01-.05-.07-.16-.2-.08-.09-.21-.21-.23-.21-.01,0-.05.02-.08.05M57.8,32.24c-.05.06-.11.2-.13.29-.01.05-.02.14-.01.23,0,.13.01.16.05.24.07.14.24.29.21.2-.03-.1-.04-.19-.03-.29,0-.11.01-.12.05-.12.04,0,.19.07.23.11.04.04.04,0,.02-.1-.02-.1-.11-.31-.19-.42-.04-.06-.15-.17-.16-.17,0,0-.02.02-.04.04M58.6,32.3c-.04.09-.09.23-.09.27,0,.01.02.03.05.04.12.04.24.1.33.15.05.03.1.06.1.06.03.02-.19-.43-.24-.48-.01-.01-.02-.02-.02-.03,0-.01-.08-.1-.09-.1,0,0-.03.04-.05.09M58.64,33.56h-.12s.06.04.06.04c.21.09.23.1.29.18.08.12.14.15.3.17.1,0,.15.02.21.05.09.04.09.04.09.02,0-.06-.27-.39-.32-.39-.01,0-.02,0-.02-.01,0-.04-.26-.06-.49-.05"/>
      <path class="st1" d="M57.72,31.9c-.08.08-.12.14-.2.28-.13.26-.18.51-.14.76.02.14.06.29.1.32.01,0,.02.02.02.03s.01.03.03.04c.02.03.02.03-.01.02-.08-.03-.19-.11-.27-.21-.06-.08-.11-.23-.14-.39,0-.03-.02-.05-.03-.05-.03,0-.25.11-.26.13,0,0-.01.01-.02.01s-.03.01-.05.03c-.02.02-.09.07-.15.12-.11.09-.32.29-.39.38-.02.03-.04.05-.05.06-.01.01-.05.07-.12.19-.04.06-.1.17-.1.19,0,0,.05-.03.11-.08.21-.17.37-.26.57-.32.18-.06.19-.05.06.04-.12.08-.37.32-.45.43-.22.31-.35.57-.4.83-.03.19-.03.53,0,.53,0,0,.01-.01.01-.03,0-.1.16-.47.28-.61.13-.17.37-.39.43-.39,0,0,0,.01-.01.03-.02.03-.11.17-.17.28-.13.24-.21.57-.21.81,0,.21.08.49.18.67.03.04.05.08.05.09,0,.02.19.21.26.27.07.05.16.11.25.16.08.04.22.09.23.08,0,0-.04-.05-.09-.11-.18-.2-.32-.43-.39-.64-.05-.16-.02-.55.05-.64.02-.02.02-.02.02.05,0,.18.08.38.23.57.05.06.09.11.1.12,0,0,.05.06.1.11.05.06.1.11.1.11.06.05.27.36.27.38,0,0,0,.02.01.02.02,0,.13.24.17.36.03.08.04.16.05.25,0,.07.01.13.01.13.03,0,.15-.19.19-.3.04-.13.05-.36.02-.5-.03-.13-.1-.27-.17-.38-.03-.05-.06-.09-.05-.09.05,0,.33.26.39.37.02.03.04.08.06.11.07.13.1.26.1.44,0,.21-.05.38-.18.59-.02.03-.04.06-.05.08-.02.04,0,.03.11-.03.24-.13.51-.41.64-.64.04-.08.09-.26.09-.35,0-.12-.06-.36-.11-.41-.02-.02-.02,0-.03.05-.02.15-.11.4-.12.34-.03-.19-.08-.31-.17-.45-.11-.16-.22-.25-.6-.48-.24-.15-.33-.21-.51-.37-.08-.07-.17-.17-.17-.18,0,0,0-.02-.02-.03-.03-.04-.11-.17-.14-.25-.03-.07-.03-.11-.03-.28,0-.17,0-.21.04-.31.02-.06.06-.16.09-.21.05-.09.18-.24.27-.3.05-.04.23-.12.29-.14.04,0,.04,0-.03.06-.17.16-.32.4-.37.58-.04.14-.04.45,0,.45,0,0,.01,0,.01-.01,0-.03.07-.17.13-.25.03-.05.09-.11.13-.14.04-.03.07-.06.08-.06.01-.01.2-.11.24-.12.04-.01.04-.01-.05.12-.12.18-.2.43-.19.64,0,.1.07.33.09.35,0,0,.03.04.05.07.05.08.16.19.26.26.1.08.13.08.08,0-.08-.11-.13-.4-.1-.55.02-.09.08-.24.1-.24,0,0,.01.04.01.08,0,.22.07.37.3.59.09.09.21.2.26.25.27.25.4.47.44.76.02.16,0,.31-.04.44-.01.05-.02.08-.02.08.02,0,.13-.15.18-.27.06-.12.12-.34.12-.47,0-.16-.05-.34-.14-.47-.07-.11-.14-.17-.3-.29-.2-.15-.24-.22-.17-.29.03-.02.05-.03.18-.03.14,0,.17,0,.34.06.29.09.32.1.48.1.12,0,.16,0,.21-.03.07-.03.17-.12.17-.14,0,0-.06-.02-.13-.03-.08,0-.19-.04-.28-.07-.26-.09-.55-.19-.63-.21-.04-.01-.08-.02-.08-.03s.03-.02.06-.03c.07-.02.23,0,.35.04.04.01.14.05.23.08.34.12.52.15.67.08.07-.04.16-.11.16-.13,0,0-.02-.04-.05-.06-.07-.06-.12-.16-.11-.23,0-.03.11-.05.22-.05h.11s-.04-.02-.04-.02c-.02-.02-.07-.05-.11-.08s-.1-.07-.13-.09c-.12-.09-.24-.18-.26-.19,0,0-.06-.04-.11-.08-.05-.04-.1-.07-.1-.07s-.06-.04-.11-.08-.11-.08-.12-.09c0,0-.02-.06-.03-.12-.03-.15-.06-.22-.2-.36-.19-.19-.46-.37-.75-.52-.1-.05-.19-.09-.2-.1-.01,0-.03-.01-.05-.01-.01,0-.05-.05-.09-.14-.06-.13-.13-.25-.15-.26,0,0-.01-.01-.01-.02,0-.01-.05-.07-.16-.2-.08-.09-.21-.21-.23-.21-.01,0-.05.02-.08.05M57.77,32.21c-.05.06-.11.2-.13.29-.01.05-.02.14-.01.23,0,.13.01.16.05.24.07.14.24.29.21.2-.03-.1-.04-.19-.03-.29,0-.11.01-.12.05-.12.04,0,.19.07.23.11.04.04.04,0,.02-.1-.02-.1-.11-.31-.19-.42-.04-.06-.15-.17-.16-.17,0,0-.02.02-.04.04M58.57,32.28c-.04.09-.09.23-.09.27,0,.01.02.03.05.04.12.04.24.1.33.15.05.03.1.06.1.06.03.02-.19-.43-.24-.48-.01-.01-.02-.02-.02-.03,0-.01-.08-.1-.09-.1,0,0-.03.04-.05.09M58.61,33.53h-.12s.06.04.06.04c.21.09.23.1.29.18.08.12.14.15.3.17.1,0,.15.02.21.05.09.04.09.04.09.02,0-.06-.27-.39-.32-.39-.01,0-.02,0-.02-.01,0-.04-.26-.06-.49-.05"/>
    </g>
  </g>
</svg>