<?xml version="1.0" encoding="UTF-8"?>
<svg id="Layer_1" xmlns="http://www.w3.org/2000/svg" version="1.1" xmlns:xlink="http://www.w3.org/1999/xlink" viewBox="0 0 330 337">
  <!-- Generator: Adobe Illustrator 29.6.0, SVG Export Plug-In . SVG Version: 2.1.1 Build 207)  -->
  <defs>
    <style>
      .st0 {
        fill: #fff;
      }

      .st0, .st1, .st2, .st3, .st4, .st5, .st6, .st7, .st8 {
        fill-rule: evenodd;
      }

      .st1 {
        fill: #f1f1f1;
      }

      .st9 {
        fill: none;
        stroke: #aaa;
        stroke-dasharray: 9.45;
        stroke-linecap: round;
        stroke-linejoin: round;
        stroke-width: 2.8px;
      }

      .st2 {
        fill: #ebebeb;
      }

      .st3 {
        fill: url(#linear-gradient1);
      }

      .st10 {
        fill: url(#linear-gradient4);
      }

      .st11 {
        fill: url(#linear-gradient5);
      }

      .st4 {
        isolation: isolate;
        opacity: .26;
      }

      .st5 {
        fill: gray;
      }

      .st12 {
        fill: url(#linear-gradient6);
      }

      .st6 {
        fill: url(#linear-gradient3);
      }

      .st7 {
        fill: url(#linear-gradient);
      }

      .st13 {
        opacity: .52;
      }

      .st14 {
        fill: #b5b5b5;
      }

      .st8 {
        fill: url(#linear-gradient2);
      }
    </style>
    <linearGradient id="linear-gradient" x1="-130.72" y1="589.43" x2="-129.72" y2="589.43" gradientTransform="translate(-61240.1 111819.13) rotate(41.14) scale(207.81 -211.22)" gradientUnits="userSpaceOnUse">
      <stop offset="0" stop-color="#fb542b"/>
      <stop offset="1" stop-color="#5118dd"/>
    </linearGradient>
    <linearGradient id="linear-gradient1" x1="-130.7" y1="588.95" x2="-129.7" y2="588.95" gradientTransform="translate(-25579.65 98190.72) rotate(28.13) scale(180.67 -167.29)" gradientUnits="userSpaceOnUse">
      <stop offset="0" stop-color="#fb542b"/>
      <stop offset="1" stop-color="#5118dd"/>
    </linearGradient>
    <linearGradient id="linear-gradient2" x1="-131.17" y1="582.4" x2="-130.17" y2="582.4" gradientTransform="translate(22483.09 20709.37) rotate(4.28) scale(182.3 -32.18)" gradientUnits="userSpaceOnUse">
      <stop offset="0" stop-color="#fb542b"/>
      <stop offset="1" stop-color="#5118dd"/>
    </linearGradient>
    <linearGradient id="linear-gradient3" x1="-130.4" y1="589.59" x2="-129.4" y2="589.59" gradientTransform="translate(-60825.74 77443.88) rotate(51.58) scale(174.5 -162.59)" gradientUnits="userSpaceOnUse">
      <stop offset="0" stop-color="#fb542b"/>
      <stop offset="1" stop-color="#5118dd"/>
    </linearGradient>
    <linearGradient id="linear-gradient4" x1="54.03" y1="169.52" x2="69.32" y2="179.83" gradientUnits="userSpaceOnUse">
      <stop offset=".1" stop-color="#ff5124"/>
      <stop offset=".56" stop-color="#ea492f"/>
      <stop offset="1" stop-color="#db3805"/>
    </linearGradient>
    <linearGradient id="linear-gradient5" x1="216.72" y1="180.48" x2="232.01" y2="190.79" xlink:href="#linear-gradient4"/>
    <linearGradient id="linear-gradient6" x1="147.63" y1="40.01" x2="162.92" y2="50.32" xlink:href="#linear-gradient4"/>
  </defs>
  <g>
    <path class="st9" d="M169,270c54.1,0,98-43.7,98-97.5,0-12-2.2-23.5-6.2-34.1-13.9-37-49.7-63.4-91.8-63.4-54.1,0-98,43.7-98,97.5s43.9,97.5,98,97.5h0Z"/>
    <path class="st14" d="M104.9,100.5l-7.2,26.1c-.07.27-.23.53-.5.8-.2.2-.47.37-.8.5-.27.07-.57.07-.9,0s-.63-.2-.9-.4l-18-16.2c-.2-.2-.37-.47-.5-.8-.07-.27-.07-.57,0-.9,0-.33.13-.63.4-.9.2-.27.43-.47.7-.6l25.2-9.8c.33-.13.67-.17,1-.1.4.07.73.2,1,.4.27.27.43.57.5.9.13.33.13.67,0,1ZM253,125.5l-23.7-12.8c-.33-.2-.57-.43-.7-.7-.2-.27-.3-.57-.3-.9-.07-.33,0-.63.2-.9.13-.33.33-.57.6-.7l19.8-13.9c.27-.2.57-.3.9-.3.33-.07.63-.03.9.1.33.13.6.33.8.6.2.27.3.57.3.9l4,26.7c.07.33.03.67-.1,1-.13.33-.37.6-.7.8-.27.2-.6.33-1,.4-.33,0-.67-.1-1-.3ZM142.4,265.5l25.7-8.6c.27-.07.57-.07.9,0,.33,0,.63.13.9.4.27.2.43.43.5.7.13.33.17.67.1,1l-3.3,23.9c-.07.33-.2.63-.4.9s-.43.47-.7.6c-.33.13-.67.17-1,.1-.33,0-.63-.1-.9-.3l-22.2-15.3c-.33-.2-.57-.47-.7-.8s-.17-.67-.1-1c0-.4.13-.73.4-1,.2-.27.47-.47.8-.6h0Z"/>
    <g>
      <path class="st7" d="M204,167.6c0-.47.1-.93.3-1.4.13-.47.37-.87.7-1.2.33-.33.73-.57,1.2-.7.47-.2.93-.3,1.4-.3h83.3c1.9,0,3.5,1.6,3.5,3.6v107.6c0,.47-.1.93-.3,1.4-.13.4-.37.77-.7,1.1-.33.33-.73.6-1.2.8-.4.2-.83.3-1.3.3h-83.3c-.47,0-.93-.1-1.4-.3-.47-.2-.87-.47-1.2-.8s-.57-.7-.7-1.1c-.2-.47-.3-.93-.3-1.4v-107.6Z"/>
      <path class="st0" d="M207.7,170.6c0-1,.9-1.9,2-1.9h79c1.1,0,2,.9,2,1.9v89.3c0,.27-.07.5-.2.7-.07.27-.2.5-.4.7-.2.13-.4.27-.6.4-.27.07-.53.1-.8.1h-79c-.27,0-.53-.03-.8-.1-.2-.13-.4-.27-.6-.4-.2-.2-.33-.43-.4-.7-.13-.2-.2-.43-.2-.7v-89.3h0Z"/>
      <g class="st13">
        <path class="st1" d="M236.7,179.1h41.6c.1,0,.3.1.3.3v2.8c0,.2-.2.3-.3.3h-41.6c-.2,0-.4-.1-.4-.3v-2.8c0-.2.2-.3.4-.3h0Z"/>
        <path class="st1" d="M236.7,192h40.5c.2,0,.3.2.3.3v2.9c0,.2-.1.3-.3.3h-40.5c-.2,0-.4-.1-.4-.3v-2.9c0-.1.2-.3.4-.3h0Z"/>
        <path class="st1" d="M216.4,241.3h58c.1,0,.3.1.3.3v2.8c0,.2-.2.4-.3.4h-58c-.1,0-.3-.2-.3-.4v-2.8c0-.2.2-.3.3-.3Z"/>
        <path class="st1" d="M214,208h69.6c.2,0,.4.1.4.3v6.8c0,.2-.2.4-.4.4h-69.6c-.1,0-.3-.2-.3-.4v-6.8c0-.2.2-.3.3-.3Z"/>
        <path class="st1" d="M213.9,219.1h69.7c.2,0,.4.2.4.3v14.8c0,.2-.2.4-.4.4h-69.7c-.2,0-.3-.2-.3-.4v-14.8c0-.1.1-.3.3-.3h0Z"/>
        <path class="st1" d="M236.7,186.3h47.1c.2,0,.4.2.4.4v1.3c0,.2-.2.3-.4.3h-47.1c-.2,0-.4-.1-.4-.3v-1.3c0-.2.2-.4.4-.4h0Z"/>
        <path class="st1" d="M213.9,202.3h67.8c.1,0,.3.2.3.3v1.4c0,.1-.2.3-.3.3h-67.8c-.2,0-.3-.2-.3-.3v-1.4c0-.1.1-.3.3-.3h0Z"/>
        <path class="st1" d="M216.4,248.6h65.5c.2,0,.3.1.3.3v1.3c0,.2-.1.3-.3.3h-65.5c-.1,0-.3-.1-.3-.3v-1.3c0-.2.2-.3.3-.3Z"/>
      </g>
      <path class="st0" d="M249.7,273.1c-2.1,0-3.8-1.7-3.8-3.8s1.7-3.7,3.8-3.7,3.7,1.7,3.7,3.7c0,2.1-1.7,3.8-3.7,3.8Z"/>
    </g>
    <path class="st3" d="M42.6,161.8c0-.4.1-.77.3-1.1.13-.33.3-.63.5-.9.27-.27.57-.47.9-.6.33-.13.7-.2,1.1-.2h86.5c.4,0,.77.07,1.1.2s.63.33.9.6c.27.27.47.57.6.9.13.33.2.7.2,1.1v68.7H42.6v-68.7Z"/>
    <path class="st8" d="M37.5,237.3c-1.9,2.6-.8,4.6,2.3,4.6h98.7c3.1,0,4.1-1.9,2-4.4l-5.8-7H42.6l-5.1,6.8Z"/>
    <path class="st4" d="M42.8,235.7c-1.5,1.7-.9,3.1,1.3,3.1h90c2.3,0,2.9-1.3,1.2-2.9l-5.5-5.4H47.6l-4.8,5.2h0Z"/>
    <path class="st0" d="M46.4,165.6c0-1,.9-1.9,2-1.9h80.6c1,0,1.9.9,1.9,1.9v54.5c0,1.1-.9,1.9-1.9,1.9H48.4c-.27,0-.53-.03-.8-.1-.2-.13-.4-.27-.6-.4-.2-.2-.33-.43-.4-.7-.13-.2-.2-.43-.2-.7v-54.5Z"/>
    <g class="st13">
      <path class="st1" d="M75.9,174.1h42.4c.1,0,.3.1.3.3v2.8c0,.2-.2.3-.3.3h-42.4c-.2,0-.3-.1-.3-.3v-2.8c0-.2.1-.3.3-.3Z"/>
      <path class="st1" d="M75.9,187h41.2c.2,0,.4.2.4.3v2.9c0,.2-.2.3-.4.3h-41.2c-.2,0-.3-.1-.3-.3v-2.9c0-.1.1-.3.3-.3Z"/>
      <path class="st1" d="M55.3,203h68.4c.2,0,.3.1.3.3v6.8c0,.2-.1.4-.3.4H55.3c-.2,0-.3-.2-.3-.4v-6.8c0-.2.1-.3.3-.3Z"/>
      <path class="st1" d="M75.9,181.3h48c.2,0,.4.2.4.4v1.3c0,.2-.2.3-.4.3h-48c-.2,0-.3-.1-.3-.3v-1.3c0-.2.1-.4.3-.4Z"/>
      <path class="st1" d="M55.3,196h66.6c.2,0,.4.2.4.3v1.4c0,.2-.2.3-.4.3H55.3c-.2,0-.3-.1-.3-.3v-1.4c0-.1.1-.3.3-.3Z"/>
    </g>
    <g>
      <path class="st6" d="M137,29.2c0-3.4,2.8-6.2,6.2-6.2h50.3c3.4,0,6.1,2.8,6.1,6.2v102.4c0,3.4-2.7,6.2-6.1,6.2h-50.3c-3.4,0-6.2-2.8-6.2-6.2V29.2Z"/>
      <path class="st0" d="M139.8,30.1c0-.4.1-.83.3-1.3.13-.4.37-.73.7-1,.33-.33.7-.6,1.1-.8.4-.13.83-.2,1.3-.2h50.3c.4,0,.83.07,1.3.2.4.2.77.47,1.1.8.27.27.5.6.7,1,.13.47.2.9.2,1.3v93.9c0,.47-.07.9-.2,1.3-.2.4-.43.77-.7,1.1-.33.33-.7.57-1.1.7-.47.2-.9.3-1.3.3h-50.3c-.47,0-.9-.1-1.3-.3-.4-.13-.77-.37-1.1-.7-.33-.33-.57-.7-.7-1.1-.2-.4-.3-.83-.3-1.3,0,0,0-93.9,0-93.9ZM146.4,131.2c0-.6.4-1,.9-1h42.1c.2,0,.4.1.6.3s.3.43.3.7-.1.47-.3.6c-.2.2-.4.3-.6.3h-42.1c-.13,0-.27-.03-.4-.1-.07,0-.17-.07-.3-.2-.07-.07-.13-.17-.2-.3v-.3h0Z"/>
      <g>
        <g>
          <path class="st2" d="M168.2,38h17.4c.3,0,.6.3.6.6v2.2c0,.3-.3.5-.6.5h-17.4c-.3,0-.5-.2-.5-.5v-2.2c0-.3.2-.6.5-.6Z"/>
          <path class="st2" d="M149,55h34.2c.4,0,.6.2.6.5v2.2c0,.3-.2.6-.6.6h-34.2c-.3,0-.6-.3-.6-.6v-2.2c0-.3.3-.5.6-.5Z"/>
          <path class="st2" d="M149,105.8h34.2c.4,0,.6.2.6.5v2.2c0,.3-.2.6-.6.6h-34.2c-.3,0-.6-.3-.6-.6v-2.2c0-.3.3-.5.6-.5Z"/>
          <path class="st2" d="M149,70h39.9c.3,0,.5.3.5.6v5.9c0,.3-.2.6-.5.6h-39.9c-.3,0-.6-.3-.6-.6v-5.9c0-.3.3-.6.6-.6Z"/>
          <path class="st2" d="M149,81.3h39.9c.3,0,.5.3.5.6v13.4c0,.3-.2.6-.5.6h-39.9c-.3,0-.6-.3-.6-.6v-13.4c0-.3.3-.6.6-.6Z"/>
        </g>
        <path class="st2" d="M168.1,44.9h19.7c.3,0,.6.2.6.5v.5c0,.3-.3.6-.6.6h-19.7c-.3,0-.6-.3-.6-.6v-.5c0-.3.3-.5.6-.5Z"/>
        <path class="st2" d="M168.1,50h19.7c.3,0,.6.3.6.6v.5c0,.3-.3.6-.6.6h-19.7c-.3,0-.6-.3-.6-.6v-.5c0-.3.3-.6.6-.6Z"/>
        <path class="st2" d="M148.8,61.6h38.8c.3,0,.6.2.6.5v.5c0,.3-.3.6-.6.6h-38.8c-.3,0-.6-.3-.6-.6v-.5c0-.3.3-.5.6-.5Z"/>
        <path class="st2" d="M148.8,112.4h38.8c.3,0,.6.2.6.5v.5c0,.3-.3.6-.6.6h-38.8c-.3,0-.6-.3-.6-.6v-.5c0-.3.3-.5.6-.5Z"/>
      </g>
    </g>
  </g>
  <g>
    <circle class="st10" cx="61.28" cy="174.41" r="7.87"/>
    <g>
      <path class="st5" d="M60.79,169.47c-.14.13-.21.23-.33.48-.22.44-.3.87-.24,1.3.03.24.11.49.17.54.02.02.03.04.03.05s.02.05.04.07c.04.05.04.05-.02.03-.14-.04-.32-.19-.45-.36-.1-.13-.19-.39-.24-.66,0-.06-.03-.09-.05-.09-.05,0-.43.19-.44.22,0,.01-.02.02-.03.02s-.05.02-.09.05c-.04.03-.15.12-.26.2-.19.15-.55.5-.67.65-.03.04-.07.09-.09.11-.02.03-.09.12-.21.32-.07.11-.17.29-.17.32,0,0,.08-.05.18-.13.35-.29.63-.44.96-.55.31-.09.32-.08.09.08-.21.14-.63.54-.77.74-.38.52-.6.98-.68,1.41-.06.32-.06.9,0,.9.01,0,.02-.02.02-.05,0-.18.28-.79.47-1.04.23-.29.63-.66.73-.66,0,0,0,.02-.02.04-.04.05-.18.29-.29.48-.21.4-.36.97-.37,1.37,0,.36.13.84.3,1.13.05.08.08.14.08.15,0,.03.32.36.44.46.11.09.28.2.42.27.14.07.37.15.39.13,0,0-.07-.09-.16-.19-.31-.33-.55-.72-.67-1.09-.09-.26-.04-.93.08-1.09.03-.04.03-.03.03.09,0,.31.14.65.39.97.08.1.15.19.16.2,0,0,.08.09.17.19.09.1.16.19.17.19.09.09.46.61.46.65,0,.01,0,.03.02.03.03.01.21.4.28.62.04.13.07.27.08.42,0,.12.02.22.03.22.05,0,.26-.32.32-.51.07-.22.09-.62.04-.85-.05-.22-.16-.46-.29-.65-.06-.08-.1-.15-.09-.15.09,0,.57.45.66.63.03.05.07.13.1.19.12.21.17.44.17.74,0,.36-.09.65-.3,1-.03.05-.06.1-.08.13-.04.07.01.05.19-.05.41-.23.87-.69,1.09-1.09.07-.13.15-.45.15-.59,0-.21-.11-.61-.18-.7-.03-.03-.03-.01-.05.09-.03.26-.18.69-.2.58-.06-.33-.13-.52-.29-.76-.19-.27-.37-.42-1.01-.82-.4-.25-.55-.36-.86-.63-.13-.12-.29-.28-.29-.31,0,0-.01-.03-.03-.05-.06-.06-.18-.28-.24-.42-.05-.13-.06-.18-.06-.47,0-.29,0-.35.07-.52.04-.11.11-.26.16-.35.09-.15.31-.4.46-.51.09-.07.39-.21.49-.23.07-.02.07-.01-.05.1-.29.28-.55.67-.63.99-.07.25-.07.77,0,.77.01,0,.02-.01.02-.02,0-.05.13-.29.23-.43.06-.08.16-.19.23-.24.07-.05.12-.1.13-.11.02-.02.34-.18.41-.2.07-.02.07-.02-.09.2-.21.31-.34.74-.32,1.08.01.17.12.56.16.6,0,0,.05.06.09.12.09.14.27.32.44.44.18.13.23.13.13,0-.14-.19-.23-.67-.17-.94.03-.15.14-.4.17-.4.01,0,.02.06.02.13,0,.38.13.63.51,1.01.15.15.35.34.44.43.47.43.68.8.74,1.29.03.28.01.52-.06.75-.03.08-.04.14-.03.14.04,0,.22-.26.31-.45.1-.21.2-.59.2-.79,0-.27-.09-.57-.25-.8-.12-.18-.24-.29-.51-.5-.33-.25-.41-.38-.29-.49.04-.04.09-.05.31-.05.24,0,.29,0,.57.1.49.16.54.17.81.17.21,0,.28,0,.36-.05.11-.05.29-.2.29-.24,0-.01-.1-.04-.22-.05-.14-.02-.32-.06-.48-.12-.45-.16-.93-.32-1.06-.35-.07-.02-.13-.04-.13-.05s.05-.03.1-.05c.12-.03.39,0,.59.08.07.02.24.09.39.14.58.21.89.25,1.13.13.12-.06.26-.18.26-.22,0-.02-.04-.06-.09-.1-.12-.11-.2-.27-.18-.4,0-.05.19-.09.37-.08h.18s-.06-.04-.06-.04c-.03-.03-.12-.09-.18-.13s-.17-.12-.22-.15c-.2-.15-.41-.31-.44-.32-.01-.01-.1-.07-.18-.13-.09-.06-.16-.11-.17-.12s-.09-.07-.19-.13-.19-.13-.21-.15c-.01-.01-.04-.11-.06-.21-.04-.26-.11-.37-.34-.61-.32-.32-.78-.64-1.27-.88-.16-.08-.32-.16-.34-.17-.02-.01-.06-.02-.08-.02-.02,0-.08-.09-.15-.24-.11-.23-.22-.42-.26-.44-.01,0-.02-.02-.02-.03,0-.02-.08-.13-.27-.35-.13-.15-.35-.35-.39-.35-.02,0-.08.04-.13.09M60.88,170c-.08.09-.19.34-.22.49-.02.08-.03.24-.02.39,0,.23.02.27.09.41.12.23.4.5.36.33-.05-.17-.06-.32-.05-.5.02-.19.02-.2.08-.2.07,0,.33.12.39.18.06.06.07.02.04-.16-.03-.17-.19-.53-.32-.72-.07-.1-.25-.3-.27-.3,0,0-.04.03-.07.07M62.24,170.11c-.07.16-.15.39-.15.46,0,.02.04.05.09.07.21.07.42.16.56.25.09.05.17.1.18.11.06.03-.33-.73-.41-.81-.02-.02-.03-.04-.03-.05,0-.02-.14-.17-.15-.17,0,0-.05.07-.09.15M62.31,172.24l-.21.02.11.05c.35.15.4.18.49.31.14.2.25.26.52.29.17.01.26.04.35.08.15.08.15.08.15.03,0-.11-.46-.67-.55-.67-.02,0-.03,0-.03-.02,0-.06-.45-.11-.83-.08"/>
      <path class="st0" d="M60.74,169.42c-.14.13-.21.23-.33.48-.22.44-.3.87-.24,1.3.03.24.11.49.17.54.02.02.03.04.03.05s.02.05.04.07c.04.05.04.05-.02.03-.14-.04-.32-.19-.45-.36-.1-.13-.19-.39-.24-.66,0-.06-.03-.09-.05-.09-.05,0-.43.19-.44.22,0,.01-.02.02-.03.02s-.05.02-.09.05c-.04.03-.15.12-.26.2-.19.15-.55.5-.67.65-.03.04-.07.09-.09.11-.02.03-.09.12-.21.32-.07.11-.17.29-.17.32,0,0,.08-.05.18-.13.35-.29.63-.44.96-.55.31-.09.32-.08.09.08-.21.14-.63.54-.77.74-.38.52-.6.98-.68,1.41-.06.32-.06.9,0,.9.01,0,.02-.02.02-.05,0-.18.28-.79.47-1.04.23-.29.63-.66.73-.66,0,0,0,.02-.02.04-.04.05-.18.29-.29.48-.21.4-.36.97-.37,1.37,0,.36.13.84.3,1.13.05.08.08.14.08.15,0,.03.32.36.44.46.11.09.28.2.42.27.14.07.37.15.39.13,0,0-.07-.09-.16-.19-.31-.33-.55-.72-.67-1.09-.09-.26-.04-.93.08-1.09.03-.04.03-.03.03.09,0,.31.14.65.39.97.08.1.15.19.16.2,0,0,.08.09.17.19.09.1.16.19.17.19.09.09.46.61.46.65,0,.01,0,.03.02.03.03.01.21.4.28.62.04.13.07.27.08.42,0,.12.02.22.03.22.05,0,.26-.32.32-.51.07-.22.09-.62.04-.85-.05-.22-.16-.46-.29-.65-.06-.08-.1-.15-.09-.15.09,0,.57.45.66.63.03.05.07.13.1.19.12.21.17.44.17.74,0,.36-.09.65-.3,1-.03.05-.06.1-.08.13-.04.07.01.05.19-.05.41-.23.87-.69,1.09-1.09.07-.13.15-.45.15-.59,0-.21-.11-.61-.18-.7-.03-.03-.03-.01-.05.09-.03.26-.18.69-.2.58-.06-.33-.13-.52-.29-.76-.19-.27-.37-.42-1.01-.82-.4-.25-.55-.36-.86-.63-.13-.12-.29-.28-.29-.31,0,0-.01-.03-.03-.05-.06-.06-.18-.28-.24-.42-.05-.13-.06-.18-.06-.47,0-.29,0-.35.07-.52.04-.11.11-.26.16-.35.09-.15.31-.4.46-.51.09-.07.39-.21.49-.23.07-.02.07-.01-.05.1-.29.28-.55.67-.63.99-.07.25-.07.77,0,.77.01,0,.02-.01.02-.02,0-.05.13-.29.23-.43.06-.08.16-.19.23-.24.07-.05.12-.1.13-.11.02-.02.34-.18.41-.2.07-.02.07-.02-.09.2-.21.31-.34.74-.32,1.08.01.17.12.56.16.6,0,0,.05.06.09.12.09.14.27.32.44.44.18.13.23.13.13,0-.14-.19-.23-.67-.17-.94.03-.15.14-.4.17-.4.01,0,.02.06.02.13,0,.38.13.63.51,1.01.15.15.35.34.44.43.47.43.68.8.74,1.29.03.28.01.52-.06.75-.03.08-.04.14-.03.14.04,0,.22-.26.31-.45.1-.21.2-.59.2-.79,0-.27-.09-.57-.25-.8-.12-.18-.24-.29-.51-.5-.33-.25-.41-.38-.29-.49.04-.04.09-.05.31-.05.24,0,.29,0,.57.1.49.16.54.17.81.17.21,0,.28,0,.36-.05.11-.05.29-.2.29-.24,0-.01-.1-.04-.22-.05-.14-.02-.32-.06-.48-.12-.45-.16-.93-.32-1.06-.35-.07-.02-.13-.04-.13-.05s.05-.03.1-.05c.12-.03.39,0,.59.08.07.02.24.09.39.14.58.21.89.25,1.13.13.12-.06.26-.18.26-.22,0-.02-.04-.06-.09-.1-.12-.11-.2-.27-.18-.4,0-.05.19-.09.37-.08h.18s-.06-.04-.06-.04c-.03-.03-.12-.09-.18-.13s-.17-.12-.22-.15c-.2-.15-.41-.31-.44-.32-.01-.01-.1-.07-.18-.13-.09-.06-.16-.11-.17-.12s-.09-.07-.19-.13-.19-.13-.21-.15c-.01-.01-.04-.11-.06-.21-.04-.26-.11-.37-.34-.61-.32-.32-.78-.64-1.27-.88-.16-.08-.32-.16-.34-.17-.02-.01-.06-.02-.08-.02-.02,0-.08-.09-.15-.24-.11-.23-.22-.42-.26-.44-.01,0-.02-.02-.02-.03,0-.02-.08-.13-.27-.35-.13-.15-.35-.35-.39-.35-.02,0-.08.04-.13.09M60.83,169.96c-.08.09-.19.34-.22.49-.02.08-.03.24-.02.39,0,.23.02.27.09.41.12.23.4.5.36.33-.05-.17-.06-.32-.05-.5.02-.19.02-.2.08-.2.07,0,.33.12.39.18.06.06.07.02.04-.16-.03-.17-.19-.53-.32-.72-.07-.1-.25-.3-.27-.3,0,0-.04.03-.07.07M62.19,170.07c-.07.16-.15.39-.15.46,0,.02.04.05.09.07.21.07.42.16.56.25.09.05.17.1.18.11.06.03-.33-.73-.41-.81-.02-.02-.03-.04-.03-.05,0-.02-.14-.17-.15-.17,0,0-.05.07-.09.15M62.26,172.19l-.21.02.11.05c.35.15.4.18.49.31.14.2.25.26.52.29.17.01.26.04.35.08.15.08.15.08.15.03,0-.11-.46-.67-.55-.67-.02,0-.03,0-.03-.02,0-.06-.45-.11-.83-.08"/>
    </g>
  </g>
  <g>
    <circle class="st11" cx="223.97" cy="185.37" r="7.87"/>
    <g>
      <path class="st5" d="M223.48,180.43c-.14.13-.21.23-.33.48-.22.44-.3.87-.24,1.3.03.24.11.49.17.54.02.02.03.04.03.05s.02.05.04.07c.04.05.04.05-.02.03-.14-.04-.32-.19-.45-.36-.1-.13-.19-.39-.24-.66,0-.06-.03-.09-.05-.09-.05,0-.43.19-.44.22,0,.01-.02.02-.03.02s-.05.02-.09.05c-.04.03-.15.12-.26.2-.19.15-.55.5-.67.65-.03.04-.07.09-.09.11-.02.03-.09.12-.21.32-.07.11-.17.29-.17.32,0,0,.08-.05.18-.13.35-.29.63-.44.96-.55.31-.09.32-.08.09.08-.21.14-.63.54-.77.74-.38.52-.6.98-.68,1.41-.06.32-.06.9,0,.9.01,0,.02-.02.02-.05,0-.18.28-.79.47-1.04.23-.29.63-.66.73-.66,0,0,0,.02-.02.04-.04.05-.18.29-.29.48-.21.4-.36.97-.37,1.37,0,.36.13.84.3,1.13.05.08.08.14.08.15,0,.03.32.36.44.46.11.09.28.2.42.27.14.07.37.15.39.13,0,0-.07-.09-.16-.19-.31-.33-.55-.72-.67-1.09-.09-.26-.04-.93.08-1.09.03-.04.03-.03.03.09,0,.31.14.65.39.97.08.1.15.19.16.2,0,0,.08.09.17.19.09.1.16.19.17.19.09.09.46.61.46.65,0,.01,0,.03.02.03.03.01.21.4.28.62.04.13.07.27.08.42,0,.12.02.22.03.22.05,0,.26-.32.32-.51.07-.22.09-.62.04-.85-.05-.22-.16-.46-.29-.65-.06-.08-.1-.15-.09-.15.09,0,.57.45.66.63.03.05.07.13.1.19.12.21.17.44.17.74,0,.36-.09.65-.3,1-.03.05-.06.1-.08.13-.04.07.01.05.19-.05.41-.23.87-.69,1.09-1.09.07-.13.15-.45.15-.59,0-.21-.11-.61-.18-.7-.03-.03-.03-.01-.05.09-.03.26-.18.69-.2.58-.06-.33-.13-.52-.29-.76-.19-.27-.37-.42-1.01-.82-.4-.25-.55-.36-.86-.63-.13-.12-.29-.28-.29-.31,0,0-.01-.03-.03-.05-.06-.06-.18-.28-.24-.42-.05-.13-.06-.18-.06-.47,0-.29,0-.35.07-.52.04-.11.11-.26.16-.35.09-.15.31-.4.46-.51.09-.07.39-.21.49-.23.07-.02.07-.01-.05.1-.29.28-.55.67-.63.99-.07.25-.07.77,0,.77.01,0,.02-.01.02-.02,0-.05.13-.29.23-.43.06-.08.16-.19.23-.24.07-.05.12-.1.13-.11.02-.02.34-.18.41-.2.07-.02.07-.02-.09.2-.21.31-.34.74-.32,1.08.01.17.12.56.16.6,0,0,.05.06.09.12.09.14.27.32.44.44.18.13.23.13.13,0-.14-.19-.23-.67-.17-.94.03-.15.14-.4.17-.4.01,0,.02.06.02.13,0,.38.13.63.51,1.01.15.15.35.34.44.43.47.43.68.8.74,1.29.03.28.01.52-.06.75-.03.08-.04.14-.03.14.04,0,.22-.26.31-.45.1-.21.2-.59.2-.79,0-.27-.09-.57-.25-.8-.12-.18-.24-.29-.51-.5-.33-.25-.41-.38-.29-.49.04-.04.09-.05.31-.05.24,0,.29,0,.57.1.49.16.54.17.81.17.21,0,.28,0,.36-.05.11-.05.29-.2.29-.24,0-.01-.1-.04-.22-.05-.14-.02-.32-.06-.48-.12-.45-.16-.93-.32-1.06-.35-.07-.02-.13-.04-.13-.05s.05-.03.1-.05c.12-.03.39,0,.59.08.07.02.24.09.39.14.58.21.89.25,1.13.13.12-.06.26-.18.26-.22,0-.02-.04-.06-.09-.1-.12-.11-.2-.27-.18-.4,0-.05.19-.09.37-.08h.18s-.06-.04-.06-.04c-.03-.03-.12-.09-.18-.13s-.17-.12-.22-.15c-.2-.15-.41-.31-.44-.32-.01-.01-.1-.07-.18-.13-.09-.06-.16-.11-.17-.12s-.09-.07-.19-.13-.19-.13-.21-.15c-.01-.01-.04-.11-.06-.21-.04-.26-.11-.37-.34-.61-.32-.32-.78-.64-1.27-.88-.16-.08-.32-.16-.34-.17-.02-.01-.06-.02-.08-.02-.02,0-.08-.09-.15-.24-.11-.23-.22-.42-.26-.44-.01,0-.02-.02-.02-.03,0-.02-.08-.13-.27-.35-.13-.15-.35-.35-.39-.35-.02,0-.08.04-.13.09M223.57,180.97c-.08.09-.19.34-.22.49-.02.08-.03.24-.02.39,0,.23.02.27.09.41.12.23.4.5.36.33-.05-.17-.06-.32-.05-.5.02-.19.02-.2.08-.2.07,0,.33.12.39.18.06.06.07.02.04-.16-.03-.17-.19-.53-.32-.72-.07-.1-.25-.3-.27-.3,0,0-.04.03-.07.07M224.93,181.08c-.07.16-.15.39-.15.46,0,.02.04.05.09.07.21.07.42.16.56.25.09.05.17.1.18.11.06.03-.33-.73-.41-.81-.02-.02-.03-.04-.03-.05,0-.02-.14-.17-.15-.17,0,0-.05.07-.09.15M225,183.2l-.21.02.11.05c.35.15.4.18.49.31.14.2.25.26.52.29.17.01.26.04.35.08.15.08.15.08.15.03,0-.11-.46-.67-.55-.67-.02,0-.03,0-.03-.02,0-.06-.45-.11-.83-.08"/>
      <path class="st0" d="M223.43,180.38c-.14.13-.21.23-.33.48-.22.44-.3.87-.24,1.3.03.24.11.49.17.54.02.02.03.04.03.05s.02.05.04.07c.04.05.04.05-.02.03-.14-.04-.32-.19-.45-.36-.1-.13-.19-.39-.24-.66,0-.06-.03-.09-.05-.09-.05,0-.43.19-.44.22,0,.01-.02.02-.03.02s-.05.02-.09.05c-.04.03-.15.12-.26.2-.19.15-.55.5-.67.65-.03.04-.07.09-.09.11-.02.03-.09.12-.21.32-.07.11-.17.29-.17.32,0,0,.08-.05.18-.13.35-.29.63-.44.96-.55.31-.09.32-.08.09.08-.21.14-.63.54-.77.74-.38.52-.6.98-.68,1.41-.06.32-.06.9,0,.9.01,0,.02-.02.02-.05,0-.18.28-.79.47-1.04.23-.29.63-.66.73-.66,0,0,0,.02-.02.04-.04.05-.18.29-.29.48-.21.4-.36.97-.37,1.37,0,.36.13.84.3,1.13.05.08.08.14.08.15,0,.03.32.36.44.46.11.09.28.2.42.27.14.07.37.15.39.13,0,0-.07-.09-.16-.19-.31-.33-.55-.72-.67-1.09-.09-.26-.04-.93.08-1.09.03-.04.03-.03.03.09,0,.31.14.65.39.97.08.1.15.19.16.2,0,0,.08.09.17.19.09.1.16.19.17.19.09.09.46.61.46.65,0,.01,0,.03.02.03.03.01.21.4.28.62.04.13.07.27.08.42,0,.12.02.22.03.22.05,0,.26-.32.32-.51.07-.22.09-.62.04-.85-.05-.22-.16-.46-.29-.65-.06-.08-.1-.15-.09-.15.09,0,.57.45.66.63.03.05.07.13.1.19.12.21.17.44.17.74,0,.36-.09.65-.3,1-.03.05-.06.1-.08.13-.04.07.01.05.19-.05.41-.23.87-.69,1.09-1.09.07-.13.15-.45.15-.59,0-.21-.11-.61-.18-.7-.03-.03-.03-.01-.05.09-.03.26-.18.69-.2.58-.06-.33-.13-.52-.29-.76-.19-.27-.37-.42-1.01-.82-.4-.25-.55-.36-.86-.63-.13-.12-.29-.28-.29-.31,0,0-.01-.03-.03-.05-.06-.06-.18-.28-.24-.42-.05-.13-.06-.18-.06-.47,0-.29,0-.35.07-.52.04-.11.11-.26.16-.35.09-.15.31-.4.46-.51.09-.07.39-.21.49-.23.07-.02.07-.01-.05.1-.29.28-.55.67-.63.99-.07.25-.07.77,0,.77.01,0,.02-.01.02-.02,0-.05.13-.29.23-.43.06-.08.16-.19.23-.24.07-.05.12-.1.13-.11.02-.02.34-.18.41-.2.07-.02.07-.02-.09.2-.21.31-.34.74-.32,1.08.01.17.12.56.16.6,0,0,.05.06.09.12.09.14.27.32.44.44.18.13.23.13.13,0-.14-.19-.23-.67-.17-.94.03-.15.14-.4.17-.4.01,0,.02.06.02.13,0,.38.13.63.51,1.01.15.15.35.34.44.43.47.43.68.8.74,1.29.03.28.01.52-.06.75-.03.08-.04.14-.03.14.04,0,.22-.26.31-.45.1-.21.2-.59.2-.79,0-.27-.09-.57-.25-.8-.12-.18-.24-.29-.51-.5-.33-.25-.41-.38-.29-.49.04-.04.09-.05.31-.05.24,0,.29,0,.57.1.49.16.54.17.81.17.21,0,.28,0,.36-.05.11-.05.29-.2.29-.24,0-.01-.1-.04-.22-.05-.14-.02-.32-.06-.48-.12-.45-.16-.93-.32-1.06-.35-.07-.02-.13-.04-.13-.05s.05-.03.1-.05c.12-.03.39,0,.59.08.07.02.24.09.39.14.58.21.89.25,1.13.13.12-.06.26-.18.26-.22,0-.02-.04-.06-.09-.1-.12-.11-.2-.27-.18-.4,0-.05.19-.09.37-.08h.18s-.06-.04-.06-.04c-.03-.03-.12-.09-.18-.13s-.17-.12-.22-.15c-.2-.15-.41-.31-.44-.32-.01-.01-.1-.07-.18-.13-.09-.06-.16-.11-.17-.12s-.09-.07-.19-.13-.19-.13-.21-.15c-.01-.01-.04-.11-.06-.21-.04-.26-.11-.37-.34-.61-.32-.32-.78-.64-1.27-.88-.16-.08-.32-.16-.34-.17-.02-.01-.06-.02-.08-.02-.02,0-.08-.09-.15-.24-.11-.23-.22-.42-.26-.44-.01,0-.02-.02-.02-.03,0-.02-.08-.13-.27-.35-.13-.15-.35-.35-.39-.35-.02,0-.08.04-.13.09M223.52,180.92c-.08.09-.19.34-.22.49-.02.08-.03.24-.02.39,0,.23.02.27.09.41.12.23.4.5.36.33-.05-.17-.06-.32-.05-.5.02-.19.02-.2.08-.2.07,0,.33.12.39.18.06.06.07.02.04-.16-.03-.17-.19-.53-.32-.72-.07-.1-.25-.3-.27-.3,0,0-.04.03-.07.07M224.88,181.03c-.07.16-.15.39-.15.46,0,.02.04.05.09.07.21.07.42.16.56.25.09.05.17.1.18.11.06.03-.33-.73-.41-.81-.02-.02-.03-.04-.03-.05,0-.02-.14-.17-.15-.17,0,0-.05.07-.09.15M224.95,183.16l-.21.02.11.05c.35.15.4.18.49.31.14.2.25.26.52.29.17.01.26.04.35.08.15.08.15.08.15.03,0-.11-.46-.67-.55-.67-.02,0-.03,0-.03-.02,0-.06-.45-.11-.83-.08"/>
    </g>
  </g>
  <g>
    <circle class="st12" cx="154.88" cy="44.9" r="7.87"/>
    <g>
      <path class="st5" d="M154.39,39.96c-.14.13-.21.23-.33.48-.22.44-.3.87-.24,1.3.03.24.11.49.17.54.02.02.03.04.03.05s.02.05.04.07c.04.05.04.05-.02.03-.14-.04-.32-.19-.45-.36-.1-.13-.19-.39-.24-.66,0-.06-.03-.09-.05-.09-.05,0-.43.19-.44.22,0,.01-.02.02-.03.02s-.05.02-.09.05c-.04.03-.15.12-.26.2-.19.15-.55.5-.67.65-.03.04-.07.09-.09.11-.02.03-.09.12-.21.32-.07.11-.17.29-.17.32,0,0,.08-.05.18-.13.35-.29.63-.44.96-.55.31-.09.32-.08.09.08-.21.14-.63.54-.77.74-.38.52-.6.98-.68,1.41-.06.32-.06.9,0,.9.01,0,.02-.02.02-.05,0-.18.28-.79.47-1.04.23-.29.63-.66.73-.66,0,0,0,.02-.02.04-.04.05-.18.29-.29.48-.21.4-.36.97-.37,1.37,0,.36.13.84.3,1.13.05.08.08.14.08.15,0,.03.32.36.44.46.11.09.28.2.42.27.14.07.37.15.39.13,0,0-.07-.09-.16-.19-.31-.33-.55-.72-.67-1.09-.09-.26-.04-.93.08-1.09.03-.04.03-.03.03.09,0,.31.14.65.39.97.08.1.15.19.16.2,0,0,.08.09.17.19.09.1.16.19.17.19.09.09.46.61.46.65,0,.01,0,.03.02.03.03.01.21.4.28.62.04.13.07.27.08.42,0,.12.02.22.03.22.05,0,.26-.32.32-.51.07-.22.09-.62.04-.85-.05-.22-.16-.46-.29-.65-.06-.08-.1-.15-.09-.15.09,0,.57.45.66.63.03.05.07.13.1.19.12.21.17.44.17.74,0,.36-.09.65-.3,1-.03.05-.06.1-.08.13-.04.07.01.05.19-.05.41-.23.87-.69,1.09-1.09.07-.13.15-.45.15-.59,0-.21-.11-.61-.18-.7-.03-.03-.03-.01-.05.09-.03.26-.18.69-.2.58-.06-.33-.13-.52-.29-.76-.19-.27-.37-.42-1.01-.82-.4-.25-.55-.36-.86-.63-.13-.12-.29-.28-.29-.31,0,0-.01-.03-.03-.05-.06-.06-.18-.28-.24-.42-.05-.13-.06-.18-.06-.47,0-.29,0-.35.07-.52.04-.11.11-.26.16-.35.09-.15.31-.4.46-.51.09-.07.39-.21.49-.23.07-.02.07-.01-.05.1-.29.28-.55.67-.63.99-.07.25-.07.77,0,.77.01,0,.02-.01.02-.02,0-.05.13-.29.23-.43.06-.08.16-.19.23-.24.07-.05.12-.1.13-.11.02-.02.34-.18.41-.2.07-.02.07-.02-.09.2-.21.31-.34.74-.32,1.08.01.17.12.56.16.6,0,0,.05.06.09.12.09.14.27.32.44.44.18.13.23.13.13,0-.14-.19-.23-.67-.17-.94.03-.15.14-.4.17-.4.01,0,.02.06.02.13,0,.38.13.63.51,1.01.15.15.35.34.44.43.47.43.68.8.74,1.29.03.28.01.52-.06.75-.03.08-.04.14-.03.14.04,0,.22-.26.31-.45.1-.21.2-.59.2-.79,0-.27-.09-.57-.25-.8-.12-.18-.24-.29-.51-.5-.33-.25-.41-.38-.29-.49.04-.04.09-.05.31-.05.24,0,.29,0,.57.1.49.16.54.17.81.17.21,0,.28,0,.36-.05.11-.05.29-.2.29-.24,0-.01-.1-.04-.22-.05-.14-.02-.32-.06-.48-.12-.45-.16-.93-.32-1.06-.35-.07-.02-.13-.04-.13-.05s.05-.03.1-.05c.12-.03.39,0,.59.08.07.02.24.09.39.14.58.21.89.25,1.13.13.12-.06.26-.18.26-.22,0-.02-.04-.06-.09-.1-.12-.11-.2-.27-.18-.4,0-.05.19-.09.37-.08h.18s-.06-.04-.06-.04c-.03-.03-.12-.09-.18-.13s-.17-.12-.22-.15c-.2-.15-.41-.31-.44-.32-.01-.01-.1-.07-.18-.13-.09-.06-.16-.11-.17-.12s-.09-.07-.19-.13-.19-.13-.21-.15c-.01-.01-.04-.11-.06-.21-.04-.26-.11-.37-.34-.61-.32-.32-.78-.64-1.27-.88-.16-.08-.32-.16-.34-.17-.02-.01-.06-.02-.08-.02-.02,0-.08-.09-.15-.24-.11-.23-.22-.42-.26-.44-.01,0-.02-.02-.02-.03,0-.02-.08-.13-.27-.35-.13-.15-.35-.35-.39-.35-.02,0-.08.04-.13.09M154.48,40.5c-.08.09-.19.34-.22.49-.02.08-.03.24-.02.39,0,.23.02.27.09.41.12.23.4.5.36.33-.05-.17-.06-.32-.05-.5.02-.19.02-.2.08-.2.07,0,.33.12.39.18.06.06.07.02.04-.16-.03-.17-.19-.53-.32-.72-.07-.1-.25-.3-.27-.3,0,0-.04.03-.07.07M155.84,40.61c-.07.16-.15.39-.15.46,0,.02.04.05.09.07.21.07.42.16.56.25.09.05.17.1.18.11.06.03-.33-.73-.41-.81-.02-.02-.03-.04-.03-.05,0-.02-.14-.17-.15-.17,0,0-.05.07-.09.15M155.91,42.73l-.21.02.11.05c.35.15.4.18.49.31.14.2.25.26.52.29.17.01.26.04.35.08.15.08.15.08.15.03,0-.11-.46-.67-.55-.67-.02,0-.03,0-.03-.02,0-.06-.45-.11-.83-.08"/>
      <path class="st0" d="M154.34,39.91c-.14.13-.21.23-.33.48-.22.44-.3.87-.24,1.3.03.24.11.49.17.54.02.02.03.04.03.05s.02.05.04.07c.04.05.04.05-.02.03-.14-.04-.32-.19-.45-.36-.1-.13-.19-.39-.24-.66,0-.06-.03-.09-.05-.09-.05,0-.43.19-.44.22,0,.01-.02.02-.03.02s-.05.02-.09.05c-.04.03-.15.12-.26.2-.19.15-.55.5-.67.65-.03.04-.07.09-.09.11-.02.03-.09.12-.21.32-.07.11-.17.29-.17.32,0,0,.08-.05.18-.13.35-.29.63-.44.96-.55.31-.09.32-.08.09.08-.21.14-.63.54-.77.74-.38.52-.6.98-.68,1.41-.06.32-.06.9,0,.9.01,0,.02-.02.02-.05,0-.18.28-.79.47-1.04.23-.29.63-.66.73-.66,0,0,0,.02-.02.04-.04.05-.18.29-.29.48-.21.4-.36.97-.37,1.37,0,.36.13.84.3,1.13.05.08.08.14.08.15,0,.03.32.36.44.46.11.09.28.2.42.27.14.07.37.15.39.13,0,0-.07-.09-.16-.19-.31-.33-.55-.72-.67-1.09-.09-.26-.04-.93.08-1.09.03-.04.03-.03.03.09,0,.31.14.65.39.97.08.1.15.19.16.2,0,0,.08.09.17.19.09.1.16.19.17.19.09.09.46.61.46.65,0,.01,0,.03.02.03.03.01.21.4.28.62.04.13.07.27.08.42,0,.12.02.22.03.22.05,0,.26-.32.32-.51.07-.22.09-.62.04-.85-.05-.22-.16-.46-.29-.65-.06-.08-.1-.15-.09-.15.09,0,.57.45.66.63.03.05.07.13.1.19.12.21.17.44.17.74,0,.36-.09.65-.3,1-.03.05-.06.1-.08.13-.04.07.01.05.19-.05.41-.23.87-.69,1.09-1.09.07-.13.15-.45.15-.59,0-.21-.11-.61-.18-.7-.03-.03-.03-.01-.05.09-.03.26-.18.69-.2.58-.06-.33-.13-.52-.29-.76-.19-.27-.37-.42-1.01-.82-.4-.25-.55-.36-.86-.63-.13-.12-.29-.28-.29-.31,0,0-.01-.03-.03-.05-.06-.06-.18-.28-.24-.42-.05-.13-.06-.18-.06-.47,0-.29,0-.35.07-.52.04-.11.11-.26.16-.35.09-.15.31-.4.46-.51.09-.07.39-.21.49-.23.07-.02.07-.01-.05.1-.29.28-.55.67-.63.99-.07.25-.07.77,0,.77.01,0,.02-.01.02-.02,0-.05.13-.29.23-.43.06-.08.16-.19.23-.24.07-.05.12-.1.13-.11.02-.02.34-.18.41-.2.07-.02.07-.02-.09.2-.21.31-.34.74-.32,1.08.01.17.12.56.16.6,0,0,.05.06.09.12.09.14.27.32.44.44.18.13.23.13.13,0-.14-.19-.23-.67-.17-.94.03-.15.14-.4.17-.4.01,0,.02.06.02.13,0,.38.13.63.51,1.01.15.15.35.34.44.43.47.43.68.8.74,1.29.03.28.01.52-.06.75-.03.08-.04.14-.03.14.04,0,.22-.26.31-.45.1-.21.2-.59.2-.79,0-.27-.09-.57-.25-.8-.12-.18-.24-.29-.51-.5-.33-.25-.41-.38-.29-.49.04-.04.09-.05.31-.05.24,0,.29,0,.57.1.49.16.54.17.81.17.21,0,.28,0,.36-.05.11-.05.29-.2.29-.24,0-.01-.1-.04-.22-.05-.14-.02-.32-.06-.48-.12-.45-.16-.93-.32-1.06-.35-.07-.02-.13-.04-.13-.05s.05-.03.1-.05c.12-.03.39,0,.59.08.07.02.24.09.39.14.58.21.89.25,1.13.13.12-.06.26-.18.26-.22,0-.02-.04-.06-.09-.1-.12-.11-.2-.27-.18-.4,0-.05.19-.09.37-.08h.18s-.06-.04-.06-.04c-.03-.03-.12-.09-.18-.13s-.17-.12-.22-.15c-.2-.15-.41-.31-.44-.32-.01-.01-.1-.07-.18-.13-.09-.06-.16-.11-.17-.12s-.09-.07-.19-.13-.19-.13-.21-.15c-.01-.01-.04-.11-.06-.21-.04-.26-.11-.37-.34-.61-.32-.32-.78-.64-1.27-.88-.16-.08-.32-.16-.34-.17-.02-.01-.06-.02-.08-.02-.02,0-.08-.09-.15-.24-.11-.23-.22-.42-.26-.44-.01,0-.02-.02-.02-.03,0-.02-.08-.13-.27-.35-.13-.15-.35-.35-.39-.35-.02,0-.08.04-.13.09M154.43,40.45c-.08.09-.19.34-.22.49-.02.08-.03.24-.02.39,0,.23.02.27.09.41.12.23.4.5.36.33-.05-.17-.06-.32-.05-.5.02-.19.02-.2.08-.2.07,0,.33.12.39.18.06.06.07.02.04-.16-.03-.17-.19-.53-.32-.72-.07-.1-.25-.3-.27-.3,0,0-.04.03-.07.07M155.79,40.56c-.07.16-.15.39-.15.46,0,.02.04.05.09.07.21.07.42.16.56.25.09.05.17.1.18.11.06.03-.33-.73-.41-.81-.02-.02-.03-.04-.03-.05,0-.02-.14-.17-.15-.17,0,0-.05.07-.09.15M155.86,42.69l-.21.02.11.05c.35.15.4.18.49.31.14.2.25.26.52.29.17.01.26.04.35.08.15.08.15.08.15.03,0-.11-.46-.67-.55-.67-.02,0-.03,0-.03-.02,0-.06-.45-.11-.83-.08"/>
    </g>
  </g>
</svg>