<?xml version="1.0" encoding="UTF-8"?>
<svg version="1.1" xmlns="http://www.w3.org/2000/svg" width="129" height="129">
<path d="M0 0 C0.93328125 0.42410156 1.8665625 0.84820313 2.828125 1.28515625 C19.25849387 9.52328813 30.61497908 22.83371424 37 40 C41.39791748 54.04008708 41.23396515 72.57015222 35 86 C34.51402344 87.08023438 34.02804688 88.16046875 33.52734375 89.2734375 C25.31296762 105.93522171 12.1243419 116.3995675 -5 123 C-19.02214847 127.4129855 -37.58181352 127.22433217 -51 121 C-51.93328125 120.57589844 -52.8665625 120.15179688 -53.828125 119.71484375 C-70.25849387 111.47671187 -81.61497908 98.16628576 -88 81 C-92.39691534 66.96311218 -92.23011604 48.43065514 -86 35 C-85.57589844 34.06671875 -85.15179688 33.1334375 -84.71484375 32.171875 C-76.47671187 15.74150613 -63.16628576 4.38502092 -46 -2 C-31.96311218 -6.39691534 -13.43065514 -6.23011604 0 0 Z " fill="#EC4B28" transform="translate(90,4)"/>
<path d="M0 0 C2.63651195 0.20530216 3.81066023 0.8297603 5.78125 2.6015625 C6.3484375 3.26929688 6.915625 3.93703125 7.5 4.625 C8.42425781 5.70974609 8.42425781 5.70974609 9.3671875 6.81640625 C11 9 11 9 12.625 12.5625 C15.0925945 17.27432914 20.02804353 18.82404557 24.5859375 21.11328125 C29.69281441 23.9355027 34.36154793 27.40528809 38 32 C38.11601562 33.42892578 38.11601562 33.42892578 38.234375 34.88671875 C39.46053638 39.8726913 43.3391454 41.57468476 47.5 44.25 C49.0752409 45.29337443 50.64827691 46.34008782 52.21875 47.390625 C53.2696582 48.0717334 53.2696582 48.0717334 54.34179688 48.76660156 C56 50 56 50 57 52 C55.35 52 53.7 52 52 52 C52.350625 52.7425 52.70125 53.485 53.0625 54.25 C54.04510094 57.13229609 54.18154896 58.24305242 53 61 C49.51071623 62.74464188 45.8155456 62.45238918 42 62 C39.62240001 61.1296639 37.41810937 60.08394104 35.15234375 58.95703125 C32.09369684 57.59701584 29.31936321 57.282499 26 57 C26 57.66 26 58.32 26 59 C27.50240234 59.18369141 27.50240234 59.18369141 29.03515625 59.37109375 C32.94537754 59.92969679 36.64766923 60.94359758 40.4375 62.0625 C41.67371094 62.42472656 42.90992187 62.78695312 44.18359375 63.16015625 C45.11300781 63.43730469 46.04242188 63.71445313 47 64 C46.505 65.98 46.505 65.98 46 68 C44.27119018 68.05449838 42.54187288 68.09301688 40.8125 68.125 C39.84957031 68.14820312 38.88664062 68.17140625 37.89453125 68.1953125 C34.83753531 67.98903747 32.80693985 67.17251918 30 66 C27.3383813 65.55450643 27.3383813 65.55450643 24.6875 65.375 C23.80449219 65.30023438 22.92148438 65.22546875 22.01171875 65.1484375 C21.01591797 65.07496094 21.01591797 65.07496094 20 65 C22.10582644 69.21165289 24.76262223 71.69283919 28.37890625 74.5703125 C30.90931048 76.80194611 31.94172162 78.50463374 32.3359375 81.85546875 C32.42092807 89.1051646 31.87346946 93.82665805 28 100 C26.8198539 97.63970781 26.99016429 96.42381822 27.125 93.8125 C27.17208519 83.98739006 21.1643344 78.41990727 14.8359375 71.703125 C8.11089797 64.41562762 8.11089797 64.41562762 7 59 C6.97284617 60.74991334 6.95353449 62.49994945 6.9375 64.25 C6.92589844 65.22453125 6.91429687 66.1990625 6.90234375 67.203125 C6.98804423 69.65758678 7.29293934 71.66168914 8 74 C-1.54498794 66.3901603 -1.54498794 66.3901603 -2.27734375 60.93359375 C-2.56308223 54.17873614 -0.74894862 49.62342293 3 44 C-1.63720719 47.27530896 -5.68542782 50.30435607 -9 55 C-9.4737352 48.34138861 -9.35188114 44.40688263 -5 39 C-4.67 38.01 -4.34 37.02 -4 36 C-5.13199353 36.9080162 -6.25532363 37.82683826 -7.375 38.75 C-8.00148438 39.26046875 -8.62796875 39.7709375 -9.2734375 40.296875 C-12.98498986 43.9580443 -13.31534492 47.25659393 -13.375 52.375 C-13.23167911 59.14125468 -11.90573186 62.09426814 -7.1171875 66.8828125 C-3.12108327 70.64974946 0.99613463 73.71188834 5.6875 76.5625 C11.84184167 80.33785246 15.91346575 84.47134 19 91 C19.33 89.35 19.66 87.7 20 86 C20.66 86 21.32 86 22 86 C24.00503077 90.01006154 23.63935433 94.90476652 22.3515625 99.125 C19.3725687 105.64314028 14.05691753 111.18638526 8 115 C7.34 115 6.68 115 6 115 C6.309375 114.236875 6.61875 113.47375 6.9375 112.6875 C9.46286995 106.29979954 10.6516379 98.56125908 8.24609375 91.91796875 C6.36320022 89.00132975 3.90119346 86.86505294 1 85 C1.66 85.78375 2.32 86.5675 3 87.375 C5.83545862 91.65856784 5.81300029 96.03600786 5 101 C3.90893117 103.64772306 2.64948321 105.62886788 1 108 C0.67 108 0.34 108 0 108 C-0.185625 106.7625 -0.37125 105.525 -0.5625 104.25 C-2.72189482 94.64597829 -8.67527771 87.01827162 -15.26953125 79.96484375 C-18.44401338 76.36040919 -19.91346845 72.5908405 -21 68 C-21.84454474 77.8717896 -19.53474456 84.22331816 -13.6875 92.125 C-13.130625 92.74375 -12.57375 93.3625 -12 94 C-17.40990843 93.66188072 -21.11502817 90.50217587 -25 87 C-31.20636995 78.99704927 -31.73567396 71.90414788 -31 62 C-29.97857513 57.3212151 -28.17056561 53.24675881 -26 49 C-31.42564948 53.73982301 -34.52890551 58.23134988 -37 65 C-37.33 65 -37.66 65 -38 65 C-38.83884651 54.04839278 -35.67033907 46.34467472 -28.75 37.91796875 C-26.68734911 35.65734021 -24.51077564 33.74993454 -22 32 C-27.26170694 33.41167747 -30.72171358 35.74850232 -35 39 C-33.21879052 29.76637387 -24.45511881 23.24008641 -17.25 18 C-15 17 -15 17 -12.95703125 17.19140625 C-11 18 -11 18 -10.05859375 19.77734375 C-9.85363281 20.49019531 -9.64867188 21.20304687 -9.4375 21.9375 C-8.41322562 25.44293593 -8.25496907 25.83002062 -5 28 C-5.32097656 27.28199219 -5.64195313 26.56398438 -5.97265625 25.82421875 C-7.97672664 20.31493018 -7.96890376 14.64377458 -5.94921875 9.1328125 C-4.25533155 5.68507748 -2.7266547 2.7266547 0 0 Z " fill="#FCF8F7" transform="translate(57,6)"/>
<path d="M0 0 C3.21079428 1.03204102 4.59940291 2.58748662 6.3125 5.375 C8 9 8 9 7.75 11.4375 C7.5025 11.953125 7.255 12.46875 7 13 C4.525 12.01 4.525 12.01 2 11 C2 13.64 2 16.28 2 19 C0 17.5 0 17.5 -2 15 C-2.54282269 9.48130264 -1.74133175 5.22399526 0 0 Z " fill="#F15937" transform="translate(58,13)"/>
<path d="M0 0 C9.35993554 -1.06632177 9.35993554 -1.06632177 13.2890625 1.48828125 C15.06099118 3.2492721 16.61962242 4.91765566 18 7 C18 7.66 18 8.32 18 9 C7.53094803 7.48158788 7.53094803 7.48158788 4 3 C2.68270086 1.97897074 1.35113205 0.97581759 0 0 Z " fill="#E6624B" transform="translate(73,39)"/>
<path d="M0 0 C3.2441189 1.04275251 4.60194664 2.61240491 6.3125 5.4375 C8 9 8 9 7 12 C4.36 10.68 1.72 9.36 -1 8 C-1.125 2.25 -1.125 2.25 0 0 Z " fill="#F6E7E4" transform="translate(74,13)"/>
<path d="M0 0 C4.50241857 -0.38318456 7.20933358 -0.06765633 11.25 2 C16.4722243 4.56150553 21.29187807 4.38409792 27 4 C27 4.66 27 5.32 27 6 C17.05876202 8.12725643 9.25713763 5.3567287 0 2 C0 1.34 0 0.68 0 0 Z " fill="#DB6E58" transform="translate(83,63)"/>
<path d="M0 0 C0 3.19610552 -0.54671542 4.41717626 -2 7.1875 C-2.37125 7.90292969 -2.7425 8.61835937 -3.125 9.35546875 C-3.41375 9.89816406 -3.7025 10.44085938 -4 11 C-5.32 10.67 -6.64 10.34 -8 10 C-8 10.99 -8 11.98 -8 13 C-8.66 13 -9.32 13 -10 13 C-8.65515286 8.95838045 -6.9494838 6.61321846 -3.875 3.6875 C-3.15054687 2.99011719 -2.42609375 2.29273438 -1.6796875 1.57421875 C-1.12539063 1.05472656 -0.57109375 0.53523438 0 0 Z " fill="#D6745E" transform="translate(32,53)"/>
<path d="M0 0 C0.33 1.32 0.66 2.64 1 4 C2.6396875 4.4640625 2.6396875 4.4640625 4.3125 4.9375 C6.55407994 5.58337897 8.7869351 6.2623117 11 7 C10.67 7.99 10.34 8.98 10 10 C5.94718288 8.77472971 2.55639236 7.30119506 -1 5 C-0.67 3.35 -0.34 1.7 0 0 Z " fill="#EE6A4F" transform="translate(72,17)"/>
<path d="M0 0 C0.66 0.33 1.32 0.66 2 1 C-2.11378556 7.70459519 -2.11378556 7.70459519 -5.8125 8.9375 C-6.8953125 8.9684375 -6.8953125 8.9684375 -8 9 C-6.4169423 4.7257442 -3.49431596 2.73468206 0 0 Z " fill="#D76E57" transform="translate(53,41)"/>
<path d="M0 0 C-1.91712851 4.10813253 -4.27025142 6.43579785 -8 9 C-8.66 9 -9.32 9 -10 9 C-8.5124715 4.98367305 -4.56813239 0 0 0 Z " fill="#D17260" transform="translate(60,50)"/>
<path d="M0 0 C0.99 0.495 0.99 0.495 2 1 C2.40729228 3.32156597 2.74438677 5.6568787 3 8 C2.34 8 1.68 8 1 8 C0.67 9.32 0.34 10.64 0 12 C0 8.04 0 4.08 0 0 Z " fill="#DF6F59" transform="translate(35,73)"/>
<path d="M0 0 C2.31 0 4.62 0 7 0 C7 0.99 7 1.98 7 3 C4.69 2.67 2.38 2.34 0 2 C0 1.34 0 0.68 0 0 Z " fill="#D99184" transform="translate(83,63)"/>
</svg>
