<?xml version="1.0" encoding="utf-8"?>
<!-- Generator: Adobe Illustrator 24.3.0, SVG Export Plug-In . SVG Version: 6.00 Build 0)  -->
<svg version="1.1" id="Layer_1" xmlns="http://www.w3.org/2000/svg" xmlns:xlink="http://www.w3.org/1999/xlink" x="0px" y="0px"
	 viewBox="0 0 128 35" style="enable-background:new 0 0 128 35;" xml:space="preserve">
<style type="text/css">
	.st0{fill:#E3E3E8;}
	.st1{fill:url(#SVGID_1_);}
	.st2{fill-rule:evenodd;clip-rule:evenodd;fill:#808080;}
	.st3{fill-rule:evenodd;clip-rule:evenodd;fill:#FFFFFF;}
</style>
<g id="Layer_1_1_">
</g>
<path class="st0" d="M39.8,14c0.4-0.7,1-1.3,1.7-1.7c0.7-0.4,1.4-0.6,2.3-0.6v3.5H43c-1.1,0-1.9,0.3-2.4,0.8
	c-0.5,0.5-0.8,1.3-0.8,2.6v6.7h-3.3V11.9h3.3V14z M57.5,18.3c0,0.5,0,0.9-0.1,1.3h-9.6c0.1,1,0.4,1.8,1,2.3c0.6,0.5,1.3,0.8,2.1,0.8
	c1.3,0,2.2-0.5,2.7-1.6h3.6c-0.4,1.3-1.1,2.3-2.2,3.2c-1.1,0.8-2.4,1.2-4,1.2c-1.3,0-2.4-0.3-3.4-0.8c-1-0.6-1.8-1.4-2.4-2.5
	c-0.5-1-0.8-2.2-0.8-3.6s0.3-2.6,0.8-3.6c0.6-1.1,1.4-1.9,2.4-2.5c1-0.5,2.1-0.8,3.4-0.8s2.4,0.3,3.4,0.8c1,0.5,1.8,1.3,2.3,2.4
	C57.2,15.9,57.5,17,57.5,18.3z M54.1,17.3c-0.1-0.9-0.4-1.5-1-2c-0.6-0.5-1.3-0.8-2.2-0.8c-0.8,0-1.5,0.2-2.1,0.7
	c-0.5,0.5-0.9,1.2-1,2.1H54.1z M77.4,11.9l-3.8,13.4H70l-2.4-9.4l-2.4,9.4h-3.6l-3.9-13.4h3.4l2.3,10.2l2.5-10.2h3.5l2.5,10.2
	l2.3-10.2L77.4,11.9z M77.6,18.6c0-1.4,0.2-2.6,0.7-3.6c0.6-1.1,1.3-1.9,2.2-2.5c0.9-0.5,2-0.8,3.1-0.8c1,0,1.9,0.2,2.6,0.6
	c0.7,0.4,1.3,0.9,1.7,1.5v-1.9h3.4v13.4h-3.4v-2c-0.4,0.7-1,1.2-1.7,1.6c-0.8,0.4-1.7,0.6-2.6,0.6c-1.1,0-2.2-0.3-3.1-0.9
	c-0.9-0.5-1.6-1.3-2.2-2.4C77.8,21.1,77.6,19.9,77.6,18.6z M87.9,18.6c0-0.8-0.1-1.5-0.4-2.1c-0.3-0.6-0.8-1.1-1.3-1.4
	c-0.5-0.3-1.1-0.4-1.8-0.4c-0.6,0-1.2,0.1-1.7,0.4c-0.5,0.3-1,0.8-1.3,1.4C81.1,17,81,17.7,81,18.6c0,0.8,0.1,1.5,0.4,2.1
	c0.3,0.6,0.8,1.1,1.3,1.4c0.5,0.3,1.1,0.4,1.7,0.4c0.7,0,1.3-0.1,1.8-0.4c0.5-0.3,1-0.8,1.3-1.4C87.8,20.1,87.9,19.4,87.9,18.6z
	 M97,14c0.5-0.7,1-1.3,1.7-1.7c0.7-0.4,1.5-0.6,2.4-0.6v3.6h-0.9c-1.1,0-1.9,0.2-2.4,0.7c-0.5,0.5-0.8,1.4-0.8,2.6v6.7h-3.3V11.9H97
	L97,14z M101.7,18.6c0-1.4,0.2-2.6,0.7-3.6c0.5-1.1,1.3-1.9,2.2-2.4c0.9-0.6,2-0.9,3.1-0.9c0.9,0,1.7,0.2,2.5,0.6
	c0.7,0.3,1.3,0.8,1.8,1.5V7.4h3.4v17.9H112v-2c-0.4,0.7-1,1.2-1.7,1.6c-0.7,0.4-1.6,0.6-2.6,0.6c-1.1,0-2.2-0.3-3.1-0.8
	c-0.9-0.6-1.7-1.4-2.2-2.5C101.9,21.1,101.7,19.9,101.7,18.6z M112,18.6c0-0.8-0.1-1.5-0.4-2.1c-0.3-0.6-0.8-1-1.3-1.3
	c-0.5-0.3-1.1-0.5-1.8-0.5c-0.6,0-1.2,0.1-1.7,0.4c-0.5,0.3-1,0.8-1.3,1.4c-0.3,0.6-0.4,1.3-0.4,2.1s0.1,1.5,0.4,2.1
	c0.3,0.6,0.8,1.1,1.3,1.4s1.1,0.5,1.7,0.5c0.7,0,1.3-0.2,1.8-0.5s1-0.8,1.3-1.3C111.9,20.2,112,19.5,112,18.6z M122.9,25.5
	c-1.1,0-2.1-0.2-2.9-0.5c-0.9-0.4-1.6-1-2.1-1.7c-0.5-0.7-0.7-1.4-0.8-2.2h3.4c0,0.5,0.2,1,0.7,1.3c0.5,0.3,1,0.5,1.6,0.5
	c0.7,0,1.2-0.1,1.5-0.4c0.4-0.3,0.6-0.6,0.6-1c0-0.5-0.2-0.8-0.7-1c-0.5-0.2-1.2-0.4-2.1-0.7c-1-0.3-1.8-0.5-2.4-0.7
	c-0.6-0.3-1.1-0.7-1.6-1.2c-0.5-0.5-0.7-1.3-0.7-2.2c0-0.7,0.2-1.4,0.6-2c0.5-0.6,1.1-1.1,1.8-1.5c0.8-0.3,1.7-0.5,2.8-0.5
	c1.6,0,2.9,0.4,3.8,1.2s1.4,1.9,1.5,3.2h-3.2c0-0.5-0.2-0.9-0.6-1.2c-0.4-0.3-0.9-0.5-1.6-0.5c-0.6,0-1.1,0.1-1.4,0.3
	c-0.3,0.3-0.5,0.6-0.5,1c0,0.4,0.2,0.7,0.7,1c0.5,0.3,1.2,0.5,2.1,0.7c0.9,0.3,1.7,0.5,2.3,0.8c0.7,0.3,1.2,0.7,1.6,1.2
	c0.5,0.5,0.7,1.2,0.7,2.1c0,0.8-0.2,1.5-0.6,2.1c-0.4,0.6-1,1.1-1.8,1.4C124.8,25.3,123.9,25.5,122.9,25.5z"/>
<g>
	<linearGradient id="SVGID_1_" gradientUnits="userSpaceOnUse" x1="4.9883" y1="9.055" x2="31.8411" y2="27.1687">
		<stop  offset="9.772402e-02" style="stop-color:#FF5124"/>
		<stop  offset="0.5631" style="stop-color:#EA492F"/>
		<stop  offset="1" style="stop-color:#DB3805"/>
	</linearGradient>
	<circle class="st1" cx="17.7" cy="17.6" r="13.8"/>
	<g>
		<path class="st2" d="M16.3,5.4c-0.3,0.3-0.5,0.6-0.8,1.2c-0.6,1.1-0.8,2.2-0.6,3.3c0.1,0.6,0.3,1.2,0.4,1.4c0,0,0.1,0.1,0.1,0.1
			c0,0,0,0.1,0.1,0.2c0.1,0.1,0.1,0.1,0,0.1c-0.4-0.1-0.8-0.5-1.1-0.9c-0.3-0.3-0.5-1-0.6-1.6c0-0.1-0.1-0.2-0.1-0.2
			c-0.1,0-1.1,0.5-1.1,0.6c0,0,0,0.1-0.1,0.1s-0.1,0.1-0.2,0.1C12,9.6,11.7,9.8,11.5,10c-0.5,0.4-1.4,1.2-1.7,1.6
			c-0.1,0.1-0.2,0.2-0.2,0.3C9.5,12,9.3,12.2,9,12.7c-0.2,0.3-0.4,0.7-0.4,0.8c0,0,0.2-0.1,0.5-0.3c0.9-0.7,1.6-1.1,2.4-1.4
			c0.8-0.2,0.8-0.2,0.2,0.2c-0.5,0.4-1.6,1.4-1.9,1.8c-1,1.3-1.5,2.4-1.7,3.5c-0.1,0.8-0.1,2.3,0,2.3c0,0,0.1-0.1,0.1-0.1
			c0-0.4,0.7-2,1.2-2.6c0.6-0.7,1.6-1.7,1.8-1.7c0,0,0,0,0,0.1c-0.1,0.1-0.5,0.7-0.7,1.2c-0.5,1-0.9,2.4-0.9,3.4
			c0,0.9,0.3,2.1,0.8,2.8c0.1,0.2,0.2,0.4,0.2,0.4c0,0.1,0.8,0.9,1.1,1.2c0.3,0.2,0.7,0.5,1.1,0.7c0.4,0.2,0.9,0.4,1,0.3
			c0,0-0.2-0.2-0.4-0.5c-0.8-0.8-1.4-1.8-1.7-2.7c-0.2-0.7-0.1-2.3,0.2-2.7c0.1-0.1,0.1-0.1,0.1,0.2c0,0.8,0.4,1.6,1,2.4
			c0.2,0.3,0.4,0.5,0.4,0.5c0,0,0.2,0.2,0.4,0.5c0.2,0.3,0.4,0.5,0.4,0.5c0.2,0.2,1.2,1.5,1.2,1.6c0,0,0,0.1,0.1,0.1
			c0.1,0,0.5,1,0.7,1.5c0.1,0.3,0.2,0.7,0.2,1.1c0,0.3,0,0.6,0.1,0.6c0.1,0,0.6-0.8,0.8-1.3c0.2-0.5,0.2-1.6,0.1-2.1
			c-0.1-0.5-0.4-1.1-0.7-1.6c-0.1-0.2-0.2-0.4-0.2-0.4c0.2,0,1.4,1.1,1.7,1.6c0.1,0.1,0.2,0.3,0.3,0.5c0.3,0.5,0.4,1.1,0.4,1.9
			c0,0.9-0.2,1.6-0.7,2.5c-0.1,0.1-0.2,0.3-0.2,0.3c-0.1,0.2,0,0.1,0.5-0.1c1-0.6,2.2-1.7,2.7-2.7c0.2-0.3,0.4-1.1,0.4-1.5
			c0-0.5-0.3-1.5-0.5-1.8c-0.1-0.1-0.1,0-0.1,0.2c-0.1,0.7-0.5,1.7-0.5,1.5c-0.1-0.8-0.3-1.3-0.7-1.9c-0.5-0.7-0.9-1.1-2.5-2.1
			c-1-0.6-1.4-0.9-2.2-1.6c-0.3-0.3-0.7-0.7-0.7-0.8c0,0,0-0.1-0.1-0.1c-0.1-0.2-0.5-0.7-0.6-1.1c-0.1-0.3-0.1-0.5-0.1-1.2
			c0-0.7,0-0.9,0.2-1.3c0.1-0.3,0.3-0.7,0.4-0.9c0.2-0.4,0.8-1,1.1-1.3c0.2-0.2,1-0.5,1.2-0.6c0.2,0,0.2,0-0.1,0.3
			c-0.7,0.7-1.4,1.7-1.6,2.5c-0.2,0.6-0.2,1.9,0,1.9c0,0,0.1,0,0.1-0.1c0-0.1,0.3-0.7,0.6-1.1c0.1-0.2,0.4-0.5,0.6-0.6
			c0.2-0.1,0.3-0.3,0.3-0.3c0-0.1,0.9-0.5,1-0.5c0.2,0,0.2-0.1-0.2,0.5c-0.5,0.8-0.8,1.9-0.8,2.7c0,0.4,0.3,1.4,0.4,1.5
			c0,0,0.1,0.2,0.2,0.3c0.2,0.3,0.7,0.8,1.1,1.1c0.4,0.3,0.6,0.3,0.3,0c-0.3-0.5-0.6-1.7-0.4-2.4c0.1-0.4,0.3-1,0.4-1
			c0,0,0.1,0.1,0.1,0.3c0,0.9,0.3,1.6,1.3,2.5c0.4,0.4,0.9,0.9,1.1,1.1c1.2,1.1,1.7,2,1.9,3.2c0.1,0.7,0,1.3-0.1,1.9
			c-0.1,0.2-0.1,0.4-0.1,0.4c0.1,0,0.5-0.6,0.8-1.1c0.3-0.5,0.5-1.5,0.5-2c0-0.7-0.2-1.4-0.6-2c-0.3-0.5-0.6-0.7-1.3-1.3
			c-0.8-0.6-1-0.9-0.7-1.2c0.1-0.1,0.2-0.1,0.8-0.1c0.6,0,0.7,0,1.4,0.3c1.2,0.4,1.4,0.4,2,0.4c0.5,0,0.7,0,0.9-0.1
			c0.3-0.1,0.7-0.5,0.7-0.6c0,0-0.3-0.1-0.6-0.1c-0.3,0-0.8-0.2-1.2-0.3c-1.1-0.4-2.3-0.8-2.7-0.9c-0.2,0-0.3-0.1-0.3-0.1
			c0,0,0.1-0.1,0.3-0.1c0.3-0.1,1,0,1.5,0.2c0.2,0.1,0.6,0.2,1,0.4c1.5,0.5,2.2,0.6,2.8,0.3c0.3-0.1,0.7-0.4,0.7-0.6
			c0,0-0.1-0.2-0.2-0.3c-0.3-0.3-0.5-0.7-0.5-1c0-0.1,0.5-0.2,0.9-0.2l0.5,0l-0.2-0.1c-0.1-0.1-0.3-0.2-0.5-0.3
			c-0.2-0.1-0.4-0.3-0.5-0.4c-0.5-0.4-1-0.8-1.1-0.8c0,0-0.2-0.2-0.5-0.3c-0.2-0.1-0.4-0.3-0.4-0.3c0,0-0.2-0.2-0.5-0.3
			c-0.3-0.2-0.5-0.3-0.5-0.4c0,0-0.1-0.3-0.1-0.5c-0.1-0.7-0.3-0.9-0.9-1.5c-0.8-0.8-2-1.6-3.2-2.2c-0.4-0.2-0.8-0.4-0.8-0.4
			c-0.1,0-0.1-0.1-0.2-0.1c-0.1,0-0.2-0.2-0.4-0.6C18.7,7.5,18.4,7,18.3,7c0,0,0,0,0-0.1c0-0.1-0.2-0.3-0.7-0.9
			c-0.3-0.4-0.9-0.9-1-0.9C16.5,5.1,16.4,5.2,16.3,5.4 M16.5,6.7c-0.2,0.2-0.5,0.8-0.6,1.2c0,0.2-0.1,0.6,0,1c0,0.6,0,0.7,0.2,1
			c0.3,0.6,1,1.3,0.9,0.8c-0.1-0.4-0.2-0.8-0.1-1.2c0-0.5,0-0.5,0.2-0.5c0.2,0,0.8,0.3,1,0.5c0.2,0.2,0.2,0,0.1-0.4
			c-0.1-0.4-0.5-1.3-0.8-1.8c-0.2-0.3-0.6-0.7-0.7-0.7C16.6,6.5,16.6,6.6,16.5,6.7 M19.9,7c-0.2,0.4-0.4,1-0.4,1.1
			c0,0.1,0.1,0.1,0.2,0.2c0.5,0.2,1,0.4,1.4,0.6c0.2,0.1,0.4,0.3,0.4,0.3c0.1,0.1-0.8-1.8-1-2c0,0-0.1-0.1-0.1-0.1
			c0-0.1-0.3-0.4-0.4-0.4C20.1,6.6,20,6.8,19.9,7 M20.1,12.3l-0.5,0l0.3,0.1c0.9,0.4,1,0.4,1.2,0.8c0.3,0.5,0.6,0.7,1.3,0.7
			c0.4,0,0.6,0.1,0.9,0.2c0.4,0.2,0.4,0.2,0.4,0.1c0-0.3-1.2-1.7-1.4-1.7c0,0-0.1,0-0.1-0.1C22.1,12.4,21,12.2,20.1,12.3"/>
		<path class="st3" d="M16.1,5.2c-0.3,0.3-0.5,0.6-0.8,1.2c-0.6,1.1-0.8,2.2-0.6,3.3c0.1,0.6,0.3,1.2,0.4,1.4c0,0,0.1,0.1,0.1,0.1
			c0,0,0,0.1,0.1,0.2c0.1,0.1,0.1,0.1,0,0.1c-0.4-0.1-0.8-0.5-1.1-0.9c-0.3-0.3-0.5-1-0.6-1.6c0-0.1-0.1-0.2-0.1-0.2
			c-0.1,0-1.1,0.5-1.1,0.6c0,0,0,0.1-0.1,0.1c0,0-0.1,0.1-0.2,0.1c-0.1,0.1-0.4,0.3-0.6,0.5c-0.5,0.4-1.4,1.2-1.7,1.6
			c-0.1,0.1-0.2,0.2-0.2,0.3c-0.1,0.1-0.2,0.3-0.5,0.8c-0.2,0.3-0.4,0.7-0.4,0.8c0,0,0.2-0.1,0.5-0.3c0.9-0.7,1.6-1.1,2.4-1.4
			c0.8-0.2,0.8-0.2,0.2,0.2c-0.5,0.4-1.6,1.4-1.9,1.8c-1,1.3-1.5,2.4-1.7,3.5c-0.1,0.8-0.1,2.3,0,2.3c0,0,0.1-0.1,0.1-0.1
			c0-0.4,0.7-2,1.2-2.6c0.6-0.7,1.6-1.7,1.8-1.7c0,0,0,0,0,0.1c-0.1,0.1-0.5,0.7-0.7,1.2c-0.5,1-0.9,2.4-0.9,3.4
			c0,0.9,0.3,2.1,0.8,2.8c0.1,0.2,0.2,0.4,0.2,0.4c0,0.1,0.8,0.9,1.1,1.2c0.3,0.2,0.7,0.5,1.1,0.7c0.4,0.2,0.9,0.4,1,0.3
			c0,0-0.2-0.2-0.4-0.5c-0.8-0.8-1.4-1.8-1.7-2.7c-0.2-0.7-0.1-2.3,0.2-2.7c0.1-0.1,0.1-0.1,0.1,0.2c0,0.8,0.4,1.6,1,2.4
			c0.2,0.3,0.4,0.5,0.4,0.5c0,0,0.2,0.2,0.4,0.5c0.2,0.3,0.4,0.5,0.4,0.5c0.2,0.2,1.2,1.5,1.2,1.6c0,0,0,0.1,0.1,0.1
			c0.1,0,0.5,1,0.7,1.5c0.1,0.3,0.2,0.7,0.2,1.1c0,0.3,0,0.6,0.1,0.6c0.1,0,0.6-0.8,0.8-1.3c0.2-0.5,0.2-1.6,0.1-2.1
			c-0.1-0.5-0.4-1.1-0.7-1.6C16.1,23,16,22.9,16,22.9c0.2,0,1.4,1.1,1.7,1.6c0.1,0.1,0.2,0.3,0.3,0.5c0.3,0.5,0.4,1.1,0.4,1.9
			c0,0.9-0.2,1.6-0.7,2.5c-0.1,0.1-0.2,0.3-0.2,0.3c-0.1,0.2,0,0.1,0.5-0.1c1-0.6,2.2-1.7,2.7-2.7c0.2-0.3,0.4-1.1,0.4-1.5
			c0-0.5-0.3-1.5-0.5-1.8c-0.1-0.1-0.1,0-0.1,0.2c-0.1,0.7-0.5,1.7-0.5,1.5c-0.1-0.8-0.3-1.3-0.7-1.9c-0.5-0.7-0.9-1.1-2.5-2.1
			c-1-0.6-1.4-0.9-2.2-1.6c-0.3-0.3-0.7-0.7-0.7-0.8c0,0,0-0.1-0.1-0.1c-0.1-0.2-0.5-0.7-0.6-1.1C13,17.3,13,17.2,13,16.5
			c0-0.7,0-0.9,0.2-1.3c0.1-0.3,0.3-0.7,0.4-0.9c0.2-0.4,0.8-1,1.1-1.3c0.2-0.2,1-0.5,1.2-0.6c0.2,0,0.2,0-0.1,0.3
			c-0.7,0.7-1.4,1.7-1.6,2.5c-0.2,0.6-0.2,1.9,0,1.9c0,0,0.1,0,0.1-0.1c0-0.1,0.3-0.7,0.6-1.1c0.1-0.2,0.4-0.5,0.6-0.6
			c0.2-0.1,0.3-0.3,0.3-0.3c0-0.1,0.9-0.5,1-0.5c0.2,0,0.2-0.1-0.2,0.5c-0.5,0.8-0.8,1.9-0.8,2.7c0,0.4,0.3,1.4,0.4,1.5
			c0,0,0.1,0.2,0.2,0.3c0.2,0.3,0.7,0.8,1.1,1.1c0.4,0.3,0.6,0.3,0.3,0c-0.3-0.5-0.6-1.7-0.4-2.4c0.1-0.4,0.3-1,0.4-1
			c0,0,0.1,0.1,0.1,0.3c0,0.9,0.3,1.6,1.3,2.5c0.4,0.4,0.9,0.9,1.1,1.1c1.2,1.1,1.7,2,1.9,3.2c0.1,0.7,0,1.3-0.1,1.9
			c-0.1,0.2-0.1,0.4-0.1,0.4c0.1,0,0.5-0.6,0.8-1.1c0.3-0.5,0.5-1.5,0.5-2c0-0.7-0.2-1.4-0.6-2c-0.3-0.5-0.6-0.7-1.3-1.3
			c-0.8-0.6-1-0.9-0.7-1.2c0.1-0.1,0.2-0.1,0.8-0.1c0.6,0,0.7,0,1.4,0.3c1.2,0.4,1.4,0.4,2,0.4c0.5,0,0.7,0,0.9-0.1
			c0.3-0.1,0.7-0.5,0.7-0.6c0,0-0.3-0.1-0.6-0.1c-0.3,0-0.8-0.2-1.2-0.3c-1.1-0.4-2.3-0.8-2.7-0.9c-0.2,0-0.3-0.1-0.3-0.1
			c0,0,0.1-0.1,0.3-0.1c0.3-0.1,1,0,1.5,0.2c0.2,0.1,0.6,0.2,1,0.4c1.5,0.5,2.2,0.6,2.8,0.3c0.3-0.1,0.7-0.4,0.7-0.6
			c0,0-0.1-0.2-0.2-0.3c-0.3-0.3-0.5-0.7-0.5-1c0-0.1,0.5-0.2,0.9-0.2l0.5,0l-0.2-0.1c-0.1-0.1-0.3-0.2-0.5-0.3
			c-0.2-0.1-0.4-0.3-0.5-0.4c-0.5-0.4-1-0.8-1.1-0.8c0,0-0.2-0.2-0.5-0.3c-0.2-0.1-0.4-0.3-0.4-0.3c0,0-0.2-0.2-0.5-0.3
			s-0.5-0.3-0.5-0.4c0,0-0.1-0.3-0.1-0.5c-0.1-0.7-0.3-0.9-0.9-1.5c-0.8-0.8-2-1.6-3.2-2.2c-0.4-0.2-0.8-0.4-0.8-0.4
			c-0.1,0-0.1-0.1-0.2-0.1c-0.1,0-0.2-0.2-0.4-0.6c-0.3-0.6-0.6-1.1-0.7-1.1c0,0,0,0,0-0.1c0-0.1-0.2-0.3-0.7-0.9
			c-0.3-0.4-0.9-0.9-1-0.9C16.4,5,16.3,5.1,16.1,5.2 M16.4,6.6c-0.2,0.2-0.5,0.8-0.6,1.2c0,0.2-0.1,0.6,0,1c0,0.6,0,0.7,0.2,1
			c0.3,0.6,1,1.3,0.9,0.8c-0.1-0.4-0.2-0.8-0.1-1.2c0-0.5,0-0.5,0.2-0.5c0.2,0,0.8,0.3,1,0.5c0.2,0.2,0.2,0,0.1-0.4
			c-0.1-0.4-0.5-1.3-0.8-1.8c-0.2-0.3-0.6-0.7-0.7-0.7C16.5,6.4,16.4,6.5,16.4,6.6 M19.8,6.9c-0.2,0.4-0.4,1-0.4,1.1
			c0,0.1,0.1,0.1,0.2,0.2c0.5,0.2,1,0.4,1.4,0.6c0.2,0.1,0.4,0.3,0.4,0.3c0.1,0.1-0.8-1.8-1-2c0,0-0.1-0.1-0.1-0.1
			c0-0.1-0.3-0.4-0.4-0.4C20,6.5,19.9,6.6,19.8,6.9 M20,12.2l-0.5,0l0.3,0.1c0.9,0.4,1,0.4,1.2,0.8c0.3,0.5,0.6,0.7,1.3,0.7
			c0.4,0,0.6,0.1,0.9,0.2c0.4,0.2,0.4,0.2,0.4,0.1c0-0.3-1.2-1.7-1.4-1.7c0,0-0.1,0-0.1-0.1C22,12.2,20.9,12.1,20,12.2"/>
	</g>
</g>
</svg>
