<?xml version="1.0" encoding="utf-8"?>
<!-- Generator: Adobe Illustrator 24.3.0, SVG Export Plug-In . SVG Version: 6.00 Build 0)  -->
<svg version="1.1" id="Layer_1" xmlns="http://www.w3.org/2000/svg" xmlns:xlink="http://www.w3.org/1999/xlink" x="0px" y="0px"
	 viewBox="0 0 128 35" style="enable-background:new 0 0 128 35;" xml:space="preserve">
<style type="text/css">
	.st0{fill:#1B1B1F;}
	.st1{fill:url(#SVGID_1_);}
	.st2{fill-rule:evenodd;clip-rule:evenodd;fill:#808080;}
	.st3{fill-rule:evenodd;clip-rule:evenodd;fill:#FFFFFF;}
</style>
<path class="st0" d="M39.8,14c0.4-0.7,1-1.3,1.7-1.7c0.7-0.4,1.4-0.6,2.3-0.6v3.5H43c-1.1,0-1.9,0.3-2.4,0.8
	c-0.5,0.5-0.8,1.3-0.8,2.6v6.7h-3.3V11.9h3.3V14z M57.5,18.3c0,0.5,0,0.9-0.1,1.3h-9.6c0.1,1,0.4,1.8,1,2.3c0.6,0.5,1.3,0.8,2.1,0.8
	c1.3,0,2.2-0.5,2.7-1.6h3.6c-0.4,1.3-1.1,2.3-2.2,3.2c-1.1,0.8-2.4,1.2-4,1.2c-1.3,0-2.4-0.3-3.4-0.8c-1-0.6-1.8-1.4-2.4-2.5
	c-0.5-1-0.8-2.2-0.8-3.6s0.3-2.6,0.8-3.7c0.6-1,1.4-1.8,2.4-2.4c1-0.5,2.1-0.8,3.4-0.8s2.4,0.3,3.4,0.8c1,0.5,1.8,1.3,2.3,2.4
	C57.2,15.9,57.5,17,57.5,18.3z M54.1,17.3c-0.1-0.9-0.4-1.5-1-2c-0.6-0.5-1.3-0.8-2.2-0.8c-0.8,0-1.5,0.2-2.1,0.7
	c-0.5,0.5-0.9,1.2-1,2.1H54.1z M77.4,11.9l-3.8,13.4H70l-2.4-9.4l-2.4,9.4h-3.6l-3.9-13.4h3.4l2.3,10.2l2.5-10.2h3.5l2.5,10.2
	l2.3-10.2L77.4,11.9z M77.6,18.6c0-1.4,0.2-2.6,0.7-3.7c0.6-1,1.3-1.8,2.2-2.4c0.9-0.5,2-0.8,3.1-0.8c1,0,1.9,0.2,2.6,0.6
	c0.7,0.4,1.3,0.9,1.7,1.5v-1.9h3.4v13.4h-3.4v-2c-0.4,0.7-1,1.2-1.7,1.6c-0.8,0.4-1.7,0.6-2.6,0.6c-1.1,0-2.2-0.3-3.1-0.9
	c-0.9-0.5-1.6-1.3-2.2-2.4C77.8,21.1,77.6,19.9,77.6,18.6z M87.9,18.6c0-0.8-0.1-1.5-0.4-2.1c-0.3-0.6-0.8-1.1-1.3-1.4
	c-0.5-0.3-1.1-0.4-1.8-0.4c-0.6,0-1.2,0.1-1.7,0.4c-0.5,0.3-1,0.8-1.3,1.4C81.1,17,81,17.7,81,18.6c0,0.8,0.1,1.5,0.4,2.1
	c0.3,0.6,0.8,1.1,1.3,1.4c0.5,0.3,1.1,0.4,1.7,0.4c0.7,0,1.3-0.1,1.8-0.4c0.5-0.3,1-0.8,1.3-1.4C87.8,20.1,87.9,19.4,87.9,18.6z
	 M97,14c0.5-0.7,1-1.3,1.7-1.7c0.7-0.4,1.5-0.6,2.4-0.6v3.6h-0.9c-1.1,0-1.9,0.2-2.4,0.7c-0.5,0.5-0.8,1.4-0.8,2.6v6.7h-3.3V11.9H97
	L97,14z M101.7,18.6c0-1.4,0.2-2.6,0.7-3.6c0.5-1.1,1.3-1.9,2.2-2.5c0.9-0.5,2-0.8,3.1-0.8c0.9,0,1.7,0.2,2.5,0.6
	c0.7,0.3,1.3,0.8,1.8,1.5V7.4h3.4v17.9H112v-2c-0.4,0.7-1,1.2-1.7,1.6s-1.6,0.6-2.6,0.6c-1.1,0-2.2-0.3-3.1-0.8
	c-0.9-0.6-1.7-1.4-2.2-2.5C101.9,21.1,101.7,19.9,101.7,18.6z M112,18.6c0-0.8-0.1-1.5-0.4-2.1c-0.3-0.6-0.8-1-1.3-1.3
	c-0.5-0.3-1.1-0.5-1.8-0.5c-0.6,0-1.2,0.1-1.7,0.4c-0.5,0.3-1,0.8-1.3,1.4c-0.3,0.6-0.4,1.3-0.4,2.1s0.1,1.5,0.4,2.1
	c0.3,0.6,0.8,1.1,1.3,1.4s1.1,0.5,1.7,0.5c0.7,0,1.3-0.2,1.8-0.5s1-0.8,1.3-1.4C111.9,20.2,112,19.5,112,18.6z M122.9,25.5
	c-1.1,0-2.1-0.2-2.9-0.5c-0.9-0.4-1.6-1-2.1-1.7c-0.5-0.7-0.7-1.4-0.8-2.2h3.4c0,0.5,0.2,1,0.7,1.3c0.5,0.3,1,0.5,1.6,0.5
	c0.7,0,1.2-0.1,1.5-0.4c0.4-0.3,0.6-0.6,0.6-1c0-0.5-0.2-0.8-0.7-1c-0.5-0.2-1.2-0.4-2.1-0.7c-1-0.3-1.8-0.5-2.4-0.7
	c-0.6-0.3-1.1-0.7-1.6-1.2c-0.5-0.5-0.7-1.3-0.7-2.2c0-0.7,0.2-1.4,0.6-2c0.5-0.6,1.1-1.1,1.8-1.5c0.8-0.3,1.7-0.5,2.8-0.5
	c1.6,0,2.9,0.4,3.8,1.2s1.4,1.9,1.5,3.2h-3.2c0-0.5-0.2-0.9-0.6-1.2c-0.4-0.3-0.9-0.5-1.6-0.5c-0.6,0-1.1,0.1-1.4,0.3
	c-0.3,0.3-0.5,0.6-0.5,1c0,0.4,0.2,0.7,0.7,1c0.5,0.2,1.2,0.4,2.1,0.7s1.7,0.5,2.3,0.8c0.7,0.2,1.2,0.6,1.6,1.2
	c0.5,0.5,0.7,1.2,0.7,2.1c0,0.8-0.2,1.5-0.6,2.1c-0.4,0.6-1,1.1-1.8,1.4C124.8,25.3,123.9,25.5,122.9,25.5z"/>
<g id="Layer_1_1_">
</g>
<g>
	<linearGradient id="SVGID_1_" gradientUnits="userSpaceOnUse" x1="3.505" y1="8.1969" x2="32.6946" y2="27.8869">
		<stop  offset="9.772402e-02" style="stop-color:#FF5124"/>
		<stop  offset="0.5631" style="stop-color:#EA492F"/>
		<stop  offset="1" style="stop-color:#DB3805"/>
	</linearGradient>
	<circle class="st1" cx="17.4" cy="17.5" r="15"/>
	<g>
		<path class="st2" d="M15.8,4.2c-0.4,0.4-0.6,0.6-0.9,1.3C14.2,6.7,14,7.8,14.2,9c0.1,0.7,0.3,1.3,0.5,1.5c0.1,0,0.1,0.1,0.1,0.1
			s0.1,0.1,0.1,0.2c0.1,0.1,0.1,0.1,0,0.1c-0.4-0.1-0.9-0.5-1.2-1c-0.3-0.4-0.5-1.1-0.6-1.8c0-0.2-0.1-0.2-0.1-0.2
			c-0.1,0-1.2,0.5-1.2,0.6c0,0-0.1,0.1-0.1,0.1c0,0-0.1,0.1-0.2,0.1c-0.1,0.1-0.4,0.3-0.7,0.5C10,9.6,9,10.6,8.7,11
			c-0.1,0.1-0.2,0.3-0.2,0.3c-0.1,0.1-0.2,0.3-0.6,0.9C7.7,12.5,7.4,13,7.4,13c0,0,0.2-0.1,0.5-0.4c1-0.8,1.7-1.2,2.6-1.5
			c0.8-0.3,0.9-0.2,0.3,0.2c-0.6,0.4-1.7,1.5-2.1,2c-1,1.4-1.6,2.7-1.9,3.8c-0.2,0.9-0.2,2.5,0,2.5c0,0,0.1-0.1,0.1-0.1
			c0-0.5,0.8-2.2,1.3-2.8c0.6-0.8,1.7-1.8,2-1.8c0,0,0,0.1-0.1,0.1c-0.1,0.1-0.5,0.8-0.8,1.3c-0.6,1.1-1,2.6-1,3.7
			c0,1,0.4,2.3,0.8,3.1c0.1,0.2,0.2,0.4,0.2,0.4c0,0.1,0.9,1,1.2,1.3c0.3,0.2,0.8,0.5,1.2,0.7c0.4,0.2,1,0.4,1.1,0.3
			c0,0-0.2-0.2-0.4-0.5c-0.8-0.9-1.5-2-1.8-3c-0.2-0.7-0.1-2.5,0.2-3c0.1-0.1,0.1-0.1,0.1,0.2c0,0.8,0.4,1.8,1.1,2.6
			c0.2,0.3,0.4,0.5,0.4,0.5c0,0,0.2,0.3,0.5,0.5c0.2,0.3,0.4,0.5,0.5,0.5c0.3,0.2,1.3,1.7,1.3,1.8c0,0,0,0.1,0.1,0.1
			c0.1,0,0.6,1.1,0.8,1.7c0.1,0.4,0.2,0.7,0.2,1.1c0,0.3,0.1,0.6,0.1,0.6c0.1,0,0.7-0.9,0.9-1.4c0.2-0.6,0.3-1.7,0.1-2.3
			c-0.1-0.6-0.4-1.2-0.8-1.8c-0.2-0.2-0.3-0.4-0.2-0.4c0.2,0,1.5,1.2,1.8,1.7c0.1,0.1,0.2,0.4,0.3,0.5c0.3,0.6,0.5,1.2,0.5,2
			c0,1-0.2,1.8-0.8,2.7c-0.1,0.1-0.2,0.3-0.2,0.3c-0.1,0.2,0,0.1,0.5-0.1c1.1-0.6,2.4-1.9,3-3c0.2-0.4,0.4-1.2,0.4-1.6
			c0-0.6-0.3-1.7-0.5-1.9c-0.1-0.1-0.1,0-0.1,0.2c-0.1,0.7-0.5,1.9-0.5,1.6c-0.2-0.9-0.4-1.4-0.8-2.1c-0.5-0.7-1-1.1-2.8-2.2
			c-1.1-0.7-1.5-1-2.4-1.7c-0.4-0.3-0.8-0.8-0.8-0.8c0,0,0-0.1-0.1-0.1c-0.2-0.2-0.5-0.8-0.7-1.2c-0.1-0.3-0.2-0.5-0.2-1.3
			c0-0.8,0-1,0.2-1.4c0.1-0.3,0.3-0.7,0.4-1c0.2-0.4,0.9-1.1,1.2-1.4c0.2-0.2,1.1-0.6,1.3-0.6c0.2,0,0.2,0-0.1,0.3
			c-0.8,0.8-1.5,1.8-1.7,2.7c-0.2,0.7-0.2,2.1,0,2.1c0,0,0.1,0,0.1-0.1c0-0.1,0.3-0.8,0.6-1.2c0.2-0.2,0.4-0.5,0.6-0.7
			c0.2-0.1,0.3-0.3,0.4-0.3c0.1-0.1,0.9-0.5,1.1-0.6c0.2-0.1,0.2-0.1-0.2,0.6c-0.6,0.8-0.9,2-0.9,3c0,0.5,0.3,1.5,0.4,1.6
			c0,0,0.1,0.2,0.2,0.3c0.3,0.4,0.7,0.9,1.2,1.2c0.5,0.4,0.6,0.4,0.4,0c-0.4-0.5-0.6-1.8-0.5-2.6c0.1-0.4,0.4-1.1,0.5-1.1
			c0,0,0.1,0.2,0.1,0.4c0,1,0.3,1.7,1.4,2.8c0.4,0.4,1,0.9,1.2,1.2c1.3,1.2,1.9,2.2,2,3.5c0.1,0.8,0,1.4-0.2,2
			c-0.1,0.2-0.1,0.4-0.1,0.4c0.1,0,0.6-0.7,0.9-1.2c0.3-0.6,0.5-1.6,0.5-2.2c0-0.7-0.3-1.6-0.7-2.2c-0.3-0.5-0.6-0.8-1.4-1.4
			c-0.9-0.7-1.1-1-0.8-1.3c0.1-0.1,0.2-0.1,0.8-0.1c0.6,0,0.8,0,1.6,0.3c1.3,0.4,1.5,0.5,2.2,0.5c0.6,0,0.8,0,1-0.1
			c0.3-0.1,0.8-0.6,0.8-0.7c0,0-0.3-0.1-0.6-0.1c-0.4,0-0.9-0.2-1.3-0.3c-1.2-0.4-2.5-0.9-2.9-1c-0.2,0-0.3-0.1-0.3-0.1
			c0,0,0.1-0.1,0.3-0.1c0.3-0.1,1.1,0,1.6,0.2c0.2,0.1,0.7,0.2,1.1,0.4c1.6,0.6,2.4,0.7,3.1,0.4c0.3-0.2,0.7-0.5,0.7-0.6
			c0,0-0.1-0.2-0.2-0.3c-0.3-0.3-0.5-0.7-0.5-1.1c0-0.1,0.5-0.2,1-0.2l0.5,0L29.1,16c-0.1-0.1-0.3-0.2-0.5-0.4
			c-0.2-0.1-0.5-0.3-0.6-0.4c-0.5-0.4-1.1-0.8-1.2-0.9c0,0-0.3-0.2-0.5-0.3c-0.2-0.2-0.4-0.3-0.5-0.3c0,0-0.3-0.2-0.5-0.4
			c-0.3-0.2-0.5-0.4-0.6-0.4c0,0-0.1-0.3-0.2-0.6c-0.1-0.7-0.3-1-0.9-1.7c-0.9-0.9-2.1-1.7-3.5-2.4c-0.4-0.2-0.9-0.4-0.9-0.5
			c-0.1,0-0.2-0.1-0.2-0.1c-0.1,0-0.2-0.2-0.4-0.6C18.4,6.5,18.1,6,18,5.9c0,0,0-0.1,0-0.1c0-0.1-0.2-0.3-0.7-0.9
			c-0.3-0.4-1-1-1.1-1C16.1,3.9,15.9,4,15.8,4.2 M16,5.6c-0.2,0.3-0.5,0.9-0.6,1.3c0,0.2-0.1,0.7-0.1,1.1c0,0.6,0,0.7,0.2,1.1
			c0.3,0.6,1.1,1.4,1,0.9c-0.1-0.5-0.2-0.9-0.1-1.4c0-0.5,0-0.5,0.2-0.5c0.2,0,0.9,0.3,1.1,0.5c0.2,0.2,0.2,0,0.1-0.4
			c-0.1-0.5-0.5-1.4-0.9-2c-0.2-0.3-0.7-0.8-0.7-0.8C16.2,5.5,16.1,5.5,16,5.6 M19.7,5.9c-0.2,0.4-0.4,1.1-0.4,1.2
			c0,0.1,0.1,0.1,0.2,0.2c0.6,0.2,1.1,0.4,1.5,0.7c0.2,0.1,0.5,0.3,0.5,0.3c0.2,0.1-0.9-2-1.1-2.2c0,0-0.1-0.1-0.1-0.1
			c0-0.1-0.4-0.5-0.4-0.5C19.9,5.5,19.8,5.7,19.7,5.9 M19.9,11.7l-0.6,0l0.3,0.1c1,0.4,1.1,0.5,1.3,0.8c0.4,0.6,0.7,0.7,1.4,0.8
			c0.5,0,0.7,0.1,1,0.2c0.4,0.2,0.4,0.2,0.4,0.1c0-0.3-1.3-1.8-1.5-1.8c0,0-0.1,0-0.1-0.1C22.2,11.8,20.9,11.7,19.9,11.7"/>
		<path class="st3" d="M15.6,4c-0.4,0.4-0.6,0.6-0.9,1.3c-0.6,1.2-0.8,2.4-0.7,3.5c0.1,0.7,0.3,1.3,0.5,1.5c0.1,0,0.1,0.1,0.1,0.1
			c0,0,0.1,0.1,0.1,0.2c0.1,0.1,0.1,0.1,0,0.1c-0.4-0.1-0.9-0.5-1.2-1c-0.3-0.4-0.5-1.1-0.6-1.8c0-0.2-0.1-0.2-0.1-0.2
			c-0.1,0-1.2,0.5-1.2,0.6c0,0-0.1,0.1-0.1,0.1s-0.1,0.1-0.2,0.1c-0.1,0.1-0.4,0.3-0.7,0.5c-0.5,0.4-1.5,1.4-1.8,1.8
			c-0.1,0.1-0.2,0.3-0.2,0.3c-0.1,0.1-0.2,0.3-0.6,0.9c-0.2,0.3-0.5,0.8-0.5,0.9c0,0,0.2-0.1,0.5-0.4c1-0.8,1.7-1.2,2.6-1.5
			c0.8-0.3,0.9-0.2,0.3,0.2c-0.6,0.4-1.7,1.5-2.1,2c-1,1.4-1.6,2.7-1.9,3.8c-0.2,0.9-0.2,2.5,0,2.5c0,0,0.1-0.1,0.1-0.1
			c0-0.5,0.8-2.2,1.3-2.8c0.6-0.8,1.7-1.8,2-1.8c0,0,0,0.1-0.1,0.1c-0.1,0.1-0.5,0.8-0.8,1.3c-0.6,1.1-1,2.6-1,3.7
			c0,1,0.4,2.3,0.8,3.1c0.1,0.2,0.2,0.4,0.2,0.4c0,0.1,0.9,1,1.2,1.3c0.3,0.2,0.8,0.5,1.2,0.7c0.4,0.2,1,0.4,1.1,0.3
			c0,0-0.2-0.2-0.4-0.5c-0.8-0.9-1.5-2-1.8-3c-0.2-0.7-0.1-2.5,0.2-3c0.1-0.1,0.1-0.1,0.1,0.2c0,0.8,0.4,1.8,1.1,2.6
			c0.2,0.3,0.4,0.5,0.4,0.5c0,0,0.2,0.3,0.5,0.5c0.2,0.3,0.4,0.5,0.5,0.5c0.3,0.2,1.3,1.7,1.3,1.8c0,0,0,0.1,0.1,0.1
			c0.1,0,0.6,1.1,0.8,1.7c0.1,0.4,0.2,0.7,0.2,1.1c0,0.3,0.1,0.6,0.1,0.6c0.1,0,0.7-0.9,0.9-1.4c0.2-0.6,0.3-1.7,0.1-2.3
			c-0.1-0.6-0.4-1.2-0.8-1.8c-0.2-0.2-0.3-0.4-0.2-0.4c0.2,0,1.5,1.2,1.8,1.7c0.1,0.1,0.2,0.4,0.3,0.5c0.3,0.6,0.5,1.2,0.5,2
			c0,1-0.2,1.8-0.8,2.7c-0.1,0.1-0.2,0.3-0.2,0.3c-0.1,0.2,0,0.1,0.5-0.1c1.1-0.6,2.4-1.9,3-3c0.2-0.4,0.4-1.2,0.4-1.6
			c0-0.6-0.3-1.7-0.5-1.9c-0.1-0.1-0.1,0-0.1,0.2c-0.1,0.7-0.5,1.9-0.5,1.6c-0.2-0.9-0.4-1.4-0.8-2.1c-0.5-0.7-1-1.1-2.8-2.2
			c-1.1-0.7-1.5-1-2.4-1.7c-0.4-0.3-0.8-0.8-0.8-0.8c0,0,0-0.1-0.1-0.1c-0.2-0.2-0.5-0.8-0.7-1.2c-0.1-0.3-0.2-0.5-0.2-1.3
			c0-0.8,0-1,0.2-1.4c0.1-0.3,0.3-0.7,0.4-1c0.2-0.4,0.9-1.1,1.2-1.4c0.2-0.2,1.1-0.6,1.3-0.6c0.2,0,0.2,0-0.1,0.3
			c-0.8,0.8-1.5,1.8-1.7,2.7c-0.2,0.7-0.2,2.1,0,2.1c0,0,0.1,0,0.1-0.1c0-0.1,0.3-0.8,0.6-1.2c0.2-0.2,0.4-0.5,0.6-0.7
			c0.2-0.1,0.3-0.3,0.4-0.3c0.1-0.1,0.9-0.5,1.1-0.6c0.2-0.1,0.2-0.1-0.2,0.6c-0.6,0.8-0.9,2-0.9,3c0,0.5,0.3,1.5,0.4,1.6
			c0,0,0.1,0.2,0.2,0.3c0.3,0.4,0.7,0.9,1.2,1.2c0.5,0.4,0.6,0.4,0.4,0c-0.4-0.5-0.6-1.8-0.5-2.6c0.1-0.4,0.4-1.1,0.5-1.1
			c0,0,0.1,0.2,0.1,0.4c0,1,0.3,1.7,1.4,2.8c0.4,0.4,1,0.9,1.2,1.2c1.3,1.2,1.9,2.2,2,3.5c0.1,0.8,0,1.4-0.2,2
			c-0.1,0.2-0.1,0.4-0.1,0.4c0.1,0,0.6-0.7,0.9-1.2c0.3-0.6,0.5-1.6,0.5-2.2c0-0.7-0.3-1.6-0.7-2.2c-0.3-0.5-0.6-0.8-1.4-1.4
			c-0.9-0.7-1.1-1-0.8-1.3c0.1-0.1,0.2-0.1,0.8-0.1c0.6,0,0.8,0,1.6,0.3c1.3,0.4,1.5,0.5,2.2,0.5c0.6,0,0.8,0,1-0.1
			c0.3-0.1,0.8-0.6,0.8-0.7c0,0-0.3-0.1-0.6-0.1c-0.4,0-0.9-0.2-1.3-0.3c-1.2-0.4-2.5-0.9-2.9-1c-0.2,0-0.3-0.1-0.3-0.1
			c0,0,0.1-0.1,0.3-0.1c0.3-0.1,1.1,0,1.6,0.2c0.2,0.1,0.7,0.2,1.1,0.4c1.6,0.6,2.4,0.7,3.1,0.4c0.3-0.2,0.7-0.5,0.7-0.6
			c0,0-0.1-0.2-0.2-0.3c-0.3-0.3-0.5-0.7-0.5-1.1c0-0.1,0.5-0.2,1-0.2l0.5,0L29,15.9c-0.1-0.1-0.3-0.2-0.5-0.4
			c-0.2-0.1-0.5-0.3-0.6-0.4c-0.5-0.4-1.1-0.8-1.2-0.9c0,0-0.3-0.2-0.5-0.3c-0.2-0.2-0.4-0.3-0.5-0.3c0,0-0.3-0.2-0.5-0.4
			c-0.3-0.2-0.5-0.4-0.6-0.4c0,0-0.1-0.3-0.2-0.6c-0.1-0.7-0.3-1-0.9-1.7c-0.9-0.9-2.1-1.7-3.5-2.4c-0.4-0.2-0.9-0.4-0.9-0.5
			c-0.1,0-0.2-0.1-0.2-0.1c-0.1,0-0.2-0.2-0.4-0.6c-0.3-0.6-0.6-1.2-0.7-1.2c0,0,0-0.1,0-0.1c0-0.1-0.2-0.3-0.7-0.9
			c-0.3-0.4-1-1-1.1-1C15.9,3.8,15.8,3.9,15.6,4 M15.9,5.5c-0.2,0.3-0.5,0.9-0.6,1.3c0,0.2-0.1,0.7-0.1,1.1c0,0.6,0,0.7,0.2,1.1
			c0.3,0.6,1.1,1.4,1,0.9c-0.1-0.5-0.2-0.9-0.1-1.4c0-0.5,0-0.5,0.2-0.5c0.2,0,0.9,0.3,1.1,0.5c0.2,0.2,0.2,0,0.1-0.4
			c-0.1-0.5-0.5-1.4-0.9-2c-0.2-0.3-0.7-0.8-0.7-0.8C16,5.3,16,5.4,15.9,5.5 M19.6,5.8c-0.2,0.4-0.4,1.1-0.4,1.2
			c0,0.1,0.1,0.1,0.2,0.2C20,7.4,20.6,7.7,21,7.9c0.2,0.1,0.5,0.3,0.5,0.3c0.2,0.1-0.9-2-1.1-2.2c0,0-0.1-0.1-0.1-0.1
			c0-0.1-0.4-0.5-0.4-0.5C19.8,5.4,19.7,5.6,19.6,5.8 M19.8,11.6l-0.6,0l0.3,0.1c1,0.4,1.1,0.5,1.3,0.8c0.4,0.6,0.7,0.7,1.4,0.8
			c0.5,0,0.7,0.1,1,0.2c0.4,0.2,0.4,0.2,0.4,0.1c0-0.3-1.3-1.8-1.5-1.8c0,0-0.1,0-0.1-0.1C22,11.6,20.8,11.5,19.8,11.6"/>
	</g>
</g>
</svg>
