<?xml version="1.0" encoding="UTF-8"?>
<svg version="1.1" xmlns="http://www.w3.org/2000/svg" width="411" height="132">
<path d="M0 0 C13.31428831 9.37242027 22.32371216 22.01157307 26.92797852 37.6418457 C27.26442383 38.65698242 27.26442383 38.65698242 27.60766602 39.69262695 C32.42295985 56.67808122 28.06082445 75.1019671 20.04125977 90.2824707 C10.40467285 105.60125951 -4.55342476 116.47348689 -22.03442383 121.03979492 C-27.3309494 122.08956442 -32.56271547 122.12919673 -37.94702148 122.0793457 C-39.09307861 122.07177246 -40.23913574 122.06419922 -41.41992188 122.05639648 C-49.64067095 121.89604301 -56.55349478 121.18126909 -64.07202148 117.6418457 C-65.01561523 117.20614258 -65.95920898 116.77043945 -66.93139648 116.3215332 C-84.0587142 107.66324828 -96.32824397 93.35835652 -102.57202148 75.2668457 C-107.14574729 57.17612667 -105.2076655 37.35080204 -95.76342773 21.23168945 C-88.85309944 10.65074798 -80.78956566 2.39919485 -69.69702148 -3.6706543 C-69.10912842 -3.99630371 -68.52123535 -4.32195313 -67.91552734 -4.6574707 C-46.78712253 -15.65190243 -19.44329733 -12.93611915 0 0 Z " fill="#EC4B28" transform="translate(104.072021484375,10.358154296875)"/>
<path d="M0 0 C3.6398685 1.59955159 5.7738716 4.66683241 8 7.87890625 C8.4968671 9.18480825 8.97615606 10.49753601 9.4375 11.81640625 C11.73672885 16.88449368 16.55823942 18.60393367 21.28222656 20.95117188 C28.10032595 24.34858659 34.06599705 27.68122457 36.66015625 35.1953125 C39.01932056 40.75138519 42.76768846 43.22261602 47.75 46.37890625 C49.30875732 47.40793954 50.86613518 48.43906663 52.421875 49.47265625 C53.10862305 49.91287109 53.79537109 50.35308594 54.50292969 50.80664062 C54.99696289 51.16048828 55.49099609 51.51433594 56 51.87890625 C56 52.20890625 56 52.53890625 56 52.87890625 C54.35 52.87890625 52.7 52.87890625 51 52.87890625 C51.16757813 53.43320312 51.33515625 53.9875 51.5078125 54.55859375 C51.81332031 55.64527344 51.81332031 55.64527344 52.125 56.75390625 C52.43824219 57.83285156 52.43824219 57.83285156 52.7578125 58.93359375 C52.87769531 59.89652344 52.87769531 59.89652344 53 60.87890625 C51 62.87890625 51 62.87890625 47.625 63.19140625 C42.80852564 63.09437105 38.35154633 61.8270073 33.734375 60.53515625 C30.82041222 59.72332428 30.82041222 59.72332428 27 59.87890625 C36.31071527 63.18723612 36.31071527 63.18723612 46 64.87890625 C46 66.19890625 46 67.51890625 46 68.87890625 C44.20938728 70.66951897 41.60322258 70.05180091 39.1875 70.06640625 C38.12917969 70.08058594 37.07085937 70.09476562 35.98046875 70.109375 C32.98297486 69.87758976 31.60529552 69.23572352 29 67.87890625 C26.18503259 67.42615347 26.18503259 67.42615347 23.25 67.25390625 C22.26515625 67.17914063 21.2803125 67.104375 20.265625 67.02734375 C19.14414063 66.95386719 19.14414063 66.95386719 18 66.87890625 C20.19700573 71.41023057 23.31650586 74.03355623 27.16015625 77.1328125 C29.75803195 79.59831237 30.81824433 81.63620471 31.3359375 85.17578125 C31.43718766 91.53429138 30.24345256 95.40558005 27 100.87890625 C26.67 100.87890625 26.34 100.87890625 26 100.87890625 C25.98582031 100.10546875 25.97164063 99.33203125 25.95703125 98.53515625 C25.38961937 86.14410755 20.24210032 80.74505875 11.5234375 72.4921875 C8.13716215 68.98534817 6.09127373 66.4914089 5.8125 61.56640625 C5.874375 60.67953125 5.93625 59.79265625 6 58.87890625 C5.34 58.87890625 4.68 58.87890625 4 58.87890625 C3.68323157 67.56815207 3.68323157 67.56815207 6 75.87890625 C1.28092328 73.58678327 -1.92757401 70.70324215 -4 65.87890625 C-5.22879798 58.16713961 -4.0531279 52.46523909 0 45.87890625 C-5.89264712 48.71190967 -8.16699658 50.98625913 -11 56.87890625 C-11.33 56.87890625 -11.66 56.87890625 -12 56.87890625 C-12.7000797 49.28693089 -11.60695778 44.92379328 -7 38.87890625 C-6.34 37.88890625 -5.68 36.89890625 -5 35.87890625 C-9.81314553 38.83242737 -13.44182314 41.76255254 -16 46.87890625 C-16.8788315 54.63264742 -16.72481838 60.6937266 -11.81640625 66.96875 C-8.83061136 70.10865043 -5.61041507 72.49918194 -2 74.87890625 C-0.32899082 75.98357339 1.34162417 77.08891182 3.00366211 78.20703125 C4.67612911 79.3293354 6.36125163 80.43271063 8.046875 81.53515625 C11.20507554 84.04166462 12.9446816 86.4348592 15 89.87890625 C15.99 91.36390625 15.99 91.36390625 17 92.87890625 C17.33 91.22890625 17.66 89.57890625 18 87.87890625 C18.66 87.87890625 19.32 87.87890625 20 87.87890625 C21.97521346 91.82933318 21.43425047 96.57309877 21 100.87890625 C19.375 104.12890625 19.375 104.12890625 17 106.87890625 C16.29423828 107.77416016 16.29423828 107.77416016 15.57421875 108.6875 C12.76357106 112.18083731 10.18170072 115.0203726 6 116.87890625 C5.01 116.38390625 5.01 116.38390625 4 115.87890625 C4.495 115.15703125 4.99 114.43515625 5.5 113.69140625 C8.07381134 108.4443126 7.85654965 102.5375295 7 96.87890625 C5.18268921 92.88304553 3.03072293 88.89426772 -1 86.87890625 C-0.51273438 87.56984375 -0.02546875 88.26078125 0.4765625 88.97265625 C2.257893 92.37088674 2.40174272 94.56361175 2.375 98.37890625 C2.38660156 100.0340625 2.38660156 100.0340625 2.3984375 101.72265625 C1.96134414 105.18512133 1.1105509 107.11974702 -1 109.87890625 C-1.66 109.87890625 -2.32 109.87890625 -3 109.87890625 C-3.226875 108.57953125 -3.45375 107.28015625 -3.6875 105.94140625 C-5.89210158 96.39799675 -11.6354301 89.55495165 -17.81005859 82.19482422 C-20.55363964 78.8877905 -22.70124968 76.05402999 -24 71.87890625 C-24.78538787 78.43627167 -24.56206144 82.84690682 -20.625 88.31640625 C-19.99851562 89.09886719 -19.37203125 89.88132812 -18.7265625 90.6875 C-17.14680565 92.69257601 -16.04528996 94.56131891 -15 96.87890625 C-21.4138914 95.56323622 -25.82556501 91.72861749 -30 86.87890625 C-34.08524744 79.99450779 -36.38512444 72.86810614 -35 64.87890625 C-33.88602991 61.10931105 -32.50341749 57.50763681 -31 53.87890625 C-30.67 52.88890625 -30.34 51.89890625 -30 50.87890625 C-35.07244295 56.10808199 -38.45164257 61.04107761 -41 67.87890625 C-41.33 67.87890625 -41.66 67.87890625 -42 67.87890625 C-43.03874622 57.02977902 -40.45051969 49.51017607 -33.703125 40.97265625 C-30.65114942 37.50178206 -27.85495854 34.44887861 -24 31.87890625 C-29.31027254 33.3392312 -33.46330032 35.86211611 -38 38.87890625 C-36.64973206 33.39600009 -34.25573422 30.54678345 -30.3125 26.75390625 C-29.55549805 25.98626953 -29.55549805 25.98626953 -28.78320312 25.203125 C-25.17095362 21.65024243 -21.58532804 19.06550396 -17 16.87890625 C-14 17.87890625 -14 17.87890625 -13.0859375 19.62109375 C-12.85132812 20.32492188 -12.61671875 21.02875 -12.375 21.75390625 C-12.13523437 22.45257812 -11.89546875 23.15125 -11.6484375 23.87109375 C-11.43445313 24.53367187 -11.22046875 25.19625 -11 25.87890625 C-10.67 26.86890625 -10.34 27.85890625 -10 28.87890625 C-9.34 28.54890625 -8.68 28.21890625 -8 27.87890625 C-8.495 26.88890625 -8.495 26.88890625 -9 25.87890625 C-9.71208039 16.33002493 -9.73216267 8.90408238 -3.61328125 1.11328125 C-2 -0.12109375 -2 -0.12109375 0 0 Z " fill="#FCF8F8" transform="translate(61,6.12109375)"/>
<path d="M0 0 C4.54144994 -0.11647041 9.08251394 -0.18734502 13.625 -0.25 C15.55279297 -0.30027344 15.55279297 -0.30027344 17.51953125 -0.3515625 C29.31123871 -0.47375636 29.31123871 -0.47375636 34 4 C37.88628217 8.42232109 38.29502759 12.19779075 38 18 C37.38125 19.5159375 37.38125 19.5159375 36.75 21.0625 C36.5025 22.031875 36.255 23.00125 36 24 C36.928125 25.36125 36.928125 25.36125 37.875 26.75 C40.78161616 31.19541296 40.83512356 34.82054681 40 40 C37.67738613 44.64522773 34.31938102 48.88548991 29.22143555 50.59716797 C26.43611493 51.10225413 23.78824019 51.12980537 20.95703125 51.1328125 C19.80138672 51.13410156 18.64574219 51.13539062 17.45507812 51.13671875 C16.25302734 51.13285156 15.05097656 51.12898438 13.8125 51.125 C12.59884766 51.12886719 11.38519531 51.13273437 10.13476562 51.13671875 C8.98298828 51.13542969 7.83121094 51.13414063 6.64453125 51.1328125 C5.58596924 51.13168457 4.52740723 51.13055664 3.43676758 51.12939453 C1 51 1 51 0 50 C-0.09326716 48.43452952 -0.11745582 46.86487228 -0.11352539 45.29663086 C-0.11344986 44.29566879 -0.11337433 43.29470673 -0.11329651 42.26341248 C-0.10813522 41.1748848 -0.10297394 40.08635712 -0.09765625 38.96484375 C-0.0962413 37.85645645 -0.09482635 36.74806915 -0.09336853 35.60609436 C-0.08775033 32.04986931 -0.07519475 28.49370617 -0.0625 24.9375 C-0.05748734 22.53320403 -0.05292403 20.12890708 -0.04882812 17.72460938 C-0.03777499 11.81638496 -0.02101917 5.9081969 0 0 Z M11 9 C11 12.63 11 16.26 11 20 C12.93719378 20.05406122 14.87481921 20.09282025 16.8125 20.125 C17.89144531 20.14820313 18.97039062 20.17140625 20.08203125 20.1953125 C23.19402868 20.23023717 23.19402868 20.23023717 26 18 C26.25015873 14.41642759 26.25015873 14.41642759 26 11 C21.07365343 8.37261516 16.44399329 8.85482685 11 9 Z M11 29 C11 32.96 11 36.92 11 41 C18.73217066 41.8412273 18.73217066 41.8412273 25.9765625 39.88671875 C27.48172755 38.40396404 27.48172755 38.40396404 29 36 C28.39816251 33.97954558 27.72693904 31.97888961 27 30 C23.99686252 28.49843126 21.20932478 28.90718796 17.875 28.9375 C16.59367187 28.94652344 15.31234375 28.95554687 13.9921875 28.96484375 C13.00476563 28.97644531 12.01734375 28.98804687 11 29 Z " fill="#000000" transform="translate(172,47)"/>
<path d="M0 0 C3.3 0 6.6 0 10 0 C14.16017504 7.68032314 17.01858089 15.81103551 20 24 C20.70576172 22.15535156 20.70576172 22.15535156 21.42578125 20.2734375 C22.0545311 18.64056477 22.68344609 17.00775562 23.3125 15.375 C23.7755957 14.16263672 23.7755957 14.16263672 24.24804688 12.92578125 C25.96060237 8.49116387 27.78358541 4.21459759 30 0 C33.3 0 36.6 0 40 0 C39.03963415 6.8597561 39.03963415 6.8597561 38.1875 9.875 C37.94456923 13.92384614 39.27529762 16.38778753 41.08984375 19.94921875 C42 22 42 22 42 25 C42.66 25 43.32 25 44 25 C44.12689209 24.27530518 44.25378418 23.55061035 44.38452148 22.80395508 C44.98109622 20.08612055 45.80140772 17.71082227 46.84765625 15.13671875 C47.20537109 14.25048828 47.56308594 13.36425781 47.93164062 12.45117188 C48.30482422 11.53916016 48.67800781 10.62714844 49.0625 9.6875 C49.43955078 8.75615234 49.81660156 7.82480469 50.20507812 6.86523438 C51.13281967 4.57523942 52.06588811 2.28740382 53 0 C56.3 0 59.6 0 63 0 C64.12052949 3.36158847 63.95822287 3.78030344 62.67651367 6.88891602 C62.36256149 7.66304337 62.04860931 8.43717072 61.72514343 9.23475647 C61.37627579 10.0660759 61.02740814 10.89739532 60.66796875 11.75390625 C60.31616043 12.61056381 59.96435211 13.46722137 59.60188293 14.34983826 C58.85556834 16.16144701 58.10459993 17.97114447 57.34936523 19.77905273 C56.19242843 22.55069309 55.0511477 25.32838499 53.91210938 28.10742188 C53.1858139 29.864963 52.45862998 31.6221373 51.73046875 33.37890625 C51.3876738 34.21224991 51.04487885 35.04559357 50.69169617 35.90419006 C50.36828751 36.67516525 50.04487885 37.44614044 49.71166992 38.24047852 C49.42885666 38.91981949 49.1460434 39.59916046 48.85466003 40.29908752 C48 42 48 42 46 44 C43.0625 44.4375 43.0625 44.4375 40 44 C37.49738071 40.49633299 35.92850547 36.66199993 34.3125 32.6875 C33.87550781 31.61886719 33.43851562 30.55023438 32.98828125 29.44921875 C32.66214844 28.64097656 32.33601563 27.83273438 32 27 C29.42100061 30.86849908 27.93186307 34.97625905 26.21875 39.28515625 C25 42 25 42 23 44 C20.0625 44.4375 20.0625 44.4375 17 44 C14.18366845 40.11681292 12.47070057 35.66056213 10.64453125 31.25 C10.33803146 30.51426758 10.03153168 29.77853516 9.71574402 29.02050781 C9.07243859 27.47158861 8.43130757 25.92176473 7.79223633 24.37109375 C6.81409064 22.00384957 5.82239728 19.64258161 4.83007812 17.28125 C4.20489004 15.77118047 3.58051327 14.26077473 2.95703125 12.75 C2.6602095 12.0477832 2.36338776 11.34556641 2.05757141 10.62207031 C0.45726244 6.69420975 0 4.36627695 0 0 Z " fill="#000000" transform="translate(301,54)"/>
<path d="M0 0 C3.53064581 3.28601305 6.462765 6.388295 8 11 C8 14.96 8 18.92 8 23 C-2.56 23 -13.12 23 -24 23 C-21.37261102 28.02979589 -21.37261102 28.02979589 -17 30 C-11.36111683 30.44753041 -8.760441 30.17362733 -4 27 C-2.68 27 -1.36 27 0 27 C1.32 29.31 2.64 31.62 4 34 C-2.74001509 39.82092213 -6.62053393 41.48834495 -15.7421875 41.3046875 C-22.45931406 40.67646703 -26.33500347 37.98130777 -30.875 33.125 C-35.11798374 27.87684472 -36.50732863 23.06169638 -36.3046875 16.36328125 C-35.34979509 8.95674397 -31.75879221 3.95347281 -26.00390625 -0.625 C-17.94836513 -6.15238884 -7.95192931 -5.21935724 0 0 Z M-21 9 C-21.66 10.32 -22.32 11.64 -23 13 C-16.4 13 -9.8 13 -3 13 C-5.64204566 8.00981175 -5.64204566 8.00981175 -10 6 C-14.63199447 5.50723463 -17.30966775 6.12974158 -21 9 Z " fill="#000000" transform="translate(403,57)"/>
<path d="M0 0 C4.84229649 4.41801908 8.40409637 8.91649198 9.37109375 15.54296875 C9.56794039 23.38209686 7.83553676 29.72267367 2.5078125 35.6640625 C-3.41438411 40.91119007 -9.14473 41.4549685 -16.7734375 41.30859375 C-23.00561878 40.71253767 -27.03747309 38.29606481 -31.3125 33.8125 C-35.3640639 28.62074189 -37.39259794 23.04779762 -36.9375 16.4375 C-35.82064565 9.75964172 -33.48859644 4.86049776 -28.125 0.625 C-19.13353599 -5.46866254 -9.20843853 -6.02154724 0 0 Z M-24 12 C-25.73591152 15.47182303 -25.46571673 19.20408964 -25 23 C-22.92434725 27.07717504 -21.24434352 29.33174798 -17 31 C-13.84730322 31.27071457 -11.02705183 30.91728843 -8 30 C-4.586762 27.01341675 -3.2627578 24.90322994 -2 20.5625 C-2 15.51560173 -3.37879485 11.93297538 -6.625 8.0625 C-13.64644588 4.92132684 -18.91862005 6.66455105 -24 12 Z " fill="#000000" transform="translate(289,57)"/>
<path d="M0 0 C2.67191336 1.7003085 4.09497891 3.08357713 5.75 5.75 C2.125 11.625 2.125 11.625 -1.25 12.75 C-2.24 12.09 -3.23 11.43 -4.25 10.75 C-7.05590236 10.32216934 -9.3733315 10.52169298 -12.25 10.75 C-14.60806442 14.28709662 -14.52523807 15.90218677 -14.59375 20.09765625 C-14.62339844 21.34224609 -14.65304688 22.58683594 -14.68359375 23.86914062 C-14.72793035 26.50195202 -14.77220098 29.13476452 -14.81640625 31.76757812 C-14.84605469 33.01087891 -14.87570313 34.25417969 -14.90625 35.53515625 C-14.92494141 36.67863525 -14.94363281 37.82211426 -14.96289062 39.00024414 C-15.25 41.75 -15.25 41.75 -17.25 43.75 C-19.125 44.015625 -19.125 44.015625 -21.25 44 C-21.95125 44.00515625 -22.6525 44.0103125 -23.375 44.015625 C-25.25 43.75 -25.25 43.75 -27.25 41.75 C-27.43783562 38.67648065 -27.50546922 35.69457522 -27.48046875 32.62109375 C-27.48001053 31.71625748 -27.47955231 30.8114212 -27.4790802 29.87916565 C-27.4760567 27.96508473 -27.4681675 26.05100631 -27.45581055 24.13696289 C-27.43755301 21.19603835 -27.43530083 18.25542842 -27.43554688 15.31445312 C-27.43063186 13.45833059 -27.42480362 11.60221021 -27.41796875 9.74609375 C-27.41685593 8.86070419 -27.4157431 7.97531464 -27.41459656 7.06309509 C-27.36604529 0.86604529 -27.36604529 0.86604529 -26.25 -0.25 C-20.51388889 -0.52314815 -20.51388889 -0.52314815 -18.25 -0.25 C-17.59 0.41 -16.93 1.07 -16.25 1.75 C-14.9815625 1.0075 -14.9815625 1.0075 -13.6875 0.25 C-8.6613211 -1.9432417 -5.11323108 -1.96662734 0 0 Z " fill="#000000" transform="translate(244.25,54.25)"/>
<path d="M0 0 C3.3 0 6.6 0 10 0 C11.68319638 3.36639276 11.16316848 7.17240689 11.16796875 10.875 C11.17129715 11.75526855 11.17462555 12.63553711 11.17805481 13.54248047 C11.18312167 15.40526811 11.18546321 17.26806485 11.18530273 19.13085938 C11.18749114 21.98843226 11.20565453 24.84562037 11.22460938 27.703125 C11.2275429 29.51041534 11.22952797 31.31770752 11.23046875 33.125 C11.23765427 33.98335449 11.24483978 34.84170898 11.25224304 35.72607422 C11.22882579 41.77117421 11.22882579 41.77117421 9 44 C7.125 44.265625 7.125 44.265625 5 44.25 C4.29875 44.25515625 3.5975 44.2603125 2.875 44.265625 C1 44 1 44 -1 42 C-1.18780399 39.01023597 -1.25549632 36.114698 -1.23046875 33.125 C-1.23001053 32.24473145 -1.22955231 31.36446289 -1.2290802 30.45751953 C-1.22605657 28.59471287 -1.21816695 26.73190876 -1.20581055 24.86914062 C-1.18757421 22.01162801 -1.1853007 19.15443968 -1.18554688 16.296875 C-1.18063096 14.48958052 -1.17480232 12.68228825 -1.16796875 10.875 C-1.16685593 10.01664551 -1.1657431 9.15829102 -1.16459656 8.27392578 C-1.11606391 2.23212781 -1.11606391 2.23212781 0 0 Z " fill="#000000" transform="translate(151,54)"/>
<path d="M0 0 C3.3 0 6.6 0 10 0 C11.49297212 2.98594424 11.11755228 5.70853624 11 9 C10.67 9.66 10.34 10.32 10 11 C6.7 11 3.4 11 0 11 C-1.49297212 8.01405576 -1.11755228 5.29146376 -1 2 C-0.67 1.34 -0.34 0.68 0 0 Z " fill="#000000" transform="translate(151,39)"/>
<path d="M0 0 C1.828125 0.2265625 1.828125 0.2265625 4 1 C5.484375 2.9609375 5.484375 2.9609375 6.75 5.375 C7.17796875 6.16648437 7.6059375 6.95796875 8.046875 7.7734375 C9 10 9 10 9 13 C7.02 12.34 5.04 11.68 3 11 C3 13.97 3 16.94 3 20 C0.7188009 18.34613065 -0.55288424 17.3597567 -2 15 C-2.81721937 9.63650197 -2.78371396 4.751319 0 0 Z " fill="#EE6142" transform="translate(59,13)"/>
<path d="M0 0 C8.89464594 -0.62176166 8.89464594 -0.62176166 13 1.6875 C15.05540521 4.06406228 16.08601908 6.0087897 17 9 C15.39272673 8.77082032 13.78912584 8.51579198 12.1875 8.25 C11.29417969 8.11078125 10.40085937 7.9715625 9.48046875 7.828125 C6.46124999 6.82013385 5.71355423 5.61113025 4 3 C1.91665365 1.7483533 1.91665365 1.7483533 0 1 C0 0.67 0 0.34 0 0 Z " fill="#E75E46" transform="translate(76,40)"/>
<path d="M0 0 C3.2441189 1.04275251 4.60194664 2.61240491 6.3125 5.4375 C8 9 8 9 7 12 C5.68397477 11.38245741 4.37226444 10.75571258 3.0625 10.125 C2.33160156 9.77695312 1.60070312 9.42890625 0.84765625 9.0703125 C-1 8 -1 8 -2 6 C-1.39421747 3.98072489 -0.73080266 1.97746603 0 0 Z " fill="#F6E6E3" transform="translate(76,13)"/>
<path d="M0 0 C8.75861562 0.79623778 17.35560508 2.42197613 26 4 C26 4.33 26 4.66 26 5 C15.93160697 6.86246831 9.19315723 4.93021071 0 1 C0 0.67 0 0.34 0 0 Z " fill="#DB7E6D" transform="translate(86,65)"/>
<path d="M0 0 C0.66 0.33 1.32 0.66 2 1 C1.04270084 2.12588014 0.08412105 3.2506715 -0.875 4.375 C-1.40867187 5.00148438 -1.94234375 5.62796875 -2.4921875 6.2734375 C-3.61432007 7.55836651 -4.79371975 8.79371975 -6 10 C-7.32 10 -8.64 10 -10 10 C-8.26548969 5.31682216 -4.40759243 2.20379621 0 0 Z " fill="#D47864" transform="translate(56,41)"/>
<path d="M0 0 C0 4.02085211 -1.59292359 6.87772197 -4 10 C-6.75 11.4375 -6.75 11.4375 -9 12 C-7.54718935 6.67302761 -3.91888622 3.63597198 0 0 Z " fill="#D9674D" transform="translate(32,55)"/>
<path d="M0 0 C0.69867188 0.3609375 1.39734375 0.721875 2.1171875 1.09375 C3.02726562 1.5578125 3.93734375 2.021875 4.875 2.5 C5.77992187 2.9640625 6.68484375 3.428125 7.6171875 3.90625 C9.86596859 5.13905589 9.86596859 5.13905589 12 5 C12 5.66 12 6.32 12 7 C9.34501768 8.0169313 8.30844625 8.13022151 5.640625 7.00390625 C4.85171875 6.52824219 4.0628125 6.05257813 3.25 5.5625 C2.45078125 5.08941406 1.6515625 4.61632812 0.828125 4.12890625 C0.22484375 3.75636719 -0.3784375 3.38382813 -1 3 C-0.67 2.01 -0.34 1.02 0 0 Z " fill="#EC694E" transform="translate(73,19)"/>
<path d="M0 0 C-2.64 1.98 -5.28 3.96 -8 6 C-8 5.34 -8 4.68 -8 4 C-8.66 3.67 -9.32 3.34 -10 3 C-3.375 -1.125 -3.375 -1.125 0 0 Z " fill="#D67C67" transform="translate(38,38)"/>
</svg>
