<svg xmlns="http://www.w3.org/2000/svg" width="411" height="132" viewBox="0 0 411 132" version="1.1"><path d="M 57.270 8.250 C 52.302 13.628, 50.033 24.166, 52.378 30.971 C 53.221 33.419, 53.734 35.600, 53.516 35.817 C 52.543 36.791, 48.036 30.851, 46.918 27.122 C 46.239 24.855, 45.393 23, 45.037 23 C 43.442 23, 35.078 29.069, 30.877 33.275 C 26.943 37.214, 21.322 45, 22.413 45 C 22.602 45, 25.373 43.425, 28.570 41.500 C 31.767 39.575, 34.881 38, 35.490 38 C 36.100 38, 34.071 40.598, 30.983 43.774 C 23.314 51.660, 19.621 59.439, 19.254 68.481 L 18.969 75.500 21.058 70.239 C 22.212 67.334, 25.351 62.633, 28.069 59.739 L 32.991 54.500 30.027 61 C 24.145 73.896, 25.250 85.977, 33.090 94.482 C 36.807 98.514, 43.576 102.757, 44.622 101.711 C 44.875 101.458, 43.985 99.947, 42.644 98.353 C 37.277 91.975, 35.596 86.995, 35.941 78.500 L 36.104 74.500 38.052 79.500 C 39.124 82.250, 42.703 87.650, 46.006 91.500 C 52.644 99.239, 56.740 106.534, 57.655 112.250 C 58.404 116.927, 59.676 117.019, 61.551 112.532 C 63.610 107.604, 63.364 100.633, 60.964 95.929 L 58.928 91.938 60.995 93.219 C 68.078 97.609, 71.028 109.626, 67.166 118.357 C 66.037 120.911, 65.502 123, 65.978 123 C 67.775 123, 75.562 116.277, 78.335 112.331 C 81.667 107.590, 82.764 100.936, 80.943 96.500 L 79.711 93.500 78.736 97.336 L 77.761 101.172 75.103 95.852 C 72.790 91.224, 71.018 89.546, 61.472 82.941 C 55.437 78.766, 49.038 73.436, 47.250 71.097 C 44.422 67.397, 44 66.070, 44 60.882 C 44 53.675, 46.468 48.270, 51.518 44.418 C 55.607 41.300, 56.863 41.623, 54.155 45.097 C 51.319 48.737, 49.343 53.103, 48.731 57.086 C 48.083 61.296, 49.396 64.477, 50.433 61.210 C 51.170 58.890, 58.415 52, 60.118 52 C 60.805 52, 60.628 52.919, 59.653 54.407 C 56.868 58.658, 55.714 65.224, 56.947 69.804 C 57.963 73.576, 64.414 81.919, 65.486 80.847 C 65.739 80.594, 65.470 78.663, 64.888 76.555 C 63.784 72.557, 64.498 65.572, 65.921 66.451 C 66.373 66.730, 67.016 68.328, 67.350 70.002 C 67.740 71.952, 70.953 76.204, 76.300 81.846 C 85.589 91.648, 87.764 96.410, 86.653 104.514 C 86.315 106.981, 86.275 109, 86.565 109 C 86.855 109, 88.192 106.637, 89.536 103.750 C 94.021 94.117, 92.415 87.052, 84.116 79.905 C 77.396 74.117, 77.424 72.681, 84.250 73.261 C 87.138 73.506, 92.026 74.303, 95.114 75.031 C 99.729 76.120, 101.285 76.125, 103.864 75.057 C 105.589 74.342, 107 73.425, 107 73.020 C 107 72.614, 102.162 70.657, 96.250 68.670 C 84.442 64.702, 87.613 64.198, 100.230 68.037 C 107.726 70.318, 108.071 70.336, 111.599 68.654 C 115.006 67.029, 115.134 66.806, 113.618 65.131 C 111.275 62.541, 111.629 60.290, 114.534 59.322 C 116.935 58.522, 116.573 58.124, 107.606 51.706 C 100.143 46.364, 98.002 44.286, 97.471 41.868 C 97.100 40.181, 94.956 37.015, 92.706 34.831 C 88.629 30.874, 76.370 23, 74.287 23 C 73.684 23, 71.856 20.635, 70.225 17.744 C 67.104 12.214, 61.838 6, 60.273 6 C 59.765 6, 58.413 7.012, 57.270 8.250 M 58.526 15.950 C 56.162 20.520, 56.546 27.361, 59.349 30.620 L 61.699 33.351 61.599 28.925 C 61.499 24.444, 61.744 24.237, 65.727 25.445 C 67.928 26.112, 67.937 26.073, 66.519 22.054 C 65.019 17.803, 62.016 13.085, 60.776 13.031 C 60.377 13.014, 59.365 14.328, 58.526 15.950 M 75.098 16.149 C 74.494 17.881, 74 19.449, 74 19.632 C 74 19.816, 76.250 21.106, 79 22.500 C 81.750 23.894, 83.996 24.689, 83.991 24.267 C 83.973 22.806, 77.956 13, 77.078 13 C 76.593 13, 75.702 14.417, 75.098 16.149 M 151.402 40.395 C 151.108 41.162, 151.009 43.524, 151.183 45.645 L 151.500 49.500 156 49.500 L 160.500 49.500 160.815 45.099 C 161.018 42.255, 160.665 40.403, 159.815 39.864 C 157.674 38.507, 151.989 38.865, 151.402 40.395 M 78.225 41.559 C 79.724 42.372, 81.407 43.892, 81.966 44.936 C 82.871 46.628, 91.798 49.536, 92.851 48.482 C 93.490 47.844, 88.957 42.570, 86.666 41.285 C 85.475 40.617, 82.475 40.073, 80 40.075 L 75.500 40.080 78.225 41.559 M 172.667 47.667 C 172.300 48.033, 172 59.283, 172 72.667 L 172 97 186.852 97 C 200.611 97, 201.947 96.834, 205.001 94.750 C 212.911 89.350, 214.259 77.610, 207.603 72.085 C 206.234 70.949, 206.245 70.556, 207.704 68.329 C 209.910 64.962, 209.771 58.001, 207.417 53.991 C 204.040 48.240, 200.230 47, 185.932 47 C 179.003 47, 173.033 47.300, 172.667 47.667 M 233.643 54.068 C 232.071 54.517, 229.991 55.603, 229.020 56.482 C 227.389 57.958, 227.212 57.920, 226.704 55.975 C 226.245 54.220, 225.517 53.923, 222.327 54.185 L 218.500 54.500 218.230 75.750 L 217.960 97 222.980 97 L 228 97 228 82.923 L 228 68.846 231.033 65.813 C 234.238 62.608, 235.392 62.536, 241.813 65.142 C 244.929 66.406, 245.238 66.338, 247.040 63.993 C 249.783 60.422, 249.454 58.436, 245.750 56.213 C 241.691 53.777, 237.351 53.008, 233.643 54.068 M 270.500 53.914 C 262.916 55.814, 256.236 61.726, 253.993 68.520 C 253.323 70.551, 252.967 74.867, 253.202 78.111 C 253.762 85.856, 257.524 91.363, 264.881 95.207 C 274.634 100.301, 285.133 98.336, 292.188 90.094 C 299.033 82.097, 299.596 72.075, 293.693 63.319 C 288.821 56.093, 278.502 51.908, 270.500 53.914 M 383.939 54.365 C 375.347 56.682, 370.086 62.211, 368.112 70.998 C 365.923 80.740, 370.851 90.754, 380.105 95.365 C 387.928 99.263, 396.188 98.697, 403.250 93.779 C 406.636 91.421, 406.742 89.046, 403.595 86.089 C 401.321 83.953, 401.055 83.918, 398.718 85.449 C 392.604 89.455, 386 89.227, 381.340 84.850 C 376.703 80.494, 377.820 80.071, 394.750 79.775 L 410.500 79.500 410.800 74.309 C 411.339 64.994, 405.501 57.460, 395.386 54.416 C 389.892 52.762, 389.882 52.762, 383.939 54.365 M 151.714 54.620 C 151.321 55.012, 151 64.708, 151 76.167 L 151 97 156.020 97 L 161.040 97 160.770 75.750 L 160.500 54.500 156.464 54.203 C 154.244 54.040, 152.106 54.227, 151.714 54.620 M 301.396 55.410 C 301.075 56.246, 304.558 65.946, 309.135 76.965 L 317.456 97 321.135 97 C 324.771 97, 324.849 96.914, 327.965 89.429 C 329.699 85.265, 331.448 80.964, 331.852 79.871 C 332.427 78.317, 333.431 79.970, 336.450 87.442 L 340.313 97 344.050 97 C 346.105 97, 348.016 96.438, 348.298 95.750 C 348.579 95.063, 352.227 86.273, 356.405 76.218 C 360.582 66.162, 364 57.050, 364 55.968 C 364 54.299, 363.308 54, 359.445 54 C 354.907 54, 354.881 54.020, 352.604 59.250 C 351.346 62.138, 349.064 67.979, 347.532 72.231 C 346 76.482, 344.430 79.766, 344.043 79.526 C 343.656 79.287, 342.066 76.097, 340.511 72.437 L 337.683 65.783 339.427 60.934 C 340.386 58.267, 340.880 55.616, 340.526 55.042 C 340.172 54.469, 337.916 54, 335.514 54 L 331.145 54 328.210 61.750 C 326.596 66.013, 324.449 71.863, 323.439 74.752 C 322.430 77.640, 321.269 79.665, 320.861 79.252 C 320.453 78.838, 318.143 73.100, 315.728 66.500 L 311.337 54.500 306.658 54.195 C 303.191 53.969, 301.829 54.283, 301.396 55.410 M 183 61.500 L 183 67 189.443 67 C 194.968 67, 196.109 66.683, 197.443 64.777 C 199.501 61.840, 199.407 60.407, 197 58 C 195.444 56.444, 193.667 56, 189 56 L 183 56 183 61.500 M 270.452 64.406 C 262.294 67.960, 261.031 79.482, 268.143 85.467 C 275.729 91.850, 287.010 85.756, 286.996 75.282 C 286.991 71.501, 283.729 66.428, 280.094 64.549 C 276.487 62.684, 274.475 62.654, 270.452 64.406 M 383.904 64.665 C 381.243 66.316, 378.517 69.850, 379.299 70.633 C 379.540 70.873, 384.634 70.942, 390.618 70.785 L 401.500 70.500 397.850 66.750 C 394.862 63.680, 393.501 63.005, 390.350 63.027 C 388.233 63.041, 385.332 63.778, 383.904 64.665 M 183 82 L 183 88 190 88 C 197.570 88, 201 86.129, 201 82 C 201 77.871, 197.570 76, 190 76 L 183 76 183 82" stroke="none" fill="#faf8f7" fill-rule="evenodd"/><path d="M 48.215 1.892 C 25.240 8.635, 7.355 26.944, 1.567 49.644 C -0.488 57.703, -0.481 74.343, 1.581 82.356 C 7.529 105.469, 26.531 124.471, 49.644 130.419 C 57.672 132.484, 74.302 132.489, 82.356 130.427 C 106.031 124.367, 124.239 106.114, 130.664 82 C 133.356 71.898, 132.916 56.596, 129.644 46.500 C 122.945 25.830, 106.856 9.345, 87 2.807 C 77.745 -0.241, 57.138 -0.727, 48.215 1.892 M 57.270 8.250 C 52.302 13.628, 50.033 24.166, 52.378 30.971 C 53.221 33.419, 53.734 35.600, 53.516 35.817 C 52.543 36.791, 48.036 30.851, 46.918 27.122 C 46.239 24.855, 45.393 23, 45.037 23 C 43.442 23, 35.078 29.069, 30.877 33.275 C 26.943 37.214, 21.322 45, 22.413 45 C 22.602 45, 25.373 43.425, 28.570 41.500 C 31.767 39.575, 34.881 38, 35.490 38 C 36.100 38, 34.071 40.598, 30.983 43.774 C 23.314 51.660, 19.621 59.439, 19.254 68.481 L 18.969 75.500 21.058 70.239 C 22.212 67.334, 25.351 62.633, 28.069 59.739 L 32.991 54.500 30.027 61 C 24.145 73.896, 25.250 85.977, 33.090 94.482 C 36.807 98.514, 43.576 102.757, 44.622 101.711 C 44.875 101.458, 43.985 99.947, 42.644 98.353 C 37.277 91.975, 35.596 86.995, 35.941 78.500 L 36.104 74.500 38.052 79.500 C 39.124 82.250, 42.703 87.650, 46.006 91.500 C 52.644 99.239, 56.740 106.534, 57.655 112.250 C 58.404 116.927, 59.676 117.019, 61.551 112.532 C 63.610 107.604, 63.364 100.633, 60.964 95.929 L 58.928 91.938 60.995 93.219 C 68.078 97.609, 71.028 109.626, 67.166 118.357 C 66.037 120.911, 65.502 123, 65.978 123 C 67.775 123, 75.562 116.277, 78.335 112.331 C 81.667 107.590, 82.764 100.936, 80.943 96.500 L 79.711 93.500 78.736 97.336 L 77.761 101.172 75.103 95.852 C 72.790 91.224, 71.018 89.546, 61.472 82.941 C 55.437 78.766, 49.038 73.436, 47.250 71.097 C 44.422 67.397, 44 66.070, 44 60.882 C 44 53.675, 46.468 48.270, 51.518 44.418 C 55.607 41.300, 56.863 41.623, 54.155 45.097 C 51.319 48.737, 49.343 53.103, 48.731 57.086 C 48.083 61.296, 49.396 64.477, 50.433 61.210 C 51.170 58.890, 58.415 52, 60.118 52 C 60.805 52, 60.628 52.919, 59.653 54.407 C 56.868 58.658, 55.714 65.224, 56.947 69.804 C 57.963 73.576, 64.414 81.919, 65.486 80.847 C 65.739 80.594, 65.470 78.663, 64.888 76.555 C 63.784 72.557, 64.498 65.572, 65.921 66.451 C 66.373 66.730, 67.016 68.328, 67.350 70.002 C 67.740 71.952, 70.953 76.204, 76.300 81.846 C 85.589 91.648, 87.764 96.410, 86.653 104.514 C 86.315 106.981, 86.275 109, 86.565 109 C 86.855 109, 88.192 106.637, 89.536 103.750 C 94.021 94.117, 92.415 87.052, 84.116 79.905 C 77.396 74.117, 77.424 72.681, 84.250 73.261 C 87.138 73.506, 92.026 74.303, 95.114 75.031 C 99.729 76.120, 101.285 76.125, 103.864 75.057 C 105.589 74.342, 107 73.425, 107 73.020 C 107 72.614, 102.162 70.657, 96.250 68.670 C 84.442 64.702, 87.613 64.198, 100.230 68.037 C 107.726 70.318, 108.071 70.336, 111.599 68.654 C 115.006 67.029, 115.134 66.806, 113.618 65.131 C 111.275 62.541, 111.629 60.290, 114.534 59.322 C 116.935 58.522, 116.573 58.124, 107.606 51.706 C 100.143 46.364, 98.002 44.286, 97.471 41.868 C 97.100 40.181, 94.956 37.015, 92.706 34.831 C 88.629 30.874, 76.370 23, 74.287 23 C 73.684 23, 71.856 20.635, 70.225 17.744 C 67.104 12.214, 61.838 6, 60.273 6 C 59.765 6, 58.413 7.012, 57.270 8.250 M 58.526 15.950 C 56.162 20.520, 56.546 27.361, 59.349 30.620 L 61.699 33.351 61.599 28.925 C 61.499 24.444, 61.744 24.237, 65.727 25.445 C 67.928 26.112, 67.937 26.073, 66.519 22.054 C 65.019 17.803, 62.016 13.085, 60.776 13.031 C 60.377 13.014, 59.365 14.328, 58.526 15.950 M 75.098 16.149 C 74.494 17.881, 74 19.449, 74 19.632 C 74 19.816, 76.250 21.106, 79 22.500 C 81.750 23.894, 83.996 24.689, 83.991 24.267 C 83.973 22.806, 77.956 13, 77.078 13 C 76.593 13, 75.702 14.417, 75.098 16.149 M 78.225 41.559 C 79.724 42.372, 81.407 43.892, 81.966 44.936 C 82.871 46.628, 91.798 49.536, 92.851 48.482 C 93.490 47.844, 88.957 42.570, 86.666 41.285 C 85.475 40.617, 82.475 40.073, 80 40.075 L 75.500 40.080 78.225 41.559" stroke="none" fill="#ed4c28" fill-rule="evenodd"/></svg>