<?xml version="1.0" encoding="utf-8"?>
<!-- Generator: Adobe Illustrator 24.3.0, SVG Export Plug-In . SVG Version: 6.00 Build 0)  -->
<svg version="1.1" id="Layer_1" xmlns="http://www.w3.org/2000/svg" xmlns:xlink="http://www.w3.org/1999/xlink" x="0px" y="0px"
	 viewBox="0 0 411 132" style="enable-background:new 0 0 411 132;" xml:space="preserve">
<style type="text/css">
	.st0{fill:#EFEDED;}
	.st1{fill:url(#SVGID_1_);}
	.st2{fill-rule:evenodd;clip-rule:evenodd;fill:#808080;}
	.st3{fill-rule:evenodd;clip-rule:evenodd;fill:#FFFFFF;}
</style>
<g>
	<path class="st0" d="M146.1,42.5c0-1.2,0.6-1.9,1.8-1.9h5.2c0.6,0,1.1,0.2,1.4,0.5c0.4,0.3,0.5,0.8,0.5,1.4v4.6
		c0,0.5-0.2,0.9-0.5,1.3c-0.3,0.4-0.8,0.6-1.4,0.6h-5.2c-1.2,0-1.9-0.7-1.9-2V42.5z M146.1,56.1c0-0.5,0.2-1,0.5-1.3
		c0.3-0.4,0.8-0.5,1.4-0.5h5.2c0.2,0,0.5,0,0.7,0.1c0.2,0.1,0.5,0.2,0.6,0.4c0.2,0.2,0.3,0.4,0.5,0.6c0.1,0.2,0.2,0.5,0.2,0.7v35.5
		c0,1.2-0.7,1.9-2,1.9h-5.2c-1.2,0-1.9-0.6-1.9-1.9V56.1z"/>
	<path class="st0" d="M165.9,49.1c0-1,0.5-1.4,1.4-1.4h19.5c1.8,0,3.5,0.3,5.1,1c1.6,0.7,3,1.6,4.1,2.7c1.2,1.2,2.1,2.5,2.8,4.1
		c0.7,1.6,1,3.3,1,5.1c0,1.7-0.3,3.2-0.9,4.7c-0.6,1.4-1.4,2.7-2.5,3.8c0.9,0.6,1.6,1.3,2.3,2.1c0.7,0.8,1.3,1.7,1.8,2.6
		c0.5,0.9,0.9,1.9,1.2,2.9c0.3,1,0.4,2.1,0.4,3.2c0,1.8-0.3,3.6-1,5.2c-0.7,1.6-1.6,3.1-2.8,4.4c-1.2,1.3-2.6,2.2-4.2,3
		c-1.6,0.7-3.4,1.1-5.2,1.1h-21.5c-0.4,0-0.8-0.1-1-0.3c-0.3-0.2-0.4-0.6-0.4-1V49.1z M190.9,60.6c0-0.8-0.1-1.5-0.4-2.2
		c-0.3-0.7-0.7-1.3-1.2-1.8s-1.1-0.9-1.8-1.2c-0.7-0.3-1.5-0.4-2.3-0.4h-10.2v11.2h10.1c0.8,0,1.6-0.1,2.3-0.4
		c0.7-0.3,1.3-0.7,1.8-1.2c0.5-0.5,0.9-1.1,1.2-1.8C190.7,62.2,190.9,61.4,190.9,60.6z M192.9,79.6c0-0.7-0.1-1.4-0.4-2.1
		c-0.3-0.7-0.6-1.3-1-1.8c-0.4-0.5-1-1-1.6-1.3c-0.6-0.4-1.3-0.6-2-0.7c-0.4-0.1-0.8-0.1-1.3-0.2c-0.4-0.1-0.9-0.1-1.3-0.1h-10.4
		v12.5h10.4c0.4,0,0.9,0,1.3,0c0.4,0,0.8-0.1,1.3-0.2c0.7-0.1,1.4-0.3,2-0.7c0.6-0.4,1.1-0.8,1.6-1.4c0.4-0.6,0.8-1.2,1-1.9
		C192.8,81,192.9,80.3,192.9,79.6z"/>
	<path class="st0" d="M208.4,56.1c0-0.6,0.2-1,0.6-1.4c0.4-0.3,0.9-0.5,1.3-0.5h4c0.5,0,0.9,0.2,1.2,0.5c0.3,0.3,0.5,0.7,0.6,1.1
		c0.1,0.5,0.3,0.9,0.3,1.5c0.1,0.5,0.1,1,0.2,1.4c0.5-0.6,1-1.3,1.5-1.9c0.6-0.6,1.2-1.1,2-1.6c0.7-0.5,1.5-0.9,2.5-1.1
		c0.9-0.3,2-0.4,3.1-0.4c1,0,2,0.1,2.8,0.2c0.8,0.1,1.6,0.3,2.4,0.6c0.8,0.3,1.5,0.6,2.2,1.1c0.7,0.4,1.5,1,2.3,1.6
		c0.4,0.2,0.7,0.5,0.9,0.8c0.3,0.3,0.4,0.6,0.4,1c0,0.2-0.1,0.3-0.1,0.5c0,0.2-0.1,0.4-0.2,0.6l-2.6,4c-0.2,0.2-0.4,0.4-0.6,0.4
		c-0.2,0.1-0.4,0.1-0.6,0.1c-0.3,0-0.7-0.1-1-0.2c-0.7-0.4-1.3-0.7-1.9-1c-0.6-0.3-1.1-0.6-1.7-0.8c-0.5-0.2-1.1-0.4-1.7-0.6
		c-0.6-0.1-1.2-0.2-1.9-0.2c-1.9,0-3.4,0.6-4.7,1.8c-1.3,1.2-2.1,2.8-2.6,4.8v23.3c0,1.2-0.6,1.9-1.9,1.9h-5.1
		c-1.3,0-1.9-0.6-1.9-1.9V56.1z"/>
	<path class="st0" d="M241,73.9c0-1.9,0.2-3.7,0.7-5.4c0.5-1.7,1.2-3.4,2.1-4.9c0.9-1.5,2-2.9,3.2-4.1c1.2-1.2,2.6-2.3,4.1-3.1
		c1.5-0.9,3.1-1.6,4.9-2c1.7-0.5,3.5-0.7,5.4-0.7c1.9,0,3.7,0.2,5.4,0.7c1.7,0.5,3.4,1.2,4.9,2c1.5,0.9,2.9,1.9,4.1,3.1
		c1.2,1.2,2.3,2.6,3.2,4.1c0.9,1.5,1.6,3.1,2.1,4.9c0.5,1.7,0.7,3.5,0.7,5.4c0,1.9-0.2,3.7-0.7,5.4c-0.5,1.7-1.2,3.3-2.1,4.8
		c-0.9,1.5-2,2.9-3.2,4.1c-1.2,1.2-2.6,2.3-4.1,3.2c-1.5,0.9-3.1,1.6-4.9,2c-1.7,0.5-3.6,0.7-5.4,0.7c-1.9,0-3.7-0.2-5.4-0.7
		c-1.7-0.5-3.4-1.2-4.9-2c-1.5-0.9-2.9-1.9-4.1-3.2c-1.2-1.2-2.3-2.6-3.2-4.1c-0.9-1.5-1.6-3.1-2.1-4.8
		C241.3,77.6,241,75.8,241,73.9z M249.8,73.9c0,1.6,0.3,3.2,0.9,4.7c0.6,1.5,1.4,2.8,2.4,3.8c1,1.1,2.3,2,3.7,2.6c1.4,0.6,3,1,4.7,1
		c1.6,0,3.2-0.3,4.6-1c1.4-0.6,2.6-1.5,3.6-2.6c1-1.1,1.8-2.4,2.4-3.8c0.6-1.5,0.9-3,0.9-4.7c0-1.6-0.3-3.2-0.9-4.7
		c-0.6-1.5-1.4-2.8-2.4-3.9c-1-1.1-2.2-2-3.6-2.7c-1.4-0.7-2.9-1-4.6-1c-1.7,0-3.2,0.3-4.7,1c-1.4,0.7-2.7,1.6-3.7,2.7
		c-1,1.1-1.9,2.4-2.4,3.9C250.1,70.7,249.8,72.3,249.8,73.9z"/>
	<path class="st0" d="M286,56.8c0-0.2-0.1-0.3-0.1-0.4s-0.1-0.3-0.1-0.4c0-0.1,0-0.3,0-0.4c0-0.4,0.1-0.7,0.4-0.9
		c0.3-0.2,0.7-0.4,1.3-0.4h5.6c1,0,1.6,0.5,2,1.4c0.4,1.1,0.8,2.3,1.4,3.8c0.5,1.5,1.1,3,1.7,4.6c0.6,1.6,1.2,3.3,1.8,4.9
		c0.6,1.7,1.2,3.2,1.8,4.7c0.6,1.5,1.1,2.8,1.5,3.9c0.4,1.2,0.8,2,1,2.6c0.9-2.6,2.1-6,3.6-10c1.5-4.1,3.2-8.9,5.3-14.6
		c0.2-0.5,0.4-0.8,0.8-1.1c0.3-0.2,0.7-0.3,1.2-0.3h5.4c0.6,0,1.1,0.1,1.3,0.3c0.2,0.2,0.4,0.5,0.4,0.8c0,0.2,0,0.4-0.1,0.6
		c-0.1,0.2-0.1,0.4-0.1,0.6l-3.2,7.8c0.4,1,0.9,2.2,1.5,3.4c0.6,1.3,1.1,2.6,1.7,4c0.6,1.4,1.2,2.8,1.8,4.2c0.6,1.4,1.2,2.8,1.7,4.2
		c0.4-1,0.8-2.1,1.3-3.4c0.5-1.3,1-2.7,1.6-4.1c0.6-1.5,1.1-3,1.7-4.5c0.6-1.5,1.2-3.1,1.7-4.6c0.6-1.5,1.1-2.9,1.6-4.3
		c0.5-1.4,1-2.6,1.4-3.7c0.2-0.5,0.4-0.8,0.7-1.1c0.3-0.2,0.7-0.3,1.2-0.3h5.2c0.6,0,1.1,0.1,1.4,0.3c0.3,0.2,0.5,0.5,0.5,0.9
		c0,0.1,0,0.3-0.1,0.6c0,0.2-0.1,0.4-0.1,0.5L329,92.2c-0.1,0.1-0.2,0.3-0.3,0.4c-0.1,0.1-0.2,0.3-0.4,0.4c-0.2,0.1-0.4,0.2-0.6,0.3
		c-0.2,0.1-0.5,0.1-0.9,0.1h-2.7c-0.7,0-1.2-0.1-1.5-0.4c-0.3-0.3-0.5-0.6-0.7-0.9c-1.2-2.9-2.4-5.9-3.7-8.7
		c-1.2-2.9-2.4-5.8-3.6-8.7l-7.2,17.5c-0.2,0.3-0.4,0.6-0.6,0.8c-0.2,0.3-0.7,0.4-1.3,0.4h-2.9c-0.7,0-1.3-0.1-1.5-0.4
		c-0.3-0.3-0.5-0.5-0.6-0.8L286,56.8z"/>
	<path class="st0" d="M381.7,89.1c-1.8,1.5-3.8,2.8-6,3.6c-2.2,0.9-4.6,1.3-7.2,1.3c-2.8,0-5.5-0.5-8-1.6c-2.5-1-4.7-2.5-6.6-4.3
		c-1.9-1.8-3.4-4-4.5-6.4c-1.1-2.5-1.7-5.1-1.7-7.9c0-1.8,0.2-3.6,0.7-5.3c0.5-1.7,1.1-3.3,2-4.8c0.8-1.5,1.9-2.9,3.1-4.1
		c1.2-1.2,2.6-2.3,4-3.2c1.5-0.9,3.1-1.6,4.8-2.1c1.7-0.5,3.6-0.7,5.5-0.7c1.6,0,3.1,0.2,4.7,0.6c1.5,0.4,3,0.9,4.4,1.6
		c1.4,0.7,2.7,1.5,3.9,2.5c1.2,1,2.3,2.1,3.2,3.4c1.2,1.7,2.2,3.6,2.7,5.6c0.6,2,0.9,4.2,0.9,6.6c0,0.6,0,1.1-0.1,1.5
		c-0.1,0.4-0.2,0.7-0.4,1c-0.2,0.2-0.5,0.4-0.9,0.5c-0.4,0.1-1,0.2-1.7,0.2h-27.7c0.3,1.5,0.8,2.8,1.5,3.9c0.8,1.1,1.7,2.1,2.7,2.9
		c1,0.8,2.2,1.4,3.4,1.8c1.2,0.4,2.5,0.6,3.7,0.6c0.9,0,1.8-0.1,2.7-0.3c0.9-0.2,1.7-0.4,2.4-0.7c0.7-0.3,1.4-0.7,2.1-1.1
		c0.6-0.4,1.2-0.8,1.7-1.2c0,0,0,0,0,0c0.2-0.2,0.5-0.4,0.7-0.5c0.2-0.1,0.5-0.2,0.7-0.2c0.2,0,0.4,0.1,0.6,0.2
		c0.2,0.1,0.5,0.3,0.7,0.6c0.6,0.7,1,1.2,1.4,1.7c0.4,0.5,0.7,0.8,1,1.1c0.2,0.3,0.4,0.6,0.5,0.8c0.1,0.2,0.2,0.5,0.2,0.7
		C382.9,88,382.5,88.5,381.7,89.1z M367.9,61.3c-1.2,0-2.4,0.2-3.6,0.7c-1.2,0.4-2.2,1-3.2,1.8c-1,0.8-1.8,1.7-2.5,2.7
		c-0.7,1-1.2,2.1-1.6,3.3h22.1c-0.3-1.3-0.8-2.4-1.5-3.4c-0.7-1-1.5-1.9-2.4-2.7c-1-0.8-2-1.3-3.3-1.7
		C370.6,61.5,369.3,61.3,367.9,61.3z"/>
</g>
<linearGradient id="SVGID_1_" gradientUnits="userSpaceOnUse" x1="10.4375" y1="26.6446" x2="129.6516" y2="107.0612">
	<stop  offset="9.772402e-02" style="stop-color:#FF5124"/>
	<stop  offset="0.5631" style="stop-color:#EA492F"/>
	<stop  offset="1" style="stop-color:#DB3805"/>
</linearGradient>
<circle class="st1" cx="67" cy="64.8" r="61.4"/>
<g>
	<path class="st2" d="M60.5,10.2c-1.5,1.5-2.3,2.6-3.7,5.3c-2.5,4.9-3.3,9.6-2.7,14.4c0.4,2.7,1.2,5.5,1.9,6
		c0.2,0.2,0.4,0.4,0.4,0.6c0,0.2,0.2,0.5,0.5,0.8c0.5,0.5,0.5,0.5-0.2,0.3c-1.6-0.5-3.6-2.1-5.1-4c-1.1-1.5-2.2-4.3-2.7-7.3
		c-0.1-0.6-0.3-1-0.6-1c-0.5,0-4.8,2.2-4.9,2.5c0,0.1-0.2,0.2-0.4,0.2s-0.6,0.2-1,0.5c-0.4,0.3-1.7,1.3-2.9,2.2
		c-2.1,1.6-6.1,5.5-7.4,7.3c-0.4,0.5-0.8,1-0.9,1.2c-0.3,0.3-1,1.3-2.4,3.5c-0.8,1.2-1.8,3.3-1.8,3.5c0,0.1,0.9-0.6,2-1.5
		c3.9-3.2,7-4.9,10.7-6.1c3.4-1,3.6-0.9,1,0.9c-2.3,1.6-7,6-8.6,8.2c-4.3,5.8-6.7,10.9-7.6,15.7c-0.7,3.6-0.7,10,0,10
		c0.1,0,0.2-0.2,0.2-0.5c0-2,3.1-8.8,5.3-11.6c2.5-3.3,7.1-7.3,8.2-7.3c0.1,0,0,0.2-0.2,0.5c-0.4,0.5-2,3.2-3.2,5.3
		c-2.4,4.5-4.1,10.8-4.1,15.3c0,4,1.4,9.3,3.4,12.6c0.5,0.8,0.9,1.6,0.9,1.6c0,0.3,3.5,4,4.9,5.1c1.2,1,3.1,2.2,4.7,3
		c1.6,0.8,4.1,1.6,4.3,1.4c0.1-0.1-0.7-1-1.8-2.1c-3.4-3.7-6.1-8.1-7.4-12.2c-1-2.9-0.4-10.4,0.9-12.1c0.3-0.4,0.4-0.3,0.4,1
		c0,3.4,1.6,7.2,4.4,10.8c0.9,1.2,1.7,2.2,1.8,2.2c0.1,0.1,0.9,1,1.9,2.2c1,1.1,1.8,2.1,1.9,2.2c1.1,1,5.1,6.8,5.1,7.3
		c0,0.1,0.1,0.3,0.2,0.4c0.4,0.1,2.4,4.5,3.2,6.9c0.5,1.4,0.8,3,0.9,4.7c0.1,1.4,0.2,2.5,0.3,2.5c0.6,0,2.9-3.6,3.6-5.7
		c0.8-2.4,1-6.9,0.4-9.5c-0.6-2.4-1.8-5.1-3.3-7.2c-0.6-0.9-1.1-1.7-1-1.7c1,0,6.3,5,7.4,7c0.3,0.6,0.8,1.5,1.2,2.1
		c1.3,2.4,1.9,4.9,1.9,8.3c0,4.1-1,7.2-3.3,11.1c-0.3,0.5-0.7,1.2-0.9,1.4c-0.4,0.7,0.1,0.6,2.1-0.5c4.5-2.5,9.7-7.7,12.1-12.2
		c0.8-1.5,1.7-5,1.7-6.6c0-2.4-1.2-6.8-2-7.8c-0.3-0.3-0.4-0.1-0.5,0.9c-0.4,2.9-2,7.7-2.2,6.5c-0.6-3.6-1.5-5.8-3.3-8.4
		c-2.1-3-4.1-4.7-11.3-9.1c-4.5-2.8-6.2-4-9.6-7.1c-1.5-1.3-3.3-3.2-3.3-3.4c0-0.1-0.2-0.3-0.3-0.5c-0.7-0.7-2-3.1-2.7-4.7
		c-0.6-1.4-0.6-2-0.6-5.2c0-3.2,0.1-3.9,0.7-5.8c0.4-1.2,1.2-2.9,1.7-3.9c1-1.7,3.5-4.5,5.1-5.7c1-0.8,4.3-2.4,5.4-2.6
		c0.8-0.2,0.8-0.1-0.6,1.1c-3.3,3.1-6.1,7.5-7,11c-0.8,2.7-0.8,8.5-0.1,8.5c0.1,0,0.3-0.1,0.3-0.3c0-0.6,1.4-3.3,2.5-4.8
		c0.7-0.9,1.8-2.1,2.5-2.7c0.7-0.6,1.4-1.1,1.5-1.2c0.2-0.3,3.8-2.1,4.6-2.3c0.7-0.2,0.8-0.3-1,2.3c-2.4,3.4-3.8,8.2-3.5,12.1
		c0.1,1.9,1.3,6.2,1.8,6.6c0.1,0.1,0.5,0.7,1,1.3c1,1.5,3,3.5,4.9,4.9c2,1.5,2.5,1.5,1.5,0c-1.5-2.2-2.5-7.5-1.9-10.4
		c0.3-1.7,1.6-4.5,1.9-4.5c0.1,0,0.2,0.7,0.2,1.5c0,4.2,1.4,7,5.7,11.2c1.7,1.7,3.9,3.8,4.9,4.7c5.2,4.8,7.6,8.9,8.2,14.3
		c0.4,3.1,0.2,5.8-0.7,8.3c-0.3,0.9-0.4,1.6-0.3,1.6c0.4,0,2.4-2.9,3.5-5c1.2-2.3,2.2-6.5,2.2-8.8c0-3-1-6.4-2.7-8.9
		c-1.4-2-2.6-3.2-5.7-5.6c-3.7-2.8-4.5-4.2-3.2-5.4c0.5-0.4,1-0.5,3.5-0.5c2.6,0,3.2,0.1,6.4,1.1c5.4,1.7,6,1.9,9.1,1.9
		c2.3,0,3.1-0.1,4.1-0.6c1.3-0.6,3.2-2.2,3.2-2.7c0-0.1-1.1-0.4-2.5-0.6c-1.5-0.2-3.6-0.7-5.3-1.3c-5-1.8-10.4-3.6-11.8-3.9
		C85.6,65,85,64.8,85,64.7c0-0.1,0.5-0.3,1.1-0.5c1.3-0.4,4.3,0,6.6,0.8c0.7,0.3,2.7,1,4.3,1.6c6.5,2.4,9.9,2.7,12.6,1.4
		c1.4-0.7,2.9-2,2.9-2.5c0-0.2-0.4-0.7-1-1.2c-1.4-1.2-2.2-3-2-4.4c0.1-0.6,2.1-1,4.1-0.9l2,0.1l-0.7-0.6c-0.4-0.3-1.3-1-2-1.5
		s-1.8-1.3-2.4-1.7c-2.2-1.6-4.6-3.4-4.9-3.6c-0.1-0.1-1.1-0.8-2-1.4s-1.8-1.3-1.9-1.3c-0.1-0.1-1-0.7-2.2-1.5
		c-1.1-0.7-2.2-1.5-2.3-1.6c-0.2-0.2-0.4-1.2-0.6-2.3c-0.5-2.9-1.2-4.2-3.8-6.8c-3.6-3.5-8.7-7.1-14.2-9.8c-1.8-0.9-3.5-1.7-3.8-1.9
		c-0.3-0.1-0.7-0.3-0.9-0.3c-0.3,0-0.9-1-1.6-2.6c-1.2-2.5-2.5-4.7-2.9-4.9c-0.1,0-0.2-0.2-0.2-0.4c0-0.2-0.9-1.4-3-3.8
		c-1.4-1.7-3.9-3.9-4.4-3.9C61.7,9.2,61,9.7,60.5,10.2 M61.5,16.2c-0.9,1.1-2.1,3.7-2.5,5.5c-0.2,0.9-0.3,2.7-0.2,4.3
		c0.1,2.5,0.2,3,1,4.6c1.3,2.6,4.5,5.6,4,3.7c-0.6-1.9-0.7-3.6-0.6-5.5c0.2-2.2,0.2-2.2,0.9-2.2c0.7,0,3.7,1.4,4.3,2
		c0.7,0.7,0.8,0.2,0.5-1.8c-0.4-1.9-2.1-5.9-3.5-8c-0.7-1.1-2.8-3.3-3.1-3.3C62.2,15.4,61.8,15.8,61.5,16.2 M76.7,17.4
		c-0.8,1.7-1.7,4.3-1.7,5.1c0,0.3,0.4,0.6,1,0.8c2.3,0.8,4.6,1.8,6.3,2.8c1,0.6,1.9,1.1,2,1.2c0.6,0.4-3.7-8.1-4.6-9.1
		c-0.2-0.2-0.4-0.4-0.4-0.5c0-0.2-1.5-1.9-1.7-1.9C77.5,15.7,77.1,16.5,76.7,17.4 M77.4,41.1l-2.3,0.2l1.2,0.5
		c3.9,1.7,4.4,2,5.4,3.4c1.6,2.3,2.7,2.9,5.7,3.2c1.9,0.2,2.9,0.4,3.9,0.9c1.7,0.8,1.7,0.9,1.7,0.3c0-1.2-5.1-7.4-6.1-7.4
		c-0.2,0-0.4-0.1-0.4-0.2C86.6,41.3,81.6,40.8,77.4,41.1"/>
	<path class="st3" d="M59.9,9.7c-1.5,1.5-2.3,2.6-3.7,5.3c-2.5,4.9-3.3,9.6-2.7,14.4c0.4,2.7,1.2,5.5,1.9,6c0.2,0.2,0.4,0.4,0.4,0.6
		s0.2,0.5,0.5,0.8c0.5,0.5,0.5,0.5-0.2,0.3c-1.6-0.5-3.6-2.1-5.1-4c-1.1-1.5-2.2-4.3-2.7-7.3c-0.1-0.6-0.3-1-0.6-1
		c-0.5,0-4.8,2.2-4.9,2.5c0,0.1-0.2,0.2-0.4,0.2c-0.2,0-0.6,0.2-1,0.5c-0.4,0.3-1.7,1.3-2.9,2.2c-2.1,1.6-6.1,5.5-7.4,7.3
		c-0.4,0.5-0.8,1-0.9,1.2c-0.3,0.3-1,1.3-2.4,3.5c-0.8,1.2-1.8,3.3-1.8,3.5c0,0.1,0.9-0.6,2-1.5c3.9-3.2,7-4.9,10.7-6.1
		c3.4-1,3.6-0.9,1,0.9c-2.3,1.6-7,6-8.6,8.2c-4.3,5.8-6.7,10.9-7.6,15.7c-0.7,3.6-0.7,10,0,10c0.1,0,0.2-0.2,0.2-0.5
		c0-2,3.1-8.8,5.3-11.6c2.5-3.3,7.1-7.3,8.2-7.3c0.1,0,0,0.2-0.2,0.5c-0.4,0.5-2,3.2-3.2,5.3c-2.4,4.5-4.1,10.8-4.1,15.3
		c0,4,1.4,9.3,3.4,12.6c0.5,0.8,0.9,1.6,0.9,1.6c0,0.3,3.5,4,4.9,5.1c1.2,1,3.1,2.2,4.7,3c1.6,0.8,4.1,1.6,4.3,1.4
		c0.1-0.1-0.7-1-1.8-2.1c-3.4-3.7-6.1-8.1-7.4-12.2c-1-2.9-0.4-10.4,0.9-12.1c0.3-0.4,0.4-0.3,0.4,1c0,3.4,1.6,7.2,4.4,10.8
		c0.9,1.2,1.7,2.2,1.8,2.2c0.1,0.1,0.9,1,1.9,2.2c1,1.1,1.8,2.1,1.9,2.2c1.1,1,5.1,6.8,5.1,7.3c0,0.1,0.1,0.3,0.2,0.4
		c0.4,0.1,2.4,4.5,3.2,6.9c0.5,1.4,0.8,3,0.9,4.7c0.1,1.4,0.2,2.5,0.3,2.5c0.6,0,2.9-3.6,3.6-5.7c0.8-2.4,1-6.9,0.4-9.5
		c-0.6-2.4-1.8-5.1-3.3-7.2c-0.6-0.9-1.1-1.7-1-1.7c1,0,6.3,5,7.4,7c0.3,0.6,0.8,1.5,1.2,2.1c1.3,2.4,1.9,4.9,1.9,8.3
		c0,4.1-1,7.2-3.3,11.1c-0.3,0.5-0.7,1.2-0.9,1.4c-0.4,0.7,0.1,0.6,2.1-0.5c4.5-2.5,9.7-7.7,12.1-12.2c0.8-1.5,1.7-5,1.7-6.6
		c0-2.4-1.2-6.8-2-7.8c-0.3-0.3-0.4-0.1-0.5,0.9c-0.4,2.9-2,7.7-2.2,6.5c-0.6-3.6-1.5-5.8-3.3-8.4c-2.1-3-4.1-4.7-11.3-9.1
		c-4.5-2.8-6.2-4-9.6-7.1c-1.5-1.3-3.3-3.2-3.3-3.4c0-0.1-0.2-0.3-0.3-0.5c-0.7-0.7-2-3.1-2.7-4.7c-0.6-1.4-0.6-2-0.6-5.2
		c0-3.2,0.1-3.9,0.7-5.8c0.4-1.2,1.2-2.9,1.7-3.9c1-1.7,3.5-4.5,5.1-5.7c1-0.8,4.3-2.4,5.4-2.6c0.8-0.2,0.8-0.1-0.6,1.1
		c-3.3,3.1-6.1,7.5-7,11c-0.8,2.7-0.8,8.5-0.1,8.5c0.1,0,0.3-0.1,0.3-0.3c0-0.6,1.4-3.3,2.5-4.8c0.7-0.9,1.8-2.1,2.5-2.7
		c0.7-0.6,1.4-1.1,1.5-1.2c0.2-0.3,3.8-2.1,4.6-2.3c0.7-0.2,0.8-0.3-1,2.3c-2.4,3.4-3.8,8.2-3.5,12.1c0.1,1.9,1.3,6.2,1.8,6.6
		c0.1,0.1,0.5,0.7,1,1.3c1,1.5,3,3.5,4.9,4.9c2,1.5,2.5,1.5,1.5,0c-1.5-2.2-2.5-7.5-1.9-10.4c0.3-1.7,1.6-4.5,1.9-4.5
		c0.1,0,0.2,0.7,0.2,1.5c0,4.2,1.4,7,5.7,11.2c1.7,1.7,3.9,3.8,4.9,4.7c5.2,4.8,7.6,8.9,8.2,14.3c0.4,3.1,0.2,5.8-0.7,8.3
		c-0.3,0.9-0.4,1.6-0.3,1.6c0.4,0,2.4-2.9,3.5-5c1.2-2.3,2.2-6.5,2.2-8.8c0-3-1-6.4-2.7-8.9c-1.4-2-2.6-3.2-5.7-5.6
		c-3.7-2.8-4.5-4.2-3.2-5.4c0.5-0.4,1-0.5,3.5-0.5c2.6,0,3.2,0.1,6.4,1.1c5.4,1.7,6,1.9,9.1,1.9c2.3,0,3.1-0.1,4.1-0.6
		c1.3-0.6,3.2-2.2,3.2-2.7c0-0.1-1.1-0.4-2.5-0.6c-1.5-0.2-3.6-0.7-5.3-1.3c-5-1.8-10.4-3.6-11.8-3.9c-0.8-0.2-1.4-0.5-1.4-0.6
		c0-0.1,0.5-0.3,1.1-0.5c1.3-0.4,4.3,0,6.6,0.8c0.7,0.3,2.7,1,4.3,1.6c6.5,2.4,9.9,2.7,12.6,1.4c1.4-0.7,2.9-2,2.9-2.5
		c0-0.2-0.4-0.7-1-1.2c-1.4-1.2-2.2-3-2-4.4c0.1-0.6,2.1-1,4.1-0.9l2,0.1l-0.7-0.6c-0.4-0.3-1.3-1-2-1.5c-0.7-0.5-1.8-1.3-2.4-1.7
		c-2.2-1.6-4.6-3.4-4.9-3.6c-0.1-0.1-1.1-0.8-2-1.4c-1-0.7-1.8-1.3-1.9-1.3c-0.1-0.1-1-0.7-2.2-1.5c-1.1-0.7-2.2-1.5-2.3-1.6
		c-0.2-0.2-0.4-1.2-0.6-2.3c-0.5-2.9-1.2-4.2-3.8-6.8c-3.6-3.5-8.7-7.1-14.2-9.8c-1.8-0.9-3.5-1.7-3.8-1.9c-0.3-0.1-0.7-0.3-0.9-0.3
		c-0.3,0-0.9-1-1.6-2.6c-1.2-2.5-2.5-4.7-2.9-4.9c-0.1,0-0.2-0.2-0.2-0.4c0-0.2-0.9-1.4-3-3.8c-1.4-1.7-3.9-3.9-4.4-3.9
		C61.2,8.7,60.5,9.1,59.9,9.7 M60.9,15.6c-0.9,1.1-2.1,3.7-2.5,5.5c-0.2,0.9-0.3,2.7-0.2,4.3c0.1,2.5,0.2,3,1,4.6
		c1.3,2.6,4.5,5.6,4,3.7c-0.6-1.9-0.7-3.6-0.6-5.5c0.2-2.2,0.2-2.2,0.9-2.2c0.7,0,3.7,1.4,4.3,2c0.7,0.7,0.8,0.2,0.5-1.8
		c-0.4-1.9-2.1-5.9-3.5-8c-0.7-1.1-2.8-3.3-3.1-3.3C61.6,14.9,61.3,15.2,60.9,15.6 M76.1,16.9c-0.8,1.7-1.7,4.3-1.7,5.1
		c0,0.3,0.4,0.6,1,0.8c2.3,0.8,4.6,1.8,6.3,2.8c1,0.6,1.9,1.1,2,1.2c0.6,0.4-3.7-8.1-4.6-9.1c-0.2-0.2-0.4-0.4-0.4-0.5
		c0-0.2-1.5-1.9-1.7-1.9C77,15.2,76.5,15.9,76.1,16.9 M76.9,40.6l-2.3,0.2l1.2,0.5c3.9,1.7,4.4,2,5.4,3.4c1.6,2.3,2.7,2.9,5.7,3.2
		c1.9,0.2,2.9,0.4,3.9,0.9c1.7,0.8,1.7,0.9,1.7,0.3c0-1.2-5.1-7.4-6.1-7.4c-0.2,0-0.4-0.1-0.4-0.2C86.1,40.7,81.1,40.3,76.9,40.6"/>
</g>
</svg>
