<?xml version="1.0" encoding="utf-8"?>
<!-- Generator: Adobe Illustrator 24.3.0, SVG Export Plug-In . SVG Version: 6.00 Build 0)  -->
<svg version="1.1" id="Layer_1" xmlns="http://www.w3.org/2000/svg" xmlns:xlink="http://www.w3.org/1999/xlink" x="0px" y="0px"
	 viewBox="0 0 411 132" style="enable-background:new 0 0 411 132;" xml:space="preserve">
<style type="text/css">
	.st0{fill:url(#SVGID_1_);}
	.st1{fill-rule:evenodd;clip-rule:evenodd;fill:#808080;}
	.st2{fill-rule:evenodd;clip-rule:evenodd;fill:#FFFFFF;}
</style>
<g>
	<g>
		<path d="M152.3,44.4c0-1.2,0.6-1.9,1.9-1.9h5.3c0.6,0,1.1,0.2,1.4,0.5c0.4,0.3,0.5,0.8,0.5,1.4v4.7c0,0.5-0.2,0.9-0.5,1.4
			c-0.3,0.4-0.8,0.6-1.4,0.6h-5.3c-1.3,0-1.9-0.7-1.9-2V44.4z M152.3,58.2c0-0.5,0.2-1,0.5-1.4c0.3-0.4,0.8-0.5,1.4-0.5h5.2
			c0.2,0,0.5,0,0.7,0.1c0.2,0.1,0.5,0.2,0.6,0.4c0.2,0.2,0.3,0.4,0.5,0.6c0.1,0.2,0.2,0.5,0.2,0.7V94c0,1.2-0.7,1.9-2,1.9h-5.2
			c-1.3,0-1.9-0.6-1.9-1.9V58.2z"/>
		<path d="M172.3,51.1c0-1,0.5-1.5,1.4-1.5h19.7c1.8,0,3.5,0.3,5.1,1c1.6,0.7,3,1.6,4.2,2.8c1.2,1.2,2.1,2.5,2.8,4.1
			c0.7,1.6,1,3.3,1,5.1c0,1.7-0.3,3.2-0.9,4.7c-0.6,1.5-1.4,2.7-2.5,3.8c0.9,0.6,1.6,1.3,2.3,2.1c0.7,0.8,1.3,1.7,1.8,2.6
			c0.5,0.9,0.9,1.9,1.2,3c0.3,1,0.4,2.1,0.4,3.2c0,1.8-0.4,3.6-1.1,5.3c-0.7,1.7-1.7,3.1-2.9,4.4c-1.2,1.3-2.6,2.3-4.3,3
			c-1.6,0.7-3.4,1.1-5.3,1.1h-21.7c-0.4,0-0.8-0.1-1-0.3c-0.3-0.2-0.4-0.6-0.4-1V51.1z M197.5,62.7c0-0.8-0.1-1.5-0.4-2.2
			c-0.3-0.7-0.7-1.3-1.2-1.8c-0.5-0.5-1.1-0.9-1.8-1.2s-1.5-0.4-2.3-0.4h-10.3v11.3h10.2c0.8,0,1.6-0.1,2.3-0.4
			c0.7-0.3,1.3-0.7,1.8-1.2c0.5-0.5,0.9-1.1,1.2-1.8C197.3,64.3,197.5,63.6,197.5,62.7z M199.5,81.8c0-0.7-0.1-1.4-0.4-2.1
			c-0.3-0.7-0.6-1.3-1-1.8c-0.4-0.5-1-1-1.6-1.4c-0.6-0.4-1.3-0.6-2-0.7c-0.4-0.1-0.8-0.1-1.3-0.2c-0.4-0.1-0.9-0.1-1.3-0.1h-10.5
			v12.6H192c0.4,0,0.9,0,1.3,0c0.4,0,0.8-0.1,1.3-0.2c0.7-0.1,1.4-0.3,2-0.7c0.6-0.4,1.1-0.8,1.6-1.4c0.5-0.6,0.8-1.2,1.1-1.9
			C199.4,83.3,199.5,82.6,199.5,81.8z"/>
		<path d="M215.2,58.1c0-0.6,0.2-1.1,0.6-1.4c0.4-0.3,0.9-0.5,1.3-0.5h4c0.5,0,0.9,0.2,1.2,0.5c0.3,0.3,0.5,0.7,0.6,1.2
			c0.1,0.5,0.3,0.9,0.3,1.5c0.1,0.5,0.1,1,0.2,1.4c0.5-0.6,1-1.3,1.6-1.9c0.6-0.6,1.2-1.2,2-1.6c0.7-0.5,1.6-0.9,2.5-1.2
			c0.9-0.3,2-0.4,3.1-0.4c1,0,2,0.1,2.8,0.2c0.8,0.1,1.6,0.3,2.4,0.6c0.8,0.3,1.5,0.6,2.3,1.1c0.7,0.4,1.5,1,2.4,1.6
			c0.4,0.2,0.7,0.5,0.9,0.8c0.3,0.3,0.4,0.6,0.4,1c0,0.2-0.1,0.3-0.1,0.5c0,0.2-0.1,0.4-0.3,0.6l-2.6,4c-0.2,0.2-0.4,0.4-0.6,0.5
			c-0.2,0.1-0.4,0.1-0.6,0.1c-0.3,0-0.7-0.1-1-0.2c-0.7-0.4-1.3-0.7-1.9-1.1c-0.6-0.3-1.1-0.6-1.7-0.9c-0.5-0.2-1.1-0.4-1.7-0.6
			c-0.6-0.1-1.2-0.2-1.9-0.2c-1.9,0-3.4,0.6-4.7,1.8c-1.3,1.2-2.2,2.8-2.6,4.9V94c0,1.2-0.7,1.9-2,1.9h-5.2c-1.3,0-2-0.6-2-1.9V58.1
			z"/>
		<path d="M248.1,76.1c0-1.9,0.2-3.7,0.7-5.5c0.5-1.8,1.2-3.4,2.1-4.9c0.9-1.5,2-2.9,3.2-4.1c1.3-1.2,2.7-2.3,4.2-3.2
			c1.5-0.9,3.2-1.6,4.9-2.1c1.8-0.5,3.6-0.7,5.5-0.7c1.9,0,3.7,0.2,5.5,0.7c1.8,0.5,3.4,1.2,4.9,2.1c1.5,0.9,2.9,1.9,4.2,3.2
			c1.3,1.2,2.3,2.6,3.2,4.1c0.9,1.5,1.6,3.1,2.1,4.9c0.5,1.8,0.7,3.6,0.7,5.5c0,1.9-0.2,3.7-0.7,5.4c-0.5,1.7-1.2,3.4-2.1,4.9
			c-0.9,1.5-2,2.9-3.2,4.1c-1.3,1.2-2.6,2.3-4.2,3.2c-1.5,0.9-3.2,1.6-4.9,2.1c-1.8,0.5-3.6,0.7-5.5,0.7c-1.9,0-3.7-0.2-5.5-0.7
			c-1.8-0.5-3.4-1.2-4.9-2.1c-1.5-0.9-2.9-1.9-4.2-3.2c-1.3-1.2-2.3-2.6-3.2-4.1c-0.9-1.5-1.6-3.1-2.1-4.9
			C248.4,79.8,248.1,78,248.1,76.1z M257,76.1c0,1.7,0.3,3.2,0.9,4.7c0.6,1.5,1.4,2.8,2.5,3.9c1,1.1,2.3,2,3.7,2.6
			c1.4,0.6,3,1,4.7,1c1.7,0,3.2-0.3,4.6-1c1.4-0.6,2.6-1.5,3.7-2.6c1-1.1,1.8-2.4,2.4-3.9c0.6-1.5,0.9-3.1,0.9-4.7
			c0-1.6-0.3-3.2-0.9-4.7c-0.6-1.5-1.4-2.8-2.4-3.9c-1-1.1-2.3-2-3.7-2.7c-1.4-0.7-3-1-4.6-1c-1.7,0-3.3,0.3-4.7,1
			c-1.4,0.7-2.7,1.6-3.7,2.7c-1,1.1-1.9,2.4-2.5,3.9C257.3,72.9,257,74.5,257,76.1z"/>
		<path d="M293.5,58.8c0-0.2-0.1-0.3-0.1-0.4s-0.1-0.3-0.1-0.4c0-0.1,0-0.3,0-0.4c0-0.4,0.1-0.7,0.4-0.9c0.3-0.2,0.7-0.4,1.3-0.4
			h5.7c1,0,1.6,0.5,2,1.4c0.4,1.1,0.8,2.4,1.4,3.8c0.5,1.5,1.1,3,1.7,4.7c0.6,1.6,1.2,3.3,1.8,5c0.6,1.7,1.2,3.2,1.8,4.7
			c0.6,1.5,1.1,2.8,1.5,4c0.5,1.2,0.8,2.1,1.1,2.7c0.9-2.6,2.2-6,3.6-10.1c1.5-4.1,3.3-9,5.4-14.8c0.2-0.5,0.4-0.9,0.8-1.1
			c0.3-0.2,0.7-0.3,1.2-0.3h5.5c0.7,0,1.1,0.1,1.3,0.3c0.2,0.2,0.4,0.5,0.4,0.8c0,0.2,0,0.4-0.1,0.6c-0.1,0.2-0.1,0.4-0.1,0.6
			l-3.3,7.9c0.4,1,0.9,2.2,1.5,3.5c0.6,1.3,1.1,2.6,1.8,4c0.6,1.4,1.2,2.8,1.9,4.3c0.6,1.5,1.2,2.9,1.7,4.2c0.4-1,0.8-2.1,1.3-3.5
			c0.5-1.3,1-2.7,1.6-4.2c0.6-1.5,1.1-3,1.7-4.5c0.6-1.6,1.2-3.1,1.8-4.6c0.6-1.5,1.1-2.9,1.7-4.3c0.5-1.4,1-2.6,1.4-3.7
			c0.2-0.5,0.4-0.9,0.7-1.1c0.3-0.2,0.7-0.3,1.2-0.3h5.2c0.6,0,1.1,0.1,1.4,0.3c0.3,0.2,0.5,0.5,0.5,0.9c0,0.1,0,0.3-0.1,0.6
			c0,0.2-0.1,0.4-0.1,0.5l-14.9,36c-0.1,0.1-0.2,0.3-0.3,0.4c-0.1,0.1-0.2,0.3-0.4,0.4c-0.2,0.1-0.4,0.2-0.6,0.3
			c-0.2,0.1-0.5,0.1-0.9,0.1H332c-0.7,0-1.2-0.1-1.5-0.4c-0.3-0.3-0.5-0.6-0.7-0.9c-1.2-3-2.5-5.9-3.7-8.8c-1.2-2.9-2.4-5.9-3.7-8.8
			l-7.2,17.7c-0.2,0.3-0.4,0.6-0.6,0.8c-0.2,0.3-0.7,0.4-1.3,0.4h-2.9c-0.8,0-1.3-0.1-1.5-0.4c-0.3-0.3-0.5-0.5-0.6-0.9L293.5,58.8z
			"/>
		<path d="M390,91.5c-1.8,1.6-3.9,2.8-6.1,3.7c-2.2,0.9-4.6,1.3-7.2,1.3c-2.8,0-5.5-0.5-8.1-1.6c-2.5-1.1-4.8-2.5-6.7-4.4
			c-1.9-1.8-3.4-4-4.5-6.5c-1.1-2.5-1.7-5.2-1.7-8c0-1.8,0.2-3.6,0.7-5.4c0.5-1.7,1.1-3.3,2-4.8c0.9-1.5,1.9-2.9,3.1-4.1
			c1.2-1.3,2.6-2.3,4.1-3.2c1.5-0.9,3.1-1.6,4.9-2.1c1.8-0.5,3.6-0.7,5.6-0.7c1.6,0,3.2,0.2,4.7,0.6c1.6,0.4,3,0.9,4.4,1.6
			c1.4,0.7,2.7,1.6,3.9,2.6c1.2,1,2.3,2.1,3.2,3.4c1.3,1.7,2.2,3.6,2.8,5.6c0.6,2,0.9,4.2,0.9,6.7c0,0.6,0,1.1-0.1,1.5
			c-0.1,0.4-0.2,0.7-0.4,1c-0.2,0.2-0.5,0.4-0.9,0.5c-0.4,0.1-1,0.2-1.8,0.2h-27.9c0.3,1.5,0.8,2.8,1.6,4c0.8,1.2,1.7,2.1,2.7,2.9
			c1,0.8,2.2,1.4,3.4,1.8c1.2,0.4,2.5,0.6,3.7,0.6c0.9,0,1.9-0.1,2.7-0.3c0.9-0.2,1.7-0.4,2.4-0.7c0.8-0.3,1.5-0.7,2.1-1.1
			c0.6-0.4,1.2-0.8,1.7-1.3c0,0,0,0,0,0c0.3-0.2,0.5-0.4,0.7-0.5c0.2-0.1,0.5-0.2,0.7-0.2c0.2,0,0.4,0.1,0.6,0.2
			c0.2,0.1,0.5,0.3,0.7,0.6c0.6,0.7,1,1.3,1.4,1.7c0.4,0.5,0.7,0.8,1,1.2c0.3,0.3,0.4,0.6,0.6,0.8c0.1,0.2,0.2,0.5,0.2,0.7
			C391.2,90.3,390.8,90.9,390,91.5z M376.1,63.4c-1.2,0-2.4,0.2-3.6,0.7c-1.2,0.4-2.3,1.1-3.2,1.8c-1,0.8-1.8,1.7-2.6,2.7
			c-0.7,1-1.3,2.2-1.6,3.4h22.3c-0.3-1.3-0.8-2.4-1.5-3.5c-0.7-1-1.5-2-2.5-2.7c-1-0.8-2.1-1.3-3.3-1.8
			C378.8,63.6,377.5,63.4,376.1,63.4z"/>
	</g>
	<linearGradient id="SVGID_1_" gradientUnits="userSpaceOnUse" x1="15.482" y1="28.443" x2="135.7495" y2="109.5702">
		<stop  offset="9.772402e-02" style="stop-color:#FF5124"/>
		<stop  offset="0.5631" style="stop-color:#EA492F"/>
		<stop  offset="1" style="stop-color:#DB3805"/>
	</linearGradient>
	<circle class="st0" cx="72.5" cy="66.9" r="61.9"/>
	<g>
		<path class="st1" d="M65.9,11.9c-1.6,1.5-2.3,2.6-3.7,5.4c-2.5,5-3.4,9.7-2.7,14.6c0.4,2.8,1.2,5.5,1.9,6.1
			c0.2,0.2,0.4,0.4,0.4,0.6c0,0.2,0.2,0.5,0.5,0.8c0.5,0.5,0.5,0.5-0.2,0.3c-1.6-0.5-3.6-2.1-5.1-4c-1.1-1.5-2.2-4.4-2.7-7.4
			c-0.1-0.6-0.3-1-0.6-1c-0.5,0-4.9,2.2-5,2.5c-0.1,0.1-0.2,0.2-0.4,0.2c-0.2,0-0.6,0.2-1,0.6c-0.4,0.3-1.7,1.3-2.9,2.2
			c-2.2,1.6-6.2,5.6-7.5,7.3c-0.4,0.5-0.8,1-1,1.2c-0.3,0.3-1,1.3-2.4,3.6c-0.8,1.2-1.9,3.3-1.9,3.6c0,0.1,0.9-0.6,2-1.5
			c4-3.3,7-5,10.8-6.1c3.5-1.1,3.6-0.9,1.1,0.9c-2.4,1.6-7.1,6.1-8.7,8.3c-4.3,5.9-6.8,11-7.7,15.8c-0.7,3.6-0.7,10.1,0,10.1
			c0.1,0,0.2-0.2,0.2-0.5c0-2,3.1-8.9,5.3-11.7c2.5-3.3,7.1-7.4,8.2-7.4c0.1,0,0,0.2-0.2,0.5c-0.4,0.5-2.1,3.2-3.2,5.4
			c-2.4,4.5-4.1,10.9-4.1,15.4c0,4,1.4,9.4,3.4,12.7c0.5,0.9,0.9,1.6,0.9,1.7c0,0.3,3.5,4.1,4.9,5.2c1.3,1,3.1,2.2,4.8,3
			c1.6,0.8,4.1,1.6,4.4,1.4c0.1-0.1-0.7-1-1.8-2.2c-3.5-3.7-6.1-8.1-7.5-12.3c-1-3-0.4-10.5,0.9-12.2c0.3-0.4,0.4-0.3,0.4,1
			c0,3.5,1.6,7.3,4.4,10.9c0.9,1.2,1.7,2.2,1.8,2.3c0.1,0.1,1,1.1,1.9,2.2c1,1.1,1.8,2.1,1.9,2.2c1.1,1,5.2,6.8,5.2,7.3
			c0,0.1,0.1,0.3,0.2,0.4c0.4,0.1,2.4,4.5,3.2,6.9c0.5,1.4,0.8,3,0.9,4.7c0.1,1.4,0.2,2.5,0.3,2.5c0.6,0,2.9-3.6,3.6-5.8
			c0.8-2.4,1-6.9,0.4-9.5c-0.6-2.5-1.8-5.1-3.3-7.3c-0.7-0.9-1.1-1.7-1-1.7c1,0,6.4,5,7.5,7c0.3,0.6,0.8,1.5,1.2,2.1
			c1.4,2.4,1.9,5,1.9,8.3c0,4.1-1,7.3-3.3,11.2c-0.3,0.5-0.7,1.2-0.9,1.4c-0.5,0.7,0.1,0.6,2.2-0.5c4.6-2.5,9.8-7.8,12.3-12.3
			c0.8-1.5,1.7-5,1.7-6.7c0-2.4-1.2-6.9-2.1-7.9c-0.3-0.3-0.4-0.1-0.5,1c-0.4,2.9-2,7.7-2.2,6.5c-0.6-3.7-1.5-5.8-3.3-8.5
			c-2.1-3.1-4.1-4.7-11.4-9.2c-4.5-2.8-6.2-4.1-9.7-7.1c-1.5-1.3-3.3-3.2-3.3-3.5c0-0.1-0.2-0.3-0.3-0.5c-0.7-0.7-2.1-3.2-2.7-4.8
			c-0.6-1.4-0.6-2-0.6-5.3c0-3.2,0.1-3.9,0.7-5.9c0.4-1.2,1.2-3,1.8-3.9c1-1.7,3.5-4.5,5.1-5.7c1-0.8,4.3-2.4,5.5-2.6
			c0.8-0.2,0.8-0.1-0.6,1.1c-3.3,3.1-6.1,7.6-7.1,11.1c-0.8,2.8-0.8,8.6-0.1,8.6c0.1,0,0.3-0.1,0.3-0.3c0-0.6,1.4-3.3,2.5-4.8
			c0.7-0.9,1.8-2.1,2.5-2.7c0.7-0.6,1.4-1.1,1.5-1.2c0.2-0.3,3.9-2.1,4.6-2.3c0.8-0.2,0.8-0.3-1,2.3c-2.4,3.4-3.8,8.3-3.6,12.2
			c0.1,1.9,1.3,6.3,1.8,6.7c0.1,0.1,0.5,0.7,1,1.3c1,1.5,3,3.5,4.9,4.9c2,1.5,2.6,1.5,1.5,0c-1.6-2.2-2.5-7.5-1.9-10.5
			c0.4-1.7,1.6-4.5,2-4.5c0.1,0,0.2,0.7,0.2,1.5c0,4.3,1.4,7.1,5.7,11.3c1.7,1.7,4,3.9,4.9,4.8c5.3,4.9,7.6,9,8.3,14.5
			c0.4,3.1,0.2,5.9-0.7,8.4c-0.3,0.9-0.4,1.6-0.3,1.6c0.4,0,2.4-2.9,3.5-5.1c1.2-2.3,2.2-6.6,2.2-8.9c0-3-1-6.4-2.8-8.9
			c-1.4-2-2.6-3.3-5.8-5.6c-3.7-2.8-4.6-4.2-3.2-5.5c0.5-0.4,1-0.5,3.5-0.5c2.7,0,3.2,0.1,6.5,1.1c5.5,1.7,6.1,1.9,9.1,1.9
			c2.3,0,3.1-0.1,4.1-0.6c1.3-0.6,3.3-2.3,3.3-2.7c0-0.1-1.1-0.4-2.5-0.6c-1.6-0.2-3.6-0.7-5.4-1.3c-5-1.8-10.5-3.6-11.9-4
			c-0.8-0.2-1.4-0.5-1.4-0.6c0-0.1,0.5-0.4,1.2-0.5c1.3-0.4,4.4,0,6.6,0.8c0.8,0.3,2.7,1,4.4,1.6c6.5,2.4,10,2.8,12.7,1.5
			c1.4-0.7,3-2,3-2.5c0-0.2-0.4-0.7-1-1.2c-1.4-1.2-2.2-3-2.1-4.5c0.1-0.6,2.1-1,4.2-0.9l2,0.1l-0.7-0.6c-0.4-0.3-1.3-1-2.1-1.5
			c-0.8-0.5-1.9-1.3-2.5-1.7c-2.2-1.6-4.7-3.4-4.9-3.6c-0.2-0.1-1.1-0.8-2-1.4c-1-0.7-1.8-1.3-1.9-1.4c-0.1-0.1-1.1-0.8-2.2-1.5
			c-1.1-0.7-2.2-1.5-2.3-1.6c-0.2-0.2-0.4-1.2-0.6-2.3c-0.5-2.9-1.2-4.2-3.9-6.8c-3.6-3.6-8.8-7.1-14.3-9.9
			c-1.8-0.9-3.5-1.8-3.8-1.9c-0.3-0.1-0.7-0.3-0.9-0.3c-0.3,0-0.9-1-1.7-2.7c-1.2-2.5-2.5-4.7-2.9-4.9c-0.1-0.1-0.2-0.2-0.2-0.4
			c0-0.3-0.9-1.4-3-3.9c-1.4-1.7-4-4-4.4-4C67.2,10.9,66.5,11.3,65.9,11.9 M67,17.9c-0.9,1.1-2.1,3.8-2.5,5.5
			c-0.2,0.9-0.3,2.7-0.2,4.4c0.1,2.6,0.2,3,1,4.6c1.3,2.6,4.5,5.6,4,3.8c-0.6-2-0.7-3.6-0.6-5.6c0.2-2.2,0.2-2.3,0.9-2.3
			c0.7,0,3.7,1.4,4.4,2.1c0.7,0.7,0.8,0.2,0.5-1.8c-0.4-2-2.1-5.9-3.5-8.1c-0.8-1.1-2.8-3.3-3.1-3.3C67.7,17.1,67.3,17.5,67,17.9
			 M82.3,19.1c-0.8,1.8-1.7,4.3-1.7,5.1c0,0.3,0.4,0.6,1,0.8c2.3,0.8,4.7,1.8,6.3,2.9c1,0.6,1.9,1.1,2,1.2c0.6,0.4-3.7-8.2-4.6-9.1
			c-0.2-0.2-0.4-0.4-0.4-0.5c0-0.2-1.5-2-1.7-2C83.2,17.4,82.7,18.2,82.3,19.1 M83.1,43l-2.3,0.2l1.2,0.5c4,1.7,4.4,2,5.5,3.5
			c1.6,2.3,2.8,2.9,5.8,3.2c1.9,0.2,2.9,0.4,4,0.9c1.7,0.8,1.7,0.9,1.7,0.3c0-1.2-5.2-7.5-6.2-7.5c-0.2,0-0.4-0.1-0.4-0.2
			C92.3,43.2,87.3,42.7,83.1,43"/>
		<path class="st2" d="M65.4,11.3c-1.6,1.5-2.3,2.6-3.7,5.4c-2.5,5-3.4,9.7-2.7,14.6c0.4,2.8,1.2,5.5,1.9,6.1
			c0.2,0.2,0.4,0.4,0.4,0.6c0,0.2,0.2,0.5,0.5,0.8c0.5,0.5,0.5,0.5-0.2,0.3c-1.6-0.5-3.6-2.1-5.1-4c-1.1-1.5-2.2-4.4-2.7-7.4
			c-0.1-0.6-0.3-1-0.6-1c-0.5,0-4.9,2.2-5,2.5c-0.1,0.1-0.2,0.2-0.4,0.2c-0.2,0-0.6,0.2-1,0.6c-0.4,0.3-1.7,1.3-2.9,2.2
			c-2.2,1.6-6.2,5.6-7.5,7.3c-0.4,0.5-0.8,1-1,1.2c-0.3,0.3-1,1.3-2.4,3.6c-0.8,1.2-1.9,3.3-1.9,3.6c0,0.1,0.9-0.6,2-1.5
			c4-3.3,7-5,10.8-6.1c3.5-1.1,3.6-0.9,1.1,0.9c-2.4,1.6-7.1,6.1-8.7,8.3c-4.3,5.9-6.8,11-7.7,15.8c-0.7,3.6-0.7,10.1,0,10.1
			c0.1,0,0.2-0.2,0.2-0.5c0-2,3.1-8.9,5.3-11.7c2.5-3.3,7.1-7.4,8.2-7.4c0.1,0,0,0.2-0.2,0.5c-0.4,0.5-2.1,3.2-3.2,5.4
			C36.7,66,35,72.4,35,76.9c0,4,1.4,9.4,3.4,12.7c0.5,0.9,0.9,1.6,0.9,1.7c0,0.3,3.5,4.1,4.9,5.2c1.3,1,3.1,2.2,4.8,3
			c1.6,0.8,4.1,1.6,4.4,1.4c0.1-0.1-0.7-1-1.8-2.2c-3.5-3.7-6.1-8.1-7.5-12.3c-1-3-0.4-10.5,0.9-12.2c0.3-0.4,0.4-0.3,0.4,1
			c0,3.5,1.6,7.3,4.4,10.9c0.9,1.2,1.7,2.2,1.8,2.3c0.1,0.1,1,1.1,1.9,2.2c1,1.1,1.8,2.1,1.9,2.2c1.1,1,5.2,6.8,5.2,7.3
			c0,0.1,0.1,0.3,0.2,0.4c0.4,0.1,2.4,4.5,3.2,6.9c0.5,1.4,0.8,3,0.9,4.7c0.1,1.4,0.2,2.5,0.3,2.5c0.6,0,2.9-3.6,3.6-5.8
			c0.8-2.4,1-6.9,0.4-9.5c-0.6-2.5-1.8-5.1-3.3-7.3c-0.7-0.9-1.1-1.7-1-1.7c1,0,6.4,5,7.5,7c0.3,0.6,0.8,1.5,1.2,2.1
			c1.4,2.4,1.9,5,1.9,8.3c0,4.1-1,7.3-3.3,11.2c-0.3,0.5-0.7,1.2-0.9,1.4c-0.5,0.7,0.1,0.6,2.2-0.5c4.6-2.5,9.8-7.8,12.3-12.3
			c0.8-1.5,1.7-5,1.7-6.7c0-2.4-1.2-6.9-2.1-7.9c-0.3-0.3-0.4-0.1-0.5,1c-0.4,2.9-2,7.7-2.2,6.5c-0.6-3.7-1.5-5.8-3.3-8.5
			c-2.1-3.1-4.1-4.7-11.4-9.2c-4.5-2.8-6.2-4.1-9.7-7.1c-1.5-1.3-3.3-3.2-3.3-3.5c0-0.1-0.2-0.3-0.3-0.5c-0.7-0.7-2.1-3.2-2.7-4.8
			c-0.6-1.4-0.6-2-0.6-5.3c0-3.2,0.1-3.9,0.7-5.9c0.4-1.2,1.2-3,1.8-3.9c1-1.7,3.5-4.5,5.1-5.7c1-0.8,4.3-2.4,5.5-2.6
			c0.8-0.2,0.8-0.1-0.6,1.1c-3.3,3.1-6.1,7.6-7.1,11.1c-0.8,2.8-0.8,8.6-0.1,8.6c0.1,0,0.3-0.1,0.3-0.3c0-0.6,1.4-3.3,2.5-4.8
			c0.7-0.9,1.8-2.1,2.5-2.7c0.7-0.6,1.4-1.1,1.5-1.2c0.2-0.3,3.9-2.1,4.6-2.3c0.8-0.2,0.8-0.3-1,2.3c-2.4,3.4-3.8,8.3-3.6,12.2
			c0.1,1.9,1.3,6.3,1.8,6.7c0.1,0.1,0.5,0.7,1,1.3c1,1.5,3,3.5,4.9,4.9c2,1.5,2.6,1.5,1.5,0c-1.6-2.2-2.5-7.5-1.9-10.5
			c0.4-1.7,1.6-4.5,2-4.5c0.1,0,0.2,0.7,0.2,1.5c0,4.3,1.4,7.1,5.7,11.3c1.7,1.7,4,3.9,4.9,4.8c5.3,4.9,7.6,9,8.3,14.5
			c0.4,3.1,0.2,5.9-0.7,8.4c-0.3,0.9-0.4,1.6-0.3,1.6c0.4,0,2.4-2.9,3.5-5.1c1.2-2.3,2.2-6.6,2.2-8.9c0-3-1-6.4-2.8-8.9
			c-1.4-2-2.6-3.3-5.8-5.6c-3.7-2.8-4.6-4.2-3.2-5.5c0.5-0.4,1-0.5,3.5-0.5c2.7,0,3.2,0.1,6.5,1.1c5.5,1.7,6.1,1.9,9.1,1.9
			c2.3,0,3.1-0.1,4.1-0.6c1.3-0.6,3.3-2.3,3.3-2.7c0-0.1-1.1-0.4-2.5-0.6c-1.6-0.2-3.6-0.7-5.4-1.3c-5-1.8-10.5-3.6-11.9-4
			c-0.8-0.2-1.4-0.5-1.4-0.6c0-0.1,0.5-0.4,1.2-0.5c1.3-0.4,4.4,0,6.6,0.8c0.8,0.3,2.7,1,4.4,1.6c6.5,2.4,10,2.8,12.7,1.5
			c1.4-0.7,3-2,3-2.5c0-0.2-0.4-0.7-1-1.2c-1.4-1.2-2.2-3-2.1-4.5c0.1-0.6,2.1-1,4.2-0.9l2,0.1l-0.7-0.6c-0.4-0.3-1.3-1-2.1-1.5
			s-1.9-1.3-2.5-1.7c-2.2-1.6-4.7-3.4-4.9-3.6c-0.2-0.1-1.1-0.8-2-1.4c-1-0.7-1.8-1.3-1.9-1.4c-0.1-0.1-1.1-0.8-2.2-1.5
			s-2.2-1.5-2.3-1.6c-0.2-0.2-0.4-1.2-0.6-2.3c-0.5-2.9-1.2-4.2-3.9-6.8c-3.6-3.6-8.8-7.1-14.3-9.9c-1.8-0.9-3.5-1.8-3.8-1.9
			c-0.3-0.1-0.7-0.3-0.9-0.3c-0.3,0-0.9-1-1.7-2.7c-1.2-2.5-2.5-4.7-2.9-4.9c-0.1-0.1-0.2-0.2-0.2-0.4c0-0.3-0.9-1.4-3-3.9
			c-1.4-1.7-4-4-4.4-4C66.7,10.3,66,10.8,65.4,11.3 M66.4,17.3c-0.9,1.1-2.1,3.8-2.5,5.5c-0.2,0.9-0.3,2.7-0.2,4.4
			c0.1,2.6,0.2,3,1,4.6c1.3,2.6,4.5,5.6,4,3.8c-0.6-2-0.7-3.6-0.6-5.6c0.2-2.2,0.2-2.3,0.9-2.3c0.7,0,3.7,1.4,4.4,2.1
			c0.7,0.7,0.8,0.2,0.5-1.8c-0.4-2-2.1-5.9-3.5-8.1c-0.8-1.1-2.8-3.3-3.1-3.3C67.1,16.6,66.8,16.9,66.4,17.3 M81.7,18.6
			c-0.8,1.8-1.7,4.3-1.7,5.1c0,0.3,0.4,0.6,1,0.8c2.3,0.8,4.7,1.8,6.3,2.9c1,0.6,1.9,1.1,2,1.2c0.6,0.4-3.7-8.2-4.6-9.1
			c-0.2-0.2-0.4-0.4-0.4-0.5c0-0.2-1.5-2-1.7-2C82.6,16.9,82.2,17.6,81.7,18.6 M82.5,42.5l-2.3,0.2l1.2,0.5c4,1.7,4.4,2,5.5,3.5
			c1.6,2.3,2.8,2.9,5.8,3.2c1.9,0.2,2.9,0.4,4,0.9c1.7,0.8,1.7,0.9,1.7,0.3c0-1.2-5.2-7.5-6.2-7.5c-0.2,0-0.4-0.1-0.4-0.2
			C91.8,42.7,86.8,42.2,82.5,42.5"/>
	</g>
</g>
</svg>
