<svg version="1.2" xmlns="http://www.w3.org/2000/svg" viewBox="0 0 24 24" width="24" height="24">
	<title>brave</title>
	<style>
		.s0 { fill: #341c21 } 
		.s1 { fill: #fefefe } 
		.s2 { fill: #fa2e06 } 
		.s3 { fill: #e3d2cc } 
		.s4 { fill: #fb8242 } 
		.s5 { fill: #d5120a } 
		.s6 { fill: #c5b5af } 
		.s7 { fill: #f2bd9f } 
	</style>
	<g id="Layer 1">
		<g id="Layer 1">
			<path class="s0" d="m18 1.4q0.1 0 0.3 0.1c0.3 0.1 0.5 0.4 0.7 0.8 0.7 1.4 1 3.2 0.8 4.8q-0.1 0.5-0.2 0.9c0.3 0.9 0.5 2.2 1.5 2.8q0.2 0.1 0.4 0.2c0.1 0 0.2 0 0.3 0.1 0.1 0.1 0.1 0.1 0.2 0.2q0 0.1-0.1 0.1c-0.1 0.5-0.6 1-1 1.2 0.2 0.3 0.6 0.6 0.6 1 0 0.2-0.1 0.6-0.2 0.8-0.4 1.8-1.3 3.3-2.4 4.7q-0.5 0.5-1.1 1-0.3 0.3-0.7 0.6c-1.1 0.9-2.4 1.7-3.8 2.2-0.2 0.1-0.7 0.4-0.9 0.4-0.3 0-0.7-0.2-0.9-0.3q-0.5-0.2-0.9-0.4c-1.4-0.6-2.6-1.4-3.7-2.4q-0.4-0.4-0.7-0.7c-1.2-1.3-2.2-2.9-2.7-4.6-0.1-0.5-0.2-0.9-0.3-1.4 0.1-0.3 0.4-0.6 0.6-0.9-0.7-0.4-0.9-0.8-1.1-1.5 0.3 0 0.6-0.1 0.9-0.3 0.8-0.4 1.2-1.8 1.5-2.6-0.2-0.8-0.3-1.6-0.3-2.4 0.1-1.1 0.3-2.2 0.7-3.2 0.2-0.3 0.3-0.7 0.6-0.9q0.2-0.3 0.6-0.3c0.8 0.1 2.8 2.2 3.4 2.8q0.5-0.1 0.9-0.1c0.8-0.2 1.7-0.2 2.6-0.1q0.5 0.1 1 0.2 0.3-0.3 0.5-0.5c0.7-0.7 1.4-1.4 2.2-1.9 0.1-0.1 0.3-0.2 0.5-0.3q0.1-0.1 0.2-0.1z"/>
			<path class="s1" d="m3.4 11.5q0.2-0.1 0.3-0.1c0.6-0.2 1-0.9 1.3-1.4q0.1-0.2 0.2-0.5-0.1 0.4-0.2 0.8c-0.2 0.5-0.5 1.1-1 1.3q-0.1 0-0.2 0c0.2 0.3 0.5 0.4 0.7 0.5 0.1 0 0.2 0 0.3 0.1-0.2 0-0.5 0-0.7-0.1q-0.5-0.2-0.7-0.6z"/>
			<path class="s2" d="m5 10.3q0 0.3 0 0.5 0 0.2 0 0.3 0 0.2 0 0.4 0 0.1 0.1 0.3 0 0.2 0 0.3-0.1 0-0.3 0.1c-0.1-0.1-0.2-0.1-0.3-0.1-0.2-0.1-0.5-0.2-0.7-0.5q0.1 0 0.2 0c0.5-0.2 0.8-0.8 1-1.3z"/>
			<path class="s3" d="m18 2.6q0 0 0 0-0.1 0.2-0.2 0.4-0.1 0.3-0.1 0.6-0.1 0.4-0.1 0.7 0 0.2-0.1 0.4c-0.3 0-0.6 0.3-0.9 0.5 0.1-0.5 0.3-1.1 0.6-1.6q0.1-0.2 0.2-0.4c0.1-0.1 0.1-0.2 0.2-0.2q0.1-0.2 0.4-0.4z"/>
			<path class="s3" d="m6.6 2.7q0.1 0 0.2 0c0.1 0.1 0.1 0.2 0.2 0.2h0.1c0.4 0.4 0.7 1.1 0.8 1.7q0 0.3 0.1 0.6c-0.1-0.1-0.6-0.5-0.8-0.5q0 0 0 0 0 0 0 0.1c0-0.2 0-0.3-0.1-0.4-0.1-0.6-0.2-1.2-0.5-1.7z"/>
			<path class="s4" d="m8.4 5.9c-0.1 0.1-0.2 0.2-0.3 0.3q-0.3 0.3-0.6 0.6c-0.9 1-1.6 2.4-1.9 3.8q-0.1 0.4-0.1 0.9-0.1 0.1-0.1 0.2c0 0.1 0.1 0.3 0 0.3-0.1-0.5-0.1-1.1 0-1.7q0 0 0-0.1 0-0.1 0-0.1 0.1-0.1 0.1-0.1 0-0.1 0-0.2 0 0 0-0.1 0.1-0.1 0.1-0.1 0-0.1 0-0.2 0 0 0.1-0.1 0-0.1 0-0.1 0-0.1 0.1-0.1 0-0.1 0-0.2 0 0 0.1-0.1 0 0 0-0.1 0-0.1 0.1-0.1 0-0.1 0-0.1 0.1-0.1 0.1-0.2 0 0 0.1-0.1 0 0 0-0.1 0.1-0.1 0.1-0.1 0-0.1 0.1-0.1 0-0.1 0-0.1 0.1-0.1 0.1-0.1 0-0.1 0.1-0.2 0 0 0.1-0.1 0 0 0-0.1 0.1 0 0.1-0.1 0.1 0 0.1-0.1 0.1 0 0.1-0.1 0.1 0 0.1-0.1 0 0 0.1-0.1 0 0 0.1-0.1 0 0 0.1 0 0.4-0.4 0.9-0.8z"/>
			<path class="s5" d="m19.6 9.8q0.1 0.2 0.3 0.5c0.3 0.5 0.8 1 1.4 1.2-0.2 0.3-0.6 0.7-1 0.7-0.1 0-0.3 0-0.4 0q0 0 0 0c0 0.1 0 0.3 0 0.5q-0.1 0.3-0.2 0.6c-0.3 1.1-0.9 2.1-1.8 3-0.1 0.1-0.3 0.3-0.4 0.4q0 0-0.1 0c0.1-0.5 0.2-0.9 0.1-1.4q0.2-0.1 0.3-0.3 0.5-0.4 0.9-0.9c0.7-0.8 1-1.9 1-2.9q0-0.7-0.1-1.4z"/>
			<path class="s1" d="m6.6 2.6q0 0.1 0 0.1c0.3 0.5 0.4 1.1 0.5 1.7 0.1 0.1 0.1 0.2 0.1 0.4 0 0.1-0.1 0.2-0.1 0.4q0 0.4 0 0.8c-0.3-0.3-0.4-0.5-0.5-1-0.1 0.6 0 1.2 0.4 1.8-0.4 0.3-0.7 0.8-1 1.2-0.1-0.3-0.1-0.5-0.2-0.7q0-0.2 0-0.3-0.1-0.2-0.1-0.3 0-0.1 0-0.3 0-0.1 0-0.3 0-0.1 0-0.3 0-0.1 0-0.2 0-0.2 0-0.3 0-0.2 0-0.3c0.1-0.6 0.4-2 0.9-2.4z"/>
			<path class="s1" d="m18.1 2.5c0.6 0.7 0.8 2.1 0.9 3q0 0.7 0 1.3c-0.1 0.4-0.2 0.8-0.4 1.2-0.2-0.5-0.5-0.9-0.9-1.2 0.4-0.5 0.5-1.2 0.5-1.8q-0.1 0.5-0.4 1c-0.1-0.4-0.3-0.9-0.3-1.3q0.1-0.2 0.1-0.4 0-0.3 0.1-0.7 0-0.3 0.1-0.6 0.1-0.2 0.2-0.4 0 0 0 0 0-0.1 0.1-0.1z"/>
			<path class="s5" d="m17.2 6.6q0.2 0.2 0.4 0.4c0.9 1 1.6 2.4 1.7 3.7 0.1 0.5 0.1 1 0 1.5-0.1 0.6-0.6 1.4-1.1 2-0.6 0.8-1.7 1.6-2.7 2-0.1 0.1-0.7 0.3-0.8 0.3-0.1 0-0.3 0.1-0.4 0.1q0.1 0 0.1 0 0.3-0.1 0.5-0.2c0.8-0.4 1.7-1.3 2.2-2 0.1-0.3 0.3-0.7 0.4-1q0.4-1-0.1-2c0.5 0 0.8 0.2 1.2 0.5q0-0.1 0-0.2 0-0.1 0-0.1-0.1-0.1-0.1-0.2 0 0 0-0.1c-0.3-0.5-0.8-0.9-1.3-1.1q-0.2 0.1-0.5 0.2c0.1-0.1 0.2-0.2 0.2-0.2 0.2-0.2 0.4-0.4 0.6-0.6 0.3-0.7 0.3-1.6 0-2.4q-0.1-0.2-0.2-0.4-0.1-0.1-0.1-0.2 0 0 0 0z"/>
			<path class="s2" d="m19.9 12.2q0.3 0.4 0.5 0.7 0.3 0.3 0.6 0.7c-0.3 1.5-0.9 2.8-1.7 4q-0.5 0.8-1.1 1.4c-0.1 0-0.6 0.4-0.7 0.5q-0.2 0.1-0.4 0.2 0.3-0.3 0.6-0.7c0.2-0.3 0.4-0.7 0.5-1.1q0 0.1-0.1 0.2c-0.5 0.5-1 1.1-1.7 1.2q-0.3 0.1-0.6 0.1 0.2 0 0.3-0.1c0.7-0.5 1.2-1.8 1.3-2.6q0.1 0 0.1 0c0.1-0.1 0.3-0.3 0.4-0.4 0.9-0.9 1.5-1.9 1.8-3q0.1-0.3 0.2-0.6c0-0.2 0-0.4 0-0.5q0 0 0 0z"/>
			<path class="s1" d="m3.7 13.5q0.1 0 0.1 0c0.2-0.4 0.7-0.9 1.1-1.2 0 0 0.1-0.1 0.2-0.1q0 0 0 0c0.1 0.3 0.2 0.6 0.3 0.8 0.3 0.7 0.8 1.3 1.3 1.8 0.2 0.2 0.4 0.3 0.5 0.5 0.8 0.5 1.7 1 2.5 1.2q0.3 0.1 0.5 0.1 0.1 0 0.3 0c0.1 0 0.2 0 0.3 0 0.5 0.3 1 0.4 1.5 0.4 0.5 0.1 0.9 0 1.3-0.2q0.2-0.1 0.4-0.2c0.1 0 0.3 0 0.4 0q0 0-0.1 0c0.1 0 0.3-0.1 0.4-0.1 1-0.1 1.9-0.6 2.8-1.2 0.1 0.5 0 0.9-0.1 1.4-0.1 0.8-0.6 2.1-1.3 2.6q-0.1 0.1-0.3 0.1 0.3 0 0.6-0.1c0.7-0.1 1.2-0.7 1.7-1.2q0.1-0.1 0.1-0.2c-0.1 0.4-0.3 0.8-0.5 1.1q-0.3 0.4-0.6 0.7 0.2-0.1 0.4-0.2c0.1-0.1 0.6-0.5 0.7-0.5q-0.5 0.5-1 0.9-0.1 0.1-0.3 0.3-0.1 0.1-0.2 0.2-0.2 0.1-0.3 0.2-0.1 0.1-0.3 0.2-0.1 0.1-0.3 0.2-0.1 0.1-0.3 0.2-0.1 0.1-0.3 0.2-0.1 0.1-0.3 0.2-0.1 0.1-0.3 0.1-0.1 0.1-0.3 0.2-0.2 0.1-0.3 0.2-0.2 0-0.3 0.1-0.2 0.1-0.4 0.2-0.1 0-0.3 0.1-0.2 0.1-0.3 0.1-0.2 0.1-0.4 0.1-0.5-0.2-1.1-0.4c-1.3-0.6-2.6-1.4-3.7-2.3-1.6-1.3-2.8-3.1-3.5-5.1q-0.2-0.7-0.3-1.4z"/>
			<path class="s6" d="m14.7 16.5c1-0.1 1.9-0.6 2.8-1.2-0.3 0.9-0.9 1.7-1.7 2.3-0.3 0.2-0.6 0.3-0.9 0.6-0.8 0.5-1.7 1.2-2.1 2.1-0.2 0.4-0.3 0.9-0.4 1.4q0-0.1 0-0.1c-0.1-0.4 0-0.8 0-1.2l-0.1-3.4c0.5 0.1 0.9 0 1.3-0.2q0.2-0.1 0.4-0.2c0.1 0 0.3 0 0.4 0q0 0-0.1 0c0.1 0 0.3-0.1 0.4-0.1z"/>
			<path class="s3" d="m7.2 15.3c0.8 0.5 1.7 1 2.5 1.2q0.3 0.1 0.5 0.1 0.1 0 0.3 0c0.1 0 0.2 0 0.3 0 0.5 0.3 1 0.4 1.5 0.4l0.1 3.4c0 0.4-0.1 0.8 0 1.2q0 0 0 0.1 0 0 0 0-0.1-0.2-0.2-0.5-0.1-0.5-0.3-0.9c-0.4-0.9-1.3-1.7-2.1-2.2-0.3-0.1-0.5-0.3-0.8-0.4q-0.3-0.2-0.5-0.4-0.2-0.1-0.3-0.2c-0.2-0.1-0.7-0.5-0.9-0.6 0 0 0 0.1 0 0.1q0 0 0-0.1 0-0.3 0-0.6-0.1-0.3-0.1-0.6z"/>
			<path class="s2" d="m5.1 12.2q0 0 0 0c0.1 0.3 0.2 0.6 0.3 0.8 0.3 0.7 0.8 1.3 1.3 1.8 0.2 0.2 0.4 0.3 0.5 0.5q0 0.3 0.1 0.6 0 0.3 0 0.6 0 0.1 0 0.1 0 0.2 0.1 0.4c0.2 0.8 0.5 1.6 1.1 2.2q0.2 0.1 0.4 0.2c-0.8-0.1-1.4-0.5-1.9-1.1-0.1-0.1-0.2-0.3-0.3-0.4h-0.1c0.1 0.3 0.4 0.9 0.6 1.2q0.2 0.3 0.4 0.6-0.2-0.1-0.4-0.3c-1.3-1.1-2.8-3.3-2.9-5.1 0-0.8 0.3-1.5 0.8-2.1z"/>
			<path class="s5" d="m5.1 12.2q0 0 0 0c0.1 0.3 0.2 0.6 0.3 0.8 0.3 0.7 0.8 1.3 1.3 1.8 0.2 0.2 0.4 0.3 0.5 0.5q0 0.3 0.1 0.6 0 0.3 0 0.6c-0.1-0.1-0.5-0.4-0.6-0.6-0.9-0.9-1.4-1.9-1.5-3.2q-0.1-0.2-0.1-0.5z"/>
			<path class="s2" d="m16.8 2.9c0.2-0.3 0.8-0.8 1.1-0.9q0.1-0.1 0.2-0.1c0.1 0 0.1 0.1 0.2 0.2 0.2 0.2 0.3 0.5 0.4 0.8 0.5 1.1 0.7 2.4 0.6 3.6 0 0.7-0.2 1.3-0.4 1.9q-0.1-0.2-0.3-0.4c0.2-0.4 0.3-0.8 0.4-1.2q0-0.6 0-1.3c-0.1-0.9-0.3-2.3-0.9-3q-0.1 0-0.1 0.1-0.3 0.2-0.4 0.4c-0.1 0-0.1 0.1-0.2 0.2q-0.1 0.1-0.2 0.3c-0.4 0.6-0.7 1.2-0.8 1.9q-0.1 0.2-0.2 0.5c0.4 0.2 0.7 0.4 1 0.7q0 0 0 0 0 0.1 0.1 0.2 0.1 0.2 0.2 0.4c0.3 0.8 0.3 1.7 0 2.4-0.2 0.2-0.4 0.4-0.6 0.6 0 0-0.1 0.1-0.2 0.2q0.3-0.1 0.5-0.2c0.5 0.2 1 0.6 1.3 1.1q0 0.1 0 0.1 0 0.1 0.1 0.2 0 0 0 0.1 0 0.1 0 0.2c-0.4-0.3-0.7-0.5-1.2-0.5q0.5 1 0.1 2c-0.1 0.3-0.3 0.7-0.4 1-0.5 0.7-1.4 1.6-2.2 2q-0.2 0.1-0.5 0.2c-0.1 0-0.3 0-0.4 0q-0.2 0.1-0.4 0.2c-0.4 0.2-0.8 0.3-1.3 0.2-0.5 0-1-0.1-1.5-0.4-0.1 0-0.2 0-0.3 0q-0.2 0-0.3 0c0 0-0.8-0.3-1-0.4q-0.5-0.2-1-0.5c-1.1-0.8-2.5-2.3-2.8-3.7 0.1 0 0-0.2 0-0.3q0-0.1 0.1-0.2 0-0.5 0.1-0.9c0.3-1.4 1-2.8 1.9-3.8q0.3-0.3 0.6-0.6c0.1-0.1 0.2-0.2 0.3-0.3h-0.1q0-0.2 0-0.4-0.1-0.4-0.2-0.8c-0.2-0.5-0.4-1.1-0.8-1.5 0-0.1-0.1-0.3-0.2-0.3h-0.1c-0.1 0-0.1-0.1-0.2-0.2q-0.1 0-0.2 0 0 0 0-0.1c-0.5 0.4-0.8 1.8-0.9 2.4q0 0.1 0 0.3 0 0.1 0 0.3 0 0.1 0 0.2 0 0.2 0 0.3 0 0.2 0 0.3 0 0.2 0 0.3 0 0.1 0.1 0.3 0 0.1 0 0.3c0.1 0.2 0.1 0.4 0.2 0.7-0.1 0.1-0.2 0.4-0.3 0.5q-0.1-0.3-0.2-0.7c-0.1-0.6-0.2-1.4-0.1-2 0-1 0.2-2.2 0.7-3.2 0.1-0.2 0.2-0.3 0.3-0.5q0.1-0.1 0.3-0.1c0.3 0 1 0.6 1.2 0.8 0.6 0.4 1.1 0.9 1.5 1.4 0.2 0.2 0.4 0.4 0.6 0.6 1.6-0.5 3.1-0.4 4.8 0q0.2-0.2 0.4-0.5 0.5-0.5 1.1-1 0.2-0.3 0.5-0.4z"/>
			<path class="s5" d="m16.1 5.7c0-0.4 0.3-1.2 0.5-1.6q0.2-0.4 0.4-0.7c0.2-0.3 0.7-1 1-1q0.1 0 0.1 0.1-0.1 0-0.1 0.1-0.3 0.2-0.4 0.4c-0.1 0-0.1 0.1-0.2 0.2q-0.1 0.1-0.2 0.3c-0.4 0.6-0.7 1.2-0.8 1.9q-0.1 0.2-0.2 0.5 0-0.1-0.1-0.2z"/>
			<path class="s1" d="m9.5 7.8c0.3 0.1 0.7 0.1 0.9 0.3 0.2 0.1 0.4 0.3 0.4 0.5 0 0.1 0 0.3 0 0.4q-0.1 0.1-0.2 0.1c-0.2 0-0.3-0.1-0.4-0.2-0.3-0.1-0.9-0.5-1-0.8q0 0 0.1-0.1c0-0.1 0.1-0.1 0.2-0.2z"/>
			<path class="s1" d="m15.1 7.9q0.1 0 0.3 0 0.1 0 0.2 0.2 0 0 0 0.1c-0.1 0.3-1 0.7-1.2 0.9q-0.1 0-0.2 0-0.1 0-0.2-0.1-0.1-0.1-0.1-0.2 0-0.3 0.1-0.5c0.3-0.3 0.7-0.4 1.1-0.4z"/>
			<path class="s0" d="m9.1 9q0.4-0.1 0.7 0.1c0.4 0.3 0.6 0.8 0.7 1.3-0.1-0.1-0.3-0.3-0.4-0.3q0-0.1 0 0c-0.2 0.1-0.4 0.2-0.6 0.1-0.2 0-0.3-0.1-0.4-0.3-0.1-0.2-0.1-0.3-0.1-0.5q-0.2-0.1-0.5-0.2 0.3-0.2 0.6-0.2z"/>
			<path class="s1" d="m9.5 9.3q0.1 0 0.1 0 0.1 0 0.2 0.1 0 0 0 0.1 0 0.1-0.1 0.2-0.1 0-0.1 0-0.1 0-0.2-0.1 0 0 0 0 0-0.1 0-0.1 0 0 0 0 0 0 0 0 0 0 0 0 0 0 0 0 0-0.1 0-0.1 0 0 0 0 0-0.1 0.1-0.1z"/>
			<path class="s0" d="m15.4 9c0.3 0 0.6 0 0.8 0.1-0.1 0.1-0.3 0.2-0.4 0.3-0.2 0.2-0.1 0.5-0.4 0.7-0.2 0.1-0.4 0.1-0.6 0.1q-0.2-0.1-0.3-0.1-0.2 0.1-0.4 0.3c0.1-0.4 0.2-0.7 0.5-1 0.2-0.3 0.5-0.4 0.8-0.4z"/>
			<path class="s1" d="m15.2 9.3q0.1 0 0.1 0 0.1 0 0.1 0.1 0 0 0 0 0 0.1 0 0.1 0 0 0 0 0 0 0 0 0 0 0 0 0 0 0 0.1 0 0 0 0 0 0 0 0 0 0.1-0.1 0.1-0.1 0-0.1 0-0.1 0-0.1-0.1-0.1-0.1 0-0.2 0-0.1 0.1-0.1z"/>
			<path class="s5" d="m6.6 2.5c0.3 0 0.5 0.2 0.6 0.4 0.7 0.6 1.3 1.9 1.4 2.8 0 0.1-0.1 0.1-0.2 0.2h-0.1q0-0.2 0-0.4-0.1-0.4-0.2-0.8c-0.2-0.5-0.4-1.1-0.8-1.5 0-0.1-0.1-0.3-0.2-0.3h-0.1c-0.1 0-0.1-0.1-0.2-0.2q-0.1 0-0.2 0 0 0 0-0.1c-0.5 0.4-0.8 1.8-0.9 2.4q0 0.1 0 0.3 0 0.1 0 0.3 0 0.1 0 0.2 0 0.2 0 0.3 0 0.2 0 0.3 0 0.2 0 0.3 0 0.1 0.1 0.3 0 0.1 0 0.3c0.1 0.2 0.1 0.4 0.2 0.7-0.1 0.1-0.2 0.4-0.3 0.5q-0.1-0.3-0.2-0.7c-0.1-0.6-0.2-1.4-0.1-2q0 0.2 0 0.3 0.1-0.5 0.1-1c0.2-0.5 0.6-2.3 1-2.6q0.1 0 0.1 0z"/>
			<path class="s1" d="m6.6 2.6q0.1 0 0.1 0c0.2 0.1 0.3 0.2 0.4 0.3h-0.1c-0.1 0-0.1-0.1-0.2-0.2q-0.1 0-0.2 0 0 0 0-0.1z"/>
			<path class="s1" d="m7.9 2.8c0.6 0.4 1.1 0.9 1.5 1.4 0.2 0.2 0.4 0.4 0.6 0.6 1.6-0.5 3.1-0.4 4.8 0q0.2-0.2 0.4-0.5 0.5-0.5 1.1-1 0.2-0.3 0.5-0.4c0 0-0.5 0.5-0.6 0.6q-0.5 0.5-1 1.1-0.2 0.3-0.4 0.6c-1.3-0.3-2.5-0.4-3.9-0.2q-0.4 0.1-0.9 0.2-0.3-0.3-0.5-0.7-0.4-0.4-0.8-0.9c-0.2-0.2-0.7-0.6-0.8-0.8z"/>
			<path class="s1" d="m10.2 12.5c0.1-0.5 0.5-1 0.7-1.5 0.4-0.6 0.8-1.4 1-2.1 0.2-0.7 0.3-1.6 0.4-2.4 0-0.2 0-1 0.1-1.1 0 0 0 0.8 0 0.9 0.1 0.8 0.2 1.6 0.3 2.3q0.2 0.8 0.6 1.4 0.2 0.5 0.4 0.9 0.3 0.5 0.5 1 0.1 0.4 0.2 0.7c0.5-1 1.3-1.8 2.3-2.2q0.3-0.1 0.5-0.2c0.5 0.2 1 0.6 1.3 1.1q0 0.1 0 0.1 0 0.1 0.1 0.2 0 0 0 0.1 0 0.1 0 0.2c-0.4-0.3-0.7-0.5-1.2-0.5q0.5 1 0.1 2c-0.1 0.3-0.3 0.7-0.4 1-0.5 0.7-1.4 1.6-2.2 2q-0.2 0.1-0.5 0.2c-0.1 0-0.3 0-0.4 0q-0.2 0.1-0.4 0.2c-0.4 0.2-0.8 0.3-1.3 0.2-0.5 0-1-0.1-1.5-0.4-0.1 0-0.2 0-0.3 0q-0.1 0-0.3-0.1-0.2-0.1-0.5-0.2c-0.8-0.4-1.7-1.2-2.2-2-0.5-0.9-0.6-1.8-0.3-2.8-0.1 0.1-0.3 0.1-0.4 0.1q-0.2 0-0.3-0.2-0.1-0.1 0-0.3c0-0.3 0.2-0.5 0.4-0.6 0.3-0.2 0.7-0.2 1.1-0.1 0.8 0.1 1.4 0.9 1.9 1.6q0.1 0.2 0.3 0.5z"/>
			<path class="s0" d="m9.5 13.9q0.1 0.9 0.5 1.6c0.5 0.6 1.1 1 1.9 1.1q0 0 0.1 0.1 0 0 0 0 0.1 0 0.1 0 0 0 0.1 0 0 0 0 0 0.1 0 0.1 0 0 0 0.1 0 0 0 0 0 0.1 0 0.1 0 0 0 0.1 0 0 0 0 0 0.1 0 0.1 0 0 0 0.1 0 0-0.1 0-0.1 0.1 0 0.1 0 0 0 0.1 0 0 0 0 0 0.1 0 0.1 0 0 0 0.1 0 0-0.1 0-0.1 0.1 0 0.1 0 0 0 0.1 0 0 0 0 0 0.1 0 0.1-0.1 0 0 0.1 0 0 0 0 0 0 0 0.1-0.1 0 0 0 0 0.1 0 0.1 0 0 0 0.1-0.1 0 0 0 0 0 0 0.1 0 0.2-0.2 0.4-0.4c0.4-0.5 0.7-1 0.9-1.7 0-0.2 0-0.3 0-0.5q0.1 0.5 0 0.9c-0.1 0.9-0.6 1.5-1.3 2.1q-0.2 0.1-0.4 0.2c-0.4 0.2-0.8 0.3-1.3 0.2-0.5 0-1-0.1-1.5-0.4q-0.4-0.3-0.8-0.7c-0.4-0.6-0.6-1.3-0.5-2z"/>
			<path class="s0" d="m12.1 12.7c0.4-0.1 0.8 0 1.2 0.2 0.1 0.1 0.3 0.2 0.3 0.4 0.1 0.3 0 0.6-0.1 0.8-0.3 0.4-0.7 0.6-1.1 0.7q0 0.1 0 0.2 0.1 0.3 0.4 0.4c0.4 0.2 0.8 0.2 1.2 0q-0.1 0.1-0.2 0.2c-0.4 0.2-0.8 0.1-1.2 0-0.4-0.1-0.7 0.1-1 0.1q-0.5 0.1-0.9-0.3 0.1 0.1 0.3 0.1c0.3 0.1 0.7 0 1-0.2 0.2-0.1 0.2-0.3 0.3-0.5-0.3 0-0.5-0.2-0.7-0.3-0.3-0.2-0.5-0.5-0.6-0.8q0 0 0 0 0-0.1 0-0.1 0 0 0 0 0 0 0-0.1 0 0 0 0 0 0 0.1 0 0-0.1 0-0.1 0 0 0 0 0 0 0-0.1 0 0 0 0 0 0 0 0 0-0.1 0-0.1 0 0 0 0 0.1 0 0.1-0.1 0 0 0 0 0 0 0 0c0.2-0.3 0.6-0.4 0.9-0.4z"/>
			<path class="s7" d="m11.9 13c0.3 0 0.6 0 0.9 0.1-0.3 0-0.6 0-0.9 0.1-0.2 0-0.3 0.1-0.4 0.2q-0.1 0.2-0.1 0.4c0.1 0.2 0.2 0.3 0.4 0.4q-0.2 0-0.3-0.1 0 0 0 0 0 0 0-0.1 0 0 0 0 0 0-0.1 0 0 0 0 0 0 0 0 0 0-0.1 0-0.1 0 0 0 0 0 0 0 0-0.1 0-0.1-0.1 0 0 0 0 0 0 0 0 0 0 0 0 0-0.1 0-0.1 0 0 0 0 0 0 0 0c0-0.2 0-0.3 0.1-0.5 0.1-0.1 0.3-0.1 0.5-0.2z"/>
		</g>
	</g>
</svg>