<?xml version="1.0" encoding="UTF-8"?>
<svg version="1.1" xmlns="http://www.w3.org/2000/svg" width="135" height="135">
<path d="M0 0 C14.26794987 10.05773515 26.6221703 25.07761991 29.71875 42.72900391 C32.36377837 64.08668959 29.44804494 82.86706655 16.1875 100.1875 C5.85241198 112.50785916 -8.64833464 122.97493888 -25 125 C-47.10848709 126.70916345 -65.27523024 123.69684477 -82.66015625 109.11328125 C-94.65210399 98.28249039 -103.95866545 83.54664673 -105.21875 67.15429688 C-105.82335875 55.00921851 -106.10152656 43.24870764 -101 32 C-100.56429687 30.98164062 -100.12859375 29.96328125 -99.6796875 28.9140625 C-91.72765439 11.66293057 -77.80736385 -0.73560276 -60.0625 -7.375 C-40.5344268 -14.1494447 -17.17688376 -11.21808547 0 0 Z " fill="#EC4B28" transform="translate(105,10)"/>
<path d="M0 0 C3 0 3 0 4.6484375 1.43359375 C7.75294595 5.03679021 10.21862133 8.2816684 12.1875 12.625 C14.85181391 17.7439769 18.65689706 19.13042976 23.78125 21.39453125 C30.04305615 24.51783505 36.10067546 29.15101319 40 35 C40.18304688 35.91136719 40.36609375 36.82273438 40.5546875 37.76171875 C42.76089337 42.70481244 46.71957858 44.85418868 51.125 47.8125 C52.79595938 48.9623939 54.46532797 50.11460416 56.1328125 51.26953125 C56.87418457 51.77073486 57.61555664 52.27193848 58.37939453 52.78833008 C58.91419434 53.18818115 59.44899414 53.58803223 60 54 C60 54.33 60 54.66 60 55 C58.02 55 56.04 55 54 55 C54.4640625 56.1446875 54.4640625 56.1446875 54.9375 57.3125 C55.67893593 59.18789677 56.36228217 61.08684652 57 63 C52.07829421 66.28113719 46.67185562 64.85833166 41 64 C38.51896789 63.18941009 36.36548617 62.13543336 34 61 C31.67810464 60.5945897 29.34484656 60.23927006 27 60 C27 60.66 27 61.32 27 62 C27.969375 62.103125 28.93875 62.20625 29.9375 62.3125 C33.75953994 62.84634768 37.21291158 64.02625749 40.84375 65.30078125 C43.52894667 66.17152437 46.20362496 66.64149038 49 67 C48.01 68.98 48.01 68.98 47 71 C40.56963624 71.18729215 35.07231685 71.34612242 29 69 C26.33666587 68.55611098 23.68788517 68.27805709 21 68 C22.35312842 72.2285263 24.08278044 74.27214053 27.5 77.0625 C31.25500172 80.14086991 33.55756091 82.34536547 34.37109375 87.2265625 C34.56530729 94.24109873 32.56282208 99.01954866 29 105 C28.13845114 102.09553604 28.00915365 99.81760562 28.25 96.8125 C28.23968386 90.46807211 25.90685825 86.04449542 21.53564453 81.46630859 C19.27263698 79.22330995 17.00099206 77.00177948 14.6340332 74.86816406 C10.41081453 70.93150554 8.69246713 67.52752562 7 62 C6.97284617 63.74991334 6.95353449 65.49994945 6.9375 67.25 C6.92589844 68.22453125 6.91429687 69.1990625 6.90234375 70.203125 C6.98804423 72.65758678 7.29293934 74.66168914 8 77 C3.15617592 74.90451958 0.44068077 71.62778431 -2 67 C-3.3662531 60.12162231 -1.37825654 53.03260096 2 47 C-2.19606557 49.57485842 -5.08273348 52.04085258 -8 56 C-8.66 56.66 -9.32 57.32 -10 58 C-10.93033922 49.74754658 -9.02140129 45.45410027 -4 39 C-3.505 38.01 -3.505 38.01 -3 37 C-8.00864472 40.07348653 -12.11302217 42.82166278 -13.75 48.6875 C-13.8325 49.780625 -13.915 50.87375 -14 52 C-14.06316406 52.79019531 -14.12632813 53.58039062 -14.19140625 54.39453125 C-14.52949424 61.66887607 -12.65288306 64.95698708 -7.875 70.4375 C-3.85163141 74.02354591 0.56199195 76.9535135 5 80 C16.30824991 87.94477045 16.30824991 87.94477045 17.75 94.3125 C17.8325 95.199375 17.915 96.08625 18 97 C18.66 97 19.32 97 20 97 C20.33 94.69 20.66 92.38 21 90 C21.99 90.495 21.99 90.495 23 91 C23.64590923 98.73894943 23.80210463 104.67205969 18.93359375 110.98828125 C15.61803915 114.43779765 11.92903391 117.28460101 8 120 C7.01 119.505 7.01 119.505 6 119 C6.66 117.865625 7.32 116.73125 8 115.5625 C10.96739071 109.58547815 10.83557618 104.59468394 8.8125 98.3125 C6.84786869 94.72196693 4.73383827 92.02938836 2 89 C2.88214887 91.88214887 2.88214887 91.88214887 4 94 C4.95082309 107.238383 4.95082309 107.238383 1 113 C0.34 113 -0.32 113 -1 113 C-1.06316406 112.41734375 -1.12632813 111.8346875 -1.19140625 111.234375 C-2.90215456 99.78136526 -9.17953554 91.55874068 -16.9765625 83.3359375 C-19.76283127 80.11935696 -21.33894141 76.89987669 -23 73 C-23.81746733 81.31091784 -21.25823205 85.99487733 -17 93 C-16.31822584 94.32567199 -15.64528105 95.65618655 -15 97 C-14.34 97 -13.68 97 -13 97 C-13 97.66 -13 98.32 -13 99 C-20.11934474 98.22311265 -25.07150621 92.49283895 -29.5 87.2109375 C-34.13246631 80.56879831 -34.15720513 71.79749276 -33 64 C-31.61142485 59.39198765 -29.36592044 55.17556793 -27 51 C-29.44447774 51.9777911 -30.74381289 52.56173704 -32.09375 54.87109375 C-32.3928125 55.57363281 -32.691875 56.27617188 -33 57 C-33.81691091 58.36413649 -34.65054265 59.71838913 -35.5 61.0625 C-35.9228125 61.73410156 -36.345625 62.40570313 -36.78125 63.09765625 C-37.83579211 64.74368832 -38.91563835 66.37345752 -40 68 C-40.78727276 57.81793901 -39.21546813 51.25808391 -32.8046875 43.26171875 C-29.44740077 39.43352547 -26.17236979 35.94241951 -22 33 C-26.62893839 34.32255383 -30.08430083 36.21550281 -34 39 C-34.99 39.66 -35.98 40.32 -37 41 C-35.16452067 31.57231073 -25.9078053 24.48173514 -18.47265625 19.20703125 C-16 18 -16 18 -13.78515625 18.0703125 C-12 19 -12 19 -11.05859375 20.7421875 C-10.85363281 21.44601563 -10.64867188 22.14984375 -10.4375 22.875 C-9.49275153 26.05545759 -8.50422704 27.79406039 -6 30 C-6.495 28.515 -6.495 28.515 -7 27 C-7.63179454 17.43803267 -7.40021818 10.10032727 -2 2 C-1.34 1.34 -0.68 0.68 0 0 Z " fill="#FCF9F8" transform="translate(60,6)"/>
<path d="M0 0 C3.36840664 1.372838 4.6920202 2.59829645 6.25 5.875 C6.58515625 6.55304687 6.9203125 7.23109375 7.265625 7.9296875 C8 10 8 10 8 14 C6.02 13.34 4.04 12.68 2 12 C2 14.97 2 17.94 2 21 C-1.82321537 17.30011416 -3.15404392 15.52105886 -3.25 10.1875 C-3.22561502 5.97499477 -2.7039031 3.37987887 0 0 Z " fill="#ED6041" transform="translate(61,13)"/>
<path d="M0 0 C9.35993554 -1.06632177 9.35993554 -1.06632177 13.2890625 1.48828125 C15.06099118 3.2492721 16.61962242 4.91765566 18 7 C18 7.66 18 8.32 18 9 C11.65844515 8.97124011 8.01328502 7.9016714 3.41015625 3.47265625 C2.94480469 2.98667969 2.47945313 2.50070313 2 2 C1.34 1.34 0.68 0.68 0 0 Z " fill="#E65E45" transform="translate(77,41)"/>
<path d="M0 0 C4.66560559 -0.28564932 7.69624736 0.16937086 11.890625 2.19921875 C16.38043208 3.90368255 21.26348448 4.33890998 26 5 C25.1328125 7.44921875 25.1328125 7.44921875 24 10 C21.875 10.8125 21.875 10.8125 20 11 C20.66 9.68 21.32 8.36 22 7 C20.783125 6.9175 19.56625 6.835 18.3125 6.75 C11.96369475 6.07049528 6.0349017 4.00541556 0 2 C0 1.34 0 0.68 0 0 Z " fill="#D9705B" transform="translate(87,66)"/>
<path d="M0 0 C3.42717768 1.38530129 4.7293493 2.67477227 6.3125 6 C6.65925781 6.70125 7.00601563 7.4025 7.36328125 8.125 C7.67845703 9.053125 7.67845703 9.053125 8 10 C7.67 10.66 7.34 11.32 7 12 C2.545 10.02 2.545 10.02 -2 8 C-1.125 1.125 -1.125 1.125 0 0 Z " fill="#F6E9E6" transform="translate(78,14)"/>
<path d="M0 0 C0.66 0.33 1.32 0.66 2 1 C1.57847656 1.48210938 1.15695313 1.96421875 0.72265625 2.4609375 C0.17480469 3.09257813 -0.37304688 3.72421875 -0.9375 4.375 C-1.48277344 5.00148438 -2.02804688 5.62796875 -2.58984375 6.2734375 C-4.06958624 7.95632334 -4.06958624 7.95632334 -5 10 C-6.97888961 10.72693904 -8.97954558 11.39816251 -11 12 C-9.60991124 6.74855359 -6.1957125 4.12699328 -2 1 C-1.34 0.67 -0.68 0.34 0 0 Z " fill="#D9684F" transform="translate(57,42)"/>
<path d="M0 0 C0.33 0.99 0.66 1.98 1 3 C2.051875 3.185625 2.051875 3.185625 3.125 3.375 C6.17656387 4.03838345 9.05340938 4.97211955 12 6 C12 6.66 12 7.32 12 8 C9.34501768 9.0169313 8.30844625 9.13022151 5.640625 8.00390625 C4.85171875 7.52824219 4.0628125 7.05257813 3.25 6.5625 C2.45078125 6.08941406 1.6515625 5.61632812 0.828125 5.12890625 C0.22484375 4.75636719 -0.3784375 4.38382813 -1 4 C-0.67 2.68 -0.34 1.36 0 0 Z " fill="#ED6145" transform="translate(75,19)"/>
<path d="M0 0 C0 3.80845564 -0.97798569 5.79266696 -3 9 C-5.6875 9.875 -5.6875 9.875 -8 10 C-6.44303593 6.17836093 -3.96591316 3.81381505 -1 1 C-0.67 0.67 -0.34 0.34 0 0 Z " fill="#D66E57" transform="translate(33,56)"/>
<path d="M0 0 C0.66 0.33 1.32 0.66 2 1 C0.35 2.98 -1.3 4.96 -3 7 C-3.33 6.34 -3.66 5.68 -4 5 C-4.66 4.67 -5.32 4.34 -6 4 C-4.02 2.68 -2.04 1.36 0 0 Z " fill="#D08373" transform="translate(57,42)"/>
<path d="M0 0 C2.31 0 4.62 0 7 0 C7 0.99 7 1.98 7 3 C4.69 2.67 2.38 2.34 0 2 C0 1.34 0 0.68 0 0 Z " fill="#D88C7F" transform="translate(87,66)"/>
<path d="M0 0 C-1.98 1.32 -3.96 2.64 -6 4 C-6.99 3.34 -7.98 2.68 -9 2 C-3.375 -1.125 -3.375 -1.125 0 0 Z " fill="#CF8270" transform="translate(39,39)"/>
</svg>
