<?xml version="1.0" encoding="utf-8"?>
<!-- Generator: Adobe Illustrator 24.3.0, SVG Export Plug-In . SVG Version: 6.00 Build 0)  -->
<svg version="1.1" id="Layer_1" xmlns="http://www.w3.org/2000/svg" xmlns:xlink="http://www.w3.org/1999/xlink" x="0px" y="0px"
	 viewBox="0 0 135 135" style="enable-background:new 0 0 135 135;" xml:space="preserve">
<style type="text/css">
	.st0{fill:url(#SVGID_1_);}
	.st1{fill-rule:evenodd;clip-rule:evenodd;fill:#808080;}
	.st2{fill-rule:evenodd;clip-rule:evenodd;fill:#FFFFFF;}
</style>
<g>
	<linearGradient id="SVGID_1_" gradientUnits="userSpaceOnUse" x1="9.4708" y1="28.8272" x2="132.3358" y2="111.7065">
		<stop  offset="9.772402e-02" style="stop-color:#FF5124"/>
		<stop  offset="0.5631" style="stop-color:#EA492F"/>
		<stop  offset="1" style="stop-color:#DB3805"/>
	</linearGradient>
	<circle class="st0" cx="67.8" cy="68.1" r="63.2"/>
	<g>
		<path class="st1" d="M61,11.9c-1.6,1.5-2.4,2.7-3.8,5.5c-2.5,5.1-3.4,9.9-2.8,14.9c0.4,2.8,1.3,5.7,1.9,6.2
			c0.2,0.2,0.4,0.5,0.4,0.6c0,0.2,0.2,0.5,0.5,0.8c0.5,0.5,0.5,0.5-0.2,0.3c-1.6-0.5-3.7-2.1-5.2-4.1c-1.1-1.5-2.2-4.5-2.7-7.5
			c-0.1-0.7-0.3-1-0.6-1c-0.5,0-5,2.2-5.1,2.5c-0.1,0.1-0.2,0.2-0.4,0.2c-0.2,0-0.6,0.3-1,0.6c-0.4,0.3-1.7,1.3-3,2.3
			c-2.2,1.7-6.3,5.7-7.7,7.5c-0.4,0.5-0.8,1.1-1,1.2c-0.3,0.3-1,1.4-2.4,3.7c-0.8,1.3-1.9,3.4-1.9,3.6c0,0.1,0.9-0.6,2.1-1.5
			c4.1-3.3,7.2-5.1,11.1-6.3c3.5-1.1,3.7-0.9,1.1,0.9c-2.4,1.6-7.2,6.2-8.8,8.5c-4.4,6-6.9,11.2-7.8,16.2c-0.7,3.7-0.7,10.3,0,10.3
			c0.1,0,0.2-0.2,0.2-0.5c0-2,3.2-9.1,5.4-12c2.6-3.4,7.3-7.6,8.4-7.6c0.1,0,0,0.2-0.2,0.5c-0.5,0.5-2.1,3.3-3.3,5.5
			C31.7,67.8,30,74.3,30,78.9c0,4.1,1.5,9.6,3.5,13c0.5,0.9,1,1.6,1,1.7c0,0.3,3.6,4.1,5,5.3c1.3,1,3.2,2.2,4.9,3.1
			c1.7,0.8,4.2,1.7,4.4,1.5c0.1-0.1-0.8-1-1.8-2.2c-3.5-3.8-6.3-8.3-7.7-12.6c-1-3-0.4-10.7,0.9-12.5c0.3-0.4,0.4-0.3,0.4,1
			c0,3.5,1.6,7.4,4.5,11.1c0.9,1.2,1.8,2.2,1.9,2.3c0.1,0.1,1,1.1,2,2.2c1,1.2,1.9,2.2,2,2.2c1.1,1,5.3,7,5.3,7.5
			c0,0.1,0.1,0.3,0.2,0.4c0.4,0.1,2.4,4.6,3.3,7.1c0.5,1.5,0.8,3.1,0.9,4.8c0.1,1.4,0.2,2.6,0.3,2.6c0.6,0,3-3.7,3.7-5.9
			c0.9-2.5,1.1-7.1,0.4-9.7c-0.6-2.5-1.9-5.3-3.4-7.5c-0.7-1-1.1-1.7-1-1.7c1,0,6.5,5.1,7.6,7.2c0.3,0.6,0.9,1.5,1.2,2.2
			c1.4,2.5,2,5.1,2,8.5c0,4.2-1,7.4-3.4,11.4c-0.3,0.5-0.7,1.2-0.9,1.5c-0.5,0.8,0.1,0.6,2.2-0.5c4.7-2.6,10-8,12.5-12.6
			c0.8-1.5,1.7-5.1,1.7-6.8c0-2.4-1.2-7.1-2.1-8c-0.3-0.3-0.4-0.1-0.5,1c-0.4,3-2.1,7.9-2.3,6.7c-0.7-3.8-1.5-6-3.4-8.7
			c-2.1-3.1-4.2-4.8-11.6-9.4c-4.6-2.9-6.4-4.2-9.9-7.3c-1.5-1.3-3.4-3.3-3.4-3.5c0-0.1-0.2-0.4-0.4-0.6c-0.7-0.7-2.1-3.2-2.7-4.9
			c-0.6-1.4-0.7-2.1-0.6-5.4c0-3.3,0.1-4,0.8-6c0.4-1.2,1.2-3,1.8-4c1-1.7,3.6-4.6,5.2-5.8c1-0.8,4.4-2.4,5.6-2.7
			c0.8-0.2,0.8-0.1-0.6,1.2c-3.4,3.2-6.3,7.7-7.3,11.4c-0.8,2.8-0.8,8.8-0.1,8.8c0.1,0,0.3-0.1,0.3-0.3c0-0.6,1.4-3.4,2.6-4.9
			c0.7-0.9,1.8-2.2,2.6-2.8c0.7-0.6,1.4-1.2,1.5-1.3c0.2-0.3,4-2.1,4.7-2.3c0.8-0.2,0.8-0.3-1,2.3c-2.4,3.5-3.9,8.5-3.6,12.5
			c0.1,2,1.3,6.4,1.9,6.8c0.1,0.1,0.5,0.7,1,1.4c1.1,1.6,3.1,3.6,5,5c2,1.5,2.6,1.5,1.5,0c-1.6-2.2-2.6-7.7-2-10.8
			c0.4-1.8,1.6-4.6,2-4.6c0.1,0,0.2,0.7,0.2,1.5c0,4.3,1.4,7.2,5.9,11.6c1.8,1.8,4,4,5,4.9c5.4,5,7.8,9.2,8.5,14.8
			c0.4,3.2,0.2,6-0.7,8.6c-0.3,0.9-0.4,1.6-0.3,1.6c0.4,0,2.5-2.9,3.6-5.2c1.2-2.4,2.3-6.7,2.3-9.1c0-3.1-1.1-6.6-2.8-9.1
			c-1.4-2.1-2.7-3.3-5.9-5.8c-3.8-2.9-4.7-4.3-3.3-5.6c0.5-0.5,1-0.5,3.6-0.5c2.7,0,3.3,0.1,6.6,1.2c5.6,1.8,6.2,1.9,9.3,1.9
			c2.4,0,3.2-0.1,4.2-0.6c1.3-0.6,3.3-2.3,3.3-2.8c0-0.1-1.2-0.4-2.6-0.6c-1.6-0.2-3.7-0.7-5.5-1.4c-5.1-1.8-10.7-3.7-12.2-4.1
			c-0.8-0.2-1.5-0.5-1.5-0.6c0-0.1,0.5-0.4,1.2-0.5c1.4-0.4,4.5,0,6.8,0.9c0.8,0.3,2.8,1,4.5,1.6c6.7,2.4,10.2,2.8,13,1.5
			c1.4-0.7,3-2.1,3-2.5c0-0.2-0.4-0.7-1-1.2c-1.4-1.3-2.3-3.1-2.1-4.6c0.1-0.6,2.1-1,4.3-0.9l2.1,0.1l-0.7-0.6
			c-0.4-0.3-1.3-1-2.1-1.5c-0.8-0.5-1.9-1.3-2.5-1.8c-2.3-1.7-4.8-3.5-5-3.7c-0.2-0.1-1.1-0.8-2.1-1.5c-1-0.7-1.9-1.3-2-1.4
			c-0.1-0.1-1.1-0.8-2.2-1.5c-1.2-0.8-2.2-1.5-2.4-1.7c-0.2-0.2-0.5-1.2-0.6-2.4c-0.5-3-1.2-4.3-3.9-7c-3.7-3.6-9-7.3-14.6-10.1
			c-1.9-0.9-3.6-1.8-3.9-1.9C75.7,27.2,75.3,27,75,27c-0.3,0-0.9-1-1.7-2.7c-1.2-2.6-2.5-4.8-3-5c-0.1-0.1-0.2-0.2-0.2-0.4
			c0-0.3-0.9-1.4-3.1-4c-1.5-1.7-4.1-4.1-4.5-4.1C62.3,10.9,61.6,11.3,61,11.9 M62.1,18c-0.9,1.1-2.1,3.8-2.5,5.7
			c-0.2,0.9-0.3,2.8-0.2,4.5c0.1,2.6,0.2,3.1,1,4.7c1.4,2.7,4.6,5.7,4.1,3.8c-0.6-2-0.7-3.7-0.6-5.7c0.2-2.2,0.2-2.3,0.9-2.3
			c0.8,0,3.8,1.4,4.5,2.1c0.7,0.7,0.8,0.2,0.5-1.9c-0.4-2-2.2-6.1-3.6-8.3c-0.8-1.1-2.9-3.4-3.2-3.4C62.8,17.3,62.4,17.6,62.1,18
			 M77.7,19.3c-0.8,1.8-1.7,4.4-1.7,5.2c0,0.3,0.4,0.6,1,0.8c2.4,0.8,4.8,1.9,6.5,2.9c1,0.6,1.9,1.1,2,1.2c0.7,0.4-3.8-8.4-4.7-9.3
			c-0.2-0.2-0.4-0.5-0.4-0.6c0-0.2-1.6-2-1.8-2C78.6,17.6,78.2,18.3,77.7,19.3 M78.5,43.7l-2.4,0.2l1.3,0.5c4,1.7,4.5,2,5.6,3.6
			c1.6,2.3,2.8,3,5.9,3.3c1.9,0.2,3,0.4,4,1c1.7,0.9,1.8,0.9,1.8,0.3c0-1.2-5.3-7.7-6.3-7.7c-0.2,0-0.4-0.1-0.4-0.2
			C88,43.9,82.8,43.4,78.5,43.7"/>
		<path class="st2" d="M60.5,11.3c-1.6,1.5-2.4,2.7-3.8,5.5c-2.5,5.1-3.4,9.9-2.8,14.9c0.4,2.8,1.3,5.7,1.9,6.2
			c0.2,0.2,0.4,0.5,0.4,0.6s0.2,0.5,0.5,0.8c0.5,0.5,0.5,0.5-0.2,0.3c-1.6-0.5-3.7-2.1-5.2-4.1c-1.1-1.5-2.2-4.5-2.7-7.5
			c-0.1-0.7-0.3-1-0.6-1c-0.5,0-5,2.2-5.1,2.5c-0.1,0.1-0.2,0.2-0.4,0.2c-0.2,0-0.6,0.3-1,0.6c-0.4,0.3-1.7,1.3-3,2.3
			c-2.2,1.7-6.3,5.7-7.7,7.5c-0.4,0.5-0.8,1.1-1,1.2c-0.3,0.3-1,1.4-2.4,3.7c-0.8,1.3-1.9,3.4-1.9,3.6c0,0.1,0.9-0.6,2.1-1.5
			c4.1-3.3,7.2-5.1,11.1-6.3c3.5-1.1,3.7-0.9,1.1,0.9c-2.4,1.6-7.2,6.2-8.8,8.5c-4.4,6-6.9,11.2-7.8,16.2c-0.7,3.7-0.7,10.3,0,10.3
			c0.1,0,0.2-0.2,0.2-0.5c0-2,3.2-9.1,5.4-12c2.6-3.4,7.3-7.6,8.4-7.6c0.1,0,0,0.2-0.2,0.5c-0.5,0.5-2.1,3.3-3.3,5.5
			c-2.5,4.6-4.2,11.1-4.2,15.8c0,4.1,1.5,9.6,3.5,13c0.5,0.9,1,1.6,1,1.7c0,0.3,3.6,4.1,5,5.3c1.3,1,3.2,2.2,4.9,3.1
			c1.7,0.8,4.2,1.7,4.4,1.5c0.1-0.1-0.8-1-1.8-2.2c-3.5-3.8-6.3-8.3-7.7-12.6c-1-3-0.4-10.7,0.9-12.5c0.3-0.4,0.4-0.3,0.4,1
			c0,3.5,1.6,7.4,4.5,11.1c0.9,1.2,1.8,2.2,1.9,2.3c0.1,0.1,1,1.1,2,2.2c1,1.2,1.9,2.2,2,2.2c1.1,1,5.3,7,5.3,7.5
			c0,0.1,0.1,0.3,0.2,0.4c0.4,0.1,2.4,4.6,3.3,7.1c0.5,1.5,0.8,3.1,0.9,4.8c0.1,1.4,0.2,2.6,0.3,2.6c0.6,0,3-3.7,3.7-5.9
			c0.9-2.5,1.1-7.1,0.4-9.7c-0.6-2.5-1.9-5.3-3.4-7.5c-0.7-1-1.1-1.7-1-1.7c1,0,6.5,5.1,7.6,7.2c0.3,0.6,0.9,1.5,1.2,2.2
			c1.4,2.5,2,5.1,2,8.5c0,4.2-1,7.4-3.4,11.4c-0.3,0.5-0.7,1.2-0.9,1.5c-0.5,0.8,0.1,0.6,2.2-0.5c4.7-2.6,10-8,12.5-12.6
			c0.8-1.5,1.7-5.1,1.7-6.8c0-2.4-1.2-7.1-2.1-8c-0.3-0.3-0.4-0.1-0.5,1c-0.4,3-2.1,7.9-2.3,6.7c-0.7-3.8-1.5-6-3.4-8.7
			c-2.1-3.1-4.2-4.8-11.6-9.4c-4.6-2.9-6.4-4.2-9.9-7.3c-1.5-1.3-3.4-3.3-3.4-3.5c0-0.1-0.2-0.4-0.4-0.6c-0.7-0.7-2.1-3.2-2.7-4.9
			c-0.6-1.4-0.7-2.1-0.6-5.4c0-3.3,0.1-4,0.8-6c0.4-1.2,1.2-3,1.8-4c1-1.7,3.6-4.6,5.2-5.8c1-0.8,4.4-2.4,5.6-2.7
			c0.8-0.2,0.8-0.1-0.6,1.2c-3.4,3.2-6.3,7.7-7.3,11.4c-0.8,2.8-0.8,8.8-0.1,8.8c0.1,0,0.3-0.1,0.3-0.3c0-0.6,1.4-3.4,2.6-4.9
			c0.7-0.9,1.8-2.2,2.6-2.8c0.7-0.6,1.4-1.2,1.5-1.3c0.2-0.3,4-2.1,4.7-2.3c0.8-0.2,0.8-0.3-1,2.3c-2.4,3.5-3.9,8.5-3.6,12.5
			c0.1,2,1.3,6.4,1.9,6.8c0.1,0.1,0.5,0.7,1,1.4c1.1,1.6,3.1,3.6,5,5c2,1.5,2.6,1.5,1.5,0c-1.6-2.2-2.6-7.7-2-10.8
			c0.4-1.8,1.6-4.6,2-4.6c0.1,0,0.2,0.7,0.2,1.5c0,4.3,1.4,7.2,5.9,11.6c1.8,1.8,4,4,5,4.9c5.4,5,7.8,9.2,8.5,14.8
			c0.4,3.2,0.2,6-0.7,8.6c-0.3,0.9-0.4,1.6-0.3,1.6c0.4,0,2.5-2.9,3.6-5.2c1.2-2.4,2.3-6.7,2.3-9.1c0-3.1-1.1-6.6-2.8-9.1
			c-1.4-2.1-2.7-3.3-5.9-5.8c-3.8-2.9-4.7-4.3-3.3-5.6c0.5-0.5,1-0.5,3.6-0.5c2.7,0,3.3,0.1,6.6,1.2c5.6,1.8,6.2,1.9,9.3,1.9
			c2.4,0,3.2-0.1,4.2-0.6c1.3-0.6,3.3-2.3,3.3-2.8c0-0.1-1.2-0.4-2.6-0.6c-1.6-0.2-3.7-0.7-5.5-1.4c-5.1-1.8-10.7-3.7-12.2-4.1
			c-0.8-0.2-1.5-0.5-1.5-0.6c0-0.1,0.5-0.4,1.2-0.5c1.4-0.4,4.5,0,6.8,0.9c0.8,0.3,2.8,1,4.5,1.6c6.7,2.4,10.2,2.8,13,1.5
			c1.4-0.7,3-2.1,3-2.5c0-0.2-0.4-0.7-1-1.2c-1.4-1.3-2.3-3.1-2.1-4.6c0.1-0.6,2.1-1,4.3-0.9l2.1,0.1l-0.7-0.6
			c-0.4-0.3-1.3-1-2.1-1.5s-1.9-1.3-2.5-1.8c-2.3-1.7-4.8-3.5-5-3.7c-0.2-0.1-1.1-0.8-2.1-1.5c-1-0.7-1.9-1.3-2-1.4
			c-0.1-0.1-1.1-0.8-2.2-1.5c-1.2-0.8-2.2-1.5-2.4-1.7c-0.2-0.2-0.5-1.2-0.6-2.4c-0.5-3-1.2-4.3-3.9-7c-3.7-3.6-9-7.3-14.6-10.1
			c-1.9-0.9-3.6-1.8-3.9-1.9c-0.3-0.1-0.7-0.3-0.9-0.3c-0.3,0-0.9-1-1.7-2.7c-1.2-2.6-2.5-4.8-3-5c-0.1-0.1-0.2-0.2-0.2-0.4
			c0-0.3-0.9-1.4-3.1-4c-1.5-1.7-4.1-4.1-4.5-4.1C61.8,10.3,61.1,10.8,60.5,11.3 M61.5,17.5c-0.9,1.1-2.1,3.8-2.5,5.7
			c-0.2,0.9-0.3,2.8-0.2,4.5c0.1,2.6,0.2,3.1,1,4.7c1.4,2.7,4.6,5.7,4.1,3.8c-0.6-2-0.7-3.7-0.6-5.7c0.2-2.2,0.2-2.3,0.9-2.3
			c0.8,0,3.8,1.4,4.5,2.1c0.7,0.7,0.8,0.2,0.5-1.9c-0.4-2-2.2-6.1-3.6-8.3c-0.8-1.1-2.9-3.4-3.2-3.4C62.2,16.7,61.9,17.1,61.5,17.5
			 M77.2,18.7c-0.8,1.8-1.7,4.4-1.7,5.2c0,0.3,0.4,0.6,1,0.8c2.4,0.8,4.8,1.9,6.5,2.9c1,0.6,1.9,1.1,2,1.2c0.7,0.4-3.8-8.4-4.7-9.3
			c-0.2-0.2-0.4-0.5-0.4-0.6c0-0.2-1.6-2-1.8-2C78.1,17,77.6,17.8,77.2,18.7 M78,43.2l-2.4,0.2l1.3,0.5c4,1.7,4.5,2,5.6,3.6
			c1.6,2.3,2.8,3,5.9,3.3c1.9,0.2,3,0.4,4,1c1.7,0.9,1.8,0.9,1.8,0.3c0-1.2-5.3-7.7-6.3-7.7c-0.2,0-0.4-0.1-0.4-0.2
			C87.4,43.4,82.3,42.9,78,43.2"/>
	</g>
</g>
</svg>
