<?xml version="1.0" encoding="utf-8"?>
<!-- Generator: Adobe Illustrator 24.3.0, SVG Export Plug-In . SVG Version: 6.00 Build 0)  -->
<svg version="1.1" id="Layer_1" xmlns="http://www.w3.org/2000/svg" xmlns:xlink="http://www.w3.org/1999/xlink" x="0px" y="0px"
	 viewBox="0 0 289 169" style="enable-background:new 0 0 289 169;" xml:space="preserve">
<style type="text/css">
	.st0{fill:#FFA95A;fill-opacity:0.24;}
	.st1{fill:#FFA95A;}
	.st2{fill:#D8DCF0;fill-opacity:0.4;}
	.st3{fill-rule:evenodd;clip-rule:evenodd;fill:#8C8C8C;}
	.st4{fill-rule:evenodd;clip-rule:evenodd;fill:#393939;}
	.st5{fill-rule:evenodd;clip-rule:evenodd;fill:#343434;}
	.st6{fill-rule:evenodd;clip-rule:evenodd;fill:#151515;}
	.st7{fill:#FF007A;fill-opacity:0.24;}
	.st8{clip-path:url(#SVGID_2_);}
	.st9{fill:#FF007A;}
	.st10{fill-rule:evenodd;clip-rule:evenodd;fill:#FF007A;}
	.st11{fill:#30D29D;fill-opacity:0.24;}
	.st12{clip-path:url(#SVGID_4_);}
	.st13{fill:#30D29D;}
	.st14{fill:none;stroke:#EA3A0D;stroke-width:2;stroke-opacity:0.72;}
	.st15{fill:#FB542B;fill-opacity:0.24;}
	.st16{fill:#4C54D2;fill-opacity:0.24;}
	.st17{fill-rule:evenodd;clip-rule:evenodd;fill:#FF4724;}
	.st18{fill-rule:evenodd;clip-rule:evenodd;fill:#9E1F63;}
	.st19{fill-rule:evenodd;clip-rule:evenodd;fill:#662D91;}
	.st20{fill-rule:evenodd;clip-rule:evenodd;fill:#FFFFFF;}
	.st21{fill:#50AF95;fill-opacity:0.24;}
	.st22{fill-rule:evenodd;clip-rule:evenodd;fill:#50AF95;}
	.st23{fill:url(#SVGID_5_);}
	.st24{fill-rule:evenodd;clip-rule:evenodd;fill:#808080;}
</style>
<g>
	<path class="st0" d="M88.8,3.8l28.3,28.3c1.6,1.6,1.6,4.1,0,5.7L88.8,66c-1.6,1.6-4.1,1.6-5.7,0L54.9,37.7c-1.6-1.6-1.6-4.1,0-5.7
		L83.2,3.8C84.7,2.2,87.3,2.2,88.8,3.8z"/>
</g>
<path class="st1" d="M93.1,32.8c0.3-2.2-1.4-3.4-3.7-4.2l0.8-3l-1.8-0.5l-0.7,2.9c-0.5-0.1-1-0.2-1.5-0.3l0.7-3L85,24.3l-0.8,3
	c-0.4-0.1-0.8-0.2-1.2-0.3l0,0l-2.5-0.6l-0.5,2c0,0,1.4,0.3,1.3,0.3c0.7,0.2,0.9,0.7,0.9,1.1l-0.9,3.4c0.1,0,0.1,0,0.2,0.1
	c-0.1,0-0.1,0-0.2,0L80.2,38c-0.1,0.2-0.3,0.6-0.8,0.4c0,0-1.3-0.3-1.3-0.3l-0.9,2.1l2.4,0.6c0.4,0.1,0.9,0.2,1.3,0.3l-0.8,3
	l1.8,0.5l0.8-3c0.5,0.1,1,0.3,1.5,0.4l-0.7,3l1.8,0.5l0.8-3c3.1,0.6,5.5,0.4,6.5-2.5c0.8-2.3,0-3.6-1.7-4.5
	C91.9,35.2,92.8,34.4,93.1,32.8L93.1,32.8L93.1,32.8L93.1,32.8z M88.9,38.7c-0.6,2.3-4.4,1-5.6,0.7l1-4
	C85.5,35.7,89.5,36.3,88.9,38.7L88.9,38.7z M89.4,32.8c-0.5,2.1-3.7,1-4.7,0.8l0.9-3.7C86.6,30.1,90,30.6,89.4,32.8L89.4,32.8z"/>
<g>
	<path class="st2" d="M205,3.8l28.3,28.3c1.6,1.6,1.6,4.1,0,5.7L205,66c-1.6,1.6-4.1,1.6-5.7,0L171,37.7c-1.6-1.6-1.6-4.1,0-5.7
		l28.3-28.3C200.9,2.2,203.4,2.2,205,3.8z"/>
</g>
<path class="st3" d="M202.2,22.9l-5.7,8.8l-2.2,3.3l7.9-3.3V22.9z"/>
<path class="st4" d="M194.3,35.1l2.5,1.4l5.4,2.9v-7.7L194.3,35.1z"/>
<path class="st5" d="M202.2,22.9v8.8l7.9,3.3l-2.2-3.3L202.2,22.9z"/>
<path class="st6" d="M202.2,36.4v2.9l5.4-2.9l2.5-1.4l-7.9-3.3V36.4z"/>
<path class="st3" d="M194.3,36.4l2.2,2.9l5.6,7.4v-6l-2.5-1.4L194.3,36.4z"/>
<path class="st5" d="M204.8,39.4l-2.5,1.4v6l5.6-7.4l2.2-2.9v0C210.1,36.4,204.8,39.4,204.8,39.4z"/>
<g>
	<path class="st7" d="M87.9,103.2l28.3,28.3c1.6,1.6,1.6,4.1,0,5.7l-28.3,28.3c-1.6,1.6-4.1,1.6-5.7,0L54,137.2
		c-1.6-1.6-1.6-4.1,0-5.7l28.3-28.3C83.8,101.7,86.4,101.7,87.9,103.2z"/>
</g>
<g>
	<defs>
		<rect id="SVGID_1_" x="75.1" y="122.8" width="20" height="23"/>
	</defs>
	<clipPath id="SVGID_2_">
		<use xlink:href="#SVGID_1_"  style="overflow:visible;"/>
	</clipPath>
	<g class="st8">
		<path class="st9" d="M82.9,128.1c-0.2,0-0.3,0-0.1-0.1c0.2,0,0.7,0,1.1,0.1c0.9,0.2,1.6,0.7,2.4,1.6l0.2,0.2l0.3,0
			c1.3-0.2,2.7,0,3.8,0.5c0.3,0.1,0.8,0.4,0.9,0.5c0,0,0.1,0.2,0.1,0.3c0.1,0.6,0,1-0.1,1.3c-0.1,0.2-0.1,0.2,0,0.4
			c0,0.1,0.2,0.2,0.3,0.2c0.3,0,0.6-0.5,0.7-1.1l0.1-0.2l0.1,0.1c0.6,0.7,1.1,1.6,1.2,2.3l0,0.2l-0.1-0.2c-0.2-0.3-0.3-0.5-0.6-0.6
			c-0.4-0.3-0.8-0.4-2-0.4c-1-0.1-1.6-0.1-2.2-0.3c-1-0.3-1.5-0.7-2.6-2.3c-0.5-0.7-0.8-1-1.2-1.4C84.6,128.6,83.9,128.2,82.9,128.1
			z"/>
		<path class="st9" d="M91.8,129.6c0-0.5,0.1-0.7,0.2-1c0-0.1,0.1-0.2,0.1-0.2s0,0.1,0,0.2c-0.1,0.3-0.1,0.6,0,1
			c0.1,0.5,0.1,0.6,0.7,1.2c0.3,0.3,0.6,0.6,0.7,0.8l0.2,0.3l-0.2-0.2c-0.2-0.2-0.8-0.7-1-0.7c-0.1,0-0.1,0-0.2,0
			c0,0-0.1,0.1-0.1,0.5c0,0.5-0.1,0.9-0.3,1.2c-0.1,0.2-0.1,0.1,0-0.1c0.1-0.2,0.1-0.2,0.1-0.7c0-1-0.1-1.3-0.8-1.7
			c-0.2-0.1-0.5-0.3-0.7-0.3c-0.2-0.1-0.3-0.2-0.3-0.2c0,0,0.7,0.2,1,0.3c0.4,0.2,0.5,0.2,0.5,0.2C91.8,130,91.8,129.9,91.8,129.6
			L91.8,129.6z M83.4,131.4c-0.5-0.7-0.8-1.8-0.7-2.6l0-0.2l0.1,0c0.2,0,0.6,0.2,0.8,0.3c0.5,0.3,0.7,0.7,0.9,1.7
			c0.1,0.3,0.1,0.6,0.2,0.7c0.1,0.2,0.3,0.6,0.5,0.9c0.1,0.2,0,0.3-0.2,0.3C84.4,132.3,83.8,131.9,83.4,131.4z M91.2,136.5
			c-2.4-1-3.2-1.8-3.2-3.2c0-0.2,0-0.4,0-0.4c0,0,0.1,0.1,0.2,0.2c0.5,0.4,1,0.5,2.5,0.8c0.9,0.1,1.4,0.2,1.8,0.4
			c1.4,0.5,2.3,1.4,2.5,2.8c0.1,0.4,0,1.1-0.1,1.5c-0.1,0.3-0.3,0.8-0.4,0.9c0,0,0-0.1,0-0.2c0-0.5-0.3-1-0.7-1.3
			C93.4,137.5,92.8,137.2,91.2,136.5L91.2,136.5z M89.5,136.9c0-0.2-0.1-0.4-0.1-0.5l-0.1-0.2l0.1,0.1c0.2,0.2,0.3,0.4,0.4,0.7
			c0.1,0.2,0.1,0.3,0.1,0.7c0,0.4,0,0.4-0.1,0.6c-0.1,0.3-0.3,0.5-0.5,0.8c-0.4,0.4-1,0.7-1.8,0.8c-0.1,0-0.5,0-0.9,0.1
			c-0.9,0-1.5,0.1-2,0.3c-0.1,0-0.1,0-0.2,0c0,0,0.3-0.2,0.6-0.4c0.4-0.2,0.8-0.3,1.8-0.5c0.5-0.1,0.9-0.2,1.1-0.2
			C89.1,139,89.7,138,89.5,136.9L89.5,136.9z"/>
		<path class="st9" d="M90.6,138.8c-0.3-0.7-0.4-1.3-0.2-1.9c0-0.1,0-0.1,0.1-0.1c0,0,0.1,0,0.2,0.1c0.1,0.1,0.4,0.3,1.2,0.7
			c1,0.5,1.5,0.9,1.9,1.4c0.3,0.4,0.5,0.9,0.6,1.4c0.1,0.3,0,1.1-0.1,1.4c-0.3,1-0.9,1.8-1.7,2.3c-0.1,0.1-0.2,0.1-0.2,0.1
			c0,0,0-0.1,0.1-0.3c0.3-0.6,0.3-1.2,0.1-1.8c-0.1-0.4-0.4-0.9-1-1.7C90.9,139.4,90.8,139.2,90.6,138.8L90.6,138.8z M81.8,142.5
			c0.9-0.7,2-1.3,3-1.4c0.4-0.1,1.1,0,1.5,0.1c0.6,0.2,1.2,0.5,1.5,1c0.3,0.4,0.4,0.8,0.5,1.6c0,0.3,0.1,0.7,0.1,0.7
			c0.1,0.4,0.3,0.8,0.5,0.9c0.4,0.3,1,0.3,1.6,0c0.1,0,0.2-0.1,0.2-0.1c0,0-0.3,0.2-0.5,0.3c-0.3,0.2-0.5,0.2-0.9,0.2
			c-0.6,0-1.1-0.3-1.4-0.9c-0.1-0.1-0.2-0.5-0.4-0.8c-0.4-1-0.6-1.2-1.1-1.6c-0.4-0.3-1-0.3-1.4-0.1c-0.5,0.3-0.7,1-0.3,1.4
			c0.2,0.2,0.4,0.3,0.7,0.4c0.4,0.1,0.8-0.3,0.8-0.7c0-0.3-0.1-0.5-0.4-0.6c-0.4-0.2-0.8,0-0.8,0.4c0,0.2,0.1,0.2,0.2,0.3
			c0.1,0,0.1,0,0,0c-0.3-0.1-0.4-0.5-0.2-0.8c0.3-0.3,1-0.2,1.3,0.3c0.1,0.2,0.1,0.6,0,0.8c-0.2,0.5-0.8,0.8-1.4,0.6
			c-0.4-0.1-0.6-0.2-1-0.7c-0.8-0.9-1.2-1-2.3-1.2l-0.2,0L81.8,142.5L81.8,142.5z"/>
		<path class="st10" d="M75.5,123.3c2.8,3.4,7,8.6,7.2,8.9c0.2,0.2,0.1,0.5-0.2,0.6c-0.2,0.1-0.5,0.2-0.7,0.2
			c-0.2,0-0.4-0.1-0.6-0.2c-0.1-0.1-0.6-0.8-1.6-2.4c-0.8-1.2-1.5-2.3-1.5-2.3c0,0,0,0,1.4,2.6c0.9,1.6,1.2,2.2,1.2,2.3
			c0,0.2,0,0.2-0.2,0.5c-0.3,0.4-0.5,0.8-0.6,1.6c-0.1,0.9-0.4,1.6-1.4,2.7c-0.5,0.7-0.6,0.8-0.7,1.1c-0.2,0.3-0.2,0.5-0.2,0.9
			c0,0.5,0,0.7,0.2,1.2c0.1,0.4,0.2,0.6,0.6,1.1c0.3,0.4,0.4,0.7,0.4,0.9c0,0.1,0,0.1,0.5,0c1-0.2,1.9-0.6,2.3-1.1
			c0.3-0.3,0.4-0.5,0.4-0.9c0-0.3,0-0.3-0.1-0.5c-0.1-0.3-0.3-0.5-0.8-0.8c-0.6-0.4-0.9-0.8-1-1.3c-0.1-0.4,0-0.7,0.4-1.4
			c0.4-0.8,0.5-1.1,0.5-1.9c0-0.5,0.1-0.7,0.2-0.9c0.2-0.2,0.3-0.2,0.7-0.3c0.6-0.1,1-0.2,1.3-0.5c0.3-0.2,0.4-0.5,0.4-0.9l0-0.3
			l-0.2-0.2c-0.6-0.6-8.3-9.2-8.3-9.2C75.1,122.8,75.3,123.1,75.5,123.3z M79.2,140.2c0.1-0.2,0.1-0.5-0.2-0.7
			c-0.2-0.1-0.5-0.1-0.5,0.1c0,0,0,0.1,0.1,0.1c0.1,0.1,0.1,0.1,0,0.2s-0.1,0.2,0,0.3C78.8,140.5,79,140.5,79.2,140.2L79.2,140.2z
			 M84,134c-0.3,0.1-0.6,0.4-0.6,0.7c0,0.2,0,0.5,0.1,0.6c0.1,0.2,0.2,0.2,0.6,0.2c0.7,0,1.2-0.3,1.3-0.6c0.1-0.3-0.2-0.7-0.5-0.9
			C84.5,134,84.2,133.9,84,134L84,134z M84.7,134.6c0.1-0.1,0.1-0.3-0.1-0.4c-0.3-0.2-0.8,0-0.8,0.3c0,0.2,0.2,0.3,0.5,0.3
			C84.4,134.8,84.7,134.7,84.7,134.6L84.7,134.6z"/>
	</g>
</g>
<g>
	<path class="st11" d="M257.8,54.9L286,83.2c1.6,1.6,1.6,4.1,0,5.7l-28.3,28.3c-1.6,1.6-4.1,1.6-5.7,0l-28.3-28.3
		c-1.6-1.6-1.6-4.1,0-5.7l28.3-28.3C253.7,53.3,256.2,53.3,257.8,54.9z"/>
</g>
<g>
	<defs>
		<rect id="SVGID_3_" x="244.9" y="75" width="20" height="22.1"/>
	</defs>
	<clipPath id="SVGID_4_">
		<use xlink:href="#SVGID_3_"  style="overflow:visible;"/>
	</clipPath>
	<g class="st12">
		<path class="st13" d="M244.9,78.8v14.8l9.6,3.4V82.2l10.4-3.8l-9.4-3.4L244.9,78.8z"/>
		<path class="st13" d="M255.3,82.6v8.1l9.6,3.4V79L255.3,82.6L255.3,82.6z"/>
	</g>
</g>
<g>
	<path class="st14" d="M147.5,54.9l28.3,28.3c1.6,1.6,1.6,4.1,0,5.7l-28.3,28.3c-1.6,1.6-4.1,1.6-5.7,0l-28.3-28.3
		c-1.6-1.6-1.6-4.1,0-5.7l28.3-28.3C143.4,53.3,146,53.3,147.5,54.9z"/>
</g>
<g>
	<path class="st15" d="M147.5,54.9l28.3,28.3c1.6,1.6,1.6,4.1,0,5.7l-28.3,28.3c-1.6,1.6-4.1,1.6-5.7,0l-28.3-28.3
		c-1.6-1.6-1.6-4.1,0-5.7l28.3-28.3C143.4,53.3,146,53.3,147.5,54.9z"/>
</g>
<g>
	<path class="st16" d="M204,103.2l28.3,28.3c1.6,1.6,1.6,4.1,0,5.7L204,165.5c-1.6,1.6-4.1,1.6-5.7,0l-28.3-28.3
		c-1.6-1.6-1.6-4.1,0-5.7l28.3-28.3C200,101.7,202.5,101.7,204,103.2z"/>
</g>
<path class="st17" d="M191.3,141.5l5.9-3.4l4.1-7v-6.8c-0.1,0-0.2,0.1-0.3,0.2l-4.8,8.3l-4.8,8.3
	C191.2,141.3,191.2,141.4,191.3,141.5z"/>
<path class="st18" d="M201.2,124.2v6.8l4.1,7l5.9,3.4c0.1-0.1,0-0.2,0-0.4l-4.8-8.3l-4.8-8.3C201.4,124.3,201.3,124.2,201.2,124.2
	L201.2,124.2z"/>
<path class="st19" d="M211.1,141.5l-5.9-3.4h-8.1l-5.9,3.4c0.1,0.1,0.2,0.2,0.3,0.2h19.2C210.9,141.6,211.1,141.6,211.1,141.5
	L211.1,141.5z"/>
<path class="st20" d="M197.1,138.1h8.1l-4.1-7L197.1,138.1z"/>
<g>
	<path class="st21" d="M37.3,54.9l28.3,28.3c1.6,1.6,1.6,4.1,0,5.7l-28.3,28.3c-1.6,1.6-4.1,1.6-5.7,0L3.4,88.8
		c-1.6-1.6-1.6-4.1,0-5.7l28.3-28.3C33.2,53.3,35.8,53.3,37.3,54.9z"/>
</g>
<path class="st22" d="M36.5,86.7c-0.1,0-0.7,0-2,0c-1,0-1.8,0-2,0c-4-0.2-7-0.9-7-1.7c0-0.8,3-1.5,7-1.7V86c0.3,0,1,0.1,2.1,0.1
	c1.3,0,1.9-0.1,2-0.1v-2.7c4,0.2,7,0.9,7,1.7S40.5,86.5,36.5,86.7C36.5,86.7,36.5,86.7,36.5,86.7z M36.5,83v-2.4h5.6v-3.7H26.9v3.7
	h5.6V83c-4.6,0.2-8,1.1-8,2.2s3.4,2,8,2.2v7.9h4.1v-7.9c4.5-0.2,8-1.1,8-2.2C44.5,84.1,41.1,83.2,36.5,83L36.5,83z"/>
<g>
	<linearGradient id="SVGID_5_" gradientUnits="userSpaceOnUse" x1="128.2447" y1="73.9058" x2="162.5327" y2="97.035">
		<stop  offset="9.772402e-02" style="stop-color:#FF5124"/>
		<stop  offset="0.5631" style="stop-color:#EA492F"/>
		<stop  offset="1" style="stop-color:#DB3805"/>
	</linearGradient>
	<circle class="st23" cx="144.5" cy="84.9" r="17.7"/>
	<g>
		<path class="st24" d="M142.6,69.2c-0.4,0.4-0.7,0.8-1.1,1.5c-0.7,1.4-1,2.8-0.8,4.2c0.1,0.8,0.4,1.6,0.5,1.7
			c0.1,0,0.1,0.1,0.1,0.2c0,0,0.1,0.2,0.1,0.2c0.1,0.1,0.1,0.2-0.1,0.1c-0.5-0.1-1-0.6-1.5-1.1c-0.3-0.4-0.6-1.2-0.8-2.1
			c0-0.2-0.1-0.3-0.2-0.3c-0.1,0-1.4,0.6-1.4,0.7c0,0-0.1,0.1-0.1,0.1c0,0-0.2,0.1-0.3,0.2c-0.1,0.1-0.5,0.4-0.8,0.6
			c-0.6,0.5-1.8,1.6-2.1,2.1c-0.1,0.1-0.2,0.3-0.3,0.3c-0.1,0.1-0.3,0.4-0.7,1c-0.2,0.4-0.5,0.9-0.5,1c0,0,0.3-0.2,0.6-0.4
			c1.1-0.9,2-1.4,3.1-1.8c1-0.3,1-0.3,0.3,0.2c-0.7,0.5-2,1.7-2.5,2.4c-1.2,1.7-1.9,3.1-2.2,4.5c-0.2,1-0.2,2.9,0,2.9
			c0,0,0.1-0.1,0.1-0.1c0-0.6,0.9-2.5,1.5-3.3c0.7-0.9,2-2.1,2.3-2.1c0,0,0,0.1-0.1,0.1c-0.1,0.1-0.6,0.9-0.9,1.5
			c-0.7,1.3-1.2,3.1-1.2,4.4c0,1.1,0.4,2.7,1,3.6c0.1,0.2,0.3,0.5,0.3,0.5c0,0.1,1,1.2,1.4,1.5c0.4,0.3,0.9,0.6,1.4,0.9
			c0.5,0.2,1.2,0.5,1.2,0.4c0,0-0.2-0.3-0.5-0.6c-1-1.1-1.8-2.3-2.1-3.5c-0.3-0.8-0.1-3,0.2-3.5c0.1-0.1,0.1-0.1,0.1,0.3
			c0,1,0.5,2.1,1.3,3.1c0.3,0.3,0.5,0.6,0.5,0.6s0.3,0.3,0.5,0.6c0.3,0.3,0.5,0.6,0.5,0.6c0.3,0.3,1.5,1.9,1.5,2.1
			c0,0,0,0.1,0.1,0.1c0.1,0,0.7,1.3,0.9,2c0.1,0.4,0.2,0.9,0.2,1.3c0,0.4,0.1,0.7,0.1,0.7c0.2,0,0.8-1,1-1.6c0.2-0.7,0.3-2,0.1-2.7
			c-0.2-0.7-0.5-1.5-0.9-2.1c-0.2-0.3-0.3-0.5-0.3-0.5c0.3,0,1.8,1.4,2.1,2c0.1,0.2,0.2,0.4,0.3,0.6c0.4,0.7,0.6,1.4,0.6,2.4
			c0,1.2-0.3,2.1-1,3.2c-0.1,0.1-0.2,0.3-0.2,0.4c-0.1,0.2,0,0.2,0.6-0.1c1.3-0.7,2.8-2.2,3.5-3.5c0.2-0.4,0.5-1.4,0.5-1.9
			c0-0.7-0.3-2-0.6-2.2c-0.1-0.1-0.1,0-0.1,0.3c-0.1,0.8-0.6,2.2-0.6,1.9c-0.2-1-0.4-1.7-0.9-2.4c-0.6-0.9-1.2-1.3-3.2-2.6
			c-1.3-0.8-1.8-1.2-2.8-2c-0.4-0.4-0.9-0.9-0.9-1c0,0,0-0.1-0.1-0.2c-0.2-0.2-0.6-0.9-0.8-1.4c-0.2-0.4-0.2-0.6-0.2-1.5
			c0-0.9,0-1.1,0.2-1.7c0.1-0.3,0.3-0.8,0.5-1.1c0.3-0.5,1-1.3,1.5-1.6c0.3-0.2,1.2-0.7,1.6-0.7c0.2-0.1,0.2,0-0.2,0.3
			c-0.9,0.9-1.7,2.2-2,3.2c-0.2,0.8-0.2,2.5,0,2.5c0,0,0.1,0,0.1-0.1c0-0.2,0.4-0.9,0.7-1.4c0.2-0.3,0.5-0.6,0.7-0.8
			c0.2-0.2,0.4-0.3,0.4-0.4c0.1-0.1,1.1-0.6,1.3-0.7c0.2-0.1,0.2-0.1-0.3,0.7c-0.7,1-1.1,2.4-1,3.5c0,0.6,0.4,1.8,0.5,1.9
			c0,0,0.2,0.2,0.3,0.4c0.3,0.4,0.9,1,1.4,1.4c0.6,0.4,0.7,0.4,0.4,0c-0.4-0.6-0.7-2.2-0.5-3c0.1-0.5,0.4-1.3,0.6-1.3
			c0,0,0.1,0.2,0.1,0.4c0,1.2,0.4,2,1.6,3.2c0.5,0.5,1.1,1.1,1.4,1.4c1.5,1.4,2.2,2.6,2.4,4.1c0.1,0.9,0,1.7-0.2,2.4
			c-0.1,0.2-0.1,0.4-0.1,0.4c0.1,0,0.7-0.8,1-1.5c0.3-0.7,0.6-1.9,0.6-2.5c0-0.9-0.3-1.8-0.8-2.6c-0.4-0.6-0.8-0.9-1.6-1.6
			c-1.1-0.8-1.3-1.2-0.9-1.6c0.1-0.1,0.3-0.1,1-0.1c0.8,0,0.9,0,1.8,0.3c1.6,0.5,1.7,0.5,2.6,0.5c0.7,0,0.9,0,1.2-0.2
			c0.4-0.2,0.9-0.6,0.9-0.8c0,0-0.3-0.1-0.7-0.2c-0.4-0.1-1-0.2-1.5-0.4c-1.4-0.5-3-1-3.4-1.1c-0.2-0.1-0.4-0.1-0.4-0.2
			c0,0,0.1-0.1,0.3-0.1c0.4-0.1,1.2,0,1.9,0.2c0.2,0.1,0.8,0.3,1.2,0.5c1.9,0.7,2.9,0.8,3.6,0.4c0.4-0.2,0.8-0.6,0.8-0.7
			c0,0-0.1-0.2-0.3-0.3c-0.4-0.3-0.6-0.9-0.6-1.3c0-0.2,0.6-0.3,1.2-0.3l0.6,0l-0.2-0.2c-0.1-0.1-0.4-0.3-0.6-0.4
			c-0.2-0.1-0.5-0.4-0.7-0.5c-0.6-0.5-1.3-1-1.4-1c0,0-0.3-0.2-0.6-0.4c-0.3-0.2-0.5-0.4-0.5-0.4s-0.3-0.2-0.6-0.4s-0.6-0.4-0.7-0.5
			c0,0-0.1-0.3-0.2-0.7c-0.1-0.8-0.3-1.2-1.1-1.9c-1-1-2.5-2-4.1-2.8c-0.5-0.3-1-0.5-1.1-0.5c-0.1,0-0.2-0.1-0.3-0.1
			c-0.1,0-0.3-0.3-0.5-0.8c-0.3-0.7-0.7-1.4-0.8-1.4c0,0-0.1-0.1-0.1-0.1c0-0.1-0.3-0.4-0.9-1.1c-0.4-0.5-1.1-1.1-1.3-1.1
			C143,68.9,142.8,69,142.6,69.2 M142.9,70.9c-0.3,0.3-0.6,1.1-0.7,1.6c-0.1,0.3-0.1,0.8-0.1,1.2c0,0.7,0.1,0.9,0.3,1.3
			c0.4,0.7,1.3,1.6,1.1,1.1c-0.2-0.6-0.2-1-0.2-1.6c0-0.6,0.1-0.6,0.2-0.6c0.2,0,1.1,0.4,1.2,0.6c0.2,0.2,0.2,0.1,0.1-0.5
			c-0.1-0.6-0.6-1.7-1-2.3c-0.2-0.3-0.8-0.9-0.9-0.9C143.1,70.7,143,70.8,142.9,70.9 M147.3,71.2c-0.2,0.5-0.5,1.2-0.5,1.5
			c0,0.1,0.1,0.2,0.3,0.2c0.7,0.2,1.3,0.5,1.8,0.8c0.3,0.2,0.5,0.3,0.6,0.3c0.2,0.1-1.1-2.3-1.3-2.6c-0.1-0.1-0.1-0.1-0.1-0.2
			c0-0.1-0.4-0.6-0.5-0.6C147.5,70.8,147.4,71,147.3,71.2 M147.5,78.1l-0.7,0l0.3,0.1c1.1,0.5,1.3,0.6,1.6,1
			c0.4,0.7,0.8,0.8,1.7,0.9c0.5,0,0.8,0.1,1.1,0.3c0.5,0.2,0.5,0.2,0.5,0.1c0-0.3-1.5-2.1-1.8-2.1c-0.1,0-0.1,0-0.1-0.1
			C150.2,78.1,148.7,78,147.5,78.1"/>
		<path class="st20" d="M142.5,69c-0.4,0.4-0.7,0.8-1.1,1.5c-0.7,1.4-1,2.8-0.8,4.2c0.1,0.8,0.4,1.6,0.5,1.7c0.1,0,0.1,0.1,0.1,0.2
			c0,0,0.1,0.2,0.1,0.2c0.1,0.1,0.1,0.2-0.1,0.1c-0.5-0.1-1-0.6-1.5-1.1c-0.3-0.4-0.6-1.2-0.8-2.1c0-0.2-0.1-0.3-0.2-0.3
			c-0.1,0-1.4,0.6-1.4,0.7c0,0-0.1,0.1-0.1,0.1c0,0-0.2,0.1-0.3,0.2c-0.1,0.1-0.5,0.4-0.8,0.6c-0.6,0.5-1.8,1.6-2.1,2.1
			c-0.1,0.1-0.2,0.3-0.3,0.3c-0.1,0.1-0.3,0.4-0.7,1c-0.2,0.4-0.5,0.9-0.5,1c0,0,0.3-0.2,0.6-0.4c1.1-0.9,2-1.4,3.1-1.8
			c1-0.3,1-0.3,0.3,0.2c-0.7,0.5-2,1.7-2.5,2.4c-1.2,1.7-1.9,3.1-2.2,4.5c-0.2,1-0.2,2.9,0,2.9c0,0,0.1-0.1,0.1-0.1
			c0-0.6,0.9-2.5,1.5-3.3c0.7-0.9,2-2.1,2.3-2.1c0,0,0,0.1-0.1,0.1c-0.1,0.1-0.6,0.9-0.9,1.5c-0.7,1.3-1.2,3.1-1.2,4.4
			c0,1.1,0.4,2.7,1,3.6c0.1,0.2,0.3,0.5,0.3,0.5c0,0.1,1,1.2,1.4,1.5c0.4,0.3,0.9,0.6,1.4,0.9c0.5,0.2,1.2,0.5,1.2,0.4
			c0,0-0.2-0.3-0.5-0.6c-1-1.1-1.8-2.3-2.1-3.5c-0.3-0.8-0.1-3,0.2-3.5c0.1-0.1,0.1-0.1,0.1,0.3c0,1,0.5,2.1,1.3,3.1
			c0.3,0.3,0.5,0.6,0.5,0.6s0.3,0.3,0.5,0.6c0.3,0.3,0.5,0.6,0.5,0.6c0.3,0.3,1.5,1.9,1.5,2.1c0,0,0,0.1,0.1,0.1
			c0.1,0,0.7,1.3,0.9,2c0.1,0.4,0.2,0.9,0.2,1.3c0,0.4,0.1,0.7,0.1,0.7c0.2,0,0.8-1,1-1.6c0.2-0.7,0.3-2,0.1-2.7
			c-0.2-0.7-0.5-1.5-0.9-2.1c-0.2-0.3-0.3-0.5-0.3-0.5c0.3,0,1.8,1.4,2.1,2c0.1,0.2,0.2,0.4,0.3,0.6c0.4,0.7,0.6,1.4,0.6,2.4
			c0,1.2-0.3,2.1-1,3.2c-0.1,0.1-0.2,0.3-0.2,0.4c-0.1,0.2,0,0.2,0.6-0.1c1.3-0.7,2.8-2.2,3.5-3.5c0.2-0.4,0.5-1.4,0.5-1.9
			c0-0.7-0.3-2-0.6-2.2c-0.1-0.1-0.1,0-0.1,0.3c-0.1,0.8-0.6,2.2-0.6,1.9c-0.2-1-0.4-1.7-0.9-2.4c-0.6-0.9-1.2-1.3-3.2-2.6
			c-1.3-0.8-1.8-1.2-2.8-2c-0.4-0.4-0.9-0.9-0.9-1c0,0,0-0.1-0.1-0.2c-0.2-0.2-0.6-0.9-0.8-1.4c-0.2-0.4-0.2-0.6-0.2-1.5
			c0-0.9,0-1.1,0.2-1.7c0.1-0.3,0.3-0.8,0.5-1.1c0.3-0.5,1-1.3,1.5-1.6c0.3-0.2,1.2-0.7,1.6-0.7c0.2-0.1,0.2,0-0.2,0.3
			c-0.9,0.9-1.7,2.2-2,3.2c-0.2,0.8-0.2,2.5,0,2.5c0,0,0.1,0,0.1-0.1c0-0.2,0.4-0.9,0.7-1.4c0.2-0.3,0.5-0.6,0.7-0.8
			c0.2-0.2,0.4-0.3,0.4-0.4c0.1-0.1,1.1-0.6,1.3-0.7c0.2-0.1,0.2-0.1-0.3,0.7c-0.7,1-1.1,2.4-1,3.5c0,0.6,0.4,1.8,0.5,1.9
			c0,0,0.2,0.2,0.3,0.4c0.3,0.4,0.9,1,1.4,1.4c0.6,0.4,0.7,0.4,0.4,0c-0.4-0.6-0.7-2.2-0.5-3c0.1-0.5,0.4-1.3,0.6-1.3
			c0,0,0.1,0.2,0.1,0.4c0,1.2,0.4,2,1.6,3.2c0.5,0.5,1.1,1.1,1.4,1.4c1.5,1.4,2.2,2.6,2.4,4.1c0.1,0.9,0,1.7-0.2,2.4
			c-0.1,0.2-0.1,0.4-0.1,0.4c0.1,0,0.7-0.8,1-1.5c0.3-0.7,0.6-1.9,0.6-2.5c0-0.9-0.3-1.8-0.8-2.6c-0.4-0.6-0.8-0.9-1.6-1.6
			c-1.1-0.8-1.3-1.2-0.9-1.6c0.1-0.1,0.3-0.1,1-0.1c0.8,0,0.9,0,1.8,0.3c1.6,0.5,1.7,0.5,2.6,0.5c0.7,0,0.9,0,1.2-0.2
			c0.4-0.2,0.9-0.6,0.9-0.8c0,0-0.3-0.1-0.7-0.2c-0.4-0.1-1-0.2-1.5-0.4c-1.4-0.5-3-1-3.4-1.1c-0.2-0.1-0.4-0.1-0.4-0.2
			c0,0,0.1-0.1,0.3-0.1c0.4-0.1,1.2,0,1.9,0.2c0.2,0.1,0.8,0.3,1.2,0.5c1.9,0.7,2.9,0.8,3.6,0.4c0.4-0.2,0.8-0.6,0.8-0.7
			c0,0-0.1-0.2-0.3-0.3c-0.4-0.3-0.6-0.9-0.6-1.3c0-0.2,0.6-0.3,1.2-0.3l0.6,0l-0.2-0.2c-0.1-0.1-0.4-0.3-0.6-0.4
			c-0.2-0.1-0.5-0.4-0.7-0.5c-0.6-0.5-1.3-1-1.4-1c0,0-0.3-0.2-0.6-0.4c-0.3-0.2-0.5-0.4-0.5-0.4c0,0-0.3-0.2-0.6-0.4
			c-0.3-0.2-0.6-0.4-0.7-0.5c0,0-0.1-0.3-0.2-0.7c-0.1-0.8-0.3-1.2-1.1-1.9c-1-1-2.5-2-4.1-2.8c-0.5-0.3-1-0.5-1.1-0.5
			c-0.1,0-0.2-0.1-0.3-0.1c-0.1,0-0.3-0.3-0.5-0.8c-0.3-0.7-0.7-1.4-0.8-1.4c0,0-0.1-0.1-0.1-0.1c0-0.1-0.3-0.4-0.9-1.1
			c-0.4-0.5-1.1-1.1-1.3-1.1C142.8,68.7,142.6,68.9,142.5,69 M142.8,70.7c-0.3,0.3-0.6,1.1-0.7,1.6c-0.1,0.3-0.1,0.8-0.1,1.2
			c0,0.7,0.1,0.9,0.3,1.3c0.4,0.7,1.3,1.6,1.1,1.1c-0.2-0.6-0.2-1-0.2-1.6c0-0.6,0.1-0.6,0.2-0.6c0.2,0,1.1,0.4,1.2,0.6
			c0.2,0.2,0.2,0.1,0.1-0.5c-0.1-0.6-0.6-1.7-1-2.3c-0.2-0.3-0.8-0.9-0.9-0.9C143,70.5,142.9,70.6,142.8,70.7 M147.1,71.1
			c-0.2,0.5-0.5,1.2-0.5,1.5c0,0.1,0.1,0.2,0.3,0.2c0.7,0.2,1.3,0.5,1.8,0.8c0.3,0.2,0.5,0.3,0.6,0.3c0.2,0.1-1.1-2.3-1.3-2.6
			c-0.1-0.1-0.1-0.1-0.1-0.2c0-0.1-0.4-0.6-0.5-0.6C147.4,70.6,147.3,70.8,147.1,71.1 M147.4,77.9l-0.7,0l0.3,0.1
			c1.1,0.5,1.3,0.6,1.6,1c0.4,0.7,0.8,0.8,1.7,0.9c0.5,0,0.8,0.1,1.1,0.3c0.5,0.2,0.5,0.2,0.5,0.1c0-0.3-1.5-2.1-1.8-2.1
			c-0.1,0-0.1,0-0.1-0.1C150,78,148.6,77.8,147.4,77.9"/>
	</g>
</g>
</svg>
