<?xml version="1.0" encoding="utf-8"?>
<!-- Generator: Adobe Illustrator 24.3.0, SVG Export Plug-In . SVG Version: 6.00 Build 0)  -->
<svg version="1.1" id="Layer_1" xmlns="http://www.w3.org/2000/svg" xmlns:xlink="http://www.w3.org/1999/xlink" x="0px" y="0px"
	 viewBox="0 0 88 28" style="enable-background:new 0 0 88 28;" xml:space="preserve">
<style type="text/css">
	.st0{fill:#1B1B1F;}
	.st1{fill:url(#SVGID_1_);}
	.st2{fill-rule:evenodd;clip-rule:evenodd;fill:#808080;}
	.st3{fill-rule:evenodd;clip-rule:evenodd;fill:#FFFFFF;}
</style>
<path class="st0" d="M47,9.5l-3.2,11h-3l-2-7.7l-2,7.7h-3.1l-3.2-11h2.8l2,8.4l2.1-8.4h2.9l2.1,8.4l2-8.4H47z M47.1,15
	c0-1.1,0.2-2.1,0.6-3c0.5-0.9,1.1-1.5,1.8-2c0.2-0.1,0.4-0.2,0.6-0.3c0.2-0.1,0.4-0.1,0.7-0.2c0.2-0.1,0.4-0.1,0.6-0.1
	c0.3-0.1,0.5-0.1,0.7-0.1c0.8,0,1.5,0.2,2.1,0.5c0.7,0.3,1.2,0.8,1.5,1.3V9.5h2.9v11h-2.9v-1.6c-0.3,0.5-0.8,1-1.5,1.3
	c-0.6,0.3-1.3,0.5-2.1,0.5c-0.9,0-1.8-0.2-2.6-0.7c-0.7-0.5-1.3-1.1-1.8-2C47.3,17.1,47.1,16.1,47.1,15z M55.7,15
	c0-0.7-0.1-1.2-0.4-1.7c0-0.1-0.1-0.3-0.2-0.4c-0.1-0.1-0.1-0.2-0.2-0.3c-0.1-0.1-0.2-0.1-0.3-0.2c-0.1-0.1-0.2-0.1-0.3-0.2
	c-0.1-0.1-0.3-0.1-0.4-0.2c-0.1-0.1-0.2-0.1-0.3-0.1c-0.1-0.1-0.3-0.1-0.4-0.1c-0.1,0-0.3,0-0.4,0c-0.5,0-1,0.1-1.4,0.3
	c-0.5,0.3-0.8,0.7-1.1,1.2c-0.3,0.5-0.4,1-0.4,1.7s0.1,1.2,0.4,1.7c0.3,0.5,0.6,0.9,1.1,1.2c0.5,0.3,0.9,0.4,1.4,0.4
	c0.5,0,1-0.1,1.5-0.4c0.4-0.3,0.7-0.6,1-1.1C55.6,16.3,55.7,15.7,55.7,15z M63.4,5.8v14.7h-2.8V5.8H63.4z M68.2,5.8v14.7h-2.8V5.8
	H68.2z M80.6,14.8c0,0.4,0,0.8-0.1,1.1h-8.1c0.1,0.7,0.3,1.3,0.8,1.8c0.5,0.5,1.2,0.7,1.9,0.7c1,0,1.7-0.4,2.2-1.3h3
	c-0.3,1.1-1,1.9-1.9,2.6c-0.9,0.7-2,1-3.3,1c-1.1,0-2-0.2-2.9-0.7c-0.2-0.1-0.4-0.3-0.5-0.4c-0.2-0.1-0.4-0.3-0.6-0.5
	c-0.1-0.1-0.3-0.3-0.4-0.5c-0.2-0.2-0.3-0.4-0.4-0.6c-0.5-0.9-0.7-1.9-0.7-3s0.2-2.1,0.7-3c0.1-0.2,0.2-0.4,0.3-0.6
	c0.2-0.2,0.4-0.4,0.5-0.5c0.2-0.2,0.4-0.4,0.5-0.5c0.2-0.1,0.4-0.3,0.6-0.4c0.9-0.5,1.8-0.7,2.9-0.7s2,0.2,2.8,0.7
	c0.2,0.1,0.4,0.3,0.6,0.4c0.2,0.1,0.4,0.3,0.5,0.4c0.2,0.2,0.4,0.4,0.5,0.5c0.1,0.2,0.3,0.4,0.4,0.6C80.4,12.8,80.6,13.7,80.6,14.8z
	 M77.7,14c-0.1-0.7-0.3-1.3-0.8-1.7c-0.5-0.5-1.2-0.7-1.9-0.7c-0.7,0-1.2,0.2-1.7,0.6c-0.5,0.5-0.8,1.1-0.9,1.8L77.7,14z M85.2,11.8
	v5.3c0,0.4,0.1,0.7,0.3,0.8c0.1,0.2,0.4,0.3,0.9,0.3h1.3v2.3h-1.8c-2.3,0-3.5-1.1-3.5-3.4v-5.3h-1.3V9.5h1.3V6.8h2.8v2.7h2.5v2.3
	L85.2,11.8z"/>
<g id="Layer_1_1_">
</g>
<g>
	<linearGradient id="SVGID_1_" gradientUnits="userSpaceOnUse" x1="5.5218" y1="7.6329" x2="27.3505" y2="22.3576">
		<stop  offset="9.772402e-02" style="stop-color:#FF5124"/>
		<stop  offset="0.5631" style="stop-color:#EA492F"/>
		<stop  offset="1" style="stop-color:#DB3805"/>
	</linearGradient>
	<circle class="st1" cx="15.9" cy="14.6" r="11.2"/>
	<g>
		<path class="st2" d="M14.7,4.6c-0.3,0.3-0.4,0.5-0.7,1c-0.5,0.9-0.6,1.8-0.5,2.6c0.1,0.5,0.2,1,0.3,1.1c0,0,0.1,0.1,0.1,0.1
			s0,0.1,0.1,0.1c0.1,0.1,0.1,0.1,0,0.1c-0.3-0.1-0.7-0.4-0.9-0.7c-0.2-0.3-0.4-0.8-0.5-1.3c0-0.1-0.1-0.2-0.1-0.2
			c-0.1,0-0.9,0.4-0.9,0.5c0,0,0,0-0.1,0c0,0-0.1,0-0.2,0.1c-0.1,0.1-0.3,0.2-0.5,0.4c-0.4,0.3-1.1,1-1.4,1.3
			C9.3,9.8,9.3,9.9,9.2,10c0,0.1-0.2,0.2-0.4,0.6c-0.1,0.2-0.3,0.6-0.3,0.6c0,0,0.2-0.1,0.4-0.3c0.7-0.6,1.3-0.9,2-1.1
			c0.6-0.2,0.7-0.2,0.2,0.2c-0.4,0.3-1.3,1.1-1.6,1.5c-0.8,1.1-1.2,2-1.4,2.9c-0.1,0.7-0.1,1.8,0,1.8c0,0,0,0,0-0.1
			c0-0.4,0.6-1.6,1-2.1c0.5-0.6,1.3-1.3,1.5-1.3c0,0,0,0,0,0.1c-0.1,0.1-0.4,0.6-0.6,1c-0.4,0.8-0.7,2-0.7,2.8
			c0,0.7,0.3,1.7,0.6,2.3C9.9,19,10,19.1,10,19.1c0,0.1,0.6,0.7,0.9,0.9c0.2,0.2,0.6,0.4,0.9,0.5c0.3,0.1,0.8,0.3,0.8,0.3
			c0,0-0.1-0.2-0.3-0.4c-0.6-0.7-1.1-1.5-1.4-2.2c-0.2-0.5-0.1-1.9,0.2-2.2C11,16,11,16,11,16.2c0,0.6,0.3,1.3,0.8,2
			c0.2,0.2,0.3,0.4,0.3,0.4s0.2,0.2,0.3,0.4c0.2,0.2,0.3,0.4,0.3,0.4c0.2,0.2,0.9,1.2,0.9,1.3c0,0,0,0.1,0,0.1
			c0.1,0,0.4,0.8,0.6,1.3c0.1,0.3,0.1,0.6,0.2,0.9c0,0.3,0,0.5,0.1,0.5c0.1,0,0.5-0.7,0.7-1c0.2-0.4,0.2-1.3,0.1-1.7
			c-0.1-0.4-0.3-0.9-0.6-1.3c-0.1-0.2-0.2-0.3-0.2-0.3c0.2,0,1.2,0.9,1.4,1.3c0.1,0.1,0.2,0.3,0.2,0.4c0.2,0.4,0.4,0.9,0.4,1.5
			c0,0.7-0.2,1.3-0.6,2c-0.1,0.1-0.1,0.2-0.2,0.3c-0.1,0.1,0,0.1,0.4-0.1c0.8-0.5,1.8-1.4,2.2-2.2c0.1-0.3,0.3-0.9,0.3-1.2
			c0-0.4-0.2-1.3-0.4-1.4c-0.1-0.1-0.1,0-0.1,0.2c-0.1,0.5-0.4,1.4-0.4,1.2c-0.1-0.7-0.3-1.1-0.6-1.5c-0.4-0.6-0.8-0.9-2.1-1.7
			c-0.8-0.5-1.1-0.7-1.8-1.3c-0.3-0.2-0.6-0.6-0.6-0.6c0,0,0-0.1-0.1-0.1c-0.1-0.1-0.4-0.6-0.5-0.9c-0.1-0.3-0.1-0.4-0.1-1
			c0-0.6,0-0.7,0.1-1.1c0.1-0.2,0.2-0.5,0.3-0.7c0.2-0.3,0.6-0.8,0.9-1c0.2-0.1,0.8-0.4,1-0.5c0.1,0,0.1,0-0.1,0.2
			c-0.6,0.6-1.1,1.4-1.3,2c-0.1,0.5-0.1,1.6,0,1.6c0,0,0,0,0,0c0-0.1,0.3-0.6,0.5-0.9c0.1-0.2,0.3-0.4,0.5-0.5
			c0.1-0.1,0.3-0.2,0.3-0.2c0,0,0.7-0.4,0.8-0.4c0.1,0,0.1,0-0.2,0.4c-0.4,0.6-0.7,1.5-0.6,2.2c0,0.4,0.2,1.1,0.3,1.2
			c0,0,0.1,0.1,0.2,0.2c0.2,0.3,0.6,0.6,0.9,0.9c0.4,0.3,0.5,0.3,0.3,0c-0.3-0.4-0.5-1.4-0.4-1.9c0.1-0.3,0.3-0.8,0.4-0.8
			c0,0,0,0.1,0,0.3c0,0.8,0.3,1.3,1,2.1c0.3,0.3,0.7,0.7,0.9,0.9c1,0.9,1.4,1.6,1.5,2.6c0.1,0.6,0,1.1-0.1,1.5
			c-0.1,0.2-0.1,0.3-0.1,0.3c0.1,0,0.4-0.5,0.6-0.9c0.2-0.4,0.4-1.2,0.4-1.6c0-0.6-0.2-1.2-0.5-1.6c-0.3-0.4-0.5-0.6-1-1
			c-0.7-0.5-0.8-0.8-0.6-1c0.1-0.1,0.2-0.1,0.6-0.1c0.5,0,0.6,0,1.2,0.2c1,0.3,1.1,0.3,1.7,0.3c0.4,0,0.6,0,0.7-0.1
			c0.2-0.1,0.6-0.4,0.6-0.5c0,0-0.2-0.1-0.5-0.1c-0.3,0-0.7-0.1-1-0.2c-0.9-0.3-1.9-0.7-2.2-0.7c-0.1,0-0.3-0.1-0.3-0.1
			c0,0,0.1-0.1,0.2-0.1c0.2-0.1,0.8,0,1.2,0.2c0.1,0,0.5,0.2,0.8,0.3c1.2,0.4,1.8,0.5,2.3,0.3c0.2-0.1,0.5-0.4,0.5-0.4
			c0,0-0.1-0.1-0.2-0.2c-0.3-0.2-0.4-0.5-0.4-0.8c0-0.1,0.4-0.2,0.8-0.2l0.4,0l-0.1-0.1c-0.1-0.1-0.2-0.2-0.4-0.3
			c-0.1-0.1-0.3-0.2-0.4-0.3c-0.4-0.3-0.8-0.6-0.9-0.7c0,0-0.2-0.1-0.4-0.3s-0.3-0.2-0.3-0.2s-0.2-0.1-0.4-0.3
			c-0.2-0.1-0.4-0.3-0.4-0.3c0,0-0.1-0.2-0.1-0.4c-0.1-0.5-0.2-0.8-0.7-1.2C20,8.8,19,8.2,18,7.7c-0.3-0.2-0.6-0.3-0.7-0.3
			c0,0-0.1,0-0.2,0c0,0-0.2-0.2-0.3-0.5c-0.2-0.5-0.5-0.9-0.5-0.9c0,0,0,0,0-0.1c0,0-0.2-0.3-0.5-0.7C15.5,4.9,15,4.4,15,4.4
			C14.9,4.4,14.8,4.5,14.7,4.6 M14.9,5.7c-0.2,0.2-0.4,0.7-0.5,1c0,0.2-0.1,0.5,0,0.8c0,0.5,0,0.5,0.2,0.8c0.2,0.5,0.8,1,0.7,0.7
			c-0.1-0.4-0.1-0.7-0.1-1c0-0.4,0-0.4,0.2-0.4c0.1,0,0.7,0.3,0.8,0.4c0.1,0.1,0.2,0,0.1-0.3c-0.1-0.4-0.4-1.1-0.6-1.5
			C15.4,6,15.1,5.6,15,5.6C15,5.6,14.9,5.6,14.9,5.7 M17.6,5.9c-0.2,0.3-0.3,0.8-0.3,0.9c0,0,0.1,0.1,0.2,0.1
			c0.4,0.1,0.8,0.3,1.2,0.5C18.9,7.6,19,7.7,19,7.7c0.1,0.1-0.7-1.5-0.8-1.7c0,0-0.1-0.1-0.1-0.1c0,0-0.3-0.4-0.3-0.4
			C17.8,5.6,17.7,5.8,17.6,5.9 M17.8,10.3l-0.4,0l0.2,0.1c0.7,0.3,0.8,0.4,1,0.6c0.3,0.4,0.5,0.5,1.1,0.6c0.3,0,0.5,0.1,0.7,0.2
			c0.3,0.2,0.3,0.2,0.3,0.1c0-0.2-0.9-1.4-1.1-1.4c0,0-0.1,0-0.1,0C19.5,10.3,18.6,10.2,17.8,10.3"/>
		<path class="st3" d="M14.6,4.5c-0.3,0.3-0.4,0.5-0.7,1c-0.5,0.9-0.6,1.8-0.5,2.6c0.1,0.5,0.2,1,0.3,1.1c0,0,0.1,0.1,0.1,0.1
			s0,0.1,0.1,0.1c0.1,0.1,0.1,0.1,0,0.1c-0.3-0.1-0.7-0.4-0.9-0.7c-0.2-0.3-0.4-0.8-0.5-1.3c0-0.1-0.1-0.2-0.1-0.2
			c-0.1,0-0.9,0.4-0.9,0.5c0,0,0,0-0.1,0s-0.1,0-0.2,0.1c-0.1,0.1-0.3,0.2-0.5,0.4c-0.4,0.3-1.1,1-1.4,1.3C9.2,9.7,9.2,9.8,9.1,9.9
			c0,0.1-0.2,0.2-0.4,0.6c-0.1,0.2-0.3,0.6-0.3,0.6c0,0,0.2-0.1,0.4-0.3c0.7-0.6,1.3-0.9,2-1.1c0.6-0.2,0.7-0.2,0.2,0.2
			c-0.4,0.3-1.3,1.1-1.6,1.5c-0.8,1.1-1.2,2-1.4,2.9c-0.1,0.7-0.1,1.8,0,1.8c0,0,0,0,0-0.1c0-0.4,0.6-1.6,1-2.1
			c0.5-0.6,1.3-1.3,1.5-1.3c0,0,0,0,0,0.1c-0.1,0.1-0.4,0.6-0.6,1c-0.4,0.8-0.7,2-0.7,2.8c0,0.7,0.3,1.7,0.6,2.3
			C9.8,18.9,9.9,19,9.9,19c0,0.1,0.6,0.7,0.9,0.9c0.2,0.2,0.6,0.4,0.9,0.5c0.3,0.1,0.8,0.3,0.8,0.3c0,0-0.1-0.2-0.3-0.4
			c-0.6-0.7-1.1-1.5-1.4-2.2c-0.2-0.5-0.1-1.9,0.2-2.2c0.1-0.1,0.1-0.1,0.1,0.2c0,0.6,0.3,1.3,0.8,2c0.2,0.2,0.3,0.4,0.3,0.4
			s0.2,0.2,0.3,0.4c0.2,0.2,0.3,0.4,0.3,0.4c0.2,0.2,0.9,1.2,0.9,1.3c0,0,0,0.1,0,0.1c0.1,0,0.4,0.8,0.6,1.3
			c0.1,0.3,0.1,0.6,0.2,0.9c0,0.3,0,0.5,0.1,0.5c0.1,0,0.5-0.7,0.7-1c0.2-0.4,0.2-1.3,0.1-1.7c-0.1-0.4-0.3-0.9-0.6-1.3
			c-0.1-0.2-0.2-0.3-0.2-0.3c0.2,0,1.2,0.9,1.4,1.3c0.1,0.1,0.2,0.3,0.2,0.4c0.2,0.4,0.4,0.9,0.4,1.5c0,0.7-0.2,1.3-0.6,2
			c-0.1,0.1-0.1,0.2-0.2,0.3c-0.1,0.1,0,0.1,0.4-0.1c0.8-0.5,1.8-1.4,2.2-2.2c0.1-0.3,0.3-0.9,0.3-1.2c0-0.4-0.2-1.3-0.4-1.4
			c-0.1-0.1-0.1,0-0.1,0.2c-0.1,0.5-0.4,1.4-0.4,1.2c-0.1-0.7-0.3-1.1-0.6-1.5c-0.4-0.6-0.8-0.9-2.1-1.7c-0.8-0.5-1.1-0.7-1.8-1.3
			c-0.3-0.2-0.6-0.6-0.6-0.6c0,0,0-0.1-0.1-0.1c-0.1-0.1-0.4-0.6-0.5-0.9c-0.1-0.3-0.1-0.4-0.1-1c0-0.6,0-0.7,0.1-1.1
			c0.1-0.2,0.2-0.5,0.3-0.7c0.2-0.3,0.6-0.8,0.9-1c0.2-0.1,0.8-0.4,1-0.5c0.1,0,0.1,0-0.1,0.2c-0.6,0.6-1.1,1.4-1.3,2
			c-0.1,0.5-0.1,1.6,0,1.6c0,0,0,0,0,0c0-0.1,0.3-0.6,0.5-0.9c0.1-0.2,0.3-0.4,0.5-0.5c0.1-0.1,0.3-0.2,0.3-0.2c0,0,0.7-0.4,0.8-0.4
			c0.1,0,0.1,0-0.2,0.4c-0.4,0.6-0.7,1.5-0.6,2.2c0,0.4,0.2,1.1,0.3,1.2c0,0,0.1,0.1,0.2,0.2c0.2,0.3,0.6,0.6,0.9,0.9
			c0.4,0.3,0.5,0.3,0.3,0c-0.3-0.4-0.5-1.4-0.4-1.9c0.1-0.3,0.3-0.8,0.4-0.8c0,0,0,0.1,0,0.3c0,0.8,0.3,1.3,1,2.1
			c0.3,0.3,0.7,0.7,0.9,0.9c1,0.9,1.4,1.6,1.5,2.6c0.1,0.6,0,1.1-0.1,1.5c-0.1,0.2-0.1,0.3-0.1,0.3c0.1,0,0.4-0.5,0.6-0.9
			c0.2-0.4,0.4-1.2,0.4-1.6c0-0.6-0.2-1.2-0.5-1.6c-0.3-0.4-0.5-0.6-1-1c-0.7-0.5-0.8-0.8-0.6-1c0.1-0.1,0.2-0.1,0.6-0.1
			c0.5,0,0.6,0,1.2,0.2c1,0.3,1.1,0.3,1.7,0.3c0.4,0,0.6,0,0.7-0.1c0.2-0.1,0.6-0.4,0.6-0.5c0,0-0.2-0.1-0.5-0.1
			c-0.3,0-0.7-0.1-1-0.2c-0.9-0.3-1.9-0.7-2.2-0.7c-0.1,0-0.3-0.1-0.3-0.1c0,0,0.1-0.1,0.2-0.1c0.2-0.1,0.8,0,1.2,0.2
			c0.1,0,0.5,0.2,0.8,0.3c1.2,0.4,1.8,0.5,2.3,0.3c0.2-0.1,0.5-0.4,0.5-0.4c0,0-0.1-0.1-0.2-0.2c-0.3-0.2-0.4-0.5-0.4-0.8
			c0-0.1,0.4-0.2,0.8-0.2l0.4,0l-0.1-0.1c-0.1-0.1-0.2-0.2-0.4-0.3c-0.1-0.1-0.3-0.2-0.4-0.3c-0.4-0.3-0.8-0.6-0.9-0.7
			c0,0-0.2-0.1-0.4-0.3s-0.3-0.2-0.3-0.2s-0.2-0.1-0.4-0.3c-0.2-0.1-0.4-0.3-0.4-0.3c0,0-0.1-0.2-0.1-0.4c-0.1-0.5-0.2-0.8-0.7-1.2
			c-0.7-0.6-1.6-1.3-2.6-1.8c-0.3-0.2-0.6-0.3-0.7-0.3c0,0-0.1,0-0.2,0c0,0-0.2-0.2-0.3-0.5c-0.2-0.5-0.5-0.9-0.5-0.9c0,0,0,0,0-0.1
			c0,0-0.2-0.3-0.5-0.7c-0.3-0.3-0.7-0.7-0.8-0.7C14.8,4.3,14.7,4.4,14.6,4.5 M14.8,5.6c-0.2,0.2-0.4,0.7-0.5,1c0,0.2-0.1,0.5,0,0.8
			c0,0.5,0,0.5,0.2,0.8c0.2,0.5,0.8,1,0.7,0.7c-0.1-0.4-0.1-0.7-0.1-1c0-0.4,0-0.4,0.2-0.4c0.1,0,0.7,0.3,0.8,0.4
			c0.1,0.1,0.2,0,0.1-0.3c-0.1-0.4-0.4-1.1-0.6-1.5c-0.1-0.2-0.5-0.6-0.6-0.6C14.9,5.5,14.8,5.5,14.8,5.6 M17.5,5.8
			c-0.2,0.3-0.3,0.8-0.3,0.9c0,0,0.1,0.1,0.2,0.1c0.4,0.1,0.8,0.3,1.2,0.5c0.2,0.1,0.3,0.2,0.4,0.2c0.1,0.1-0.7-1.5-0.8-1.7
			c0,0-0.1-0.1-0.1-0.1c0,0-0.3-0.4-0.3-0.4C17.7,5.5,17.6,5.7,17.5,5.8 M17.7,10.2l-0.4,0l0.2,0.1c0.7,0.3,0.8,0.4,1,0.6
			c0.3,0.4,0.5,0.5,1.1,0.6c0.3,0,0.5,0.1,0.7,0.2c0.3,0.2,0.3,0.2,0.3,0.1c0-0.2-0.9-1.4-1.1-1.4c0,0-0.1,0-0.1,0
			C19.4,10.2,18.5,10.1,17.7,10.2"/>
	</g>
</g>
</svg>
