<?xml version="1.0" encoding="utf-8"?>
<!-- Generator: Adobe Illustrator 24.3.0, SVG Export Plug-In . SVG Version: 6.00 Build 0)  -->
<svg version="1.1" id="Layer_1" xmlns="http://www.w3.org/2000/svg" xmlns:xlink="http://www.w3.org/1999/xlink" x="0px" y="0px"
	 viewBox="0 0 88 28" style="enable-background:new 0 0 88 28;" xml:space="preserve">
<style type="text/css">
	.st0{fill:#F0F0F4;}
	.st1{fill:url(#SVGID_1_);}
	.st2{fill-rule:evenodd;clip-rule:evenodd;fill:#808080;}
	.st3{fill-rule:evenodd;clip-rule:evenodd;fill:#FFFFFF;}
</style>
<g id="Layer_1_1_">
</g>
<path class="st0" d="M47,9.5l-3.2,11h-3l-2-7.7l-2,7.7h-3.1l-3.2-11h2.8l2,8.4l2.1-8.4h2.9l2.1,8.4l2-8.4H47z M47.1,15
	c0-1.1,0.2-2.1,0.6-3c0.5-0.9,1.1-1.5,1.8-2c0.2-0.1,0.4-0.2,0.6-0.3c0.2-0.1,0.4-0.1,0.7-0.2c0.2-0.1,0.4-0.1,0.6-0.1
	c0.3-0.1,0.5-0.1,0.7-0.1c0.8,0,1.5,0.2,2.1,0.5c0.7,0.3,1.2,0.8,1.5,1.3V9.5h2.9v11h-2.9v-1.6c-0.3,0.5-0.8,1-1.5,1.3
	c-0.6,0.3-1.3,0.5-2.1,0.5c-0.9,0-1.8-0.2-2.6-0.7c-0.7-0.5-1.3-1.1-1.8-2C47.3,17.1,47.1,16.1,47.1,15z M55.7,15
	c0-0.7-0.1-1.2-0.4-1.7c0-0.1-0.1-0.3-0.2-0.4c-0.1-0.1-0.1-0.2-0.2-0.3c-0.1-0.1-0.2-0.1-0.3-0.2c-0.1-0.1-0.2-0.1-0.3-0.2
	c-0.1-0.1-0.3-0.1-0.4-0.2c-0.1-0.1-0.2-0.1-0.3-0.1c-0.1-0.1-0.3-0.1-0.4-0.1c-0.1,0-0.3,0-0.4,0c-0.5,0-1,0.1-1.4,0.3
	c-0.5,0.3-0.8,0.7-1.1,1.2c-0.3,0.5-0.4,1-0.4,1.7s0.1,1.2,0.4,1.7c0.3,0.5,0.6,0.9,1.1,1.2c0.5,0.3,0.9,0.4,1.4,0.4
	c0.5,0,1-0.1,1.5-0.4c0.4-0.3,0.7-0.6,1-1.1C55.6,16.3,55.7,15.7,55.7,15z M63.4,5.8v14.7h-2.8V5.8H63.4z M68.2,5.8v14.7h-2.8V5.8
	H68.2z M80.6,14.8c0,0.4,0,0.8-0.1,1.1h-8.1c0.1,0.7,0.3,1.3,0.8,1.8c0.5,0.5,1.2,0.7,1.9,0.7c1,0,1.7-0.4,2.2-1.3h3
	c-0.3,1.1-1,1.9-1.9,2.6c-0.9,0.7-2,1-3.3,1c-1.1,0-2-0.2-2.9-0.7c-0.2-0.1-0.4-0.3-0.5-0.4c-0.2-0.1-0.4-0.3-0.6-0.5
	c-0.1-0.1-0.3-0.3-0.4-0.5c-0.2-0.2-0.3-0.4-0.4-0.6c-0.5-0.9-0.7-1.9-0.7-3s0.2-2.1,0.7-3c0.1-0.2,0.2-0.4,0.3-0.6
	c0.2-0.2,0.4-0.4,0.5-0.5c0.2-0.2,0.4-0.4,0.5-0.5c0.2-0.1,0.4-0.3,0.6-0.4c0.9-0.5,1.8-0.7,2.9-0.7s2,0.2,2.8,0.7
	c0.2,0.1,0.4,0.3,0.6,0.4c0.2,0.1,0.4,0.3,0.5,0.4c0.2,0.2,0.4,0.4,0.5,0.5c0.1,0.2,0.3,0.4,0.4,0.6C80.4,12.8,80.6,13.7,80.6,14.8z
	 M77.7,14c-0.1-0.7-0.3-1.3-0.8-1.7c-0.5-0.5-1.2-0.7-1.9-0.7c-0.7,0-1.2,0.2-1.7,0.6c-0.5,0.5-0.8,1.1-0.9,1.8L77.7,14z M85.2,11.8
	v5.3c0,0.4,0.1,0.7,0.3,0.8c0.1,0.2,0.4,0.3,0.9,0.3h1.3v2.3h-1.8c-2.3,0-3.5-1.1-3.5-3.4v-5.3h-1.3V9.5h1.3V6.8h2.8v2.7h2.5v2.3
	L85.2,11.8z"/>
<g>
	<linearGradient id="SVGID_1_" gradientUnits="userSpaceOnUse" x1="3.5532" y1="7.3967" x2="25.6744" y2="22.3186">
		<stop  offset="9.772402e-02" style="stop-color:#FF5124"/>
		<stop  offset="0.5631" style="stop-color:#EA492F"/>
		<stop  offset="1" style="stop-color:#DB3805"/>
	</linearGradient>
	<circle class="st1" cx="14" cy="14.5" r="11.4"/>
	<g>
		<path class="st2" d="M12.8,4.3c-0.3,0.3-0.4,0.5-0.7,1c-0.5,0.9-0.6,1.8-0.5,2.7c0.1,0.5,0.2,1,0.3,1.1c0,0,0.1,0.1,0.1,0.1
			c0,0,0,0.1,0.1,0.2c0.1,0.1,0.1,0.1,0,0.1c-0.3-0.1-0.7-0.4-0.9-0.7c-0.2-0.3-0.4-0.8-0.5-1.4c0-0.1-0.1-0.2-0.1-0.2
			c-0.1,0-0.9,0.4-0.9,0.5c0,0,0,0-0.1,0s-0.1,0-0.2,0.1C9.3,7.8,9.1,8,8.9,8.2c-0.4,0.3-1.1,1-1.4,1.4C7.4,9.6,7.3,9.7,7.3,9.8
			c0,0.1-0.2,0.2-0.4,0.7c-0.1,0.2-0.3,0.6-0.3,0.7c0,0,0.2-0.1,0.4-0.3c0.7-0.6,1.3-0.9,2-1.1c0.6-0.2,0.7-0.2,0.2,0.2
			c-0.4,0.3-1.3,1.1-1.6,1.5c-0.8,1.1-1.2,2-1.4,2.9c-0.1,0.7-0.1,1.9,0,1.9c0,0,0,0,0-0.1c0-0.4,0.6-1.6,1-2.2
			c0.5-0.6,1.3-1.4,1.5-1.4c0,0,0,0,0,0.1c-0.1,0.1-0.4,0.6-0.6,1c-0.4,0.8-0.8,2-0.8,2.8c0,0.7,0.3,1.7,0.6,2.3C8,18.9,8,19,8,19.1
			C8,19.1,8.7,19.8,9,20c0.2,0.2,0.6,0.4,0.9,0.6c0.3,0.1,0.8,0.3,0.8,0.3c0,0-0.1-0.2-0.3-0.4c-0.6-0.7-1.1-1.5-1.4-2.3
			c-0.2-0.5-0.1-1.9,0.2-2.2c0.1-0.1,0.1-0.1,0.1,0.2c0,0.6,0.3,1.3,0.8,2c0.2,0.2,0.3,0.4,0.3,0.4c0,0,0.2,0.2,0.4,0.4
			c0.2,0.2,0.3,0.4,0.4,0.4c0.2,0.2,1,1.3,1,1.3c0,0,0,0.1,0,0.1c0.1,0,0.4,0.8,0.6,1.3c0.1,0.3,0.1,0.6,0.2,0.9
			c0,0.3,0,0.5,0.1,0.5c0.1,0,0.5-0.7,0.7-1.1c0.2-0.5,0.2-1.3,0.1-1.8c-0.1-0.5-0.3-0.9-0.6-1.3c-0.1-0.2-0.2-0.3-0.2-0.3
			c0.2,0,1.2,0.9,1.4,1.3c0.1,0.1,0.2,0.3,0.2,0.4c0.2,0.4,0.4,0.9,0.4,1.5c0,0.8-0.2,1.3-0.6,2.1c-0.1,0.1-0.1,0.2-0.2,0.3
			c-0.1,0.1,0,0.1,0.4-0.1c0.8-0.5,1.8-1.4,2.3-2.3c0.1-0.3,0.3-0.9,0.3-1.2c0-0.4-0.2-1.3-0.4-1.4c-0.1-0.1-0.1,0-0.1,0.2
			C16.3,20.1,16,21,16,20.8c-0.1-0.7-0.3-1.1-0.6-1.6c-0.4-0.6-0.8-0.9-2.1-1.7c-0.8-0.5-1.1-0.7-1.8-1.3c-0.3-0.2-0.6-0.6-0.6-0.6
			c0,0,0-0.1-0.1-0.1c-0.1-0.1-0.4-0.6-0.5-0.9c-0.1-0.3-0.1-0.4-0.1-1c0-0.6,0-0.7,0.1-1.1c0.1-0.2,0.2-0.5,0.3-0.7
			c0.2-0.3,0.6-0.8,0.9-1.1c0.2-0.1,0.8-0.4,1-0.5c0.1,0,0.1,0-0.1,0.2c-0.6,0.6-1.1,1.4-1.3,2c-0.1,0.5-0.2,1.6,0,1.6c0,0,0,0,0,0
			c0-0.1,0.3-0.6,0.5-0.9c0.1-0.2,0.3-0.4,0.5-0.5c0.1-0.1,0.3-0.2,0.3-0.2c0,0,0.7-0.4,0.8-0.4c0.1,0,0.1,0-0.2,0.4
			c-0.4,0.6-0.7,1.5-0.7,2.2c0,0.4,0.2,1.2,0.3,1.2c0,0,0.1,0.1,0.2,0.2c0.2,0.3,0.6,0.7,0.9,0.9c0.4,0.3,0.5,0.3,0.3,0
			c-0.3-0.4-0.5-1.4-0.4-1.9c0.1-0.3,0.3-0.8,0.4-0.8c0,0,0,0.1,0,0.3c0,0.8,0.3,1.3,1.1,2.1c0.3,0.3,0.7,0.7,0.9,0.9
			c1,0.9,1.4,1.7,1.5,2.7c0.1,0.6,0,1.1-0.1,1.5c-0.1,0.2-0.1,0.3-0.1,0.3c0.1,0,0.4-0.5,0.6-0.9c0.2-0.4,0.4-1.2,0.4-1.6
			c0-0.6-0.2-1.2-0.5-1.6c-0.3-0.4-0.5-0.6-1.1-1c-0.7-0.5-0.8-0.8-0.6-1c0.1-0.1,0.2-0.1,0.6-0.1c0.5,0,0.6,0,1.2,0.2
			c1,0.3,1.1,0.3,1.7,0.3c0.4,0,0.6,0,0.8-0.1c0.2-0.1,0.6-0.4,0.6-0.5c0,0-0.2-0.1-0.5-0.1c-0.3,0-0.7-0.1-1-0.2
			c-0.9-0.3-1.9-0.7-2.2-0.7c-0.1,0-0.3-0.1-0.3-0.1c0,0,0.1-0.1,0.2-0.1c0.2-0.1,0.8,0,1.2,0.2c0.1,0,0.5,0.2,0.8,0.3
			c1.2,0.4,1.8,0.5,2.3,0.3c0.3-0.1,0.5-0.4,0.5-0.5c0,0-0.1-0.1-0.2-0.2c-0.3-0.2-0.4-0.6-0.4-0.8c0-0.1,0.4-0.2,0.8-0.2l0.4,0
			L23,13.3c-0.1-0.1-0.2-0.2-0.4-0.3s-0.3-0.2-0.5-0.3c-0.4-0.3-0.9-0.6-0.9-0.7c0,0-0.2-0.1-0.4-0.3c-0.2-0.1-0.3-0.2-0.4-0.3
			c0,0-0.2-0.1-0.4-0.3S19.7,11,19.7,11c0,0-0.1-0.2-0.1-0.4c-0.1-0.5-0.2-0.8-0.7-1.3c-0.7-0.7-1.6-1.3-2.6-1.8
			c-0.3-0.2-0.7-0.3-0.7-0.3c0,0-0.1,0-0.2,0c0,0-0.2-0.2-0.3-0.5c-0.2-0.5-0.5-0.9-0.5-0.9c0,0,0,0,0-0.1c0,0-0.2-0.3-0.6-0.7
			c-0.3-0.3-0.7-0.7-0.8-0.7C13.1,4.2,12.9,4.2,12.8,4.3 M13,5.5c-0.2,0.2-0.4,0.7-0.5,1c0,0.2-0.1,0.5,0,0.8c0,0.5,0,0.6,0.2,0.9
			c0.2,0.5,0.8,1,0.7,0.7c-0.1-0.4-0.1-0.7-0.1-1c0-0.4,0-0.4,0.2-0.4c0.1,0,0.7,0.3,0.8,0.4c0.1,0.1,0.2,0,0.1-0.3
			c-0.1-0.4-0.4-1.1-0.7-1.5c-0.1-0.2-0.5-0.6-0.6-0.6C13.2,5.3,13.1,5.4,13,5.5 M15.8,5.7c-0.2,0.3-0.3,0.8-0.3,0.9
			c0,0,0.1,0.1,0.2,0.1c0.4,0.1,0.9,0.3,1.2,0.5c0.2,0.1,0.3,0.2,0.4,0.2c0.1,0.1-0.7-1.5-0.9-1.7c0,0-0.1-0.1-0.1-0.1
			c0,0-0.3-0.4-0.3-0.4C16,5.4,15.9,5.5,15.8,5.7 M16,10.1l-0.4,0l0.2,0.1c0.7,0.3,0.8,0.4,1,0.6c0.3,0.4,0.5,0.5,1.1,0.6
			c0.3,0,0.5,0.1,0.7,0.2c0.3,0.2,0.3,0.2,0.3,0.1c0-0.2-1-1.4-1.1-1.4c0,0-0.1,0-0.1,0C17.7,10.1,16.8,10,16,10.1"/>
		<path class="st3" d="M12.7,4.2c-0.3,0.3-0.4,0.5-0.7,1c-0.5,0.9-0.6,1.8-0.5,2.7c0.1,0.5,0.2,1,0.3,1.1c0,0,0.1,0.1,0.1,0.1
			c0,0,0,0.1,0.1,0.2c0.1,0.1,0.1,0.1,0,0.1c-0.3-0.1-0.7-0.4-0.9-0.7c-0.2-0.3-0.4-0.8-0.5-1.4c0-0.1-0.1-0.2-0.1-0.2
			c-0.1,0-0.9,0.4-0.9,0.5c0,0,0,0-0.1,0c0,0-0.1,0-0.2,0.1C9.2,7.7,9,7.9,8.8,8.1c-0.4,0.3-1.1,1-1.4,1.4C7.3,9.5,7.2,9.6,7.2,9.7
			c0,0.1-0.2,0.2-0.4,0.7c-0.1,0.2-0.3,0.6-0.3,0.7c0,0,0.2-0.1,0.4-0.3c0.7-0.6,1.3-0.9,2-1.1C9.4,9.4,9.5,9.4,9,9.7
			c-0.4,0.3-1.3,1.1-1.6,1.5c-0.8,1.1-1.2,2-1.4,2.9C5.9,14.8,5.9,16,6,16c0,0,0,0,0-0.1c0-0.4,0.6-1.6,1-2.2
			c0.5-0.6,1.3-1.4,1.5-1.4c0,0,0,0,0,0.1c-0.1,0.1-0.4,0.6-0.6,1c-0.4,0.8-0.8,2-0.8,2.8c0,0.7,0.3,1.7,0.6,2.3
			c0.1,0.2,0.2,0.3,0.2,0.3c0,0.1,0.7,0.7,0.9,0.9c0.2,0.2,0.6,0.4,0.9,0.6c0.3,0.1,0.8,0.3,0.8,0.3c0,0-0.1-0.2-0.3-0.4
			c-0.6-0.7-1.1-1.5-1.4-2.3c-0.2-0.5-0.1-1.9,0.2-2.2C9,15.7,9,15.8,9.1,16c0,0.6,0.3,1.3,0.8,2c0.2,0.2,0.3,0.4,0.3,0.4
			c0,0,0.2,0.2,0.4,0.4c0.2,0.2,0.3,0.4,0.4,0.4c0.2,0.2,1,1.3,1,1.3c0,0,0,0.1,0,0.1c0.1,0,0.4,0.8,0.6,1.3
			c0.1,0.3,0.1,0.6,0.2,0.9c0,0.3,0,0.5,0.1,0.5c0.1,0,0.5-0.7,0.7-1.1c0.2-0.5,0.2-1.3,0.1-1.8c-0.1-0.5-0.3-0.9-0.6-1.3
			c-0.1-0.2-0.2-0.3-0.2-0.3c0.2,0,1.2,0.9,1.4,1.3c0.1,0.1,0.2,0.3,0.2,0.4c0.2,0.4,0.4,0.9,0.4,1.5c0,0.8-0.2,1.3-0.6,2.1
			c-0.1,0.1-0.1,0.2-0.2,0.3c-0.1,0.1,0,0.1,0.4-0.1c0.8-0.5,1.8-1.4,2.3-2.3c0.1-0.3,0.3-0.9,0.3-1.2c0-0.4-0.2-1.3-0.4-1.4
			c-0.1-0.1-0.1,0-0.1,0.2c-0.1,0.5-0.4,1.4-0.4,1.2c-0.1-0.7-0.3-1.1-0.6-1.6c-0.4-0.6-0.8-0.9-2.1-1.7c-0.8-0.5-1.1-0.7-1.8-1.3
			c-0.3-0.2-0.6-0.6-0.6-0.6c0,0,0-0.1-0.1-0.1c-0.1-0.1-0.4-0.6-0.5-0.9c-0.1-0.3-0.1-0.4-0.1-1c0-0.6,0-0.7,0.1-1.1
			c0.1-0.2,0.2-0.5,0.3-0.7c0.2-0.3,0.6-0.8,0.9-1.1c0.2-0.1,0.8-0.4,1-0.5c0.1,0,0.1,0-0.1,0.2c-0.6,0.6-1.1,1.4-1.3,2
			C11,12.9,11,14,11.1,14c0,0,0,0,0,0c0-0.1,0.3-0.6,0.5-0.9c0.1-0.2,0.3-0.4,0.5-0.5c0.1-0.1,0.3-0.2,0.3-0.2c0,0,0.7-0.4,0.8-0.4
			c0.1,0,0.1,0-0.2,0.4c-0.4,0.6-0.7,1.5-0.7,2.2c0,0.4,0.2,1.2,0.3,1.2c0,0,0.1,0.1,0.2,0.2c0.2,0.3,0.6,0.7,0.9,0.9
			c0.4,0.3,0.5,0.3,0.3,0c-0.3-0.4-0.5-1.4-0.4-1.9c0.1-0.3,0.3-0.8,0.4-0.8c0,0,0,0.1,0,0.3c0,0.8,0.3,1.3,1.1,2.1
			c0.3,0.3,0.7,0.7,0.9,0.9c1,0.9,1.4,1.7,1.5,2.7c0.1,0.6,0,1.1-0.1,1.5c-0.1,0.2-0.1,0.3-0.1,0.3c0.1,0,0.4-0.5,0.6-0.9
			c0.2-0.4,0.4-1.2,0.4-1.6c0-0.6-0.2-1.2-0.5-1.6c-0.3-0.4-0.5-0.6-1.1-1c-0.7-0.5-0.8-0.8-0.6-1c0.1-0.1,0.2-0.1,0.6-0.1
			c0.5,0,0.6,0,1.2,0.2c1,0.3,1.1,0.3,1.7,0.3c0.4,0,0.6,0,0.8-0.1c0.2-0.1,0.6-0.4,0.6-0.5c0,0-0.2-0.1-0.5-0.1
			c-0.3,0-0.7-0.1-1-0.2c-0.9-0.3-1.9-0.7-2.2-0.7c-0.1,0-0.3-0.1-0.3-0.1c0,0,0.1-0.1,0.2-0.1c0.2-0.1,0.8,0,1.2,0.2
			c0.1,0,0.5,0.2,0.8,0.3c1.2,0.4,1.8,0.5,2.3,0.3c0.3-0.1,0.5-0.4,0.5-0.5c0,0-0.1-0.1-0.2-0.2c-0.3-0.2-0.4-0.6-0.4-0.8
			c0-0.1,0.4-0.2,0.8-0.2l0.4,0l-0.1-0.1c-0.1-0.1-0.2-0.2-0.4-0.3s-0.3-0.2-0.5-0.3c-0.4-0.3-0.9-0.6-0.9-0.7c0,0-0.2-0.1-0.4-0.3
			s-0.3-0.2-0.4-0.3c0,0-0.2-0.1-0.4-0.3c-0.2-0.1-0.4-0.3-0.4-0.3c0,0-0.1-0.2-0.1-0.4c-0.1-0.5-0.2-0.8-0.7-1.3
			c-0.7-0.7-1.6-1.3-2.6-1.8C15.8,7.2,15.5,7,15.4,7c0,0-0.1,0-0.2,0c0,0-0.2-0.2-0.3-0.5c-0.2-0.5-0.5-0.9-0.5-0.9c0,0,0,0,0-0.1
			c0,0-0.2-0.3-0.6-0.7c-0.3-0.3-0.7-0.7-0.8-0.7C13,4.1,12.8,4.1,12.7,4.2 M12.9,5.4c-0.2,0.2-0.4,0.7-0.5,1c0,0.2-0.1,0.5,0,0.8
			c0,0.5,0,0.6,0.2,0.9c0.2,0.5,0.8,1,0.7,0.7c-0.1-0.4-0.1-0.7-0.1-1c0-0.4,0-0.4,0.2-0.4c0.1,0,0.7,0.3,0.8,0.4
			c0.1,0.1,0.2,0,0.1-0.3c-0.1-0.4-0.4-1.1-0.7-1.5c-0.1-0.2-0.5-0.6-0.6-0.6C13.1,5.2,13,5.3,12.9,5.4 M15.7,5.6
			c-0.2,0.3-0.3,0.8-0.3,0.9c0,0,0.1,0.1,0.2,0.1C16,6.8,16.5,7,16.8,7.2c0.2,0.1,0.3,0.2,0.4,0.2c0.1,0.1-0.7-1.5-0.9-1.7
			c0,0-0.1-0.1-0.1-0.1c0,0-0.3-0.4-0.3-0.4C15.9,5.3,15.8,5.4,15.7,5.6 M15.9,10l-0.4,0l0.2,0.1c0.7,0.3,0.8,0.4,1,0.6
			c0.3,0.4,0.5,0.5,1.1,0.6c0.3,0,0.5,0.1,0.7,0.2c0.3,0.2,0.3,0.2,0.3,0.1c0-0.2-1-1.4-1.1-1.4c0,0-0.1,0-0.1,0
			C17.6,10,16.7,9.9,15.9,10"/>
	</g>
</g>
</svg>
