<?xml version="1.0" encoding="utf-8"?>
<!-- Generator: Adobe Illustrator 24.3.0, SVG Export Plug-In . SVG Version: 6.00 Build 0)  -->
<svg version="1.1" id="Layer_1" xmlns="http://www.w3.org/2000/svg" xmlns:xlink="http://www.w3.org/1999/xlink" x="0px" y="0px"
	 viewBox="0 0 333 189" style="enable-background:new 0 0 333 189;" xml:space="preserve">
<style type="text/css">
	.st0{clip-path:url(#SVGID_2_);}
	.st1{fill-rule:evenodd;clip-rule:evenodd;fill:#FFFFFF;}
	.st2{fill-rule:evenodd;clip-rule:evenodd;fill:#E8E9EE;}
	.st3{fill:#1F2020;}
	.st4{font-family:'Arial-BoldMT';}
	.st5{font-size:23px;}
	.st6{fill-rule:evenodd;clip-rule:evenodd;fill:#ECEFF2;}
	.st7{fill:none;stroke:#E8E9EE;stroke-width:0.7;}
	.st8{fill-rule:evenodd;clip-rule:evenodd;fill:#FDF4F2;}
	.st9{fill-rule:evenodd;clip-rule:evenodd;fill:#FC9378;}
	.st10{fill-rule:evenodd;clip-rule:evenodd;fill:url(#SVGID_3_);}
	.st11{clip-path:url(#SVGID_5_);}
	.st12{fill:#717171;}
	.st13{fill:url(#SVGID_6_);}
	.st14{fill-rule:evenodd;clip-rule:evenodd;fill:#808080;}
</style>
<g>
	<defs>
		<rect id="SVGID_1_" x="7.2" y="12.8" width="285.3" height="28.3"/>
	</defs>
	<clipPath id="SVGID_2_">
		<use xlink:href="#SVGID_1_"  style="overflow:visible;"/>
	</clipPath>
	<g id="Clip-Path" class="st0">
		<g>
			<path class="st1" d="M7.2,12.8h282.4v28.4H7.2L7.2,12.8z"/>
			<path class="st2" d="M12.9,15.7h54.5c1.6,0,2.9,1.2,2.9,2.8v17c0,1.6-1.3,2.8-2.9,2.8H12.9c-1.6,0-2.8-1.2-2.8-2.8v-17
				C10.1,16.9,11.3,15.7,12.9,15.7z"/>
			<g id="Layer_1_1_">
			</g>
			<text transform="matrix(1 0 0 1 0 -6.728313e-06)" class="st3 st4 st5">i</text>
			<text transform="matrix(1 0 0 1 6.3901 -6.728313e-06)" class="st3 st4 st5">B</text>
			<text transform="matrix(1 0 0 1 23 -6.728313e-06)" class="st3 st4 st5">r</text>
			<text transform="matrix(1 0 0 1 31.9507 -6.728313e-06)" class="st3 st4 st5">o</text>
			<text transform="matrix(1 0 0 1 46 -6.728313e-06)" class="st3 st4 st5">w</text>
			<text transform="matrix(1 0 0 1 63.8901 -6.728313e-06)" class="st3 st4 st5">e</text>
			<path class="st6" d="M83.7,22.7h165.4c2.4,0,4.3,1.9,4.3,4.3s-1.9,4.3-4.3,4.3H83.7c-2.3,0-4.2-1.9-4.2-4.3S81.4,22.7,83.7,22.7z
				"/>
		</g>
	</g>
</g>
<g>
	<path class="st1" d="M7.2,56h285.4v122.6H7.2L7.2,56z"/>
	<path class="st6" d="M22.9,67.4h165.3c2.4,0,4.3,1.9,4.3,4.2c0,2.4-1.9,4.3-4.3,4.3H22.9c-2.4,0-4.3-1.9-4.3-4.3
		C18.6,69.3,20.5,67.4,22.9,67.4z"/>
	<path class="st7" d="M18.9,81.9h262v85h-262L18.9,81.9z"/>
	<path class="st8" d="M18.6,81.6h262.7v29.9H18.6L18.6,81.6z"/>
	<path class="st9" d="M28.5,92.3h165.4c2.4,0,4.3,1.9,4.3,4.2c0,2.4-1.9,4.3-4.3,4.3H28.5c-2.3,0-4.3-1.9-4.3-4.3
		C24.2,94.2,26.2,92.3,28.5,92.3z"/>
</g>
<linearGradient id="SVGID_3_" gradientUnits="userSpaceOnUse" x1="-132.082" y1="527.4005" x2="-131.0818" y2="527.4005" gradientTransform="matrix(-121.077 0 0 28.322 -15698.7881 -14910.0371)">
	<stop  offset="0" style="stop-color:#FFFFFF"/>
	<stop  offset="1" style="stop-color:#FFFFFF;stop-opacity:0"/>
</linearGradient>
<path class="st10" d="M172.2,12.8h121.1v28.4H172.2L172.2,12.8z"/>
<path class="st1" d="M290.7,0c22.9,0,41.4,18.5,41.4,41.3c0,22.9-18.5,41.4-41.4,41.4c-22.8,0-41.3-18.5-41.3-41.4
	C249.4,18.5,267.9,0,290.7,0z"/>
<g>
	<defs>
		<rect id="SVGID_4_" x="260.7" y="31" width="61.9" height="20.7"/>
	</defs>
	<clipPath id="SVGID_5_">
		<use xlink:href="#SVGID_4_"  style="overflow:visible;"/>
	</clipPath>
	<g id="Clip-Path_1_" class="st11">
		<g>
			<path d="M313.6,50.4v1.3h8.9v-5.9h-1.3v4.6L313.6,50.4z M313.6,31v1.3h7.7v4.6h1.3V31H313.6z M312.2,41.6
				c0.9-0.2,1.6-1.1,1.6-2.1c0-0.7-0.2-1.2-0.7-1.7c-0.7-0.6-1.5-0.9-2.5-0.9h-2.9v8.9h1.3v-3.5h1.9c1,0,1.4,0.4,1.4,1.4v2.1h1.3
				v-1.9c0-1.4-0.4-2-1.4-2.1L312.2,41.6z M309,41.1V38h2c1,0,1.4,0.4,1.4,1.3v0.5c0,0.9-0.4,1.3-1.4,1.3H309z M301.5,41.9h3.9v-1.2
				h-3.9V38h4.3v-1.1h-5.6v8.9h5.8v-1.2h-4.5L301.5,41.9z M297.2,42.4V43c0,1.3-0.5,1.7-1.6,1.7h-0.3c-1.2,0-1.8-0.4-1.8-2.1v-2.4
				c0-1.8,0.6-2.2,1.8-2.2h0.3c1.1,0,1.5,0.4,1.5,1.6h1.4c-0.1-1.7-1.3-2.8-3.1-2.8c-0.9,0-1.6,0.2-2.1,0.7
				c-0.8,0.8-1.2,2.1-1.2,3.9c0,1.7,0.4,3,1.2,3.7c0.5,0.6,1.2,0.9,2,0.9c0.7,0,1.4-0.4,1.8-1h0.2v0.8h1.1v-4.6H295v1.2L297.2,42.4z
				 M287.4,45.8c2.5,0,3.4-1.8,3.4-4.4c0-2.7-1-4.5-3.4-4.5h-2.8v8.9H287.4z M285.9,38.1h1.4c1.3,0,2,0.3,2,2.1v2.3
				c0,1.8-0.7,2.2-2,2.2h-1.4V38.1z M278.5,41.9h3.9v-1.2h-3.9v-2.6h4.3v-1.2h-5.6v8.9h5.8v-1.2h-4.5L278.5,41.9z M270.9,36.9h-1.3
				v8.9h5.9v-1.1h-4.6V36.9z M260.7,45.8v5.9h8.9v-1.3H262v-4.6L260.7,45.8z M260.7,31v5.9h1.3v-4.6h7.6V31L260.7,31z"/>
		</g>
	</g>
</g>
<g>
	<g>
		<path class="st12" d="M32.8,23.3c0-0.2,0.1-0.3,0.3-0.3h0.7c0.1,0,0.1,0,0.2,0.1c0,0,0.1,0.1,0.1,0.2v0.6c0,0.1,0,0.1-0.1,0.2
			c0,0.1-0.1,0.1-0.2,0.1h-0.7c-0.2,0-0.3-0.1-0.3-0.3V23.3z M32.8,25.2c0-0.1,0-0.1,0.1-0.2c0-0.1,0.1-0.1,0.2-0.1h0.7
			c0,0,0.1,0,0.1,0c0,0,0.1,0,0.1,0.1c0,0,0,0.1,0.1,0.1c0,0,0,0.1,0,0.1v4.9c0,0.2-0.1,0.3-0.3,0.3h-0.7c-0.2,0-0.3-0.1-0.3-0.3
			V25.2z"/>
		<path class="st12" d="M35.6,24.2c0-0.1,0.1-0.2,0.2-0.2h2.7c0.3,0,0.5,0,0.7,0.1c0.2,0.1,0.4,0.2,0.6,0.4c0.2,0.2,0.3,0.3,0.4,0.6
			c0.1,0.2,0.1,0.5,0.1,0.7c0,0.2,0,0.4-0.1,0.6c-0.1,0.2-0.2,0.4-0.3,0.5c0.1,0.1,0.2,0.2,0.3,0.3c0.1,0.1,0.2,0.2,0.2,0.4
			c0.1,0.1,0.1,0.3,0.2,0.4c0,0.1,0.1,0.3,0.1,0.4c0,0.3,0,0.5-0.1,0.7c-0.1,0.2-0.2,0.4-0.4,0.6c-0.2,0.2-0.4,0.3-0.6,0.4
			c-0.2,0.1-0.5,0.2-0.7,0.2h-3c-0.1,0-0.1,0-0.1,0c0,0-0.1-0.1-0.1-0.1V24.2z M39,25.8c0-0.1,0-0.2-0.1-0.3c0-0.1-0.1-0.2-0.2-0.2
			c-0.1-0.1-0.2-0.1-0.3-0.2c-0.1,0-0.2-0.1-0.3-0.1h-1.4v1.6h1.4c0.1,0,0.2,0,0.3-0.1c0.1,0,0.2-0.1,0.3-0.2
			c0.1-0.1,0.1-0.2,0.2-0.2C39,26,39,25.9,39,25.8z M39.3,28.5c0-0.1,0-0.2-0.1-0.3c0-0.1-0.1-0.2-0.1-0.3c-0.1-0.1-0.1-0.1-0.2-0.2
			c-0.1-0.1-0.2-0.1-0.3-0.1c-0.1,0-0.1,0-0.2,0c-0.1,0-0.1,0-0.2,0h-1.5v1.7h1.5c0.1,0,0.1,0,0.2,0c0.1,0,0.1,0,0.2,0
			c0.1,0,0.2,0,0.3-0.1c0.1-0.1,0.2-0.1,0.2-0.2c0.1-0.1,0.1-0.2,0.1-0.3C39.3,28.7,39.3,28.6,39.3,28.5z"/>
		<path class="st12" d="M41.5,25.2c0-0.1,0-0.1,0.1-0.2c0.1,0,0.1-0.1,0.2-0.1h0.6c0.1,0,0.1,0,0.2,0.1c0,0,0.1,0.1,0.1,0.2
			c0,0.1,0,0.1,0,0.2c0,0.1,0,0.1,0,0.2c0.1-0.1,0.1-0.2,0.2-0.3c0.1-0.1,0.2-0.2,0.3-0.2c0.1-0.1,0.2-0.1,0.3-0.2
			c0.1,0,0.3-0.1,0.4-0.1c0.1,0,0.3,0,0.4,0c0.1,0,0.2,0,0.3,0.1c0.1,0,0.2,0.1,0.3,0.2c0.1,0.1,0.2,0.1,0.3,0.2
			c0,0,0.1,0.1,0.1,0.1c0,0,0.1,0.1,0.1,0.1c0,0,0,0,0,0.1c0,0,0,0.1,0,0.1L45,26.3c0,0,0,0-0.1,0.1c0,0-0.1,0-0.1,0
			c0,0-0.1,0-0.1,0c-0.1-0.1-0.2-0.1-0.3-0.1c-0.1,0-0.2-0.1-0.2-0.1c-0.1,0-0.2-0.1-0.2-0.1c-0.1,0-0.2,0-0.3,0
			c-0.3,0-0.5,0.1-0.7,0.2c-0.2,0.2-0.3,0.4-0.4,0.7v3.2c0,0.2-0.1,0.3-0.3,0.3h-0.7c-0.2,0-0.3-0.1-0.3-0.3V25.2z"/>
		<path class="st12" d="M46,27.7c0-0.3,0-0.5,0.1-0.8c0.1-0.2,0.2-0.5,0.3-0.7c0.1-0.2,0.3-0.4,0.4-0.6c0.2-0.2,0.4-0.3,0.6-0.4
			c0.2-0.1,0.4-0.2,0.7-0.3c0.2-0.1,0.5-0.1,0.8-0.1c0.3,0,0.5,0,0.8,0.1c0.2,0.1,0.5,0.2,0.7,0.3c0.2,0.1,0.4,0.3,0.6,0.4
			c0.2,0.2,0.3,0.4,0.4,0.6c0.1,0.2,0.2,0.4,0.3,0.7c0.1,0.2,0.1,0.5,0.1,0.8c0,0.3,0,0.5-0.1,0.8c-0.1,0.2-0.2,0.5-0.3,0.7
			c-0.1,0.2-0.3,0.4-0.4,0.6c-0.2,0.2-0.4,0.3-0.6,0.4c-0.2,0.1-0.4,0.2-0.7,0.3c-0.2,0.1-0.5,0.1-0.8,0.1c-0.3,0-0.5,0-0.8-0.1
			c-0.2-0.1-0.5-0.2-0.7-0.3c-0.2-0.1-0.4-0.3-0.6-0.4c-0.2-0.2-0.3-0.4-0.4-0.6c-0.1-0.2-0.2-0.4-0.3-0.7C46,28.2,46,27.9,46,27.7z
			 M47.2,27.7c0,0.2,0,0.4,0.1,0.7c0.1,0.2,0.2,0.4,0.3,0.5c0.1,0.2,0.3,0.3,0.5,0.4c0.2,0.1,0.4,0.1,0.6,0.1c0.2,0,0.4,0,0.6-0.1
			c0.2-0.1,0.4-0.2,0.5-0.4c0.1-0.2,0.3-0.3,0.3-0.5c0.1-0.2,0.1-0.4,0.1-0.7c0-0.2,0-0.4-0.1-0.6c-0.1-0.2-0.2-0.4-0.3-0.5
			c-0.1-0.2-0.3-0.3-0.5-0.4C49.3,26,49.1,26,48.9,26c-0.2,0-0.5,0-0.6,0.1c-0.2,0.1-0.4,0.2-0.5,0.4c-0.1,0.2-0.3,0.3-0.3,0.5
			C47.3,27.2,47.2,27.5,47.2,27.7z"/>
		<path class="st12" d="M52.3,25.3C52.3,25.3,52.3,25.2,52.3,25.3c0-0.1,0-0.1,0-0.1c0,0,0,0,0-0.1c0-0.1,0-0.1,0.1-0.1
			c0,0,0.1,0,0.2,0h0.8c0.1,0,0.2,0.1,0.3,0.2c0.1,0.1,0.1,0.3,0.2,0.5c0.1,0.2,0.2,0.4,0.2,0.6c0.1,0.2,0.2,0.5,0.3,0.7
			c0.1,0.2,0.2,0.4,0.2,0.7c0.1,0.2,0.1,0.4,0.2,0.5c0.1,0.2,0.1,0.3,0.1,0.4c0.1-0.4,0.3-0.8,0.5-1.4c0.2-0.6,0.5-1.2,0.7-2
			c0-0.1,0.1-0.1,0.1-0.1c0,0,0.1,0,0.2,0h0.8c0.1,0,0.2,0,0.2,0c0,0,0,0.1,0,0.1c0,0,0,0.1,0,0.1c0,0,0,0.1,0,0.1l-0.5,1.1
			c0.1,0.1,0.1,0.3,0.2,0.5c0.1,0.2,0.2,0.4,0.2,0.6c0.1,0.2,0.2,0.4,0.3,0.6c0.1,0.2,0.2,0.4,0.2,0.6c0.1-0.1,0.1-0.3,0.2-0.5
			c0.1-0.2,0.1-0.4,0.2-0.6c0.1-0.2,0.2-0.4,0.2-0.6c0.1-0.2,0.2-0.4,0.2-0.6c0.1-0.2,0.2-0.4,0.2-0.6c0.1-0.2,0.1-0.4,0.2-0.5
			c0-0.1,0.1-0.1,0.1-0.1c0,0,0.1,0,0.2,0h0.7c0.1,0,0.1,0,0.2,0c0,0,0.1,0.1,0.1,0.1c0,0,0,0,0,0.1c0,0,0,0.1,0,0.1l-2,5
			c0,0,0,0,0,0.1c0,0,0,0-0.1,0.1c0,0,0,0-0.1,0c0,0-0.1,0-0.1,0h-0.4c-0.1,0-0.2,0-0.2-0.1c0,0-0.1-0.1-0.1-0.1
			c-0.2-0.4-0.3-0.8-0.5-1.2c-0.2-0.4-0.3-0.8-0.5-1.2l-1,2.4c0,0-0.1,0.1-0.1,0.1c0,0-0.1,0.1-0.2,0.1h-0.4c-0.1,0-0.2,0-0.2-0.1
			c0,0-0.1-0.1-0.1-0.1L52.3,25.3z"/>
		<path class="st12" d="M65.6,29.8c-0.3,0.2-0.5,0.4-0.8,0.5c-0.3,0.1-0.6,0.2-1,0.2c-0.4,0-0.8-0.1-1.1-0.2
			c-0.4-0.1-0.7-0.3-0.9-0.6c-0.3-0.3-0.5-0.6-0.6-0.9c-0.2-0.3-0.2-0.7-0.2-1.1c0-0.3,0-0.5,0.1-0.7c0.1-0.2,0.2-0.5,0.3-0.7
			c0.1-0.2,0.3-0.4,0.4-0.6c0.2-0.2,0.4-0.3,0.6-0.4c0.2-0.1,0.4-0.2,0.7-0.3c0.2-0.1,0.5-0.1,0.8-0.1c0.2,0,0.4,0,0.7,0.1
			c0.2,0.1,0.4,0.1,0.6,0.2c0.2,0.1,0.4,0.2,0.5,0.4c0.2,0.1,0.3,0.3,0.4,0.5c0.2,0.2,0.3,0.5,0.4,0.8c0.1,0.3,0.1,0.6,0.1,0.9
			c0,0.1,0,0.2,0,0.2c0,0.1,0,0.1-0.1,0.1c0,0-0.1,0.1-0.1,0.1c-0.1,0-0.1,0-0.2,0h-3.9c0,0.2,0.1,0.4,0.2,0.5
			c0.1,0.2,0.2,0.3,0.4,0.4c0.1,0.1,0.3,0.2,0.5,0.2c0.2,0.1,0.3,0.1,0.5,0.1c0.1,0,0.3,0,0.4,0c0.1,0,0.2-0.1,0.3-0.1
			c0.1,0,0.2-0.1,0.3-0.1c0.1-0.1,0.2-0.1,0.2-0.2c0,0,0,0,0,0c0,0,0.1-0.1,0.1-0.1c0,0,0.1,0,0.1,0c0,0,0.1,0,0.1,0
			c0,0,0.1,0,0.1,0.1c0.1,0.1,0.1,0.2,0.2,0.2c0.1,0.1,0.1,0.1,0.1,0.2c0,0,0.1,0.1,0.1,0.1c0,0,0,0.1,0,0.1
			C65.7,29.6,65.7,29.7,65.6,29.8z M63.7,25.9c-0.2,0-0.3,0-0.5,0.1c-0.2,0.1-0.3,0.1-0.4,0.3c-0.1,0.1-0.3,0.2-0.4,0.4
			c-0.1,0.1-0.2,0.3-0.2,0.5h3.1c0-0.2-0.1-0.3-0.2-0.5c-0.1-0.1-0.2-0.3-0.3-0.4c-0.1-0.1-0.3-0.2-0.5-0.2
			C64,26,63.9,25.9,63.7,25.9z"/>
	</g>
	<linearGradient id="SVGID_6_" gradientUnits="userSpaceOnUse" x1="13.9153" y1="21.1015" x2="30.5055" y2="32.2925">
		<stop  offset="9.772402e-02" style="stop-color:#FF5124"/>
		<stop  offset="0.5631" style="stop-color:#EA492F"/>
		<stop  offset="1" style="stop-color:#DB3805"/>
	</linearGradient>
	<circle class="st13" cx="21.8" cy="26.4" r="8.5"/>
	<g>
		<path class="st14" d="M20.9,18.8c-0.2,0.2-0.3,0.4-0.5,0.7c-0.3,0.7-0.5,1.3-0.4,2c0.1,0.4,0.2,0.8,0.3,0.8c0,0,0.1,0.1,0.1,0.1
			c0,0,0,0.1,0.1,0.1c0.1,0.1,0.1,0.1,0,0c-0.2-0.1-0.5-0.3-0.7-0.6c-0.2-0.2-0.3-0.6-0.4-1c0-0.1,0-0.1-0.1-0.1
			c-0.1,0-0.7,0.3-0.7,0.3c0,0,0,0-0.1,0c0,0-0.1,0-0.1,0.1c-0.1,0-0.2,0.2-0.4,0.3c-0.3,0.2-0.9,0.8-1,1c-0.1,0.1-0.1,0.1-0.1,0.2
			c0,0-0.1,0.2-0.3,0.5c-0.1,0.2-0.3,0.5-0.3,0.5c0,0,0.1-0.1,0.3-0.2c0.5-0.4,1-0.7,1.5-0.8c0.5-0.1,0.5-0.1,0.1,0.1
			c-0.3,0.2-1,0.8-1.2,1.1c-0.6,0.8-0.9,1.5-1.1,2.2c-0.1,0.5-0.1,1.4,0,1.4c0,0,0,0,0-0.1c0-0.3,0.4-1.2,0.7-1.6c0.3-0.5,1-1,1.1-1
			c0,0,0,0,0,0.1c-0.1,0.1-0.3,0.4-0.4,0.7c-0.3,0.6-0.6,1.5-0.6,2.1c0,0.6,0.2,1.3,0.5,1.8c0.1,0.1,0.1,0.2,0.1,0.2
			c0,0,0.5,0.6,0.7,0.7c0.2,0.1,0.4,0.3,0.7,0.4c0.2,0.1,0.6,0.2,0.6,0.2c0,0-0.1-0.1-0.2-0.3c-0.5-0.5-0.8-1.1-1-1.7
			c-0.1-0.4-0.1-1.4,0.1-1.7c0-0.1,0.1,0,0.1,0.1c0,0.5,0.2,1,0.6,1.5c0.1,0.2,0.2,0.3,0.3,0.3s0.1,0.1,0.3,0.3
			c0.1,0.2,0.3,0.3,0.3,0.3c0.1,0.1,0.7,0.9,0.7,1c0,0,0,0,0,0c0.1,0,0.3,0.6,0.4,1c0.1,0.2,0.1,0.4,0.1,0.6c0,0.2,0,0.3,0,0.3
			c0.1,0,0.4-0.5,0.5-0.8c0.1-0.3,0.1-1,0.1-1.3c-0.1-0.3-0.3-0.7-0.5-1c-0.1-0.1-0.2-0.2-0.1-0.2c0.1,0,0.9,0.7,1,1
			c0,0.1,0.1,0.2,0.2,0.3c0.2,0.3,0.3,0.7,0.3,1.1c0,0.6-0.1,1-0.5,1.5c0,0.1-0.1,0.2-0.1,0.2c-0.1,0.1,0,0.1,0.3-0.1
			c0.6-0.3,1.4-1.1,1.7-1.7c0.1-0.2,0.2-0.7,0.2-0.9c0-0.3-0.2-1-0.3-1.1c0,0-0.1,0-0.1,0.1c-0.1,0.4-0.3,1.1-0.3,0.9
			c-0.1-0.5-0.2-0.8-0.5-1.2c-0.3-0.4-0.6-0.7-1.6-1.3c-0.6-0.4-0.9-0.6-1.3-1c-0.2-0.2-0.5-0.4-0.5-0.5c0,0,0,0,0-0.1
			c-0.1-0.1-0.3-0.4-0.4-0.7c-0.1-0.2-0.1-0.3-0.1-0.7c0-0.4,0-0.5,0.1-0.8c0.1-0.2,0.2-0.4,0.2-0.5c0.1-0.2,0.5-0.6,0.7-0.8
			c0.1-0.1,0.6-0.3,0.8-0.4c0.1,0,0.1,0-0.1,0.2c-0.5,0.4-0.8,1-1,1.5c-0.1,0.4-0.1,1.2,0,1.2c0,0,0,0,0,0c0-0.1,0.2-0.5,0.4-0.7
			c0.1-0.1,0.2-0.3,0.4-0.4c0.1-0.1,0.2-0.2,0.2-0.2c0,0,0.5-0.3,0.6-0.3c0.1,0,0.1,0-0.1,0.3c-0.3,0.5-0.5,1.1-0.5,1.7
			c0,0.3,0.2,0.9,0.2,0.9c0,0,0.1,0.1,0.1,0.2c0.1,0.2,0.4,0.5,0.7,0.7c0.3,0.2,0.4,0.2,0.2,0c-0.2-0.3-0.4-1-0.3-1.5
			c0-0.2,0.2-0.6,0.3-0.6c0,0,0,0.1,0,0.2c0,0.6,0.2,1,0.8,1.6c0.2,0.2,0.5,0.5,0.7,0.7c0.7,0.7,1.1,1.2,1.1,2
			c0.1,0.4,0,0.8-0.1,1.2c0,0.1-0.1,0.2,0,0.2c0.1,0,0.3-0.4,0.5-0.7c0.2-0.3,0.3-0.9,0.3-1.2c0-0.4-0.1-0.9-0.4-1.2
			c-0.2-0.3-0.4-0.5-0.8-0.8c-0.5-0.4-0.6-0.6-0.4-0.8c0.1-0.1,0.1-0.1,0.5-0.1c0.4,0,0.4,0,0.9,0.2c0.8,0.2,0.8,0.3,1.3,0.3
			c0.3,0,0.4,0,0.6-0.1c0.2-0.1,0.5-0.3,0.5-0.4c0,0-0.2-0.1-0.3-0.1c-0.2,0-0.5-0.1-0.7-0.2c-0.7-0.2-1.4-0.5-1.6-0.5
			c-0.1,0-0.2-0.1-0.2-0.1c0,0,0.1,0,0.2-0.1c0.2,0,0.6,0,0.9,0.1c0.1,0,0.4,0.1,0.6,0.2c0.9,0.3,1.4,0.4,1.8,0.2
			c0.2-0.1,0.4-0.3,0.4-0.3c0,0-0.1-0.1-0.1-0.2c-0.2-0.2-0.3-0.4-0.3-0.6c0-0.1,0.3-0.1,0.6-0.1l0.3,0l-0.1-0.1
			c-0.1,0-0.2-0.1-0.3-0.2c-0.1-0.1-0.3-0.2-0.3-0.2c-0.3-0.2-0.6-0.5-0.7-0.5c0,0-0.1-0.1-0.3-0.2c-0.1-0.1-0.3-0.2-0.3-0.2
			c0,0-0.1-0.1-0.3-0.2S26,23.8,26,23.8c0,0-0.1-0.2-0.1-0.3c-0.1-0.4-0.2-0.6-0.5-0.9c-0.5-0.5-1.2-1-2-1.4
			c-0.3-0.1-0.5-0.2-0.5-0.3c0,0-0.1,0-0.1,0c0,0-0.1-0.1-0.2-0.4c-0.2-0.4-0.3-0.7-0.4-0.7c0,0,0,0,0-0.1c0,0-0.1-0.2-0.4-0.5
			c-0.2-0.2-0.5-0.5-0.6-0.5C21.1,18.7,21,18.7,20.9,18.8 M21,19.6c-0.1,0.1-0.3,0.5-0.3,0.8c0,0.1,0,0.4,0,0.6c0,0.4,0,0.4,0.1,0.6
			c0.2,0.4,0.6,0.8,0.6,0.5c-0.1-0.3-0.1-0.5-0.1-0.8c0-0.3,0-0.3,0.1-0.3c0.1,0,0.5,0.2,0.6,0.3c0.1,0.1,0.1,0,0.1-0.3
			c0-0.3-0.3-0.8-0.5-1.1c-0.1-0.2-0.4-0.5-0.4-0.5C21.1,19.5,21.1,19.6,21,19.6 M23.1,19.8c-0.1,0.2-0.2,0.6-0.2,0.7
			c0,0,0.1,0.1,0.1,0.1c0.3,0.1,0.6,0.3,0.9,0.4c0.1,0.1,0.3,0.2,0.3,0.2c0.1,0.1-0.5-1.1-0.6-1.3c0,0,0-0.1-0.1-0.1
			c0,0-0.2-0.3-0.2-0.3C23.3,19.6,23.2,19.7,23.1,19.8 M23.2,23.1l-0.3,0l0.2,0.1c0.5,0.2,0.6,0.3,0.8,0.5c0.2,0.3,0.4,0.4,0.8,0.4
			c0.3,0,0.4,0.1,0.5,0.1c0.2,0.1,0.2,0.1,0.2,0c0-0.2-0.7-1-0.9-1c0,0-0.1,0-0.1,0C24.5,23.1,23.8,23.1,23.2,23.1"/>
		<path class="st1" d="M20.8,18.7c-0.2,0.2-0.3,0.4-0.5,0.7c-0.3,0.7-0.5,1.3-0.4,2c0.1,0.4,0.2,0.8,0.3,0.8c0,0,0.1,0.1,0.1,0.1
			s0,0.1,0.1,0.1c0.1,0.1,0.1,0.1,0,0c-0.2-0.1-0.5-0.3-0.7-0.6c-0.2-0.2-0.3-0.6-0.4-1c0-0.1,0-0.1-0.1-0.1c-0.1,0-0.7,0.3-0.7,0.3
			c0,0,0,0-0.1,0s-0.1,0-0.1,0.1c-0.1,0-0.2,0.2-0.4,0.3c-0.3,0.2-0.9,0.8-1,1c-0.1,0.1-0.1,0.1-0.1,0.2c0,0-0.1,0.2-0.3,0.5
			c-0.1,0.2-0.3,0.5-0.3,0.5c0,0,0.1-0.1,0.3-0.2c0.5-0.4,1-0.7,1.5-0.8c0.5-0.1,0.5-0.1,0.1,0.1c-0.3,0.2-1,0.8-1.2,1.1
			c-0.6,0.8-0.9,1.5-1.1,2.2c-0.1,0.5-0.1,1.4,0,1.4c0,0,0,0,0-0.1c0-0.3,0.4-1.2,0.7-1.6c0.3-0.5,1-1,1.1-1c0,0,0,0,0,0.1
			c-0.1,0.1-0.3,0.4-0.4,0.7c-0.3,0.6-0.6,1.5-0.6,2.1c0,0.6,0.2,1.3,0.5,1.8c0.1,0.1,0.1,0.2,0.1,0.2c0,0,0.5,0.6,0.7,0.7
			c0.2,0.1,0.4,0.3,0.7,0.4c0.2,0.1,0.6,0.2,0.6,0.2c0,0-0.1-0.1-0.2-0.3c-0.5-0.5-0.8-1.1-1-1.7c-0.1-0.4-0.1-1.4,0.1-1.7
			c0-0.1,0.1,0,0.1,0.1c0,0.5,0.2,1,0.6,1.5c0.1,0.2,0.2,0.3,0.3,0.3c0,0,0.1,0.1,0.3,0.3c0.1,0.2,0.3,0.3,0.3,0.3
			c0.1,0.1,0.7,0.9,0.7,1c0,0,0,0,0,0c0.1,0,0.3,0.6,0.4,1c0.1,0.2,0.1,0.4,0.1,0.6c0,0.2,0,0.3,0,0.3c0.1,0,0.4-0.5,0.5-0.8
			c0.1-0.3,0.1-1,0.1-1.3c-0.1-0.3-0.3-0.7-0.5-1c-0.1-0.1-0.2-0.2-0.1-0.2c0.1,0,0.9,0.7,1,1c0,0.1,0.1,0.2,0.2,0.3
			c0.2,0.3,0.3,0.7,0.3,1.1c0,0.6-0.1,1-0.5,1.5c0,0.1-0.1,0.2-0.1,0.2c-0.1,0.1,0,0.1,0.3-0.1c0.6-0.3,1.4-1.1,1.7-1.7
			c0.1-0.2,0.2-0.7,0.2-0.9c0-0.3-0.2-1-0.3-1.1c0,0-0.1,0-0.1,0.1c-0.1,0.4-0.3,1.1-0.3,0.9c-0.1-0.5-0.2-0.8-0.5-1.2
			c-0.3-0.4-0.6-0.7-1.6-1.3c-0.6-0.4-0.9-0.6-1.3-1c-0.2-0.2-0.5-0.4-0.5-0.5c0,0,0,0,0-0.1c-0.1-0.1-0.3-0.4-0.4-0.7
			c-0.1-0.2-0.1-0.3-0.1-0.7c0-0.4,0-0.5,0.1-0.8c0.1-0.2,0.2-0.4,0.2-0.5c0.1-0.2,0.5-0.6,0.7-0.8c0.1-0.1,0.6-0.3,0.8-0.4
			c0.1,0,0.1,0-0.1,0.2c-0.5,0.4-0.8,1-1,1.5c-0.1,0.4-0.1,1.2,0,1.2c0,0,0,0,0,0c0-0.1,0.2-0.5,0.4-0.7c0.1-0.1,0.2-0.3,0.4-0.4
			c0.1-0.1,0.2-0.2,0.2-0.2c0,0,0.5-0.3,0.6-0.3c0.1,0,0.1,0-0.1,0.3c-0.3,0.5-0.5,1.1-0.5,1.7c0,0.3,0.2,0.9,0.2,0.9
			c0,0,0.1,0.1,0.1,0.2c0.1,0.2,0.4,0.5,0.7,0.7c0.3,0.2,0.4,0.2,0.2,0c-0.2-0.3-0.4-1-0.3-1.5c0-0.2,0.2-0.6,0.3-0.6
			c0,0,0,0.1,0,0.2c0,0.6,0.2,1,0.8,1.6c0.2,0.2,0.5,0.5,0.7,0.7c0.7,0.7,1.1,1.2,1.1,2c0.1,0.4,0,0.8-0.1,1.2c0,0.1-0.1,0.2,0,0.2
			c0.1,0,0.3-0.4,0.5-0.7c0.2-0.3,0.3-0.9,0.3-1.2c0-0.4-0.1-0.9-0.4-1.2c-0.2-0.3-0.4-0.5-0.8-0.8c-0.5-0.4-0.6-0.6-0.4-0.8
			c0.1-0.1,0.1-0.1,0.5-0.1c0.4,0,0.4,0,0.9,0.2c0.8,0.2,0.8,0.3,1.3,0.3c0.3,0,0.4,0,0.6-0.1c0.2-0.1,0.5-0.3,0.5-0.4
			c0,0-0.2-0.1-0.3-0.1c-0.2,0-0.5-0.1-0.7-0.2c-0.7-0.2-1.4-0.5-1.6-0.5c-0.1,0-0.2-0.1-0.2-0.1c0,0,0.1,0,0.2-0.1
			c0.2,0,0.6,0,0.9,0.1c0.1,0,0.4,0.1,0.6,0.2c0.9,0.3,1.4,0.4,1.8,0.2c0.2-0.1,0.4-0.3,0.4-0.3c0,0-0.1-0.1-0.1-0.2
			c-0.2-0.2-0.3-0.4-0.3-0.6c0-0.1,0.3-0.1,0.6-0.1l0.3,0l-0.1-0.1c-0.1,0-0.2-0.1-0.3-0.2c-0.1-0.1-0.3-0.2-0.3-0.2
			c-0.3-0.2-0.6-0.5-0.7-0.5c0,0-0.1-0.1-0.3-0.2c-0.1-0.1-0.3-0.2-0.3-0.2c0,0-0.1-0.1-0.3-0.2c-0.2-0.1-0.3-0.2-0.3-0.2
			c0,0-0.1-0.2-0.1-0.3c-0.1-0.4-0.2-0.6-0.5-0.9c-0.5-0.5-1.2-1-2-1.4c-0.3-0.1-0.5-0.2-0.5-0.3c0,0-0.1,0-0.1,0
			c0,0-0.1-0.1-0.2-0.4c-0.2-0.4-0.3-0.7-0.4-0.7c0,0,0,0,0-0.1c0,0-0.1-0.2-0.4-0.5c-0.2-0.2-0.5-0.5-0.6-0.5
			C21,18.6,20.9,18.7,20.8,18.7 M20.9,19.6c-0.1,0.1-0.3,0.5-0.3,0.8c0,0.1,0,0.4,0,0.6c0,0.4,0,0.4,0.1,0.6
			c0.2,0.4,0.6,0.8,0.6,0.5c-0.1-0.3-0.1-0.5-0.1-0.8c0-0.3,0-0.3,0.1-0.3c0.1,0,0.5,0.2,0.6,0.3c0.1,0.1,0.1,0,0.1-0.3
			c0-0.3-0.3-0.8-0.5-1.1c-0.1-0.2-0.4-0.5-0.4-0.5C21,19.5,21,19.5,20.9,19.6 M23.1,19.7c-0.1,0.2-0.2,0.6-0.2,0.7
			c0,0,0.1,0.1,0.1,0.1c0.3,0.1,0.6,0.3,0.9,0.4c0.1,0.1,0.3,0.2,0.3,0.2c0.1,0.1-0.5-1.1-0.6-1.3c0,0,0-0.1-0.1-0.1
			c0,0-0.2-0.3-0.2-0.3C23.2,19.5,23.1,19.6,23.1,19.7 M23.2,23l-0.3,0l0.2,0.1c0.5,0.2,0.6,0.3,0.8,0.5c0.2,0.3,0.4,0.4,0.8,0.4
			c0.3,0,0.4,0.1,0.5,0.1c0.2,0.1,0.2,0.1,0.2,0c0-0.2-0.7-1-0.9-1c0,0-0.1,0-0.1,0C24.4,23.1,23.7,23,23.2,23"/>
	</g>
</g>
</svg>
