<?xml version="1.0" encoding="utf-8"?>
<!-- Generator: Adobe Illustrator 24.3.0, SVG Export Plug-In . SVG Version: 6.00 Build 0)  -->
<svg version="1.1" id="Layer_1" xmlns="http://www.w3.org/2000/svg" xmlns:xlink="http://www.w3.org/1999/xlink" x="0px" y="0px"
	 viewBox="0 0 333 189" style="enable-background:new 0 0 333 189;" xml:space="preserve">
<style type="text/css">
	.st0{clip-path:url(#SVGID_2_);}
	.st1{fill-rule:evenodd;clip-rule:evenodd;fill:#F4F6F8;}
	.st2{fill-rule:evenodd;clip-rule:evenodd;fill:#E2E3E7;}
	.st3{fill:#535354;}
	.st4{font-family:'Arial-BoldMT';}
	.st5{font-size:23px;}
	.st6{fill-rule:evenodd;clip-rule:evenodd;fill:#ECEFF2;}
	.st7{fill-rule:evenodd;clip-rule:evenodd;fill:#FFFFFF;}
	.st8{fill:none;stroke:#E2E3E7;stroke-width:0.7;}
	.st9{fill-rule:evenodd;clip-rule:evenodd;fill:#FDF4F2;}
	.st10{fill-rule:evenodd;clip-rule:evenodd;fill:#FC9378;}
	.st11{fill-rule:evenodd;clip-rule:evenodd;fill:url(#SVGID_3_);}
	.st12{clip-path:url(#SVGID_5_);}
	.st13{fill:#717171;}
	.st14{fill:url(#SVGID_6_);}
	.st15{fill-rule:evenodd;clip-rule:evenodd;fill:#808080;}
</style>
<g>
	<defs>
		<rect id="SVGID_1_" x="7.2" y="12.8" width="285.3" height="28.3"/>
	</defs>
	<clipPath id="SVGID_2_">
		<use xlink:href="#SVGID_1_"  style="overflow:visible;"/>
	</clipPath>
	<g id="Clip-Path" class="st0">
		<g>
			<path class="st1" d="M7.2,12.8h282.4v28.4H7.2L7.2,12.8z"/>
			<path class="st2" d="M12.9,15.7h54.5c1.6,0,2.9,1.2,2.9,2.8v17c0,1.6-1.3,2.8-2.9,2.8H12.9c-1.6,0-2.8-1.2-2.8-2.8v-17
				C10.1,16.9,11.3,15.7,12.9,15.7z"/>
			<g id="Layer_1_1_">
			</g>
			<text transform="matrix(1 0 0 1 0 -6.728313e-06)" class="st3 st4 st5">i</text>
			<text transform="matrix(1 0 0 1 6.3901 -6.728313e-06)" class="st3 st4 st5">B</text>
			<text transform="matrix(1 0 0 1 23 -6.728313e-06)" class="st3 st4 st5">r</text>
			<text transform="matrix(1 0 0 1 31.9507 -6.728313e-06)" class="st3 st4 st5">o</text>
			<text transform="matrix(1 0 0 1 46 -6.728313e-06)" class="st3 st4 st5">w</text>
			<text transform="matrix(1 0 0 1 63.8901 -6.728313e-06)" class="st3 st4 st5">e</text>
			<path class="st6" d="M83.7,22.7h165.4c2.4,0,4.3,1.9,4.3,4.3s-1.9,4.3-4.3,4.3H83.7c-2.3,0-4.2-1.9-4.2-4.3S81.4,22.7,83.7,22.7z
				"/>
		</g>
	</g>
</g>
<g>
	<path class="st7" d="M7.2,56h285.4v122.6H7.2L7.2,56z"/>
	<path class="st6" d="M22.9,67.4h165.3c2.4,0,4.3,1.9,4.3,4.2c0,2.4-1.9,4.3-4.3,4.3H22.9c-2.4,0-4.3-1.9-4.3-4.3
		C18.6,69.3,20.5,67.4,22.9,67.4z"/>
	<path class="st8" d="M18.9,81.9h262v85h-262L18.9,81.9z"/>
	<path class="st9" d="M18.6,81.6h262.7v29.9H18.6L18.6,81.6z"/>
	<path class="st10" d="M28.5,92.3h165.4c2.4,0,4.3,1.9,4.3,4.2c0,2.4-1.9,4.3-4.3,4.3H28.5c-2.3,0-4.3-1.9-4.3-4.3
		C24.2,94.2,26.2,92.3,28.5,92.3z"/>
</g>
<linearGradient id="SVGID_3_" gradientUnits="userSpaceOnUse" x1="-132.082" y1="527.4005" x2="-131.0818" y2="527.4005" gradientTransform="matrix(-121.077 0 0 28.322 -15698.7881 -14910.0371)">
	<stop  offset="0" style="stop-color:#FFFFFF"/>
	<stop  offset="1" style="stop-color:#FFFFFF;stop-opacity:0"/>
</linearGradient>
<path class="st11" d="M172.2,12.8h121.1v28.4H172.2L172.2,12.8z"/>
<path class="st1" d="M290.7,0c22.9,0,41.4,18.5,41.4,41.3c0,22.9-18.5,41.4-41.4,41.4c-22.8,0-41.3-18.5-41.3-41.4
	C249.4,18.5,267.9,0,290.7,0z"/>
<g>
	<defs>
		<rect id="SVGID_4_" x="259.6" y="33" width="63" height="16"/>
	</defs>
	<clipPath id="SVGID_5_">
		<use xlink:href="#SVGID_4_"  style="overflow:visible;"/>
	</clipPath>
	<g id="Clip-Path_1_" class="st12">
		<g>
			<path d="M269.1,36.7c0-2-1.8-3.7-3.9-3.7c-2.2,0-3.9,1.7-3.9,3.7v1.2h-1.6v8.5l5.5,2.6l5.5-2.6v-8.5h-1.6V36.7z M263.3,36.7
				c0-0.9,0.8-1.7,1.9-1.7s1.9,0.8,1.9,1.7v1.2h-3.8V36.7z M268.5,45.1l-3.3,1.5l-3.3-1.5v-5.2h6.6L268.5,45.1L268.5,45.1z"/>
			<path d="M275.2,37.9h7v2h-2.4v6.6h-2.2v-6.6h-2.4V37.9z M290.2,40.8c0-1.7-1.2-2.8-3-2.8h-4v8.5h2.2v-2.9h0.9l1.6,2.9h2.5
				l-1.8-3.2C289.4,43,290.2,42.2,290.2,40.8L290.2,40.8z M287,41.6h-1.6v-1.7h1.6c0.6,0,0.9,0.4,0.9,0.9S287.6,41.6,287,41.6z
				 M291.2,37.9h6.3v2h-4v1.3h3.9v1.9h-3.9v1.4h4v2h-6.3V37.9z M310,37.8c-2.6,0-4.5,1.9-4.5,4.4s1.9,4.4,4.5,4.4s4.5-1.9,4.5-4.4
				S312.6,37.8,310,37.8z M310,44.6c-1.3,0-2.2-1-2.2-2.4c0-1.5,0.9-2.4,2.2-2.4c1.3,0,2.2,1,2.2,2.4S311.3,44.6,310,44.6z
				 M320.8,43.3c0.8-0.3,1.6-1.1,1.6-2.5c0-1.8-1.2-2.9-2.9-2.9h-4.1v8.6h2.2v-2.9h0.9l1.6,2.9h2.6L320.8,43.3z M319.2,41.6h-1.6
				v-1.7h1.6c0.6,0,0.9,0.3,0.9,0.8S319.8,41.6,319.2,41.6z M298.5,37.9h6.6v1.7l-3.6,4.8h3.6v2.1h-6.6v-1.8l3.6-4.8h-3.6V37.9z"/>
		</g>
	</g>
</g>
<g>
	<g>
		<path class="st13" d="M32.6,23.5c0-0.2,0.1-0.3,0.3-0.3h0.7c0.1,0,0.1,0,0.2,0.1c0,0,0.1,0.1,0.1,0.2v0.6c0,0.1,0,0.1-0.1,0.2
			c0,0.1-0.1,0.1-0.2,0.1h-0.7c-0.2,0-0.3-0.1-0.3-0.3V23.5z M32.6,25.4c0-0.1,0-0.1,0.1-0.2c0-0.1,0.1-0.1,0.2-0.1h0.7
			c0,0,0.1,0,0.1,0c0,0,0.1,0,0.1,0.1c0,0,0,0.1,0.1,0.1c0,0,0,0.1,0,0.1v4.9c0,0.2-0.1,0.3-0.3,0.3h-0.7c-0.2,0-0.3-0.1-0.3-0.3
			V25.4z"/>
		<path class="st13" d="M35.4,24.4c0-0.1,0.1-0.2,0.2-0.2h2.7c0.3,0,0.5,0,0.7,0.1c0.2,0.1,0.4,0.2,0.6,0.4c0.2,0.2,0.3,0.3,0.4,0.6
			c0.1,0.2,0.1,0.5,0.1,0.7c0,0.2,0,0.4-0.1,0.6c-0.1,0.2-0.2,0.4-0.3,0.5c0.1,0.1,0.2,0.2,0.3,0.3c0.1,0.1,0.2,0.2,0.2,0.4
			c0.1,0.1,0.1,0.3,0.2,0.4c0,0.1,0.1,0.3,0.1,0.4c0,0.3,0,0.5-0.1,0.7c-0.1,0.2-0.2,0.4-0.4,0.6c-0.2,0.2-0.4,0.3-0.6,0.4
			c-0.2,0.1-0.5,0.2-0.7,0.2h-3c-0.1,0-0.1,0-0.1,0c0,0-0.1-0.1-0.1-0.1V24.4z M38.9,26c0-0.1,0-0.2-0.1-0.3c0-0.1-0.1-0.2-0.2-0.2
			s-0.2-0.1-0.3-0.2c-0.1,0-0.2-0.1-0.3-0.1h-1.4v1.6h1.4c0.1,0,0.2,0,0.3-0.1c0.1,0,0.2-0.1,0.3-0.2c0.1-0.1,0.1-0.2,0.2-0.2
			C38.9,26.2,38.9,26.1,38.9,26z M39.2,28.7c0-0.1,0-0.2-0.1-0.3c0-0.1-0.1-0.2-0.1-0.3c-0.1-0.1-0.1-0.1-0.2-0.2
			c-0.1-0.1-0.2-0.1-0.3-0.1c-0.1,0-0.1,0-0.2,0c-0.1,0-0.1,0-0.2,0h-1.5v1.7h1.5c0.1,0,0.1,0,0.2,0c0.1,0,0.1,0,0.2,0
			c0.1,0,0.2,0,0.3-0.1c0.1-0.1,0.2-0.1,0.2-0.2c0.1-0.1,0.1-0.2,0.1-0.3C39.1,28.9,39.2,28.8,39.2,28.7z"/>
		<path class="st13" d="M41.3,25.4c0-0.1,0-0.1,0.1-0.2c0.1,0,0.1-0.1,0.2-0.1h0.6c0.1,0,0.1,0,0.2,0.1c0,0,0.1,0.1,0.1,0.2
			c0,0.1,0,0.1,0,0.2c0,0.1,0,0.1,0,0.2c0.1-0.1,0.1-0.2,0.2-0.3c0.1-0.1,0.2-0.2,0.3-0.2c0.1-0.1,0.2-0.1,0.3-0.2
			c0.1,0,0.3-0.1,0.4-0.1c0.1,0,0.3,0,0.4,0c0.1,0,0.2,0,0.3,0.1c0.1,0,0.2,0.1,0.3,0.2c0.1,0.1,0.2,0.1,0.3,0.2
			c0,0,0.1,0.1,0.1,0.1c0,0,0.1,0.1,0.1,0.1c0,0,0,0,0,0.1c0,0,0,0.1,0,0.1l-0.4,0.6c0,0,0,0-0.1,0.1c0,0-0.1,0-0.1,0
			c0,0-0.1,0-0.1,0c-0.1-0.1-0.2-0.1-0.3-0.1c-0.1,0-0.2-0.1-0.2-0.1c-0.1,0-0.2-0.1-0.2-0.1c-0.1,0-0.2,0-0.3,0
			c-0.3,0-0.5,0.1-0.7,0.2c-0.2,0.2-0.3,0.4-0.4,0.7v3.2c0,0.2-0.1,0.3-0.3,0.3h-0.7c-0.2,0-0.3-0.1-0.3-0.3V25.4z"/>
		<path class="st13" d="M45.9,27.9c0-0.3,0-0.5,0.1-0.8c0.1-0.2,0.2-0.5,0.3-0.7c0.1-0.2,0.3-0.4,0.4-0.6c0.2-0.2,0.4-0.3,0.6-0.4
			c0.2-0.1,0.4-0.2,0.7-0.3c0.2-0.1,0.5-0.1,0.8-0.1c0.3,0,0.5,0,0.8,0.1c0.2,0.1,0.5,0.2,0.7,0.3c0.2,0.1,0.4,0.3,0.6,0.4
			c0.2,0.2,0.3,0.4,0.4,0.6c0.1,0.2,0.2,0.4,0.3,0.7c0.1,0.2,0.1,0.5,0.1,0.8c0,0.3,0,0.5-0.1,0.8c-0.1,0.2-0.2,0.5-0.3,0.7
			c-0.1,0.2-0.3,0.4-0.4,0.6c-0.2,0.2-0.4,0.3-0.6,0.4c-0.2,0.1-0.4,0.2-0.7,0.3c-0.2,0.1-0.5,0.1-0.8,0.1c-0.3,0-0.5,0-0.8-0.1
			c-0.2-0.1-0.5-0.2-0.7-0.3c-0.2-0.1-0.4-0.3-0.6-0.4c-0.2-0.2-0.3-0.4-0.4-0.6c-0.1-0.2-0.2-0.4-0.3-0.7
			C45.9,28.4,45.9,28.1,45.9,27.9z M47.1,27.9c0,0.2,0,0.4,0.1,0.7c0.1,0.2,0.2,0.4,0.3,0.5c0.1,0.2,0.3,0.3,0.5,0.4
			c0.2,0.1,0.4,0.1,0.6,0.1c0.2,0,0.4,0,0.6-0.1c0.2-0.1,0.4-0.2,0.5-0.4c0.1-0.2,0.3-0.3,0.3-0.5c0.1-0.2,0.1-0.4,0.1-0.7
			c0-0.2,0-0.4-0.1-0.6c-0.1-0.2-0.2-0.4-0.3-0.5c-0.1-0.2-0.3-0.3-0.5-0.4c-0.2-0.1-0.4-0.1-0.6-0.1c-0.2,0-0.5,0-0.6,0.1
			c-0.2,0.1-0.4,0.2-0.5,0.4c-0.1,0.2-0.3,0.3-0.3,0.5C47.1,27.4,47.1,27.6,47.1,27.9z"/>
		<path class="st13" d="M52.1,25.5C52.1,25.5,52.1,25.4,52.1,25.5c0-0.1,0-0.1,0-0.1c0,0,0,0,0-0.1c0-0.1,0-0.1,0.1-0.1
			c0,0,0.1,0,0.2,0h0.8c0.1,0,0.2,0.1,0.3,0.2c0.1,0.1,0.1,0.3,0.2,0.5c0.1,0.2,0.2,0.4,0.2,0.6c0.1,0.2,0.2,0.5,0.3,0.7
			c0.1,0.2,0.2,0.4,0.2,0.7c0.1,0.2,0.1,0.4,0.2,0.5c0.1,0.2,0.1,0.3,0.1,0.4c0.1-0.4,0.3-0.8,0.5-1.4c0.2-0.6,0.5-1.2,0.7-2
			c0-0.1,0.1-0.1,0.1-0.1c0,0,0.1,0,0.2,0h0.8c0.1,0,0.2,0,0.2,0c0,0,0,0.1,0,0.1c0,0,0,0.1,0,0.1c0,0,0,0.1,0,0.1l-0.5,1.1
			c0.1,0.1,0.1,0.3,0.2,0.5c0.1,0.2,0.2,0.4,0.2,0.6c0.1,0.2,0.2,0.4,0.3,0.6c0.1,0.2,0.2,0.4,0.2,0.6c0.1-0.1,0.1-0.3,0.2-0.5
			c0.1-0.2,0.1-0.4,0.2-0.6c0.1-0.2,0.2-0.4,0.2-0.6c0.1-0.2,0.2-0.4,0.2-0.6c0.1-0.2,0.2-0.4,0.2-0.6c0.1-0.2,0.1-0.4,0.2-0.5
			c0-0.1,0.1-0.1,0.1-0.1c0,0,0.1,0,0.2,0h0.7c0.1,0,0.1,0,0.2,0c0,0,0.1,0.1,0.1,0.1c0,0,0,0,0,0.1c0,0,0,0.1,0,0.1l-2,5
			c0,0,0,0,0,0.1c0,0,0,0-0.1,0.1c0,0,0,0-0.1,0c0,0-0.1,0-0.1,0h-0.4c-0.1,0-0.2,0-0.2-0.1c0,0-0.1-0.1-0.1-0.1
			c-0.2-0.4-0.3-0.8-0.5-1.2c-0.2-0.4-0.3-0.8-0.5-1.2l-1,2.4c0,0-0.1,0.1-0.1,0.1c0,0-0.1,0.1-0.2,0.1h-0.4c-0.1,0-0.2,0-0.2-0.1
			c0,0-0.1-0.1-0.1-0.1L52.1,25.5z"/>
		<path class="st13" d="M65.4,30c-0.3,0.2-0.5,0.4-0.8,0.5c-0.3,0.1-0.6,0.2-1,0.2c-0.4,0-0.8-0.1-1.1-0.2c-0.4-0.1-0.7-0.3-0.9-0.6
			c-0.3-0.3-0.5-0.6-0.6-0.9c-0.2-0.3-0.2-0.7-0.2-1.1c0-0.3,0-0.5,0.1-0.7c0.1-0.2,0.2-0.5,0.3-0.7c0.1-0.2,0.3-0.4,0.4-0.6
			c0.2-0.2,0.4-0.3,0.6-0.4c0.2-0.1,0.4-0.2,0.7-0.3c0.2-0.1,0.5-0.1,0.8-0.1c0.2,0,0.4,0,0.7,0.1c0.2,0.1,0.4,0.1,0.6,0.2
			c0.2,0.1,0.4,0.2,0.5,0.4c0.2,0.1,0.3,0.3,0.4,0.5c0.2,0.2,0.3,0.5,0.4,0.8c0.1,0.3,0.1,0.6,0.1,0.9c0,0.1,0,0.2,0,0.2
			c0,0.1,0,0.1-0.1,0.1c0,0-0.1,0.1-0.1,0.1c-0.1,0-0.1,0-0.2,0H62c0,0.2,0.1,0.4,0.2,0.5c0.1,0.2,0.2,0.3,0.4,0.4
			c0.1,0.1,0.3,0.2,0.5,0.2c0.2,0.1,0.3,0.1,0.5,0.1c0.1,0,0.3,0,0.4,0c0.1,0,0.2-0.1,0.3-0.1c0.1,0,0.2-0.1,0.3-0.1
			c0.1-0.1,0.2-0.1,0.2-0.2c0,0,0,0,0,0c0,0,0.1-0.1,0.1-0.1c0,0,0.1,0,0.1,0c0,0,0.1,0,0.1,0c0,0,0.1,0,0.1,0.1
			c0.1,0.1,0.1,0.2,0.2,0.2c0.1,0.1,0.1,0.1,0.1,0.2c0,0,0.1,0.1,0.1,0.1c0,0,0,0.1,0,0.1C65.6,29.8,65.5,29.9,65.4,30z M63.5,26.1
			c-0.2,0-0.3,0-0.5,0.1c-0.2,0.1-0.3,0.1-0.4,0.3c-0.1,0.1-0.3,0.2-0.4,0.4C62.1,27,62,27.1,62,27.3h3.1c0-0.2-0.1-0.3-0.2-0.5
			c-0.1-0.1-0.2-0.3-0.3-0.4c-0.1-0.1-0.3-0.2-0.5-0.2C63.9,26.1,63.7,26.1,63.5,26.1z"/>
	</g>
	<linearGradient id="SVGID_6_" gradientUnits="userSpaceOnUse" x1="13.7668" y1="21.2963" x2="30.3571" y2="32.4874">
		<stop  offset="9.772402e-02" style="stop-color:#FF5124"/>
		<stop  offset="0.5631" style="stop-color:#EA492F"/>
		<stop  offset="1" style="stop-color:#DB3805"/>
	</linearGradient>
	<circle class="st14" cx="21.6" cy="26.6" r="8.5"/>
	<g>
		<path class="st15" d="M20.7,19c-0.2,0.2-0.3,0.4-0.5,0.7c-0.3,0.7-0.5,1.3-0.4,2c0.1,0.4,0.2,0.8,0.3,0.8c0,0,0.1,0.1,0.1,0.1
			s0,0.1,0.1,0.1c0.1,0.1,0.1,0.1,0,0c-0.2-0.1-0.5-0.3-0.7-0.6c-0.2-0.2-0.3-0.6-0.4-1c0-0.1,0-0.1-0.1-0.1c-0.1,0-0.7,0.3-0.7,0.3
			c0,0,0,0-0.1,0c0,0-0.1,0-0.1,0.1c-0.1,0-0.2,0.2-0.4,0.3c-0.3,0.2-0.9,0.8-1,1c-0.1,0.1-0.1,0.1-0.1,0.2c0,0-0.1,0.2-0.3,0.5
			C16.2,23.7,16,24,16,24c0,0,0.1-0.1,0.3-0.2c0.5-0.4,1-0.7,1.5-0.8c0.5-0.1,0.5-0.1,0.1,0.1c-0.3,0.2-1,0.8-1.2,1.1
			c-0.6,0.8-0.9,1.5-1.1,2.2c-0.1,0.5-0.1,1.4,0,1.4c0,0,0,0,0-0.1c0-0.3,0.4-1.2,0.7-1.6c0.3-0.5,1-1,1.1-1c0,0,0,0,0,0.1
			c-0.1,0.1-0.3,0.4-0.4,0.7c-0.3,0.6-0.6,1.5-0.6,2.1c0,0.6,0.2,1.3,0.5,1.8c0.1,0.1,0.1,0.2,0.1,0.2c0,0,0.5,0.6,0.7,0.7
			c0.2,0.1,0.4,0.3,0.7,0.4c0.2,0.1,0.6,0.2,0.6,0.2c0,0-0.1-0.1-0.2-0.3c-0.5-0.5-0.8-1.1-1-1.7c-0.1-0.4-0.1-1.4,0.1-1.7
			c0-0.1,0.1,0,0.1,0.1c0,0.5,0.2,1,0.6,1.5c0.1,0.2,0.2,0.3,0.3,0.3c0,0,0.1,0.1,0.3,0.3c0.1,0.2,0.3,0.3,0.3,0.3
			c0.1,0.1,0.7,0.9,0.7,1c0,0,0,0,0,0c0.1,0,0.3,0.6,0.4,1c0.1,0.2,0.1,0.4,0.1,0.6c0,0.2,0,0.3,0,0.3c0.1,0,0.4-0.5,0.5-0.8
			c0.1-0.3,0.1-1,0.1-1.3c-0.1-0.3-0.3-0.7-0.5-1c-0.1-0.1-0.2-0.2-0.1-0.2c0.1,0,0.9,0.7,1,1c0,0.1,0.1,0.2,0.2,0.3
			c0.2,0.3,0.3,0.7,0.3,1.1c0,0.6-0.1,1-0.5,1.5c0,0.1-0.1,0.2-0.1,0.2c-0.1,0.1,0,0.1,0.3-0.1c0.6-0.3,1.4-1.1,1.7-1.7
			c0.1-0.2,0.2-0.7,0.2-0.9c0-0.3-0.2-1-0.3-1.1c0,0-0.1,0-0.1,0.1c-0.1,0.4-0.3,1.1-0.3,0.9c-0.1-0.5-0.2-0.8-0.5-1.2
			c-0.3-0.4-0.6-0.7-1.6-1.3c-0.6-0.4-0.9-0.6-1.3-1c-0.2-0.2-0.5-0.4-0.5-0.5c0,0,0,0,0-0.1c-0.1-0.1-0.3-0.4-0.4-0.7
			c-0.1-0.2-0.1-0.3-0.1-0.7c0-0.4,0-0.5,0.1-0.8c0.1-0.2,0.2-0.4,0.2-0.5c0.1-0.2,0.5-0.6,0.7-0.8c0.1-0.1,0.6-0.3,0.8-0.4
			c0.1,0,0.1,0-0.1,0.2c-0.5,0.4-0.8,1-1,1.5c-0.1,0.4-0.1,1.2,0,1.2c0,0,0,0,0,0c0-0.1,0.2-0.5,0.4-0.7c0.1-0.1,0.2-0.3,0.4-0.4
			c0.1-0.1,0.2-0.2,0.2-0.2c0,0,0.5-0.3,0.6-0.3c0.1,0,0.1,0-0.1,0.3c-0.3,0.5-0.5,1.1-0.5,1.7c0,0.3,0.2,0.9,0.2,0.9
			c0,0,0.1,0.1,0.1,0.2c0.1,0.2,0.4,0.5,0.7,0.7c0.3,0.2,0.4,0.2,0.2,0c-0.2-0.3-0.4-1-0.3-1.5c0-0.2,0.2-0.6,0.3-0.6
			c0,0,0,0.1,0,0.2c0,0.6,0.2,1,0.8,1.6c0.2,0.2,0.5,0.5,0.7,0.7c0.7,0.7,1.1,1.2,1.1,2c0.1,0.4,0,0.8-0.1,1.2c0,0.1-0.1,0.2,0,0.2
			c0.1,0,0.3-0.4,0.5-0.7c0.2-0.3,0.3-0.9,0.3-1.2c0-0.4-0.1-0.9-0.4-1.2c-0.2-0.3-0.4-0.5-0.8-0.8c-0.5-0.4-0.6-0.6-0.4-0.8
			c0.1-0.1,0.1-0.1,0.5-0.1c0.4,0,0.4,0,0.9,0.2c0.8,0.2,0.8,0.3,1.3,0.3c0.3,0,0.4,0,0.6-0.1c0.2-0.1,0.5-0.3,0.5-0.4
			c0,0-0.2-0.1-0.3-0.1c-0.2,0-0.5-0.1-0.7-0.2c-0.7-0.2-1.4-0.5-1.6-0.5c-0.1,0-0.2-0.1-0.2-0.1c0,0,0.1,0,0.2-0.1
			c0.2,0,0.6,0,0.9,0.1c0.1,0,0.4,0.1,0.6,0.2c0.9,0.3,1.4,0.4,1.8,0.2c0.2-0.1,0.4-0.3,0.4-0.3c0,0-0.1-0.1-0.1-0.2
			c-0.2-0.2-0.3-0.4-0.3-0.6c0-0.1,0.3-0.1,0.6-0.1l0.3,0l-0.1-0.1c-0.1,0-0.2-0.1-0.3-0.2c-0.1-0.1-0.3-0.2-0.3-0.2
			c-0.3-0.2-0.6-0.5-0.7-0.5c0,0-0.1-0.1-0.3-0.2c-0.1-0.1-0.3-0.2-0.3-0.2c0,0-0.1-0.1-0.3-0.2S25.9,24,25.9,24
			c0,0-0.1-0.2-0.1-0.3c-0.1-0.4-0.2-0.6-0.5-0.9c-0.5-0.5-1.2-1-2-1.4c-0.3-0.1-0.5-0.2-0.5-0.3c0,0-0.1,0-0.1,0
			c0,0-0.1-0.1-0.2-0.4C22.2,20.3,22,20,22,20c0,0,0,0,0-0.1c0,0-0.1-0.2-0.4-0.5c-0.2-0.2-0.5-0.5-0.6-0.5
			C20.9,18.9,20.8,18.9,20.7,19 M20.9,19.8c-0.1,0.1-0.3,0.5-0.3,0.8c0,0.1,0,0.4,0,0.6c0,0.4,0,0.4,0.1,0.6
			c0.2,0.4,0.6,0.8,0.6,0.5c-0.1-0.3-0.1-0.5-0.1-0.8c0-0.3,0-0.3,0.1-0.3c0.1,0,0.5,0.2,0.6,0.3c0.1,0.1,0.1,0,0.1-0.3
			c0-0.3-0.3-0.8-0.5-1.1C21.3,20,21,19.7,21,19.7C21,19.7,20.9,19.8,20.9,19.8 M23,20c-0.1,0.2-0.2,0.6-0.2,0.7
			c0,0,0.1,0.1,0.1,0.1c0.3,0.1,0.6,0.3,0.9,0.4c0.1,0.1,0.3,0.2,0.3,0.2c0.1,0.1-0.5-1.1-0.6-1.3c0,0,0-0.1-0.1-0.1
			c0,0-0.2-0.3-0.2-0.3C23.1,19.8,23,19.9,23,20 M23.1,23.3l-0.3,0l0.2,0.1c0.5,0.2,0.6,0.3,0.8,0.5c0.2,0.3,0.4,0.4,0.8,0.4
			c0.3,0,0.4,0.1,0.5,0.1c0.2,0.1,0.2,0.1,0.2,0c0-0.2-0.7-1-0.9-1c0,0-0.1,0-0.1,0C24.4,23.3,23.7,23.3,23.1,23.3"/>
		<path class="st7" d="M20.7,18.9c-0.2,0.2-0.3,0.4-0.5,0.7c-0.3,0.7-0.5,1.3-0.4,2c0.1,0.4,0.2,0.8,0.3,0.8c0,0,0.1,0.1,0.1,0.1
			c0,0,0,0.1,0.1,0.1c0.1,0.1,0.1,0.1,0,0c-0.2-0.1-0.5-0.3-0.7-0.6c-0.2-0.2-0.3-0.6-0.4-1c0-0.1,0-0.1-0.1-0.1
			c-0.1,0-0.7,0.3-0.7,0.3c0,0,0,0-0.1,0s-0.1,0-0.1,0.1c-0.1,0-0.2,0.2-0.4,0.3c-0.3,0.2-0.9,0.8-1,1c-0.1,0.1-0.1,0.1-0.1,0.2
			c0,0-0.1,0.2-0.3,0.5c-0.1,0.2-0.3,0.5-0.3,0.5c0,0,0.1-0.1,0.3-0.2c0.5-0.4,1-0.7,1.5-0.8c0.5-0.1,0.5-0.1,0.1,0.1
			c-0.3,0.2-1,0.8-1.2,1.1c-0.6,0.8-0.9,1.5-1.1,2.2c-0.1,0.5-0.1,1.4,0,1.4c0,0,0,0,0-0.1c0-0.3,0.4-1.2,0.7-1.6c0.3-0.5,1-1,1.1-1
			c0,0,0,0,0,0.1c-0.1,0.1-0.3,0.4-0.4,0.7c-0.3,0.6-0.6,1.5-0.6,2.1c0,0.6,0.2,1.3,0.5,1.8c0.1,0.1,0.1,0.2,0.1,0.2
			c0,0,0.5,0.6,0.7,0.7c0.2,0.1,0.4,0.3,0.7,0.4c0.2,0.1,0.6,0.2,0.6,0.2c0,0-0.1-0.1-0.2-0.3c-0.5-0.5-0.8-1.1-1-1.7
			c-0.1-0.4-0.1-1.4,0.1-1.7c0-0.1,0.1,0,0.1,0.1c0,0.5,0.2,1,0.6,1.5c0.1,0.2,0.2,0.3,0.3,0.3c0,0,0.1,0.1,0.3,0.3
			c0.1,0.2,0.3,0.3,0.3,0.3c0.1,0.1,0.7,0.9,0.7,1c0,0,0,0,0,0c0.1,0,0.3,0.6,0.4,1c0.1,0.2,0.1,0.4,0.1,0.6c0,0.2,0,0.3,0,0.3
			c0.1,0,0.4-0.5,0.5-0.8c0.1-0.3,0.1-1,0.1-1.3c-0.1-0.3-0.3-0.7-0.5-1c-0.1-0.1-0.2-0.2-0.1-0.2c0.1,0,0.9,0.7,1,1
			c0,0.1,0.1,0.2,0.2,0.3c0.2,0.3,0.3,0.7,0.3,1.1c0,0.6-0.1,1-0.5,1.5c0,0.1-0.1,0.2-0.1,0.2c-0.1,0.1,0,0.1,0.3-0.1
			c0.6-0.3,1.4-1.1,1.7-1.7c0.1-0.2,0.2-0.7,0.2-0.9c0-0.3-0.2-1-0.3-1.1c0,0-0.1,0-0.1,0.1c-0.1,0.4-0.3,1.1-0.3,0.9
			c-0.1-0.5-0.2-0.8-0.5-1.2c-0.3-0.4-0.6-0.7-1.6-1.3c-0.6-0.4-0.9-0.6-1.3-1c-0.2-0.2-0.5-0.4-0.5-0.5c0,0,0,0,0-0.1
			c-0.1-0.1-0.3-0.4-0.4-0.7c-0.1-0.2-0.1-0.3-0.1-0.7c0-0.4,0-0.5,0.1-0.8c0.1-0.2,0.2-0.4,0.2-0.5c0.1-0.2,0.5-0.6,0.7-0.8
			c0.1-0.1,0.6-0.3,0.8-0.4c0.1,0,0.1,0-0.1,0.2c-0.5,0.4-0.8,1-1,1.5c-0.1,0.4-0.1,1.2,0,1.2c0,0,0,0,0,0c0-0.1,0.2-0.5,0.4-0.7
			c0.1-0.1,0.2-0.3,0.4-0.4c0.1-0.1,0.2-0.2,0.2-0.2c0,0,0.5-0.3,0.6-0.3c0.1,0,0.1,0-0.1,0.3c-0.3,0.5-0.5,1.1-0.5,1.7
			c0,0.3,0.2,0.9,0.2,0.9c0,0,0.1,0.1,0.1,0.2c0.1,0.2,0.4,0.5,0.7,0.7c0.3,0.2,0.4,0.2,0.2,0c-0.2-0.3-0.4-1-0.3-1.5
			c0-0.2,0.2-0.6,0.3-0.6c0,0,0,0.1,0,0.2c0,0.6,0.2,1,0.8,1.6c0.2,0.2,0.5,0.5,0.7,0.7c0.7,0.7,1.1,1.2,1.1,2
			c0.1,0.4,0,0.8-0.1,1.2c0,0.1-0.1,0.2,0,0.2c0.1,0,0.3-0.4,0.5-0.7c0.2-0.3,0.3-0.9,0.3-1.2c0-0.4-0.1-0.9-0.4-1.2
			c-0.2-0.3-0.4-0.5-0.8-0.8c-0.5-0.4-0.6-0.6-0.4-0.8c0.1-0.1,0.1-0.1,0.5-0.1c0.4,0,0.4,0,0.9,0.2c0.8,0.2,0.8,0.3,1.3,0.3
			c0.3,0,0.4,0,0.6-0.1c0.2-0.1,0.5-0.3,0.5-0.4c0,0-0.2-0.1-0.3-0.1c-0.2,0-0.5-0.1-0.7-0.2c-0.7-0.2-1.4-0.5-1.6-0.5
			c-0.1,0-0.2-0.1-0.2-0.1c0,0,0.1,0,0.2-0.1c0.2,0,0.6,0,0.9,0.1c0.1,0,0.4,0.1,0.6,0.2c0.9,0.3,1.4,0.4,1.8,0.2
			c0.2-0.1,0.4-0.3,0.4-0.3c0,0-0.1-0.1-0.1-0.2c-0.2-0.2-0.3-0.4-0.3-0.6c0-0.1,0.3-0.1,0.6-0.1l0.3,0l-0.1-0.1
			c-0.1,0-0.2-0.1-0.3-0.2s-0.3-0.2-0.3-0.2c-0.3-0.2-0.6-0.5-0.7-0.5c0,0-0.1-0.1-0.3-0.2c-0.1-0.1-0.3-0.2-0.3-0.2
			s-0.1-0.1-0.3-0.2c-0.2-0.1-0.3-0.2-0.3-0.2c0,0-0.1-0.2-0.1-0.3c-0.1-0.4-0.2-0.6-0.5-0.9c-0.5-0.5-1.2-1-2-1.4
			c-0.3-0.1-0.5-0.2-0.5-0.3c0,0-0.1,0-0.1,0c0,0-0.1-0.1-0.2-0.4c-0.2-0.4-0.3-0.7-0.4-0.7c0,0,0,0,0-0.1c0,0-0.1-0.2-0.4-0.5
			c-0.2-0.2-0.5-0.5-0.6-0.5C20.8,18.8,20.7,18.9,20.7,18.9 M20.8,19.8c-0.1,0.1-0.3,0.5-0.3,0.8c0,0.1,0,0.4,0,0.6
			c0,0.4,0,0.4,0.1,0.6c0.2,0.4,0.6,0.8,0.6,0.5C21,22,21,21.8,21,21.5c0-0.3,0-0.3,0.1-0.3c0.1,0,0.5,0.2,0.6,0.3
			c0.1,0.1,0.1,0,0.1-0.3c0-0.3-0.3-0.8-0.5-1.1c-0.1-0.2-0.4-0.5-0.4-0.5C20.9,19.7,20.8,19.7,20.8,19.8 M22.9,19.9
			c-0.1,0.2-0.2,0.6-0.2,0.7c0,0,0.1,0.1,0.1,0.1c0.3,0.1,0.6,0.3,0.9,0.4c0.1,0.1,0.3,0.2,0.3,0.2c0.1,0.1-0.5-1.1-0.6-1.3
			c0,0,0-0.1-0.1-0.1c0,0-0.2-0.3-0.2-0.3C23,19.7,23,19.8,22.9,19.9 M23,23.2l-0.3,0l0.2,0.1c0.5,0.2,0.6,0.3,0.8,0.5
			c0.2,0.3,0.4,0.4,0.8,0.4c0.3,0,0.4,0.1,0.5,0.1c0.2,0.1,0.2,0.1,0.2,0c0-0.2-0.7-1-0.9-1c0,0-0.1,0-0.1,0
			C24.3,23.3,23.6,23.2,23,23.2"/>
	</g>
</g>
</svg>
