<?xml version="1.0" encoding="utf-8"?>
<!-- Generator: Adobe Illustrator 24.3.0, SVG Export Plug-In . SVG Version: 6.00 Build 0)  -->
<svg version="1.1" id="Layer_1" xmlns="http://www.w3.org/2000/svg" xmlns:xlink="http://www.w3.org/1999/xlink" x="0px" y="0px"
	 viewBox="0 0 333 237" style="enable-background:new 0 0 333 237;" xml:space="preserve">
<style type="text/css">
	.st0{clip-path:url(#SVGID_2_);}
	.st1{fill-rule:evenodd;clip-rule:evenodd;fill:#0D1214;}
	.st2{opacity:0.4;fill-rule:evenodd;clip-rule:evenodd;fill:#687B85;enable-background:new    ;}
	.st3{fill:#FFFFFF;}
	.st4{font-family:'Arial-BoldMT';}
	.st5{font-size:23px;}
	.st6{opacity:0.18;fill-rule:evenodd;clip-rule:evenodd;fill:#C3C9D3;enable-background:new    ;}
	.st7{fill-rule:evenodd;clip-rule:evenodd;fill:#FFB49B;}
	.st8{opacity:0.4;fill:none;stroke:#687B85;stroke-width:0.7;enable-background:new    ;}
	.st9{fill-rule:evenodd;clip-rule:evenodd;fill:#591F09;}
	.st10{fill-rule:evenodd;clip-rule:evenodd;fill:url(#SVGID_3_);}
	.st11{fill-rule:evenodd;clip-rule:evenodd;}
	.st12{clip-path:url(#SVGID_5_);}
	.st13{fill:#F3F5F7;}
	.st14{fill:url(#SVGID_6_);}
	.st15{fill-rule:evenodd;clip-rule:evenodd;fill:#808080;}
	.st16{fill-rule:evenodd;clip-rule:evenodd;fill:#FFFFFF;}
</style>
<g>
	<defs>
		<rect id="SVGID_1_" x="7.2" y="12.8" width="285.3" height="28.3"/>
	</defs>
	<clipPath id="SVGID_2_">
		<use xlink:href="#SVGID_1_"  style="overflow:visible;"/>
	</clipPath>
	<g id="Clip-Path" class="st0">
		<g>
			<path class="st1" d="M7.2,12.8h282.4v28.4H7.2L7.2,12.8z"/>
			<path class="st2" d="M12.9,15.7h54.5c1.6,0,2.9,1.2,2.9,2.8v17c0,1.6-1.3,2.8-2.9,2.8H12.9c-1.6,0-2.8-1.2-2.8-2.8v-17
				C10.1,16.9,11.3,15.7,12.9,15.7z"/>
			<g id="Layer_1_1_">
			</g>
			<text transform="matrix(1 0 0 1 0 -6.728313e-06)" class="st3 st4 st5">i</text>
			<text transform="matrix(1 0 0 1 6.3901 -6.728313e-06)" class="st3 st4 st5">B</text>
			<text transform="matrix(1 0 0 1 23 -6.728313e-06)" class="st3 st4 st5">r</text>
			<text transform="matrix(1 0 0 1 31.9507 -6.728313e-06)" class="st3 st4 st5">o</text>
			<text transform="matrix(1 0 0 1 46 -6.728313e-06)" class="st3 st4 st5">w</text>
			<text transform="matrix(1 0 0 1 63.8901 -6.728313e-06)" class="st3 st4 st5">e</text>
			<path class="st6" d="M83.7,22.7h165.4c2.4,0,4.3,1.9,4.3,4.3s-1.9,4.3-4.3,4.3H83.7c-2.3,0-4.2-1.9-4.2-4.3S81.4,22.7,83.7,22.7z
				"/>
		</g>
	</g>
</g>
<g>
	<path class="st1" d="M7.2,56h285.4v122.6H7.2L7.2,56z"/>
	<path class="st7" d="M22.9,67.4h165.3c2.4,0,4.3,1.9,4.3,4.2c0,2.4-1.9,4.3-4.3,4.3H22.9c-2.4,0-4.3-1.9-4.3-4.3
		C18.6,69.3,20.5,67.4,22.9,67.4z"/>
	<path class="st8" d="M18.9,81.9h262v85h-262L18.9,81.9z"/>
	<path class="st9" d="M18.6,81.6h262.7v29.9H18.6L18.6,81.6z"/>
	<path class="st7" d="M28.5,92.3h165.4c2.4,0,4.3,1.9,4.3,4.2c0,2.4-1.9,4.3-4.3,4.3H28.5c-2.3,0-4.3-1.9-4.3-4.3
		C24.2,94.2,26.2,92.3,28.5,92.3z"/>
</g>
<linearGradient id="SVGID_3_" gradientUnits="userSpaceOnUse" x1="-132.082" y1="550.5531" x2="-131.0818" y2="550.5531" gradientTransform="matrix(-121.077 0 0 28.322 -15698.7881 -15565.7656)">
	<stop  offset="0" style="stop-color:#000000"/>
	<stop  offset="1" style="stop-color:#000000;stop-opacity:0"/>
</linearGradient>
<path class="st10" d="M172.2,12.8h121.1v28.4H172.2L172.2,12.8z"/>
<path class="st11" d="M290.7,0c22.9,0,41.4,18.5,41.4,41.3c0,22.9-18.5,41.4-41.4,41.4c-22.8,0-41.3-18.5-41.3-41.4
	C249.4,18.5,267.9,0,290.7,0z"/>
<g>
	<defs>
		<rect id="SVGID_4_" x="259.6" y="33" width="63" height="16"/>
	</defs>
	<clipPath id="SVGID_5_">
		<use xlink:href="#SVGID_4_"  style="overflow:visible;"/>
	</clipPath>
	<g id="Clip-Path_1_" class="st12">
		<g>
			<path class="st3" d="M269.1,36.7c0-2-1.8-3.7-3.9-3.7c-2.2,0-3.9,1.7-3.9,3.7v1.2h-1.6v8.5l5.5,2.6l5.5-2.6v-8.5h-1.6V36.7z
				 M263.3,36.7c0-0.9,0.8-1.7,1.9-1.7s1.9,0.8,1.9,1.7v1.2h-3.8V36.7z M268.5,45l-3.3,1.6l-3.3-1.6v-5.1h6.6L268.5,45L268.5,45z"/>
			<path class="st3" d="M275.2,37.9h7v2h-2.4v6.6h-2.2v-6.6h-2.4V37.9z M290.2,40.8c0-1.7-1.2-2.8-3-2.8h-4v8.5h2.2v-2.9h0.9
				l1.6,2.9h2.5l-1.8-3.2C289.4,43,290.2,42.2,290.2,40.8L290.2,40.8z M287,41.6h-1.6v-1.7h1.6c0.6,0,0.9,0.4,0.9,0.9
				S287.6,41.6,287,41.6z M291.2,37.9h6.3v2h-4v1.3h3.9v1.9h-3.9v1.4h4v2h-6.3V37.9z M310,37.8c-2.6,0-4.5,1.9-4.5,4.4
				s1.9,4.4,4.5,4.4s4.5-1.9,4.5-4.4S312.6,37.8,310,37.8z M310,44.6c-1.3,0-2.2-1-2.2-2.4c0-1.5,0.9-2.4,2.2-2.4
				c1.3,0,2.2,1,2.2,2.4S311.3,44.6,310,44.6z M320.8,43.3c0.8-0.3,1.6-1.1,1.6-2.5c0-1.8-1.2-2.9-2.9-2.9h-4.1v8.6h2.2v-2.9h0.9
				l1.6,2.9h2.6L320.8,43.3z M319.2,41.6h-1.6v-1.7h1.6c0.6,0,0.9,0.3,0.9,0.8S319.8,41.6,319.2,41.6z M298.5,37.9h6.6v1.7l-3.6,4.8
				h3.6v2.1h-6.6v-1.8l3.6-4.8h-3.6V37.9z"/>
		</g>
	</g>
</g>
<path class="st13" d="M24.3,229.7c-1,0-1.9-0.2-2.7-0.7s-1.4-1.2-1.8-2.1c-0.5-0.9-0.7-1.9-0.7-3.1c0-1.3,0.2-2.3,0.7-3.2
	c0.4-0.9,1-1.6,1.8-2.1c0.7-0.5,1.6-0.7,2.6-0.7c0.7,0,1.3,0.1,1.8,0.3c0.5,0.1,1,0.4,1.4,0.7s0.8,0.8,1.1,1.3
	c0.3,0.4,0.4,0.9,0.5,1.5h-1.5c-0.1-0.4-0.3-0.7-0.5-1c-0.2-0.3-0.4-0.6-0.7-0.8c-0.3-0.2-0.6-0.4-0.9-0.5c-0.3-0.1-0.7-0.2-1.2-0.2
	c-0.7,0-1.3,0.2-1.8,0.6c-0.6,0.3-1.1,0.8-1.4,1.5c-0.3,0.7-0.5,1.6-0.5,2.6c0,0.9,0.2,1.8,0.5,2.5c0.3,0.7,0.8,1.2,1.4,1.5
	c0.5,0.4,1.2,0.6,1.9,0.6c0.7,0,1.3-0.1,1.8-0.4c0.5-0.3,0.8-0.7,1.1-1.2c0.3-0.5,0.5-1.2,0.5-1.9l0.4,0.1h-3.5v-1.3h4.5v1.3
	c0,0.9-0.2,1.8-0.6,2.5c-0.4,0.7-1,1.3-1.7,1.6C26.1,229.5,25.2,229.7,24.3,229.7L24.3,229.7z M31.1,229.6v-8.7h1.3v1.3h0.1
	c0.2-0.4,0.5-0.7,0.9-1s0.9-0.4,1.4-0.4c0.1,0,0.2,0,0.3,0s0.3,0,0.4,0v1.4c-0.1,0-0.2,0-0.4,0c-0.1-0.1-0.3-0.1-0.5-0.1
	c-0.4,0-0.8,0.1-1.1,0.3c-0.3,0.1-0.6,0.4-0.7,0.7c-0.2,0.3-0.3,0.6-0.3,1.1v5.4H31.1z M39.2,229.8c-0.5,0-1-0.1-1.5-0.3
	c-0.4-0.2-0.7-0.5-1-0.9s-0.4-0.9-0.4-1.5c0-0.5,0.1-0.9,0.3-1.2c0.2-0.3,0.5-0.6,0.8-0.7c0.3-0.2,0.7-0.3,1.1-0.4
	c0.4-0.1,0.8-0.2,1.2-0.3c0.5-0.1,0.9-0.1,1.2-0.1c0.3-0.1,0.6-0.1,0.8-0.2c0.1-0.1,0.2-0.2,0.2-0.5c0-0.3-0.1-0.6-0.2-0.9
	c-0.1-0.3-0.3-0.5-0.6-0.6c-0.3-0.1-0.6-0.2-1-0.2c-0.5,0-0.8,0.1-1.1,0.2c-0.3,0.1-0.5,0.3-0.7,0.5c-0.2,0.2-0.3,0.4-0.4,0.6
	l-1.4-0.4c0.2-0.5,0.5-0.9,0.9-1.2c0.3-0.3,0.7-0.6,1.2-0.7s0.9-0.2,1.4-0.2c0.3,0,0.7,0,1.1,0.1c0.3,0.1,0.7,0.2,1,0.4
	c0.3,0.2,0.6,0.5,0.9,0.9c0.2,0.4,0.3,0.9,0.3,1.6v5.8h-1.4v-1.2h-0.1c-0.1,0.2-0.2,0.4-0.4,0.6c-0.3,0.2-0.6,0.4-0.9,0.6
	C40.2,229.7,39.7,229.8,39.2,229.8L39.2,229.8z M39.5,228.5c0.5,0,1-0.1,1.3-0.3s0.6-0.5,0.8-0.8c0.2-0.3,0.3-0.6,0.3-1v-1.2
	c-0.1,0.1-0.2,0.1-0.4,0.2c-0.2,0.1-0.4,0.1-0.6,0.2c-0.3,0-0.5,0-0.7,0.1c-0.3,0-0.5,0-0.6,0c-0.3,0.1-0.6,0.1-0.9,0.2
	c-0.3,0.1-0.6,0.3-0.7,0.5c-0.2,0.2-0.3,0.5-0.3,0.8c0,0.3,0.1,0.5,0.2,0.7c0.2,0.2,0.4,0.4,0.7,0.5
	C38.9,228.5,39.2,228.5,39.5,228.5z M46.9,224.4v5.2h-1.4v-8.7h1.4v2.1h-0.3c0.3-0.8,0.7-1.4,1.2-1.7c0.5-0.3,1-0.5,1.7-0.5
	c0.6,0,1.1,0.1,1.5,0.3c0.5,0.3,0.8,0.6,1.1,1.1c0.3,0.5,0.4,1.2,0.4,1.9v5.5h-1.4v-5.4c0-0.7-0.2-1.2-0.6-1.6
	c-0.3-0.4-0.8-0.6-1.4-0.6c-0.4,0-0.8,0.1-1.1,0.3s-0.6,0.5-0.8,0.8C47,223.4,46.9,223.9,46.9,224.4L46.9,224.4z M58.1,220.9v1.2
	h-4.5v-1.2H58.1z M54.9,218.8h1.4v8.5c0,0.4,0.1,0.7,0.3,0.9c0.1,0.1,0.4,0.2,0.8,0.2c0.1,0,0.2,0,0.3,0s0.3,0,0.4-0.1l0.2,1.2
	c-0.1,0.1-0.3,0.1-0.5,0.1c-0.1,0.1-0.3,0.1-0.5,0.1c-0.7,0-1.3-0.2-1.7-0.6c-0.5-0.4-0.7-1-0.7-1.7V218.8z M64.1,229.6V218h4.1
	c0.8,0,1.5,0.1,2,0.4s0.9,0.6,1.2,1.1c0.3,0.5,0.4,1,0.4,1.6c0,0.5-0.1,0.9-0.2,1.2c-0.2,0.3-0.4,0.6-0.7,0.8
	c-0.3,0.2-0.7,0.3-1,0.4v0.1c0.4,0.1,0.8,0.2,1.1,0.4c0.4,0.3,0.7,0.6,0.9,1c0.3,0.4,0.4,0.9,0.4,1.5c0,0.6-0.1,1.1-0.4,1.6
	c-0.3,0.5-0.7,0.8-1.3,1.1c-0.6,0.3-1.3,0.4-2.2,0.4H64.1z M65.5,228.3h2.8c0.9,0,1.5-0.2,1.9-0.5c0.4-0.3,0.6-0.8,0.6-1.3
	c0-0.4-0.1-0.8-0.3-1.1s-0.5-0.6-0.8-0.8c-0.4-0.2-0.8-0.3-1.3-0.3h-2.9L65.5,228.3z M65.5,223.1h2.6c0.5,0,0.9-0.1,1.2-0.2
	c0.3-0.2,0.6-0.4,0.8-0.7c0.2-0.3,0.3-0.7,0.3-1.1c0-0.5-0.2-0.9-0.6-1.3c-0.3-0.3-0.9-0.5-1.6-0.5h-2.7L65.5,223.1z M74.1,229.6
	V221h1.4v1.3h0.1c0.1-0.5,0.4-0.8,0.8-1c0.4-0.3,0.9-0.5,1.4-0.5c0.1,0,0.3,0,0.4,0.1c0.1,0,0.2,0,0.3,0v1.4c-0.1,0-0.2,0-0.3-0.1
	c-0.2,0-0.4,0-0.6,0c-0.4,0-0.7,0.1-1,0.3c-0.3,0.1-0.6,0.4-0.8,0.7c-0.2,0.3-0.3,0.6-0.3,1v5.4L74.1,229.6z M82.3,229.8
	c-0.5,0-1-0.1-1.5-0.3c-0.5-0.2-0.8-0.5-1.1-0.9c-0.3-0.4-0.4-0.9-0.4-1.4s0.1-0.9,0.3-1.2c0.2-0.3,0.5-0.6,0.8-0.8
	c0.3-0.1,0.7-0.3,1.1-0.4c0.4-0.1,0.8-0.1,1.2-0.2c0.5-0.1,1-0.1,1.3-0.1c0.3-0.1,0.6-0.1,0.7-0.2c0.1-0.1,0.2-0.3,0.2-0.5
	c0-0.4-0.1-0.7-0.2-0.9c-0.1-0.3-0.3-0.5-0.6-0.6c-0.3-0.1-0.6-0.2-1-0.2c-0.4,0-0.8,0.1-1.1,0.2c-0.3,0.1-0.5,0.3-0.7,0.5
	c-0.2,0.2-0.3,0.4-0.4,0.6l-1.3-0.4c0.2-0.5,0.5-1,0.8-1.3c0.4-0.3,0.8-0.5,1.3-0.6c0.5-0.1,0.9-0.2,1.4-0.2c0.3,0,0.6,0,1,0.1
	s0.8,0.2,1.1,0.4c0.3,0.2,0.6,0.5,0.8,0.9c0.2,0.4,0.3,0.9,0.3,1.6v5.7h-1.4v-1.1c-0.1,0.2-0.3,0.4-0.5,0.6
	c-0.2,0.2-0.5,0.4-0.9,0.5C83.2,229.7,82.8,229.8,82.3,229.8L82.3,229.8z M82.5,228.6c0.5,0,1-0.1,1.3-0.3c0.4-0.2,0.7-0.5,0.8-0.8
	c0.2-0.3,0.3-0.7,0.3-1v-1.2c-0.1,0.1-0.2,0.1-0.3,0.2c-0.2,0.1-0.4,0.1-0.7,0.1c-0.3,0.1-0.5,0.1-0.7,0.1c-0.2,0.1-0.4,0.1-0.6,0.1
	c-0.3,0.1-0.6,0.1-0.9,0.2c-0.3,0.1-0.5,0.3-0.7,0.5c-0.2,0.1-0.3,0.4-0.3,0.8c0,0.3,0.1,0.5,0.2,0.7c0.2,0.2,0.4,0.4,0.7,0.5
	C81.9,228.6,82.2,228.6,82.5,228.6L82.5,228.6z M90.8,229.6l-3.3-8.6H89l1.9,5.1c0.1,0.5,0.3,1.1,0.4,1.6c0.2,0.5,0.4,1,0.5,1.5
	h-0.5c0.1-0.5,0.3-1,0.4-1.5c0.1-0.5,0.3-1.1,0.5-1.6l1.9-5.1h1.5l-3.3,8.6H90.8z M100.3,229.8c-0.9,0-1.6-0.2-2.2-0.5
	c-0.6-0.4-1.1-0.9-1.4-1.6c-0.3-0.7-0.5-1.4-0.5-2.3c0-0.9,0.2-1.7,0.5-2.4c0.3-0.7,0.8-1.2,1.4-1.6c0.5-0.3,1.2-0.5,2-0.5
	c0.5,0,0.9,0.1,1.4,0.2c0.5,0.1,0.9,0.4,1.2,0.8c0.4,0.3,0.7,0.8,0.9,1.3c0.2,0.5,0.3,1.2,0.3,2v0.6h-6.8v-1.2h6.1l-0.7,0.4
	c0-0.5-0.1-1-0.3-1.5c-0.1-0.5-0.4-0.8-0.8-1c-0.3-0.3-0.8-0.4-1.3-0.4c-0.5,0-1,0.1-1.3,0.4c-0.4,0.3-0.7,0.6-0.9,1
	c-0.2,0.4-0.3,0.8-0.3,1.3v0.8c0,0.6,0.1,1.1,0.4,1.6c0.2,0.5,0.5,0.8,0.9,1c0.4,0.3,0.9,0.4,1.4,0.4c0.3,0,0.6-0.1,0.9-0.2
	c0.3-0.1,0.6-0.2,0.8-0.4c0.2-0.2,0.3-0.5,0.4-0.8l1.4,0.4c-0.1,0.4-0.4,0.8-0.7,1.2c-0.3,0.3-0.7,0.6-1.2,0.7
	C101.4,229.7,100.9,229.8,100.3,229.8z M112.4,229.8c-0.5,0-1-0.1-1.5-0.3s-0.8-0.5-1.1-0.9c-0.3-0.4-0.4-0.9-0.4-1.4
	s0.1-0.9,0.3-1.2c0.2-0.3,0.5-0.6,0.8-0.8c0.3-0.1,0.7-0.3,1.1-0.4c0.4-0.1,0.8-0.1,1.2-0.2c0.5-0.1,1-0.1,1.3-0.1
	c0.3-0.1,0.6-0.1,0.7-0.2c0.1-0.1,0.2-0.3,0.2-0.5c0-0.4-0.1-0.7-0.2-0.9c-0.1-0.3-0.3-0.5-0.6-0.6c-0.3-0.1-0.6-0.2-1-0.2
	s-0.8,0.1-1.1,0.2c-0.3,0.1-0.5,0.3-0.7,0.5s-0.3,0.4-0.4,0.6l-1.3-0.4c0.2-0.5,0.5-1,0.8-1.3c0.4-0.3,0.8-0.5,1.3-0.6
	c0.5-0.1,0.9-0.2,1.4-0.2c0.3,0,0.6,0,1,0.1c0.4,0.1,0.8,0.2,1.1,0.4c0.3,0.2,0.6,0.5,0.8,0.9s0.3,0.9,0.3,1.6v5.7h-1.3v-1.1H115
	c-0.1,0.2-0.3,0.4-0.5,0.6c-0.2,0.2-0.5,0.4-0.8,0.5C113.3,229.7,112.9,229.8,112.4,229.8L112.4,229.8z M112.6,228.6
	c0.5,0,1-0.1,1.3-0.3c0.4-0.2,0.7-0.5,0.9-0.8c0.1-0.3,0.2-0.7,0.2-1v-1.2c0,0.1-0.1,0.1-0.3,0.2c-0.2,0.1-0.4,0.1-0.7,0.1
	c-0.2,0.1-0.4,0.1-0.7,0.1c-0.2,0.1-0.4,0.1-0.6,0.1c-0.3,0.1-0.6,0.1-0.9,0.2c-0.3,0.1-0.5,0.3-0.7,0.5c-0.2,0.1-0.3,0.4-0.3,0.8
	c0,0.3,0.1,0.5,0.3,0.7c0.1,0.2,0.3,0.4,0.6,0.5C112,228.6,112.3,228.6,112.6,228.6L112.6,228.6z M122.2,229.8
	c-0.8,0-1.5-0.2-2.1-0.5c-0.6-0.4-1.1-0.9-1.4-1.6c-0.3-0.7-0.5-1.4-0.5-2.3c0-0.9,0.2-1.7,0.5-2.4c0.3-0.7,0.8-1.2,1.4-1.6
	c0.6-0.3,1.3-0.5,2.1-0.5c0.4,0,0.8,0,1.2,0.1c0.4,0.1,0.7,0.3,1,0.5c0.3,0.2,0.6,0.5,0.8,0.8c0.2,0.3,0.4,0.6,0.5,1l-1.3,0.4
	c-0.1-0.3-0.2-0.5-0.3-0.7c-0.1-0.1-0.3-0.3-0.5-0.5c-0.2-0.1-0.4-0.2-0.6-0.3c-0.3-0.1-0.5-0.1-0.8-0.1c-0.6,0-1.1,0.2-1.4,0.5
	c-0.4,0.3-0.7,0.6-0.9,1.1c-0.2,0.5-0.3,1.1-0.3,1.7c0,0.5,0.1,1.1,0.3,1.6c0.2,0.5,0.5,0.8,0.9,1.1c0.3,0.3,0.8,0.5,1.4,0.5
	c0.3,0,0.5,0,0.8-0.1c0.3-0.1,0.5-0.2,0.6-0.4c0.2-0.1,0.4-0.3,0.5-0.5s0.2-0.4,0.3-0.6l1.3,0.3c-0.1,0.4-0.2,0.8-0.5,1.1
	c-0.2,0.3-0.5,0.5-0.8,0.8c-0.3,0.2-0.6,0.4-1,0.5C123,229.8,122.6,229.8,122.2,229.8L122.2,229.8z M131,229.8c-0.7,0-1.4-0.2-2-0.5
	c-0.6-0.4-1.1-0.9-1.4-1.6c-0.3-0.7-0.5-1.4-0.5-2.3c0-0.9,0.2-1.7,0.5-2.4c0.3-0.7,0.8-1.2,1.4-1.6c0.6-0.3,1.3-0.5,2-0.5
	c0.5,0,0.9,0,1.2,0.1c0.4,0.1,0.8,0.3,1.1,0.5c0.3,0.2,0.5,0.5,0.8,0.8c0.2,0.3,0.4,0.6,0.5,1l-1.4,0.4c-0.1-0.3-0.2-0.5-0.3-0.7
	c-0.1-0.1-0.2-0.3-0.4-0.5c-0.2-0.1-0.4-0.2-0.7-0.3c-0.2-0.1-0.5-0.1-0.8-0.1c-0.5,0-1,0.2-1.4,0.5c-0.3,0.3-0.6,0.6-0.8,1.1
	c-0.2,0.5-0.3,1.1-0.3,1.7c0,0.5,0.1,1.1,0.3,1.6c0.2,0.5,0.5,0.8,0.8,1.1c0.4,0.3,0.9,0.5,1.4,0.5c0.3,0,0.6,0,0.8-0.1
	c0.3-0.1,0.5-0.2,0.7-0.4c0.2-0.1,0.4-0.3,0.5-0.5s0.2-0.4,0.3-0.6l1.3,0.3c-0.1,0.4-0.3,0.8-0.5,1.1c-0.2,0.3-0.5,0.5-0.8,0.8
	c-0.3,0.2-0.7,0.4-1,0.5C131.9,229.8,131.5,229.8,131,229.8L131,229.8z M140,229.8c-0.8,0-1.5-0.2-2.2-0.5c-0.6-0.4-1.1-0.9-1.4-1.6
	c-0.3-0.7-0.5-1.4-0.5-2.3c0-0.9,0.2-1.7,0.5-2.4c0.3-0.7,0.8-1.2,1.4-1.6c0.6-0.3,1.3-0.5,2.1-0.5c0.5,0,0.9,0.1,1.3,0.2
	c0.5,0.1,0.9,0.4,1.3,0.8c0.3,0.3,0.6,0.8,0.8,1.3c0.3,0.5,0.4,1.2,0.4,2v0.6h-6.8v-1.2h6l-0.6,0.4c0-0.5-0.1-1-0.3-1.5
	c-0.2-0.5-0.5-0.8-0.8-1c-0.4-0.3-0.8-0.4-1.3-0.4c-0.5,0-1,0.1-1.4,0.4c-0.3,0.3-0.6,0.6-0.8,1c-0.2,0.4-0.3,0.8-0.3,1.3v0.8
	c0,0.6,0.1,1.1,0.3,1.6s0.5,0.8,0.9,1c0.4,0.3,0.9,0.4,1.4,0.4c0.3,0,0.7-0.1,1-0.2c0.3-0.1,0.5-0.2,0.7-0.4
	c0.2-0.2,0.4-0.5,0.5-0.8l1.3,0.4c-0.1,0.4-0.4,0.8-0.7,1.2c-0.3,0.3-0.7,0.6-1.2,0.7C141.1,229.7,140.6,229.8,140,229.8L140,229.8z
	 M148.4,229.8c-0.6,0-1.1-0.1-1.6-0.2c-0.5-0.2-0.9-0.5-1.2-0.8c-0.3-0.3-0.5-0.8-0.6-1.3l1.4-0.3c0.1,0.5,0.3,0.8,0.7,1.1
	c0.3,0.2,0.8,0.3,1.3,0.3c0.6,0,1.1-0.1,1.4-0.4c0.3-0.3,0.5-0.6,0.5-0.9s-0.1-0.6-0.3-0.8c-0.2-0.2-0.5-0.3-0.9-0.4l-1.5-0.3
	c-0.8-0.2-1.4-0.5-1.7-0.9c-0.4-0.4-0.6-0.9-0.6-1.5c0-0.5,0.1-1,0.4-1.3c0.3-0.4,0.6-0.7,1.1-0.9c0.5-0.2,1.1-0.3,1.7-0.3
	c0.6,0,1.1,0.1,1.5,0.2c0.5,0.2,0.8,0.5,1.1,0.8c0.3,0.3,0.4,0.7,0.5,1.1l-1.3,0.3c-0.1-0.3-0.2-0.6-0.5-0.9
	c-0.3-0.3-0.8-0.4-1.3-0.4c-0.5,0-1,0.1-1.3,0.4s-0.5,0.6-0.5,0.9c0,0.3,0.1,0.6,0.4,0.8c0.2,0.2,0.5,0.3,1,0.4l1.4,0.4
	c0.8,0.1,1.4,0.4,1.7,0.8c0.4,0.4,0.6,0.9,0.6,1.5c0,0.5-0.1,1-0.4,1.4c-0.3,0.4-0.7,0.7-1.2,0.9
	C149.7,229.7,149.1,229.8,148.4,229.8L148.4,229.8z M156.5,229.8c-0.6,0-1.1-0.1-1.6-0.2c-0.5-0.2-0.8-0.5-1.1-0.8
	c-0.3-0.3-0.5-0.8-0.6-1.3l1.3-0.3c0.1,0.5,0.4,0.8,0.7,1.1c0.3,0.2,0.8,0.3,1.3,0.3c0.6,0,1.1-0.1,1.5-0.4c0.3-0.3,0.5-0.6,0.5-0.9
	s-0.1-0.6-0.3-0.8c-0.2-0.2-0.5-0.3-1-0.4l-1.4-0.3c-0.8-0.2-1.4-0.5-1.8-0.9s-0.6-0.9-0.6-1.5c0-0.5,0.2-1,0.5-1.3
	c0.3-0.4,0.6-0.7,1.1-0.9c0.5-0.2,1-0.3,1.7-0.3c0.5,0,1,0.1,1.5,0.2c0.4,0.2,0.7,0.5,1,0.8c0.3,0.3,0.5,0.7,0.6,1.1l-1.3,0.3
	c-0.1-0.3-0.3-0.6-0.6-0.9c-0.3-0.3-0.7-0.4-1.2-0.4c-0.5,0-1,0.1-1.3,0.4s-0.5,0.6-0.5,0.9c0,0.3,0.1,0.6,0.3,0.8
	c0.3,0.2,0.6,0.3,1.1,0.4l1.3,0.4c0.8,0.1,1.4,0.4,1.8,0.8c0.4,0.4,0.6,0.9,0.6,1.5c0,0.5-0.2,1-0.5,1.4c-0.3,0.4-0.7,0.7-1.2,0.9
	C157.8,229.7,157.2,229.8,156.5,229.8L156.5,229.8z M169.5,221v1.2h-4.6V221H169.5z M166.4,218.9h1.4v8.5c0,0.4,0.1,0.7,0.2,0.9
	c0.1,0.1,0.4,0.2,0.8,0.2c0.1,0,0.2,0,0.3,0s0.3,0,0.4-0.1l0.2,1.2c-0.1,0.1-0.3,0.1-0.4,0.1c-0.2,0-0.4,0-0.6,0
	c-0.7,0-1.3-0.2-1.7-0.5c-0.4-0.4-0.6-1-0.6-1.7L166.4,218.9z M174.5,229.9c-0.8,0-1.5-0.2-2.1-0.6c-0.6-0.3-1.1-0.8-1.4-1.5
	c-0.3-0.7-0.5-1.5-0.5-2.4c0-0.9,0.2-1.7,0.5-2.4c0.3-0.7,0.8-1.2,1.4-1.5c0.6-0.4,1.3-0.6,2.1-0.6c0.8,0,1.5,0.2,2,0.6
	c0.6,0.3,1.1,0.8,1.4,1.5c0.3,0.7,0.5,1.5,0.5,2.4c0,0.9-0.2,1.7-0.5,2.4c-0.3,0.7-0.8,1.2-1.4,1.5
	C176,229.7,175.3,229.9,174.5,229.9z M174.5,228.6c0.5,0,1-0.1,1.4-0.4c0.4-0.3,0.7-0.7,0.8-1.2c0.2-0.5,0.3-1,0.3-1.6
	s-0.1-1.1-0.3-1.6c-0.1-0.5-0.4-0.9-0.8-1.2c-0.4-0.3-0.9-0.4-1.4-0.4c-0.6,0-1.1,0.1-1.5,0.4c-0.3,0.3-0.6,0.7-0.8,1.2
	s-0.3,1-0.3,1.6s0.1,1.1,0.3,1.6c0.2,0.5,0.5,0.9,0.8,1.2C173.4,228.5,173.9,228.6,174.5,228.6z M184.4,232.9l0.3-1.2h0.2
	c0.3,0.1,0.5,0.1,0.7,0c0.3,0,0.5-0.1,0.6-0.3c0.2-0.2,0.4-0.5,0.5-0.9l0.3-0.8l-3.3-8.7h1.5l1.9,5.2c0.1,0.5,0.3,1,0.4,1.5
	c0.1,0.5,0.3,1,0.5,1.5h-0.5c0.1-0.5,0.3-1,0.4-1.5c0.1-0.5,0.3-1,0.5-1.5l1.9-5.2h1.5l-3.9,10c-0.1,0.5-0.3,0.9-0.6,1.2
	c-0.3,0.3-0.5,0.5-0.8,0.6c-0.3,0.1-0.7,0.2-1.1,0.2c-0.3,0-0.5,0-0.7,0C184.6,232.9,184.5,232.9,184.4,232.9L184.4,232.9z
	 M196.4,229.9c-0.8,0-1.5-0.2-2.1-0.6c-0.6-0.3-1.1-0.8-1.4-1.5c-0.3-0.7-0.5-1.5-0.5-2.4c0-0.9,0.2-1.7,0.5-2.4
	c0.3-0.7,0.8-1.2,1.4-1.5c0.6-0.4,1.3-0.6,2.1-0.6c0.8,0,1.5,0.2,2.1,0.6c0.6,0.3,1.1,0.8,1.4,1.5c0.3,0.7,0.5,1.5,0.5,2.4
	c0,0.9-0.2,1.7-0.5,2.4c-0.3,0.7-0.8,1.2-1.4,1.5C197.9,229.7,197.2,229.9,196.4,229.9z M196.4,228.6c0.6,0,1.1-0.1,1.4-0.4
	c0.4-0.3,0.7-0.7,0.9-1.2c0.2-0.5,0.3-1,0.3-1.6c0-0.6-0.1-1.1-0.3-1.6c-0.2-0.5-0.5-0.9-0.9-1.2c-0.3-0.3-0.8-0.4-1.4-0.4
	c-0.6,0-1.1,0.1-1.4,0.4c-0.4,0.3-0.7,0.7-0.9,1.2c-0.1,0.5-0.2,1-0.2,1.6c0,0.6,0.1,1.1,0.2,1.6c0.2,0.5,0.5,0.9,0.9,1.2
	C195.3,228.5,195.8,228.6,196.4,228.6z M205.1,229.8c-0.5,0-1-0.1-1.5-0.3c-0.5-0.3-0.8-0.6-1.1-1.1c-0.2-0.5-0.3-1.2-0.3-1.9V221
	h1.4v5.4c0,0.7,0.2,1.2,0.5,1.6c0.3,0.4,0.8,0.6,1.4,0.6c0.5,0,0.9-0.1,1.2-0.3s0.6-0.5,0.7-0.8c0.2-0.3,0.3-0.8,0.3-1.3V221h1.4
	v8.7h-1.3v-2.1h0.2c-0.3,0.8-0.7,1.4-1.2,1.7C206.3,229.6,205.8,229.8,205.1,229.8L205.1,229.8z M211.4,229.7V221h1.3v1.4h0.1
	c0.1-0.5,0.4-0.8,0.8-1.1c0.5-0.3,0.9-0.4,1.4-0.4c0.1,0,0.3,0,0.4,0s0.2,0,0.3,0v1.4c0,0-0.1,0-0.3,0c-0.1,0-0.3,0-0.5,0
	c-0.4,0-0.8,0.1-1.1,0.2c-0.3,0.2-0.6,0.4-0.8,0.7c-0.1,0.3-0.2,0.7-0.2,1.1v5.4L211.4,229.7z M220.8,219.8v-1.7h9.2v1.7h-3.6v9.9
	h-2v-9.9H220.8z M230.6,229.7V221h1.9v1.5h0.1c0.1-0.5,0.4-0.9,0.8-1.2c0.4-0.3,0.9-0.4,1.4-0.4c0.1,0,0.2,0,0.3,0s0.3,0,0.4,0.1
	v1.8c-0.1,0-0.2,0-0.4,0c-0.2-0.1-0.4-0.1-0.6-0.1c-0.3,0-0.7,0.1-1,0.3c-0.3,0.1-0.5,0.3-0.7,0.6c-0.1,0.3-0.2,0.6-0.2,1v5.1
	L230.6,229.7z M240.2,229.9c-0.9,0-1.6-0.2-2.3-0.6c-0.6-0.3-1.1-0.8-1.4-1.5c-0.3-0.7-0.5-1.5-0.5-2.4c0-0.9,0.2-1.6,0.5-2.3
	c0.3-0.7,0.8-1.3,1.4-1.6c0.6-0.4,1.3-0.6,2.1-0.6c0.6,0,1.1,0.1,1.6,0.3c0.5,0.1,0.9,0.4,1.3,0.8c0.3,0.3,0.6,0.8,0.8,1.3
	c0.2,0.6,0.3,1.3,0.3,2v0.6h-7.1v-1.4h6.1l-0.9,0.5c0-0.5-0.1-1-0.2-1.3c-0.2-0.4-0.4-0.7-0.7-0.9c-0.3-0.2-0.7-0.3-1.1-0.3
	c-0.5,0-0.9,0.1-1.2,0.3c-0.3,0.2-0.5,0.5-0.7,0.9c-0.1,0.3-0.2,0.7-0.2,1.1v1c0,0.5,0.1,1,0.2,1.4c0.2,0.3,0.5,0.6,0.8,0.8
	c0.3,0.2,0.7,0.3,1.2,0.3c0.3,0,0.6,0,0.8-0.1c0.3-0.1,0.5-0.3,0.6-0.4c0.2-0.2,0.3-0.4,0.4-0.6l1.9,0.3c-0.1,0.5-0.4,0.9-0.7,1.3
	c-0.3,0.3-0.8,0.6-1.3,0.8C241.4,229.8,240.9,229.9,240.2,229.9L240.2,229.9z M245.1,229.7v-1.3l4.5-5.6v-0.1h-4.3V221h6.8v1.4
	l-4.3,5.6h4.4v1.7L245.1,229.7z M257.5,229.9c-0.9,0-1.6-0.2-2.2-0.6c-0.7-0.3-1.2-0.8-1.5-1.5c-0.3-0.7-0.5-1.5-0.5-2.4
	c0-0.9,0.2-1.7,0.5-2.4c0.3-0.7,0.8-1.2,1.5-1.5c0.6-0.4,1.3-0.6,2.2-0.6c0.8,0,1.5,0.2,2.2,0.6c0.6,0.3,1.1,0.8,1.4,1.5
	c0.3,0.7,0.5,1.5,0.5,2.4s-0.2,1.7-0.5,2.4c-0.3,0.7-0.8,1.2-1.4,1.5C259,229.7,258.3,229.9,257.5,229.9z M257.5,228.2
	c0.5,0,0.9-0.1,1.2-0.3c0.3-0.3,0.5-0.6,0.7-1.1c0.1-0.4,0.2-0.9,0.2-1.4s-0.1-1-0.2-1.4c-0.2-0.5-0.4-0.8-0.7-1.1
	c-0.3-0.2-0.7-0.3-1.2-0.3c-0.5,0-0.9,0.1-1.2,0.3c-0.3,0.3-0.6,0.6-0.7,1c-0.1,0.5-0.2,1-0.2,1.5c0,0.5,0.1,1,0.2,1.4
	c0.1,0.5,0.4,0.8,0.7,1.1C256.6,228.1,257,228.2,257.5,228.2z M263.2,229.7V221h1.9v1.5h0.1c0.2-0.5,0.5-0.9,0.8-1.2
	c0.4-0.3,0.9-0.4,1.4-0.4c0.1,0,0.2,0,0.3,0s0.3,0,0.4,0.1v1.8c-0.1,0-0.2,0-0.4,0c-0.2-0.1-0.4-0.1-0.6-0.1c-0.3,0-0.7,0.1-1,0.3
	c-0.3,0.1-0.5,0.3-0.7,0.6c-0.1,0.3-0.2,0.6-0.2,1v5.1L263.2,229.7z M276.9,229.9c-0.7,0-1.3-0.2-1.9-0.6c-0.5-0.3-1-0.8-1.3-1.5
	c-0.3-0.7-0.4-1.5-0.4-2.4c0-0.9,0.1-1.7,0.4-2.4c0.3-0.7,0.8-1.2,1.3-1.5c0.6-0.4,1.3-0.6,2-0.6c0.5,0,1,0.1,1.3,0.3
	c0.3,0.1,0.6,0.3,0.7,0.6c0.2,0.2,0.4,0.4,0.5,0.6h0.1v-4.3h1.4v11.6h-1.4v-1.3h-0.1c-0.1,0.1-0.3,0.3-0.5,0.6
	c-0.1,0.2-0.4,0.4-0.8,0.6C277.9,229.8,277.5,229.9,276.9,229.9L276.9,229.9z M277.2,228.6c0.5,0,0.9-0.1,1.3-0.4
	c0.3-0.3,0.6-0.6,0.8-1.1c0.2-0.5,0.3-1.1,0.3-1.7c0-0.7-0.1-1.2-0.3-1.7c-0.1-0.5-0.4-0.8-0.8-1.1c-0.3-0.3-0.8-0.4-1.3-0.4
	c-0.6,0-1.1,0.1-1.4,0.4c-0.4,0.3-0.7,0.6-0.8,1.1c-0.2,0.5-0.3,1.1-0.3,1.7c0,0.6,0.1,1.1,0.3,1.6c0.1,0.5,0.4,0.9,0.8,1.2
	S276.7,228.6,277.2,228.6z M286.8,229.9c-0.8,0-1.5-0.2-2.1-0.6c-0.6-0.3-1.1-0.8-1.4-1.5c-0.3-0.7-0.5-1.5-0.5-2.4
	c0-0.9,0.2-1.6,0.5-2.3c0.3-0.7,0.7-1.2,1.3-1.6s1.3-0.6,2.1-0.6c0.5,0,0.9,0.1,1.4,0.3c0.5,0.1,0.9,0.4,1.2,0.7
	c0.3,0.3,0.6,0.8,0.9,1.4c0.2,0.5,0.3,1.2,0.3,2v0.5h-6.8v-1.1h6l-0.6,0.4c0-0.6-0.1-1.1-0.3-1.5c-0.2-0.5-0.5-0.8-0.8-1.1
	c-0.3-0.2-0.8-0.3-1.3-0.3s-1,0.1-1.4,0.3c-0.3,0.3-0.6,0.6-0.8,1c-0.2,0.5-0.3,0.9-0.3,1.4v0.7c0,0.7,0.1,1.2,0.3,1.7
	c0.3,0.4,0.6,0.7,0.9,1c0.4,0.3,0.9,0.4,1.5,0.4c0.3,0,0.6-0.1,0.9-0.2s0.5-0.3,0.7-0.5c0.2-0.2,0.4-0.4,0.5-0.7l1.3,0.3
	c-0.1,0.5-0.3,0.9-0.6,1.2c-0.3,0.3-0.7,0.6-1.2,0.8C288,229.8,287.4,229.9,286.8,229.9L286.8,229.9z M294.5,229.7l-3.4-8.7h1.6
	l1.8,5.2c0.2,0.5,0.4,1,0.5,1.5s0.3,1,0.4,1.5h-0.5c0.2-0.5,0.4-1,0.5-1.5c0.1-0.5,0.3-1,0.5-1.5l1.8-5.2h1.5l-3.3,8.7H294.5z
	 M300.7,229.7V221h1.4v8.7H300.7z M301.4,219.6c-0.3,0-0.5-0.1-0.7-0.3c-0.2-0.2-0.3-0.4-0.3-0.6c0-0.3,0.1-0.5,0.3-0.7
	s0.4-0.3,0.7-0.3c0.3,0,0.5,0.1,0.7,0.3c0.2,0.2,0.3,0.4,0.3,0.7c0,0.2-0.1,0.4-0.3,0.6C301.9,219.5,301.7,219.6,301.4,219.6z
	 M307.9,229.9c-0.8,0-1.5-0.2-2.1-0.6c-0.6-0.3-1.1-0.8-1.4-1.5c-0.3-0.7-0.5-1.5-0.5-2.4c0-0.9,0.2-1.7,0.5-2.4
	c0.3-0.7,0.8-1.2,1.4-1.5c0.6-0.4,1.3-0.6,2.1-0.6c0.4,0,0.8,0.1,1.2,0.2c0.3,0.1,0.7,0.2,1,0.5c0.3,0.2,0.6,0.4,0.8,0.7
	c0.2,0.3,0.4,0.7,0.5,1.1l-1.4,0.3c-0.1-0.2-0.1-0.4-0.2-0.6c-0.1-0.2-0.3-0.4-0.5-0.5c-0.2-0.1-0.4-0.2-0.6-0.3
	c-0.3-0.1-0.5-0.1-0.8-0.1c-0.6,0-1.1,0.1-1.5,0.4c-0.3,0.3-0.6,0.7-0.8,1.2s-0.3,1-0.3,1.6c0,0.6,0.1,1.1,0.3,1.6
	c0.2,0.5,0.5,0.9,0.8,1.2c0.4,0.3,0.9,0.4,1.5,0.4c0.3,0,0.5,0,0.8-0.1c0.2-0.1,0.4-0.2,0.6-0.3c0.2-0.1,0.4-0.3,0.5-0.5
	c0.1-0.2,0.2-0.4,0.3-0.7l1.3,0.4c-0.1,0.4-0.2,0.7-0.5,1c-0.2,0.3-0.5,0.6-0.8,0.8c-0.3,0.2-0.6,0.4-1,0.5
	C308.7,229.8,308.3,229.9,307.9,229.9L307.9,229.9z M316.8,229.9c-0.8,0-1.5-0.2-2.2-0.6c-0.6-0.3-1.1-0.8-1.4-1.5
	c-0.3-0.7-0.4-1.5-0.4-2.4c0-0.9,0.1-1.6,0.4-2.3c0.3-0.7,0.8-1.2,1.4-1.6c0.6-0.4,1.3-0.6,2.1-0.6c0.5,0,0.9,0.1,1.4,0.3
	c0.4,0.1,0.8,0.4,1.2,0.7c0.3,0.3,0.6,0.8,0.8,1.4c0.3,0.5,0.4,1.2,0.4,2v0.5h-6.8v-1.1h6l-0.6,0.4c0-0.6-0.1-1.1-0.3-1.5
	c-0.2-0.5-0.5-0.8-0.8-1.1c-0.3-0.2-0.8-0.3-1.3-0.3s-1,0.1-1.4,0.3c-0.3,0.3-0.6,0.6-0.8,1c-0.2,0.5-0.3,0.9-0.3,1.4v0.7
	c0,0.7,0.1,1.2,0.3,1.7c0.2,0.4,0.5,0.7,0.9,1c0.4,0.3,0.9,0.4,1.4,0.4c0.4,0,0.7-0.1,1-0.2s0.5-0.3,0.7-0.5
	c0.2-0.2,0.4-0.4,0.5-0.7l1.3,0.3c-0.1,0.5-0.4,0.9-0.7,1.2c-0.3,0.3-0.7,0.6-1.2,0.8C317.9,229.8,317.4,229.9,316.8,229.9
	L316.8,229.9z"/>
<g>
	<g>
		<path class="st3" d="M32.3,24.2c0-0.2,0.1-0.3,0.3-0.3h0.8c0.1,0,0.2,0,0.2,0.1c0.1,0,0.1,0.1,0.1,0.2v0.7c0,0.1,0,0.1-0.1,0.2
			c0,0.1-0.1,0.1-0.2,0.1h-0.8c-0.2,0-0.3-0.1-0.3-0.3V24.2z M32.3,26.2c0-0.1,0-0.1,0.1-0.2c0-0.1,0.1-0.1,0.2-0.1h0.8
			c0,0,0.1,0,0.1,0c0,0,0.1,0,0.1,0.1c0,0,0.1,0.1,0.1,0.1c0,0,0,0.1,0,0.1v5.2c0,0.2-0.1,0.3-0.3,0.3h-0.8c-0.2,0-0.3-0.1-0.3-0.3
			V26.2z"/>
		<path class="st3" d="M35.3,25.2c0-0.1,0.1-0.2,0.2-0.2h2.9c0.3,0,0.5,0,0.8,0.1c0.2,0.1,0.4,0.2,0.6,0.4c0.2,0.2,0.3,0.4,0.4,0.6
			c0.1,0.2,0.1,0.5,0.1,0.7c0,0.2,0,0.5-0.1,0.7c-0.1,0.2-0.2,0.4-0.4,0.6c0.1,0.1,0.2,0.2,0.3,0.3c0.1,0.1,0.2,0.2,0.3,0.4
			c0.1,0.1,0.1,0.3,0.2,0.4c0,0.2,0.1,0.3,0.1,0.5c0,0.3-0.1,0.5-0.2,0.8c-0.1,0.2-0.2,0.5-0.4,0.6c-0.2,0.2-0.4,0.3-0.6,0.4
			c-0.2,0.1-0.5,0.2-0.8,0.2h-3.2c-0.1,0-0.1,0-0.1,0c0,0-0.1-0.1-0.1-0.1V25.2z M39,26.9c0-0.1,0-0.2-0.1-0.3
			c0-0.1-0.1-0.2-0.2-0.3s-0.2-0.1-0.3-0.2c-0.1,0-0.2-0.1-0.3-0.1h-1.5v1.6h1.5c0.1,0,0.2,0,0.3-0.1c0.1,0,0.2-0.1,0.3-0.2
			c0.1-0.1,0.1-0.2,0.2-0.3C38.9,27.1,39,27,39,26.9z M39.3,29.7c0-0.1,0-0.2-0.1-0.3c0-0.1-0.1-0.2-0.2-0.3
			C39,29,38.9,29,38.8,28.9c-0.1-0.1-0.2-0.1-0.3-0.1c-0.1,0-0.1,0-0.2,0c-0.1,0-0.1,0-0.2,0h-1.5v1.8h1.5c0.1,0,0.1,0,0.2,0
			c0.1,0,0.1,0,0.2,0c0.1,0,0.2-0.1,0.3-0.1c0.1-0.1,0.2-0.1,0.2-0.2c0.1-0.1,0.1-0.2,0.2-0.3C39.2,29.9,39.3,29.8,39.3,29.7z"/>
		<path class="st3" d="M41.5,26.2c0-0.1,0-0.2,0.1-0.2c0.1,0,0.1-0.1,0.2-0.1h0.6c0.1,0,0.1,0,0.2,0.1c0,0,0.1,0.1,0.1,0.2
			c0,0.1,0,0.1,0,0.2c0,0.1,0,0.1,0,0.2c0.1-0.1,0.1-0.2,0.2-0.3c0.1-0.1,0.2-0.2,0.3-0.2c0.1-0.1,0.2-0.1,0.4-0.2
			c0.1,0,0.3-0.1,0.5-0.1c0.2,0,0.3,0,0.4,0c0.1,0,0.2,0.1,0.4,0.1c0.1,0,0.2,0.1,0.3,0.2c0.1,0.1,0.2,0.1,0.3,0.2
			c0.1,0,0.1,0.1,0.1,0.1c0,0,0.1,0.1,0.1,0.2c0,0,0,0.1,0,0.1c0,0,0,0.1,0,0.1l-0.4,0.6c0,0-0.1,0.1-0.1,0.1c0,0-0.1,0-0.1,0
			c0,0-0.1,0-0.1,0c-0.1-0.1-0.2-0.1-0.3-0.2c-0.1,0-0.2-0.1-0.2-0.1c-0.1,0-0.2-0.1-0.2-0.1c-0.1,0-0.2,0-0.3,0
			c-0.3,0-0.5,0.1-0.7,0.3s-0.3,0.4-0.4,0.7v3.4c0,0.2-0.1,0.3-0.3,0.3h-0.8c-0.2,0-0.3-0.1-0.3-0.3V26.2z"/>
		<path class="st3" d="M46.4,28.8c0-0.3,0-0.5,0.1-0.8c0.1-0.3,0.2-0.5,0.3-0.7c0.1-0.2,0.3-0.4,0.5-0.6c0.2-0.2,0.4-0.3,0.6-0.5
			c0.2-0.1,0.5-0.2,0.7-0.3c0.3-0.1,0.5-0.1,0.8-0.1c0.3,0,0.5,0,0.8,0.1c0.3,0.1,0.5,0.2,0.7,0.3c0.2,0.1,0.4,0.3,0.6,0.5
			c0.2,0.2,0.3,0.4,0.5,0.6c0.1,0.2,0.2,0.5,0.3,0.7c0.1,0.3,0.1,0.5,0.1,0.8c0,0.3,0,0.5-0.1,0.8c-0.1,0.3-0.2,0.5-0.3,0.7
			c-0.1,0.2-0.3,0.4-0.5,0.6c-0.2,0.2-0.4,0.3-0.6,0.5c-0.2,0.1-0.5,0.2-0.7,0.3c-0.3,0.1-0.5,0.1-0.8,0.1c-0.3,0-0.5,0-0.8-0.1
			c-0.3-0.1-0.5-0.2-0.7-0.3c-0.2-0.1-0.4-0.3-0.6-0.5c-0.2-0.2-0.3-0.4-0.5-0.6c-0.1-0.2-0.2-0.5-0.3-0.7
			C46.4,29.4,46.4,29.1,46.4,28.8z M47.7,28.8c0,0.2,0,0.5,0.1,0.7c0.1,0.2,0.2,0.4,0.4,0.6c0.2,0.2,0.3,0.3,0.5,0.4
			c0.2,0.1,0.4,0.1,0.7,0.1c0.2,0,0.5,0,0.7-0.1c0.2-0.1,0.4-0.2,0.5-0.4c0.2-0.2,0.3-0.3,0.4-0.6c0.1-0.2,0.1-0.4,0.1-0.7
			c0-0.2,0-0.5-0.1-0.7c-0.1-0.2-0.2-0.4-0.4-0.6c-0.2-0.2-0.3-0.3-0.5-0.4c-0.2-0.1-0.4-0.1-0.7-0.1c-0.2,0-0.5,0-0.7,0.1
			c-0.2,0.1-0.4,0.2-0.5,0.4c-0.2,0.2-0.3,0.4-0.4,0.6C47.7,28.4,47.7,28.6,47.7,28.8z"/>
		<path class="st3" d="M53,26.3C53,26.3,53,26.3,53,26.3c0-0.1,0-0.1,0-0.1c0,0,0,0,0-0.1c0-0.1,0-0.1,0.1-0.1c0,0,0.1-0.1,0.2-0.1
			h0.8c0.1,0,0.2,0.1,0.3,0.2c0.1,0.2,0.1,0.3,0.2,0.6c0.1,0.2,0.2,0.4,0.2,0.7c0.1,0.2,0.2,0.5,0.3,0.7c0.1,0.2,0.2,0.5,0.3,0.7
			c0.1,0.2,0.2,0.4,0.2,0.6c0.1,0.2,0.1,0.3,0.2,0.4c0.1-0.4,0.3-0.9,0.5-1.5c0.2-0.6,0.5-1.3,0.8-2.2c0-0.1,0.1-0.1,0.1-0.2
			c0,0,0.1,0,0.2,0h0.8c0.1,0,0.2,0,0.2,0c0,0,0.1,0.1,0.1,0.1c0,0,0,0.1,0,0.1c0,0,0,0.1,0,0.1l-0.5,1.2c0.1,0.2,0.1,0.3,0.2,0.5
			c0.1,0.2,0.2,0.4,0.3,0.6c0.1,0.2,0.2,0.4,0.3,0.6c0.1,0.2,0.2,0.4,0.3,0.6c0.1-0.1,0.1-0.3,0.2-0.5c0.1-0.2,0.2-0.4,0.2-0.6
			c0.1-0.2,0.2-0.4,0.3-0.7c0.1-0.2,0.2-0.5,0.3-0.7c0.1-0.2,0.2-0.4,0.2-0.6c0.1-0.2,0.1-0.4,0.2-0.5c0-0.1,0.1-0.1,0.1-0.2
			c0,0,0.1,0,0.2,0h0.8c0.1,0,0.2,0,0.2,0c0,0,0.1,0.1,0.1,0.1c0,0,0,0.1,0,0.1c0,0,0,0.1,0,0.1l-2.2,5.3c0,0,0,0,0,0.1
			c0,0,0,0-0.1,0.1c0,0-0.1,0-0.1,0c0,0-0.1,0-0.1,0h-0.4c-0.1,0-0.2,0-0.2-0.1c0,0-0.1-0.1-0.1-0.1c-0.2-0.4-0.4-0.9-0.5-1.3
			c-0.2-0.4-0.4-0.9-0.5-1.3l-1.1,2.6c0,0-0.1,0.1-0.1,0.1c0,0-0.1,0.1-0.2,0.1h-0.4c-0.1,0-0.2,0-0.2-0.1c0,0-0.1-0.1-0.1-0.1
			L53,26.3z"/>
		<path class="st3" d="M67.1,31.1c-0.3,0.2-0.6,0.4-0.9,0.5c-0.3,0.1-0.7,0.2-1.1,0.2c-0.4,0-0.8-0.1-1.2-0.2
			c-0.4-0.2-0.7-0.4-1-0.6c-0.3-0.3-0.5-0.6-0.7-0.9c-0.2-0.4-0.2-0.8-0.2-1.2c0-0.3,0-0.5,0.1-0.8c0.1-0.3,0.2-0.5,0.3-0.7
			c0.1-0.2,0.3-0.4,0.5-0.6c0.2-0.2,0.4-0.3,0.6-0.5c0.2-0.1,0.5-0.2,0.7-0.3c0.3-0.1,0.5-0.1,0.8-0.1c0.2,0,0.5,0,0.7,0.1
			c0.2,0.1,0.4,0.1,0.6,0.2c0.2,0.1,0.4,0.2,0.6,0.4c0.2,0.1,0.3,0.3,0.5,0.5c0.2,0.3,0.3,0.5,0.4,0.8c0.1,0.3,0.1,0.6,0.1,1
			c0,0.1,0,0.2,0,0.2c0,0.1,0,0.1-0.1,0.1c0,0-0.1,0.1-0.1,0.1c-0.1,0-0.1,0-0.3,0h-4.1c0,0.2,0.1,0.4,0.2,0.6
			c0.1,0.2,0.2,0.3,0.4,0.4c0.2,0.1,0.3,0.2,0.5,0.3c0.2,0.1,0.4,0.1,0.5,0.1c0.1,0,0.3,0,0.4,0c0.1,0,0.2-0.1,0.4-0.1
			c0.1,0,0.2-0.1,0.3-0.2c0.1-0.1,0.2-0.1,0.2-0.2c0,0,0,0,0,0c0,0,0.1-0.1,0.1-0.1c0,0,0.1,0,0.1,0c0,0,0.1,0,0.1,0
			c0,0,0.1,0,0.1,0.1c0.1,0.1,0.2,0.2,0.2,0.3c0.1,0.1,0.1,0.1,0.1,0.2c0,0,0.1,0.1,0.1,0.1c0,0,0,0.1,0,0.1
			C67.3,30.9,67.2,31,67.1,31.1z M65.1,27c-0.2,0-0.4,0-0.5,0.1c-0.2,0.1-0.3,0.2-0.5,0.3c-0.1,0.1-0.3,0.2-0.4,0.4
			c-0.1,0.2-0.2,0.3-0.2,0.5h3.3c0-0.2-0.1-0.4-0.2-0.5c-0.1-0.2-0.2-0.3-0.4-0.4c-0.1-0.1-0.3-0.2-0.5-0.3C65.5,27,65.3,27,65.1,27
			z"/>
	</g>
	<linearGradient id="SVGID_6_" gradientUnits="userSpaceOnUse" x1="12.3303" y1="21.8593" x2="29.9264" y2="33.7288">
		<stop  offset="9.772402e-02" style="stop-color:#FF5124"/>
		<stop  offset="0.5631" style="stop-color:#EA492F"/>
		<stop  offset="1" style="stop-color:#DB3805"/>
	</linearGradient>
	<circle class="st14" cx="20.7" cy="27.5" r="9.1"/>
	<g>
		<path class="st15" d="M19.7,19.4c-0.2,0.2-0.3,0.4-0.5,0.8c-0.4,0.7-0.5,1.4-0.4,2.1c0.1,0.4,0.2,0.8,0.3,0.9c0,0,0.1,0.1,0.1,0.1
			s0,0.1,0.1,0.1c0.1,0.1,0.1,0.1,0,0c-0.2-0.1-0.5-0.3-0.7-0.6c-0.2-0.2-0.3-0.6-0.4-1.1c0-0.1,0-0.1-0.1-0.1
			c-0.1,0-0.7,0.3-0.7,0.4c0,0,0,0-0.1,0s-0.1,0-0.1,0.1c-0.1,0-0.2,0.2-0.4,0.3c-0.3,0.2-0.9,0.8-1.1,1.1c-0.1,0.1-0.1,0.2-0.1,0.2
			c0,0-0.1,0.2-0.3,0.5c-0.1,0.2-0.3,0.5-0.3,0.5c0,0,0.1-0.1,0.3-0.2c0.6-0.5,1-0.7,1.6-0.9c0.5-0.2,0.5-0.1,0.2,0.1
			c-0.3,0.2-1,0.9-1.3,1.2c-0.6,0.9-1,1.6-1.1,2.3c-0.1,0.5-0.1,1.5,0,1.5c0,0,0,0,0-0.1c0-0.3,0.5-1.3,0.8-1.7
			c0.4-0.5,1-1.1,1.2-1.1c0,0,0,0,0,0.1c-0.1,0.1-0.3,0.5-0.5,0.8c-0.4,0.7-0.6,1.6-0.6,2.3c0,0.6,0.2,1.4,0.5,1.9
			c0.1,0.1,0.1,0.2,0.1,0.2c0,0,0.5,0.6,0.7,0.8c0.2,0.1,0.5,0.3,0.7,0.4c0.2,0.1,0.6,0.2,0.6,0.2c0,0-0.1-0.2-0.3-0.3
			c-0.5-0.5-0.9-1.2-1.1-1.8c-0.1-0.4-0.1-1.5,0.1-1.8c0-0.1,0.1,0,0.1,0.1c0,0.5,0.2,1.1,0.6,1.6c0.1,0.2,0.3,0.3,0.3,0.3
			c0,0,0.1,0.2,0.3,0.3c0.1,0.2,0.3,0.3,0.3,0.3c0.2,0.1,0.8,1,0.8,1.1c0,0,0,0,0,0.1c0.1,0,0.4,0.7,0.5,1c0.1,0.2,0.1,0.4,0.1,0.7
			c0,0.2,0,0.4,0,0.4c0.1,0,0.4-0.5,0.5-0.8c0.1-0.4,0.2-1,0.1-1.4c-0.1-0.4-0.3-0.8-0.5-1.1c-0.1-0.1-0.2-0.2-0.1-0.2
			c0.1,0,0.9,0.7,1.1,1c0,0.1,0.1,0.2,0.2,0.3c0.2,0.4,0.3,0.7,0.3,1.2c0,0.6-0.1,1.1-0.5,1.6c0,0.1-0.1,0.2-0.1,0.2
			c-0.1,0.1,0,0.1,0.3-0.1c0.7-0.4,1.4-1.1,1.8-1.8c0.1-0.2,0.2-0.7,0.2-1c0-0.3-0.2-1-0.3-1.2c0,0-0.1,0-0.1,0.1
			c-0.1,0.4-0.3,1.1-0.3,1c-0.1-0.5-0.2-0.9-0.5-1.2c-0.3-0.4-0.6-0.7-1.7-1.4c-0.7-0.4-0.9-0.6-1.4-1c-0.2-0.2-0.5-0.5-0.5-0.5
			c0,0,0-0.1-0.1-0.1c-0.1-0.1-0.3-0.5-0.4-0.7c-0.1-0.2-0.1-0.3-0.1-0.8c0-0.5,0-0.6,0.1-0.9c0.1-0.2,0.2-0.4,0.3-0.6
			c0.1-0.2,0.5-0.7,0.8-0.8c0.1-0.1,0.6-0.3,0.8-0.4c0.1,0,0.1,0-0.1,0.2c-0.5,0.5-0.9,1.1-1,1.6c-0.1,0.4-0.1,1.3,0,1.3
			c0,0,0,0,0,0c0-0.1,0.2-0.5,0.4-0.7c0.1-0.1,0.3-0.3,0.4-0.4c0.1-0.1,0.2-0.2,0.2-0.2c0,0,0.6-0.3,0.7-0.3c0.1,0,0.1,0-0.1,0.3
			c-0.3,0.5-0.6,1.2-0.5,1.8c0,0.3,0.2,0.9,0.3,1c0,0,0.1,0.1,0.1,0.2c0.2,0.2,0.4,0.5,0.7,0.7c0.3,0.2,0.4,0.2,0.2,0
			c-0.2-0.3-0.4-1.1-0.3-1.5c0.1-0.3,0.2-0.7,0.3-0.7c0,0,0,0.1,0,0.2c0,0.6,0.2,1,0.8,1.7c0.3,0.3,0.6,0.6,0.7,0.7
			c0.8,0.7,1.1,1.3,1.2,2.1c0.1,0.5,0,0.9-0.1,1.2c0,0.1-0.1,0.2,0,0.2c0.1,0,0.4-0.4,0.5-0.7c0.2-0.3,0.3-1,0.3-1.3
			c0-0.4-0.2-0.9-0.4-1.3c-0.2-0.3-0.4-0.5-0.8-0.8c-0.5-0.4-0.7-0.6-0.5-0.8c0.1-0.1,0.1-0.1,0.5-0.1c0.4,0,0.5,0,0.9,0.2
			c0.8,0.3,0.9,0.3,1.3,0.3c0.3,0,0.5,0,0.6-0.1c0.2-0.1,0.5-0.3,0.5-0.4c0,0-0.2-0.1-0.4-0.1c-0.2,0-0.5-0.1-0.8-0.2
			c-0.7-0.3-1.5-0.5-1.7-0.6c-0.1,0-0.2-0.1-0.2-0.1c0,0,0.1-0.1,0.2-0.1c0.2-0.1,0.6,0,1,0.1c0.1,0,0.4,0.1,0.6,0.2
			c1,0.3,1.5,0.4,1.9,0.2c0.2-0.1,0.4-0.3,0.4-0.4c0,0-0.1-0.1-0.1-0.2c-0.2-0.2-0.3-0.4-0.3-0.7c0-0.1,0.3-0.1,0.6-0.1l0.3,0
			l-0.1-0.1c-0.1,0-0.2-0.1-0.3-0.2c-0.1-0.1-0.3-0.2-0.4-0.3c-0.3-0.2-0.7-0.5-0.7-0.5c0,0-0.2-0.1-0.3-0.2s-0.3-0.2-0.3-0.2
			s-0.2-0.1-0.3-0.2c-0.2-0.1-0.3-0.2-0.3-0.2c0,0-0.1-0.2-0.1-0.3c-0.1-0.4-0.2-0.6-0.6-1c-0.5-0.5-1.3-1-2.1-1.4
			c-0.3-0.1-0.5-0.3-0.6-0.3c0,0-0.1,0-0.1,0c0,0-0.1-0.1-0.2-0.4c-0.2-0.4-0.4-0.7-0.4-0.7c0,0,0,0,0-0.1c0,0-0.1-0.2-0.4-0.6
			c-0.2-0.2-0.6-0.6-0.6-0.6C19.9,19.3,19.8,19.4,19.7,19.4 M19.9,20.3c-0.1,0.2-0.3,0.6-0.4,0.8c0,0.1,0,0.4,0,0.6
			c0,0.4,0,0.4,0.1,0.7c0.2,0.4,0.7,0.8,0.6,0.5c-0.1-0.3-0.1-0.5-0.1-0.8c0-0.3,0-0.3,0.1-0.3c0.1,0,0.5,0.2,0.6,0.3
			c0.1,0.1,0.1,0,0.1-0.3c-0.1-0.3-0.3-0.9-0.5-1.2c-0.1-0.2-0.4-0.5-0.5-0.5C20,20.2,19.9,20.3,19.9,20.3 M22.1,20.5
			c-0.1,0.3-0.2,0.6-0.2,0.7c0,0,0.1,0.1,0.1,0.1c0.3,0.1,0.7,0.3,0.9,0.4c0.1,0.1,0.3,0.2,0.3,0.2c0.1,0.1-0.5-1.2-0.7-1.3
			c0,0-0.1-0.1-0.1-0.1c0,0-0.2-0.3-0.3-0.3C22.2,20.2,22.2,20.4,22.1,20.5 M22.2,24l-0.3,0l0.2,0.1c0.6,0.2,0.7,0.3,0.8,0.5
			c0.2,0.3,0.4,0.4,0.8,0.5c0.3,0,0.4,0.1,0.6,0.1c0.2,0.1,0.3,0.1,0.3,0c0-0.2-0.8-1.1-0.9-1.1c0,0-0.1,0-0.1,0
			C23.6,24,22.8,23.9,22.2,24"/>
		<path class="st16" d="M19.6,19.4c-0.2,0.2-0.3,0.4-0.5,0.8c-0.4,0.7-0.5,1.4-0.4,2.1c0.1,0.4,0.2,0.8,0.3,0.9c0,0,0.1,0.1,0.1,0.1
			s0,0.1,0.1,0.1c0.1,0.1,0.1,0.1,0,0c-0.2-0.1-0.5-0.3-0.7-0.6c-0.2-0.2-0.3-0.6-0.4-1.1c0-0.1,0-0.1-0.1-0.1
			c-0.1,0-0.7,0.3-0.7,0.4c0,0,0,0-0.1,0s-0.1,0-0.1,0.1c-0.1,0-0.2,0.2-0.4,0.3c-0.3,0.2-0.9,0.8-1.1,1.1c-0.1,0.1-0.1,0.2-0.1,0.2
			c0,0-0.1,0.2-0.3,0.5c-0.1,0.2-0.3,0.5-0.3,0.5c0,0,0.1-0.1,0.3-0.2c0.6-0.5,1-0.7,1.6-0.9c0.5-0.2,0.5-0.1,0.2,0.1
			c-0.3,0.2-1,0.9-1.3,1.2c-0.6,0.9-1,1.6-1.1,2.3c-0.1,0.5-0.1,1.5,0,1.5c0,0,0,0,0-0.1c0-0.3,0.5-1.3,0.8-1.7
			c0.4-0.5,1-1.1,1.2-1.1c0,0,0,0,0,0.1c-0.1,0.1-0.3,0.5-0.5,0.8c-0.4,0.7-0.6,1.6-0.6,2.3c0,0.6,0.2,1.4,0.5,1.9
			c0.1,0.1,0.1,0.2,0.1,0.2c0,0,0.5,0.6,0.7,0.8c0.2,0.1,0.5,0.3,0.7,0.4c0.2,0.1,0.6,0.2,0.6,0.2c0,0-0.1-0.2-0.3-0.3
			c-0.5-0.5-0.9-1.2-1.1-1.8c-0.1-0.4-0.1-1.5,0.1-1.8c0-0.1,0.1,0,0.1,0.1c0,0.5,0.2,1.1,0.6,1.6c0.1,0.2,0.3,0.3,0.3,0.3
			c0,0,0.1,0.2,0.3,0.3c0.1,0.2,0.3,0.3,0.3,0.3c0.2,0.1,0.8,1,0.8,1.1c0,0,0,0,0,0.1c0.1,0,0.4,0.7,0.5,1c0.1,0.2,0.1,0.4,0.1,0.7
			c0,0.2,0,0.4,0,0.4c0.1,0,0.4-0.5,0.5-0.8c0.1-0.4,0.2-1,0.1-1.4c-0.1-0.4-0.3-0.8-0.5-1.1c-0.1-0.1-0.2-0.2-0.1-0.2
			c0.1,0,0.9,0.7,1.1,1c0,0.1,0.1,0.2,0.2,0.3c0.2,0.4,0.3,0.7,0.3,1.2c0,0.6-0.1,1.1-0.5,1.6c0,0.1-0.1,0.2-0.1,0.2
			c-0.1,0.1,0,0.1,0.3-0.1c0.7-0.4,1.4-1.1,1.8-1.8c0.1-0.2,0.2-0.7,0.2-1c0-0.3-0.2-1-0.3-1.2c0,0-0.1,0-0.1,0.1
			c-0.1,0.4-0.3,1.1-0.3,1c-0.1-0.5-0.2-0.9-0.5-1.2c-0.3-0.4-0.6-0.7-1.7-1.4c-0.7-0.4-0.9-0.6-1.4-1c-0.2-0.2-0.5-0.5-0.5-0.5
			c0,0,0-0.1-0.1-0.1c-0.1-0.1-0.3-0.5-0.4-0.7c-0.1-0.2-0.1-0.3-0.1-0.8c0-0.5,0-0.6,0.1-0.9c0.1-0.2,0.2-0.4,0.3-0.6
			c0.1-0.2,0.5-0.7,0.8-0.8c0.1-0.1,0.6-0.3,0.8-0.4c0.1,0,0.1,0-0.1,0.2c-0.5,0.5-0.9,1.1-1,1.6c-0.1,0.4-0.1,1.3,0,1.3
			c0,0,0,0,0,0c0-0.1,0.2-0.5,0.4-0.7c0.1-0.1,0.3-0.3,0.4-0.4c0.1-0.1,0.2-0.2,0.2-0.2c0,0,0.6-0.3,0.7-0.3c0.1,0,0.1,0-0.1,0.3
			c-0.3,0.5-0.6,1.2-0.5,1.8c0,0.3,0.2,0.9,0.3,1c0,0,0.1,0.1,0.1,0.2c0.2,0.2,0.4,0.5,0.7,0.7c0.3,0.2,0.4,0.2,0.2,0
			c-0.2-0.3-0.4-1.1-0.3-1.5c0.1-0.3,0.2-0.7,0.3-0.7c0,0,0,0.1,0,0.2c0,0.6,0.2,1,0.8,1.7c0.3,0.3,0.6,0.6,0.7,0.7
			c0.8,0.7,1.1,1.3,1.2,2.1c0.1,0.5,0,0.9-0.1,1.2c0,0.1-0.1,0.2,0,0.2c0.1,0,0.4-0.4,0.5-0.7c0.2-0.3,0.3-1,0.3-1.3
			c0-0.4-0.2-0.9-0.4-1.3c-0.2-0.3-0.4-0.5-0.8-0.8c-0.5-0.4-0.7-0.6-0.5-0.8c0.1-0.1,0.1-0.1,0.5-0.1c0.4,0,0.5,0,0.9,0.2
			c0.8,0.3,0.9,0.3,1.3,0.3c0.3,0,0.5,0,0.6-0.1c0.2-0.1,0.5-0.3,0.5-0.4c0,0-0.2-0.1-0.4-0.1c-0.2,0-0.5-0.1-0.8-0.2
			c-0.7-0.3-1.5-0.5-1.7-0.6c-0.1,0-0.2-0.1-0.2-0.1c0,0,0.1-0.1,0.2-0.1c0.2-0.1,0.6,0,1,0.1c0.1,0,0.4,0.1,0.6,0.2
			c1,0.3,1.5,0.4,1.9,0.2c0.2-0.1,0.4-0.3,0.4-0.4c0,0-0.1-0.1-0.1-0.2c-0.2-0.2-0.3-0.4-0.3-0.7c0-0.1,0.3-0.1,0.6-0.1l0.3,0
			l-0.1-0.1c-0.1,0-0.2-0.1-0.3-0.2c-0.1-0.1-0.3-0.2-0.4-0.3c-0.3-0.2-0.7-0.5-0.7-0.5c0,0-0.2-0.1-0.3-0.2
			c-0.1-0.1-0.3-0.2-0.3-0.2c0,0-0.2-0.1-0.3-0.2c-0.2-0.1-0.3-0.2-0.3-0.2c0,0-0.1-0.2-0.1-0.3c-0.1-0.4-0.2-0.6-0.6-1
			c-0.5-0.5-1.3-1-2.1-1.4c-0.3-0.1-0.5-0.3-0.6-0.3c0,0-0.1,0-0.1,0c0,0-0.1-0.1-0.2-0.4c-0.2-0.4-0.4-0.7-0.4-0.7c0,0,0,0,0-0.1
			c0,0-0.1-0.2-0.4-0.6c-0.2-0.2-0.6-0.6-0.6-0.6C19.8,19.2,19.7,19.3,19.6,19.4 M19.8,20.2c-0.1,0.2-0.3,0.6-0.4,0.8
			c0,0.1,0,0.4,0,0.6c0,0.4,0,0.4,0.1,0.7c0.2,0.4,0.7,0.8,0.6,0.5C20,22.6,20,22.4,20,22.1c0-0.3,0-0.3,0.1-0.3
			c0.1,0,0.5,0.2,0.6,0.3c0.1,0.1,0.1,0,0.1-0.3c-0.1-0.3-0.3-0.9-0.5-1.2c-0.1-0.2-0.4-0.5-0.5-0.5C19.9,20.1,19.8,20.2,19.8,20.2
			 M22,20.4c-0.1,0.3-0.2,0.6-0.2,0.7c0,0,0.1,0.1,0.1,0.1c0.3,0.1,0.7,0.3,0.9,0.4c0.1,0.1,0.3,0.2,0.3,0.2
			c0.1,0.1-0.5-1.2-0.7-1.3c0,0-0.1-0.1-0.1-0.1c0,0-0.2-0.3-0.3-0.3C22.2,20.2,22.1,20.3,22,20.4 M22.1,23.9l-0.3,0L22,24
			c0.6,0.2,0.7,0.3,0.8,0.5c0.2,0.3,0.4,0.4,0.8,0.5c0.3,0,0.4,0.1,0.6,0.1c0.2,0.1,0.3,0.1,0.3,0c0-0.2-0.8-1.1-0.9-1.1
			c0,0-0.1,0-0.1,0C23.5,23.9,22.8,23.9,22.1,23.9"/>
	</g>
</g>
</svg>
