<svg version="1.2" xmlns="http://www.w3.org/2000/svg" viewBox="0 0 24 24" width="24" height="24">
	<title>brave</title>
	<style>
		.s0 { fill: #17262b } 
		.s1 { fill: #edf2f4 } 
		.s2 { fill: #8d99ae } 
		.s3 { fill: #becad6 } 
		.s4 { fill: #b0b0b0 } 
		.s5 { fill: #727b83 } 
		.s6 { fill: #a1acb8 } 
		.s7 { fill: #acacac } 
	</style>
	<g id="Layer 1">
	</g>
	<g id="Layer 1">
		<path class="s0" d="m18.2 0.6q0.2 0 0.3 0c0.3 0.1 0.5 0.4 0.6 0.6 0.3 0.4 0.5 0.9 0.6 1.4 0.5 1.6 0.5 3.2 0.2 4.8 0.3 0.9 0.6 2.3 1.5 2.9q0.2 0.1 0.4 0.2c0.1 0 0.2 0 0.3 0.1 0.2 0 0.2 0.1 0.2 0.2-0.2 0.6-0.6 1-1.1 1.3 0.2 0.3 0.6 0.6 0.6 1 0 0.4-0.1 0.7-0.2 1.1q0 0.1-0.1 0.3 0 0.1-0.1 0.3 0 0.1-0.1 0.3 0 0.1-0.1 0.3 0 0.1-0.1 0.3-0.1 0.1-0.1 0.3-0.1 0.1-0.2 0.2 0 0.2-0.1 0.3-0.1 0.2-0.2 0.3-0.1 0.2-0.1 0.3-0.1 0.1-0.2 0.3-0.1 0.1-0.2 0.2-0.1 0.2-0.2 0.3-0.1 0.1-0.2 0.3-0.1 0.1-0.2 0.2-0.1 0.1-0.2 0.2-0.5 0.7-1.1 1.2c-1.4 1.2-2.7 2.1-4.4 2.8-0.3 0.2-0.8 0.5-1.3 0.5-0.3 0.1-0.7-0.2-1-0.3q-0.5-0.2-1-0.5-2-1-3.6-2.4c-1.6-1.5-2.9-3.3-3.5-5.4-0.1-0.5-0.2-1-0.3-1.5 0.1-0.3 0.4-0.6 0.6-0.9-0.6-0.4-0.9-0.8-1.2-1.5 0.3 0 0.7-0.1 1-0.3 0.8-0.4 1.3-1.8 1.5-2.7q-0.1-0.7-0.2-1.4c-0.1-1.4 0.1-2.8 0.6-4.1 0.1-0.4 0.3-0.8 0.6-1.1 0.1-0.2 0.3-0.3 0.6-0.4 0.8 0 2.3 1.5 2.9 2.1q0.3 0.4 0.7 0.8c1.3-0.4 3.3-0.3 4.7 0 0.7-0.8 1.5-1.6 2.4-2.3 0.2-0.2 0.5-0.4 0.7-0.5q0.2-0.1 0.3-0.1z"/>
		<path class="s1" d="m3.2 11c0.8-0.2 1.3-0.8 1.6-1.5 0.1-0.1 0.1-0.3 0.2-0.5q0 0 0 0 0 0.4-0.1 0.8c-0.4 0.6-0.5 1.1-1.3 1.3 0.2 0.2 0.4 0.4 0.7 0.5 0.1 0 0.2 0 0.3 0.1-0.2 0-0.5 0-0.7 0-0.3-0.2-0.5-0.4-0.7-0.7z"/>
		<path class="s2" d="m4.9 9.8q0 0.3 0 0.6-0.1 0.6 0.1 1.2-0.2 0.1-0.4 0.1c-0.1-0.1-0.2-0.1-0.3-0.1-0.3-0.1-0.5-0.3-0.7-0.5 0.8-0.2 0.9-0.7 1.3-1.3z"/>
		<path class="s3" d="m18.2 1.8c0 0.3-0.2 0.5-0.2 0.8-0.2 0.5-0.2 1-0.2 1.6q0-0.2 0-0.3c-0.4 0.2-0.7 0.4-1 0.6 0.1-0.7 0.4-1.2 0.7-1.9 0.2-0.3 0.4-0.6 0.7-0.8z"/>
		<path class="s3" d="m7.1 4q0-0.3-0.1-0.5-0.1-0.6-0.3-1.1c0-0.1-0.2-0.4-0.2-0.5h0.1c0.1 0 0.1 0.1 0.2 0.1 0 0 0 0 0.1 0q0.1 0.1 0.2 0.2c0.5 0.8 0.7 1.4 0.8 2.4-0.1-0.2-0.5-0.6-0.7-0.6q0 0-0.1 0z"/>
		<path class="s4" d="m8.3 5.2c0 0.1-0.5 0.5-0.6 0.6q-0.1 0.2-0.3 0.3c-0.5 0.6-0.9 1.3-1.3 2q0 0.2-0.1 0.3-0.1 0.2-0.2 0.4 0 0.2-0.1 0.3 0 0.2-0.1 0.4 0 0.2-0.1 0.4 0 0.1-0.1 0.3 0 0.2 0 0.4-0.1 0.2-0.1 0.4c0 0.1 0 0.3 0 0.5-0.1-0.6-0.1-1.2 0-1.7q0-0.1 0-0.2 0 0 0-0.1 0-0.1 0-0.1 0.1-0.1 0.1-0.2 0 0 0-0.1 0 0 0.1-0.1 0-0.1 0-0.1 0-0.1 0-0.2 0.1 0 0.1-0.1 0-0.1 0-0.1 0.1-0.1 0.1-0.2 0 0 0-0.1 0.1 0 0.1-0.1 0-0.1 0.1-0.1 0-0.1 0-0.2 0 0 0.1-0.1 0 0 0-0.1 0.1-0.1 0.1-0.1 0-0.1 0.1-0.1 0-0.1 0.1-0.1 0-0.1 0-0.2 0.1 0 0.1-0.1 0 0 0.1-0.1 0 0 0.1-0.1 0 0 0.1-0.1 0-0.1 0-0.1 0.1-0.1 0.1-0.1 0.1-0.1 0.1-0.1 0.1-0.1 0.1-0.1 0.1-0.1 0.1-0.1 0.1-0.1 0.1-0.1 0.1 0 0.1-0.1 0.5-0.4 0.9-0.7z"/>
		<path class="s5" d="m19.9 9.2c0.3 0.6 0.6 1.2 1.2 1.6q0.3 0.1 0.5 0.2c-0.2 0.3-0.6 0.7-1 0.7-0.1 0-0.3 0-0.4 0q0 0.3-0.1 0.6 0 0.3-0.1 0.6c-0.3 1.1-0.9 2.1-1.7 2.9-0.2 0.1-0.3 0.3-0.5 0.5q-0.1 0-0.2 0c0.1-0.4 0.2-0.9 0.2-1.4 0.3-0.2 0.8-0.8 1.1-1.1 0.7-0.9 1.1-2.1 1.1-3.3q0-0.6-0.1-1.3z"/>
		<path class="s1" d="m5.9 7.4q-0.1-0.2-0.1-0.4c-0.2-0.7-0.3-1.3-0.2-2 0-0.8 0.3-2.6 0.8-3.1q0.1-0.1 0.2 0c0.1 0 0.2 0 0.3 0.1-0.1 0-0.1 0-0.1 0-0.1 0-0.1-0.1-0.2-0.1h-0.1c0 0.1 0.2 0.4 0.2 0.5q0.2 0.5 0.3 1.1 0.1 0.2 0.1 0.5 0 0.3-0.1 0.6 0 0.4 0 0.8c-0.1-0.2-0.3-0.4-0.4-0.7q0-0.2-0.1-0.3c-0.1 0.6 0.1 1.1 0.4 1.7-0.4 0.4-0.7 0.8-1 1.3z"/>
		<path class="s1" d="m18.3 1.7q0.3 0.4 0.4 0.8c0.5 1.1 0.7 2.4 0.5 3.6 0 0.4-0.1 0.8-0.3 1.2q-0.4-0.6-1-1.2c0.4-0.5 0.5-1.1 0.5-1.8q0 0.3-0.1 0.5-0.1 0.3-0.3 0.5-0.2-0.5-0.2-1.1c0-0.6 0-1.1 0.2-1.6 0-0.3 0.2-0.5 0.2-0.8q0.1 0 0.1-0.1z"/>
		<path class="s5" d="m17.4 5.9c0.2 0.2 0.4 0.4 0.6 0.6q0.1 0.1 0.2 0.2 0 0.1 0.1 0.2 0.1 0.1 0.1 0.2 0.1 0.1 0.2 0.2 0 0.1 0.1 0.2 0.1 0.1 0.1 0.2 0.1 0.2 0.1 0.3 0.1 0.1 0.1 0.2 0.1 0.1 0.1 0.2 0.1 0.1 0.1 0.2 0.1 0.1 0.1 0.3 0 0.1 0.1 0.2 0 0.1 0 0.2 0.1 0.1 0.1 0.3 0 0.1 0 0.2 0.1 0.1 0.1 0.2c0.2 1.4-0.2 2.5-1 3.6-0.7 0.9-1.7 1.7-2.7 2.2-0.3 0.1-0.8 0.2-1 0.3-0.1 0.1-0.3 0.1-0.4 0.1q0.2 0 0.3-0.1c1.1-0.4 2.3-1.7 2.8-2.8 0.4-0.9 0.4-1.5 0-2.4 0.5 0 0.9 0.2 1.3 0.5q-0.1-0.3-0.2-0.6c-0.3-0.6-0.7-0.9-1.3-1.1q-0.2 0-0.4 0.1c0-0.1 0.3-0.4 0.4-0.5q0.1 0 0.2-0.1 0-0.1 0-0.1c0.4-0.7 0.4-1.7 0.1-2.5-0.1-0.2-0.2-0.4-0.3-0.7q0 0 0 0z"/>
		<path class="s2" d="m20.2 11.7l1.1 1.4c-0.4 1.9-1 3.3-2.2 4.8q-0.2 0.3-0.5 0.6c-0.1 0.1-0.2 0.2-0.2 0.3-0.2 0-0.6 0.3-0.7 0.5q-0.2 0.1-0.3 0.2 0.3-0.4 0.5-0.8c0.2-0.4 0.4-0.7 0.6-1.1q-0.2 0.2-0.4 0.5c-0.6 0.6-1.2 1-2.1 1.1q0.1-0.1 0.2-0.2c0.9-0.5 1.2-1.7 1.4-2.7q0.1 0 0.2 0c0.2-0.2 0.3-0.4 0.5-0.5 0.8-0.8 1.4-1.8 1.7-2.9q0.1-0.3 0.1-0.6 0.1-0.3 0.1-0.6z"/>
		<path class="s1" d="m3.6 13.1q0.1-0.3 0.3-0.5c0.1-0.2 0.8-0.9 1-0.9q0.1 0 0.1 0v0.1q0.1 0.3 0.3 0.7c0.2 0.7 0.7 1.3 1.2 1.8 0.2 0.2 0.5 0.4 0.7 0.6 0.8 0.6 1.9 1.1 2.9 1.3 0.1 0 0.3 0.1 0.4 0.1v-0.1c0.1 0 0.2 0 0.3 0 0.5 0.3 1 0.5 1.6 0.5 0.7 0 1.2-0.2 1.7-0.5 0.1 0 0.4 0 0.4 0 0.1 0 0.3 0 0.4-0.1 1-0.1 1.9-0.7 2.8-1.2h0.1c0 0.5-0.1 1-0.2 1.4-0.2 1-0.5 2.2-1.4 2.7q-0.1 0.1-0.2 0.2c0.9-0.1 1.5-0.5 2.1-1.1q0.2-0.3 0.4-0.5c-0.2 0.4-0.4 0.7-0.6 1.1q-0.2 0.4-0.5 0.8 0.1-0.1 0.3-0.2c0.1-0.2 0.5-0.5 0.7-0.5-0.3 0.3-0.6 0.5-0.9 0.8-1.5 1.3-3.2 2.3-5.1 3q-0.6-0.2-1.1-0.5-0.3-0.1-0.6-0.2-0.2-0.2-0.5-0.3-0.3-0.2-0.5-0.3-0.3-0.2-0.6-0.3-0.2-0.2-0.5-0.4-0.2-0.1-0.5-0.3-0.2-0.2-0.5-0.4-0.2-0.2-0.4-0.4-0.2-0.1-0.3-0.2-0.1-0.2-0.3-0.3-0.1-0.1-0.2-0.3-0.1-0.1-0.3-0.2-0.1-0.2-0.2-0.3-0.1-0.2-0.2-0.3-0.1-0.1-0.3-0.3-0.1-0.1-0.2-0.3-0.1-0.2-0.2-0.3-0.1-0.2-0.2-0.3 0-0.2-0.1-0.4-0.1-0.1-0.2-0.3-0.1-0.1-0.2-0.3 0-0.2-0.1-0.4-0.1-0.1-0.2-0.3 0-0.2-0.1-0.3c-0.2-0.6-0.3-1.1-0.3-1.6z"/>
		<path class="s6" d="m14.9 16.1c1-0.1 1.9-0.7 2.8-1.2-0.2 0.9-0.9 1.8-1.7 2.3-0.3 0.2-0.6 0.4-0.9 0.6-0.8 0.5-1.7 1.2-2.1 2-0.3 0.5-0.4 1-0.5 1.6q-0.1-0.1-0.1-0.3 0-0.3 0-0.6 0-0.5 0-0.9v-2.9c0.7 0 1.2-0.2 1.7-0.5 0.1 0 0.4 0 0.4 0 0.1 0 0.3 0 0.4-0.1z"/>
		<path class="s3" d="m7.2 14.9c0.8 0.6 1.9 1.1 2.9 1.3 0.1 0 0.3 0.1 0.4 0.1v-0.1c0.1 0 0.2 0 0.3 0 0.5 0.3 1 0.5 1.6 0.5v2.9q0 0.4 0 0.9 0 0.3 0 0.6 0 0.2 0.1 0.3-0.1 0-0.1 0.1c-0.1-0.6-0.3-1.2-0.6-1.7-0.4-0.8-1.2-1.5-1.9-2-0.3-0.1-0.6-0.3-0.9-0.4q-0.4-0.3-0.8-0.6c-0.2-0.1-0.7-0.6-0.9-0.6l-0.1 0.1q0-0.1 0-0.2 0-0.2 0-0.4 0-0.4 0-0.8z"/>
		<path class="s2" d="m5 11.7v0.1q0.1 0.3 0.3 0.7c0.2 0.7 0.7 1.3 1.2 1.8 0.2 0.2 0.5 0.4 0.7 0.6q0 0.4 0 0.8 0 0.2 0 0.4 0 0.1 0 0.2 0.1 0.2 0.1 0.4c0.2 0.7 0.5 1.6 1.1 2.1q0.2 0.2 0.4 0.4c-0.7-0.2-1.4-0.5-1.9-1.1-0.1-0.2-0.2-0.4-0.3-0.5q0 0-0.1 0c0.3 0.8 0.5 1.1 1 1.8q-0.1-0.1-0.3-0.2c-1.4-1.1-2.9-3.3-3-5.2-0.1-0.9 0.2-1.6 0.8-2.3z"/>
		<path class="s5" d="m5 11.8q0.1 0.3 0.3 0.7c0.2 0.7 0.7 1.3 1.2 1.8 0.2 0.2 0.5 0.4 0.7 0.6q0 0.4 0 0.8 0 0.2 0 0.4c-0.3-0.1-1-0.9-1.2-1.2q-0.2-0.3-0.3-0.5c-0.4-0.7-0.6-1.3-0.7-2.1 0-0.2 0-0.4 0-0.5z"/>
		<path class="s2" d="m17 2.1c0.2-0.2 1-1 1.3-0.9 0.1 0 0.2 0 0.3 0.1 0.2 0.3 0.3 0.6 0.4 0.9 0.5 1.2 0.7 2.5 0.6 3.8-0.1 0.6-0.2 1.2-0.4 1.8q-0.2-0.2-0.3-0.5c0.2-0.4 0.3-0.8 0.3-1.2 0.2-1.2 0-2.5-0.5-3.6q-0.1-0.4-0.4-0.8 0 0.1-0.1 0.1c-0.3 0.2-0.5 0.5-0.7 0.8-0.3 0.3-0.7 1.4-0.9 1.8 0 0.3-0.1 0.5-0.2 0.8 0.3 0.2 0.8 0.5 1 0.7q0 0 0 0c0.1 0.3 0.2 0.5 0.3 0.7 0.3 0.8 0.3 1.8-0.1 2.5q0 0 0 0.1-0.1 0.1-0.2 0.1c-0.1 0.1-0.4 0.4-0.4 0.5q0.2-0.1 0.4-0.1c0.6 0.2 1 0.5 1.3 1.1q0.1 0.3 0.2 0.6c-0.4-0.3-0.8-0.5-1.3-0.5 0.4 0.9 0.4 1.5 0 2.4-0.5 1.1-1.7 2.4-2.8 2.8q-0.1 0.1-0.3 0.1c0 0-0.3 0-0.4 0-0.5 0.3-1 0.5-1.7 0.5-0.6 0-1.1-0.2-1.6-0.5-0.1 0-0.2 0-0.3 0v0.1c-0.1 0-0.3-0.1-0.4-0.1-0.2-0.1-0.6-0.2-0.9-0.3-0.4-0.2-0.8-0.5-1.2-0.7-1.2-0.9-2.5-2.3-2.7-3.7 0-0.2 0-0.4 0-0.5q0-0.2 0.1-0.4 0-0.2 0-0.4 0.1-0.2 0.1-0.3 0.1-0.2 0.1-0.4 0.1-0.2 0.1-0.4 0.1-0.1 0.1-0.3 0.1-0.2 0.2-0.4 0.1-0.1 0.1-0.3c0.4-0.7 0.8-1.4 1.3-2q0.2-0.1 0.3-0.3c0.1-0.1 0.6-0.5 0.6-0.6l-0.1 0.1q0-0.4 0-0.7-0.2-1.1-0.8-2c-0.1-0.1-0.2-0.3-0.3-0.4q-0.1-0.1-0.2-0.2c-0.1-0.1-0.2-0.1-0.3-0.1q-0.1-0.1-0.2 0c-0.5 0.5-0.8 2.3-0.8 3.1-0.1 0.7 0 1.3 0.2 2q0 0.2 0.1 0.4c-0.1 0.2-0.2 0.3-0.3 0.5-0.2-0.7-0.4-1.4-0.4-2.2 0-0.1 0-0.3 0-0.4 0-0.3 0-0.7 0.1-1q0-0.2 0-0.3 0-0.2 0.1-0.3 0-0.2 0-0.3 0.1-0.2 0.1-0.3 0-0.2 0.1-0.3 0-0.2 0.1-0.3 0-0.1 0.1-0.3 0-0.1 0.1-0.3c0.1-0.1 0.2-0.4 0.3-0.5 0.1-0.1 0.2-0.2 0.3-0.2 0.4 0 1.1 0.7 1.4 0.9 0.2 0.1 0.4 0.3 0.5 0.4q0.5 0.5 1 1 0.3 0.3 0.6 0.6c1.2-0.3 2.4-0.4 3.7-0.2q0.6 0.1 1.2 0.2 0.7-0.8 1.5-1.5 0.3-0.3 0.6-0.5z"/>
		<path class="s5" d="m16.3 5.1c0.1-1.1 0.8-2.5 1.6-3.2 0.1-0.1 0.2-0.3 0.4-0.2q0 0 0 0 0 0.1-0.1 0.1c-0.3 0.2-0.5 0.5-0.7 0.8-0.3 0.3-0.7 1.4-0.9 1.8 0 0.3-0.1 0.5-0.2 0.8q-0.1-0.1-0.1-0.1z"/>
		<path class="s1" d="m9.5 7.2q0.4 0.1 0.7 0.2c0.2 0.1 0.5 0.3 0.6 0.5 0.1 0.1 0.1 0.3 0 0.5 0 0.1-0.1 0.1-0.2 0.1q-0.3 0-0.5-0.2c-0.2-0.1-0.8-0.4-0.9-0.8q0-0.1 0-0.1c0.1-0.1 0.2-0.1 0.3-0.2z"/>
		<path class="s1" d="m15.3 7.3q0.1 0 0.3 0 0.1 0 0.1 0.1 0.1 0.1 0 0.2c-0.1 0.3-0.9 0.8-1.3 0.9q0 0 0 0-0.2 0-0.3-0.1-0.1-0.1-0.1-0.2 0-0.3 0.2-0.5c0.2-0.3 0.7-0.4 1.1-0.4z"/>
		<path class="s0" d="m9.2 8.4q0.3 0 0.5 0.1c0.5 0.3 0.7 0.9 0.8 1.3q-0.2-0.2-0.4-0.3l-0.1 0.1q-0.2 0.1-0.5 0.1 0 0 0 0 0 0 0 0 0 0-0.1 0 0 0 0 0 0-0.1 0-0.1 0 0 0 0-0.1 0-0.1 0 0 0 0 0 0 0 0 0 0 0-0.1 0 0 0 0 0 0 0 0-0.1 0 0 0 0 0 0-0.1 0 0 0 0 0 0 0 0 0c-0.2-0.2-0.2-0.5-0.1-0.7q-0.3-0.1-0.5-0.2 0.3-0.2 0.7-0.2z"/>
		<path class="s1" d="m9.5 8.7c0.1 0 0.2 0 0.3 0.1q0 0 0 0.1c0 0.1-0.1 0.2-0.1 0.2q-0.2 0-0.3 0 0-0.1 0-0.1 0 0 0 0 0 0 0 0 0 0 0 0 0 0 0 0 0 0 0 0 0-0.1 0-0.1 0 0 0 0c0-0.1 0-0.1 0.1-0.2z"/>
		<path class="s0" d="m15.6 8.4c0.3 0 0.6 0.1 0.8 0.1-0.7 0.4-0.5 0.8-0.9 1.1-0.2 0.1-0.4 0.1-0.6 0q-0.1 0-0.2-0.1-0.3 0.2-0.4 0.3c0.1-0.3 0.2-0.7 0.4-0.9 0.2-0.3 0.5-0.4 0.9-0.5z"/>
		<path class="s1" d="m15.4 8.7q0 0 0 0 0.1 0 0.2 0.1 0 0.1 0 0.2 0 0.1-0.2 0.1 0 0 0 0-0.1 0-0.2-0.1 0 0 0-0.1c0-0.1 0.1-0.1 0.2-0.2z"/>
		<path class="s5" d="m5.2 5.3c0.1-0.1 0.2-0.9 0.3-1.1 0.1-0.6 0.5-2.2 1-2.5q0.2 0.1 0.4 0.2c0.2 0.1 0.4 0.3 0.5 0.5 0.7 0.8 1 1.7 1.2 2.7q-0.2 0-0.3 0.1l-0.1 0.1q0-0.4 0-0.7-0.2-1.1-0.8-2c-0.1-0.1-0.2-0.3-0.3-0.4q-0.1-0.1-0.2-0.2c-0.1-0.1-0.2-0.1-0.3-0.1q-0.1-0.1-0.2 0c-0.5 0.5-0.8 2.3-0.8 3.1-0.1 0.7 0 1.3 0.2 2q0 0.2 0.1 0.4c-0.1 0.2-0.2 0.3-0.3 0.5-0.2-0.7-0.4-1.4-0.4-2.2 0-0.1 0-0.3 0-0.4z"/>
		<path class="s1" d="m17 2.1c-0.2 0.2-0.4 0.4-0.6 0.6q-0.1 0.2-0.3 0.3-0.4 0.5-0.7 0.9-0.2 0.3-0.5 0.6c-1.6-0.4-3.3-0.5-4.9 0q-0.3-0.3-0.6-0.7-0.3-0.5-0.8-0.9c-0.2-0.2-0.6-0.5-0.7-0.8 0.2 0.1 0.4 0.3 0.5 0.4q0.5 0.5 1 1 0.3 0.3 0.6 0.6c1.2-0.3 2.4-0.4 3.7-0.2q0.6 0.1 1.2 0.2 0.7-0.8 1.5-1.5 0.3-0.3 0.6-0.5z"/>
		<path class="s1" d="m12.4 4.7c0.1 0.3 0.1 0.7 0.1 1 0.1 0.8 0.1 1.6 0.3 2.4q0.1 0.3 0.3 0.7 0.1 0.3 0.2 0.7c0.2 0.3 0.4 0.7 0.6 1q0.4 0.8 0.7 1.7 0-0.1 0-0.1 0-0.1 0.1-0.1 0-0.1 0-0.1 0-0.1 0.1-0.1 0-0.1 0-0.1 0.1-0.1 0.1-0.1 0 0 0-0.1 0.1 0 0.1-0.1 0 0 0.1-0.1 0 0 0 0 0.1-0.1 0.1-0.1 0-0.1 0.1-0.1 0-0.1 0-0.1 0.1 0 0.1-0.1 0.1 0 0.1-0.1 0 0 0.1 0 0-0.1 0.1-0.1 0 0 0-0.1 0.1 0 0.1 0 0.1-0.1 0.1-0.1 0-0.1 0.1-0.1 0 0 0.1-0.1 0 0 0.1 0 0 0 0-0.1 0.1 0 0.1 0 0.1-0.1 0.1-0.1 0.1 0 0.1-0.1 0.1 0 0.1 0 0.1 0 0.1-0.1 0.1 0 0.1 0 0.1 0 0.1-0.1 0 0 0.1 0 0.2-0.1 0.4-0.1c0.6 0.2 1 0.5 1.3 1.1q0.1 0.3 0.2 0.6c-0.4-0.3-0.8-0.5-1.3-0.5 0.4 0.9 0.4 1.5 0 2.4-0.5 1.1-1.7 2.4-2.8 2.8q-0.1 0.1-0.3 0.1c0 0-0.3 0-0.4 0-0.5 0.3-1 0.5-1.7 0.5-0.6 0-1.1-0.2-1.6-0.5-0.1 0-0.2 0-0.3 0q-0.3 0-0.5-0.1c-1-0.5-1.9-1.2-2.4-2.1-0.6-0.9-0.7-1.9-0.5-3q-0.2 0.1-0.4 0.1-0.2 0-0.3-0.2-0.1-0.2 0-0.4c0-0.2 0.2-0.4 0.4-0.5 0.4-0.2 0.8-0.3 1.1-0.2 0.9 0.2 1.5 0.9 1.9 1.6q0.2 0.3 0.4 0.6c0.3-0.8 0.8-1.5 1.2-2.3 0.6-1.2 0.8-2.3 0.9-3.6 0.1-0.5 0.1-1 0.1-1.4z"/>
		<path class="s0" d="m15.5 13.2q0 0.3 0 0.7c-0.1 1-0.6 1.6-1.4 2.3-0.5 0.3-1 0.5-1.7 0.5-0.6 0-1.1-0.2-1.6-0.5-0.4-0.3-0.7-0.6-1-1-0.2-0.4-0.5-1.1-0.3-1.6 0.1 0.6 0.3 1.2 0.8 1.7 0.5 0.6 1.2 1 2 1 0.7 0.1 1.4-0.2 2-0.7 0.7-0.6 1.1-1.4 1.2-2.4z"/>
		<path class="s0" d="m12.2 12.2c0.4-0.1 0.8 0.1 1.1 0.2 0.2 0.1 0.4 0.2 0.4 0.4 0.1 0.3 0 0.6-0.1 0.8-0.2 0.5-0.6 0.6-1.1 0.8q0 0 0 0.1 0 0.3 0.3 0.4c0.4 0.3 0.9 0.3 1.3 0.2q-0.1 0-0.2 0.1c-0.4 0.2-0.8 0.1-1.3 0-0.3-0.1-0.6 0.1-0.9 0.1q-0.6 0.1-1-0.2 0.1 0 0.2 0c0.3 0.1 0.8 0.1 1.1-0.1 0.2-0.2 0.3-0.4 0.4-0.6q-0.5-0.1-0.8-0.3c-0.2-0.2-0.5-0.5-0.5-0.8q0-0.1 0-0.1 0 0 0 0 0-0.1 0-0.1 0 0 0 0 0 0 0-0.1 0 0 0 0 0 0 0 0 0-0.1 0-0.1 0 0 0 0 0 0 0-0.1 0 0 0 0 0.1 0 0.1 0 0-0.1 0-0.1 0 0 0 0 0 0 0 0 0-0.1 0.1-0.1c0.2-0.3 0.5-0.4 0.9-0.4z"/>
		<path class="s7" d="m12.1 12.6q0.4 0 0.7 0.1c-0.3 0-0.7-0.1-1.1 0.1q-0.2 0.1-0.2 0.3c-0.1 0.1 0 0.3 0.1 0.4q0.1 0.1 0.2 0.3-0.1-0.1-0.2-0.2-0.3-0.2-0.3-0.5 0-0.2 0.1-0.3c0.2-0.2 0.5-0.2 0.7-0.2z"/>
	</g>
</svg>