<?xml version="1.0" encoding="utf-8"?>
<!-- Generator: Adobe Illustrator 24.3.0, SVG Export Plug-In . SVG Version: 6.00 Build 0)  -->
<svg version="1.1" id="Layer_1" xmlns="http://www.w3.org/2000/svg" xmlns:xlink="http://www.w3.org/1999/xlink" x="0px" y="0px"
	 viewBox="0 0 240 240" style="enable-background:new 0 0 240 240;" xml:space="preserve">
<style type="text/css">
	.st0{fill:url(#SVGID_1_);}
	.st1{opacity:0.35;}
	.st2{fill:#111217;}
	.st3{fill:#423EEE;stroke:#423EEE;stroke-miterlimit:10;}
	.st4{fill-rule:evenodd;clip-rule:evenodd;fill:#27268D;}
</style>
<linearGradient id="SVGID_1_" gradientUnits="userSpaceOnUse" x1="39.8814" y1="262.323" x2="200.1186" y2="-22.5435" gradientTransform="matrix(1 0 0 -1 0 239.8898)">
	<stop  offset="0" style="stop-color:#322FB4"/>
	<stop  offset="1" style="stop-color:#3835CA"/>
</linearGradient>
<rect y="0" class="st0" width="240" height="240"/>
<g class="st1">
	<path class="st2" d="M232.3,182.4c-0.6,0.4-1.1,1.1-1.1,1.7c0,0.5,0.5,0.6,1.1,0.2c0.6-0.4,1.1-1.1,1.1-1.7S232.9,182,232.3,182.4
		L232.3,182.4z"/>
	<path class="st2" d="M232.3,174c-0.8,0.4-1.4,1.3-1.4,2s0.6,0.9,1.4,0.4c0.8-0.5,1.4-1.4,1.4-2C233.7,173.7,233.1,173.5,232.3,174z
		"/>
	<path class="st2" d="M232.3,165.5c-1,0.5-1.8,1.4-1.8,2.4c0,0.8,0.8,1.2,1.8,0.7c1-0.5,1.7-1.5,1.8-2.4
		C234.1,165.4,233.2,165.1,232.3,165.5L232.3,165.5z"/>
	<path class="st2" d="M232.3,157.1c-1.2,0.5-2.1,1.6-2.1,2.6c0,1,1,1.4,2.1,0.9c1.2-0.5,2.1-1.6,2.1-2.7
		C234.4,157.1,233.4,156.7,232.3,157.1z"/>
	<path class="st2" d="M232.3,148.7c-1.5,0.5-2.4,1.7-2.5,2.9c0,1,1.1,1.8,2.5,1.3c1.4-0.5,2.4-1.7,2.4-2.9
		C234.7,149,233.6,148.3,232.3,148.7L232.3,148.7z"/>
	<path class="st2" d="M232.3,140.3c-1.7,0.4-2.7,1.8-2.8,3c0,1.1,1.2,2.2,2.8,1.7c1.6-0.5,2.7-1.8,2.8-3
		C235.1,140.9,233.8,139.9,232.3,140.3z"/>
	<path class="st2" d="M232.3,131.9c-1.9,0.3-3.1,1.8-3.1,3.1c0,1.3,1.3,2.5,3.1,2.1c1.8-0.4,3.1-1.8,3.1-3.2
		C235.4,132.8,234,131.6,232.3,131.9L232.3,131.9z"/>
	<path class="st2" d="M232.3,123.5c-2.1,0.1-3.5,1.7-3.5,3.2c0,1.4,1.4,2.9,3.5,2.6c2-0.2,3.4-1.8,3.4-3.2
		C235.7,124.7,234.2,123.4,232.3,123.5L232.3,123.5z"/>
	<path class="st2" d="M232.3,121.5c2.2-0.1,3.7-1.7,3.7-3.2c0-1.6-1.5-3.1-3.7-3.2c-2.3-0.1-3.8,1.6-3.8,3.2
		C228.5,119.8,229.9,121.6,232.3,121.5z"/>
	<path class="st2" d="M232.3,53.8c0.6,0.4,1.1,0.3,1.1-0.2c0-0.5-0.5-1.3-1.1-1.7s-1.1-0.3-1.1,0.2
		C231.2,52.7,231.7,53.5,232.3,53.8z"/>
	<path class="st2" d="M232.3,62.3c0.8,0.4,1.4,0.3,1.4-0.4c0-0.7-0.6-1.6-1.4-2c-0.8-0.5-1.4-0.3-1.4,0.4
		C230.8,60.9,231.5,61.8,232.3,62.3L232.3,62.3z"/>
	<path class="st2" d="M232.3,70.7c1,0.5,1.8,0.2,1.8-0.6c0-0.9-0.8-1.9-1.8-2.4c-1-0.5-1.8-0.2-1.8,0.7
		C230.5,69.2,231.2,70.2,232.3,70.7L232.3,70.7z"/>
	<path class="st2" d="M232.3,79.1c1.1,0.5,2.1,0,2.1-0.9c0-1-0.9-2.1-2.1-2.7c-1.1-0.5-2.1,0-2.1,0.9
		C230.2,77.5,231,78.6,232.3,79.1L232.3,79.1z"/>
	<path class="st2" d="M232.3,87.5c1.3,0.4,2.5-0.3,2.4-1.3c-0.1-1.2-1-2.3-2.4-2.9c-1.3-0.5-2.5,0.3-2.5,1.3
		C229.9,85.8,230.8,87,232.3,87.5L232.3,87.5z"/>
	<path class="st2" d="M232.3,95.9c1.5,0.4,2.8-0.6,2.8-1.7c0-1.3-1.1-2.6-2.8-3c-1.6-0.5-2.8,0.6-2.8,1.7
		C229.5,94.2,230.6,95.5,232.3,95.9z"/>
	<path class="st2" d="M232.3,104.3c1.8,0.3,3.1-0.9,3.1-2.1c0-1.4-1.3-2.8-3.1-3.2c-1.8-0.4-3.1,0.9-3.1,2.1
		C229.2,102.6,230.4,104.1,232.3,104.3L232.3,104.3z"/>
	<path class="st2" d="M232.3,112.8c2,0.1,3.4-1.2,3.4-2.6c0-1.5-1.4-3-3.4-3.2c-2.1-0.2-3.5,1.2-3.5,2.6
		C228.8,111,230.1,112.6,232.3,112.8L232.3,112.8z"/>
	<path class="st2" d="M219.9,170.9c-1.1,0.5-1.9,1.5-1.9,2.4c0,0.9,0.9,1.4,1.9,0.9c1.1-0.5,1.8-1.5,1.9-2.4
		C221.7,170.9,220.9,170.5,219.9,170.9z"/>
	<path class="st2" d="M219.9,161.5c-1.4,0.5-2.2,1.7-2.2,2.7c0,0.9,1,1.7,2.2,1.2c1.3-0.5,2.2-1.7,2.2-2.8
		C222.1,161.9,221.1,161.1,219.9,161.5z"/>
	<path class="st2" d="M219.9,152.2c-1.6,0.4-2.5,1.8-2.6,3c0,1,1.1,2.1,2.6,1.6c1.6-0.5,2.5-1.8,2.6-3
		C222.5,152.7,221.3,151.8,219.9,152.2L219.9,152.2z"/>
	<path class="st2" d="M219.9,142.8c-1.8,0.4-2.9,1.9-2.9,3.2c0,1.2,1.2,2.5,2.9,2c1.8-0.4,2.9-1.9,2.9-3.2
		C222.8,143.6,221.6,142.5,219.9,142.8z"/>
	<path class="st2" d="M219.9,133.4c-2.1,0.2-3.3,1.9-3.3,3.4c0,1.3,1.3,2.8,3.3,2.5c2-0.3,3.2-1.9,3.3-3.4
		C223.1,134.6,221.8,133.2,219.9,133.4L219.9,133.4z"/>
	<path class="st2" d="M219.9,124.1c-2.3,0.1-3.6,1.9-3.7,3.5c0,1.5,1.4,3.2,3.7,3c2.2-0.2,3.6-1.9,3.6-3.5
		C223.5,125.6,222,124,219.9,124.1z"/>
	<path class="st2" d="M219.9,121.8c2.4-0.1,3.9-1.9,3.9-3.6c0-1.7-1.5-3.5-3.9-3.6c-2.5-0.1-4,1.9-4,3.6
		C215.8,119.9,217.3,121.9,219.9,121.8z"/>
	<path class="st2" d="M219.9,65.3c1,0.4,1.9,0,1.9-0.9c0-1-0.8-2-1.9-2.4c-1-0.4-1.9,0-1.9,0.9C218,63.9,218.7,64.9,219.9,65.3z"/>
	<path class="st2" d="M219.9,74.7c1.2,0.4,2.3-0.3,2.2-1.2c-0.1-1.1-0.9-2.2-2.2-2.8c-1.3-0.5-2.3,0.3-2.2,1.3
		C217.7,73,218.5,74.2,219.9,74.7L219.9,74.7z"/>
	<path class="st2" d="M219.9,84.1c1.5,0.4,2.6-0.6,2.6-1.6c0-1.2-1-2.5-2.6-3c-1.5-0.5-2.6,0.6-2.6,1.6
		C217.3,82.3,218.2,83.6,219.9,84.1z"/>
	<path class="st2" d="M219.9,93.4c1.7,0.3,2.9-0.8,2.9-2c0-1.3-1.1-2.8-2.9-3.2c-1.8-0.4-3,0.9-2.9,2
		C216.9,91.6,218,93.1,219.9,93.4z"/>
	<path class="st2" d="M219.9,102.8c2,0.2,3.3-1.2,3.3-2.5c0-1.4-1.3-3.1-3.3-3.4c-2-0.3-3.3,1.2-3.3,2.5
		C216.6,100.9,217.8,102.5,219.9,102.8z"/>
	<path class="st2" d="M219.9,112.2c2.2,0.1,3.6-1.5,3.6-3c0-1.6-1.4-3.3-3.6-3.5c-2.3-0.2-3.7,1.5-3.7,3
		C216.2,110.2,217.6,112,219.9,112.2z"/>
	<path class="st2" d="M206.8,195.9c-0.7,0.3-1.2,1.1-1.2,1.7c0,0.6,0.6,0.9,1.2,0.6c0.7-0.3,1.2-1.1,1.2-1.7
		C208,195.9,207.5,195.6,206.8,195.9L206.8,195.9z"/>
	<path class="st2" d="M206.8,185.8c-1,0.4-1.6,1.3-1.6,2.1c0,0.8,0.8,1.2,1.6,0.9c1-0.4,1.6-1.3,1.6-2.1
		C208.4,185.8,207.6,185.4,206.8,185.8z"/>
	<path class="st2" d="M206.8,175.6c-1.2,0.4-2,1.5-2,2.5c0,1,0.9,1.6,2,1.2c1.2-0.4,1.9-1.5,2-2.5
		C208.8,175.7,207.8,175.2,206.8,175.6z"/>
	<path class="st2" d="M206.8,165.4c-1.5,0.4-2.3,1.7-2.3,2.8c0,0.9,0.9,2,2.3,1.5c1.4-0.5,2.3-1.7,2.3-2.8
		C209.2,165.9,208.2,165,206.8,165.4L206.8,165.4z"/>
	<path class="st2" d="M206.8,155.2c-1.7,0.4-2.7,1.8-2.7,3.1c0,1.1,1.1,2.3,2.7,1.9c1.7-0.4,2.6-1.9,2.7-3.1
		C209.5,156,208.4,154.8,206.8,155.2L206.8,155.2z"/>
	<path class="st2" d="M206.8,145c-2,0.3-3.1,2-3.1,3.4c0,1.2,1.2,2.7,3.1,2.3c1.9-0.4,3-2,3-3.4C209.9,146.1,208.7,144.7,206.8,145z
		"/>
	<path class="st2" d="M206.8,134.8c-2.2,0.2-3.4,2.1-3.4,3.6c0,1.4,1.3,3.1,3.4,2.8c2.1-0.3,3.4-2.1,3.4-3.6
		C210.2,136.2,208.9,134.6,206.8,134.8L206.8,134.8z"/>
	<path class="st2" d="M206.8,124.6c-2.5,0.1-3.8,2.1-3.8,3.8c0,1.6,1.4,3.5,3.8,3.3c2.4-0.2,3.8-2.1,3.8-3.8
		C210.6,126.4,209.2,124.5,206.8,124.6z"/>
	<path class="st2" d="M206.8,122.2c2.6-0.1,4.1-2.1,4.1-3.9c0-1.7-1.5-3.8-4.1-3.9c-2.7-0.1-4.2,2.1-4.2,3.9
		C202.6,120,204.1,122.2,206.8,122.2z"/>
	<path class="st2" d="M206.8,81c1.6,0.4,2.7-0.8,2.7-1.9c0-1.3-1-2.7-2.7-3.1c-1.6-0.4-2.7,0.8-2.7,1.9
		C204.1,79.2,205.1,80.7,206.8,81L206.8,81z"/>
	<path class="st2" d="M206.8,91.2c1.9,0.3,3.1-1.1,3-2.3c0-1.4-1.1-3-3-3.4c-1.9-0.4-3.1,1.1-3.1,2.3
		C203.7,89.3,204.8,90.9,206.8,91.2L206.8,91.2z"/>
	<path class="st2" d="M206.8,101.4c2.1,0.2,3.4-1.4,3.4-2.8c0-1.5-1.3-3.3-3.4-3.6c-2.2-0.3-3.5,1.4-3.4,2.8
		C203.4,99.4,204.6,101.2,206.8,101.4z"/>
	<path class="st2" d="M206.8,111.6c2.4,0.1,3.8-1.8,3.8-3.3c0-1.6-1.4-3.6-3.8-3.8c-2.4-0.2-3.8,1.8-3.8,3.3
		C203,109.5,204.3,111.5,206.8,111.6L206.8,111.6z"/>
	<path class="st2" d="M193.2,190.5c-1,0.4-1.6,1.3-1.7,2.1c0,0.9,0.8,1.4,1.7,1.1c1-0.4,1.6-1.3,1.7-2.1
		C194.9,190.7,194.1,190.2,193.2,190.5z"/>
	<path class="st2" d="M193.2,179.6c-1.3,0.4-2,1.5-2,2.5c0,1.1,1,1.7,2,1.4c1.3-0.4,2-1.5,2-2.5
		C195.2,179.9,194.3,179.3,193.2,179.6L193.2,179.6z"/>
	<path class="st2" d="M193.2,168.7c-1.5,0.4-2.4,1.7-2.4,2.9c0,1,0.9,2.2,2.4,1.8c1.5-0.4,2.4-1.7,2.4-2.9
		C195.6,169.5,194.7,168.3,193.2,168.7z"/>
	<path class="st2" d="M193.2,157.8c-1.8,0.3-2.8,1.9-2.8,3.2c0,1.1,1,2.6,2.8,2.2c1.8-0.4,2.8-1.9,2.8-3.2
		C196,158.8,194.9,157.4,193.2,157.8z"/>
	<path class="st2" d="M193.2,146.9c-2.1,0.3-3.2,2.1-3.2,3.5c0,1.3,1.2,3,3.2,2.6c2-0.3,3.1-2.1,3.2-3.5
		C196.4,148.2,195.2,146.6,193.2,146.9z"/>
	<path class="st2" d="M193.2,136c-2.3,0.2-3.6,2.2-3.6,3.7c0,1.5,1.3,3.4,3.6,3.1c2.3-0.3,3.5-2.2,3.5-3.8
		C196.8,137.6,195.5,135.8,193.2,136z"/>
	<path class="st2" d="M193.2,125.1c-2.6,0.1-4,2.3-4,4c0,1.6,1.4,3.8,4,3.6c2.5-0.2,3.9-2.3,3.9-4C197.1,127,195.7,125,193.2,125.1z
		"/>
	<path class="st2" d="M193.2,122.5c2.8-0.1,4.3-2.3,4.3-4.2c0-1.8-1.5-4.1-4.3-4.2c-2.8-0.1-4.3,2.3-4.3,4.2
		C188.8,120.1,190.3,122.5,193.2,122.5z"/>
	<path class="st2" d="M193.2,56.7c1.1,0.3,2-0.3,2-1.4c0-1-0.8-2.1-2-2.5c-1.1-0.3-2.1,0.3-2,1.4C191.2,55.2,191.9,56.3,193.2,56.7z
		"/>
	<path class="st2" d="M193.2,67.6c1.5,0.3,2.4-0.8,2.4-1.8c0-1.1-0.9-2.5-2.4-2.9c-1.5-0.4-2.5,0.8-2.4,1.8
		C190.8,65.8,191.6,67.2,193.2,67.6L193.2,67.6z"/>
	<path class="st2" d="M193.2,78.5c1.7,0.3,2.8-1,2.8-2.2c0-1.3-1-2.8-2.8-3.2c-1.8-0.4-2.8,1.1-2.8,2.2
		C190.4,76.6,191.4,78.1,193.2,78.5L193.2,78.5z"/>
	<path class="st2" d="M193.2,89.4c2,0.3,3.2-1.3,3.2-2.6c0-1.4-1.1-3.2-3.2-3.5c-2-0.3-3.2,1.3-3.2,2.6
		C190,87.3,191.1,89.1,193.2,89.4L193.2,89.4z"/>
	<path class="st2" d="M193.2,100.3c2.3,0.2,3.6-1.6,3.5-3.1c0-1.6-1.3-3.5-3.5-3.8c-2.3-0.3-3.6,1.6-3.6,3.1
		C189.6,98.1,190.9,100.1,193.2,100.3z"/>
	<path class="st2" d="M193.2,111.2c2.5,0.1,3.9-2,3.9-3.6c0-1.7-1.4-3.8-3.9-4c-2.6-0.2-4,2-4,3.6
		C189.2,108.9,190.6,111.1,193.2,111.2z"/>
	<path class="st2" d="M179.1,171.4c-1.6,0.3-2.5,1.7-2.5,2.9c0,1,0.9,2.3,2.5,2c1.6-0.3,2.5-1.7,2.5-2.9
		C181.6,172.4,180.7,171.1,179.1,171.4z"/>
	<path class="st2" d="M179.1,159.9c-1.9,0.3-2.9,1.9-2.9,3.2c0,1.2,1,2.7,2.9,2.4c1.9-0.3,2.9-1.9,2.9-3.3
		C182,161.1,181,159.7,179.1,159.9z"/>
	<path class="st2" d="M179.1,148.4c-2.2,0.2-3.3,2.1-3.3,3.6c0,1.3,1.1,3.1,3.3,2.9c2.1-0.3,3.3-2.1,3.3-3.6
		C182.4,149.9,181.2,148.2,179.1,148.4z"/>
	<path class="st2" d="M179.1,136.9c-2.4,0.2-3.7,2.3-3.7,3.9c0,1.5,1.3,3.6,3.7,3.3c2.4-0.2,3.7-2.3,3.7-3.9
		C182.8,138.7,181.5,136.8,179.1,136.9z"/>
	<path class="st2" d="M179.1,125.4c-2.7,0.1-4.1,2.4-4.1,4.1c0,1.7,1.4,4,4.1,3.8c2.7-0.1,4-2.4,4-4.1
		C183.2,127.6,181.8,125.4,179.1,125.4z"/>
	<path class="st2" d="M179.1,122.7c2.9,0,4.4-2.5,4.4-4.4c0-1.9-1.5-4.3-4.4-4.4c-3,0-4.5,2.5-4.5,4.4S176.1,122.7,179.1,122.7
		L179.1,122.7z"/>
	<path class="st2" d="M179.1,41.8c0.9,0.2,1.7-0.3,1.7-1.2c0-0.8-0.6-1.8-1.7-2.1c-0.9-0.3-1.7,0.3-1.7,1.2
		C177.4,40.6,178,41.5,179.1,41.8z"/>
	<path class="st2" d="M179.1,53.3c1.3,0.3,2.1-0.7,2.1-1.6c0-1-0.8-2.2-2.1-2.5c-1.3-0.3-2.1,0.8-2.1,1.6
		C177.1,51.8,177.8,53,179.1,53.3L179.1,53.3z"/>
	<path class="st2" d="M179.1,64.8c1.6,0.3,2.5-1,2.5-2c0-1.2-0.9-2.6-2.5-2.9c-1.6-0.3-2.5,1-2.5,2
		C176.7,63.1,177.5,64.5,179.1,64.8L179.1,64.8z"/>
	<path class="st2" d="M179.1,76.3c1.8,0.3,2.9-1.2,2.9-2.4c0-1.3-1-3-2.9-3.3c-1.9-0.3-2.9,1.3-2.9,2.4
		C176.2,74.4,177.2,76,179.1,76.3L179.1,76.3z"/>
	<path class="st2" d="M179.1,87.8c2.1,0.2,3.3-1.5,3.3-2.9c0-1.5-1.1-3.3-3.3-3.6c-2.1-0.3-3.3,1.5-3.3,2.9
		C175.8,85.7,177,87.6,179.1,87.8z"/>
	<path class="st2" d="M179.1,99.3c2.4,0.1,3.7-1.8,3.7-3.3c0-1.6-1.3-3.7-3.7-3.9c-2.4-0.2-3.7,1.8-3.7,3.3
		C175.4,97,176.7,99.1,179.1,99.3z"/>
	<path class="st2" d="M179.1,110.8c2.6,0.1,4.1-2.1,4-3.8c0-1.8-1.4-4-4-4.1c-2.7-0.1-4.1,2.2-4.1,3.8
		C175,108.4,176.4,110.7,179.1,110.8z"/>
	<path class="st2" d="M164.7,185.6c-1.4,0.2-2.1,1.5-2.2,2.5c0,0.9,0.8,2,2.2,1.8c1.4-0.3,2.1-1.5,2.1-2.5
		C166.8,186.5,166,185.3,164.7,185.6L164.7,185.6z"/>
	<path class="st2" d="M164.7,173.6c-1.7,0.2-2.5,1.7-2.6,2.9c0,1.1,0.9,2.4,2.6,2.2c1.6-0.2,2.5-1.7,2.5-2.9
		C167.2,174.7,166.3,173.4,164.7,173.6z"/>
	<path class="st2" d="M164.7,161.6c-2,0.2-2.9,1.9-3,3.3c0,1.2,1,2.9,3,2.6c1.9-0.2,2.9-2,2.9-3.3
		C167.6,163,166.6,161.4,164.7,161.6z"/>
	<path class="st2" d="M164.7,149.7c-2.2,0.2-3.4,2.1-3.4,3.6c0,1.4,1.1,3.3,3.4,3.1c2.2-0.2,3.3-2.1,3.3-3.6
		C168,151.4,166.9,149.5,164.7,149.7L164.7,149.7z"/>
	<path class="st2" d="M164.7,137.7c-2.5,0.1-3.8,2.3-3.8,4c0,1.6,1.3,3.7,3.8,3.6c2.5-0.2,3.7-2.3,3.7-4
		C168.4,139.7,167.1,137.6,164.7,137.7z"/>
	<path class="st2" d="M164.7,125.7c-2.8,0.1-4.2,2.5-4.2,4.3c0,1.7,1.4,4.2,4.2,4c2.7-0.1,4.1-2.5,4.1-4.3
		C168.8,128,167.4,125.7,164.7,125.7z"/>
	<path class="st2" d="M164.7,122.9c3,0,4.5-2.6,4.5-4.6c0-1.9-1.5-4.5-4.5-4.6c-3.1,0-4.6,2.6-4.6,4.6
		C160.1,120.3,161.6,122.9,164.7,122.9L164.7,122.9z"/>
	<path class="st2" d="M164.7,26.7c0.7,0.2,1.3-0.3,1.3-1c0-0.7-0.6-1.5-1.3-1.6c-0.7-0.2-1.3,0.3-1.3,1.1
		C163.3,25.8,163.9,26.6,164.7,26.7z"/>
	<path class="st2" d="M164.7,38.7c0.9,0.2,1.7-0.4,1.7-1.4c0-0.8-0.6-1.8-1.7-2.1c-0.9-0.2-1.8,0.5-1.7,1.4
		C162.9,37.5,163.5,38.4,164.7,38.7z"/>
	<path class="st2" d="M164.7,50.7c1.3,0.2,2.2-0.9,2.1-1.8c0-1-0.8-2.3-2.1-2.5c-1.3-0.3-2.2,0.9-2.2,1.8
		C162.5,49.2,163.3,50.4,164.7,50.7z"/>
	<path class="st2" d="M164.7,62.6c1.6,0.2,2.6-1.1,2.5-2.2c0-1.2-0.9-2.7-2.5-2.9c-1.6-0.2-2.6,1.2-2.6,2.2
		C162.1,60.9,163,62.4,164.7,62.6z"/>
	<path class="st2" d="M164.7,74.6c1.9,0.2,3-1.4,2.9-2.6c0-1.3-1-3-2.9-3.3c-1.9-0.2-3,1.4-3,2.6C161.7,72.6,162.7,74.4,164.7,74.6
		L164.7,74.6z"/>
	<path class="st2" d="M164.7,86.6c2.2,0.2,3.4-1.7,3.3-3.1c0-1.5-1.1-3.4-3.3-3.6c-2.2-0.2-3.4,1.7-3.4,3.1
		C161.3,84.4,162.4,86.4,164.7,86.6L164.7,86.6z"/>
	<path class="st2" d="M164.7,98.5c2.5,0.1,3.8-2,3.7-3.5c0-1.6-1.3-3.8-3.7-4c-2.5-0.2-3.8,2-3.8,3.6
		C160.9,96.2,162.2,98.4,164.7,98.5z"/>
	<path class="st2" d="M164.7,110.5c2.7,0.1,4.2-2.3,4.1-4c0-1.8-1.4-4.2-4.1-4.3c-2.8-0.1-4.2,2.3-4.2,4
		C160.5,108,161.9,110.4,164.7,110.5z"/>
	<path class="st2" d="M149.9,212.2c-0.8,0.1-1.4,0.8-1.4,1.6s0.6,1.3,1.4,1.2c0.8-0.1,1.4-0.8,1.4-1.6S150.7,212.1,149.9,212.2z"/>
	<path class="st2" d="M149.9,199.9c-1.2,0.2-1.8,1.2-1.8,2c0,1,0.8,1.7,1.8,1.6c1.2-0.2,1.8-1.2,1.8-2
		C151.7,200.5,150.9,199.7,149.9,199.9L149.9,199.9z"/>
	<path class="st2" d="M149.9,187.6c-1.4,0.2-2.2,1.4-2.2,2.5c0,0.9,0.8,2.1,2.2,2c1.4-0.2,2.2-1.5,2.2-2.5
		C152.1,188.6,151.3,187.4,149.9,187.6z"/>
	<path class="st2" d="M149.9,175.3c-1.7,0.2-2.6,1.7-2.6,2.9c0,1.1,0.9,2.6,2.6,2.4c1.7-0.2,2.6-1.7,2.6-2.9
		C152.5,176.5,151.6,175.1,149.9,175.3z"/>
	<path class="st2" d="M149.9,162.9c-2,0.1-3,1.9-3,3.3c0,1.2,1,3,3,2.8c2-0.2,3-1.9,3-3.3C152.9,164.5,151.9,162.8,149.9,162.9z"/>
	<path class="st2" d="M149.9,150.6c-2.3,0.1-3.4,2.1-3.4,3.6c0,1.4,1.1,3.4,3.4,3.3c2.3-0.2,3.4-2.2,3.4-3.7
		C153.3,152.4,152.2,150.5,149.9,150.6z"/>
	<path class="st2" d="M149.9,138.3c-2.6,0.1-3.8,2.4-3.8,4c0,1.6,1.3,3.9,3.8,3.7c2.5-0.1,3.8-2.4,3.8-4
		C153.7,140.4,152.5,138.2,149.9,138.3z"/>
	<path class="st2" d="M149.9,126c-2.9,0-4.2,2.6-4.2,4.4c0,1.8,1.4,4.3,4.2,4.2c2.8-0.1,4.2-2.6,4.2-4.4
		C154.1,128.4,152.7,125.9,149.9,126z"/>
	<path class="st2" d="M149.9,123c3.1,0,4.6-2.7,4.6-4.7c0-2-1.5-4.7-4.6-4.7c-3.1,0-4.7,2.7-4.7,4.7
		C145.3,120.3,146.8,123.1,149.9,123z"/>
	<path class="st2" d="M149.9,61c1.7,0.2,2.6-1.3,2.6-2.4c0-1.2-0.9-2.7-2.6-2.9c-1.7-0.2-2.6,1.3-2.6,2.4
		C147.3,59.3,148.2,60.8,149.9,61z"/>
	<path class="st2" d="M149.9,73.3c2,0.1,3-1.5,3-2.8c0-1.3-1-3.1-3-3.3c-2-0.2-3,1.6-3,2.8C146.9,71.4,147.9,73.2,149.9,73.3z"/>
	<path class="st2" d="M149.9,85.6c2.3,0.1,3.4-1.8,3.4-3.2c0-1.5-1.1-3.5-3.4-3.7c-2.3-0.2-3.4,1.8-3.4,3.3
		C146.5,83.5,147.6,85.5,149.9,85.6z"/>
	<path class="st2" d="M149.9,97.9c2.5,0.1,3.8-2.1,3.8-3.7c0-1.7-1.3-3.9-3.8-4c-2.6-0.1-3.8,2.1-3.8,3.7
		C146.1,95.6,147.3,97.9,149.9,97.9z"/>
	<path class="st2" d="M149.9,110.3c2.8,0,4.2-2.4,4.2-4.2c0-1.8-1.4-4.3-4.2-4.4c-2.9-0.1-4.2,2.4-4.2,4.2
		C145.7,107.7,147.1,110.2,149.9,110.3L149.9,110.3z"/>
	<path class="st2" d="M135,188.9c-1.4,0.1-2.2,1.4-2.2,2.4c0,0.9,0.8,2.2,2.2,2.1c1.4-0.1,2.2-1.4,2.2-2.4
		C137.2,190.1,136.4,188.8,135,188.9L135,188.9z"/>
	<path class="st2" d="M135,176.3c-1.7,0.1-2.6,1.7-2.6,2.8c0,1.1,0.9,2.6,2.6,2.5c1.7-0.1,2.6-1.7,2.6-2.8
		C137.6,177.8,136.7,176.2,135,176.3z"/>
	<path class="st2" d="M135,163.8c-2,0.1-3,1.9-3,3.2c0,1.3,1,3.1,3,3c2-0.1,3-1.9,3-3.2C138,165.4,137,163.7,135,163.8L135,163.8z"
		/>
	<path class="st2" d="M135,151.2c-2.3,0.1-3.5,2.1-3.5,3.6c0,1.5,1.2,3.5,3.5,3.4c2.3-0.1,3.4-2.1,3.5-3.6
		C138.4,153.2,137.2,151.2,135,151.2L135,151.2z"/>
	<path class="st2" d="M135,138.7c-2.6,0.1-3.9,2.4-3.9,4c0,1.6,1.3,3.9,3.9,3.9c2.6-0.1,3.9-2.4,3.9-4
		C138.8,140.9,137.5,138.6,135,138.7z"/>
	<path class="st2" d="M135,126.1c-2.9,0-4.3,2.6-4.3,4.4c0,1.8,1.4,4.4,4.3,4.3c2.9,0,4.3-2.6,4.3-4.4
		C139.2,128.6,137.8,126.1,135,126.1z"/>
	<path class="st2" d="M135,123.1c3.2,0,4.7-2.8,4.7-4.8c0-2-1.5-4.8-4.7-4.8c-3.2,0-4.7,2.8-4.7,4.8
		C130.2,120.3,131.8,123.1,135,123.1z"/>
	<path class="st2" d="M135,47.3c1.4,0.1,2.2-1.2,2.2-2.1c0-1-0.8-2.3-2.2-2.4c-1.4-0.1-2.2,1.2-2.2,2.1
		C132.7,45.9,133.5,47.2,135,47.3z"/>
	<path class="st2" d="M135,59.9c1.7,0.1,2.6-1.4,2.6-2.5c0-1.2-0.9-2.7-2.6-2.8c-1.7-0.1-2.6,1.4-2.6,2.5
		C132.3,58.2,133.2,59.8,135,59.9z"/>
	<path class="st2" d="M135,72.4c2,0.1,3-1.7,3-2.9c0-1.3-1-3.1-3-3.2c-2-0.1-3,1.7-3,3C131.9,70.5,132.9,72.4,135,72.4L135,72.4z"/>
	<path class="st2" d="M135,85c2.3,0.1,3.5-1.9,3.5-3.4c0-1.5-1.2-3.6-3.5-3.6c-2.3-0.1-3.5,2-3.5,3.4C131.5,82.9,132.6,84.9,135,85z
		"/>
	<path class="st2" d="M135,97.6c2.6,0.1,3.9-2.2,3.9-3.8c0-1.7-1.3-4-3.9-4c-2.6-0.1-3.9,2.2-3.9,3.9
		C131.1,95.2,132.3,97.5,135,97.6L135,97.6z"/>
	<path class="st2" d="M135,110.1c2.9,0,4.3-2.5,4.3-4.3c0-1.8-1.4-4.4-4.3-4.4c-2.9,0-4.3,2.5-4.3,4.3
		C130.7,107.5,132.1,110.1,135,110.1z"/>
	<path class="st2" d="M7.7,182.4c0.6,0.4,1.1,1.1,1.1,1.7c0,0.5-0.5,0.6-1.1,0.2c-0.6-0.4-1.1-1.1-1.1-1.7S7.1,182,7.7,182.4
		L7.7,182.4z"/>
	<path class="st2" d="M7.7,174c0.8,0.4,1.4,1.3,1.4,2s-0.7,0.9-1.4,0.4c-0.8-0.5-1.4-1.4-1.4-2C6.3,173.7,6.9,173.5,7.7,174z"/>
	<path class="st2" d="M7.7,165.5c1,0.5,1.8,1.4,1.8,2.4c0,0.8-0.8,1.2-1.8,0.7c-1-0.5-1.7-1.5-1.8-2.4
		C5.9,165.4,6.8,165.1,7.7,165.5L7.7,165.5z"/>
	<path class="st2" d="M7.7,157.1c1.2,0.5,2.1,1.6,2.1,2.6c0,1-1,1.4-2.1,0.9c-1.2-0.5-2.1-1.6-2.1-2.7
		C5.6,157.1,6.6,156.7,7.7,157.1z"/>
	<path class="st2" d="M7.7,148.7c1.5,0.5,2.4,1.7,2.5,2.9c0,1-1.1,1.8-2.5,1.3c-1.4-0.5-2.4-1.7-2.4-2.9
		C5.3,149,6.4,148.3,7.7,148.7L7.7,148.7z"/>
	<path class="st2" d="M7.7,140.3c1.7,0.4,2.7,1.8,2.8,3c0,1.1-1.2,2.2-2.8,1.7c-1.6-0.5-2.7-1.8-2.8-3
		C4.9,140.9,6.2,139.9,7.7,140.3z"/>
	<path class="st2" d="M7.7,131.9c1.9,0.3,3.1,1.8,3.1,3.1c0,1.3-1.3,2.5-3.1,2.1c-1.8-0.4-3.1-1.8-3.1-3.2
		C4.6,132.8,6,131.6,7.7,131.9L7.7,131.9z"/>
	<path class="st2" d="M7.7,123.5c2.1,0.1,3.5,1.7,3.5,3.2c0,1.4-1.4,2.9-3.5,2.6c-2-0.2-3.4-1.8-3.4-3.2
		C4.3,124.7,5.8,123.4,7.7,123.5L7.7,123.5z"/>
	<path class="st2" d="M7.7,121.5c-2.2-0.1-3.7-1.7-3.7-3.2c0-1.6,1.5-3.1,3.7-3.2c2.3-0.1,3.8,1.6,3.8,3.2
		C11.5,119.8,10.1,121.6,7.7,121.5z"/>
	<path class="st2" d="M7.7,53.8c-0.6,0.4-1.1,0.3-1.1-0.2c0-0.5,0.5-1.3,1.1-1.7c0.6-0.4,1.1-0.3,1.1,0.2
		C8.8,52.7,8.3,53.5,7.7,53.8z"/>
	<path class="st2" d="M7.7,62.3c-0.8,0.4-1.4,0.3-1.4-0.4c0-0.7,0.6-1.6,1.4-2c0.8-0.5,1.4-0.3,1.4,0.4S8.5,61.8,7.7,62.3L7.7,62.3z
		"/>
	<path class="st2" d="M7.7,70.7c-1,0.5-1.8,0.2-1.8-0.6c0-0.9,0.8-1.9,1.8-2.4c1-0.5,1.8-0.2,1.8,0.7C9.5,69.2,8.8,70.2,7.7,70.7
		L7.7,70.7z"/>
	<path class="st2" d="M7.7,79.1c-1.1,0.5-2.1,0-2.1-0.9c0-1,0.9-2.1,2.1-2.7c1.1-0.5,2.1,0,2.1,0.9C9.8,77.5,9,78.6,7.7,79.1
		L7.7,79.1z"/>
	<path class="st2" d="M7.7,87.5c-1.3,0.4-2.5-0.3-2.4-1.3c0.1-1.2,1-2.3,2.4-2.9c1.3-0.5,2.5,0.3,2.5,1.3C10.1,85.8,9.2,87,7.7,87.5
		L7.7,87.5z"/>
	<path class="st2" d="M7.7,95.9c-1.5,0.4-2.8-0.6-2.8-1.7c0-1.3,1.1-2.6,2.8-3c1.6-0.5,2.8,0.6,2.8,1.7C10.5,94.2,9.4,95.5,7.7,95.9
		z"/>
	<path class="st2" d="M7.7,104.3c-1.8,0.3-3.1-0.9-3.1-2.1c0-1.4,1.3-2.8,3.1-3.2c1.8-0.4,3.1,0.9,3.1,2.1
		C10.8,102.6,9.6,104.1,7.7,104.3L7.7,104.3z"/>
	<path class="st2" d="M7.7,112.8c-2,0.1-3.4-1.2-3.4-2.6c0-1.5,1.4-3,3.4-3.2c2.1-0.2,3.5,1.2,3.5,2.6C11.2,111,9.9,112.6,7.7,112.8
		L7.7,112.8z"/>
	<path class="st2" d="M20.1,170.9c1.1,0.5,1.9,1.5,1.9,2.4c0,0.9-0.9,1.4-1.9,0.9c-1.1-0.5-1.8-1.5-1.9-2.4
		C18.3,170.9,19.1,170.5,20.1,170.9z"/>
	<path class="st2" d="M20.1,161.5c1.4,0.5,2.2,1.7,2.2,2.7c0,0.9-1,1.7-2.2,1.2c-1.3-0.5-2.2-1.7-2.2-2.8
		C17.9,161.9,18.9,161.1,20.1,161.5z"/>
	<path class="st2" d="M20.1,152.2c1.6,0.4,2.5,1.8,2.6,3c0,1-1.1,2.1-2.6,1.6c-1.6-0.5-2.5-1.8-2.6-3
		C17.5,152.7,18.7,151.8,20.1,152.2L20.1,152.2z"/>
	<path class="st2" d="M20.1,142.8c1.8,0.4,2.9,1.9,2.9,3.2c0,1.2-1.2,2.5-2.9,2c-1.8-0.4-2.9-1.9-2.9-3.2
		C17.2,143.6,18.4,142.5,20.1,142.8z"/>
	<path class="st2" d="M20.1,133.4c2.1,0.2,3.3,1.9,3.3,3.4c0,1.3-1.3,2.8-3.3,2.5c-2-0.3-3.2-1.9-3.3-3.4
		C16.9,134.6,18.2,133.2,20.1,133.4L20.1,133.4z"/>
	<path class="st2" d="M20.1,124.1c2.3,0.1,3.6,1.9,3.7,3.5c0,1.5-1.4,3.2-3.7,3c-2.2-0.2-3.6-1.9-3.6-3.5
		C16.5,125.6,18,124,20.1,124.1z"/>
	<path class="st2" d="M20.1,121.8c-2.4-0.1-3.9-1.9-3.9-3.6c0-1.7,1.5-3.5,3.9-3.6c2.5-0.1,4,1.9,4,3.6
		C24.2,119.9,22.7,121.9,20.1,121.8z"/>
	<path class="st2" d="M20.1,65.3c-1,0.4-1.9,0-1.9-0.9c0-1,0.8-2,1.9-2.4c1-0.4,1.9,0,1.9,0.9C22,63.9,21.3,64.9,20.1,65.3z"/>
	<path class="st2" d="M20.1,74.7c-1.2,0.4-2.3-0.3-2.2-1.2c0.1-1.1,0.9-2.2,2.2-2.8c1.3-0.5,2.3,0.3,2.2,1.3
		C22.3,73,21.5,74.2,20.1,74.7L20.1,74.7z"/>
	<path class="st2" d="M20.1,84.1c-1.5,0.4-2.6-0.6-2.6-1.6c0-1.2,1-2.5,2.6-3c1.5-0.5,2.6,0.6,2.6,1.6
		C22.7,82.3,21.7,83.6,20.1,84.1z"/>
	<path class="st2" d="M20.1,93.4c-1.7,0.3-2.9-0.8-2.9-2c0-1.3,1.1-2.8,2.9-3.2c1.8-0.4,3,0.9,2.9,2C23.1,91.6,22,93.1,20.1,93.4z"
		/>
	<path class="st2" d="M20.1,102.8c-2,0.2-3.3-1.2-3.3-2.5c0-1.4,1.3-3.1,3.3-3.4c2-0.3,3.3,1.2,3.3,2.5
		C23.4,100.9,22.2,102.5,20.1,102.8z"/>
	<path class="st2" d="M20.1,112.2c-2.2,0.1-3.6-1.5-3.6-3c0-1.6,1.4-3.3,3.6-3.5c2.3-0.2,3.7,1.5,3.7,3
		C23.8,110.2,22.4,112,20.1,112.2z"/>
	<path class="st2" d="M33.2,195.9c0.7,0.3,1.2,1.1,1.2,1.7c0,0.6-0.6,0.9-1.2,0.6c-0.7-0.3-1.2-1.1-1.2-1.7
		C32,195.9,32.5,195.6,33.2,195.9L33.2,195.9z"/>
	<path class="st2" d="M33.2,185.8c1,0.4,1.6,1.3,1.6,2.1c0,0.8-0.8,1.2-1.6,0.9c-1-0.4-1.6-1.3-1.6-2.1
		C31.6,185.8,32.4,185.4,33.2,185.8z"/>
	<path class="st2" d="M33.2,175.6c1.2,0.4,2,1.5,2,2.5c0,1-0.9,1.6-2,1.2c-1.2-0.4-1.9-1.5-2-2.5C31.2,175.7,32.2,175.2,33.2,175.6z
		"/>
	<path class="st2" d="M33.2,165.4c1.5,0.4,2.3,1.7,2.3,2.8c0,0.9-0.9,2-2.3,1.5c-1.4-0.5-2.3-1.7-2.3-2.8
		C30.8,165.9,31.8,165,33.2,165.4L33.2,165.4z"/>
	<path class="st2" d="M33.2,155.2c1.7,0.4,2.7,1.8,2.7,3.1c0,1.1-1.1,2.3-2.7,1.9c-1.7-0.4-2.6-1.9-2.7-3.1
		C30.5,156,31.6,154.8,33.2,155.2L33.2,155.2z"/>
	<path class="st2" d="M33.2,145c2,0.3,3.1,2,3.1,3.4c0,1.2-1.2,2.7-3.1,2.3c-1.9-0.4-3-2-3-3.4C30.1,146.1,31.3,144.7,33.2,145z"/>
	<path class="st2" d="M33.2,134.8c2.2,0.2,3.4,2.1,3.4,3.6c0,1.4-1.3,3.1-3.4,2.8c-2.1-0.3-3.4-2.1-3.4-3.6
		C29.8,136.2,31.1,134.6,33.2,134.8L33.2,134.8z"/>
	<path class="st2" d="M33.2,124.6c2.5,0.1,3.8,2.1,3.8,3.8c0,1.6-1.4,3.5-3.8,3.3c-2.4-0.2-3.8-2.1-3.8-3.8
		C29.4,126.4,30.8,124.5,33.2,124.6z"/>
	<path class="st2" d="M33.2,122.2c-2.6-0.1-4.1-2.1-4.1-3.9c0-1.7,1.5-3.8,4.1-3.9c2.7-0.1,4.2,2.1,4.2,3.9
		C37.4,120,35.9,122.2,33.2,122.2z"/>
	<path class="st2" d="M33.2,81c-1.6,0.4-2.7-0.8-2.7-1.9c0-1.3,1-2.7,2.7-3.1c1.6-0.4,2.7,0.8,2.7,1.9C35.9,79.2,34.9,80.7,33.2,81
		L33.2,81z"/>
	<path class="st2" d="M33.2,91.2c-1.9,0.3-3.1-1.1-3-2.3c0-1.4,1.1-3,3-3.4c1.9-0.4,3.1,1.1,3.1,2.3C36.3,89.3,35.2,90.9,33.2,91.2
		L33.2,91.2z"/>
	<path class="st2" d="M33.2,101.4c-2.1,0.2-3.4-1.4-3.4-2.8c0-1.5,1.3-3.3,3.4-3.6c2.2-0.3,3.5,1.4,3.4,2.8
		C36.6,99.4,35.4,101.2,33.2,101.4z"/>
	<path class="st2" d="M33.2,111.6c-2.4,0.1-3.8-1.8-3.8-3.3c0-1.6,1.4-3.6,3.8-3.8c2.4-0.2,3.8,1.8,3.8,3.3
		C37,109.5,35.7,111.5,33.2,111.6L33.2,111.6z"/>
	<path class="st2" d="M46.8,190.5c1,0.4,1.6,1.3,1.7,2.1c0,0.9-0.8,1.4-1.7,1.1c-1-0.4-1.6-1.3-1.7-2.1
		C45.1,190.7,45.9,190.2,46.8,190.5z"/>
	<path class="st2" d="M46.8,179.6c1.3,0.4,2,1.5,2,2.5c0,1.1-1,1.7-2,1.4c-1.3-0.4-2-1.5-2-2.5C44.8,179.9,45.7,179.3,46.8,179.6
		L46.8,179.6z"/>
	<path class="st2" d="M46.8,168.7c1.5,0.4,2.4,1.7,2.4,2.9c0,1-0.9,2.2-2.4,1.8c-1.5-0.4-2.4-1.7-2.4-2.9
		C44.4,169.5,45.3,168.3,46.8,168.7z"/>
	<path class="st2" d="M46.8,157.8c1.8,0.3,2.8,1.9,2.8,3.2c0,1.1-1,2.6-2.8,2.2c-1.8-0.4-2.8-1.9-2.8-3.2
		C44,158.8,45.1,157.4,46.8,157.8z"/>
	<path class="st2" d="M46.8,146.9c2.1,0.3,3.2,2.1,3.2,3.5c0,1.3-1.2,3-3.2,2.6c-2-0.3-3.1-2.1-3.2-3.5
		C43.6,148.2,44.8,146.6,46.8,146.9z"/>
	<path class="st2" d="M46.8,136c2.3,0.2,3.6,2.2,3.6,3.7c0,1.5-1.3,3.4-3.6,3.1c-2.3-0.3-3.5-2.2-3.5-3.8
		C43.2,137.6,44.5,135.8,46.8,136z"/>
	<path class="st2" d="M46.8,125.1c2.6,0.1,4,2.3,4,4c0,1.6-1.4,3.8-4,3.6c-2.5-0.2-3.9-2.3-3.9-4C42.9,127,44.3,125,46.8,125.1z"/>
	<path class="st2" d="M46.8,122.5c-2.8-0.1-4.3-2.3-4.3-4.2c0-1.8,1.5-4.1,4.3-4.2c2.8-0.1,4.3,2.3,4.3,4.2
		C51.2,120.1,49.7,122.5,46.8,122.5z"/>
	<path class="st2" d="M46.8,56.7c-1.1,0.3-2-0.3-2-1.4c0-1,0.8-2.1,2-2.5c1.1-0.3,2.1,0.3,2,1.4C48.8,55.2,48.1,56.3,46.8,56.7z"/>
	<path class="st2" d="M46.8,67.6c-1.5,0.3-2.4-0.8-2.4-1.8c0-1.1,0.9-2.5,2.4-2.9c1.5-0.4,2.5,0.8,2.4,1.8
		C49.2,65.8,48.4,67.2,46.8,67.6L46.8,67.6z"/>
	<path class="st2" d="M46.8,78.5c-1.7,0.3-2.8-1-2.8-2.2c0-1.3,1-2.8,2.8-3.2c1.8-0.4,2.8,1.1,2.8,2.2
		C49.6,76.6,48.6,78.1,46.8,78.5L46.8,78.5z"/>
	<path class="st2" d="M46.8,89.4c-2,0.3-3.2-1.3-3.2-2.6c0-1.4,1.1-3.2,3.2-3.5c2-0.3,3.2,1.3,3.2,2.6C50,87.3,48.9,89.1,46.8,89.4
		L46.8,89.4z"/>
	<path class="st2" d="M46.8,100.3c-2.3,0.2-3.6-1.6-3.5-3.1c0-1.6,1.3-3.5,3.5-3.8c2.3-0.3,3.6,1.6,3.6,3.1
		C50.4,98.1,49.1,100.1,46.8,100.3z"/>
	<path class="st2" d="M46.8,111.2c-2.5,0.1-3.9-2-3.9-3.6c0-1.7,1.4-3.8,3.9-4c2.6-0.2,4,2,4,3.6C50.8,108.9,49.4,111.1,46.8,111.2z
		"/>
	<path class="st2" d="M60.9,171.4c1.6,0.3,2.5,1.7,2.5,2.9c0,1-0.9,2.3-2.5,2c-1.6-0.3-2.5-1.7-2.5-2.9
		C58.4,172.4,59.3,171.1,60.9,171.4z"/>
	<path class="st2" d="M60.9,159.9c1.9,0.3,2.9,1.9,2.9,3.2c0,1.2-1,2.7-2.9,2.4c-1.9-0.3-2.9-1.9-2.9-3.3
		C58,161.1,59,159.7,60.9,159.9z"/>
	<path class="st2" d="M60.9,148.4c2.2,0.2,3.3,2.1,3.3,3.6c0,1.3-1.1,3.1-3.3,2.9c-2.1-0.3-3.3-2.1-3.3-3.6
		C57.6,149.9,58.8,148.2,60.9,148.4z"/>
	<path class="st2" d="M60.9,136.9c2.4,0.2,3.7,2.3,3.7,3.9c0,1.5-1.3,3.6-3.7,3.3c-2.4-0.2-3.6-2.3-3.7-3.9
		C57.2,138.7,58.5,136.8,60.9,136.9z"/>
	<path class="st2" d="M60.9,125.4c2.7,0.1,4.1,2.4,4.1,4.1c0,1.7-1.4,4-4.1,3.8c-2.7-0.1-4-2.4-4-4.1
		C56.8,127.6,58.2,125.4,60.9,125.4z"/>
	<path class="st2" d="M60.9,122.7c-2.9,0-4.4-2.5-4.4-4.4c0-1.9,1.5-4.3,4.4-4.4c3,0,4.5,2.5,4.5,4.4
		C65.4,120.2,63.9,122.7,60.9,122.7L60.9,122.7z"/>
	<path class="st2" d="M60.9,41.8c-0.9,0.2-1.7-0.3-1.7-1.2c0-0.8,0.6-1.8,1.7-2.1c0.9-0.3,1.7,0.3,1.7,1.2
		C62.6,40.6,62,41.5,60.9,41.8z"/>
	<path class="st2" d="M60.9,53.3c-1.3,0.3-2.1-0.7-2.1-1.6c0-1,0.8-2.2,2.1-2.5c1.3-0.3,2.1,0.8,2.1,1.6
		C62.9,51.8,62.2,53,60.9,53.3L60.9,53.3z"/>
	<path class="st2" d="M60.9,64.8c-1.6,0.3-2.5-1-2.5-2c0-1.2,0.9-2.6,2.5-2.9c1.6-0.3,2.5,1,2.5,2C63.3,63.1,62.5,64.5,60.9,64.8
		L60.9,64.8z"/>
	<path class="st2" d="M60.9,76.3C59,76.6,58,75.1,58,73.9c0-1.3,1-3,2.9-3.3c1.9-0.3,2.9,1.3,2.9,2.4C63.8,74.4,62.8,76,60.9,76.3
		L60.9,76.3z"/>
	<path class="st2" d="M60.9,87.8c-2.1,0.2-3.3-1.5-3.3-2.9c0-1.5,1.1-3.3,3.3-3.6c2.1-0.3,3.3,1.5,3.3,2.9
		C64.2,85.7,63,87.6,60.9,87.8z"/>
	<path class="st2" d="M60.9,99.3c-2.4,0.1-3.7-1.8-3.7-3.3c0-1.6,1.3-3.7,3.7-3.9c2.4-0.2,3.7,1.8,3.7,3.3
		C64.6,97,63.3,99.1,60.9,99.3z"/>
	<path class="st2" d="M60.9,110.8c-2.6,0.1-4.1-2.1-4-3.8c0-1.8,1.4-4,4-4.1c2.7-0.1,4.1,2.2,4.1,3.8
		C65,108.4,63.6,110.7,60.9,110.8z"/>
	<path class="st2" d="M75.3,185.6c1.4,0.2,2.1,1.5,2.2,2.5c0,0.9-0.8,2-2.2,1.8c-1.4-0.3-2.1-1.5-2.1-2.5
		C73.2,186.5,74,185.3,75.3,185.6L75.3,185.6z"/>
	<path class="st2" d="M75.3,173.6c1.7,0.2,2.5,1.7,2.6,2.9c0,1.1-0.9,2.4-2.6,2.2c-1.6-0.2-2.5-1.7-2.5-2.9
		C72.8,174.7,73.7,173.4,75.3,173.6z"/>
	<path class="st2" d="M75.3,161.6c1.9,0.2,2.9,1.9,3,3.3c0,1.2-1,2.9-3,2.6c-1.9-0.2-2.9-2-2.9-3.3C72.4,163,73.4,161.4,75.3,161.6z
		"/>
	<path class="st2" d="M75.3,149.7c2.2,0.2,3.4,2.1,3.4,3.6c0,1.4-1.1,3.3-3.4,3.1c-2.2-0.2-3.3-2.1-3.3-3.6
		C72,151.4,73.1,149.5,75.3,149.7L75.3,149.7z"/>
	<path class="st2" d="M75.3,137.7c2.5,0.1,3.8,2.3,3.8,4c0,1.6-1.3,3.7-3.8,3.6c-2.5-0.2-3.7-2.3-3.7-4
		C71.6,139.7,72.9,137.6,75.3,137.7z"/>
	<path class="st2" d="M75.3,125.7c2.8,0.1,4.2,2.5,4.2,4.3c0,1.7-1.4,4.2-4.2,4c-2.7-0.1-4.1-2.5-4.1-4.3
		C71.2,128,72.6,125.7,75.3,125.7z"/>
	<path class="st2" d="M75.3,122.9c-3,0-4.5-2.6-4.5-4.6c0-1.9,1.5-4.5,4.5-4.6c3.1,0,4.6,2.6,4.6,4.6
		C79.9,120.3,78.4,122.9,75.3,122.9L75.3,122.9z"/>
	<path class="st2" d="M75.3,26.7c-0.7,0.2-1.3-0.3-1.3-1c0-0.7,0.6-1.5,1.3-1.6c0.7-0.2,1.3,0.3,1.3,1.1
		C76.7,25.8,76.1,26.6,75.3,26.7z"/>
	<path class="st2" d="M75.3,38.7c-0.9,0.2-1.7-0.4-1.7-1.4c0-0.8,0.6-1.8,1.7-2.1c0.9-0.2,1.8,0.5,1.7,1.4
		C77.1,37.5,76.5,38.4,75.3,38.7z"/>
	<path class="st2" d="M75.3,50.7c-1.3,0.2-2.2-0.9-2.1-1.8c0-1,0.8-2.3,2.1-2.5c1.3-0.3,2.2,0.9,2.2,1.8
		C77.5,49.2,76.7,50.4,75.3,50.7z"/>
	<path class="st2" d="M75.3,62.6c-1.6,0.2-2.6-1.1-2.5-2.2c0-1.2,0.9-2.7,2.5-2.9c1.6-0.2,2.6,1.2,2.6,2.2
		C77.9,60.9,77,62.4,75.3,62.6L75.3,62.6z"/>
	<path class="st2" d="M75.3,74.6c-1.9,0.2-3-1.4-2.9-2.6c0-1.3,1-3,2.9-3.3c1.9-0.2,3,1.4,3,2.6C78.3,72.6,77.3,74.4,75.3,74.6
		L75.3,74.6z"/>
	<path class="st2" d="M75.3,86.6c-2.2,0.2-3.4-1.7-3.3-3.1c0-1.5,1.1-3.4,3.3-3.6c2.2-0.2,3.4,1.7,3.4,3.1
		C78.7,84.4,77.6,86.4,75.3,86.6L75.3,86.6z"/>
	<path class="st2" d="M75.3,98.5c-2.5,0.1-3.8-2-3.7-3.5c0-1.6,1.3-3.8,3.7-4c2.5-0.2,3.8,2,3.8,3.6C79.1,96.2,77.8,98.4,75.3,98.5
		L75.3,98.5z"/>
	<path class="st2" d="M75.3,110.5c-2.7,0.1-4.2-2.3-4.1-4c0-1.8,1.4-4.2,4.1-4.3c2.8-0.1,4.2,2.3,4.2,4
		C79.5,108,78.1,110.4,75.3,110.5z"/>
	<path class="st2" d="M90.1,212.2c0.8,0.1,1.4,0.8,1.4,1.6s-0.6,1.3-1.4,1.2c-0.8-0.1-1.4-0.8-1.4-1.6S89.3,212.1,90.1,212.2z"/>
	<path class="st2" d="M90.1,199.9c1.2,0.2,1.8,1.2,1.8,2c0,1-0.8,1.7-1.8,1.6c-1.2-0.2-1.8-1.2-1.8-2
		C88.3,200.5,89.1,199.7,90.1,199.9L90.1,199.9z"/>
	<path class="st2" d="M90.1,187.6c1.4,0.2,2.2,1.4,2.2,2.5c0,0.9-0.8,2.1-2.2,2c-1.4-0.2-2.2-1.5-2.2-2.5
		C87.9,188.6,88.7,187.4,90.1,187.6z"/>
	<path class="st2" d="M90.1,175.3c1.7,0.2,2.6,1.7,2.6,2.9c0,1.1-0.9,2.6-2.6,2.4c-1.7-0.2-2.6-1.7-2.6-2.9
		C87.5,176.5,88.4,175.1,90.1,175.3z"/>
	<path class="st2" d="M90.1,162.9c2,0.1,3,1.9,3,3.3c0,1.2-1,3-3,2.8c-2-0.2-3-1.9-3-3.3C87.1,164.5,88.1,162.8,90.1,162.9z"/>
	<path class="st2" d="M90.1,150.6c2.3,0.1,3.4,2.1,3.4,3.6c0,1.4-1.1,3.4-3.4,3.3c-2.3-0.2-3.4-2.2-3.4-3.7
		C86.7,152.4,87.8,150.5,90.1,150.6z"/>
	<path class="st2" d="M90.1,138.3c2.6,0.1,3.8,2.4,3.8,4c0,1.6-1.3,3.9-3.8,3.7c-2.5-0.1-3.8-2.4-3.8-4
		C86.3,140.4,87.5,138.2,90.1,138.3z"/>
	<path class="st2" d="M90.1,126c2.9,0,4.2,2.6,4.2,4.4c0,1.8-1.4,4.3-4.2,4.2c-2.8-0.1-4.2-2.6-4.2-4.4
		C85.9,128.4,87.3,125.9,90.1,126z"/>
	<path class="st2" d="M90.1,123c-3.1,0-4.6-2.7-4.6-4.7c0-2,1.5-4.7,4.6-4.7c3.1,0,4.7,2.7,4.7,4.7C94.7,120.3,93.2,123.1,90.1,123z
		"/>
	<path class="st2" d="M90.1,61c-1.7,0.2-2.6-1.3-2.6-2.4c0-1.2,0.9-2.7,2.6-2.9c1.7-0.2,2.6,1.3,2.6,2.4
		C92.7,59.3,91.8,60.8,90.1,61z"/>
	<path class="st2" d="M90.1,73.3c-2,0.1-3-1.5-3-2.8c0-1.3,1-3.1,3-3.3c2-0.2,3,1.6,3,2.8C93.1,71.4,92.1,73.2,90.1,73.3z"/>
	<path class="st2" d="M90.1,85.6c-2.3,0.1-3.4-1.8-3.4-3.2c0-1.5,1.1-3.5,3.4-3.7c2.3-0.2,3.4,1.8,3.4,3.3
		C93.5,83.5,92.4,85.5,90.1,85.6L90.1,85.6z"/>
	<path class="st2" d="M90.1,97.9c-2.5,0.1-3.8-2.1-3.8-3.7c0-1.7,1.3-3.9,3.8-4c2.6-0.1,3.8,2.1,3.8,3.7
		C93.9,95.6,92.7,97.9,90.1,97.9z"/>
	<path class="st2" d="M90.1,110.3c-2.8,0-4.2-2.4-4.2-4.2c0-1.8,1.4-4.3,4.2-4.4c2.9-0.1,4.2,2.4,4.2,4.2
		C94.3,107.7,92.9,110.2,90.1,110.3L90.1,110.3z"/>
	<path class="st2" d="M105,188.9c1.4,0.1,2.2,1.4,2.2,2.4c0,0.9-0.8,2.2-2.2,2.1c-1.4-0.1-2.2-1.4-2.2-2.4
		C102.8,190.1,103.6,188.8,105,188.9L105,188.9z"/>
	<path class="st2" d="M105,176.3c1.7,0.1,2.6,1.7,2.6,2.8c0,1.1-0.9,2.6-2.6,2.5c-1.7-0.1-2.6-1.7-2.6-2.8
		C102.4,177.8,103.3,176.2,105,176.3z"/>
	<path class="st2" d="M105,163.8c2,0.1,3,1.9,3,3.2c0,1.3-1,3.1-3,3c-2-0.1-3-1.9-3-3.2C102,165.4,103,163.7,105,163.8L105,163.8z"
		/>
	<path class="st2" d="M105,151.2c2.3,0.1,3.5,2.1,3.5,3.6c0,1.5-1.2,3.5-3.5,3.4c-2.3-0.1-3.4-2.1-3.4-3.6
		C101.6,153.2,102.8,151.2,105,151.2L105,151.2z"/>
	<path class="st2" d="M105,138.7c2.6,0.1,3.9,2.4,3.9,4c0,1.6-1.3,3.9-3.9,3.9c-2.6-0.1-3.9-2.4-3.9-4
		C101.2,140.9,102.5,138.6,105,138.7z"/>
	<path class="st2" d="M105,126.1c2.9,0,4.3,2.6,4.3,4.4c0,1.8-1.4,4.4-4.3,4.3c-2.9,0-4.3-2.6-4.3-4.4
		C100.8,128.6,102.2,126.1,105,126.1z"/>
	<path class="st2" d="M105,123.1c-3.2,0-4.7-2.8-4.7-4.8c0-2,1.5-4.8,4.7-4.8c3.2,0,4.7,2.8,4.7,4.8
		C109.8,120.3,108.2,123.1,105,123.1z"/>
	<path class="st2" d="M105,47.3c-1.4,0.1-2.2-1.2-2.2-2.1c0-1,0.8-2.3,2.2-2.4c1.4-0.1,2.2,1.2,2.2,2.1
		C107.3,45.9,106.5,47.2,105,47.3z"/>
	<path class="st2" d="M105,59.9c-1.7,0.1-2.6-1.4-2.6-2.5c0-1.2,0.9-2.7,2.6-2.8c1.7-0.1,2.6,1.4,2.6,2.5
		C107.7,58.2,106.8,59.8,105,59.9z"/>
	<path class="st2" d="M105,72.4c-2,0.1-3-1.7-3-2.9c0-1.3,1-3.1,3-3.2c2-0.1,3,1.7,3,3C108.1,70.5,107.1,72.4,105,72.4L105,72.4z"/>
	<path class="st2" d="M105,85c-2.3,0.1-3.5-1.9-3.5-3.4c0-1.5,1.2-3.6,3.5-3.6c2.3-0.1,3.5,2,3.5,3.4C108.5,82.9,107.4,84.9,105,85z
		"/>
	<path class="st2" d="M105,97.6c-2.6,0.1-3.9-2.2-3.9-3.8c0-1.7,1.3-4,3.9-4c2.6-0.1,3.9,2.2,3.9,3.9
		C108.9,95.2,107.7,97.5,105,97.6L105,97.6z"/>
	<path class="st2" d="M105,110.1c-2.9,0-4.3-2.5-4.3-4.3c0-1.8,1.4-4.4,4.3-4.4c2.9,0,4.3,2.5,4.3,4.3
		C109.3,107.5,107.9,110.1,105,110.1z"/>
	<path class="st2" d="M119.9,202.3c-1.2,0.1-1.8,1.1-1.8,1.9c0,0.8,0.7,1.8,1.8,1.8c1.1,0,1.8-1.1,1.8-1.9
		C121.7,203,120.8,202.2,119.9,202.3z"/>
	<path class="st2" d="M119.9,189.6c-1.4,0-2.2,1.3-2.2,2.3c0,1,0.8,2.3,2.2,2.2c1.4,0,2.2-1.3,2.2-2.3
		C122.1,190.8,121.3,189.5,119.9,189.6z"/>
	<path class="st2" d="M119.9,176.9c-1.7,0-2.6,1.6-2.6,2.7c0,1.1,0.9,2.7,2.6,2.7c1.7,0,2.6-1.6,2.6-2.8
		C122.5,178.4,121.6,176.9,119.9,176.9L119.9,176.9z"/>
	<path class="st2" d="M119.9,164.2c-2,0-3.1,1.8-3.1,3.2c0,1.3,1,3.1,3.1,3.1c2,0,3.1-1.9,3.1-3.2
		C122.9,166,121.9,164.2,119.9,164.2L119.9,164.2z"/>
	<path class="st2" d="M119.9,151.5c-2.3,0-3.5,2.1-3.5,3.6c0,1.5,1.2,3.6,3.5,3.5c2.3,0,3.5-2.1,3.5-3.6
		C123.3,153.6,122.2,151.5,119.9,151.5z"/>
	<path class="st2" d="M119.9,138.9c-2.6,0-3.9,2.3-3.9,4c0,1.6,1.3,4,3.9,4c2.6,0,3.9-2.4,3.9-4
		C123.7,141.2,122.5,138.8,119.9,138.9L119.9,138.9z"/>
	<path class="st2" d="M119.9,126.2c-2.9,0-4.3,2.6-4.3,4.4c0,1.8,1.4,4.4,4.3,4.4c2.9,0,4.3-2.6,4.3-4.4
		C124.2,128.7,122.8,126.2,119.9,126.2L119.9,126.2z"/>
	<path class="st2" d="M119.9,113.5c-3.2,0-4.7,2.8-4.7,4.8c0,2,1.5,4.8,4.7,4.8c3.2,0,4.7-2.8,4.7-4.8S123.1,113.5,119.9,113.5z"/>
	<path class="st2" d="M119.9,34c1,0,1.8-0.8,1.8-1.8c0-0.8-0.7-1.9-1.8-1.9c-1.1,0-1.8,1-1.8,1.8C118.1,32.9,118.7,33.9,119.9,34
		L119.9,34z"/>
	<path class="st2" d="M119.9,46.7c1.4,0,2.2-1.2,2.2-2.2c0-1-0.8-2.3-2.2-2.3c-1.4,0-2.2,1.3-2.2,2.2
		C117.6,45.3,118.4,46.6,119.9,46.7L119.9,46.7z"/>
	<path class="st2" d="M119.9,59.3c1.7,0,2.6-1.5,2.6-2.6c0-1.2-0.9-2.7-2.6-2.8c-1.7,0-2.6,1.5-2.6,2.7
		C117.2,57.7,118.1,59.3,119.9,59.3L119.9,59.3z"/>
	<path class="st2" d="M119.9,72c2,0,3.1-1.8,3.1-3.1c0-1.3-1-3.1-3.1-3.2c-2,0-3.1,1.8-3.1,3.1C116.8,70.2,117.8,72,119.9,72z"/>
	<path class="st2" d="M119.9,84.7c2.3,0,3.5-2,3.5-3.5c0-1.5-1.2-3.6-3.5-3.6c-2.3,0-3.5,2-3.5,3.5
		C116.4,82.6,117.5,84.7,119.9,84.7L119.9,84.7z"/>
	<path class="st2" d="M119.9,97.4c2.6,0,3.9-2.3,3.9-3.9c0-1.7-1.3-4-3.9-4c-2.6,0-3.9,2.3-3.9,4C116,95,117.2,97.3,119.9,97.4z"/>
	<path class="st2" d="M119.9,110c2.9,0,4.3-2.6,4.3-4.4c0-1.8-1.4-4.4-4.3-4.4c-2.9,0-4.3,2.6-4.3,4.4
		C115.6,107.4,116.9,110,119.9,110L119.9,110z"/>
</g>
<g>
	<circle class="st3" cx="123.7" cy="113.3" r="35.8"/>
	<g>
		<path class="st4" d="M118.4,82.1c-0.9,0.9-1.4,1.5-2.2,3.1c-1.4,2.9-1.9,5.6-1.6,8.4c0.2,1.6,0.7,3.2,1.1,3.5
			c0.1,0.1,0.2,0.3,0.2,0.3c0,0.1,0.1,0.3,0.3,0.5c0.3,0.3,0.3,0.3-0.1,0.2c-0.9-0.3-2.1-1.2-2.9-2.3c-0.6-0.9-1.3-2.5-1.5-4.3
			c-0.1-0.4-0.2-0.6-0.3-0.6c-0.3,0-2.8,1.3-2.9,1.4c0,0.1-0.1,0.1-0.2,0.1c-0.1,0-0.3,0.1-0.6,0.3c-0.2,0.2-1,0.8-1.7,1.3
			c-1.2,1-3.6,3.2-4.3,4.2c-0.2,0.3-0.5,0.6-0.6,0.7c-0.2,0.2-0.6,0.8-1.4,2.1c-0.4,0.7-1.1,1.9-1.1,2.1c0,0.1,0.5-0.3,1.2-0.9
			c2.3-1.9,4.1-2.9,6.3-3.5c2-0.6,2.1-0.5,0.6,0.5c-1.4,0.9-4.1,3.5-5,4.8c-2.5,3.4-3.9,6.3-4.4,9.1c-0.4,2.1-0.4,5.8,0,5.8
			c0.1,0,0.1-0.1,0.1-0.3c0-1.1,1.8-5.2,3.1-6.8c1.5-1.9,4.1-4.3,4.8-4.3c0.1,0,0,0.1-0.1,0.3c-0.3,0.3-1.2,1.9-1.9,3.1
			c-1.4,2.6-2.4,6.3-2.4,8.9c0,2.3,0.8,5.4,2,7.3c0.3,0.5,0.5,0.9,0.5,1c0,0.2,2,2.3,2.8,3c0.7,0.6,1.8,1.3,2.8,1.7
			c0.9,0.5,2.4,0.9,2.5,0.8c0,0-0.4-0.6-1-1.2c-2-2.2-3.5-4.7-4.3-7.1c-0.6-1.7-0.3-6.1,0.5-7.1c0.2-0.2,0.2-0.2,0.2,0.6
			c0,2,0.9,4.2,2.6,6.3c0.5,0.7,1,1.3,1.1,1.3c0,0,0.6,0.6,1.1,1.3c0.6,0.7,1.1,1.2,1.1,1.3c0.6,0.6,3,3.9,3,4.2
			c0,0.1,0.1,0.2,0.1,0.2c0.2,0.1,1.4,2.6,1.8,4c0.3,0.8,0.4,1.8,0.5,2.7c0,0.8,0.1,1.5,0.2,1.5c0.4,0,1.7-2.1,2.1-3.3
			c0.5-1.4,0.6-4,0.2-5.5c-0.3-1.4-1-3-1.9-4.2c-0.4-0.5-0.6-1-0.6-1c0.6,0,3.7,2.9,4.3,4.1c0.2,0.3,0.5,0.9,0.7,1.2
			c0.8,1.4,1.1,2.9,1.1,4.8c0,2.4-0.6,4.2-1.9,6.5c-0.2,0.3-0.4,0.7-0.5,0.8c-0.3,0.4,0.1,0.3,1.2-0.3c2.6-1.5,5.7-4.5,7.1-7.1
			c0.5-0.9,1-2.9,1-3.9c0-1.4-0.7-4-1.2-4.5c-0.2-0.2-0.2-0.1-0.3,0.6c-0.2,1.7-1.2,4.5-1.3,3.8c-0.4-2.1-0.9-3.4-1.9-4.9
			c-1.2-1.8-2.4-2.7-6.6-5.3c-2.6-1.6-3.6-2.3-5.6-4.1c-0.8-0.7-1.9-1.8-1.9-2c0-0.1-0.1-0.2-0.2-0.3c-0.4-0.4-1.2-1.8-1.6-2.8
			c-0.3-0.8-0.4-1.2-0.4-3.1c0-1.9,0.1-2.3,0.4-3.4c0.2-0.7,0.7-1.7,1-2.3c0.6-1,2-2.6,3-3.3c0.6-0.4,2.5-1.4,3.2-1.5
			c0.5-0.1,0.4-0.1-0.3,0.7c-1.9,1.8-3.5,4.4-4.1,6.4c-0.4,1.6-0.5,5-0.1,5c0.1,0,0.1-0.1,0.1-0.2c0-0.4,0.8-1.9,1.5-2.8
			c0.4-0.5,1-1.2,1.5-1.6c0.4-0.3,0.8-0.7,0.8-0.7c0.1-0.1,2.2-1.2,2.7-1.3c0.4-0.1,0.4-0.1-0.6,1.3c-1.4,2-2.2,4.8-2.1,7
			c0.1,1.1,0.7,3.6,1,3.9c0.1,0,0.3,0.4,0.6,0.8c0.6,0.9,1.8,2,2.8,2.9c1.1,0.8,1.5,0.9,0.9,0c-0.9-1.3-1.5-4.4-1.1-6.1
			c0.2-1,0.9-2.6,1.1-2.6c0.1,0,0.1,0.4,0.1,0.9c0,2.5,0.8,4.1,3.3,6.6c1,1,2.3,2.2,2.8,2.8c3,2.8,4.4,5.2,4.8,8.4
			c0.2,1.8,0.1,3.4-0.4,4.8c-0.2,0.5-0.2,0.9-0.2,0.9c0.2,0,1.4-1.7,2-2.9c0.7-1.3,1.3-3.8,1.3-5.1c0-1.8-0.6-3.7-1.6-5.2
			c-0.8-1.2-1.5-1.9-3.3-3.3c-2.2-1.6-2.6-2.4-1.9-3.2c0.3-0.3,0.6-0.3,2-0.3c1.5,0,1.9,0.1,3.7,0.7c3.2,1,3.5,1.1,5.3,1.1
			c1.4,0,1.8-0.1,2.4-0.3c0.7-0.3,1.9-1.3,1.9-1.6c0-0.1-0.7-0.2-1.5-0.3c-0.9-0.1-2.1-0.4-3.1-0.8c-2.9-1-6-2.1-6.9-2.3
			c-0.5-0.1-0.8-0.3-0.8-0.3c0-0.1,0.3-0.2,0.7-0.3c0.8-0.2,2.5,0,3.8,0.5c0.4,0.2,1.6,0.6,2.5,0.9c3.8,1.4,5.8,1.6,7.3,0.8
			c0.8-0.4,1.7-1.2,1.7-1.4c0-0.1-0.3-0.4-0.6-0.7c-0.8-0.7-1.3-1.7-1.2-2.6c0-0.3,1.2-0.6,2.4-0.5l1.2,0.1l-0.4-0.3
			c-0.2-0.2-0.8-0.6-1.2-0.9c-0.4-0.3-1.1-0.7-1.4-1c-1.3-1-2.7-2-2.8-2.1c-0.1-0.1-0.6-0.4-1.2-0.8s-1.1-0.7-1.1-0.8
			s-0.6-0.4-1.3-0.9s-1.3-0.9-1.4-0.9c-0.1-0.1-0.3-0.7-0.4-1.3c-0.3-1.7-0.7-2.4-2.2-3.9c-2.1-2.1-5.1-4.1-8.2-5.7
			c-1.1-0.5-2-1-2.2-1.1c-0.2-0.1-0.4-0.1-0.5-0.1c-0.1,0-0.5-0.6-1-1.5c-0.7-1.5-1.4-2.7-1.7-2.9c-0.1,0-0.1-0.1-0.1-0.2
			c0-0.1-0.5-0.8-1.7-2.2c-0.8-1-2.3-2.3-2.5-2.3C119.1,81.5,118.7,81.8,118.4,82.1 M119,85.6c-0.5,0.6-1.2,2.2-1.4,3.2
			c-0.1,0.5-0.2,1.6-0.1,2.5c0.1,1.5,0.1,1.7,0.6,2.7c0.8,1.5,2.6,3.2,2.3,2.2c-0.3-1.1-0.4-2.1-0.3-3.2c0.1-1.3,0.1-1.3,0.5-1.3
			c0.4,0,2.1,0.8,2.5,1.2c0.4,0.4,0.5,0.1,0.3-1.1c-0.2-1.1-1.2-3.4-2-4.7c-0.4-0.6-1.6-1.9-1.8-1.9C119.4,85.1,119.2,85.3,119,85.6
			 M127.8,86.3c-0.5,1-1,2.5-1,3c0,0.2,0.2,0.3,0.6,0.5c1.3,0.5,2.7,1.1,3.7,1.6c0.6,0.3,1.1,0.6,1.1,0.7c0.4,0.2-2.1-4.7-2.7-5.3
			c-0.1-0.1-0.2-0.3-0.2-0.3c0-0.1-0.9-1.1-1-1.1C128.3,85.3,128.1,85.7,127.8,86.3 M128.3,100.1l-1.3,0.1l0.7,0.3
			c2.3,1,2.6,1.2,3.2,2c0.9,1.3,1.6,1.7,3.3,1.9c1.1,0.1,1.7,0.2,2.3,0.5c1,0.5,1,0.5,1,0.2c0-0.7-3-4.3-3.6-4.3
			c-0.1,0-0.2-0.1-0.2-0.1C133.6,100.2,130.7,99.9,128.3,100.1"/>
	</g>
</g>
</svg>
