<?xml version="1.0" encoding="UTF-8"?>
<svg id="Layer_1" xmlns="http://www.w3.org/2000/svg" version="1.1" xmlns:xlink="http://www.w3.org/1999/xlink" viewBox="0 0 240 240">
  <!-- Generator: Adobe Illustrator 29.6.0, SVG Export Plug-In . SVG Version: 2.1.1 Build 207)  -->
  <defs>
    <style>
      .st0 {
        fill: #111217;
      }

      .st1 {
        fill-rule: evenodd;
      }

      .st1, .st2 {
        fill: #423eee;
      }

      .st3 {
        fill: #27268d;
      }

      .st4 {
        fill: url(#linear-gradient);
      }

      .st5 {
        opacity: .35;
      }
    </style>
    <linearGradient id="linear-gradient" x1="39.88" y1="262.32" x2="200.12" y2="-22.54" gradientTransform="translate(0 239.89) scale(1 -1)" gradientUnits="userSpaceOnUse">
      <stop offset="0" stop-color="#322fb4"/>
      <stop offset="1" stop-color="#3835ca"/>
    </linearGradient>
  </defs>
  <rect class="st4" y="0" width="240" height="240"/>
  <g class="st5">
    <path class="st0" d="M232.27,182.38c-.61.39-1.11,1.13-1.11,1.65s.5.63,1.11.23c.61-.4,1.1-1.15,1.1-1.66s-.49-.61-1.1-.22h0Z"/>
    <path class="st0" d="M232.27,173.96c-.8.44-1.45,1.35-1.45,2.04s.65.88,1.45.42c.8-.46,1.44-1.38,1.44-2.05s-.64-.85-1.44-.4Z"/>
    <path class="st0" d="M232.27,165.55c-1.03.5-1.76,1.45-1.78,2.36-.02.83.83,1.15,1.78.66,1.01-.52,1.74-1.47,1.76-2.38.02-.8-.81-1.11-1.76-.64h0Z"/>
    <path class="st0" d="M232.27,157.13c-1.25.51-2.09,1.59-2.12,2.64-.02.99.99,1.45,2.12.95,1.21-.53,2.07-1.61,2.09-2.65.03-.95-.97-1.39-2.09-.93Z"/>
    <path class="st0" d="M232.27,148.72c-1.47.49-2.4,1.7-2.45,2.86-.05,1,1.13,1.79,2.45,1.29,1.41-.53,2.37-1.72,2.42-2.87.05-.99-1.14-1.7-2.42-1.28h0Z"/>
    <path class="st0" d="M232.27,140.3c-1.69.4-2.75,1.75-2.79,3.02-.04,1.13,1.21,2.15,2.79,1.69,1.62-.47,2.71-1.77,2.75-3.04.04-1.12-1.23-2.04-2.75-1.67Z"/>
    <path class="st0" d="M232.27,131.89c-1.91.28-3.1,1.77-3.13,3.14-.02,1.26,1.29,2.52,3.13,2.14,1.82-.37,3.05-1.78,3.08-3.15.02-1.25-1.32-2.38-3.08-2.13h0Z"/>
    <path class="st0" d="M232.27,123.47c-2.12.12-3.46,1.73-3.47,3.2,0,1.41,1.38,2.89,3.47,2.65,2.01-.24,3.39-1.75,3.41-3.21.01-1.4-1.43-2.74-3.41-2.64h0Z"/>
    <path class="st0" d="M232.27,121.47c2.19-.08,3.73-1.66,3.73-3.21s-1.54-3.13-3.73-3.2c-2.32-.08-3.8,1.64-3.8,3.21s1.48,3.28,3.8,3.2Z"/>
    <path class="st0" d="M232.27,53.85c.61.39,1.1.29,1.1-.22s-.49-1.26-1.1-1.66-1.11-.3-1.11.23.5,1.27,1.11,1.66Z"/>
    <path class="st0" d="M232.27,62.26c.8.44,1.44.26,1.43-.4,0-.67-.64-1.59-1.43-2.05-.8-.46-1.45-.27-1.45.42s.65,1.6,1.45,2.04h0Z"/>
    <path class="st0" d="M232.27,70.68c.95.47,1.79.16,1.76-.64-.03-.91-.76-1.85-1.76-2.38-.95-.49-1.8-.18-1.78.66.02.91.75,1.86,1.78,2.36h0Z"/>
    <path class="st0" d="M232.27,79.09c1.13.46,2.12.02,2.09-.93-.03-1.04-.89-2.12-2.09-2.65-1.13-.5-2.14-.04-2.12.95.02,1.05.87,2.13,2.12,2.64h0Z"/>
    <path class="st0" d="M232.27,87.51c1.28.43,2.47-.28,2.42-1.28-.05-1.16-1.02-2.34-2.42-2.87-1.32-.5-2.5.29-2.45,1.29.05,1.15.99,2.37,2.45,2.86h0Z"/>
    <path class="st0" d="M232.27,95.92c1.52.36,2.79-.56,2.75-1.67-.04-1.27-1.13-2.57-2.75-3.04-1.58-.46-2.83.57-2.79,1.69.04,1.27,1.1,2.62,2.79,3.02Z"/>
    <path class="st0" d="M232.27,104.34c1.76.25,3.1-.88,3.08-2.13-.03-1.38-1.26-2.78-3.08-3.15-1.84-.38-3.15.88-3.13,2.14.02,1.37,1.22,2.86,3.13,3.14h0Z"/>
    <path class="st0" d="M232.27,112.75c1.98.11,3.42-1.24,3.41-2.64-.01-1.46-1.39-2.97-3.41-3.21-2.09-.25-3.47,1.24-3.47,2.65.01,1.47,1.35,3.09,3.47,3.2h0Z"/>
    <path class="st0" d="M219.85,170.89c-1.13.47-1.86,1.48-1.88,2.43-.02.93.88,1.37,1.88.93,1.11-.49,1.84-1.49,1.87-2.44.02-.9-.87-1.33-1.87-.91Z"/>
    <path class="st0" d="M219.85,161.52c-1.37.49-2.18,1.66-2.23,2.74-.04.91.98,1.74,2.23,1.25,1.33-.52,2.16-1.67,2.21-2.75.04-.9-.99-1.67-2.21-1.23Z"/>
    <path class="st0" d="M219.85,152.16c-1.6.44-2.54,1.78-2.59,3-.04,1.04,1.08,2.09,2.59,1.62,1.56-.49,2.52-1.8,2.56-3.01.04-1.04-1.1-2-2.56-1.6h0Z"/>
    <path class="st0" d="M219.85,142.8c-1.83.37-2.91,1.86-2.94,3.21-.03,1.18,1.18,2.47,2.94,2.04,1.78-.43,2.88-1.88,2.91-3.23.03-1.18-1.2-2.36-2.91-2.02Z"/>
    <path class="st0" d="M219.85,133.44c-2.07.25-3.28,1.93-3.3,3.38-.02,1.33,1.27,2.84,3.3,2.5,1.99-.33,3.24-1.94,3.26-3.39.02-1.33-1.3-2.72-3.26-2.49h0Z"/>
    <path class="st0" d="M219.85,124.07c-2.3.11-3.65,1.93-3.65,3.5,0,1.49,1.38,3.24,3.65,3.01,2.21-.22,3.59-1.95,3.6-3.51,0-1.49-1.41-3.1-3.6-3Z"/>
    <path class="st0" d="M219.85,121.85c2.42-.07,3.95-1.91,3.95-3.57s-1.53-3.5-3.95-3.56c-2.53-.07-4.01,1.9-4.01,3.57s1.48,3.64,4.01,3.56Z"/>
    <path class="st0" d="M219.85,65.34c1,.41,1.89-.01,1.87-.91-.02-.95-.76-1.96-1.87-2.45-1-.44-1.9,0-1.88.93.02.95.75,1.96,1.88,2.43Z"/>
    <path class="st0" d="M219.85,74.7c1.23.43,2.26-.33,2.21-1.23-.05-1.08-.88-2.24-2.21-2.75-1.26-.49-2.28.34-2.23,1.25.05,1.08.86,2.25,2.23,2.74h0Z"/>
    <path class="st0" d="M219.85,84.06c1.47.4,2.6-.56,2.56-1.6-.05-1.21-1.01-2.53-2.56-3.01-1.51-.47-2.63.58-2.59,1.62.04,1.21.99,2.56,2.59,3Z"/>
    <path class="st0" d="M219.85,93.43c1.71.34,2.94-.84,2.91-2.02-.03-1.34-1.13-2.8-2.91-3.23-1.77-.43-2.97.85-2.94,2.04.03,1.34,1.11,2.84,2.94,3.21Z"/>
    <path class="st0" d="M219.85,102.79c1.95.23,3.28-1.16,3.26-2.48-.02-1.45-1.26-3.06-3.26-3.39-2.02-.34-3.32,1.17-3.3,2.5.02,1.45,1.23,3.13,3.3,3.38Z"/>
    <path class="st0" d="M219.85,112.15c2.19.1,3.61-1.51,3.6-3,0-1.56-1.4-3.29-3.6-3.51-2.28-.23-3.66,1.51-3.65,3.01,0,1.56,1.35,3.39,3.65,3.5Z"/>
    <path class="st0" d="M206.8,195.95c-.68.3-1.23,1.05-1.23,1.69s.55.9,1.23.6c.68-.31,1.22-1.07,1.22-1.69s-.55-.89-1.22-.59h0Z"/>
    <path class="st0" d="M206.8,185.75c-.98.4-1.58,1.28-1.6,2.1-.01.82.75,1.22,1.6.87.96-.41,1.57-1.3,1.59-2.11.02-.8-.74-1.2-1.59-.86Z"/>
    <path class="st0" d="M206.8,175.56c-1.22.42-1.95,1.49-1.97,2.48-.02,1.01.93,1.56,1.97,1.18,1.2-.44,1.94-1.51,1.95-2.49.02-.99-.91-1.53-1.95-1.16Z"/>
    <path class="st0" d="M206.8,165.37c-1.47.43-2.29,1.7-2.34,2.81-.04.94.94,1.97,2.34,1.53,1.44-.46,2.28-1.71,2.32-2.83.04-.94-.95-1.9-2.32-1.51h0Z"/>
    <path class="st0" d="M206.8,155.18c-1.71.38-2.67,1.85-2.71,3.11-.03,1.09,1.07,2.34,2.71,1.92,1.67-.43,2.65-1.87,2.68-3.13.03-1.09-1.08-2.26-2.68-1.9h0Z"/>
    <path class="st0" d="M206.8,144.99c-1.96.32-3.06,1.97-3.08,3.36-.02,1.24,1.16,2.73,3.08,2.35,1.91-.38,3.02-1.99,3.05-3.38.02-1.24-1.18-2.63-3.05-2.33Z"/>
    <path class="st0" d="M206.8,134.79c-2.21.22-3.44,2.06-3.45,3.58-.01,1.4,1.26,3.13,3.45,2.82,2.15-.3,3.4-2.07,3.41-3.59.01-1.4-1.29-3.02-3.41-2.8h0Z"/>
    <path class="st0" d="M206.8,124.6c-2.46.09-3.82,2.12-3.82,3.75,0,1.57,1.37,3.53,3.82,3.33,2.38-.19,3.77-2.13,3.77-3.76,0-1.57-1.41-3.41-3.77-3.32Z"/>
    <path class="st0" d="M206.8,122.18c2.61-.06,4.14-2.14,4.14-3.89s-1.53-3.82-4.14-3.88c-2.71-.06-4.19,2.14-4.19,3.89s1.49,3.94,4.19,3.88Z"/>
    <path class="st0" d="M206.8,81.05c1.6.36,2.72-.81,2.68-1.9-.04-1.26-1.01-2.7-2.68-3.13-1.64-.42-2.74.83-2.71,1.92.04,1.26,1,2.73,2.71,3.11h0Z"/>
    <path class="st0" d="M206.8,91.24c1.87.3,3.07-1.09,3.05-2.33-.02-1.39-1.14-3-3.05-3.38-1.92-.38-3.1,1.11-3.08,2.35.02,1.39,1.12,3.05,3.08,3.36h0Z"/>
    <path class="st0" d="M206.8,101.43c2.12.22,3.43-1.41,3.41-2.8-.01-1.52-1.26-3.29-3.41-3.59-2.18-.31-3.46,1.42-3.45,2.82.01,1.52,1.24,3.35,3.45,3.58Z"/>
    <path class="st0" d="M206.8,111.62c2.37.09,3.78-1.75,3.77-3.32,0-1.63-1.39-3.57-3.77-3.76-2.45-.2-3.83,1.76-3.82,3.33,0,1.63,1.36,3.66,3.82,3.75h0Z"/>
    <path class="st0" d="M193.2,190.47c-1.04.35-1.65,1.28-1.66,2.11-.01.87.78,1.37,1.66,1.07,1.03-.36,1.64-1.29,1.65-2.12.01-.86-.77-1.35-1.65-1.06Z"/>
    <path class="st0" d="M193.2,179.57c-1.29.37-2.03,1.5-2.04,2.5-.01,1.08.96,1.74,2.04,1.41,1.27-.39,2.02-1.51,2.03-2.52.01-1.06-.95-1.7-2.03-1.39h0Z"/>
    <path class="st0" d="M193.2,168.66c-1.55.36-2.39,1.72-2.42,2.86-.03.97.93,2.16,2.42,1.78,1.52-.39,2.37-1.74,2.41-2.88.03-.97-.94-2.1-2.41-1.76Z"/>
    <path class="st0" d="M193.2,157.76c-1.81.34-2.78,1.89-2.81,3.19-.02,1.13,1.04,2.56,2.81,2.19,1.78-.38,2.76-1.91,2.79-3.21.02-1.13-1.06-2.49-2.79-2.17Z"/>
    <path class="st0" d="M193.2,146.86c-2.07.27-3.17,2.05-3.19,3.48-.02,1.29,1.15,2.95,3.19,2.63,2.02-.32,3.15-2.07,3.17-3.5.02-1.29-1.17-2.87-3.17-2.61Z"/>
    <path class="st0" d="M193.2,135.96c-2.33.19-3.57,2.17-3.58,3.74,0,1.46,1.27,3.37,3.58,3.1,2.28-.26,3.54-2.18,3.55-3.76.01-1.46-1.29-3.27-3.55-3.09Z"/>
    <path class="st0" d="M193.2,125.05c-2.6.08-3.96,2.27-3.96,3.97,0,1.64,1.37,3.78,3.96,3.61,2.53-.17,3.92-2.28,3.93-3.97,0-1.64-1.4-3.68-3.93-3.6Z"/>
    <path class="st0" d="M193.2,122.46c2.77-.06,4.3-2.33,4.3-4.16s-1.53-4.1-4.3-4.15c-2.85-.05-4.35,2.33-4.35,4.16,0,1.83,1.5,4.21,4.35,4.15Z"/>
    <path class="st0" d="M193.2,56.66c1.08.31,2.04-.33,2.03-1.39-.01-1.01-.76-2.13-2.03-2.52-1.08-.33-2.05.33-2.04,1.41.01,1.01.75,2.13,2.04,2.5Z"/>
    <path class="st0" d="M193.2,67.56c1.47.34,2.44-.79,2.41-1.76-.04-1.14-.89-2.49-2.41-2.88-1.49-.38-2.45.81-2.42,1.78.04,1.14.88,2.5,2.42,2.86h0Z"/>
    <path class="st0" d="M193.2,78.46c1.73.32,2.81-1.04,2.79-2.17-.02-1.3-1.01-2.83-2.79-3.21-1.76-.37-2.83,1.06-2.81,2.19.02,1.3,1,2.85,2.81,3.19h0Z"/>
    <path class="st0" d="M193.2,89.37c2,.26,3.19-1.32,3.17-2.61-.02-1.43-1.14-3.18-3.17-3.5-2.04-.32-3.21,1.34-3.19,2.63.02,1.43,1.12,3.21,3.19,3.48h0Z"/>
    <path class="st0" d="M193.2,100.27c2.26.19,3.56-1.62,3.55-3.09-.01-1.57-1.27-3.5-3.55-3.76-2.31-.26-3.59,1.64-3.58,3.1,0,1.57,1.25,3.55,3.58,3.74Z"/>
    <path class="st0" d="M193.2,111.17c2.52.08,3.93-1.96,3.93-3.6,0-1.7-1.39-3.81-3.93-3.97-2.59-.17-3.97,1.97-3.96,3.61,0,1.7,1.37,3.88,3.96,3.96Z"/>
    <path class="st0" d="M179.12,171.41c-1.61.29-2.47,1.73-2.5,2.89-.02,1.01.93,2.32,2.5,2.01,1.59-.32,2.46-1.74,2.49-2.91.03-1.02-.93-2.27-2.49-1.99Z"/>
    <path class="st0" d="M179.12,159.91c-1.89.27-2.88,1.93-2.89,3.24-.01,1.17,1.03,2.73,2.89,2.42,1.87-.3,2.86-1.95,2.88-3.26.02-1.17-1.04-2.67-2.88-2.41Z"/>
    <path class="st0" d="M179.12,148.42c-2.16.23-3.28,2.1-3.29,3.57,0,1.34,1.14,3.15,3.29,2.87,2.13-.27,3.26-2.12,3.27-3.59.01-1.34-1.16-3.08-3.27-2.85Z"/>
    <path class="st0" d="M179.12,136.93c-2.43.15-3.68,2.26-3.68,3.87,0,1.51,1.26,3.56,3.68,3.35,2.39-.21,3.65-2.28,3.66-3.88,0-1.52-1.28-3.48-3.66-3.33Z"/>
    <path class="st0" d="M179.12,125.43c-2.7.07-4.08,2.39-4.08,4.14,0,1.69,1.38,3.99,4.08,3.85,2.65-.14,4.05-2.4,4.05-4.15,0-1.7-1.4-3.91-4.05-3.84Z"/>
    <path class="st0" d="M179.12,122.7c2.91-.05,4.44-2.5,4.44-4.38s-1.52-4.33-4.44-4.38c-2.98-.04-4.48,2.5-4.48,4.38s1.5,4.42,4.48,4.38h0Z"/>
    <path class="st0" d="M179.12,41.83c.9.25,1.71-.32,1.7-1.24,0-.84-.62-1.8-1.7-2.11-.9-.26-1.71.32-1.71,1.25,0,.84.62,1.8,1.71,2.1Z"/>
    <path class="st0" d="M179.12,53.32c1.28.3,2.12-.75,2.09-1.6-.03-1.01-.76-2.2-2.09-2.52-1.29-.32-2.13.77-2.1,1.61.03,1.01.76,2.2,2.1,2.51h0Z"/>
    <path class="st0" d="M179.12,64.82c1.55.28,2.51-.97,2.49-1.99-.03-1.16-.89-2.59-2.49-2.91-1.57-.31-2.52.99-2.5,2.01.03,1.16.89,2.6,2.5,2.89h0Z"/>
    <path class="st0" d="M179.12,76.31c1.84.26,2.89-1.23,2.88-2.41-.02-1.31-1.01-2.96-2.88-3.26-1.86-.3-2.91,1.26-2.89,2.43.02,1.31,1,2.97,2.89,3.24h0Z"/>
    <path class="st0" d="M179.12,87.8c2.11.22,3.28-1.52,3.27-2.85-.01-1.47-1.14-3.31-3.27-3.59-2.14-.28-3.3,1.54-3.29,2.87.01,1.47,1.13,3.34,3.29,3.57Z"/>
    <path class="st0" d="M179.12,99.3c2.38.15,3.67-1.81,3.66-3.33,0-1.6-1.27-3.67-3.66-3.88-2.42-.21-3.69,1.83-3.68,3.35,0,1.6,1.25,3.71,3.68,3.87Z"/>
    <path class="st0" d="M179.12,110.79c2.64.07,4.05-2.14,4.05-3.84,0-1.75-1.4-4.01-4.05-4.15-2.7-.14-4.08,2.15-4.08,3.85,0,1.75,1.38,4.07,4.08,4.14Z"/>
    <path class="st0" d="M164.67,185.57c-1.38.24-2.13,1.48-2.15,2.49-.02.88.81,2.05,2.15,1.8,1.37-.26,2.12-1.49,2.14-2.51.02-.88-.81-2.02-2.15-1.78h0Z"/>
    <path class="st0" d="M164.67,173.6c-1.66.22-2.53,1.72-2.56,2.89-.02,1.05.93,2.45,2.56,2.21,1.64-.24,2.52-1.74,2.55-2.91.02-1.06-.93-2.41-2.55-2.19Z"/>
    <path class="st0" d="M164.67,161.64c-1.95.21-2.95,1.94-2.96,3.27-.01,1.21,1.03,2.87,2.96,2.63,1.93-.24,2.93-1.96,2.95-3.28.01-1.22-1.04-2.82-2.95-2.62Z"/>
    <path class="st0" d="M164.67,149.67c-2.23.18-3.36,2.13-3.36,3.62,0,1.38,1.15,3.3,3.36,3.09,2.2-.21,3.34-2.15,3.35-3.64,0-1.38-1.16-3.24-3.35-3.07h0Z"/>
    <path class="st0" d="M164.67,137.7c-2.51.12-3.76,2.32-3.77,3.96,0,1.56,1.26,3.73,3.77,3.55,2.48-.17,3.74-2.33,3.75-3.97,0-1.56-1.27-3.66-3.75-3.54Z"/>
    <path class="st0" d="M164.67,125.73c-2.79.05-4.17,2.48-4.17,4.27,0,1.74,1.39,4.16,4.17,4.05,2.75-.11,4.15-2.49,4.15-4.28,0-1.75-1.41-4.09-4.15-4.04Z"/>
    <path class="st0" d="M164.67,122.89c3.02-.04,4.55-2.63,4.55-4.56s-1.53-4.53-4.55-4.56c-3.07-.03-4.58,2.63-4.58,4.56s1.51,4.6,4.58,4.56h0Z"/>
    <path class="st0" d="M164.67,26.72c.74.16,1.34-.3,1.34-1.04s-.6-1.48-1.34-1.64c-.74-.17-1.34.31-1.34,1.05s.6,1.47,1.34,1.63Z"/>
    <path class="st0" d="M164.67,38.68c.92.2,1.75-.45,1.74-1.4,0-.84-.62-1.83-1.74-2.08-.92-.21-1.75.45-1.75,1.41,0,.84.62,1.83,1.75,2.07Z"/>
    <path class="st0" d="M164.67,50.65c1.33.23,2.16-.9,2.14-1.78-.02-1.02-.77-2.25-2.14-2.51-1.35-.25-2.17.92-2.15,1.8.02,1.02.77,2.25,2.15,2.49Z"/>
    <path class="st0" d="M164.67,62.62c1.61.22,2.57-1.13,2.55-2.19-.02-1.17-.9-2.67-2.55-2.91-1.63-.24-2.57,1.15-2.56,2.21.02,1.17.9,2.67,2.56,2.89Z"/>
    <path class="st0" d="M164.67,74.59c1.91.2,2.96-1.4,2.95-2.62-.01-1.33-1.02-3.05-2.95-3.28-1.93-.24-2.97,1.42-2.96,2.64.01,1.32,1.01,3.06,2.96,3.27h0Z"/>
    <path class="st0" d="M164.67,86.56c2.19.18,3.36-1.68,3.35-3.07,0-1.49-1.14-3.42-3.35-3.64-2.22-.22-3.37,1.7-3.36,3.09,0,1.49,1.13,3.44,3.36,3.62h0Z"/>
    <path class="st0" d="M164.67,98.52c2.48.12,3.75-1.98,3.75-3.54,0-1.64-1.27-3.8-3.75-3.97-2.51-.17-3.77,2-3.77,3.56,0,1.63,1.25,3.83,3.77,3.96Z"/>
    <path class="st0" d="M164.67,110.49c2.74.05,4.15-2.29,4.15-4.04,0-1.79-1.4-4.17-4.15-4.28-2.79-.11-4.18,2.3-4.17,4.05,0,1.79,1.39,4.22,4.17,4.27Z"/>
    <path class="st0" d="M149.92,212.22c-.75.12-1.37.82-1.37,1.59s.61,1.29,1.37,1.17c.76-.12,1.37-.83,1.37-1.6s-.61-1.28-1.37-1.17Z"/>
    <path class="st0" d="M149.92,199.9c-1.16.18-1.78,1.19-1.78,2.03,0,.99.84,1.72,1.78,1.56,1.16-.19,1.77-1.2,1.77-2.04,0-.99-.83-1.7-1.77-1.55h0Z"/>
    <path class="st0" d="M149.92,187.57c-1.41.17-2.17,1.44-2.19,2.46-.01.91.81,2.14,2.19,1.96,1.4-.18,2.17-1.45,2.18-2.47.01-.91-.81-2.12-2.18-1.95Z"/>
    <path class="st0" d="M149.92,175.25c-1.71.17-2.59,1.69-2.6,2.87,0,1.07.91,2.57,2.6,2.38,1.7-.19,2.58-1.71,2.59-2.88.01-1.07-.91-2.53-2.59-2.36Z"/>
    <path class="st0" d="M149.92,162.93c-1.99.15-3,1.93-3.01,3.26,0,1.25,1.03,2.98,3.01,2.82,1.98-.17,2.99-1.95,3-3.28,0-1.25-1.03-2.94-3-2.8Z"/>
    <path class="st0" d="M149.92,150.6c-2.28.13-3.41,2.14-3.42,3.64,0,1.42,1.15,3.42,3.42,3.26,2.26-.15,3.4-2.16,3.41-3.66,0-1.42-1.16-3.37-3.41-3.25Z"/>
    <path class="st0" d="M149.92,138.28c-2.57.09-3.83,2.35-3.83,4.01,0,1.6,1.26,3.85,3.83,3.73,2.55-.12,3.81-2.37,3.82-4.02,0-1.6-1.27-3.8-3.82-3.71Z"/>
    <path class="st0" d="M149.92,125.96c-2.85.03-4.24,2.55-4.24,4.36,0,1.78,1.39,4.28,4.24,4.2,2.83-.07,4.22-2.56,4.23-4.37,0-1.78-1.4-4.23-4.23-4.19Z"/>
    <path class="st0" d="M149.92,123.03c3.1-.03,4.63-2.73,4.63-4.7s-1.53-4.67-4.63-4.69c-3.14-.02-4.65,2.73-4.65,4.7s1.51,4.72,4.65,4.69Z"/>
    <path class="st0" d="M149.92,60.97c1.68.17,2.6-1.29,2.59-2.37-.01-1.17-.89-2.7-2.59-2.88-1.69-.19-2.61,1.31-2.6,2.38.01,1.17.89,2.69,2.6,2.87Z"/>
    <path class="st0" d="M149.92,73.3c1.97.14,3.01-1.54,3-2.8-.01-1.33-1.02-3.11-3-3.28-1.98-.17-3.02,1.57-3.01,2.82.01,1.33,1.02,3.11,3.01,3.26Z"/>
    <path class="st0" d="M149.92,85.62c2.25.13,3.41-1.82,3.41-3.25,0-1.5-1.15-3.51-3.41-3.66-2.27-.16-3.43,1.84-3.42,3.26,0,1.5,1.14,3.51,3.42,3.64Z"/>
    <path class="st0" d="M149.92,97.94c2.54.09,3.82-2.11,3.82-3.71,0-1.66-1.27-3.9-3.82-4.02-2.57-.12-3.83,2.13-3.83,3.73,0,1.65,1.26,3.92,3.83,4.01Z"/>
    <path class="st0" d="M149.92,110.27c2.83.03,4.23-2.41,4.23-4.19,0-1.81-1.4-4.29-4.23-4.37-2.85-.08-4.24,2.42-4.24,4.2,0,1.81,1.39,4.33,4.24,4.36h0Z"/>
    <path class="st0" d="M134.95,188.91c-1.42.1-2.2,1.39-2.21,2.4,0,.94.81,2.22,2.21,2.11,1.42-.11,2.2-1.41,2.21-2.41,0-.94-.81-2.19-2.21-2.09h0Z"/>
    <path class="st0" d="M134.95,176.35c-1.73.1-2.62,1.65-2.63,2.82,0,1.1.9,2.65,2.63,2.53,1.73-.11,2.62-1.67,2.62-2.83,0-1.1-.91-2.62-2.62-2.52Z"/>
    <path class="st0" d="M134.95,163.79c-2.02.08-3.04,1.9-3.04,3.23,0,1.28,1.03,3.06,3.04,2.97,2.01-.1,3.03-1.92,3.04-3.25,0-1.29-1.03-3.03-3.04-2.95h0Z"/>
    <path class="st0" d="M134.95,151.23c-2.31.08-3.45,2.13-3.46,3.63,0,1.45,1.15,3.5,3.46,3.41,2.3-.09,3.45-2.15,3.45-3.65,0-1.45-1.16-3.47-3.45-3.39h0Z"/>
    <path class="st0" d="M134.95,138.67c-2.61.05-3.87,2.36-3.87,4.02,0,1.63,1.26,3.93,3.87,3.86,2.6-.07,3.86-2.38,3.86-4.04,0-1.63-1.27-3.9-3.86-3.84Z"/>
    <path class="st0" d="M134.95,126.11c-2.9.02-4.29,2.58-4.29,4.41,0,1.81,1.39,4.37,4.29,4.32,2.88-.05,4.28-2.59,4.28-4.42,0-1.81-1.4-4.33-4.28-4.31Z"/>
    <path class="st0" d="M134.95,123.12c3.16-.02,4.69-2.8,4.69-4.79s-1.53-4.77-4.69-4.78c-3.18-.01-4.7,2.8-4.7,4.79s1.52,4.8,4.7,4.79Z"/>
    <path class="st0" d="M134.95,47.32c1.4.1,2.22-1.15,2.21-2.09-.01-1.01-.79-2.3-2.21-2.41-1.41-.11-2.22,1.17-2.21,2.11,0,1,.79,2.29,2.21,2.4Z"/>
    <path class="st0" d="M134.95,59.88c1.72.1,2.63-1.41,2.62-2.52,0-1.17-.9-2.72-2.62-2.83-1.72-.11-2.63,1.43-2.63,2.53,0,1.16.89,2.71,2.63,2.82Z"/>
    <path class="st0" d="M134.95,72.44c2.01.08,3.04-1.66,3.04-2.95,0-1.33-1.03-3.15-3.04-3.24-2.01-.1-3.05,1.68-3.04,2.97,0,1.33,1.02,3.14,3.04,3.23h0Z"/>
    <path class="st0" d="M134.95,85c2.29.08,3.45-1.94,3.45-3.39,0-1.5-1.15-3.55-3.45-3.65-2.31-.09-3.46,1.96-3.46,3.41,0,1.5,1.15,3.55,3.46,3.63Z"/>
    <path class="st0" d="M134.95,97.56c2.59.05,3.87-2.22,3.86-3.84,0-1.66-1.27-3.96-3.86-4.04-2.61-.07-3.87,2.23-3.87,3.86,0,1.66,1.26,3.97,3.87,4.02h0Z"/>
    <path class="st0" d="M134.95,110.12c2.88.02,4.28-2.5,4.28-4.31,0-1.82-1.39-4.37-4.28-4.42-2.9-.05-4.29,2.51-4.29,4.32,0,1.82,1.39,4.39,4.29,4.41Z"/>
    <path class="st0" d="M7.73,182.38c.61.39,1.11,1.13,1.11,1.65s-.5.63-1.11.23c-.61-.4-1.11-1.15-1.11-1.66s.49-.61,1.11-.22h0Z"/>
    <path class="st0" d="M7.73,173.96c.8.44,1.45,1.35,1.45,2.04s-.65.88-1.45.42c-.8-.46-1.44-1.38-1.44-2.05s.64-.85,1.44-.4Z"/>
    <path class="st0" d="M7.73,165.55c1.03.5,1.76,1.45,1.78,2.36.02.83-.83,1.15-1.78.66-1.01-.52-1.74-1.47-1.77-2.38-.02-.8.81-1.11,1.77-.64h0Z"/>
    <path class="st0" d="M7.73,157.13c1.25.51,2.09,1.59,2.12,2.64.02.99-.99,1.45-2.12.95-1.21-.53-2.07-1.61-2.09-2.65-.03-.95.97-1.39,2.09-.93Z"/>
    <path class="st0" d="M7.73,148.72c1.47.49,2.4,1.7,2.45,2.86.05,1-1.13,1.79-2.45,1.29-1.41-.53-2.37-1.72-2.42-2.87-.05-.99,1.14-1.7,2.42-1.28h0Z"/>
    <path class="st0" d="M7.73,140.3c1.69.4,2.75,1.75,2.79,3.02.04,1.13-1.21,2.15-2.79,1.69-1.62-.47-2.71-1.77-2.75-3.04-.04-1.12,1.23-2.04,2.75-1.67Z"/>
    <path class="st0" d="M7.73,131.89c1.91.28,3.1,1.77,3.13,3.14.02,1.26-1.29,2.52-3.13,2.14-1.82-.37-3.05-1.78-3.08-3.15-.03-1.25,1.32-2.38,3.08-2.13h0Z"/>
    <path class="st0" d="M7.73,123.47c2.12.12,3.45,1.73,3.46,3.2,0,1.41-1.37,2.89-3.46,2.65-2.02-.24-3.39-1.75-3.41-3.21-.01-1.4,1.42-2.74,3.41-2.64h0Z"/>
    <path class="st0" d="M7.73,121.47c-2.19-.08-3.73-1.66-3.73-3.21s1.54-3.13,3.73-3.2c2.32-.08,3.8,1.64,3.8,3.21s-1.48,3.28-3.8,3.2Z"/>
    <path class="st0" d="M7.73,53.85c-.61.39-1.11.29-1.11-.22s.49-1.26,1.11-1.66c.61-.4,1.11-.3,1.11.23s-.5,1.27-1.11,1.66Z"/>
    <path class="st0" d="M7.73,62.26c-.8.44-1.44.26-1.44-.4s.64-1.59,1.44-2.05c.8-.46,1.45-.27,1.45.42s-.65,1.6-1.45,2.04h0Z"/>
    <path class="st0" d="M7.73,70.68c-.95.47-1.79.16-1.77-.64.03-.91.76-1.85,1.77-2.38.95-.49,1.8-.18,1.78.66-.02.91-.75,1.86-1.78,2.36h0Z"/>
    <path class="st0" d="M7.73,79.09c-1.13.46-2.12.02-2.09-.93.03-1.04.89-2.12,2.09-2.65,1.13-.5,2.14-.04,2.12.95-.02,1.05-.87,2.13-2.12,2.64h0Z"/>
    <path class="st0" d="M7.73,87.51c-1.28.43-2.47-.28-2.42-1.28.05-1.16,1.02-2.34,2.42-2.87,1.32-.5,2.5.29,2.45,1.29-.05,1.15-.99,2.37-2.45,2.86h0Z"/>
    <path class="st0" d="M7.73,95.92c-1.52.36-2.79-.56-2.75-1.67.04-1.27,1.13-2.57,2.75-3.04,1.58-.46,2.83.57,2.79,1.69-.04,1.27-1.1,2.62-2.79,3.02Z"/>
    <path class="st0" d="M7.73,104.34c-1.76.25-3.1-.88-3.08-2.13.03-1.38,1.26-2.78,3.08-3.15,1.84-.38,3.15.88,3.13,2.14-.02,1.37-1.22,2.86-3.13,3.14h0Z"/>
    <path class="st0" d="M7.73,112.75c-1.98.11-3.42-1.24-3.41-2.64.01-1.46,1.39-2.97,3.41-3.21,2.09-.25,3.47,1.24,3.46,2.65-.01,1.47-1.35,3.09-3.46,3.2h0Z"/>
    <path class="st0" d="M20.15,170.89c1.13.47,1.86,1.48,1.88,2.43.02.93-.88,1.37-1.88.93-1.11-.49-1.84-1.49-1.87-2.44-.02-.9.87-1.33,1.87-.91Z"/>
    <path class="st0" d="M20.15,161.52c1.37.49,2.18,1.66,2.23,2.74.04.91-.98,1.74-2.23,1.25-1.33-.52-2.16-1.67-2.21-2.75-.04-.9.99-1.67,2.21-1.23Z"/>
    <path class="st0" d="M20.15,152.16c1.6.44,2.54,1.78,2.59,3,.04,1.04-1.08,2.09-2.59,1.62-1.56-.49-2.52-1.8-2.56-3.01-.04-1.04,1.1-2,2.56-1.6h0Z"/>
    <path class="st0" d="M20.15,142.8c1.84.37,2.91,1.86,2.94,3.21.03,1.18-1.18,2.47-2.94,2.04-1.78-.43-2.88-1.88-2.91-3.23-.03-1.18,1.2-2.36,2.91-2.02Z"/>
    <path class="st0" d="M20.15,133.44c2.07.25,3.28,1.93,3.3,3.38.02,1.33-1.27,2.84-3.3,2.5-1.99-.33-3.24-1.94-3.26-3.39-.02-1.33,1.3-2.72,3.26-2.49h0Z"/>
    <path class="st0" d="M20.15,124.07c2.3.11,3.65,1.93,3.65,3.5,0,1.49-1.38,3.24-3.65,3.01-2.21-.22-3.59-1.95-3.6-3.51,0-1.49,1.41-3.1,3.6-3Z"/>
    <path class="st0" d="M20.15,121.85c-2.42-.07-3.95-1.91-3.95-3.57s1.53-3.5,3.95-3.56c2.53-.07,4.01,1.9,4.01,3.57s-1.48,3.64-4.01,3.56Z"/>
    <path class="st0" d="M20.15,65.34c-1,.41-1.89-.01-1.87-.91.02-.95.76-1.96,1.87-2.45,1-.44,1.9,0,1.88.93-.02.95-.75,1.96-1.88,2.43Z"/>
    <path class="st0" d="M20.15,74.7c-1.23.43-2.26-.33-2.21-1.23.05-1.08.88-2.24,2.21-2.75,1.26-.49,2.28.34,2.23,1.25-.05,1.08-.86,2.25-2.23,2.74h0Z"/>
    <path class="st0" d="M20.15,84.06c-1.47.4-2.6-.56-2.56-1.6.05-1.21,1.01-2.53,2.56-3.01,1.51-.47,2.63.58,2.59,1.62-.05,1.21-.99,2.56-2.59,3Z"/>
    <path class="st0" d="M20.15,93.43c-1.71.34-2.94-.84-2.91-2.02.03-1.34,1.13-2.8,2.91-3.23,1.77-.43,2.97.85,2.94,2.04-.03,1.34-1.11,2.84-2.94,3.21Z"/>
    <path class="st0" d="M20.15,102.79c-1.95.23-3.27-1.16-3.26-2.48.02-1.45,1.26-3.06,3.26-3.39,2.02-.34,3.32,1.17,3.3,2.5-.02,1.45-1.23,3.13-3.3,3.38Z"/>
    <path class="st0" d="M20.15,112.15c-2.19.1-3.61-1.51-3.6-3,0-1.56,1.39-3.29,3.6-3.51,2.28-.23,3.66,1.51,3.65,3.01,0,1.56-1.35,3.39-3.65,3.5Z"/>
    <path class="st0" d="M33.2,195.95c.68.3,1.23,1.05,1.23,1.69s-.55.9-1.23.6c-.68-.31-1.22-1.07-1.22-1.69s.55-.89,1.22-.59h0Z"/>
    <path class="st0" d="M33.2,185.75c.98.4,1.58,1.28,1.6,2.1.01.82-.75,1.22-1.6.87-.97-.41-1.57-1.29-1.59-2.11-.02-.8.74-1.2,1.59-.86Z"/>
    <path class="st0" d="M33.2,175.56c1.22.42,1.95,1.49,1.97,2.48.02,1.01-.93,1.56-1.97,1.18-1.2-.44-1.94-1.51-1.95-2.49-.02-.99.91-1.53,1.95-1.16Z"/>
    <path class="st0" d="M33.2,165.37c1.47.43,2.29,1.7,2.34,2.81.04.94-.94,1.97-2.34,1.53-1.44-.46-2.28-1.71-2.32-2.83-.04-.94.95-1.9,2.32-1.51h0Z"/>
    <path class="st0" d="M33.2,155.18c1.71.38,2.67,1.85,2.71,3.11.03,1.09-1.07,2.34-2.71,1.92-1.67-.43-2.65-1.87-2.68-3.13-.03-1.09,1.08-2.26,2.68-1.9h0Z"/>
    <path class="st0" d="M33.2,144.99c1.96.32,3.06,1.97,3.08,3.36.02,1.24-1.16,2.73-3.08,2.35-1.91-.38-3.03-1.99-3.05-3.38-.02-1.24,1.18-2.63,3.05-2.33Z"/>
    <path class="st0" d="M33.2,134.79c2.21.22,3.44,2.06,3.45,3.58.01,1.4-1.26,3.13-3.45,2.82-2.15-.3-3.4-2.07-3.41-3.59-.01-1.4,1.29-3.02,3.41-2.8h0Z"/>
    <path class="st0" d="M33.2,124.6c2.46.09,3.81,2.12,3.82,3.75,0,1.57-1.37,3.53-3.82,3.33-2.38-.19-3.77-2.13-3.78-3.76,0-1.57,1.41-3.41,3.78-3.32Z"/>
    <path class="st0" d="M33.2,122.18c-2.61-.06-4.14-2.14-4.14-3.89,0-1.75,1.53-3.82,4.14-3.88,2.7-.06,4.19,2.14,4.19,3.89s-1.49,3.94-4.19,3.88Z"/>
    <path class="st0" d="M33.2,81.05c-1.6.36-2.72-.81-2.68-1.9.04-1.26,1.01-2.7,2.68-3.13,1.64-.42,2.74.83,2.71,1.92-.04,1.26-1,2.73-2.71,3.11h0Z"/>
    <path class="st0" d="M33.2,91.24c-1.87.3-3.07-1.09-3.05-2.33.02-1.39,1.14-3,3.05-3.38,1.92-.38,3.1,1.11,3.08,2.35-.02,1.39-1.11,3.05-3.08,3.36h0Z"/>
    <path class="st0" d="M33.2,101.43c-2.12.22-3.43-1.41-3.41-2.8.01-1.52,1.27-3.29,3.41-3.59,2.18-.31,3.46,1.42,3.45,2.82-.01,1.52-1.24,3.35-3.45,3.58Z"/>
    <path class="st0" d="M33.2,111.62c-2.37.09-3.78-1.75-3.78-3.32,0-1.63,1.4-3.57,3.78-3.76,2.45-.2,3.83,1.76,3.82,3.33,0,1.63-1.36,3.66-3.82,3.75h0Z"/>
    <path class="st0" d="M46.8,190.47c1.04.35,1.65,1.28,1.66,2.11.01.87-.78,1.37-1.66,1.07-1.03-.36-1.64-1.29-1.65-2.12-.01-.86.77-1.35,1.65-1.06Z"/>
    <path class="st0" d="M46.8,179.57c1.29.37,2.03,1.5,2.04,2.5.01,1.08-.96,1.74-2.04,1.41-1.27-.39-2.02-1.51-2.03-2.52-.01-1.06.95-1.7,2.03-1.39h0Z"/>
    <path class="st0" d="M46.8,168.66c1.55.36,2.39,1.72,2.42,2.86.03.97-.93,2.16-2.42,1.78-1.52-.39-2.37-1.74-2.41-2.88-.03-.97.94-2.1,2.41-1.76Z"/>
    <path class="st0" d="M46.8,157.76c1.81.34,2.79,1.89,2.81,3.19.02,1.13-1.04,2.56-2.81,2.19-1.78-.38-2.76-1.91-2.79-3.21-.02-1.13,1.06-2.49,2.79-2.17Z"/>
    <path class="st0" d="M46.8,146.86c2.07.27,3.17,2.05,3.19,3.48.02,1.29-1.16,2.95-3.19,2.63-2.02-.32-3.15-2.07-3.17-3.5-.02-1.29,1.17-2.87,3.17-2.61Z"/>
    <path class="st0" d="M46.8,135.96c2.33.19,3.57,2.17,3.58,3.74,0,1.46-1.27,3.37-3.58,3.1-2.28-.26-3.54-2.18-3.55-3.76-.01-1.46,1.29-3.27,3.55-3.09Z"/>
    <path class="st0" d="M46.8,125.05c2.6.08,3.96,2.27,3.96,3.97,0,1.64-1.37,3.78-3.96,3.61-2.53-.17-3.92-2.28-3.92-3.97,0-1.64,1.4-3.68,3.92-3.6Z"/>
    <path class="st0" d="M46.8,122.46c-2.77-.06-4.3-2.33-4.3-4.16s1.53-4.1,4.3-4.15c2.85-.05,4.35,2.33,4.35,4.16s-1.5,4.21-4.35,4.15Z"/>
    <path class="st0" d="M46.8,56.66c-1.08.31-2.04-.33-2.03-1.39.01-1.01.76-2.13,2.03-2.52,1.08-.33,2.05.33,2.04,1.41-.01,1.01-.75,2.13-2.04,2.5Z"/>
    <path class="st0" d="M46.8,67.56c-1.47.34-2.44-.79-2.41-1.76.04-1.14.89-2.49,2.41-2.88,1.49-.38,2.45.81,2.42,1.78-.04,1.14-.88,2.5-2.42,2.86h0Z"/>
    <path class="st0" d="M46.8,78.46c-1.73.32-2.81-1.04-2.79-2.17.03-1.3,1.01-2.83,2.79-3.21,1.77-.37,2.83,1.06,2.81,2.19-.02,1.3-1,2.85-2.81,3.19h0Z"/>
    <path class="st0" d="M46.8,89.37c-2,.26-3.19-1.32-3.17-2.61.02-1.43,1.14-3.18,3.17-3.5,2.04-.32,3.21,1.34,3.19,2.63-.02,1.43-1.13,3.21-3.19,3.48h0Z"/>
    <path class="st0" d="M46.8,100.27c-2.26.19-3.56-1.62-3.55-3.09.01-1.57,1.27-3.5,3.55-3.76,2.31-.26,3.59,1.64,3.58,3.1-.01,1.57-1.25,3.55-3.58,3.74Z"/>
    <path class="st0" d="M46.8,111.17c-2.52.08-3.93-1.96-3.92-3.6,0-1.7,1.39-3.81,3.92-3.97,2.59-.17,3.97,1.97,3.96,3.61,0,1.7-1.37,3.88-3.96,3.96Z"/>
    <path class="st0" d="M60.88,171.41c1.61.29,2.47,1.73,2.5,2.89.02,1.01-.93,2.32-2.5,2.01-1.59-.32-2.46-1.74-2.49-2.91-.03-1.02.94-2.27,2.49-1.99Z"/>
    <path class="st0" d="M60.88,159.91c1.89.27,2.88,1.93,2.89,3.24.02,1.17-1.03,2.73-2.89,2.42-1.87-.3-2.86-1.95-2.88-3.26-.02-1.17,1.04-2.67,2.88-2.41Z"/>
    <path class="st0" d="M60.88,148.42c2.16.23,3.28,2.1,3.29,3.57.01,1.34-1.14,3.15-3.29,2.87-2.13-.27-3.26-2.12-3.27-3.59-.01-1.34,1.16-3.08,3.27-2.85Z"/>
    <path class="st0" d="M60.88,136.93c2.43.15,3.68,2.26,3.68,3.87,0,1.51-1.26,3.56-3.68,3.35-2.39-.21-3.65-2.28-3.66-3.88,0-1.52,1.28-3.48,3.66-3.33Z"/>
    <path class="st0" d="M60.88,125.43c2.7.07,4.08,2.39,4.08,4.14,0,1.69-1.38,3.99-4.08,3.85-2.65-.14-4.05-2.4-4.05-4.15,0-1.7,1.41-3.91,4.05-3.84Z"/>
    <path class="st0" d="M60.88,122.7c-2.91-.05-4.44-2.5-4.44-4.38s1.52-4.33,4.44-4.38c2.98-.04,4.48,2.5,4.48,4.38,0,1.88-1.5,4.42-4.48,4.38h0Z"/>
    <path class="st0" d="M60.88,41.83c-.9.25-1.71-.32-1.7-1.24,0-.84.62-1.8,1.7-2.11.9-.26,1.72.32,1.71,1.25,0,.84-.62,1.8-1.71,2.1Z"/>
    <path class="st0" d="M60.88,53.32c-1.28.3-2.12-.75-2.09-1.6.03-1.01.76-2.2,2.09-2.52,1.29-.32,2.13.77,2.1,1.61-.03,1.01-.76,2.2-2.1,2.51h0Z"/>
    <path class="st0" d="M60.88,64.82c-1.55.28-2.51-.97-2.49-1.99.03-1.16.89-2.59,2.49-2.91,1.57-.31,2.52.99,2.5,2.01-.03,1.16-.89,2.6-2.5,2.89h0Z"/>
    <path class="st0" d="M60.88,76.31c-1.84.26-2.89-1.23-2.88-2.41.02-1.31,1.01-2.96,2.88-3.26,1.87-.3,2.91,1.26,2.89,2.43-.02,1.31-1,2.97-2.89,3.24h0Z"/>
    <path class="st0" d="M60.88,87.8c-2.11.22-3.28-1.52-3.27-2.85.01-1.47,1.14-3.31,3.27-3.59,2.14-.28,3.3,1.54,3.29,2.87-.01,1.47-1.13,3.34-3.29,3.57Z"/>
    <path class="st0" d="M60.88,99.3c-2.38.15-3.67-1.81-3.66-3.33,0-1.6,1.27-3.67,3.66-3.88,2.42-.21,3.69,1.83,3.68,3.35,0,1.6-1.25,3.71-3.68,3.87Z"/>
    <path class="st0" d="M60.88,110.79c-2.64.07-4.05-2.14-4.05-3.84,0-1.75,1.4-4.01,4.05-4.15,2.7-.14,4.08,2.15,4.08,3.85,0,1.75-1.38,4.07-4.08,4.14Z"/>
    <path class="st0" d="M75.33,185.57c1.38.24,2.13,1.48,2.15,2.49.02.88-.81,2.05-2.15,1.8-1.37-.26-2.12-1.49-2.14-2.51-.02-.88.81-2.02,2.15-1.78h0Z"/>
    <path class="st0" d="M75.33,173.6c1.66.22,2.53,1.72,2.56,2.89.02,1.05-.93,2.45-2.56,2.21-1.64-.24-2.52-1.74-2.55-2.91-.02-1.06.93-2.41,2.55-2.19Z"/>
    <path class="st0" d="M75.33,161.64c1.95.21,2.95,1.94,2.96,3.27.01,1.21-1.03,2.87-2.96,2.63-1.93-.24-2.93-1.96-2.95-3.28-.01-1.22,1.04-2.82,2.95-2.62Z"/>
    <path class="st0" d="M75.33,149.67c2.23.18,3.36,2.13,3.36,3.62,0,1.38-1.15,3.3-3.36,3.09-2.2-.21-3.34-2.15-3.35-3.64,0-1.38,1.16-3.24,3.35-3.07h0Z"/>
    <path class="st0" d="M75.33,137.7c2.51.12,3.76,2.32,3.77,3.96,0,1.56-1.26,3.73-3.77,3.55-2.48-.17-3.74-2.33-3.75-3.97,0-1.56,1.27-3.66,3.75-3.54Z"/>
    <path class="st0" d="M75.33,125.73c2.79.05,4.17,2.48,4.17,4.27,0,1.74-1.39,4.16-4.17,4.05-2.75-.11-4.15-2.49-4.15-4.28,0-1.75,1.41-4.09,4.15-4.04Z"/>
    <path class="st0" d="M75.33,122.89c-3.02-.04-4.55-2.63-4.55-4.56s1.53-4.53,4.55-4.56c3.07-.03,4.58,2.63,4.58,4.56s-1.51,4.6-4.58,4.56h0Z"/>
    <path class="st0" d="M75.33,26.72c-.74.16-1.34-.3-1.34-1.04s.6-1.48,1.34-1.64c.74-.17,1.34.31,1.34,1.05s-.6,1.47-1.34,1.63Z"/>
    <path class="st0" d="M75.33,38.68c-.92.2-1.75-.45-1.74-1.4,0-.84.62-1.83,1.74-2.08.92-.21,1.75.45,1.75,1.41,0,.84-.61,1.83-1.75,2.07Z"/>
    <path class="st0" d="M75.33,50.65c-1.33.23-2.17-.9-2.14-1.78.02-1.02.77-2.25,2.14-2.51,1.34-.25,2.17.92,2.15,1.8-.02,1.02-.77,2.25-2.15,2.49Z"/>
    <path class="st0" d="M75.33,62.62c-1.61.22-2.57-1.13-2.55-2.19.02-1.17.9-2.67,2.55-2.91,1.63-.24,2.57,1.15,2.56,2.21-.02,1.17-.9,2.67-2.56,2.89h0Z"/>
    <path class="st0" d="M75.33,74.59c-1.91.2-2.96-1.4-2.95-2.62.01-1.33,1.02-3.05,2.95-3.28,1.93-.24,2.97,1.42,2.96,2.64-.01,1.32-1.01,3.06-2.96,3.27h0Z"/>
    <path class="st0" d="M75.33,86.56c-2.19.18-3.36-1.68-3.35-3.07,0-1.49,1.15-3.42,3.35-3.64,2.22-.22,3.37,1.7,3.36,3.09,0,1.49-1.13,3.44-3.36,3.62h0Z"/>
    <path class="st0" d="M75.33,98.52c-2.48.12-3.75-1.98-3.75-3.54,0-1.64,1.27-3.8,3.75-3.97,2.51-.17,3.77,2,3.77,3.56,0,1.63-1.25,3.83-3.77,3.96h0Z"/>
    <path class="st0" d="M75.33,110.49c-2.74.05-4.15-2.29-4.15-4.04,0-1.79,1.4-4.17,4.15-4.28,2.79-.11,4.18,2.3,4.17,4.05,0,1.79-1.39,4.22-4.17,4.27Z"/>
    <path class="st0" d="M90.08,212.22c.75.12,1.37.82,1.37,1.59s-.61,1.29-1.37,1.17c-.75-.12-1.36-.83-1.36-1.6s.61-1.28,1.36-1.17Z"/>
    <path class="st0" d="M90.08,199.9c1.16.18,1.78,1.19,1.78,2.03,0,.99-.84,1.72-1.78,1.56-1.16-.19-1.77-1.2-1.77-2.04,0-.99.83-1.7,1.77-1.55h0Z"/>
    <path class="st0" d="M90.08,187.57c1.41.17,2.17,1.44,2.19,2.46.01.91-.81,2.14-2.19,1.96-1.4-.18-2.17-1.45-2.18-2.47-.02-.91.81-2.12,2.18-1.95Z"/>
    <path class="st0" d="M90.08,175.25c1.71.17,2.59,1.69,2.6,2.87,0,1.07-.9,2.57-2.6,2.38-1.7-.19-2.58-1.71-2.59-2.88-.01-1.07.91-2.53,2.59-2.36Z"/>
    <path class="st0" d="M90.08,162.93c1.99.15,3,1.93,3.01,3.26,0,1.25-1.03,2.98-3.01,2.82-1.98-.17-2.99-1.95-3-3.28-.01-1.25,1.03-2.94,3-2.8Z"/>
    <path class="st0" d="M90.08,150.6c2.28.13,3.41,2.14,3.42,3.64,0,1.42-1.15,3.42-3.42,3.26-2.26-.15-3.4-2.16-3.41-3.66,0-1.42,1.16-3.37,3.41-3.25Z"/>
    <path class="st0" d="M90.08,138.28c2.57.09,3.83,2.35,3.83,4.01,0,1.6-1.26,3.85-3.83,3.73-2.55-.12-3.81-2.37-3.82-4.02,0-1.6,1.28-3.8,3.82-3.71Z"/>
    <path class="st0" d="M90.08,125.96c2.85.03,4.24,2.55,4.24,4.36,0,1.78-1.39,4.28-4.24,4.2-2.83-.07-4.22-2.56-4.23-4.37,0-1.78,1.4-4.23,4.23-4.19Z"/>
    <path class="st0" d="M90.08,123.03c-3.1-.03-4.63-2.73-4.63-4.7s1.53-4.67,4.63-4.69c3.14-.02,4.65,2.73,4.65,4.7s-1.51,4.72-4.65,4.69Z"/>
    <path class="st0" d="M90.08,60.97c-1.68.17-2.6-1.29-2.59-2.37.01-1.17.89-2.7,2.59-2.88,1.69-.19,2.61,1.31,2.6,2.38-.01,1.17-.89,2.69-2.6,2.87Z"/>
    <path class="st0" d="M90.08,73.3c-1.97.14-3.01-1.54-3-2.8.01-1.33,1.02-3.11,3-3.28,1.98-.17,3.02,1.57,3.01,2.82,0,1.33-1.02,3.11-3.01,3.26Z"/>
    <path class="st0" d="M90.08,85.62c-2.25.13-3.42-1.82-3.41-3.25,0-1.5,1.15-3.5,3.41-3.66,2.27-.16,3.43,1.84,3.42,3.26,0,1.5-1.14,3.51-3.42,3.64h0Z"/>
    <path class="st0" d="M90.08,97.94c-2.54.09-3.82-2.11-3.82-3.71,0-1.66,1.27-3.9,3.82-4.02,2.57-.12,3.83,2.13,3.83,3.73,0,1.65-1.26,3.92-3.83,4.01Z"/>
    <path class="st0" d="M90.08,110.27c-2.83.03-4.23-2.41-4.23-4.19,0-1.81,1.4-4.29,4.23-4.37,2.86-.08,4.24,2.42,4.24,4.2,0,1.81-1.39,4.33-4.24,4.36h0Z"/>
    <path class="st0" d="M105.05,188.91c1.42.1,2.2,1.39,2.21,2.4,0,.94-.81,2.22-2.21,2.11-1.42-.11-2.2-1.41-2.21-2.41,0-.94.81-2.19,2.21-2.09h0Z"/>
    <path class="st0" d="M105.05,176.35c1.73.1,2.62,1.65,2.63,2.82,0,1.1-.9,2.65-2.63,2.53-1.73-.11-2.62-1.67-2.62-2.83,0-1.1.91-2.62,2.62-2.52Z"/>
    <path class="st0" d="M105.05,163.79c2.02.08,3.04,1.9,3.04,3.23,0,1.28-1.03,3.06-3.04,2.97-2.01-.1-3.03-1.92-3.04-3.25,0-1.29,1.03-3.03,3.04-2.95h0Z"/>
    <path class="st0" d="M105.05,151.23c2.31.08,3.45,2.13,3.46,3.63,0,1.45-1.15,3.5-3.46,3.41-2.3-.09-3.45-2.15-3.45-3.65,0-1.45,1.16-3.47,3.45-3.39h0Z"/>
    <path class="st0" d="M105.05,138.67c2.61.05,3.87,2.36,3.87,4.02,0,1.63-1.26,3.93-3.87,3.86-2.59-.07-3.86-2.38-3.86-4.04,0-1.63,1.27-3.9,3.86-3.84Z"/>
    <path class="st0" d="M105.05,126.11c2.9.02,4.29,2.58,4.29,4.41s-1.39,4.37-4.29,4.32c-2.88-.05-4.28-2.59-4.28-4.42,0-1.81,1.4-4.33,4.28-4.31Z"/>
    <path class="st0" d="M105.05,123.12c-3.16-.02-4.69-2.8-4.69-4.79s1.53-4.77,4.69-4.78c3.18-.01,4.7,2.8,4.7,4.79s-1.52,4.8-4.7,4.79Z"/>
    <path class="st0" d="M105.05,47.32c-1.4.1-2.22-1.15-2.21-2.09.01-1.01.79-2.3,2.21-2.41,1.41-.11,2.22,1.17,2.21,2.11,0,1-.79,2.29-2.21,2.4Z"/>
    <path class="st0" d="M105.05,59.88c-1.72.1-2.63-1.41-2.62-2.52,0-1.17.9-2.72,2.62-2.83,1.72-.11,2.63,1.43,2.63,2.53,0,1.16-.9,2.71-2.63,2.82Z"/>
    <path class="st0" d="M105.05,72.44c-2.01.08-3.04-1.66-3.04-2.95,0-1.33,1.03-3.15,3.04-3.24,2.01-.1,3.05,1.68,3.04,2.97,0,1.33-1.02,3.14-3.04,3.23h0Z"/>
    <path class="st0" d="M105.05,85c-2.3.08-3.45-1.94-3.45-3.39,0-1.5,1.15-3.55,3.45-3.65,2.3-.09,3.46,1.96,3.46,3.41,0,1.5-1.15,3.55-3.46,3.63Z"/>
    <path class="st0" d="M105.05,97.56c-2.59.05-3.87-2.22-3.86-3.84,0-1.66,1.27-3.96,3.86-4.04,2.61-.07,3.87,2.23,3.87,3.86,0,1.66-1.26,3.97-3.87,4.02h0Z"/>
    <path class="st0" d="M105.05,110.12c-2.88.02-4.28-2.5-4.28-4.31,0-1.82,1.39-4.37,4.28-4.42,2.9-.05,4.29,2.51,4.29,4.32,0,1.82-1.39,4.39-4.29,4.41Z"/>
    <path class="st0" d="M119.86,202.25c-1.19.06-1.8,1.09-1.81,1.89,0,.82.69,1.81,1.81,1.8,1.12,0,1.81-1.09,1.81-1.9,0-1.02-.84-1.84-1.81-1.79Z"/>
    <path class="st0" d="M119.86,189.57c-1.43.03-2.22,1.33-2.22,2.32,0,.97.8,2.27,2.22,2.23,1.42-.04,2.22-1.34,2.22-2.33,0-.97-.8-2.25-2.22-2.22Z"/>
    <path class="st0" d="M119.86,176.9c-1.74.04-2.64,1.59-2.64,2.74,0,1.13.9,2.7,2.64,2.66,1.74-.04,2.64-1.61,2.64-2.76,0-1.13-.9-2.68-2.64-2.64h0Z"/>
    <path class="st0" d="M119.86,164.22c-2.04.03-3.06,1.85-3.06,3.16,0,1.3,1.01,3.12,3.06,3.09,2.04-.03,3.05-1.86,3.06-3.18,0-1.3-1.02-3.1-3.06-3.07h0Z"/>
    <path class="st0" d="M119.86,151.54c-2.32.03-3.47,2.09-3.47,3.58,0,1.48,1.15,3.55,3.47,3.52,2.32-.03,3.47-2.11,3.47-3.6,0-1.48-1.15-3.53-3.47-3.5Z"/>
    <path class="st0" d="M119.86,138.86c-2.62.02-3.89,2.34-3.89,4,0,1.65,1.27,3.98,3.89,3.96,2.62-.02,3.89-2.35,3.89-4.01,0-1.65-1.27-3.96-3.89-3.94h0Z"/>
    <path class="st0" d="M119.86,126.18c-2.92,0-4.31,2.59-4.31,4.42s1.39,4.41,4.31,4.39c2.91-.02,4.31-2.6,4.31-4.43s-1.39-4.39-4.31-4.38h0Z"/>
    <path class="st0" d="M119.86,113.51c-3.2,0-4.72,2.83-4.72,4.83s1.53,4.84,4.72,4.83c3.19,0,4.72-2.83,4.72-4.83s-1.53-4.82-4.72-4.83Z"/>
    <path class="st0" d="M119.86,33.97c.96.05,1.8-.78,1.81-1.79,0-.81-.68-1.89-1.81-1.9-1.12,0-1.81.98-1.81,1.8,0,.8.61,1.83,1.81,1.89h0Z"/>
    <path class="st0" d="M119.86,46.65c1.42.03,2.23-1.25,2.22-2.22,0-.99-.8-2.29-2.22-2.33-1.42-.04-2.22,1.26-2.22,2.23,0,.99.8,2.28,2.22,2.32h0Z"/>
    <path class="st0" d="M119.86,59.33c1.74.03,2.64-1.51,2.64-2.64,0-1.15-.9-2.72-2.64-2.76-1.74-.04-2.64,1.53-2.64,2.66,0,1.15.9,2.71,2.64,2.74h0Z"/>
    <path class="st0" d="M119.86,72.01c2.04.03,3.06-1.77,3.06-3.07,0-1.32-1.01-3.15-3.06-3.18-2.04-.04-3.06,1.79-3.06,3.09,0,1.32,1.01,3.13,3.06,3.16Z"/>
    <path class="st0" d="M119.86,84.68c2.32.03,3.47-2.03,3.47-3.5,0-1.49-1.15-3.57-3.47-3.6-2.32-.03-3.47,2.04-3.47,3.52s1.15,3.56,3.47,3.58h0Z"/>
    <path class="st0" d="M119.86,97.36c2.62.02,3.89-2.29,3.89-3.94,0-1.66-1.27-3.99-3.89-4.02-2.62-.02-3.89,2.31-3.89,3.96,0,1.66,1.27,3.98,3.89,4Z"/>
    <path class="st0" d="M119.86,110.04c2.91,0,4.31-2.56,4.31-4.38,0-1.83-1.39-4.41-4.31-4.42-2.92-.02-4.31,2.57-4.31,4.39s1.39,4.41,4.31,4.42h0Z"/>
  </g>
  <g>
    <circle class="st3" cx="118.36" cy="114.61" r="37.46"/>
    <g>
      <path class="st1" d="M113.4,80.81c-.95.91-1.43,1.6-2.27,3.29-1.52,3.03-2.06,5.93-1.66,8.87.23,1.68.75,3.38,1.15,3.71.13.11.23.27.23.37s.13.32.29.5c.28.32.28.32-.12.2-.97-.3-2.22-1.28-3.11-2.45-.68-.9-1.32-2.67-1.63-4.5-.07-.39-.2-.62-.35-.62-.31,0-2.97,1.32-3.04,1.52-.03.08-.13.15-.22.15s-.37.15-.61.34c-.24.19-1.04.79-1.77,1.35-1.32,1-3.77,3.4-4.58,4.47-.23.3-.49.63-.58.73-.16.17-.59.81-1.45,2.18-.47.75-1.13,2.01-1.13,2.16,0,.06.55-.35,1.23-.9,2.43-1.98,4.28-3.03,6.6-3.74,2.1-.64,2.22-.55.65.52-1.44.98-4.31,3.72-5.28,5.04-2.62,3.57-4.13,6.69-4.68,9.65-.4,2.18-.4,6.16,0,6.16.08,0,.14-.14.14-.32,0-1.21,1.91-5.44,3.23-7.15,1.55-2,4.35-4.52,5.02-4.52.07,0,0,.13-.13.29-.27.32-1.25,1.96-1.96,3.29-1.47,2.77-2.49,6.62-2.5,9.4,0,2.46.88,5.74,2.09,7.74.31.52.57.98.57,1.01,0,.2,2.16,2.47,3,3.15.76.62,1.9,1.34,2.91,1.84.98.49,2.53,1,2.65.88.04-.04-.46-.63-1.09-1.31-2.1-2.27-3.74-4.96-4.57-7.49-.59-1.81-.27-6.4.53-7.45.19-.26.22-.18.23.62.03,2.11.98,4.43,2.7,6.62.56.71,1.06,1.33,1.11,1.37.05.05.58.64,1.17,1.33.59.69,1.12,1.29,1.17,1.33.65.61,3.16,4.16,3.16,4.47,0,.09.06.18.14.22.23.09,1.46,2.76,1.94,4.22.29.88.47,1.85.53,2.87.05.85.13,1.54.17,1.54.37,0,1.77-2.22,2.22-3.51.51-1.49.63-4.23.25-5.81-.36-1.5-1.11-3.14-2.02-4.45-.4-.57-.68-1.04-.62-1.04.62,0,3.87,3.06,4.55,4.29.19.34.51.92.72,1.28.82,1.47,1.19,3.03,1.18,5.08,0,2.5-.59,4.44-2.04,6.82-.2.32-.43.71-.53.87-.28.45.08.37,1.32-.32,2.79-1.54,5.98-4.75,7.47-7.49.49-.9,1.04-3.05,1.04-4.06,0-1.45-.72-4.21-1.26-4.79-.17-.19-.23-.09-.32.58-.23,1.79-1.24,4.71-1.37,3.97-.39-2.24-.9-3.56-2.02-5.18-1.28-1.87-2.53-2.88-6.93-5.62-2.77-1.72-3.79-2.48-5.91-4.34-.9-.79-2-1.95-2.01-2.11,0-.06-.1-.21-.21-.33-.4-.42-1.25-1.93-1.64-2.9-.34-.86-.39-1.25-.38-3.22,0-1.98.06-2.41.45-3.58.24-.73.73-1.81,1.07-2.39.62-1.04,2.14-2.74,3.12-3.49.61-.47,2.65-1.45,3.33-1.6.48-.11.46-.08-.34.69-2.01,1.91-3.74,4.61-4.33,6.78-.46,1.68-.5,5.25-.05,5.25.09,0,.16-.07.16-.16,0-.37.86-2.01,1.55-2.94.41-.55,1.1-1.29,1.55-1.65.45-.36.85-.7.9-.75.13-.15,2.36-1.27,2.81-1.4.46-.14.47-.15-.6,1.39-1.45,2.09-2.31,5.06-2.16,7.43.07,1.18.79,3.82,1.1,4.08.06.05.33.42.6.82.64.94,1.85,2.16,3,3.01,1.21.9,1.55.9.92,0-.95-1.34-1.55-4.6-1.18-6.42.21-1.04.95-2.75,1.19-2.75.08,0,.14.41.14.91,0,2.59.86,4.3,3.49,6.91,1.06,1.05,2.41,2.36,3.01,2.91,3.2,2.96,4.65,5.49,5.07,8.82.23,1.89.1,3.59-.41,5.12-.17.53-.26.96-.18.96.26,0,1.48-1.76,2.15-3.1.71-1.42,1.36-4.01,1.36-5.42,0-1.85-.64-3.92-1.68-5.45-.84-1.24-1.61-2-3.51-3.43-2.27-1.72-2.78-2.58-1.95-3.33.3-.27.61-.32,2.12-.32,1.62,0,1.96.06,3.93.69,3.34,1.06,3.71,1.14,5.58,1.14,1.43,0,1.88-.06,2.5-.35.77-.36,2-1.38,2-1.66,0-.09-.69-.24-1.54-.34-.95-.11-2.21-.42-3.29-.81-3.07-1.09-6.38-2.19-7.28-2.42-.48-.12-.87-.28-.87-.35s.32-.21.7-.32c.82-.22,2.66.01,4.04.51.46.17,1.66.6,2.67.97,3.99,1.45,6.11,1.69,7.75.88.83-.41,1.81-1.23,1.81-1.51,0-.11-.27-.43-.59-.71-.85-.75-1.35-1.83-1.26-2.73.03-.34,1.28-.61,2.54-.54l1.24.06-.42-.35c-.23-.19-.8-.61-1.25-.92s-1.13-.79-1.5-1.06c-1.37-1-2.83-2.09-3-2.22-.09-.07-.65-.47-1.25-.88-.59-.41-1.12-.78-1.16-.83s-.64-.46-1.33-.91-1.33-.9-1.43-1c-.1-.09-.27-.73-.38-1.42-.29-1.78-.73-2.55-2.36-4.16-2.2-2.18-5.35-4.35-8.7-6.01-1.12-.55-2.16-1.07-2.32-1.16-.16-.09-.4-.16-.54-.16-.15,0-.54-.62-1.01-1.62-.73-1.55-1.52-2.89-1.78-3.01-.07-.03-.12-.13-.12-.23,0-.15-.55-.86-1.83-2.37-.87-1.03-2.42-2.43-2.68-2.43-.15,0-.57.28-.92.62M114.03,84.47c-.54.65-1.28,2.3-1.52,3.38-.12.54-.18,1.65-.14,2.66.06,1.57.12,1.84.62,2.82.82,1.6,2.77,3.43,2.45,2.29-.34-1.2-.44-2.18-.34-3.41.1-1.33.12-1.37.53-1.37.45,0,2.25.85,2.66,1.26.43.43.51.12.28-1.13-.22-1.19-1.28-3.62-2.16-4.93-.46-.68-1.71-2.03-1.88-2.03-.06,0-.29.21-.49.46M123.35,85.22c-.51,1.07-1.02,2.64-1.02,3.12,0,.16.25.35.62.48,1.41.48,2.85,1.13,3.87,1.74.59.36,1.14.68,1.21.72.39.23-2.25-5.01-2.82-5.57-.12-.12-.22-.27-.22-.33,0-.15-.93-1.19-1.05-1.19-.05,0-.32.47-.59,1.04M123.83,99.8l-1.41.1.75.32c2.41,1.03,2.71,1.22,3.33,2.12.95,1.39,1.68,1.79,3.53,1.95,1.16.1,1.76.24,2.41.57,1.02.52,1.05.52,1.05.19,0-.74-3.15-4.57-3.77-4.57-.12,0-.23-.06-.23-.14,0-.44-3.08-.74-5.66-.55"/>
      <path class="st2" d="M118.05,73.88c-22.38,0-40.53,18.14-40.53,40.53s18.14,40.53,40.53,40.53,40.53-18.14,40.53-40.53-18.14-40.53-40.53-40.53ZM118.05,151.56c-20.52,0-37.15-16.63-37.15-37.15s16.63-37.15,37.15-37.15,37.15,16.63,37.15,37.15-16.63,37.15-37.15,37.15Z"/>
    </g>
  </g>
</svg>